<?xml version="1.0" encoding="UTF-8" standalone="no"?>
<!DOCTYPE svg PUBLIC "-//W3C//DTD SVG 1.1//EN"
 "http://www.w3.org/Graphics/SVG/1.1/DTD/svg11.dtd">
<!-- Generated by graphviz version 2.43.0 (0)
 -->
<!-- Title: ar_information.h Pages: 1 -->
<svg width="500pt" height="252pt"
 viewBox="0.00 0.00 500.01 252.00" xmlns="http://www.w3.org/2000/svg" xmlns:xlink="http://www.w3.org/1999/xlink">
<g id="graph0" class="graph" transform="scale(1 1) rotate(0) translate(4 248)">
<title>ar_information.h</title>
<polygon fill="white" stroke="transparent" points="-4,4 -4,-248 496.01,-248 496.01,4 -4,4"/>
<!-- Node1 -->
<g id="node1" class="node">
<title>Node1</title>
<g id="a_node1"><a xlink:title=" ">
<polygon fill="#bfbfbf" stroke="black" points="81.01,-224.5 81.01,-243.5 167.01,-243.5 167.01,-224.5 81.01,-224.5"/>
<text text-anchor="middle" x="124.01" y="-231.5" font-family="FreeSans" font-size="10.00">ar_information.h</text>
</a>
</g>
</g>
<!-- Node2 -->
<g id="node2" class="node">
<title>Node2</title>
<g id="a_node2"><a xlink:href="Float_8h.html" target="_top" xlink:title=" ">
<polygon fill="white" stroke="black" points="99.01,-56.5 99.01,-75.5 187.01,-75.5 187.01,-56.5 99.01,-56.5"/>
<text text-anchor="middle" x="143.01" y="-63.5" font-family="FreeSans" font-size="10.00">Common/Float.h</text>
</a>
</g>
</g>
<!-- Node1&#45;&gt;Node2 -->
<g id="edge1" class="edge">
<title>Node1&#45;&gt;Node2</title>
<path fill="none" stroke="midnightblue" d="M103.66,-224.38C62.13,-205.56 -25.68,-158.74 8.01,-112 26.36,-86.54 59.73,-75.27 88.71,-70.37"/>
<polygon fill="midnightblue" stroke="midnightblue" points="89.36,-73.81 98.74,-68.89 88.34,-66.89 89.36,-73.81"/>
</g>
<!-- Node4 -->
<g id="node4" class="node">
<title>Node4</title>
<g id="a_node4"><a xlink:href="list_8h.html" target="_top" xlink:title=" ">
<polygon fill="white" stroke="black" points="16.51,-112.5 16.51,-131.5 95.51,-131.5 95.51,-112.5 16.51,-112.5"/>
<text text-anchor="middle" x="56.01" y="-119.5" font-family="FreeSans" font-size="10.00">Common/list.h</text>
</a>
</g>
</g>
<!-- Node1&#45;&gt;Node4 -->
<g id="edge3" class="edge">
<title>Node1&#45;&gt;Node4</title>
<path fill="none" stroke="midnightblue" d="M97.08,-224.36C80.29,-217.41 60.03,-205.82 50.01,-188 42.03,-173.81 44.89,-155.09 48.94,-141.38"/>
<polygon fill="midnightblue" stroke="midnightblue" points="52.35,-142.24 52.26,-131.65 45.72,-139.98 52.35,-142.24"/>
</g>
<!-- Node5 -->
<g id="node5" class="node">
<title>Node5</title>
<g id="a_node5"><a xlink:href="binary__tree_8h.html" target="_top" xlink:title=" ">
<polygon fill="white" stroke="black" points="297.51,-112.5 297.51,-131.5 410.51,-131.5 410.51,-112.5 297.51,-112.5"/>
<text text-anchor="middle" x="354.01" y="-119.5" font-family="FreeSans" font-size="10.00">Common/binary_tree.h</text>
</a>
</g>
</g>
<!-- Node1&#45;&gt;Node5 -->
<g id="edge5" class="edge">
<title>Node1&#45;&gt;Node5</title>
<path fill="none" stroke="midnightblue" d="M167.05,-230.59C206.18,-226.6 264.05,-216.01 306.01,-188 323.64,-176.23 337.18,-155.7 345.32,-140.86"/>
<polygon fill="midnightblue" stroke="midnightblue" points="348.59,-142.16 350.07,-131.67 342.37,-138.95 348.59,-142.16"/>
</g>
<!-- Node10 -->
<g id="node10" class="node">
<title>Node10</title>
<g id="a_node10"><a xlink:href="hermite__particle_8h.html" target="_top" xlink:title=" ">
<polygon fill="white" stroke="black" points="58.51,-168.5 58.51,-187.5 189.51,-187.5 189.51,-168.5 58.51,-168.5"/>
<text text-anchor="middle" x="124.01" y="-175.5" font-family="FreeSans" font-size="10.00">Hermite/hermite_particle.h</text>
</a>
</g>
</g>
<!-- Node1&#45;&gt;Node10 -->
<g id="edge12" class="edge">
<title>Node1&#45;&gt;Node10</title>
<path fill="none" stroke="midnightblue" d="M124.01,-224.08C124.01,-217.01 124.01,-206.86 124.01,-197.99"/>
<polygon fill="midnightblue" stroke="midnightblue" points="127.51,-197.75 124.01,-187.75 120.51,-197.75 127.51,-197.75"/>
</g>
<!-- Node11 -->
<g id="node11" class="node">
<title>Node11</title>
<g id="a_node11"><a xlink:href="information_8h.html" target="_top" xlink:title=" ">
<polygon fill="white" stroke="black" points="207.51,-168.5 207.51,-187.5 296.51,-187.5 296.51,-168.5 207.51,-168.5"/>
<text text-anchor="middle" x="252.01" y="-175.5" font-family="FreeSans" font-size="10.00">AR/information.h</text>
</a>
</g>
</g>
<!-- Node1&#45;&gt;Node11 -->
<g id="edge14" class="edge">
<title>Node1&#45;&gt;Node11</title>
<path fill="none" stroke="midnightblue" d="M144.29,-224.44C165.36,-215.56 198.53,-201.56 222.49,-191.45"/>
<polygon fill="midnightblue" stroke="midnightblue" points="223.97,-194.63 231.82,-187.52 221.25,-188.18 223.97,-194.63"/>
</g>
<!-- Node3 -->
<g id="node3" class="node">
<title>Node3</title>
<g id="a_node3"><a xlink:title=" ">
<polygon fill="white" stroke="#bfbfbf" points="123.01,-0.5 123.01,-19.5 163.01,-19.5 163.01,-0.5 123.01,-0.5"/>
<text text-anchor="middle" x="143.01" y="-7.5" font-family="FreeSans" font-size="10.00">limits</text>
</a>
</g>
</g>
<!-- Node2&#45;&gt;Node3 -->
<g id="edge2" class="edge">
<title>Node2&#45;&gt;Node3</title>
<path fill="none" stroke="midnightblue" d="M143.01,-56.08C143.01,-49.01 143.01,-38.86 143.01,-29.99"/>
<polygon fill="midnightblue" stroke="midnightblue" points="146.51,-29.75 143.01,-19.75 139.51,-29.75 146.51,-29.75"/>
</g>
<!-- Node4&#45;&gt;Node2 -->
<g id="edge4" class="edge">
<title>Node4&#45;&gt;Node2</title>
<path fill="none" stroke="midnightblue" d="M69.99,-112.32C83.56,-103.9 104.39,-90.97 120.33,-81.07"/>
<polygon fill="midnightblue" stroke="midnightblue" points="122.41,-83.9 129.06,-75.65 118.72,-77.95 122.41,-83.9"/>
</g>
<!-- Node5&#45;&gt;Node2 -->
<g id="edge8" class="edge">
<title>Node5&#45;&gt;Node2</title>
<path fill="none" stroke="midnightblue" d="M320.57,-112.44C284.15,-103.12 225.78,-88.18 185.98,-78"/>
<polygon fill="midnightblue" stroke="midnightblue" points="186.84,-74.61 176.29,-75.52 185.11,-81.39 186.84,-74.61"/>
</g>
<!-- Node6 -->
<g id="node6" class="node">
<title>Node6</title>
<g id="a_node6"><a xlink:title=" ">
<polygon fill="white" stroke="#bfbfbf" points="317.01,-0.5 317.01,-19.5 361.01,-19.5 361.01,-0.5 317.01,-0.5"/>
<text text-anchor="middle" x="339.01" y="-7.5" font-family="FreeSans" font-size="10.00">cmath</text>
</a>
</g>
</g>
<!-- Node5&#45;&gt;Node6 -->
<g id="edge6" class="edge">
<title>Node5&#45;&gt;Node6</title>
<path fill="none" stroke="midnightblue" d="M343.57,-112.24C334.58,-103.97 322.26,-90.66 317.01,-76 311.25,-59.94 318.82,-41.5 326.61,-28.37"/>
<polygon fill="midnightblue" stroke="midnightblue" points="329.63,-30.16 332.13,-19.87 323.75,-26.35 329.63,-30.16"/>
</g>
<!-- Node7 -->
<g id="node7" class="node">
<title>Node7</title>
<g id="a_node7"><a xlink:title=" ">
<polygon fill="white" stroke="#bfbfbf" points="326.01,-56.5 326.01,-75.5 382.01,-75.5 382.01,-56.5 326.01,-56.5"/>
<text text-anchor="middle" x="354.01" y="-63.5" font-family="FreeSans" font-size="10.00">algorithm</text>
</a>
</g>
</g>
<!-- Node5&#45;&gt;Node7 -->
<g id="edge7" class="edge">
<title>Node5&#45;&gt;Node7</title>
<path fill="none" stroke="midnightblue" d="M354.01,-112.08C354.01,-105.01 354.01,-94.86 354.01,-85.99"/>
<polygon fill="midnightblue" stroke="midnightblue" points="357.51,-85.75 354.01,-75.75 350.51,-85.75 357.51,-85.75"/>
</g>
<!-- Node8 -->
<g id="node8" class="node">
<title>Node8</title>
<g id="a_node8"><a xlink:href="matrix_8h.html" target="_top" xlink:title=" ">
<polygon fill="white" stroke="black" points="400.01,-56.5 400.01,-75.5 492.01,-75.5 492.01,-56.5 400.01,-56.5"/>
<text text-anchor="middle" x="446.01" y="-63.5" font-family="FreeSans" font-size="10.00">Common/matrix.h</text>
</a>
</g>
</g>
<!-- Node5&#45;&gt;Node8 -->
<g id="edge9" class="edge">
<title>Node5&#45;&gt;Node8</title>
<path fill="none" stroke="midnightblue" d="M368.79,-112.32C383.28,-103.82 405.58,-90.73 422.5,-80.8"/>
<polygon fill="midnightblue" stroke="midnightblue" points="424.41,-83.74 431.26,-75.65 420.87,-77.7 424.41,-83.74"/>
</g>
<!-- Node8&#45;&gt;Node6 -->
<g id="edge10" class="edge">
<title>Node8&#45;&gt;Node6</title>
<path fill="none" stroke="midnightblue" d="M428.82,-56.32C411.66,-47.66 385.06,-34.24 365.26,-24.25"/>
<polygon fill="midnightblue" stroke="midnightblue" points="366.66,-21.04 356.16,-19.65 363.51,-27.28 366.66,-21.04"/>
</g>
<!-- Node9 -->
<g id="node9" class="node">
<title>Node9</title>
<g id="a_node9"><a xlink:title=" ">
<polygon fill="white" stroke="#bfbfbf" points="421.01,-0.5 421.01,-19.5 471.01,-19.5 471.01,-0.5 421.01,-0.5"/>
<text text-anchor="middle" x="446.01" y="-7.5" font-family="FreeSans" font-size="10.00">iomanip</text>
</a>
</g>
</g>
<!-- Node8&#45;&gt;Node9 -->
<g id="edge11" class="edge">
<title>Node8&#45;&gt;Node9</title>
<path fill="none" stroke="midnightblue" d="M446.01,-56.08C446.01,-49.01 446.01,-38.86 446.01,-29.99"/>
<polygon fill="midnightblue" stroke="midnightblue" points="449.51,-29.75 446.01,-19.75 442.51,-29.75 449.51,-29.75"/>
</g>
<!-- Node10&#45;&gt;Node2 -->
<g id="edge13" class="edge">
<title>Node10&#45;&gt;Node2</title>
<path fill="none" stroke="midnightblue" d="M125.5,-168.37C128.57,-150.62 135.64,-109.67 139.8,-85.6"/>
<polygon fill="midnightblue" stroke="midnightblue" points="143.27,-86.04 141.52,-75.59 136.37,-84.85 143.27,-86.04"/>
</g>
<!-- Node11&#45;&gt;Node2 -->
<g id="edge15" class="edge">
<title>Node11&#45;&gt;Node2</title>
<path fill="none" stroke="midnightblue" d="M234,-168.4C218.82,-160.5 197.19,-147.66 182.01,-132 168.59,-118.16 157.76,-98.88 150.95,-84.92"/>
<polygon fill="midnightblue" stroke="midnightblue" points="154.12,-83.43 146.72,-75.84 147.77,-86.39 154.12,-83.43"/>
</g>
<!-- Node11&#45;&gt;Node5 -->
<g id="edge16" class="edge">
<title>Node11&#45;&gt;Node5</title>
<path fill="none" stroke="midnightblue" d="M268.4,-168.32C284.68,-159.7 309.88,-146.36 328.72,-136.39"/>
<polygon fill="midnightblue" stroke="midnightblue" points="330.46,-139.43 337.66,-131.65 327.19,-133.24 330.46,-139.43"/>
</g>
<!-- Node12 -->
<g id="node12" class="node">
<title>Node12</title>
<g id="a_node12"><a xlink:href="slow__down_8h.html" target="_top" xlink:title=" ">
<polygon fill="white" stroke="black" points="190.51,-112.5 190.51,-131.5 279.51,-131.5 279.51,-112.5 190.51,-112.5"/>
<text text-anchor="middle" x="235.01" y="-119.5" font-family="FreeSans" font-size="10.00">AR/slow_down.h</text>
</a>
</g>
</g>
<!-- Node11&#45;&gt;Node12 -->
<g id="edge17" class="edge">
<title>Node11&#45;&gt;Node12</title>
<path fill="none" stroke="midnightblue" d="M249.2,-168.08C246.92,-160.85 243.64,-150.41 240.8,-141.4"/>
<polygon fill="midnightblue" stroke="midnightblue" points="244.1,-140.24 237.76,-131.75 237.43,-142.34 244.1,-140.24"/>
</g>
<!-- Node12&#45;&gt;Node2 -->
<g id="edge18" class="edge">
<title>Node12&#45;&gt;Node2</title>
<path fill="none" stroke="midnightblue" d="M220.23,-112.32C205.74,-103.82 183.44,-90.73 166.51,-80.8"/>
<polygon fill="midnightblue" stroke="midnightblue" points="168.15,-77.7 157.75,-75.65 164.61,-83.74 168.15,-77.7"/>
</g>
</g>
</svg>
