<?xml version="1.0" encoding="UTF-8" standalone="no"?>
<!DOCTYPE svg PUBLIC "-//W3C//DTD SVG 1.1//EN"
 "http://www.w3.org/Graphics/SVG/1.1/DTD/svg11.dtd">
<!-- Generated by graphviz version 2.38.0 (20140413.2041)
 -->
<!-- Title: ar_information.h Pages: 1 -->
<svg width="486pt" height="252pt"
 viewBox="0.00 0.00 485.55 252.00" xmlns="http://www.w3.org/2000/svg" xmlns:xlink="http://www.w3.org/1999/xlink">
<g id="graph0" class="graph" transform="scale(1 1) rotate(0) translate(4 248)">
<title>ar_information.h</title>
<polygon fill="white" stroke="none" points="-4,4 -4,-248 481.547,-248 481.547,4 -4,4"/>
<!-- Node1 -->
<g id="node1" class="node"><title>Node1</title>
<polygon fill="#bfbfbf" stroke="black" points="132.547,-224.5 132.547,-243.5 218.547,-243.5 218.547,-224.5 132.547,-224.5"/>
<text text-anchor="middle" x="175.547" y="-231.5" font-family="FreeSans" font-size="10.00">ar_information.h</text>
</g>
<!-- Node2 -->
<g id="node2" class="node"><title>Node2</title>
<g id="a_node2"><a xlink:href="Float_8h.html" target="_top" xlink:title="Common/Float.h">
<polygon fill="white" stroke="black" points="70.5469,-112.5 70.5469,-131.5 158.547,-131.5 158.547,-112.5 70.5469,-112.5"/>
<text text-anchor="middle" x="114.547" y="-119.5" font-family="FreeSans" font-size="10.00">Common/Float.h</text>
</a>
</g>
</g>
<!-- Node1&#45;&gt;Node2 -->
<g id="edge1" class="edge"><title>Node1&#45;&gt;Node2</title>
<path fill="none" stroke="midnightblue" d="M132.2,-227.55C87.0909,-220.884 20.9104,-207.959 5.54695,-188 -14.377,-162.116 25.3304,-144.412 62.2849,-134.095"/>
<polygon fill="midnightblue" stroke="midnightblue" points="63.3078,-137.445 72.0813,-131.506 61.5189,-130.678 63.3078,-137.445"/>
</g>
<!-- Node4 -->
<g id="node4" class="node"><title>Node4</title>
<g id="a_node4"><a xlink:href="list_8h.html" target="_top" xlink:title="Common/list.h">
<polygon fill="white" stroke="black" points="14.5469,-168.5 14.5469,-187.5 92.5469,-187.5 92.5469,-168.5 14.5469,-168.5"/>
<text text-anchor="middle" x="53.5469" y="-175.5" font-family="FreeSans" font-size="10.00">Common/list.h</text>
</a>
</g>
</g>
<!-- Node1&#45;&gt;Node4 -->
<g id="edge3" class="edge"><title>Node1&#45;&gt;Node4</title>
<path fill="none" stroke="midnightblue" d="M156.216,-224.444C136.227,-215.596 104.804,-201.687 81.983,-191.586"/>
<polygon fill="midnightblue" stroke="midnightblue" points="83.3487,-188.363 72.7878,-187.516 80.5154,-194.764 83.3487,-188.363"/>
</g>
<!-- Node5 -->
<g id="node5" class="node"><title>Node5</title>
<g id="a_node5"><a xlink:href="binary__tree_8h.html" target="_top" xlink:title="Common/binary_tree.h">
<polygon fill="white" stroke="black" points="283.047,-112.5 283.047,-131.5 396.047,-131.5 396.047,-112.5 283.047,-112.5"/>
<text text-anchor="middle" x="339.547" y="-119.5" font-family="FreeSans" font-size="10.00">Common/binary_tree.h</text>
</a>
</g>
</g>
<!-- Node1&#45;&gt;Node5 -->
<g id="edge5" class="edge"><title>Node1&#45;&gt;Node5</title>
<path fill="none" stroke="midnightblue" d="M218.639,-228.355C266.646,-222.187 339.744,-209.492 356.547,-188 367.288,-174.262 359.686,-154.402 351.502,-140.256"/>
<polygon fill="midnightblue" stroke="midnightblue" points="354.273,-138.09 345.962,-131.52 348.362,-141.84 354.273,-138.09"/>
</g>
<!-- Node9 -->
<g id="node9" class="node"><title>Node9</title>
<g id="a_node9"><a xlink:href="hermite__particle_8h.html" target="_top" xlink:title="Hermite/hermite_particle.h">
<polygon fill="white" stroke="black" points="110.547,-168.5 110.547,-187.5 240.547,-187.5 240.547,-168.5 110.547,-168.5"/>
<text text-anchor="middle" x="175.547" y="-175.5" font-family="FreeSans" font-size="10.00">Hermite/hermite_particle.h</text>
</a>
</g>
</g>
<!-- Node1&#45;&gt;Node9 -->
<g id="edge10" class="edge"><title>Node1&#45;&gt;Node9</title>
<path fill="none" stroke="midnightblue" d="M175.547,-224.083C175.547,-217.006 175.547,-206.861 175.547,-197.986"/>
<polygon fill="midnightblue" stroke="midnightblue" points="179.047,-197.751 175.547,-187.751 172.047,-197.751 179.047,-197.751"/>
</g>
<!-- Node10 -->
<g id="node10" class="node"><title>Node10</title>
<g id="a_node10"><a xlink:href="information_8h.html" target="_top" xlink:title="AR/information.h">
<polygon fill="white" stroke="black" points="259.047,-168.5 259.047,-187.5 348.047,-187.5 348.047,-168.5 259.047,-168.5"/>
<text text-anchor="middle" x="303.547" y="-175.5" font-family="FreeSans" font-size="10.00">AR/information.h</text>
</a>
</g>
</g>
<!-- Node1&#45;&gt;Node10 -->
<g id="edge12" class="edge"><title>Node1&#45;&gt;Node10</title>
<path fill="none" stroke="midnightblue" d="M195.829,-224.444C216.894,-215.557 250.064,-201.563 274.032,-191.451"/>
<polygon fill="midnightblue" stroke="midnightblue" points="275.507,-194.628 283.36,-187.516 272.786,-188.179 275.507,-194.628"/>
</g>
<!-- Node3 -->
<g id="node3" class="node"><title>Node3</title>
<polygon fill="white" stroke="#bfbfbf" points="95.0469,-56.5 95.0469,-75.5 134.047,-75.5 134.047,-56.5 95.0469,-56.5"/>
<text text-anchor="middle" x="114.547" y="-63.5" font-family="FreeSans" font-size="10.00">limits</text>
</g>
<!-- Node2&#45;&gt;Node3 -->
<g id="edge2" class="edge"><title>Node2&#45;&gt;Node3</title>
<path fill="none" stroke="midnightblue" d="M114.547,-112.083C114.547,-105.006 114.547,-94.8611 114.547,-85.9865"/>
<polygon fill="midnightblue" stroke="midnightblue" points="118.047,-85.751 114.547,-75.7511 111.047,-85.7511 118.047,-85.751"/>
</g>
<!-- Node4&#45;&gt;Node2 -->
<g id="edge4" class="edge"><title>Node4&#45;&gt;Node2</title>
<path fill="none" stroke="midnightblue" d="M63.3477,-168.324C72.365,-160.341 85.9529,-148.313 96.865,-138.653"/>
<polygon fill="midnightblue" stroke="midnightblue" points="99.4002,-141.083 104.568,-131.834 94.7603,-135.842 99.4002,-141.083"/>
</g>
<!-- Node6 -->
<g id="node6" class="node"><title>Node6</title>
<polygon fill="white" stroke="#bfbfbf" points="335.547,-0.5 335.547,-19.5 379.547,-19.5 379.547,-0.5 335.547,-0.5"/>
<text text-anchor="middle" x="357.547" y="-7.5" font-family="FreeSans" font-size="10.00">cmath</text>
</g>
<!-- Node5&#45;&gt;Node6 -->
<g id="edge6" class="edge"><title>Node5&#45;&gt;Node6</title>
<path fill="none" stroke="midnightblue" d="M328.579,-112.391C314.404,-100.153 292.649,-76.8866 302.547,-56 308.675,-43.0681 320.541,-32.6167 331.687,-25.0528"/>
<polygon fill="midnightblue" stroke="midnightblue" points="333.742,-27.8958 340.349,-19.6136 330.019,-21.9678 333.742,-27.8958"/>
</g>
<!-- Node7 -->
<g id="node7" class="node"><title>Node7</title>
<polygon fill="white" stroke="#bfbfbf" points="311.547,-56.5 311.547,-75.5 367.547,-75.5 367.547,-56.5 311.547,-56.5"/>
<text text-anchor="middle" x="339.547" y="-63.5" font-family="FreeSans" font-size="10.00">algorithm</text>
</g>
<!-- Node5&#45;&gt;Node7 -->
<g id="edge7" class="edge"><title>Node5&#45;&gt;Node7</title>
<path fill="none" stroke="midnightblue" d="M339.547,-112.083C339.547,-105.006 339.547,-94.8611 339.547,-85.9865"/>
<polygon fill="midnightblue" stroke="midnightblue" points="343.047,-85.751 339.547,-75.7511 336.047,-85.7511 343.047,-85.751"/>
</g>
<!-- Node8 -->
<g id="node8" class="node"><title>Node8</title>
<g id="a_node8"><a xlink:href="matrix_8h.html" target="_top" xlink:title="Common/matrix.h">
<polygon fill="white" stroke="black" points="385.547,-56.5 385.547,-75.5 477.547,-75.5 477.547,-56.5 385.547,-56.5"/>
<text text-anchor="middle" x="431.547" y="-63.5" font-family="FreeSans" font-size="10.00">Common/matrix.h</text>
</a>
</g>
</g>
<!-- Node5&#45;&gt;Node8 -->
<g id="edge8" class="edge"><title>Node5&#45;&gt;Node8</title>
<path fill="none" stroke="midnightblue" d="M354.328,-112.324C368.814,-103.822 391.12,-90.7288 408.04,-80.7975"/>
<polygon fill="midnightblue" stroke="midnightblue" points="409.95,-83.735 416.802,-75.6545 406.406,-77.6981 409.95,-83.735"/>
</g>
<!-- Node8&#45;&gt;Node6 -->
<g id="edge9" class="edge"><title>Node8&#45;&gt;Node6</title>
<path fill="none" stroke="midnightblue" d="M419.658,-56.324C408.397,-48.1066 391.26,-35.6017 377.838,-25.8069"/>
<polygon fill="midnightblue" stroke="midnightblue" points="379.794,-22.9014 369.653,-19.8339 375.667,-28.5559 379.794,-22.9014"/>
</g>
<!-- Node9&#45;&gt;Node2 -->
<g id="edge11" class="edge"><title>Node9&#45;&gt;Node2</title>
<path fill="none" stroke="midnightblue" d="M165.746,-168.324C156.729,-160.341 143.141,-148.313 132.229,-138.653"/>
<polygon fill="midnightblue" stroke="midnightblue" points="134.334,-135.842 124.526,-131.834 129.694,-141.083 134.334,-135.842"/>
</g>
<!-- Node10&#45;&gt;Node2 -->
<g id="edge13" class="edge"><title>Node10&#45;&gt;Node2</title>
<path fill="none" stroke="midnightblue" d="M273.599,-168.444C241.389,-159.241 190.013,-144.562 154.405,-134.388"/>
<polygon fill="midnightblue" stroke="midnightblue" points="154.931,-130.898 144.354,-131.516 153.008,-137.629 154.931,-130.898"/>
</g>
<!-- Node10&#45;&gt;Node5 -->
<g id="edge14" class="edge"><title>Node10&#45;&gt;Node5</title>
<path fill="none" stroke="midnightblue" d="M309.492,-168.083C314.524,-160.534 321.884,-149.495 328.06,-140.23"/>
<polygon fill="midnightblue" stroke="midnightblue" points="331.078,-142.013 333.713,-131.751 325.254,-138.13 331.078,-142.013"/>
</g>
</g>
</svg>
