<?xml version="1.0" encoding="UTF-8" standalone="no"?>
<!DOCTYPE svg PUBLIC "-//W3C//DTD SVG 1.1//EN"
 "http://www.w3.org/Graphics/SVG/1.1/DTD/svg11.dtd">
<!-- Generated by graphviz version 2.38.0 (20140413.2041)
 -->
<!-- Title: binary_tree.h Pages: 1 -->
<svg width="228pt" height="196pt"
 viewBox="0.00 0.00 228.00 196.00" xmlns="http://www.w3.org/2000/svg" xmlns:xlink="http://www.w3.org/1999/xlink">
<g id="graph0" class="graph" transform="scale(1 1) rotate(0) translate(4 192)">
<title>binary_tree.h</title>
<polygon fill="white" stroke="none" points="-4,4 -4,-192 224,-192 224,4 -4,4"/>
<!-- Node1 -->
<g id="node1" class="node"><title>Node1</title>
<polygon fill="#bfbfbf" stroke="black" points="109.5,-168.5 109.5,-187.5 180.5,-187.5 180.5,-168.5 109.5,-168.5"/>
<text text-anchor="middle" x="145" y="-175.5" font-family="FreeSans" font-size="10.00">binary_tree.h</text>
</g>
<!-- Node2 -->
<g id="node2" class="node"><title>Node2</title>
<g id="a_node2"><a xlink:href="information_8h.html" target="_top" xlink:title="information.h">
<polygon fill="white" stroke="black" points="77,-112.5 77,-131.5 149,-131.5 149,-112.5 77,-112.5"/>
<text text-anchor="middle" x="113" y="-119.5" font-family="FreeSans" font-size="10.00">information.h</text>
</a>
</g>
</g>
<!-- Node1&#45;&gt;Node2 -->
<g id="edge1" class="edge"><title>Node1&#45;&gt;Node2</title>
<path fill="none" stroke="midnightblue" d="M134.496,-159.275C129.027,-150.045 122.582,-139.17 118.186,-131.751"/>
<polygon fill="midnightblue" stroke="midnightblue" points="131.607,-161.264 139.716,-168.083 137.629,-157.696 131.607,-161.264"/>
</g>
<!-- Node5 -->
<g id="node5" class="node"><title>Node5</title>
<g id="a_node5"><a xlink:href="ar__information_8h.html" target="_top" xlink:title="ar_information.h">
<polygon fill="white" stroke="black" points="134,-56.5 134,-75.5 220,-75.5 220,-56.5 134,-56.5"/>
<text text-anchor="middle" x="177" y="-63.5" font-family="FreeSans" font-size="10.00">ar_information.h</text>
</a>
</g>
</g>
<!-- Node1&#45;&gt;Node5 -->
<g id="edge6" class="edge"><title>Node1&#45;&gt;Node5</title>
<path fill="none" stroke="midnightblue" d="M150.331,-158.674C157.327,-134.625 169.323,-93.3881 174.501,-75.5914"/>
<polygon fill="midnightblue" stroke="midnightblue" points="146.944,-157.789 147.511,-168.368 153.665,-159.744 146.944,-157.789"/>
</g>
<!-- Node3 -->
<g id="node3" class="node"><title>Node3</title>
<g id="a_node3"><a xlink:href="symplectic__integrator_8h.html" target="_top" xlink:title="symplectic_integrator.h">
<polygon fill="white" stroke="black" points="0,-56.5 0,-75.5 116,-75.5 116,-56.5 0,-56.5"/>
<text text-anchor="middle" x="58" y="-63.5" font-family="FreeSans" font-size="10.00">symplectic_integrator.h</text>
</a>
</g>
</g>
<!-- Node2&#45;&gt;Node3 -->
<g id="edge2" class="edge"><title>Node2&#45;&gt;Node3</title>
<path fill="none" stroke="midnightblue" d="M96.7062,-105.002C86.9594,-95.4329 74.947,-83.6389 66.9131,-75.7511"/>
<polygon fill="midnightblue" stroke="midnightblue" points="94.3301,-107.575 103.918,-112.083 99.2343,-102.58 94.3301,-107.575"/>
</g>
<!-- Node2&#45;&gt;Node5 -->
<g id="edge4" class="edge"><title>Node2&#45;&gt;Node5</title>
<path fill="none" stroke="midnightblue" d="M130.991,-105.82C142.458,-96.1452 156.913,-83.9481 166.53,-75.8339"/>
<polygon fill="midnightblue" stroke="midnightblue" points="128.669,-103.2 123.283,-112.324 133.183,-108.55 128.669,-103.2"/>
</g>
<!-- Node4 -->
<g id="node4" class="node"><title>Node4</title>
<g id="a_node4"><a xlink:href="hermite__integrator_8h.html" target="_top" xlink:title="hermite_integrator.h">
<polygon fill="white" stroke="black" points="66,-0.5 66,-19.5 168,-19.5 168,-0.5 66,-0.5"/>
<text text-anchor="middle" x="117" y="-7.5" font-family="FreeSans" font-size="10.00">hermite_integrator.h</text>
</a>
</g>
</g>
<!-- Node3&#45;&gt;Node4 -->
<g id="edge3" class="edge"><title>Node3&#45;&gt;Node4</title>
<path fill="none" stroke="midnightblue" d="M74.8945,-49.5372C85.4145,-39.9087 98.5687,-27.8694 107.348,-19.8339"/>
<polygon fill="midnightblue" stroke="midnightblue" points="72.4931,-46.9905 67.4794,-56.324 77.2192,-52.1542 72.4931,-46.9905"/>
</g>
<!-- Node5&#45;&gt;Node4 -->
<g id="edge5" class="edge"><title>Node5&#45;&gt;Node4</title>
<path fill="none" stroke="midnightblue" d="M159.819,-49.5372C149.121,-39.9087 135.744,-27.8694 126.815,-19.8339"/>
<polygon fill="midnightblue" stroke="midnightblue" points="157.586,-52.2358 167.36,-56.324 162.268,-47.0327 157.586,-52.2358"/>
</g>
</g>
</svg>
