<?xml version="1.0" encoding="UTF-8" standalone="no"?>
<!DOCTYPE svg PUBLIC "-//W3C//DTD SVG 1.1//EN"
 "http://www.w3.org/Graphics/SVG/1.1/DTD/svg11.dtd">
<!-- Generated by graphviz version 2.38.0 (20140413.2041)
 -->
<!-- Title: binary_tree.h Pages: 1 -->
<svg width="186pt" height="140pt"
 viewBox="0.00 0.00 185.97 140.00" xmlns="http://www.w3.org/2000/svg" xmlns:xlink="http://www.w3.org/1999/xlink">
<g id="graph0" class="graph" transform="scale(1 1) rotate(0) translate(4 136)">
<title>binary_tree.h</title>
<polygon fill="white" stroke="none" points="-4,4 -4,-136 181.971,-136 181.971,4 -4,4"/>
<!-- Node1 -->
<g id="node1" class="node"><title>Node1</title>
<polygon fill="#bfbfbf" stroke="black" points="4.47062,-112.5 4.47062,-131.5 75.4706,-131.5 75.4706,-112.5 4.47062,-112.5"/>
<text text-anchor="middle" x="39.9706" y="-119.5" font-family="FreeSans" font-size="10.00">binary_tree.h</text>
</g>
<!-- Node2 -->
<g id="node2" class="node"><title>Node2</title>
<polygon fill="white" stroke="#bfbfbf" points="35.9706,-0.5 35.9706,-19.5 79.9706,-19.5 79.9706,-0.5 35.9706,-0.5"/>
<text text-anchor="middle" x="57.9706" y="-7.5" font-family="FreeSans" font-size="10.00">cmath</text>
</g>
<!-- Node1&#45;&gt;Node2 -->
<g id="edge1" class="edge"><title>Node1&#45;&gt;Node2</title>
<path fill="none" stroke="midnightblue" d="M29.0026,-112.391C14.8272,-100.153 -6.92712,-76.8866 2.97062,-56 9.09877,-43.0681 20.9649,-32.6167 32.1112,-25.0528"/>
<polygon fill="midnightblue" stroke="midnightblue" points="34.1653,-27.8958 40.7726,-19.6136 30.4426,-21.9678 34.1653,-27.8958"/>
</g>
<!-- Node3 -->
<g id="node3" class="node"><title>Node3</title>
<polygon fill="white" stroke="#bfbfbf" points="11.9706,-56.5 11.9706,-75.5 67.9706,-75.5 67.9706,-56.5 11.9706,-56.5"/>
<text text-anchor="middle" x="39.9706" y="-63.5" font-family="FreeSans" font-size="10.00">algorithm</text>
</g>
<!-- Node1&#45;&gt;Node3 -->
<g id="edge2" class="edge"><title>Node1&#45;&gt;Node3</title>
<path fill="none" stroke="midnightblue" d="M39.9706,-112.083C39.9706,-105.006 39.9706,-94.8611 39.9706,-85.9865"/>
<polygon fill="midnightblue" stroke="midnightblue" points="43.4707,-85.751 39.9706,-75.7511 36.4707,-85.7511 43.4707,-85.751"/>
</g>
<!-- Node4 -->
<g id="node4" class="node"><title>Node4</title>
<g id="a_node4"><a xlink:href="matrix_8h.html" target="_top" xlink:title="Common/matrix.h">
<polygon fill="white" stroke="black" points="85.9706,-56.5 85.9706,-75.5 177.971,-75.5 177.971,-56.5 85.9706,-56.5"/>
<text text-anchor="middle" x="131.971" y="-63.5" font-family="FreeSans" font-size="10.00">Common/matrix.h</text>
</a>
</g>
</g>
<!-- Node1&#45;&gt;Node4 -->
<g id="edge3" class="edge"><title>Node1&#45;&gt;Node4</title>
<path fill="none" stroke="midnightblue" d="M54.752,-112.324C69.2377,-103.822 91.5437,-90.7288 108.464,-80.7975"/>
<polygon fill="midnightblue" stroke="midnightblue" points="110.373,-83.735 117.226,-75.6545 106.83,-77.6981 110.373,-83.735"/>
</g>
<!-- Node4&#45;&gt;Node2 -->
<g id="edge4" class="edge"><title>Node4&#45;&gt;Node2</title>
<path fill="none" stroke="midnightblue" d="M120.081,-56.324C108.82,-48.1066 91.684,-35.6017 78.2615,-25.8069"/>
<polygon fill="midnightblue" stroke="midnightblue" points="80.2174,-22.9014 70.0763,-19.8339 76.0911,-28.5559 80.2174,-22.9014"/>
</g>
</g>
</svg>
