<?xml version="1.0" encoding="UTF-8" standalone="no"?>
<!DOCTYPE svg PUBLIC "-//W3C//DTD SVG 1.1//EN"
 "http://www.w3.org/Graphics/SVG/1.1/DTD/svg11.dtd">
<!-- Generated by graphviz version 2.43.0 (0)
 -->
<!-- Title: binary_tree.h Pages: 1 -->
<svg width="293pt" height="140pt"
 viewBox="0.00 0.00 293.02 140.00" xmlns="http://www.w3.org/2000/svg" xmlns:xlink="http://www.w3.org/1999/xlink">
<g id="graph0" class="graph" transform="scale(1 1) rotate(0) translate(4 136)">
<title>binary_tree.h</title>
<polygon fill="white" stroke="transparent" points="-4,4 -4,-136 289.02,-136 289.02,4 -4,4"/>
<!-- Node1 -->
<g id="node1" class="node">
<title>Node1</title>
<g id="a_node1"><a xlink:title=" ">
<polygon fill="#bfbfbf" stroke="black" points="51.52,-112.5 51.52,-131.5 122.52,-131.5 122.52,-112.5 51.52,-112.5"/>
<text text-anchor="middle" x="87.02" y="-119.5" font-family="FreeSans" font-size="10.00">binary_tree.h</text>
</a>
</g>
</g>
<!-- Node2 -->
<g id="node2" class="node">
<title>Node2</title>
<g id="a_node2"><a xlink:title=" ">
<polygon fill="white" stroke="#bfbfbf" points="4.02,-0.5 4.02,-19.5 48.02,-19.5 48.02,-0.5 4.02,-0.5"/>
<text text-anchor="middle" x="26.02" y="-7.5" font-family="FreeSans" font-size="10.00">cmath</text>
</a>
</g>
</g>
<!-- Node1&#45;&gt;Node2 -->
<g id="edge1" class="edge">
<title>Node1&#45;&gt;Node2</title>
<path fill="none" stroke="midnightblue" d="M54.83,-112.49C36.48,-105.8 15,-94.45 4.02,-76 -4.9,-61.03 3.55,-41.95 12.44,-28.34"/>
<polygon fill="midnightblue" stroke="midnightblue" points="15.49,-30.09 18.45,-19.91 9.79,-26.02 15.49,-30.09"/>
</g>
<!-- Node3 -->
<g id="node3" class="node">
<title>Node3</title>
<g id="a_node3"><a xlink:title=" ">
<polygon fill="white" stroke="#bfbfbf" points="13.02,-56.5 13.02,-75.5 69.02,-75.5 69.02,-56.5 13.02,-56.5"/>
<text text-anchor="middle" x="41.02" y="-63.5" font-family="FreeSans" font-size="10.00">algorithm</text>
</a>
</g>
</g>
<!-- Node1&#45;&gt;Node3 -->
<g id="edge2" class="edge">
<title>Node1&#45;&gt;Node3</title>
<path fill="none" stroke="midnightblue" d="M79.42,-112.08C72.79,-104.3 62.99,-92.8 54.96,-83.37"/>
<polygon fill="midnightblue" stroke="midnightblue" points="57.62,-81.09 48.47,-75.75 52.29,-85.63 57.62,-81.09"/>
</g>
<!-- Node4 -->
<g id="node4" class="node">
<title>Node4</title>
<g id="a_node4"><a xlink:href="Float_8h.html" target="_top" xlink:title=" ">
<polygon fill="white" stroke="black" points="197.02,-56.5 197.02,-75.5 285.02,-75.5 285.02,-56.5 197.02,-56.5"/>
<text text-anchor="middle" x="241.02" y="-63.5" font-family="FreeSans" font-size="10.00">Common/Float.h</text>
</a>
</g>
</g>
<!-- Node1&#45;&gt;Node4 -->
<g id="edge3" class="edge">
<title>Node1&#45;&gt;Node4</title>
<path fill="none" stroke="midnightblue" d="M111.42,-112.44C137.21,-103.4 178.09,-89.06 207.03,-78.92"/>
<polygon fill="midnightblue" stroke="midnightblue" points="208.45,-82.13 216.73,-75.52 206.13,-75.52 208.45,-82.13"/>
</g>
<!-- Node6 -->
<g id="node6" class="node">
<title>Node6</title>
<g id="a_node6"><a xlink:href="matrix_8h.html" target="_top" xlink:title=" ">
<polygon fill="white" stroke="black" points="87.02,-56.5 87.02,-75.5 179.02,-75.5 179.02,-56.5 87.02,-56.5"/>
<text text-anchor="middle" x="133.02" y="-63.5" font-family="FreeSans" font-size="10.00">Common/matrix.h</text>
</a>
</g>
</g>
<!-- Node1&#45;&gt;Node6 -->
<g id="edge5" class="edge">
<title>Node1&#45;&gt;Node6</title>
<path fill="none" stroke="midnightblue" d="M94.61,-112.08C101.24,-104.3 111.04,-92.8 119.07,-83.37"/>
<polygon fill="midnightblue" stroke="midnightblue" points="121.74,-85.63 125.56,-75.75 116.41,-81.09 121.74,-85.63"/>
</g>
<!-- Node5 -->
<g id="node5" class="node">
<title>Node5</title>
<g id="a_node5"><a xlink:title=" ">
<polygon fill="white" stroke="#bfbfbf" points="221.02,-0.5 221.02,-19.5 261.02,-19.5 261.02,-0.5 221.02,-0.5"/>
<text text-anchor="middle" x="241.02" y="-7.5" font-family="FreeSans" font-size="10.00">limits</text>
</a>
</g>
</g>
<!-- Node4&#45;&gt;Node5 -->
<g id="edge4" class="edge">
<title>Node4&#45;&gt;Node5</title>
<path fill="none" stroke="midnightblue" d="M241.02,-56.08C241.02,-49.01 241.02,-38.86 241.02,-29.99"/>
<polygon fill="midnightblue" stroke="midnightblue" points="244.52,-29.75 241.02,-19.75 237.52,-29.75 244.52,-29.75"/>
</g>
<!-- Node6&#45;&gt;Node2 -->
<g id="edge6" class="edge">
<title>Node6&#45;&gt;Node2</title>
<path fill="none" stroke="midnightblue" d="M115.82,-56.32C98.67,-47.66 72.07,-34.24 52.27,-24.25"/>
<polygon fill="midnightblue" stroke="midnightblue" points="53.67,-21.04 43.16,-19.65 50.52,-27.28 53.67,-21.04"/>
</g>
<!-- Node7 -->
<g id="node7" class="node">
<title>Node7</title>
<g id="a_node7"><a xlink:title=" ">
<polygon fill="white" stroke="#bfbfbf" points="108.02,-0.5 108.02,-19.5 158.02,-19.5 158.02,-0.5 108.02,-0.5"/>
<text text-anchor="middle" x="133.02" y="-7.5" font-family="FreeSans" font-size="10.00">iomanip</text>
</a>
</g>
</g>
<!-- Node6&#45;&gt;Node7 -->
<g id="edge7" class="edge">
<title>Node6&#45;&gt;Node7</title>
<path fill="none" stroke="midnightblue" d="M133.02,-56.08C133.02,-49.01 133.02,-38.86 133.02,-29.99"/>
<polygon fill="midnightblue" stroke="midnightblue" points="136.52,-29.75 133.02,-19.75 129.52,-29.75 136.52,-29.75"/>
</g>
</g>
</svg>
