<?xml version="1.0" encoding="UTF-8" standalone="no"?>
<!DOCTYPE svg PUBLIC "-//W3C//DTD SVG 1.1//EN"
 "http://www.w3.org/Graphics/SVG/1.1/DTD/svg11.dtd">
<!-- Generated by graphviz version 2.38.0 (20140413.2041)
 -->
<!-- Title: H4::ARInformation::reserveMem Pages: 1 -->
<svg width="280pt" height="126pt"
 viewBox="0.00 0.00 280.00 126.00" xmlns="http://www.w3.org/2000/svg" xmlns:xlink="http://www.w3.org/1999/xlink">
<g id="graph0" class="graph" transform="scale(1 1) rotate(0) translate(4 122)">
<title>H4::ARInformation::reserveMem</title>
<polygon fill="white" stroke="none" points="-4,4 -4,-122 276,-122 276,4 -4,4"/>
<!-- Node1 -->
<g id="node1" class="node"><title>Node1</title>
<polygon fill="#bfbfbf" stroke="black" points="0,-33 0,-63 100,-63 100,-33 0,-33"/>
<text text-anchor="start" x="8" y="-51" font-family="FreeSans" font-size="10.00">H4::ARInformation::</text>
<text text-anchor="middle" x="50" y="-40" font-family="FreeSans" font-size="10.00">reserveMem</text>
</g>
<!-- Node2 -->
<g id="node2" class="node"><title>Node2</title>
<g id="a_node2"><a xlink:href="classAR_1_1Information.html#a989cdd6a1b4bf633d8361946ca1c87f9" target="_top" xlink:title="reserve memory of binarytree list ">
<polygon fill="white" stroke="black" points="136,-76.5 136,-117.5 272,-117.5 272,-76.5 136,-76.5"/>
<text text-anchor="start" x="144" y="-105.5" font-family="FreeSans" font-size="10.00">AR::Information&lt; Particle</text>
<text text-anchor="start" x="144" y="-94.5" font-family="FreeSans" font-size="10.00">AR&lt; Tparticle &gt;, ParticleH4</text>
<text text-anchor="middle" x="204" y="-83.5" font-family="FreeSans" font-size="10.00">&lt; Tparticle &gt; &gt;::reserveMem</text>
</a>
</g>
</g>
<!-- Node1&#45;&gt;Node2 -->
<g id="edge1" class="edge"><title>Node1&#45;&gt;Node2</title>
<path fill="none" stroke="midnightblue" d="M97.8453,-63.1014C107.863,-66.3308 118.677,-69.817 129.427,-73.2823"/>
<polygon fill="midnightblue" stroke="midnightblue" points="128.664,-76.7138 139.256,-76.4509 130.812,-70.0514 128.664,-76.7138"/>
</g>
<!-- Node3 -->
<g id="node3" class="node"><title>Node3</title>
<g id="a_node3"><a xlink:href="classCOMM_1_1List.html#a10c70f9a45d06c2589898cbaf1e4fbf8" target="_top" xlink:title="set mode ">
<polygon fill="white" stroke="black" points="150,-38.5 150,-57.5 258,-57.5 258,-38.5 150,-38.5"/>
<text text-anchor="middle" x="204" y="-45.5" font-family="FreeSans" font-size="10.00">COMM::List::setMode</text>
</a>
</g>
</g>
<!-- Node1&#45;&gt;Node3 -->
<g id="edge2" class="edge"><title>Node1&#45;&gt;Node3</title>
<path fill="none" stroke="midnightblue" d="M100.35,-48C112.867,-48 126.489,-48 139.596,-48"/>
<polygon fill="midnightblue" stroke="midnightblue" points="139.967,-51.5001 149.967,-48 139.967,-44.5001 139.967,-51.5001"/>
</g>
<!-- Node4 -->
<g id="node4" class="node"><title>Node4</title>
<g id="a_node4"><a xlink:href="classCOMM_1_1List.html#a7f125554959409d40217deb7402c0de9" target="_top" xlink:title="Memory allocation for storing members. ">
<polygon fill="white" stroke="black" points="142,-0.5 142,-19.5 266,-19.5 266,-0.5 142,-0.5"/>
<text text-anchor="middle" x="204" y="-7.5" font-family="FreeSans" font-size="10.00">COMM::List::reserveMem</text>
</a>
</g>
</g>
<!-- Node1&#45;&gt;Node4 -->
<g id="edge3" class="edge"><title>Node1&#45;&gt;Node4</title>
<path fill="none" stroke="midnightblue" d="M100.35,-35.6625C117.886,-31.2784 137.59,-26.3525 155.011,-21.9973"/>
<polygon fill="midnightblue" stroke="midnightblue" points="156.118,-25.3284 164.97,-19.5074 154.42,-18.5374 156.118,-25.3284"/>
</g>
</g>
</svg>
