<?xml version="1.0" encoding="UTF-8" standalone="no"?>
<!DOCTYPE svg PUBLIC "-//W3C//DTD SVG 1.1//EN"
 "http://www.w3.org/Graphics/SVG/1.1/DTD/svg11.dtd">
<!-- Generated by graphviz version 2.38.0 (20140413.2041)
 -->
<!-- Title: H4::HermiteIntegrator::printColumnTitle Pages: 1 -->
<svg width="288pt" height="137pt"
 viewBox="0.00 0.00 288.00 137.00" xmlns="http://www.w3.org/2000/svg" xmlns:xlink="http://www.w3.org/1999/xlink">
<g id="graph0" class="graph" transform="scale(1 1) rotate(0) translate(4 133)">
<title>H4::HermiteIntegrator::printColumnTitle</title>
<polygon fill="white" stroke="none" points="-4,4 -4,-133 284,-133 284,4 -4,4"/>
<!-- Node1 -->
<g id="node1" class="node"><title>Node1</title>
<polygon fill="#bfbfbf" stroke="black" points="0,-49.5 0,-79.5 108,-79.5 108,-49.5 0,-49.5"/>
<text text-anchor="start" x="8" y="-67.5" font-family="FreeSans" font-size="10.00">H4::HermiteIntegrator</text>
<text text-anchor="middle" x="54" y="-56.5" font-family="FreeSans" font-size="10.00">::printColumnTitle</text>
</g>
<!-- Node2 -->
<g id="node2" class="node"><title>Node2</title>
<g id="a_node2"><a xlink:href="classAR_1_1SlowDown.html#aa871b6ffb269568fa6108c547234f09f" target="_top" xlink:title="print titles of class members using column style ">
<polygon fill="white" stroke="black" points="144,-98.5 144,-128.5 280,-128.5 280,-98.5 144,-98.5"/>
<text text-anchor="start" x="152" y="-116.5" font-family="FreeSans" font-size="10.00">AR::SlowDown::printColumn</text>
<text text-anchor="middle" x="212" y="-105.5" font-family="FreeSans" font-size="10.00">Title</text>
</a>
</g>
</g>
<!-- Node1&#45;&gt;Node2 -->
<g id="edge1" class="edge"><title>Node1&#45;&gt;Node2</title>
<path fill="none" stroke="midnightblue" d="M103.078,-79.6014C119.018,-84.6083 136.924,-90.2324 153.5,-95.439"/>
<polygon fill="midnightblue" stroke="midnightblue" points="152.491,-98.7908 163.081,-98.4484 154.589,-92.1125 152.491,-98.7908"/>
</g>
<!-- Node3 -->
<g id="node3" class="node"><title>Node3</title>
<g id="a_node3"><a xlink:href="classH4_1_1Profile.html#a8e51775cec14994e52c5b1e5dc320df3" target="_top" xlink:title="print titles of class members using column style ">
<polygon fill="white" stroke="black" points="154,-49.5 154,-79.5 270,-79.5 270,-49.5 154,-49.5"/>
<text text-anchor="start" x="162" y="-67.5" font-family="FreeSans" font-size="10.00">H4::Profile::printColumn</text>
<text text-anchor="middle" x="212" y="-56.5" font-family="FreeSans" font-size="10.00">Title</text>
</a>
</g>
</g>
<!-- Node1&#45;&gt;Node3 -->
<g id="edge2" class="edge"><title>Node1&#45;&gt;Node3</title>
<path fill="none" stroke="midnightblue" d="M108.25,-64.5C119.651,-64.5 131.839,-64.5 143.691,-64.5"/>
<polygon fill="midnightblue" stroke="midnightblue" points="143.992,-68.0001 153.991,-64.5 143.991,-61.0001 143.992,-68.0001"/>
</g>
<!-- Node4 -->
<g id="node4" class="node"><title>Node4</title>
<g id="a_node4"><a xlink:href="classCOMM_1_1ParticleGroup.html#a2d92a2c26818cf9820ea13026091fb81" target="_top" xlink:title="print titles of class members using column style ">
<polygon fill="white" stroke="black" points="156.5,-0.5 156.5,-30.5 267.5,-30.5 267.5,-0.5 156.5,-0.5"/>
<text text-anchor="start" x="164.5" y="-18.5" font-family="FreeSans" font-size="10.00">COMM::ParticleGroup</text>
<text text-anchor="middle" x="212" y="-7.5" font-family="FreeSans" font-size="10.00">::printColumnTitle</text>
</a>
</g>
</g>
<!-- Node1&#45;&gt;Node4 -->
<g id="edge3" class="edge"><title>Node1&#45;&gt;Node4</title>
<path fill="none" stroke="midnightblue" d="M103.078,-49.3986C119.018,-44.3917 136.924,-38.7676 153.5,-33.561"/>
<polygon fill="midnightblue" stroke="midnightblue" points="154.589,-36.8875 163.081,-30.5516 152.491,-30.2092 154.589,-36.8875"/>
</g>
</g>
</svg>
