<?xml version="1.0" encoding="UTF-8" standalone="no"?>
<!DOCTYPE svg PUBLIC "-//W3C//DTD SVG 1.1//EN"
 "http://www.w3.org/Graphics/SVG/1.1/DTD/svg11.dtd">
<!-- Generated by graphviz version 2.38.0 (20140413.2041)
 -->
<!-- Title: H4::HermiteIntegrator::addGroups Pages: 1 -->
<svg width="290pt" height="449pt"
 viewBox="0.00 0.00 290.00 449.00" xmlns="http://www.w3.org/2000/svg" xmlns:xlink="http://www.w3.org/1999/xlink">
<g id="graph0" class="graph" transform="scale(1 1) rotate(0) translate(4 445)">
<title>H4::HermiteIntegrator::addGroups</title>
<polygon fill="white" stroke="none" points="-4,4 -4,-445 286,-445 286,4 -4,4"/>
<!-- Node1 -->
<g id="node1" class="node"><title>Node1</title>
<polygon fill="#bfbfbf" stroke="black" points="0,-213.5 0,-243.5 108,-243.5 108,-213.5 0,-213.5"/>
<text text-anchor="start" x="8" y="-231.5" font-family="FreeSans" font-size="10.00">H4::HermiteIntegrator</text>
<text text-anchor="middle" x="54" y="-220.5" font-family="FreeSans" font-size="10.00">::addGroups</text>
</g>
<!-- Node2 -->
<g id="node2" class="node"><title>Node2</title>
<g id="a_node2"><a xlink:href="classH4_1_1HermiteManager.html#ad5ab496b530db1dfab24bebc39fabe8e" target="_top" xlink:title="time step calculator ">
<polygon fill="white" stroke="black" points="161,-410.5 161,-440.5 265,-440.5 265,-410.5 161,-410.5"/>
<text text-anchor="start" x="169" y="-428.5" font-family="FreeSans" font-size="10.00">H4::HermiteManager</text>
<text text-anchor="middle" x="213" y="-417.5" font-family="FreeSans" font-size="10.00">::checkParams</text>
</a>
</g>
</g>
<!-- Node1&#45;&gt;Node2 -->
<g id="edge1" class="edge"><title>Node1&#45;&gt;Node2</title>
<path fill="none" stroke="midnightblue" d="M58.6728,-243.587C67.5392,-276.881 93.2286,-357.196 144,-401.5 146.5,-403.681 149.211,-405.668 152.062,-407.477"/>
<polygon fill="midnightblue" stroke="midnightblue" points="150.521,-410.625 160.968,-412.39 153.902,-404.495 150.521,-410.625"/>
</g>
<!-- Node3 -->
<g id="node3" class="node"><title>Node3</title>
<g id="a_node3"><a xlink:href="classCOMM_1_1List.html#aaddc8ba775e2a6504eb393d7d0c2235b" target="_top" xlink:title="Get modified status. ">
<polygon fill="white" stroke="black" points="156.5,-361.5 156.5,-391.5 269.5,-391.5 269.5,-361.5 156.5,-361.5"/>
<text text-anchor="start" x="164.5" y="-379.5" font-family="FreeSans" font-size="10.00">COMM::List&lt; Tparticle</text>
<text text-anchor="middle" x="213" y="-368.5" font-family="FreeSans" font-size="10.00"> &gt;::isModified</text>
</a>
</g>
</g>
<!-- Node1&#45;&gt;Node3 -->
<g id="edge2" class="edge"><title>Node1&#45;&gt;Node3</title>
<path fill="none" stroke="midnightblue" d="M62.1422,-243.591C75.0187,-269.268 104.503,-321.576 144,-351.5 146.428,-353.34 149.005,-355.055 151.682,-356.653"/>
<polygon fill="midnightblue" stroke="midnightblue" points="150.037,-359.742 160.506,-361.366 153.335,-353.568 150.037,-359.742"/>
</g>
<!-- Node4 -->
<g id="node4" class="node"><title>Node4</title>
<g id="a_node4"><a xlink:href="classCOMM_1_1List.html#af1c92acd831f62c52f3385a71d6403e7" target="_top" xlink:title="get current member number ">
<polygon fill="white" stroke="black" points="161,-323 161,-342 265,-342 265,-323 161,-323"/>
<text text-anchor="middle" x="213" y="-330" font-family="FreeSans" font-size="10.00">COMM::List::getSize</text>
</a>
</g>
</g>
<!-- Node1&#45;&gt;Node4 -->
<g id="edge3" class="edge"><title>Node1&#45;&gt;Node4</title>
<path fill="none" stroke="midnightblue" d="M72.8312,-243.775C89.3481,-261.126 115.589,-288.33 144,-304.5 156.609,-311.677 172.094,-316.278 185.101,-320.042"/>
<polygon fill="midnightblue" stroke="midnightblue" points="184.318,-323.46 194.898,-322.914 186.286,-316.742 184.318,-323.46"/>
</g>
<!-- Node1&#45;&gt;Node4 -->
<g id="edge8" class="edge"><title>Node1&#45;&gt;Node4</title>
<path fill="none" stroke="midnightblue" d="M62.4399,-243.515C76.4471,-264.933 108.533,-302.313 144,-322.5 146.365,-323.846 148.832,-325.102 151.364,-326.267"/>
<polygon fill="midnightblue" stroke="midnightblue" points="150.177,-329.562 160.759,-330.086 152.814,-323.078 150.177,-329.562"/>
</g>
<!-- Node5 -->
<g id="node5" class="node"><title>Node5</title>
<g id="a_node5"><a xlink:href="classCOMM_1_1List.html#abcdc25c6ecaf2d352583fa75f9fa1180" target="_top" xlink:title="return last member ">
<polygon fill="white" stroke="black" points="144,-285 144,-304 282,-304 282,-285 144,-285"/>
<text text-anchor="middle" x="213" y="-292" font-family="FreeSans" font-size="10.00">COMM::List::getLastMember</text>
</a>
</g>
</g>
<!-- Node1&#45;&gt;Node5 -->
<g id="edge4" class="edge"><title>Node1&#45;&gt;Node5</title>
<path fill="none" stroke="midnightblue" d="M80.0177,-243.563C97.4868,-253.614 121.599,-266.574 144,-275.5 149.904,-277.852 156.205,-280.031 162.501,-282.01"/>
<polygon fill="midnightblue" stroke="midnightblue" points="161.748,-285.438 172.331,-284.952 163.755,-278.732 161.748,-285.438"/>
</g>
<!-- Node6 -->
<g id="node6" class="node"><title>Node6</title>
<g id="a_node6"><a xlink:href="classCOMM_1_1List.html#a4de82aa7b73a5f74ae2917e4740e3cb8" target="_top" xlink:title="increase size without initialization ">
<polygon fill="white" stroke="black" points="148.5,-235.5 148.5,-265.5 277.5,-265.5 277.5,-235.5 148.5,-235.5"/>
<text text-anchor="start" x="156.5" y="-253.5" font-family="FreeSans" font-size="10.00">COMM::List::decreaseSize</text>
<text text-anchor="middle" x="213" y="-242.5" font-family="FreeSans" font-size="10.00">NoInitialize</text>
</a>
</g>
</g>
<!-- Node1&#45;&gt;Node6 -->
<g id="edge5" class="edge"><title>Node1&#45;&gt;Node6</title>
<path fill="none" stroke="midnightblue" d="M108.153,-235.948C117.827,-237.304 128.077,-238.74 138.221,-240.162"/>
<polygon fill="midnightblue" stroke="midnightblue" points="137.916,-243.653 148.305,-241.575 138.887,-236.721 137.916,-243.653"/>
</g>
<!-- Node7 -->
<g id="node7" class="node"><title>Node7</title>
<g id="a_node7"><a xlink:href="classCOMM_1_1List.html#adeefdc2865fe56e2413b2cada9772a5e" target="_top" xlink:title="copy one member and its address ">
<polygon fill="white" stroke="black" points="152,-197 152,-216 274,-216 274,-197 152,-197"/>
<text text-anchor="middle" x="213" y="-204" font-family="FreeSans" font-size="10.00">COMM::List::addMember</text>
</a>
</g>
</g>
<!-- Node1&#45;&gt;Node7 -->
<g id="edge6" class="edge"><title>Node1&#45;&gt;Node7</title>
<path fill="none" stroke="midnightblue" d="M108.153,-221.052C118.914,-219.544 130.387,-217.936 141.635,-216.36"/>
<polygon fill="midnightblue" stroke="midnightblue" points="142.457,-219.779 151.875,-214.925 141.486,-212.847 142.457,-219.779"/>
</g>
<!-- Node8 -->
<g id="node8" class="node"><title>Node8</title>
<g id="a_node8"><a xlink:href="classCOMM_1_1List.html#a610a134731844b13df4b22ef0d9ad603" target="_top" xlink:title="increase size without initialization ">
<polygon fill="white" stroke="black" points="150,-147.5 150,-177.5 276,-177.5 276,-147.5 150,-147.5"/>
<text text-anchor="start" x="158" y="-165.5" font-family="FreeSans" font-size="10.00">COMM::List::increaseSize</text>
<text text-anchor="middle" x="213" y="-154.5" font-family="FreeSans" font-size="10.00">NoInitialize</text>
</a>
</g>
</g>
<!-- Node1&#45;&gt;Node8 -->
<g id="edge7" class="edge"><title>Node1&#45;&gt;Node8</title>
<path fill="none" stroke="midnightblue" d="M86.036,-213.467C103.015,-205.43 124.505,-195.559 144,-187.5 149.086,-185.398 154.419,-183.284 159.767,-181.224"/>
<polygon fill="midnightblue" stroke="midnightblue" points="161.248,-184.405 169.358,-177.588 158.767,-177.86 161.248,-184.405"/>
</g>
<!-- Node9 -->
<g id="node9" class="node"><title>Node9</title>
<g id="a_node9"><a xlink:href="classCOMM_1_1List.html#af3b49aeea643123fe2428af456c3fc77" target="_top" xlink:title="Get maximum member number allow to store. ">
<polygon fill="white" stroke="black" points="156.5,-98.5 156.5,-128.5 269.5,-128.5 269.5,-98.5 156.5,-98.5"/>
<text text-anchor="start" x="164.5" y="-116.5" font-family="FreeSans" font-size="10.00">COMM::List&lt; Tparticle</text>
<text text-anchor="middle" x="213" y="-105.5" font-family="FreeSans" font-size="10.00"> &gt;::getSizeMax</text>
</a>
</g>
</g>
<!-- Node1&#45;&gt;Node9 -->
<g id="edge9" class="edge"><title>Node1&#45;&gt;Node9</title>
<path fill="none" stroke="midnightblue" d="M62.4725,-213.17C76.5326,-191.13 108.701,-152.207 144,-129.5 145.101,-128.792 146.224,-128.1 147.367,-127.425"/>
<polygon fill="midnightblue" stroke="midnightblue" points="149.268,-130.378 156.444,-122.584 145.973,-124.202 149.268,-130.378"/>
</g>
<!-- Node1&#45;&gt;Node9 -->
<g id="edge10" class="edge"><title>Node1&#45;&gt;Node9</title>
<path fill="none" stroke="midnightblue" d="M71.9339,-213.483C88.4273,-195.41 115.17,-166.046 144,-147.5 153.557,-141.352 164.837,-136.43 175.434,-132.238"/>
<polygon fill="midnightblue" stroke="midnightblue" points="176.838,-135.448 184.905,-128.58 174.316,-128.918 176.838,-135.448"/>
</g>
<!-- Node10 -->
<g id="node10" class="node"><title>Node10</title>
<g id="a_node10"><a xlink:href="classH4_1_1BlockTimeStep4th.html#a5c9b056248bfaec1697428f0bd726e7e" target="_top" xlink:title="get maximum time step ">
<polygon fill="white" stroke="black" points="156.5,-49.5 156.5,-79.5 269.5,-79.5 269.5,-49.5 156.5,-49.5"/>
<text text-anchor="start" x="164.5" y="-67.5" font-family="FreeSans" font-size="10.00">H4::BlockTimeStep4th</text>
<text text-anchor="middle" x="213" y="-56.5" font-family="FreeSans" font-size="10.00">::getDtMax</text>
</a>
</g>
</g>
<!-- Node1&#45;&gt;Node10 -->
<g id="edge11" class="edge"><title>Node1&#45;&gt;Node10</title>
<path fill="none" stroke="midnightblue" d="M60.8643,-213.242C72.4922,-184.916 101.109,-123.957 144,-89.5 146.252,-87.6906 148.648,-86.0046 151.143,-84.4345"/>
<polygon fill="midnightblue" stroke="midnightblue" points="152.912,-87.4555 159.945,-79.5315 149.505,-81.3403 152.912,-87.4555"/>
</g>
<!-- Node11 -->
<g id="node11" class="node"><title>Node11</title>
<g id="a_node11"><a xlink:href="classCOMM_1_1Binary.html#ad1447e83c38bd8604ad129877f860da5" target="_top" xlink:title="print titles of class members using column style ">
<polygon fill="white" stroke="black" points="145.5,-0.5 145.5,-30.5 280.5,-30.5 280.5,-0.5 145.5,-0.5"/>
<text text-anchor="start" x="153.5" y="-18.5" font-family="FreeSans" font-size="10.00">COMM::Binary::printColumn</text>
<text text-anchor="middle" x="213" y="-7.5" font-family="FreeSans" font-size="10.00">Title</text>
</a>
</g>
</g>
<!-- Node1&#45;&gt;Node11 -->
<g id="edge12" class="edge"><title>Node1&#45;&gt;Node11</title>
<path fill="none" stroke="midnightblue" d="M58.0807,-213.241C65.9917,-177.875 90.2891,-89.5902 144,-40.5 145.697,-38.9487 147.499,-37.4915 149.381,-36.1228"/>
<polygon fill="midnightblue" stroke="midnightblue" points="151.465,-38.9479 158.08,-30.6718 147.747,-33.0164 151.465,-38.9479"/>
</g>
</g>
</svg>
