<?xml version="1.0" encoding="UTF-8" standalone="no"?>
<!DOCTYPE svg PUBLIC "-//W3C//DTD SVG 1.1//EN"
 "http://www.w3.org/Graphics/SVG/1.1/DTD/svg11.dtd">
<!-- Generated by graphviz version 2.43.0 (0)
 -->
<!-- Title: AR::SlowDown::printColumn Pages: 1 -->
<svg width="340pt" height="137pt"
 viewBox="0.00 0.00 340.00 137.00" xmlns="http://www.w3.org/2000/svg" xmlns:xlink="http://www.w3.org/1999/xlink">
<g id="graph0" class="graph" transform="scale(1 1) rotate(0) translate(4 133)">
<title>AR::SlowDown::printColumn</title>
<polygon fill="white" stroke="transparent" points="-4,4 -4,-133 336,-133 336,4 -4,4"/>
<!-- Node1 -->
<g id="node1" class="node">
<title>Node1</title>
<g id="a_node1"><a xlink:title="print data of class members using column style">
<polygon fill="#bfbfbf" stroke="black" points="195,-55 195,-74 332,-74 332,-55 195,-55"/>
<text text-anchor="middle" x="263.5" y="-62" font-family="FreeSans" font-size="10.00">AR::SlowDown::printColumn</text>
</a>
</g>
</g>
<!-- Node2 -->
<g id="node2" class="node">
<title>Node2</title>
<g id="a_node2"><a xlink:href="classAR_1_1BinarySlowDown.html#a992939dec4d361ed70c4115918af4ec3" target="_top" xlink:title="print data of class members using column style">
<polygon fill="white" stroke="black" points="25.5,-98.5 25.5,-128.5 133.5,-128.5 133.5,-98.5 25.5,-98.5"/>
<text text-anchor="start" x="33.5" y="-116.5" font-family="FreeSans" font-size="10.00">AR::BinarySlowDown</text>
<text text-anchor="middle" x="79.5" y="-105.5" font-family="FreeSans" font-size="10.00">::printColumn</text>
</a>
</g>
</g>
<!-- Node1&#45;&gt;Node2 -->
<g id="edge1" class="edge">
<title>Node1&#45;&gt;Node2</title>
<path fill="none" stroke="midnightblue" d="M217.24,-76.69C191.86,-83.52 160.07,-92.08 133.53,-99.22"/>
<polygon fill="midnightblue" stroke="midnightblue" points="218.23,-80.04 226.98,-74.06 216.41,-73.28 218.23,-80.04"/>
</g>
<!-- Node3 -->
<g id="node3" class="node">
<title>Node3</title>
<g id="a_node3"><a xlink:href="classH4_1_1HermiteIntegrator.html#ade66bdfa99fd6fb866ca64bf8abbc41b" target="_top" xlink:title="print data of class members using column style">
<polygon fill="white" stroke="black" points="24.5,-49.5 24.5,-79.5 134.5,-79.5 134.5,-49.5 24.5,-49.5"/>
<text text-anchor="start" x="32.5" y="-67.5" font-family="FreeSans" font-size="10.00">H4::HermiteIntegrator</text>
<text text-anchor="middle" x="79.5" y="-56.5" font-family="FreeSans" font-size="10.00">::printColumn</text>
</a>
</g>
</g>
<!-- Node1&#45;&gt;Node3 -->
<g id="edge2" class="edge">
<title>Node1&#45;&gt;Node3</title>
<path fill="none" stroke="midnightblue" d="M184.59,-64.5C167.73,-64.5 150.26,-64.5 134.55,-64.5"/>
<polygon fill="midnightblue" stroke="midnightblue" points="184.99,-68 194.99,-64.5 184.99,-61 184.99,-68"/>
</g>
<!-- Node4 -->
<g id="node4" class="node">
<title>Node4</title>
<g id="a_node4"><a xlink:href="classAR_1_1TimeTransformedSymplecticIntegrator.html#a73d3b8fc6bae672f8f935a8c44545730" target="_top" xlink:title="print data of class members using column style">
<polygon fill="white" stroke="black" points="0,-0.5 0,-30.5 159,-30.5 159,-0.5 0,-0.5"/>
<text text-anchor="start" x="8" y="-18.5" font-family="FreeSans" font-size="10.00">AR::TimeTransformedSymplectic</text>
<text text-anchor="middle" x="79.5" y="-7.5" font-family="FreeSans" font-size="10.00">Integrator::printColumn</text>
</a>
</g>
</g>
<!-- Node1&#45;&gt;Node4 -->
<g id="edge3" class="edge">
<title>Node1&#45;&gt;Node4</title>
<path fill="none" stroke="midnightblue" d="M217.22,-52.31C192.74,-45.72 162.3,-37.52 136.35,-30.54"/>
<polygon fill="midnightblue" stroke="midnightblue" points="216.41,-55.72 226.98,-54.94 218.23,-48.96 216.41,-55.72"/>
</g>
</g>
</svg>
