<?xml version="1.0" encoding="UTF-8" standalone="no"?>
<!DOCTYPE svg PUBLIC "-//W3C//DTD SVG 1.1//EN"
 "http://www.w3.org/Graphics/SVG/1.1/DTD/svg11.dtd">
<!-- Generated by graphviz version 2.43.0 (0)
 -->
<!-- Title: COMM::List::getSize Pages: 1 -->
<svg width="472pt" height="764pt"
 viewBox="0.00 0.00 472.00 764.00" xmlns="http://www.w3.org/2000/svg" xmlns:xlink="http://www.w3.org/1999/xlink">
<g id="graph0" class="graph" transform="scale(1 1) rotate(0) translate(4 760)">
<title>COMM::List::getSize</title>
<polygon fill="white" stroke="transparent" points="-4,4 -4,-760 468,-760 468,4 -4,4"/>
<!-- Node1 -->
<g id="node1" class="node">
<title>Node1</title>
<g id="a_node1"><a xlink:title="get current member number">
<polygon fill="#bfbfbf" stroke="black" points="359,-373 359,-392 464,-392 464,-373 359,-373"/>
<text text-anchor="middle" x="411.5" y="-380" font-family="FreeSans" font-size="10.00">COMM::List::getSize</text>
</a>
</g>
</g>
<!-- Node2 -->
<g id="node2" class="node">
<title>Node2</title>
<g id="a_node2"><a xlink:href="classH4_1_1HermiteIntegrator.html#a410704caed145bb7191651ce059ee8c0" target="_top" xlink:title="correct Etot slowdown reference due to the groups change">
<polygon fill="white" stroke="black" points="172,-676.5 172,-706.5 315,-706.5 315,-676.5 172,-676.5"/>
<text text-anchor="start" x="180" y="-694.5" font-family="FreeSans" font-size="10.00">H4::HermiteIntegrator</text>
<text text-anchor="middle" x="243.5" y="-683.5" font-family="FreeSans" font-size="10.00">::accumDESlowDownChange</text>
</a>
</g>
</g>
<!-- Node1&#45;&gt;Node2 -->
<g id="edge1" class="edge">
<title>Node1&#45;&gt;Node2</title>
<path fill="none" stroke="midnightblue" d="M409.96,-402.26C407.52,-452.35 394.31,-585.69 323,-661.5 317.2,-667.66 310,-672.57 302.33,-676.48"/>
<polygon fill="midnightblue" stroke="midnightblue" points="413.46,-402.27 410.35,-392.14 406.46,-401.99 413.46,-402.27"/>
</g>
<!-- Node3 -->
<g id="node3" class="node">
<title>Node3</title>
<g id="a_node3"><a xlink:href="classH4_1_1HermiteIntegrator.html#aafda8d20755ddd59875994844de3f0c3" target="_top" xlink:title="calculate slowdown energy">
<polygon fill="white" stroke="black" points="6.5,-676.5 6.5,-706.5 121.5,-706.5 121.5,-676.5 6.5,-676.5"/>
<text text-anchor="start" x="14.5" y="-694.5" font-family="FreeSans" font-size="10.00">H4::HermiteIntegrator</text>
<text text-anchor="middle" x="64" y="-683.5" font-family="FreeSans" font-size="10.00">::calcEnergySlowDown</text>
</a>
</g>
</g>
<!-- Node1&#45;&gt;Node3 -->
<g id="edge8" class="edge">
<title>Node1&#45;&gt;Node3</title>
<path fill="none" stroke="midnightblue" d="M409.55,-402.29C406.21,-449.04 391.09,-567.04 323,-628.5 322.52,-628.93 197.63,-659.3 121.81,-677.72"/>
<polygon fill="midnightblue" stroke="midnightblue" points="413.06,-402.2 410.18,-392.01 406.08,-401.78 413.06,-402.2"/>
</g>
<!-- Node4 -->
<g id="node4" class="node">
<title>Node4</title>
<g id="a_node4"><a xlink:href="classH4_1_1HermiteIntegrator.html#aefaac6ef510ac839a678081a80e69131" target="_top" xlink:title="add groups from lists of particle index">
<polygon fill="white" stroke="black" points="188.5,-49.5 188.5,-79.5 298.5,-79.5 298.5,-49.5 188.5,-49.5"/>
<text text-anchor="start" x="196.5" y="-67.5" font-family="FreeSans" font-size="10.00">H4::HermiteIntegrator</text>
<text text-anchor="middle" x="243.5" y="-56.5" font-family="FreeSans" font-size="10.00">::addGroups</text>
</a>
</g>
</g>
<!-- Node1&#45;&gt;Node4 -->
<g id="edge3" class="edge">
<title>Node1&#45;&gt;Node4</title>
<path fill="none" stroke="midnightblue" d="M410.64,-362.45C409.88,-309.83 400.43,-166.51 323,-88.5 316.27,-81.72 307.69,-76.85 298.68,-73.35"/>
<polygon fill="midnightblue" stroke="midnightblue" points="407.14,-362.78 410.69,-372.76 414.14,-362.74 407.14,-362.78"/>
</g>
<!-- Node7 -->
<g id="node7" class="node">
<title>Node7</title>
<g id="a_node7"><a xlink:href="classH4_1_1HermiteIntegrator.html#a58a59fd478331237bafbe42b0fbe9d4b" target="_top" xlink:title="break groups">
<polygon fill="white" stroke="black" points="188.5,-539.5 188.5,-569.5 298.5,-569.5 298.5,-539.5 188.5,-539.5"/>
<text text-anchor="start" x="196.5" y="-557.5" font-family="FreeSans" font-size="10.00">H4::HermiteIntegrator</text>
<text text-anchor="middle" x="243.5" y="-546.5" font-family="FreeSans" font-size="10.00">::breakGroups</text>
</a>
</g>
</g>
<!-- Node1&#45;&gt;Node7 -->
<g id="edge6" class="edge">
<title>Node1&#45;&gt;Node7</title>
<path fill="none" stroke="midnightblue" d="M404.17,-401.73C392.87,-433.07 366.28,-495.14 323,-529.5 315.83,-535.19 307.34,-539.6 298.64,-543.01"/>
<polygon fill="midnightblue" stroke="midnightblue" points="407.56,-402.61 407.53,-392.01 400.95,-400.32 407.56,-402.61"/>
</g>
<!-- Node8 -->
<g id="node8" class="node">
<title>Node8</title>
<g id="a_node8"><a xlink:href="classH4_1_1HermiteIntegrator.html#aa2e53961f55ac16a239a07471cbe6110" target="_top" xlink:title="Check break condition.">
<polygon fill="white" stroke="black" points="188.5,-588.5 188.5,-618.5 298.5,-618.5 298.5,-588.5 188.5,-588.5"/>
<text text-anchor="start" x="196.5" y="-606.5" font-family="FreeSans" font-size="10.00">H4::HermiteIntegrator</text>
<text text-anchor="middle" x="243.5" y="-595.5" font-family="FreeSans" font-size="10.00">::checkBreak</text>
</a>
</g>
</g>
<!-- Node1&#45;&gt;Node8 -->
<g id="edge9" class="edge">
<title>Node1&#45;&gt;Node8</title>
<path fill="none" stroke="midnightblue" d="M407.29,-402.37C399.85,-441.97 377.69,-531.07 323,-579.5 316.06,-585.64 307.59,-590.21 298.81,-593.61"/>
<polygon fill="midnightblue" stroke="midnightblue" points="410.76,-402.84 409.05,-392.38 403.87,-401.62 410.76,-402.84"/>
</g>
<!-- Node9 -->
<g id="node9" class="node">
<title>Node9</title>
<g id="a_node9"><a xlink:href="classH4_1_1HermiteIntegrator.html#ac6a1a94b4ae3095eeebfab01f9c6bbee" target="_top" xlink:title="get N groups">
<polygon fill="white" stroke="black" points="188.5,-490.5 188.5,-520.5 298.5,-520.5 298.5,-490.5 188.5,-490.5"/>
<text text-anchor="start" x="196.5" y="-508.5" font-family="FreeSans" font-size="10.00">H4::HermiteIntegrator</text>
<text text-anchor="middle" x="243.5" y="-497.5" font-family="FreeSans" font-size="10.00">::getNGroup</text>
</a>
</g>
</g>
<!-- Node1&#45;&gt;Node9 -->
<g id="edge11" class="edge">
<title>Node1&#45;&gt;Node9</title>
<path fill="none" stroke="midnightblue" d="M398.92,-400.53C383.94,-422.47 355.82,-459.22 323,-480.5 315.56,-485.32 307.12,-489.28 298.6,-492.5"/>
<polygon fill="midnightblue" stroke="midnightblue" points="401.89,-402.38 404.52,-392.12 396.06,-398.51 401.89,-402.38"/>
</g>
<!-- Node10 -->
<g id="node10" class="node">
<title>Node10</title>
<g id="a_node10"><a xlink:href="classH4_1_1HermiteIntegrator.html#a06932145c166f4ac453108d84959dbd9" target="_top" xlink:title="get N single">
<polygon fill="white" stroke="black" points="188.5,-441.5 188.5,-471.5 298.5,-471.5 298.5,-441.5 188.5,-441.5"/>
<text text-anchor="start" x="196.5" y="-459.5" font-family="FreeSans" font-size="10.00">H4::HermiteIntegrator</text>
<text text-anchor="middle" x="243.5" y="-448.5" font-family="FreeSans" font-size="10.00">::getNSingle</text>
</a>
</g>
</g>
<!-- Node1&#45;&gt;Node10 -->
<g id="edge12" class="edge">
<title>Node1&#45;&gt;Node10</title>
<path fill="none" stroke="midnightblue" d="M386.68,-397.57C369.45,-408.04 345.37,-421.79 323,-431.5 314.73,-435.09 305.78,-438.42 296.98,-441.41"/>
<polygon fill="midnightblue" stroke="midnightblue" points="388.81,-400.37 395.49,-392.14 385.14,-394.41 388.81,-400.37"/>
</g>
<!-- Node11 -->
<g id="node11" class="node">
<title>Node11</title>
<g id="a_node11"><a xlink:href="classH4_1_1HermiteIntegrator.html#a6e40f52b15e96a4d4e7f3cf89241e300" target="_top" xlink:title="Initial Hermite integrator.">
<polygon fill="white" stroke="black" points="188.5,-392.5 188.5,-422.5 298.5,-422.5 298.5,-392.5 188.5,-392.5"/>
<text text-anchor="start" x="196.5" y="-410.5" font-family="FreeSans" font-size="10.00">H4::HermiteIntegrator</text>
<text text-anchor="middle" x="243.5" y="-399.5" font-family="FreeSans" font-size="10.00">::initialIntegration</text>
</a>
</g>
</g>
<!-- Node1&#45;&gt;Node11 -->
<g id="edge13" class="edge">
<title>Node1&#45;&gt;Node11</title>
<path fill="none" stroke="midnightblue" d="M348.82,-391.79C332.35,-394.27 314.69,-396.93 298.67,-399.34"/>
<polygon fill="midnightblue" stroke="midnightblue" points="349.52,-395.22 358.89,-390.27 348.48,-388.3 349.52,-395.22"/>
</g>
<!-- Node12 -->
<g id="node12" class="node">
<title>Node12</title>
<g id="a_node12"><a xlink:href="classH4_1_1HermiteIntegrator.html#ae588ac618961f983b7c8710b2e6a65dc" target="_top" xlink:title="Initial system array.">
<polygon fill="white" stroke="black" points="188.5,-343.5 188.5,-373.5 298.5,-373.5 298.5,-343.5 188.5,-343.5"/>
<text text-anchor="start" x="196.5" y="-361.5" font-family="FreeSans" font-size="10.00">H4::HermiteIntegrator</text>
<text text-anchor="middle" x="243.5" y="-350.5" font-family="FreeSans" font-size="10.00">::initialSystemSingle</text>
</a>
</g>
</g>
<!-- Node1&#45;&gt;Node12 -->
<g id="edge14" class="edge">
<title>Node1&#45;&gt;Node12</title>
<path fill="none" stroke="midnightblue" d="M348.82,-373.58C332.35,-371.2 314.69,-368.65 298.67,-366.33"/>
<polygon fill="midnightblue" stroke="midnightblue" points="348.49,-377.07 358.89,-375.04 349.49,-370.14 348.49,-377.07"/>
</g>
<!-- Node13 -->
<g id="node13" class="node">
<title>Node13</title>
<g id="a_node13"><a xlink:href="classH4_1_1HermiteIntegrator.html#acaf43160d505e983bab7dff3f57150ce" target="_top" xlink:title="Integrate groups.">
<polygon fill="white" stroke="black" points="179.5,-294.5 179.5,-324.5 307.5,-324.5 307.5,-294.5 179.5,-294.5"/>
<text text-anchor="start" x="187.5" y="-312.5" font-family="FreeSans" font-size="10.00">H4::HermiteIntegrator</text>
<text text-anchor="middle" x="243.5" y="-301.5" font-family="FreeSans" font-size="10.00">::integrateGroupsOneStep</text>
</a>
</g>
</g>
<!-- Node1&#45;&gt;Node13 -->
<g id="edge15" class="edge">
<title>Node1&#45;&gt;Node13</title>
<path fill="none" stroke="midnightblue" d="M387.03,-367.54C369.8,-357.01 345.56,-343.13 323,-333.5 315.4,-330.25 307.21,-327.25 299.1,-324.54"/>
<polygon fill="midnightblue" stroke="midnightblue" points="385.48,-370.69 395.82,-372.99 389.17,-364.75 385.48,-370.69"/>
</g>
<!-- Node14 -->
<g id="node14" class="node">
<title>Node14</title>
<g id="a_node14"><a xlink:href="classAR_1_1TimeTransformedSymplecticIntegrator.html#afe193a9d85bdc145e13caca127824665" target="_top" xlink:title=" ">
<polygon fill="white" stroke="black" points="164,-245.5 164,-275.5 323,-275.5 323,-245.5 164,-245.5"/>
<text text-anchor="start" x="172" y="-263.5" font-family="FreeSans" font-size="10.00">AR::TimeTransformedSymplectic</text>
<text text-anchor="middle" x="243.5" y="-252.5" font-family="FreeSans" font-size="10.00">Integrator::integrateToTime</text>
</a>
</g>
</g>
<!-- Node1&#45;&gt;Node14 -->
<g id="edge16" class="edge">
<title>Node1&#45;&gt;Node14</title>
<path fill="none" stroke="midnightblue" d="M398.96,-364.41C384.02,-342.4 355.95,-305.59 323,-284.5 317.72,-281.12 311.93,-278.19 305.97,-275.66"/>
<polygon fill="midnightblue" stroke="midnightblue" points="396.1,-366.43 404.54,-372.84 401.94,-362.57 396.1,-366.43"/>
</g>
<!-- Node15 -->
<g id="node15" class="node">
<title>Node15</title>
<g id="a_node15"><a xlink:href="classAR_1_1TimeTransformedSymplecticIntegrator.html#a73d3b8fc6bae672f8f935a8c44545730" target="_top" xlink:title="print data of class members using column style">
<polygon fill="white" stroke="black" points="164,-196.5 164,-226.5 323,-226.5 323,-196.5 164,-196.5"/>
<text text-anchor="start" x="172" y="-214.5" font-family="FreeSans" font-size="10.00">AR::TimeTransformedSymplectic</text>
<text text-anchor="middle" x="243.5" y="-203.5" font-family="FreeSans" font-size="10.00">Integrator::printColumn</text>
</a>
</g>
</g>
<!-- Node1&#45;&gt;Node15 -->
<g id="edge17" class="edge">
<title>Node1&#45;&gt;Node15</title>
<path fill="none" stroke="midnightblue" d="M404.21,-363.22C392.98,-331.79 366.48,-269.61 323,-235.5 318.63,-232.07 313.77,-229.13 308.66,-226.6"/>
<polygon fill="midnightblue" stroke="midnightblue" points="401,-364.63 407.55,-372.96 407.62,-362.36 401,-364.63"/>
</g>
<!-- Node16 -->
<g id="node16" class="node">
<title>Node16</title>
<g id="a_node16"><a xlink:href="classH4_1_1HermiteIntegrator.html#ad9f08dd653c39dbaf4b71322e52bce8a" target="_top" xlink:title="print step histogram">
<polygon fill="white" stroke="black" points="188.5,-147.5 188.5,-177.5 298.5,-177.5 298.5,-147.5 188.5,-147.5"/>
<text text-anchor="start" x="196.5" y="-165.5" font-family="FreeSans" font-size="10.00">H4::HermiteIntegrator</text>
<text text-anchor="middle" x="243.5" y="-154.5" font-family="FreeSans" font-size="10.00">::printStepHist</text>
</a>
</g>
</g>
<!-- Node1&#45;&gt;Node16 -->
<g id="edge18" class="edge">
<title>Node1&#45;&gt;Node16</title>
<path fill="none" stroke="midnightblue" d="M407.26,-362.73C399.76,-323.33 377.5,-234.67 323,-186.5 316.06,-180.37 307.58,-175.8 298.8,-172.4"/>
<polygon fill="midnightblue" stroke="midnightblue" points="403.83,-363.44 409.03,-372.67 410.72,-362.21 403.83,-363.44"/>
</g>
<!-- Node17 -->
<g id="node17" class="node">
<title>Node17</title>
<g id="a_node17"><a xlink:href="classH4_1_1HermiteIntegrator.html#ac1d71ee127f38f68e0d767edde2fc7de" target="_top" xlink:title="sort time step array and select active particles">
<polygon fill="white" stroke="black" points="173.5,-98.5 173.5,-128.5 313.5,-128.5 313.5,-98.5 173.5,-98.5"/>
<text text-anchor="start" x="181.5" y="-116.5" font-family="FreeSans" font-size="10.00">H4::HermiteIntegrator</text>
<text text-anchor="middle" x="243.5" y="-105.5" font-family="FreeSans" font-size="10.00">::sortDtAndSelectActParticle</text>
</a>
</g>
</g>
<!-- Node1&#45;&gt;Node17 -->
<g id="edge19" class="edge">
<title>Node1&#45;&gt;Node17</title>
<path fill="none" stroke="midnightblue" d="M409.26,-362.73C405.3,-316.5 388.95,-200.47 323,-137.5 319.39,-134.06 315.3,-131.1 310.93,-128.58"/>
<polygon fill="midnightblue" stroke="midnightblue" points="405.79,-363.2 410.03,-372.91 412.77,-362.67 405.79,-363.2"/>
</g>
<!-- Node18 -->
<g id="node18" class="node">
<title>Node18</title>
<g id="a_node18"><a xlink:href="classH4_1_1HermiteIntegrator.html#a332dd3e31b1a67d014b8be0fb16363e2" target="_top" xlink:title="write back group members to particles">
<polygon fill="white" stroke="black" points="178,-725.5 178,-755.5 309,-755.5 309,-725.5 178,-725.5"/>
<text text-anchor="start" x="186" y="-743.5" font-family="FreeSans" font-size="10.00">H4::HermiteIntegrator</text>
<text text-anchor="middle" x="243.5" y="-732.5" font-family="FreeSans" font-size="10.00">::writeBackGroupMembers</text>
</a>
</g>
</g>
<!-- Node1&#45;&gt;Node18 -->
<g id="edge20" class="edge">
<title>Node1&#45;&gt;Node18</title>
<path fill="none" stroke="midnightblue" d="M407.87,-402.23C398.9,-466.76 367.55,-670.11 323,-716.5 318.95,-720.71 314.19,-724.19 309.04,-727.07"/>
<polygon fill="midnightblue" stroke="midnightblue" points="411.36,-402.55 409.24,-392.17 404.42,-401.6 411.36,-402.55"/>
</g>
<!-- Node19 -->
<g id="node19" class="node">
<title>Node19</title>
<g id="a_node19"><a xlink:href="classAR_1_1TimeTransformedSymplecticIntegrator.html#a72cd3195cd03b8e4b516e8b574e6defb" target="_top" xlink:title="write class data with BINARY format">
<polygon fill="white" stroke="black" points="164,-0.5 164,-30.5 323,-30.5 323,-0.5 164,-0.5"/>
<text text-anchor="start" x="172" y="-18.5" font-family="FreeSans" font-size="10.00">AR::TimeTransformedSymplectic</text>
<text text-anchor="middle" x="243.5" y="-7.5" font-family="FreeSans" font-size="10.00">Integrator::writeBinary</text>
</a>
</g>
</g>
<!-- Node1&#45;&gt;Node19 -->
<g id="edge22" class="edge">
<title>Node1&#45;&gt;Node19</title>
<path fill="none" stroke="midnightblue" d="M408.01,-362.68C399.35,-296.91 368.62,-87.32 323,-39.5 319.75,-36.1 316.04,-33.17 312.03,-30.66"/>
<polygon fill="midnightblue" stroke="midnightblue" points="404.57,-363.44 409.32,-372.91 411.52,-362.54 404.57,-363.44"/>
</g>
<!-- Node2&#45;&gt;Node3 -->
<g id="edge2" class="edge">
<title>Node2&#45;&gt;Node3</title>
<path fill="none" stroke="midnightblue" d="M161.62,-691.5C148.16,-691.5 134.46,-691.5 121.77,-691.5"/>
<polygon fill="midnightblue" stroke="midnightblue" points="161.84,-695 171.84,-691.5 161.84,-688 161.84,-695"/>
</g>
<!-- Node5 -->
<g id="node5" class="node">
<title>Node5</title>
<g id="a_node5"><a xlink:href="classH4_1_1HermiteIntegrator.html#a4681b656dd42eae01d3d85e66ac55112" target="_top" xlink:title="adjust groups">
<polygon fill="white" stroke="black" points="9,-539.5 9,-569.5 119,-569.5 119,-539.5 9,-539.5"/>
<text text-anchor="start" x="17" y="-557.5" font-family="FreeSans" font-size="10.00">H4::HermiteIntegrator</text>
<text text-anchor="middle" x="64" y="-546.5" font-family="FreeSans" font-size="10.00">::adjustGroups</text>
</a>
</g>
</g>
<!-- Node4&#45;&gt;Node5 -->
<g id="edge4" class="edge">
<title>Node4&#45;&gt;Node5</title>
<path fill="none" stroke="midnightblue" d="M179.11,-76.98C173.48,-80.03 168.3,-83.81 164,-88.5 101,-157.26 72.17,-466.46 66.2,-539.16"/>
<polygon fill="midnightblue" stroke="midnightblue" points="180.65,-80.12 188.27,-72.76 177.72,-73.76 180.65,-80.12"/>
</g>
<!-- Node6 -->
<g id="node6" class="node">
<title>Node6</title>
<g id="a_node6"><a xlink:href="classH4_1_1HermiteIntegrator.html#aa1916dc7e970885940bd74ed52aa222c" target="_top" xlink:title="Add group based on a configure file.">
<polygon fill="white" stroke="black" points="0,-49.5 0,-79.5 128,-79.5 128,-49.5 0,-49.5"/>
<text text-anchor="start" x="8" y="-67.5" font-family="FreeSans" font-size="10.00">H4::HermiteIntegrator</text>
<text text-anchor="middle" x="64" y="-56.5" font-family="FreeSans" font-size="10.00">::readGroupConfigureAscii</text>
</a>
</g>
</g>
<!-- Node4&#45;&gt;Node6 -->
<g id="edge5" class="edge">
<title>Node4&#45;&gt;Node6</title>
<path fill="none" stroke="midnightblue" d="M177.84,-64.5C161.67,-64.5 144.33,-64.5 128.23,-64.5"/>
<polygon fill="midnightblue" stroke="midnightblue" points="178.28,-68 188.28,-64.5 178.28,-61 178.28,-68"/>
</g>
<!-- Node7&#45;&gt;Node5 -->
<g id="edge7" class="edge">
<title>Node7&#45;&gt;Node5</title>
<path fill="none" stroke="midnightblue" d="M178.05,-554.5C158.74,-554.5 137.77,-554.5 119.19,-554.5"/>
<polygon fill="midnightblue" stroke="midnightblue" points="178.28,-558 188.28,-554.5 178.28,-551 178.28,-558"/>
</g>
<!-- Node8&#45;&gt;Node5 -->
<g id="edge10" class="edge">
<title>Node8&#45;&gt;Node5</title>
<path fill="none" stroke="midnightblue" d="M178.59,-585.86C159.13,-580.49 137.94,-574.64 119.19,-569.46"/>
<polygon fill="midnightblue" stroke="midnightblue" points="177.71,-589.24 188.28,-588.53 179.57,-582.5 177.71,-589.24"/>
</g>
<!-- Node18&#45;&gt;Node3 -->
<g id="edge21" class="edge">
<title>Node18&#45;&gt;Node3</title>
<path fill="none" stroke="midnightblue" d="M177.94,-722.68C158.78,-717.39 137.98,-711.65 119.52,-706.55"/>
<polygon fill="midnightblue" stroke="midnightblue" points="177.22,-726.11 187.8,-725.4 179.09,-719.36 177.22,-726.11"/>
</g>
</g>
</svg>
