<?xml version="1.0" encoding="UTF-8" standalone="no"?>
<!DOCTYPE svg PUBLIC "-//W3C//DTD SVG 1.1//EN"
 "http://www.w3.org/Graphics/SVG/1.1/DTD/svg11.dtd">
<!-- Generated by graphviz version 2.43.0 (0)
 -->
<!-- Title: H4::Profile::clear Pages: 1 -->
<svg width="240pt" height="78pt"
 viewBox="0.00 0.00 240.00 77.50" xmlns="http://www.w3.org/2000/svg" xmlns:xlink="http://www.w3.org/1999/xlink">
<g id="graph0" class="graph" transform="scale(1 1) rotate(0) translate(4 73.5)">
<title>H4::Profile::clear</title>
<polygon fill="white" stroke="transparent" points="-4,4 -4,-73.5 236,-73.5 236,4 -4,4"/>
<!-- Node1 -->
<g id="node1" class="node">
<title>Node1</title>
<g id="a_node1"><a xlink:title=" ">
<polygon fill="#bfbfbf" stroke="black" points="146,-22.5 146,-41.5 232,-41.5 232,-22.5 146,-22.5"/>
<text text-anchor="middle" x="189" y="-29.5" font-family="FreeSans" font-size="10.00">H4::Profile::clear</text>
</a>
</g>
</g>
<!-- Node2 -->
<g id="node2" class="node">
<title>Node2</title>
<g id="a_node2"><a xlink:href="classH4_1_1HermiteIntegrator.html#a7729add39ba30b96c19aa6337dd38293" target="_top" xlink:title="clear function">
<polygon fill="white" stroke="black" points="0,-39 0,-69 110,-69 110,-39 0,-39"/>
<text text-anchor="start" x="8" y="-57" font-family="FreeSans" font-size="10.00">H4::HermiteIntegrator</text>
<text text-anchor="middle" x="55" y="-46" font-family="FreeSans" font-size="10.00">::clear</text>
</a>
</g>
</g>
<!-- Node1&#45;&gt;Node2 -->
<g id="edge1" class="edge">
<title>Node1&#45;&gt;Node2</title>
<path fill="none" stroke="midnightblue" d="M135.82,-40.7C127.43,-42.1 118.72,-43.55 110.28,-44.95"/>
<polygon fill="midnightblue" stroke="midnightblue" points="136.58,-44.12 145.87,-39.02 135.43,-37.21 136.58,-44.12"/>
</g>
<!-- Node3 -->
<g id="node3" class="node">
<title>Node3</title>
<g id="a_node3"><a xlink:href="classH4_1_1Profile.html#a170a156f69c2ed5dad9fbd0248806023" target="_top" xlink:title=" ">
<polygon fill="white" stroke="black" points="9,-0.5 9,-19.5 101,-19.5 101,-0.5 9,-0.5"/>
<text text-anchor="middle" x="55" y="-7.5" font-family="FreeSans" font-size="10.00">H4::Profile::Profile</text>
</a>
</g>
</g>
<!-- Node1&#45;&gt;Node3 -->
<g id="edge2" class="edge">
<title>Node1&#45;&gt;Node3</title>
<path fill="none" stroke="midnightblue" d="M136.01,-23.33C124.56,-21.43 112.53,-19.42 101.38,-17.56"/>
<polygon fill="midnightblue" stroke="midnightblue" points="135.43,-26.79 145.87,-24.98 136.58,-19.88 135.43,-26.79"/>
</g>
</g>
</svg>
