<?xml version="1.0" encoding="UTF-8" standalone="no"?>
<!DOCTYPE svg PUBLIC "-//W3C//DTD SVG 1.1//EN"
 "http://www.w3.org/Graphics/SVG/1.1/DTD/svg11.dtd">
<!-- Generated by graphviz version 2.38.0 (20140413.2041)
 -->
<!-- Title: AR::SlowDown::printColumnTitle Pages: 1 -->
<svg width="338pt" height="88pt"
 viewBox="0.00 0.00 338.00 88.00" xmlns="http://www.w3.org/2000/svg" xmlns:xlink="http://www.w3.org/1999/xlink">
<g id="graph0" class="graph" transform="scale(1 1) rotate(0) translate(4 84)">
<title>AR::SlowDown::printColumnTitle</title>
<polygon fill="white" stroke="none" points="-4,4 -4,-84 334,-84 334,4 -4,4"/>
<!-- Node1 -->
<g id="node1" class="node"><title>Node1</title>
<polygon fill="#bfbfbf" stroke="black" points="0,-24.5 0,-54.5 136,-54.5 136,-24.5 0,-24.5"/>
<text text-anchor="start" x="8" y="-42.5" font-family="FreeSans" font-size="10.00">AR::SlowDown::printColumn</text>
<text text-anchor="middle" x="68" y="-31.5" font-family="FreeSans" font-size="10.00">Title</text>
</g>
<!-- Node2 -->
<g id="node2" class="node"><title>Node2</title>
<g id="a_node2"><a xlink:href="classH4_1_1HermiteIntegrator.html#ac5071fb8fac2b382267d541c64b21a9c" target="_top" xlink:title="print titles of class members using column style ">
<polygon fill="white" stroke="black" points="197,-49.5 197,-79.5 305,-79.5 305,-49.5 197,-49.5"/>
<text text-anchor="start" x="205" y="-67.5" font-family="FreeSans" font-size="10.00">H4::HermiteIntegrator</text>
<text text-anchor="middle" x="251" y="-56.5" font-family="FreeSans" font-size="10.00">::printColumnTitle</text>
</a>
</g>
</g>
<!-- Node1&#45;&gt;Node2 -->
<g id="edge1" class="edge"><title>Node1&#45;&gt;Node2</title>
<path fill="none" stroke="midnightblue" d="M146.108,-50.1502C163.196,-52.5105 180.936,-54.9608 196.817,-57.1543"/>
<polygon fill="midnightblue" stroke="midnightblue" points="146.525,-46.6748 136.141,-48.7736 145.568,-53.6089 146.525,-46.6748"/>
</g>
<!-- Node3 -->
<g id="node3" class="node"><title>Node3</title>
<g id="a_node3"><a xlink:href="classAR_1_1TimeTransformedSymplecticIntegrator.html#a810d3b067eb342d28e6f97c7041b96c0" target="_top" xlink:title="print titles of class members using column style ">
<polygon fill="white" stroke="black" points="172,-0.5 172,-30.5 330,-30.5 330,-0.5 172,-0.5"/>
<text text-anchor="start" x="180" y="-18.5" font-family="FreeSans" font-size="10.00">AR::TimeTransformedSymplectic</text>
<text text-anchor="middle" x="251" y="-7.5" font-family="FreeSans" font-size="10.00">Integrator::printColumnTitle</text>
</a>
</g>
</g>
<!-- Node1&#45;&gt;Node3 -->
<g id="edge2" class="edge"><title>Node1&#45;&gt;Node3</title>
<path fill="none" stroke="midnightblue" d="M146.1,-29.2767C154.665,-28.1411 163.393,-26.9837 171.97,-25.8466"/>
<polygon fill="midnightblue" stroke="midnightblue" points="145.594,-25.8132 136.141,-30.5974 146.514,-32.7525 145.594,-25.8132"/>
</g>
</g>
</svg>
