<?xml version="1.0" encoding="UTF-8" standalone="no"?>
<!DOCTYPE svg PUBLIC "-//W3C//DTD SVG 1.1//EN"
 "http://www.w3.org/Graphics/SVG/1.1/DTD/svg11.dtd">
<!-- Generated by graphviz version 2.38.0 (20140413.2041)
 -->
<!-- Title: COMM::List::getDataAddress Pages: 1 -->
<!--zoomable 697 -->
<svg id="main" version="1.1" xmlns="http://www.w3.org/2000/svg" xmlns:xlink="http://www.w3.org/1999/xlink" xml:space="preserve" onload="init(evt)">
<style type="text/css"><![CDATA[
.edge:hover path { stroke: red; }
.edge:hover polygon { stroke: red; fill: red; }
]]></style>
<script type="text/javascript"><![CDATA[
var edges = document.getElementsByTagName('g');
if (edges && edges.length) {
  for (var i=0;i<edges.length;i++) {
    if (edges[i].id.substr(0,4)=='edge') {
      edges[i].setAttribute('class','edge');
    }
  }
}
]]></script>
        <defs>
                <circle id="rim" cx="0" cy="0" r="7"/>
                <circle id="rim2" cx="0" cy="0" r="3.5"/>
                <g id="zoomPlus">
                        <use xlink:href="#rim" fill="#404040">
                                <set attributeName="fill" to="#808080" begin="zoomplus.mouseover" end="zoomplus.mouseout"/>
                        </use>
                        <path d="M-4,0h8M0,-4v8" fill="none" stroke="white" stroke-width="1.5" pointer-events="none"/>
                </g>
                <g id="zoomMin">
                        <use xlink:href="#rim" fill="#404040">
                                <set attributeName="fill" to="#808080" begin="zoomminus.mouseover" end="zoomminus.mouseout"/>
                        </use>
                        <path d="M-4,0h8" fill="none" stroke="white" stroke-width="1.5" pointer-events="none"/>
                </g>
                <g id="dirArrow">
                        <path fill="none" stroke="white" stroke-width="1.5" d="M0,-3.0v7 M-2.5,-0.5L0,-3.0L2.5,-0.5"/>
                </g>
               <g id="resetDef">
                       <use xlink:href="#rim2" fill="#404040">
                               <set attributeName="fill" to="#808080" begin="reset.mouseover" end="reset.mouseout"/>
                       </use>
               </g>
        </defs>

<script type="text/javascript">
var viewWidth = 351;
var viewHeight = 697;
var sectionId = 'dynsection-4';
</script>
<script xlink:href="svgpan.js"/>
<svg id="graph" class="graph">
<g id="viewport">
<title>COMM::List::getDataAddress</title>
<polygon fill="white" stroke="none" points="-4,4 -4,-692.5 347,-692.5 347,4 -4,4"/>
<!-- Node1 -->
<g id="node1" class="node"><title>Node1</title>
<polygon fill="#bfbfbf" stroke="black" points="0,-334 0,-353 140,-353 140,-334 0,-334"/>
<text text-anchor="middle" x="70" y="-341" font-family="FreeSans" font-size="10.00">COMM::List::getDataAddress</text>
</g>
<!-- Node2 -->
<g id="node2" class="node"><title>Node2</title>
<g id="a_node2"><a xlink:href="classH4_1_1ARInformation.html#a54e2345bbf41103ae4e06dcf474ec304" target="_top" xlink:title="get two branch particle index ">
<polygon fill="white" stroke="black" points="179,-647 179,-688 340,-688 340,-647 179,-647"/>
<text text-anchor="start" x="187" y="-676" font-family="FreeSans" font-size="10.00">H4::ARInformation::</text>
<text text-anchor="start" x="187" y="-665" font-family="FreeSans" font-size="10.00">getTwoBranchParticleIndexOrigin</text>
<text text-anchor="middle" x="259.5" y="-654" font-family="FreeSans" font-size="10.00">FromBinaryTree</text>
</a>
</g>
</g>
<!-- Node1&#45;&gt;Node2 -->
<g id="edge1" class="edge"><title>Node1&#45;&gt;Node2</title>
<path fill="none" stroke="midnightblue" d="M72.3454,-363.52C76.9429,-416.067 96.5073,-559.319 176,-638.5 179.119,-641.607 182.591,-644.382 186.294,-646.861"/>
<polygon fill="midnightblue" stroke="midnightblue" points="75.8091,-362.918 71.5397,-353.221 68.8304,-363.464 75.8091,-362.918"/>
</g>
<!-- Node3 -->
<g id="node3" class="node"><title>Node3</title>
<g id="a_node3"><a xlink:href="classH4_1_1HermiteIntegrator.html#ab37772f7b30dbb9cc6de51bf58a20fae" target="_top" xlink:title="reserve memory for system ">
<polygon fill="white" stroke="black" points="202,-598.5 202,-628.5 317,-628.5 317,-598.5 202,-598.5"/>
<text text-anchor="start" x="210" y="-616.5" font-family="FreeSans" font-size="10.00">H4::HermiteIntegrator</text>
<text text-anchor="middle" x="259.5" y="-605.5" font-family="FreeSans" font-size="10.00">::reserveIntegratorMem</text>
</a>
</g>
</g>
<!-- Node1&#45;&gt;Node3 -->
<g id="edge2" class="edge"><title>Node1&#45;&gt;Node3</title>
<path fill="none" stroke="midnightblue" d="M73.6404,-363.194C80.9333,-409.717 105.694,-527.183 176,-589.5 183.367,-596.03 192.42,-600.789 201.798,-604.255"/>
<polygon fill="midnightblue" stroke="midnightblue" points="77.0894,-362.591 72.1769,-353.204 70.1634,-363.605 77.0894,-362.591"/>
</g>
<!-- Node4 -->
<g id="node4" class="node"><title>Node4</title>
<g id="a_node4"><a xlink:href="classH4_1_1HermiteIntegrator.html#a6e40f52b15e96a4d4e7f3cf89241e300" target="_top" xlink:title="Initial Hermite integrator. ">
<polygon fill="white" stroke="black" points="205.5,-549.5 205.5,-579.5 313.5,-579.5 313.5,-549.5 205.5,-549.5"/>
<text text-anchor="start" x="213.5" y="-567.5" font-family="FreeSans" font-size="10.00">H4::HermiteIntegrator</text>
<text text-anchor="middle" x="259.5" y="-556.5" font-family="FreeSans" font-size="10.00">::initialIntegration</text>
</a>
</g>
</g>
<!-- Node1&#45;&gt;Node4 -->
<g id="edge3" class="edge"><title>Node1&#45;&gt;Node4</title>
<path fill="none" stroke="midnightblue" d="M75.9481,-363.237C86.9314,-402.933 117.152,-492.707 176,-540.5 184.453,-547.365 194.793,-552.266 205.257,-555.765"/>
<polygon fill="midnightblue" stroke="midnightblue" points="79.2981,-362.215 73.3526,-353.446 72.5317,-364.009 79.2981,-362.215"/>
</g>
<!-- Node5 -->
<g id="node5" class="node"><title>Node5</title>
<g id="a_node5"><a xlink:href="classH4_1_1HermiteIntegrator.html#a1aaef2826d6bb2c6cc4cafef39fbfaca" target="_top" xlink:title="Integration single active particles and update steps. ">
<polygon fill="white" stroke="black" points="190,-500.5 190,-530.5 329,-530.5 329,-500.5 190,-500.5"/>
<text text-anchor="start" x="198" y="-518.5" font-family="FreeSans" font-size="10.00">H4::HermiteIntegrator</text>
<text text-anchor="middle" x="259.5" y="-507.5" font-family="FreeSans" font-size="10.00">::integrateSingleOneStepAct</text>
</a>
</g>
</g>
<!-- Node1&#45;&gt;Node5 -->
<g id="edge4" class="edge"><title>Node1&#45;&gt;Node5</title>
<path fill="none" stroke="midnightblue" d="M79.34,-362.579C94.1431,-394.203 128.03,-457.368 176,-491.5 180.862,-494.959 186.218,-497.923 191.796,-500.463"/>
<polygon fill="midnightblue" stroke="midnightblue" points="82.3804,-360.809 75.0587,-353.151 76.0068,-363.704 82.3804,-360.809"/>
</g>
<!-- Node6 -->
<g id="node6" class="node"><title>Node6</title>
<g id="a_node6"><a xlink:href="classH4_1_1HermiteIntegrator.html#aee9e179800b8e384c3c0807c22b9e6de" target="_top" xlink:title="Integration a list of particle to current time (ingore dt) ">
<polygon fill="white" stroke="black" points="205.5,-451.5 205.5,-481.5 313.5,-481.5 313.5,-451.5 205.5,-451.5"/>
<text text-anchor="start" x="213.5" y="-469.5" font-family="FreeSans" font-size="10.00">H4::HermiteIntegrator</text>
<text text-anchor="middle" x="259.5" y="-458.5" font-family="FreeSans" font-size="10.00">::integrateToTimeList</text>
</a>
</g>
</g>
<!-- Node1&#45;&gt;Node6 -->
<g id="edge5" class="edge"><title>Node1&#45;&gt;Node6</title>
<path fill="none" stroke="midnightblue" d="M85.08,-361.174C103.639,-383.321 138.369,-420.977 176,-442.5 185.064,-447.684 195.339,-451.828 205.486,-455.112"/>
<polygon fill="midnightblue" stroke="midnightblue" points="87.6248,-358.757 78.5752,-353.248 82.2138,-363.198 87.6248,-358.757"/>
</g>
<!-- Node7 -->
<g id="node7" class="node"><title>Node7</title>
<g id="a_node7"><a xlink:href="classH4_1_1HermiteIntegrator.html#ac1d71ee127f38f68e0d767edde2fc7de" target="_top" xlink:title="sort time step array and select active particles ">
<polygon fill="white" stroke="black" points="189.5,-402.5 189.5,-432.5 329.5,-432.5 329.5,-402.5 189.5,-402.5"/>
<text text-anchor="start" x="197.5" y="-420.5" font-family="FreeSans" font-size="10.00">H4::HermiteIntegrator</text>
<text text-anchor="middle" x="259.5" y="-409.5" font-family="FreeSans" font-size="10.00">::sortDtAndSelectActParticle</text>
</a>
</g>
</g>
<!-- Node1&#45;&gt;Node7 -->
<g id="edge6" class="edge"><title>Node1&#45;&gt;Node7</title>
<path fill="none" stroke="midnightblue" d="M97.7487,-357.714C118.662,-368.463 148.673,-383.097 176,-393.5 184.364,-396.684 193.34,-399.694 202.18,-402.437"/>
<polygon fill="midnightblue" stroke="midnightblue" points="99.31,-354.581 88.8224,-353.078 96.0836,-360.793 99.31,-354.581"/>
</g>
<!-- Node8 -->
<g id="node8" class="node"><title>Node8</title>
<g id="a_node8"><a xlink:href="classH4_1_1HermiteIntegrator.html#aafda8d20755ddd59875994844de3f0c3" target="_top" xlink:title="calculate slowdown energy ">
<polygon fill="white" stroke="black" points="203,-353.5 203,-383.5 316,-383.5 316,-353.5 203,-353.5"/>
<text text-anchor="start" x="211" y="-371.5" font-family="FreeSans" font-size="10.00">H4::HermiteIntegrator</text>
<text text-anchor="middle" x="259.5" y="-360.5" font-family="FreeSans" font-size="10.00">::calcEnergySlowDown</text>
</a>
</g>
</g>
<!-- Node1&#45;&gt;Node8 -->
<g id="edge7" class="edge"><title>Node1&#45;&gt;Node8</title>
<path fill="none" stroke="midnightblue" d="M150.315,-354.075C167.973,-356.43 186.33,-358.877 202.8,-361.073"/>
<polygon fill="midnightblue" stroke="midnightblue" points="150.394,-350.555 140.019,-352.703 149.469,-357.494 150.394,-350.555"/>
</g>
<!-- Node9 -->
<g id="node9" class="node"><title>Node9</title>
<g id="a_node9"><a xlink:href="classH4_1_1HermiteIntegrator.html#a0733c6183aaba7c2d7095e1d34ce3b6a" target="_top" xlink:title="get sorted dt index of singles ">
<polygon fill="white" stroke="black" points="203,-304.5 203,-334.5 316,-334.5 316,-304.5 203,-304.5"/>
<text text-anchor="start" x="211" y="-322.5" font-family="FreeSans" font-size="10.00">H4::HermiteIntegrator</text>
<text text-anchor="middle" x="259.5" y="-311.5" font-family="FreeSans" font-size="10.00">::getSortDtIndexSingle</text>
</a>
</g>
</g>
<!-- Node1&#45;&gt;Node9 -->
<g id="edge8" class="edge"><title>Node1&#45;&gt;Node9</title>
<path fill="none" stroke="midnightblue" d="M150.315,-333.348C167.973,-331.088 186.33,-328.738 202.8,-326.63"/>
<polygon fill="midnightblue" stroke="midnightblue" points="149.494,-329.924 140.019,-334.666 150.383,-336.867 149.494,-329.924"/>
</g>
<!-- Node10 -->
<g id="node10" class="node"><title>Node10</title>
<g id="a_node10"><a xlink:href="classH4_1_1HermiteIntegrator.html#afaba53fb063b55b26a02d9e4cb907b27" target="_top" xlink:title="get sorted dt index of groups ">
<polygon fill="white" stroke="black" points="203.5,-255.5 203.5,-285.5 315.5,-285.5 315.5,-255.5 203.5,-255.5"/>
<text text-anchor="start" x="211.5" y="-273.5" font-family="FreeSans" font-size="10.00">H4::HermiteIntegrator</text>
<text text-anchor="middle" x="259.5" y="-262.5" font-family="FreeSans" font-size="10.00">::getSortDtIndexGroup</text>
</a>
</g>
</g>
<!-- Node1&#45;&gt;Node10 -->
<g id="edge9" class="edge"><title>Node1&#45;&gt;Node10</title>
<path fill="none" stroke="midnightblue" d="M99.2697,-329.32C120.158,-319.153 149.457,-305.537 176,-295.5 185.239,-292.006 195.198,-288.653 204.891,-285.599"/>
<polygon fill="midnightblue" stroke="midnightblue" points="97.4547,-326.312 90.0226,-333.863 100.541,-332.594 97.4547,-326.312"/>
</g>
<!-- Node11 -->
<g id="node11" class="node"><title>Node11</title>
<g id="a_node11"><a xlink:href="classAR_1_1Information.html#a14e49407402b8d9e350b9e4cde688e0d" target="_top" xlink:title="generate binary tree for the particle group ">
<polygon fill="white" stroke="black" points="176,-196 176,-237 343,-237 343,-196 176,-196"/>
<text text-anchor="start" x="184" y="-225" font-family="FreeSans" font-size="10.00">AR::Information&lt; Particle</text>
<text text-anchor="start" x="184" y="-214" font-family="FreeSans" font-size="10.00">AR&lt; Tparticle &gt;, ParticleH4</text>
<text text-anchor="middle" x="259.5" y="-203" font-family="FreeSans" font-size="10.00">&lt; Tparticle &gt; &gt;::generateBinaryTree</text>
</a>
</g>
</g>
<!-- Node1&#45;&gt;Node11 -->
<g id="edge10" class="edge"><title>Node1&#45;&gt;Node11</title>
<path fill="none" stroke="midnightblue" d="M85.6733,-326.253C104.62,-304.927 139.518,-268.732 176,-246.5 181.596,-243.09 187.64,-239.979 193.823,-237.163"/>
<polygon fill="midnightblue" stroke="midnightblue" points="82.9444,-324.057 79.0049,-333.892 88.2179,-328.66 82.9444,-324.057"/>
</g>
<!-- Node12 -->
<g id="node12" class="node"><title>Node12</title>
<g id="a_node12"><a xlink:href="classAR_1_1TimeTransformedSymplecticIntegrator.html#aa655bbfc4e9f9af1ae7f7a09fc193443" target="_top" xlink:title="operator = ">
<polygon fill="white" stroke="black" points="180.5,-147.5 180.5,-177.5 338.5,-177.5 338.5,-147.5 180.5,-147.5"/>
<text text-anchor="start" x="188.5" y="-165.5" font-family="FreeSans" font-size="10.00">AR::TimeTransformedSymplectic</text>
<text text-anchor="middle" x="259.5" y="-154.5" font-family="FreeSans" font-size="10.00">Integrator::operator=</text>
</a>
</g>
</g>
<!-- Node1&#45;&gt;Node12 -->
<g id="edge11" class="edge"><title>Node1&#45;&gt;Node12</title>
<path fill="none" stroke="midnightblue" d="M78.6298,-324.176C92.7438,-290.948 126.112,-223.043 176,-186.5 180.693,-183.062 185.871,-180.115 191.277,-177.588"/>
<polygon fill="midnightblue" stroke="midnightblue" points="75.2952,-323.083 74.7274,-333.662 81.7688,-325.746 75.2952,-323.083"/>
</g>
<!-- Node13 -->
<g id="node13" class="node"><title>Node13</title>
<g id="a_node13"><a xlink:href="classAR_1_1TimeTransformedSymplecticIntegrator.html#a4db984abe326fd1a30b3d52f6537e5eb" target="_top" xlink:title="initialization for integration ">
<polygon fill="white" stroke="black" points="180.5,-98.5 180.5,-128.5 338.5,-128.5 338.5,-98.5 180.5,-98.5"/>
<text text-anchor="start" x="188.5" y="-116.5" font-family="FreeSans" font-size="10.00">AR::TimeTransformedSymplectic</text>
<text text-anchor="middle" x="259.5" y="-105.5" font-family="FreeSans" font-size="10.00">Integrator::initialIntegration</text>
</a>
</g>
</g>
<!-- Node1&#45;&gt;Node13 -->
<g id="edge12" class="edge"><title>Node1&#45;&gt;Node13</title>
<path fill="none" stroke="midnightblue" d="M75.5355,-323.864C85.9696,-283.118 115.556,-188.982 176,-138.5 180.595,-134.663 185.768,-131.414 191.226,-128.664"/>
<polygon fill="midnightblue" stroke="midnightblue" points="72.1181,-323.105 73.1395,-333.65 78.9173,-324.77 72.1181,-323.105"/>
</g>
<!-- Node14 -->
<g id="node14" class="node"><title>Node14</title>
<g id="a_node14"><a xlink:href="classAR_1_1TimeTransformedSymplecticIntegrator.html#aa9bc3285b782123da733df7d123a4ad6" target="_top" xlink:title="integration for two body one step ">
<polygon fill="white" stroke="black" points="180.5,-49.5 180.5,-79.5 338.5,-79.5 338.5,-49.5 180.5,-49.5"/>
<text text-anchor="start" x="188.5" y="-67.5" font-family="FreeSans" font-size="10.00">AR::TimeTransformedSymplectic</text>
<text text-anchor="middle" x="259.5" y="-56.5" font-family="FreeSans" font-size="10.00">Integrator::integrateTwoOneStep</text>
</a>
</g>
</g>
<!-- Node1&#45;&gt;Node14 -->
<g id="edge13" class="edge"><title>Node1&#45;&gt;Node14</title>
<path fill="none" stroke="midnightblue" d="M73.3898,-323.86C80.2143,-276.407 104.168,-154.632 176,-89.5 180.213,-85.6799 184.993,-82.443 190.079,-79.7004"/>
<polygon fill="midnightblue" stroke="midnightblue" points="69.9207,-323.397 72.0629,-333.773 76.8588,-324.325 69.9207,-323.397"/>
</g>
<!-- Node15 -->
<g id="node15" class="node"><title>Node15</title>
<g id="a_node15"><a xlink:href="classAR_1_1TimeTransformedSymplecticIntegrator.html#a24f338caf7308ceda28fcd7f8a223165" target="_top" xlink:title="AR::TimeTransformedSymplectic\lIntegrator::integrateToTime">
<polygon fill="white" stroke="black" points="180.5,-0.5 180.5,-30.5 338.5,-30.5 338.5,-0.5 180.5,-0.5"/>
<text text-anchor="start" x="188.5" y="-18.5" font-family="FreeSans" font-size="10.00">AR::TimeTransformedSymplectic</text>
<text text-anchor="middle" x="259.5" y="-7.5" font-family="FreeSans" font-size="10.00">Integrator::integrateToTime</text>
</a>
</g>
</g>
<!-- Node1&#45;&gt;Node15 -->
<g id="edge14" class="edge"><title>Node1&#45;&gt;Node15</title>
<path fill="none" stroke="midnightblue" d="M71.898,-323.814C75.4196,-270.272 92.6198,-120.662 176,-40.5 179.992,-36.6622 184.553,-33.4116 189.436,-30.6585"/>
<polygon fill="midnightblue" stroke="midnightblue" points="68.3932,-323.801 71.3229,-333.983 75.382,-324.196 68.3932,-323.801"/>
</g>
</g>
</svg>
        <g id="navigator" transform="translate(0 0)" fill="#404254">
                <rect fill="#f2f5e9" fill-opacity="0.5" stroke="#606060" stroke-width=".5" x="0" y="0" width="60" height="60"/>
                <use id="zoomplus" xlink:href="#zoomPlus" x="17" y="9" onmousedown="handleZoom(evt,'in')"/>
                <use id="zoomminus" xlink:href="#zoomMin" x="42" y="9" onmousedown="handleZoom(evt,'out')"/>
                <use id="reset" xlink:href="#resetDef" x="30" y="36" onmousedown="handleReset()"/>
                <g id="arrowUp" xlink:href="#dirArrow" transform="translate(30 24)" onmousedown="handlePan(0,-1)">
                  <use xlink:href="#rim" fill="#404040">
                        <set attributeName="fill" to="#808080" begin="arrowUp.mouseover" end="arrowUp.mouseout"/>
                  </use>
                  <path fill="none" stroke="white" stroke-width="1.5" d="M0,-3.0v7 M-2.5,-0.5L0,-3.0L2.5,-0.5"/>
                </g>
                <g id="arrowRight" xlink:href="#dirArrow" transform="rotate(90) translate(36 -43)" onmousedown="handlePan(1,0)">
                  <use xlink:href="#rim" fill="#404040">
                        <set attributeName="fill" to="#808080" begin="arrowRight.mouseover" end="arrowRight.mouseout"/>
                  </use>
                  <path fill="none" stroke="white" stroke-width="1.5" d="M0,-3.0v7 M-2.5,-0.5L0,-3.0L2.5,-0.5"/>
                </g>
                <g id="arrowDown" xlink:href="#dirArrow" transform="rotate(180) translate(-30 -48)" onmousedown="handlePan(0,1)">
                  <use xlink:href="#rim" fill="#404040">
                        <set attributeName="fill" to="#808080" begin="arrowDown.mouseover" end="arrowDown.mouseout"/>
                  </use>
                  <path fill="none" stroke="white" stroke-width="1.5" d="M0,-3.0v7 M-2.5,-0.5L0,-3.0L2.5,-0.5"/>
                </g>
                <g id="arrowLeft" xlink:href="#dirArrow" transform="rotate(270) translate(-36 17)" onmousedown="handlePan(-1,0)">
                  <use xlink:href="#rim" fill="#404040">
                        <set attributeName="fill" to="#808080" begin="arrowLeft.mouseover" end="arrowLeft.mouseout"/>
                  </use>
                  <path fill="none" stroke="white" stroke-width="1.5" d="M0,-3.0v7 M-2.5,-0.5L0,-3.0L2.5,-0.5"/>
                </g>
        </g>
        <svg viewBox="0 0 15 15" width="100%" height="30px" preserveAspectRatio="xMaxYMin meet">
         <g id="arrow_out" transform="scale(0.3 0.3)">
          <a xlink:href="classCOMM_1_1List_a125e4f93ee02b677f8377bd541f2105d_icgraph_org.svg" target="_base">
           <rect id="button" ry="5" rx="5" y="6" x="6" height="38" width="38"
                fill="#f2f5e9" fill-opacity="0.5" stroke="#606060" stroke-width="1.0"/>
           <path id="arrow"
             d="M 11.500037,31.436501 C 11.940474,20.09759 22.043105,11.32322 32.158766,21.979434 L 37.068811,17.246167 C 37.068811,17.246167 37.088388,32 37.088388,32 L 22.160133,31.978069 C 22.160133,31.978069 26.997745,27.140456 26.997745,27.140456 C 18.528582,18.264221 13.291696,25.230495 11.500037,31.436501 z"
             style="fill:#404040;"/>
          </a>
         </g>
        </svg>
</svg>
