<?xml version="1.0" encoding="UTF-8" standalone="no"?>
<!DOCTYPE svg PUBLIC "-//W3C//DTD SVG 1.1//EN"
 "http://www.w3.org/Graphics/SVG/1.1/DTD/svg11.dtd">
<!-- Generated by graphviz version 2.43.0 (0)
 -->
<!-- Title: AR::TimeTransformedSymplecticIntegrator::integrateToTime Pages: 1 -->
<svg width="346pt" height="165pt"
 viewBox="0.00 0.00 346.00 164.50" xmlns="http://www.w3.org/2000/svg" xmlns:xlink="http://www.w3.org/1999/xlink">
<g id="graph0" class="graph" transform="scale(1 1) rotate(0) translate(4 160.5)">
<title>AR::TimeTransformedSymplecticIntegrator::integrateToTime</title>
<polygon fill="white" stroke="transparent" points="-4,4 -4,-160.5 342,-160.5 342,4 -4,4"/>
<!-- Node1 -->
<g id="node1" class="node">
<title>Node1</title>
<g id="a_node1"><a xlink:title=" ">
<polygon fill="#bfbfbf" stroke="black" points="0,-33 0,-63 159,-63 159,-33 0,-33"/>
<text text-anchor="start" x="8" y="-51" font-family="FreeSans" font-size="10.00">AR::TimeTransformedSymplectic</text>
<text text-anchor="middle" x="79.5" y="-40" font-family="FreeSans" font-size="10.00">Integrator::integrateToTime</text>
</a>
</g>
</g>
<!-- Node2 -->
<g id="node2" class="node">
<title>Node2</title>
<g id="a_node2"><a xlink:href="structAR_1_1InterruptBinary.html#aaff1b4b9117423d836df5d2d59b2500a" target="_top" xlink:title=" ">
<polygon fill="white" stroke="black" points="217.5,-126 217.5,-156 315.5,-156 315.5,-126 217.5,-126"/>
<text text-anchor="start" x="225.5" y="-144" font-family="FreeSans" font-size="10.00">AR::InterruptBinary</text>
<text text-anchor="middle" x="266.5" y="-133" font-family="FreeSans" font-size="10.00">::checkParams</text>
</a>
</g>
</g>
<!-- Node1&#45;&gt;Node2 -->
<g id="edge1" class="edge">
<title>Node1&#45;&gt;Node2</title>
<path fill="none" stroke="midnightblue" d="M102.52,-63.23C125.02,-78.3 161.33,-101.34 195,-117 199.07,-118.89 203.33,-120.71 207.65,-122.44"/>
<polygon fill="midnightblue" stroke="midnightblue" points="206.58,-125.78 217.17,-126.09 209.09,-119.24 206.58,-125.78"/>
</g>
<!-- Node3 -->
<g id="node3" class="node">
<title>Node3</title>
<g id="a_node3"><a xlink:href="structAR_1_1InterruptBinary.html#a1309ddc9ea338b2990190c72c37d8c06" target="_top" xlink:title=" ">
<polygon fill="white" stroke="black" points="217.5,-77 217.5,-107 315.5,-107 315.5,-77 217.5,-77"/>
<text text-anchor="start" x="225.5" y="-95" font-family="FreeSans" font-size="10.00">AR::InterruptBinary</text>
<text text-anchor="middle" x="266.5" y="-84" font-family="FreeSans" font-size="10.00">::clear</text>
</a>
</g>
</g>
<!-- Node1&#45;&gt;Node3 -->
<g id="edge2" class="edge">
<title>Node1&#45;&gt;Node3</title>
<path fill="none" stroke="midnightblue" d="M143.65,-63.02C164.34,-67.94 187.21,-73.38 207.5,-78.21"/>
<polygon fill="midnightblue" stroke="midnightblue" points="206.7,-81.61 217.24,-80.52 208.32,-74.8 206.7,-81.61"/>
</g>
<!-- Node4 -->
<g id="node4" class="node">
<title>Node4</title>
<g id="a_node4"><a xlink:href="classCOMM_1_1List.html#ad6c06deee95952a09db820733ea428f9" target="_top" xlink:title="return member data array address">
<polygon fill="white" stroke="black" points="195,-38.5 195,-57.5 338,-57.5 338,-38.5 195,-38.5"/>
<text text-anchor="middle" x="266.5" y="-45.5" font-family="FreeSans" font-size="10.00">COMM::List::getDataAddress</text>
</a>
</g>
</g>
<!-- Node1&#45;&gt;Node4 -->
<g id="edge3" class="edge">
<title>Node1&#45;&gt;Node4</title>
<path fill="none" stroke="midnightblue" d="M159.22,-41.32C167.61,-41.23 176.16,-41.23 184.57,-41.3"/>
<polygon fill="midnightblue" stroke="midnightblue" points="184.71,-44.8 194.76,-41.42 184.8,-37.8 184.71,-44.8"/>
</g>
<!-- Node1&#45;&gt;Node4 -->
<g id="edge4" class="edge">
<title>Node1&#45;&gt;Node4</title>
<path fill="none" stroke="midnightblue" d="M159.22,-54.68C167.61,-54.77 176.16,-54.77 184.57,-54.7"/>
<polygon fill="midnightblue" stroke="midnightblue" points="184.8,-58.2 194.76,-54.58 184.71,-51.2 184.8,-58.2"/>
</g>
<!-- Node5 -->
<g id="node5" class="node">
<title>Node5</title>
<g id="a_node5"><a xlink:href="classCOMM_1_1List.html#a929bb5bdaaa7ce70d872ae0c758c77ae" target="_top" xlink:title="get current member number">
<polygon fill="white" stroke="black" points="214,-0.5 214,-19.5 319,-19.5 319,-0.5 214,-0.5"/>
<text text-anchor="middle" x="266.5" y="-7.5" font-family="FreeSans" font-size="10.00">COMM::List::getSize</text>
</a>
</g>
</g>
<!-- Node1&#45;&gt;Node5 -->
<g id="edge5" class="edge">
<title>Node1&#45;&gt;Node5</title>
<path fill="none" stroke="midnightblue" d="M125.28,-32.92C148.88,-27.13 178.19,-20.93 203.9,-16.25"/>
<polygon fill="midnightblue" stroke="midnightblue" points="204.69,-19.66 213.93,-14.47 203.47,-12.77 204.69,-19.66"/>
</g>
<!-- Node1&#45;&gt;Node5 -->
<g id="edge6" class="edge">
<title>Node1&#45;&gt;Node5</title>
<path fill="none" stroke="midnightblue" d="M159.22,-38.51C184.8,-33.51 211.81,-27.51 232.21,-22.17"/>
<polygon fill="midnightblue" stroke="midnightblue" points="233.2,-25.52 241.93,-19.52 231.37,-18.77 233.2,-25.52"/>
</g>
</g>
</svg>
