<?xml version="1.0" encoding="UTF-8" standalone="no"?>
<!DOCTYPE svg PUBLIC "-//W3C//DTD SVG 1.1//EN"
 "http://www.w3.org/Graphics/SVG/1.1/DTD/svg11.dtd">
<!-- Generated by graphviz version 2.38.0 (20140413.2041)
 -->
<!-- Title: AR::TimeTransformedSymplecticIntegrator::clear Pages: 1 -->
<svg width="313pt" height="154pt"
 viewBox="0.00 0.00 313.00 154.00" xmlns="http://www.w3.org/2000/svg" xmlns:xlink="http://www.w3.org/1999/xlink">
<g id="graph0" class="graph" transform="scale(1 1) rotate(0) translate(4 150)">
<title>AR::TimeTransformedSymplecticIntegrator::clear</title>
<polygon fill="white" stroke="none" points="-4,4 -4,-150 309,-150 309,4 -4,4"/>
<!-- Node1 -->
<g id="node1" class="node"><title>Node1</title>
<polygon fill="#bfbfbf" stroke="black" points="-2.84217e-14,-55 -2.84217e-14,-85 158,-85 158,-55 -2.84217e-14,-55"/>
<text text-anchor="start" x="8" y="-73" font-family="FreeSans" font-size="10.00">AR::TimeTransformedSymplectic</text>
<text text-anchor="middle" x="79" y="-62" font-family="FreeSans" font-size="10.00">Integrator::clear</text>
</g>
<!-- Node2 -->
<g id="node2" class="node"><title>Node2</title>
<g id="a_node2"><a xlink:href="classCOMM_1_1List.html#aceaeddd10f8a05984f25a258a48c2620" target="_top" xlink:title="Clear function. ">
<polygon fill="white" stroke="black" points="203.5,-126.5 203.5,-145.5 295.5,-145.5 295.5,-126.5 203.5,-126.5"/>
<text text-anchor="middle" x="249.5" y="-133.5" font-family="FreeSans" font-size="10.00">COMM::List::clear</text>
</a>
</g>
</g>
<!-- Node1&#45;&gt;Node2 -->
<g id="edge1" class="edge"><title>Node1&#45;&gt;Node2</title>
<path fill="none" stroke="midnightblue" d="M114.977,-85.0108C137.432,-94.5003 167.286,-106.845 194,-117 199.269,-119.003 204.853,-121.043 210.36,-123.007"/>
<polygon fill="midnightblue" stroke="midnightblue" points="209.51,-126.418 220.105,-126.436 211.834,-119.815 209.51,-126.418"/>
</g>
<!-- Node3 -->
<g id="node3" class="node"><title>Node3</title>
<g id="a_node3"><a xlink:href="classCOMM_1_1ParticleGroup.html#affe5e5681cc87ff9c695059f68106c8c" target="_top" xlink:title="Clear function. ">
<polygon fill="white" stroke="black" points="194,-77 194,-107 305,-107 305,-77 194,-77"/>
<text text-anchor="start" x="202" y="-95" font-family="FreeSans" font-size="10.00">COMM::ParticleGroup</text>
<text text-anchor="middle" x="249.5" y="-84" font-family="FreeSans" font-size="10.00">::clear</text>
</a>
</g>
</g>
<!-- Node1&#45;&gt;Node3 -->
<g id="edge2" class="edge"><title>Node1&#45;&gt;Node3</title>
<path fill="none" stroke="midnightblue" d="M158.331,-80.2271C166.885,-81.344 175.52,-82.4715 183.883,-83.5633"/>
<polygon fill="midnightblue" stroke="midnightblue" points="183.555,-87.0501 193.924,-84.8743 184.461,-80.109 183.555,-87.0501"/>
</g>
<!-- Node4 -->
<g id="node4" class="node"><title>Node4</title>
<g id="a_node4"><a xlink:href="classAR_1_1SlowDown.html#a710d1c21a65f80a511a33ef3da325b33" target="_top" xlink:title="clear function ">
<polygon fill="white" stroke="black" points="197,-38.5 197,-57.5 302,-57.5 302,-38.5 197,-38.5"/>
<text text-anchor="middle" x="249.5" y="-45.5" font-family="FreeSans" font-size="10.00">AR::SlowDown::clear</text>
</a>
</g>
</g>
<!-- Node1&#45;&gt;Node4 -->
<g id="edge3" class="edge"><title>Node1&#45;&gt;Node4</title>
<path fill="none" stroke="midnightblue" d="M158.331,-59.7729C167.822,-58.5336 177.414,-57.2813 186.621,-56.0791"/>
<polygon fill="midnightblue" stroke="midnightblue" points="187.365,-59.5118 196.828,-54.7465 186.459,-52.5707 187.365,-59.5118"/>
</g>
<!-- Node5 -->
<g id="node5" class="node"><title>Node5</title>
<g id="a_node5"><a xlink:href="classAR_1_1Profile.html#a848512d98c7ca1339f490523414100b3" target="_top" xlink:title="AR::Profile::clear">
<polygon fill="white" stroke="black" points="206,-0.5 206,-19.5 293,-19.5 293,-0.5 206,-0.5"/>
<text text-anchor="middle" x="249.5" y="-7.5" font-family="FreeSans" font-size="10.00">AR::Profile::clear</text>
</a>
</g>
</g>
<!-- Node1&#45;&gt;Node5 -->
<g id="edge4" class="edge"><title>Node1&#45;&gt;Node5</title>
<path fill="none" stroke="midnightblue" d="M121.657,-54.9076C143.23,-47.1196 170.01,-37.4954 194,-29 199.627,-27.0072 205.587,-24.9128 211.42,-22.8722"/>
<polygon fill="midnightblue" stroke="midnightblue" points="212.748,-26.116 221.036,-19.5159 210.441,-19.507 212.748,-26.116"/>
</g>
</g>
</svg>
