<?xml version="1.0" encoding="UTF-8" standalone="no"?>
<!DOCTYPE svg PUBLIC "-//W3C//DTD SVG 1.1//EN"
 "http://www.w3.org/Graphics/SVG/1.1/DTD/svg11.dtd">
<!-- Generated by graphviz version 2.38.0 (20140413.2041)
 -->
<!-- Title: COMM::BinaryTree::getherBinaryTreeIter Pages: 1 -->
<svg width="329pt" height="39pt"
 viewBox="0.00 0.00 329.00 39.00" xmlns="http://www.w3.org/2000/svg" xmlns:xlink="http://www.w3.org/1999/xlink">
<g id="graph0" class="graph" transform="scale(1 1) rotate(0) translate(4 35)">
<title>COMM::BinaryTree::getherBinaryTreeIter</title>
<polygon fill="white" stroke="none" points="-4,4 -4,-35 325,-35 325,4 -4,4"/>
<!-- Node1 -->
<g id="node1" class="node"><title>Node1</title>
<polygon fill="#bfbfbf" stroke="black" points="0,-0.5 0,-30.5 130,-30.5 130,-0.5 0,-0.5"/>
<text text-anchor="start" x="8" y="-18.5" font-family="FreeSans" font-size="10.00">COMM::BinaryTree::gether</text>
<text text-anchor="middle" x="65" y="-7.5" font-family="FreeSans" font-size="10.00">BinaryTreeIter</text>
</g>
<!-- Node2 -->
<g id="node2" class="node"><title>Node2</title>
<g id="a_node2"><a xlink:href="classH4_1_1ARInformation.html#a621aae6cac384b1897d410fc204e775a" target="_top" xlink:title="Initialize group of particles from a binarytree. ">
<polygon fill="white" stroke="black" points="166,-0.5 166,-30.5 321,-30.5 321,-0.5 166,-0.5"/>
<text text-anchor="start" x="174" y="-18.5" font-family="FreeSans" font-size="10.00">H4::ARInformation::</text>
<text text-anchor="middle" x="243.5" y="-7.5" font-family="FreeSans" font-size="10.00">addParticlesAndCopyBinaryTree</text>
</a>
</g>
</g>
<!-- Node1&#45;&gt;Node2 -->
<g id="edge1" class="edge"><title>Node1&#45;&gt;Node2</title>
<path fill="none" stroke="midnightblue" d="M140.348,-15.5C148.738,-15.5 157.301,-15.5 165.721,-15.5"/>
<polygon fill="midnightblue" stroke="midnightblue" points="140.22,-12.0001 130.22,-15.5 140.22,-19.0001 140.22,-12.0001"/>
</g>
</g>
</svg>
