<?xml version="1.0" encoding="UTF-8" standalone="no"?>
<!DOCTYPE svg PUBLIC "-//W3C//DTD SVG 1.1//EN"
 "http://www.w3.org/Graphics/SVG/1.1/DTD/svg11.dtd">
<!-- Generated by graphviz version 2.38.0 (20140413.2041)
 -->
<!-- Title: AR::TimeTransformedSymplecticIntegrator::restoreIntData Pages: 1 -->
<svg width="336pt" height="88pt"
 viewBox="0.00 0.00 336.00 88.00" xmlns="http://www.w3.org/2000/svg" xmlns:xlink="http://www.w3.org/1999/xlink">
<g id="graph0" class="graph" transform="scale(1 1) rotate(0) translate(4 84)">
<title>AR::TimeTransformedSymplecticIntegrator::restoreIntData</title>
<polygon fill="white" stroke="none" points="-4,4 -4,-84 332,-84 332,4 -4,4"/>
<!-- Node1 -->
<g id="node1" class="node"><title>Node1</title>
<polygon fill="#bfbfbf" stroke="black" points="0,-24.5 0,-54.5 158,-54.5 158,-24.5 0,-24.5"/>
<text text-anchor="start" x="8" y="-42.5" font-family="FreeSans" font-size="10.00">AR::TimeTransformedSymplectic</text>
<text text-anchor="middle" x="79" y="-31.5" font-family="FreeSans" font-size="10.00">Integrator::restoreIntData</text>
</g>
<!-- Node2 -->
<g id="node2" class="node"><title>Node2</title>
<g id="a_node2"><a xlink:href="classCOMM_1_1ParticleGroup.html#aa7e0c949d709205186148cab38e5cd96" target="_top" xlink:title="restore member particle position and velocity ">
<polygon fill="white" stroke="black" points="204.5,-49.5 204.5,-79.5 317.5,-79.5 317.5,-49.5 204.5,-49.5"/>
<text text-anchor="start" x="212.5" y="-67.5" font-family="FreeSans" font-size="10.00">COMM::ParticleGroup</text>
<text text-anchor="middle" x="261" y="-56.5" font-family="FreeSans" font-size="10.00">::restoreParticlePosVel</text>
</a>
</g>
</g>
<!-- Node1&#45;&gt;Node2 -->
<g id="edge1" class="edge"><title>Node1&#45;&gt;Node2</title>
<path fill="none" stroke="midnightblue" d="M158.165,-50.3563C170.2,-52.0278 182.522,-53.7391 194.25,-55.368"/>
<polygon fill="midnightblue" stroke="midnightblue" points="193.995,-58.8661 204.381,-56.7752 194.958,-51.9327 193.995,-58.8661"/>
</g>
<!-- Node3 -->
<g id="node3" class="node"><title>Node3</title>
<g id="a_node3"><a xlink:href="classAR_1_1SlowDown.html#a9a08a4212d82104f92a7b870f5d523fb" target="_top" xlink:title="restore real time and force ratio ">
<polygon fill="white" stroke="black" points="194,-0.5 194,-30.5 328,-30.5 328,-0.5 194,-0.5"/>
<text text-anchor="start" x="202" y="-18.5" font-family="FreeSans" font-size="10.00">AR::SlowDown::restoreSlow</text>
<text text-anchor="middle" x="261" y="-7.5" font-family="FreeSans" font-size="10.00">DownFactorAndTimeReal</text>
</a>
</g>
</g>
<!-- Node1&#45;&gt;Node3 -->
<g id="edge2" class="edge"><title>Node1&#45;&gt;Node3</title>
<path fill="none" stroke="midnightblue" d="M158.165,-29.078C166.597,-27.9538 175.169,-26.8108 183.58,-25.6894"/>
<polygon fill="midnightblue" stroke="midnightblue" points="184.288,-29.126 193.738,-24.3349 183.363,-22.1874 184.288,-29.126"/>
</g>
</g>
</svg>
