<?xml version="1.0" encoding="UTF-8" standalone="no"?>
<!DOCTYPE svg PUBLIC "-//W3C//DTD SVG 1.1//EN"
 "http://www.w3.org/Graphics/SVG/1.1/DTD/svg11.dtd">
<!-- Generated by graphviz version 2.43.0 (0)
 -->
<!-- Title: COMM::List::addMember Pages: 1 -->
<svg width="460pt" height="137pt"
 viewBox="0.00 0.00 460.00 137.00" xmlns="http://www.w3.org/2000/svg" xmlns:xlink="http://www.w3.org/1999/xlink">
<g id="graph0" class="graph" transform="scale(1 1) rotate(0) translate(4 133)">
<title>COMM::List::addMember</title>
<polygon fill="white" stroke="transparent" points="-4,4 -4,-133 456,-133 456,4 -4,4"/>
<!-- Node1 -->
<g id="node1" class="node">
<title>Node1</title>
<g id="a_node1"><a xlink:title="copy one member and its address">
<polygon fill="#bfbfbf" stroke="black" points="328,-55 328,-74 452,-74 452,-55 328,-55"/>
<text text-anchor="middle" x="390" y="-62" font-family="FreeSans" font-size="10.00">COMM::List::addMember</text>
</a>
</g>
</g>
<!-- Node2 -->
<g id="node2" class="node">
<title>Node2</title>
<g id="a_node2"><a xlink:href="classH4_1_1HermiteIntegrator.html#aefaac6ef510ac839a678081a80e69131" target="_top" xlink:title="add groups from lists of particle index">
<polygon fill="white" stroke="black" points="173,-49.5 173,-79.5 283,-79.5 283,-49.5 173,-49.5"/>
<text text-anchor="start" x="181" y="-67.5" font-family="FreeSans" font-size="10.00">H4::HermiteIntegrator</text>
<text text-anchor="middle" x="228" y="-56.5" font-family="FreeSans" font-size="10.00">::addGroups</text>
</a>
</g>
</g>
<!-- Node1&#45;&gt;Node2 -->
<g id="edge1" class="edge">
<title>Node1&#45;&gt;Node2</title>
<path fill="none" stroke="midnightblue" d="M317.54,-64.5C306,-64.5 294.23,-64.5 283.18,-64.5"/>
<polygon fill="midnightblue" stroke="midnightblue" points="317.6,-68 327.6,-64.5 317.6,-61 317.6,-68"/>
</g>
<!-- Node5 -->
<g id="node5" class="node">
<title>Node5</title>
<g id="a_node5"><a xlink:href="classH4_1_1HermiteIntegrator.html#a58a59fd478331237bafbe42b0fbe9d4b" target="_top" xlink:title="break groups">
<polygon fill="white" stroke="black" points="173,-98.5 173,-128.5 283,-128.5 283,-98.5 173,-98.5"/>
<text text-anchor="start" x="181" y="-116.5" font-family="FreeSans" font-size="10.00">H4::HermiteIntegrator</text>
<text text-anchor="middle" x="228" y="-105.5" font-family="FreeSans" font-size="10.00">::breakGroups</text>
</a>
</g>
</g>
<!-- Node1&#45;&gt;Node5 -->
<g id="edge4" class="edge">
<title>Node1&#45;&gt;Node5</title>
<path fill="none" stroke="midnightblue" d="M348.04,-77.04C326.72,-83.57 300.5,-91.6 278.1,-98.46"/>
<polygon fill="midnightblue" stroke="midnightblue" points="349.23,-80.34 357.77,-74.06 347.18,-73.65 349.23,-80.34"/>
</g>
<!-- Node6 -->
<g id="node6" class="node">
<title>Node6</title>
<g id="a_node6"><a xlink:href="classH4_1_1HermiteIntegrator.html#acaf43160d505e983bab7dff3f57150ce" target="_top" xlink:title="Integrate groups.">
<polygon fill="white" stroke="black" points="164,-0.5 164,-30.5 292,-30.5 292,-0.5 164,-0.5"/>
<text text-anchor="start" x="172" y="-18.5" font-family="FreeSans" font-size="10.00">H4::HermiteIntegrator</text>
<text text-anchor="middle" x="228" y="-7.5" font-family="FreeSans" font-size="10.00">::integrateGroupsOneStep</text>
</a>
</g>
</g>
<!-- Node1&#45;&gt;Node6 -->
<g id="edge6" class="edge">
<title>Node1&#45;&gt;Node6</title>
<path fill="none" stroke="midnightblue" d="M348.04,-51.96C326.72,-45.43 300.5,-37.4 278.1,-30.54"/>
<polygon fill="midnightblue" stroke="midnightblue" points="347.18,-55.35 357.77,-54.94 349.23,-48.66 347.18,-55.35"/>
</g>
<!-- Node3 -->
<g id="node3" class="node">
<title>Node3</title>
<g id="a_node3"><a xlink:href="classH4_1_1HermiteIntegrator.html#a4681b656dd42eae01d3d85e66ac55112" target="_top" xlink:title="adjust groups">
<polygon fill="white" stroke="black" points="9,-98.5 9,-128.5 119,-128.5 119,-98.5 9,-98.5"/>
<text text-anchor="start" x="17" y="-116.5" font-family="FreeSans" font-size="10.00">H4::HermiteIntegrator</text>
<text text-anchor="middle" x="64" y="-105.5" font-family="FreeSans" font-size="10.00">::adjustGroups</text>
</a>
</g>
</g>
<!-- Node2&#45;&gt;Node3 -->
<g id="edge2" class="edge">
<title>Node2&#45;&gt;Node3</title>
<path fill="none" stroke="midnightblue" d="M167.12,-82.61C149.89,-87.82 131.3,-93.45 114.76,-98.45"/>
<polygon fill="midnightblue" stroke="midnightblue" points="168.51,-85.85 177.07,-79.6 166.49,-79.15 168.51,-85.85"/>
</g>
<!-- Node4 -->
<g id="node4" class="node">
<title>Node4</title>
<g id="a_node4"><a xlink:href="classH4_1_1HermiteIntegrator.html#aa1916dc7e970885940bd74ed52aa222c" target="_top" xlink:title="Add group based on a configure file.">
<polygon fill="white" stroke="black" points="0,-49.5 0,-79.5 128,-79.5 128,-49.5 0,-49.5"/>
<text text-anchor="start" x="8" y="-67.5" font-family="FreeSans" font-size="10.00">H4::HermiteIntegrator</text>
<text text-anchor="middle" x="64" y="-56.5" font-family="FreeSans" font-size="10.00">::readGroupConfigureAscii</text>
</a>
</g>
</g>
<!-- Node2&#45;&gt;Node4 -->
<g id="edge3" class="edge">
<title>Node2&#45;&gt;Node4</title>
<path fill="none" stroke="midnightblue" d="M162.41,-64.5C151.15,-64.5 139.44,-64.5 128.21,-64.5"/>
<polygon fill="midnightblue" stroke="midnightblue" points="162.61,-68 172.61,-64.5 162.61,-61 162.61,-68"/>
</g>
<!-- Node5&#45;&gt;Node3 -->
<g id="edge5" class="edge">
<title>Node5&#45;&gt;Node3</title>
<path fill="none" stroke="midnightblue" d="M162.36,-113.5C148.07,-113.5 133.07,-113.5 119.25,-113.5"/>
<polygon fill="midnightblue" stroke="midnightblue" points="162.61,-117 172.61,-113.5 162.61,-110 162.61,-117"/>
</g>
</g>
</svg>
