<?xml version="1.0" encoding="UTF-8" standalone="no"?>
<!DOCTYPE svg PUBLIC "-//W3C//DTD SVG 1.1//EN"
 "http://www.w3.org/Graphics/SVG/1.1/DTD/svg11.dtd">
<!-- Generated by graphviz version 2.38.0 (20140413.2041)
 -->
<!-- Title: AR::TimeTransformedSymplecticIntegrator::writeBackParticlesOriginFrame Pages: 1 -->
<svg width="365pt" height="235pt"
 viewBox="0.00 0.00 365.00 235.00" xmlns="http://www.w3.org/2000/svg" xmlns:xlink="http://www.w3.org/1999/xlink">
<g id="graph0" class="graph" transform="scale(1 1) rotate(0) translate(4 231)">
<title>AR::TimeTransformedSymplecticIntegrator::writeBackParticlesOriginFrame</title>
<polygon fill="white" stroke="none" points="-4,4 -4,-231 361,-231 361,4 -4,4"/>
<!-- Node1 -->
<g id="node1" class="node"><title>Node1</title>
<polygon fill="#bfbfbf" stroke="black" points="0,-98.5 0,-128.5 196,-128.5 196,-98.5 0,-98.5"/>
<text text-anchor="start" x="8" y="-116.5" font-family="FreeSans" font-size="10.00">AR::TimeTransformedSymplectic</text>
<text text-anchor="middle" x="98" y="-105.5" font-family="FreeSans" font-size="10.00">Integrator::writeBackParticlesOriginFrame</text>
</g>
<!-- Node2 -->
<g id="node2" class="node"><title>Node2</title>
<g id="a_node2"><a xlink:href="classCOMM_1_1List.html#a53cc90f6633ba9fed844442fc5b36b47" target="_top" xlink:title="COMM::List\&lt; Tparticle\l \&gt;::getMode">
<polygon fill="white" stroke="black" points="238,-196.5 238,-226.5 351,-226.5 351,-196.5 238,-196.5"/>
<text text-anchor="start" x="246" y="-214.5" font-family="FreeSans" font-size="10.00">COMM::List&lt; Tparticle</text>
<text text-anchor="middle" x="294.5" y="-203.5" font-family="FreeSans" font-size="10.00"> &gt;::getMode</text>
</a>
</g>
</g>
<!-- Node1&#45;&gt;Node2 -->
<g id="edge1" class="edge"><title>Node1&#45;&gt;Node2</title>
<path fill="none" stroke="midnightblue" d="M123.961,-128.731C150.297,-144.48 193.269,-169.271 232,-187.5 235.573,-189.182 239.298,-190.845 243.069,-192.465"/>
<polygon fill="midnightblue" stroke="midnightblue" points="241.904,-195.771 252.48,-196.388 244.597,-189.31 241.904,-195.771"/>
</g>
<!-- Node3 -->
<g id="node3" class="node"><title>Node3</title>
<g id="a_node3"><a xlink:href="classCOMM_1_1List.html#a432ae1abc33765666f627149c0982c3a" target="_top" xlink:title="return member original address array ">
<polygon fill="white" stroke="black" points="232,-147.5 232,-177.5 357,-177.5 357,-147.5 232,-147.5"/>
<text text-anchor="start" x="240" y="-165.5" font-family="FreeSans" font-size="10.00">COMM::List&lt; Tparticle</text>
<text text-anchor="middle" x="294.5" y="-154.5" font-family="FreeSans" font-size="10.00"> &gt;::getOriginAddressArray</text>
</a>
</g>
</g>
<!-- Node1&#45;&gt;Node3 -->
<g id="edge2" class="edge"><title>Node1&#45;&gt;Node3</title>
<path fill="none" stroke="midnightblue" d="M158.678,-128.535C179.308,-133.732 202.603,-139.601 223.955,-144.98"/>
<polygon fill="midnightblue" stroke="midnightblue" points="223.383,-148.445 233.935,-147.494 225.093,-141.657 223.383,-148.445"/>
</g>
<!-- Node4 -->
<g id="node4" class="node"><title>Node4</title>
<g id="a_node4"><a xlink:href="classCOMM_1_1List.html#a125e4f93ee02b677f8377bd541f2105d" target="_top" xlink:title="return member data array address ">
<polygon fill="white" stroke="black" points="238,-98.5 238,-128.5 351,-128.5 351,-98.5 238,-98.5"/>
<text text-anchor="start" x="246" y="-116.5" font-family="FreeSans" font-size="10.00">COMM::List&lt; Tparticle</text>
<text text-anchor="middle" x="294.5" y="-105.5" font-family="FreeSans" font-size="10.00"> &gt;::getDataAddress</text>
</a>
</g>
</g>
<!-- Node1&#45;&gt;Node4 -->
<g id="edge3" class="edge"><title>Node1&#45;&gt;Node4</title>
<path fill="none" stroke="midnightblue" d="M196.25,-113.5C206.823,-113.5 217.396,-113.5 227.469,-113.5"/>
<polygon fill="midnightblue" stroke="midnightblue" points="227.764,-117 237.764,-113.5 227.764,-110 227.764,-117"/>
</g>
<!-- Node5 -->
<g id="node5" class="node"><title>Node5</title>
<g id="a_node5"><a xlink:href="classCOMM_1_1ParticleGroup.html#a04903afdcfee09b36b30600a2683c99e" target="_top" xlink:title="return true if the system is the in their origin frame ">
<polygon fill="white" stroke="black" points="239,-49.5 239,-79.5 350,-79.5 350,-49.5 239,-49.5"/>
<text text-anchor="start" x="247" y="-67.5" font-family="FreeSans" font-size="10.00">COMM::ParticleGroup</text>
<text text-anchor="middle" x="294.5" y="-56.5" font-family="FreeSans" font-size="10.00">::isOriginFrame</text>
</a>
</g>
</g>
<!-- Node1&#45;&gt;Node5 -->
<g id="edge4" class="edge"><title>Node1&#45;&gt;Node5</title>
<path fill="none" stroke="midnightblue" d="M158.678,-98.4654C180.954,-92.8535 206.337,-86.4587 229.026,-80.7429"/>
<polygon fill="midnightblue" stroke="midnightblue" points="230.06,-84.0917 238.902,-78.2548 228.35,-77.3038 230.06,-84.0917"/>
</g>
<!-- Node6 -->
<g id="node6" class="node"><title>Node6</title>
<g id="a_node6"><a xlink:href="classCOMM_1_1List.html#af1c92acd831f62c52f3385a71d6403e7" target="_top" xlink:title="get current member number ">
<polygon fill="white" stroke="black" points="238,-0.5 238,-30.5 351,-30.5 351,-0.5 238,-0.5"/>
<text text-anchor="start" x="246" y="-18.5" font-family="FreeSans" font-size="10.00">COMM::List&lt; Tparticle</text>
<text text-anchor="middle" x="294.5" y="-7.5" font-family="FreeSans" font-size="10.00"> &gt;::getSize</text>
</a>
</g>
</g>
<!-- Node1&#45;&gt;Node6 -->
<g id="edge5" class="edge"><title>Node1&#45;&gt;Node6</title>
<path fill="none" stroke="midnightblue" d="M124.532,-98.3288C150.974,-82.8941 193.705,-58.7176 232,-40.5 236.264,-38.4715 240.738,-36.452 245.246,-34.4906"/>
<polygon fill="midnightblue" stroke="midnightblue" points="246.656,-37.6944 254.491,-30.5617 243.918,-31.2521 246.656,-37.6944"/>
</g>
</g>
</svg>
