<?xml version="1.0" encoding="UTF-8" standalone="no"?>
<!DOCTYPE svg PUBLIC "-//W3C//DTD SVG 1.1//EN"
 "http://www.w3.org/Graphics/SVG/1.1/DTD/svg11.dtd">
<!-- Generated by graphviz version 2.43.0 (0)
 -->
<!-- Title: AR::TimeTransformedSymplecticIntegrator::printColumn Pages: 1 -->
<svg width="340pt" height="154pt"
 viewBox="0.00 0.00 340.00 154.00" xmlns="http://www.w3.org/2000/svg" xmlns:xlink="http://www.w3.org/1999/xlink">
<g id="graph0" class="graph" transform="scale(1 1) rotate(0) translate(4 150)">
<title>AR::TimeTransformedSymplecticIntegrator::printColumn</title>
<polygon fill="white" stroke="transparent" points="-4,4 -4,-150 336,-150 336,4 -4,4"/>
<!-- Node1 -->
<g id="node1" class="node">
<title>Node1</title>
<g id="a_node1"><a xlink:title="print data of class members using column style">
<polygon fill="#bfbfbf" stroke="black" points="0,-61 0,-91 159,-91 159,-61 0,-61"/>
<text text-anchor="start" x="8" y="-79" font-family="FreeSans" font-size="10.00">AR::TimeTransformedSymplectic</text>
<text text-anchor="middle" x="79.5" y="-68" font-family="FreeSans" font-size="10.00">Integrator::printColumn</text>
</a>
</g>
</g>
<!-- Node2 -->
<g id="node2" class="node">
<title>Node2</title>
<g id="a_node2"><a xlink:href="classCOMM_1_1List.html#a929bb5bdaaa7ce70d872ae0c758c77ae" target="_top" xlink:title="get current member number">
<polygon fill="white" stroke="black" points="211,-126.5 211,-145.5 316,-145.5 316,-126.5 211,-126.5"/>
<text text-anchor="middle" x="263.5" y="-133.5" font-family="FreeSans" font-size="10.00">COMM::List::getSize</text>
</a>
</g>
</g>
<!-- Node1&#45;&gt;Node2 -->
<g id="edge1" class="edge">
<title>Node1&#45;&gt;Node2</title>
<path fill="none" stroke="midnightblue" d="M120.28,-91.01C142.19,-99.09 169.96,-109 195,-117 202.02,-119.24 209.49,-121.48 216.8,-123.6"/>
<polygon fill="midnightblue" stroke="midnightblue" points="216.05,-127.03 226.63,-126.4 217.97,-120.3 216.05,-127.03"/>
</g>
<!-- Node3 -->
<g id="node3" class="node">
<title>Node3</title>
<g id="a_node3"><a xlink:href="classAR_1_1Profile.html#a40692f5fa715489d67346f2a3942f1b4" target="_top" xlink:title="print data of class members using column style">
<polygon fill="white" stroke="black" points="204.5,-88.5 204.5,-107.5 322.5,-107.5 322.5,-88.5 204.5,-88.5"/>
<text text-anchor="middle" x="263.5" y="-95.5" font-family="FreeSans" font-size="10.00">AR::Profile::printColumn</text>
</a>
</g>
</g>
<!-- Node1&#45;&gt;Node3 -->
<g id="edge2" class="edge">
<title>Node1&#45;&gt;Node3</title>
<path fill="none" stroke="midnightblue" d="M159,-85.49C170.76,-86.91 182.8,-88.37 194.32,-89.76"/>
<polygon fill="midnightblue" stroke="midnightblue" points="193.94,-93.24 204.29,-90.96 194.78,-86.29 193.94,-93.24"/>
</g>
<!-- Node4 -->
<g id="node4" class="node">
<title>Node4</title>
<g id="a_node4"><a xlink:href="classCOMM_1_1ParticleGroup.html#a785c959cd78824f9b7801a6529f96ac6" target="_top" xlink:title="print data of class members using column style">
<polygon fill="white" stroke="black" points="208,-39 208,-69 319,-69 319,-39 208,-39"/>
<text text-anchor="start" x="216" y="-57" font-family="FreeSans" font-size="10.00">COMM::ParticleGroup</text>
<text text-anchor="middle" x="263.5" y="-46" font-family="FreeSans" font-size="10.00">::printColumn</text>
</a>
</g>
</g>
<!-- Node1&#45;&gt;Node4 -->
<g id="edge3" class="edge">
<title>Node1&#45;&gt;Node4</title>
<path fill="none" stroke="midnightblue" d="M159,-66.51C171.86,-64.96 185.05,-63.36 197.53,-61.85"/>
<polygon fill="midnightblue" stroke="midnightblue" points="198.31,-65.28 207.82,-60.61 197.47,-58.34 198.31,-65.28"/>
</g>
<!-- Node5 -->
<g id="node5" class="node">
<title>Node5</title>
<g id="a_node5"><a xlink:href="classAR_1_1SlowDown.html#aad85683de34ff2da23215cf26ff94f9b" target="_top" xlink:title="print data of class members using column style">
<polygon fill="white" stroke="black" points="195,-0.5 195,-19.5 332,-19.5 332,-0.5 195,-0.5"/>
<text text-anchor="middle" x="263.5" y="-7.5" font-family="FreeSans" font-size="10.00">AR::SlowDown::printColumn</text>
</a>
</g>
</g>
<!-- Node1&#45;&gt;Node5 -->
<g id="edge4" class="edge">
<title>Node1&#45;&gt;Node5</title>
<path fill="none" stroke="midnightblue" d="M115.51,-60.94C138.01,-51.51 167.99,-39.4 195,-30 202.47,-27.4 210.47,-24.84 218.26,-22.46"/>
<polygon fill="midnightblue" stroke="midnightblue" points="219.39,-25.78 227.96,-19.56 217.38,-19.07 219.39,-25.78"/>
</g>
</g>
</svg>
