<?xml version="1.0" encoding="UTF-8" standalone="no"?>
<!DOCTYPE svg PUBLIC "-//W3C//DTD SVG 1.1//EN"
 "http://www.w3.org/Graphics/SVG/1.1/DTD/svg11.dtd">
<!-- Generated by graphviz version 2.38.0 (20140413.2041)
 -->
<!-- Title: H4::HermiteIntegrator::reserveIntegratorMem Pages: 1 -->
<svg width="478pt" height="542pt"
 viewBox="0.00 0.00 478.00 542.00" xmlns="http://www.w3.org/2000/svg" xmlns:xlink="http://www.w3.org/1999/xlink">
<g id="graph0" class="graph" transform="scale(1 1) rotate(0) translate(4 538)">
<title>H4::HermiteIntegrator::reserveIntegratorMem</title>
<polygon fill="white" stroke="none" points="-4,4 -4,-538 474,-538 474,4 -4,4"/>
<!-- Node1 -->
<g id="node1" class="node"><title>Node1</title>
<polygon fill="#bfbfbf" stroke="black" points="0,-295.5 0,-325.5 115,-325.5 115,-295.5 0,-295.5"/>
<text text-anchor="start" x="8" y="-313.5" font-family="FreeSans" font-size="10.00">H4::HermiteIntegrator</text>
<text text-anchor="middle" x="57.5" y="-302.5" font-family="FreeSans" font-size="10.00">::reserveIntegratorMem</text>
</g>
<!-- Node2 -->
<g id="node2" class="node"><title>Node2</title>
<g id="a_node2"><a xlink:href="classCOMM_1_1List.html#af3b49aeea643123fe2428af456c3fc77" target="_top" xlink:title="Get maximum member number allow to store. ">
<polygon fill="white" stroke="black" points="164.5,-503.5 164.5,-533.5 277.5,-533.5 277.5,-503.5 164.5,-503.5"/>
<text text-anchor="start" x="172.5" y="-521.5" font-family="FreeSans" font-size="10.00">COMM::List&lt; Tparticle</text>
<text text-anchor="middle" x="221" y="-510.5" font-family="FreeSans" font-size="10.00"> &gt;::getSizeMax</text>
</a>
</g>
</g>
<!-- Node1&#45;&gt;Node2 -->
<g id="edge1" class="edge"><title>Node1&#45;&gt;Node2</title>
<path fill="none" stroke="midnightblue" d="M63.441,-325.653C73.5313,-359.313 99.9823,-439.283 151,-484.5 158.36,-491.023 167.554,-495.885 176.808,-499.742"/>
<polygon fill="midnightblue" stroke="midnightblue" points="175.808,-503.107 186.398,-503.424 178.318,-496.572 175.808,-503.107"/>
</g>
<!-- Node1&#45;&gt;Node2 -->
<g id="edge2" class="edge"><title>Node1&#45;&gt;Node2</title>
<path fill="none" stroke="midnightblue" d="M61.0226,-325.591C68.7758,-361.972 95.187,-453.033 151,-502.5 152.502,-503.831 154.08,-505.093 155.719,-506.287"/>
<polygon fill="midnightblue" stroke="midnightblue" points="154.025,-509.356 164.358,-511.699 157.742,-503.424 154.025,-509.356"/>
</g>
<!-- Node3 -->
<g id="node3" class="node"><title>Node3</title>
<g id="a_node3"><a xlink:href="classCOMM_1_1List.html#a10c70f9a45d06c2589898cbaf1e4fbf8" target="_top" xlink:title="set mode ">
<polygon fill="white" stroke="black" points="167,-465 167,-484 275,-484 275,-465 167,-465"/>
<text text-anchor="middle" x="221" y="-472" font-family="FreeSans" font-size="10.00">COMM::List::setMode</text>
</a>
</g>
</g>
<!-- Node1&#45;&gt;Node3 -->
<g id="edge3" class="edge"><title>Node1&#45;&gt;Node3</title>
<path fill="none" stroke="midnightblue" d="M63.9474,-325.842C75.3036,-355.567 104.392,-421.1 151,-455.5 153.649,-457.455 156.489,-459.209 159.452,-460.783"/>
<polygon fill="midnightblue" stroke="midnightblue" points="158.093,-464.01 168.643,-464.983 161.002,-457.643 158.093,-464.01"/>
</g>
<!-- Node4 -->
<g id="node4" class="node"><title>Node4</title>
<g id="a_node4"><a xlink:href="classCOMM_1_1List.html#a7f125554959409d40217deb7402c0de9" target="_top" xlink:title="Memory allocation for storing members. ">
<polygon fill="white" stroke="black" points="159,-427 159,-446 283,-446 283,-427 159,-427"/>
<text text-anchor="middle" x="221" y="-434" font-family="FreeSans" font-size="10.00">COMM::List::reserveMem</text>
</a>
</g>
</g>
<!-- Node1&#45;&gt;Node4 -->
<g id="edge4" class="edge"><title>Node1&#45;&gt;Node4</title>
<path fill="none" stroke="midnightblue" d="M67.5069,-325.786C82.0644,-349.137 113.007,-393.504 151,-417.5 154.332,-419.605 157.898,-421.479 161.588,-423.149"/>
<polygon fill="midnightblue" stroke="midnightblue" points="160.37,-426.431 170.955,-426.89 162.967,-419.931 160.37,-426.431"/>
</g>
<!-- Node5 -->
<g id="node5" class="node"><title>Node5</title>
<g id="a_node5"><a xlink:href="classCOMM_1_1List.html#a125e4f93ee02b677f8377bd541f2105d" target="_top" xlink:title="return member data array address ">
<polygon fill="white" stroke="black" points="151,-389 151,-408 291,-408 291,-389 151,-389"/>
<text text-anchor="middle" x="221" y="-396" font-family="FreeSans" font-size="10.00">COMM::List::getDataAddress</text>
</a>
</g>
</g>
<!-- Node1&#45;&gt;Node5 -->
<g id="edge5" class="edge"><title>Node1&#45;&gt;Node5</title>
<path fill="none" stroke="midnightblue" d="M83.5099,-325.634C101.223,-339.253 126.162,-358.355 151,-370.5 164.787,-377.242 181.332,-381.901 194.765,-385.929"/>
<polygon fill="midnightblue" stroke="midnightblue" points="193.745,-389.276 204.333,-388.909 195.827,-382.593 193.745,-389.276"/>
</g>
<!-- Node1&#45;&gt;Node5 -->
<g id="edge10" class="edge"><title>Node1&#45;&gt;Node5</title>
<path fill="none" stroke="midnightblue" d="M68.4762,-325.619C83.1388,-342.117 112.039,-367.258 142.843,-384.22"/>
<polygon fill="midnightblue" stroke="midnightblue" points="141.523,-387.478 152.009,-388.988 144.753,-381.268 141.523,-387.478"/>
</g>
<!-- Node6 -->
<g id="node6" class="node"><title>Node6</title>
<g id="a_node6"><a xlink:href="classH4_1_1BlockTimeStep4th.html#a2ce3db7b624e883bece0a0ddc83bc8bc" target="_top" xlink:title="Calculate 2nd order block time step. ">
<polygon fill="white" stroke="black" points="164.5,-339.5 164.5,-369.5 277.5,-369.5 277.5,-339.5 164.5,-339.5"/>
<text text-anchor="start" x="172.5" y="-357.5" font-family="FreeSans" font-size="10.00">H4::BlockTimeStep4th</text>
<text text-anchor="middle" x="221" y="-346.5" font-family="FreeSans" font-size="10.00">::calcBlockDt2nd</text>
</a>
</g>
</g>
<!-- Node1&#45;&gt;Node6 -->
<g id="edge6" class="edge"><title>Node1&#45;&gt;Node6</title>
<path fill="none" stroke="midnightblue" d="M113.627,-325.519C126.936,-329.145 141.281,-333.053 154.996,-336.79"/>
<polygon fill="midnightblue" stroke="midnightblue" points="154.279,-340.222 164.847,-339.474 156.119,-333.468 154.279,-340.222"/>
</g>
<!-- Node8 -->
<g id="node8" class="node"><title>Node8</title>
<g id="a_node8"><a xlink:href="classCOMM_1_1List.html#af1c92acd831f62c52f3385a71d6403e7" target="_top" xlink:title="get current member number ">
<polygon fill="white" stroke="black" points="169,-301 169,-320 273,-320 273,-301 169,-301"/>
<text text-anchor="middle" x="221" y="-308" font-family="FreeSans" font-size="10.00">COMM::List::getSize</text>
</a>
</g>
</g>
<!-- Node1&#45;&gt;Node8 -->
<g id="edge8" class="edge"><title>Node1&#45;&gt;Node8</title>
<path fill="none" stroke="midnightblue" d="M115.439,-304.018C129.47,-303.693 144.554,-303.664 158.778,-303.929"/>
<polygon fill="midnightblue" stroke="midnightblue" points="158.874,-307.432 168.956,-304.174 159.043,-300.434 158.874,-307.432"/>
</g>
<!-- Node1&#45;&gt;Node8 -->
<g id="edge9" class="edge"><title>Node1&#45;&gt;Node8</title>
<path fill="none" stroke="midnightblue" d="M115.439,-316.982C129.47,-317.307 144.554,-317.336 158.778,-317.071"/>
<polygon fill="midnightblue" stroke="midnightblue" points="159.043,-320.566 168.956,-316.826 158.874,-313.568 159.043,-320.566"/>
</g>
<!-- Node9 -->
<g id="node9" class="node"><title>Node9</title>
<g id="a_node9"><a xlink:href="classH4_1_1BlockTimeStep4th.html#ab1f08407cdb06b16cf8f6316a1524394" target="_top" xlink:title="Calculate 4th order block time step. ">
<polygon fill="white" stroke="black" points="164.5,-251.5 164.5,-281.5 277.5,-281.5 277.5,-251.5 164.5,-251.5"/>
<text text-anchor="start" x="172.5" y="-269.5" font-family="FreeSans" font-size="10.00">H4::BlockTimeStep4th</text>
<text text-anchor="middle" x="221" y="-258.5" font-family="FreeSans" font-size="10.00">::calcBlockDt4th</text>
</a>
</g>
</g>
<!-- Node1&#45;&gt;Node9 -->
<g id="edge11" class="edge"><title>Node1&#45;&gt;Node9</title>
<path fill="none" stroke="midnightblue" d="M113.627,-295.481C126.936,-291.855 141.281,-287.947 154.996,-284.21"/>
<polygon fill="midnightblue" stroke="midnightblue" points="156.119,-287.532 164.847,-281.526 154.279,-280.778 156.119,-287.532"/>
</g>
<!-- Node11 -->
<g id="node11" class="node"><title>Node11</title>
<g id="a_node11"><a xlink:href="classCOMM_1_1List.html#a0f3dd09ceff0ce9b3ffd15f48a9ea9c4" target="_top" xlink:title="increase size without initialization ">
<polygon fill="white" stroke="black" points="327,-194 327,-213 470,-213 470,-194 327,-194"/>
<text text-anchor="middle" x="398.5" y="-201" font-family="FreeSans" font-size="10.00">COMM::List::resizeNoInitialize</text>
</a>
</g>
</g>
<!-- Node1&#45;&gt;Node11 -->
<g id="edge13" class="edge"><title>Node1&#45;&gt;Node11</title>
<path fill="none" stroke="midnightblue" d="M66.1495,-295.136C79.4555,-270.374 109.465,-222.497 151,-203.5 214.484,-174.463 297.15,-182.431 348.776,-192.035"/>
<polygon fill="midnightblue" stroke="midnightblue" points="348.187,-195.486 358.672,-193.967 349.528,-188.615 348.187,-195.486"/>
</g>
<!-- Node12 -->
<g id="node12" class="node"><title>Node12</title>
<g id="a_node12"><a xlink:href="classCOMM_1_1List.html#adeefdc2865fe56e2413b2cada9772a5e" target="_top" xlink:title="copy one member and its address ">
<polygon fill="white" stroke="black" points="337.5,-55 337.5,-74 459.5,-74 459.5,-55 337.5,-55"/>
<text text-anchor="middle" x="398.5" y="-62" font-family="FreeSans" font-size="10.00">COMM::List::addMember</text>
</a>
</g>
</g>
<!-- Node1&#45;&gt;Node12 -->
<g id="edge14" class="edge"><title>Node1&#45;&gt;Node12</title>
<path fill="none" stroke="midnightblue" d="M61.6868,-295.256C69.8768,-259.997 95.0661,-172.409 151,-127.5 158.725,-121.298 276.711,-92.8417 346.603,-76.3733"/>
<polygon fill="midnightblue" stroke="midnightblue" points="347.614,-79.731 356.547,-74.0345 346.012,-72.917 347.614,-79.731"/>
</g>
<!-- Node13 -->
<g id="node13" class="node"><title>Node13</title>
<g id="a_node13"><a xlink:href="classH4_1_1ForceH4.html#aa41d4fe2703c740c1a8314f67885b3e1" target="_top" xlink:title="clear function ">
<polygon fill="white" stroke="black" points="173.5,-137 173.5,-156 268.5,-156 268.5,-137 173.5,-137"/>
<text text-anchor="middle" x="221" y="-144" font-family="FreeSans" font-size="10.00">H4::ForceH4::clear</text>
</a>
</g>
</g>
<!-- Node1&#45;&gt;Node13 -->
<g id="edge15" class="edge"><title>Node1&#45;&gt;Node13</title>
<path fill="none" stroke="midnightblue" d="M64.6735,-295.062C76.8898,-266.415 106.842,-204.83 151,-170.5 156.382,-166.316 162.546,-162.831 168.926,-159.935"/>
<polygon fill="midnightblue" stroke="midnightblue" points="170.414,-163.109 178.362,-156.103 167.78,-156.623 170.414,-163.109"/>
</g>
<!-- Node14 -->
<g id="node14" class="node"><title>Node14</title>
<g id="a_node14"><a xlink:href="classH4_1_1Neighbor.html#afe89ca65c2ced4c9e36ccf027bc4ff81" target="_top" xlink:title="reset neighbor information ">
<polygon fill="white" stroke="black" points="153.5,-213 153.5,-232 288.5,-232 288.5,-213 153.5,-213"/>
<text text-anchor="middle" x="221" y="-220" font-family="FreeSans" font-size="10.00">H4::Neighbor::resetNeighbor</text>
</a>
</g>
</g>
<!-- Node1&#45;&gt;Node14 -->
<g id="edge16" class="edge"><title>Node1&#45;&gt;Node14</title>
<path fill="none" stroke="midnightblue" d="M75.3697,-295.219C93.0524,-279.927 122.218,-256.689 151,-242.5 156.579,-239.749 162.604,-237.312 168.688,-235.169"/>
<polygon fill="midnightblue" stroke="midnightblue" points="169.827,-238.479 178.243,-232.042 167.65,-231.826 169.827,-238.479"/>
</g>
<!-- Node15 -->
<g id="node15" class="node"><title>Node15</title>
<g id="a_node15"><a xlink:href="classH4_1_1Neighbor.html#afe801875b722e5c7e4f5768732a2198e" target="_top" xlink:title="check and add neighbor of single ">
<polygon fill="white" stroke="black" points="152.5,-0.5 152.5,-30.5 289.5,-30.5 289.5,-0.5 152.5,-0.5"/>
<text text-anchor="start" x="160.5" y="-18.5" font-family="FreeSans" font-size="10.00">H4::Neighbor::checkAndAdd</text>
<text text-anchor="middle" x="221" y="-7.5" font-family="FreeSans" font-size="10.00">NeighborSingle</text>
</a>
</g>
</g>
<!-- Node1&#45;&gt;Node15 -->
<g id="edge18" class="edge"><title>Node1&#45;&gt;Node15</title>
<path fill="none" stroke="midnightblue" d="M59.2141,-295.218C62.1608,-249.752 77.0429,-113.888 151,-39.5 152.062,-38.4319 153.174,-37.4113 154.329,-36.436"/>
<polygon fill="midnightblue" stroke="midnightblue" points="156.373,-39.2771 162.502,-30.6351 152.321,-33.5687 156.373,-39.2771"/>
</g>
<!-- Node16 -->
<g id="node16" class="node"><title>Node16</title>
<g id="a_node16"><a xlink:href="classH4_1_1Neighbor.html#a40356c84992c14e25386c81af4fce181" target="_top" xlink:title="check and add neighbor of group ">
<polygon fill="white" stroke="black" points="152.5,-49.5 152.5,-79.5 289.5,-79.5 289.5,-49.5 152.5,-49.5"/>
<text text-anchor="start" x="160.5" y="-67.5" font-family="FreeSans" font-size="10.00">H4::Neighbor::checkAndAdd</text>
<text text-anchor="middle" x="221" y="-56.5" font-family="FreeSans" font-size="10.00">NeighborGroup</text>
</a>
</g>
</g>
<!-- Node1&#45;&gt;Node16 -->
<g id="edge20" class="edge"><title>Node1&#45;&gt;Node16</title>
<path fill="none" stroke="midnightblue" d="M61.0295,-295.258C68.1883,-256.636 92.0297,-153.796 151,-94.5 154.648,-90.8314 158.82,-87.5798 163.265,-84.7041"/>
<polygon fill="midnightblue" stroke="midnightblue" points="165.164,-87.649 172.084,-79.6263 161.672,-81.5826 165.164,-87.649"/>
</g>
<!-- Node7 -->
<g id="node7" class="node"><title>Node7</title>
<g id="a_node7"><a xlink:href="classH4_1_1TimeStep4th.html#a801c0279e8b653bf4a6cb1278c4844be" target="_top" xlink:title="calculate 2nd order time step ">
<polygon fill="white" stroke="black" points="330,-345 330,-364 467,-364 467,-345 330,-345"/>
<text text-anchor="middle" x="398.5" y="-352" font-family="FreeSans" font-size="10.00">H4::TimeStep4th::calcDt2nd</text>
</a>
</g>
</g>
<!-- Node6&#45;&gt;Node7 -->
<g id="edge7" class="edge"><title>Node6&#45;&gt;Node7</title>
<path fill="none" stroke="midnightblue" d="M277.529,-354.5C290.863,-354.5 305.349,-354.5 319.493,-354.5"/>
<polygon fill="midnightblue" stroke="midnightblue" points="319.71,-358 329.71,-354.5 319.71,-351 319.71,-358"/>
</g>
<!-- Node10 -->
<g id="node10" class="node"><title>Node10</title>
<g id="a_node10"><a xlink:href="classH4_1_1TimeStep4th.html#abacb9d9ef263ff2ab049ea9538bb78cb" target="_top" xlink:title="calculate 4th order time step ">
<polygon fill="white" stroke="black" points="331.5,-257 331.5,-276 465.5,-276 465.5,-257 331.5,-257"/>
<text text-anchor="middle" x="398.5" y="-264" font-family="FreeSans" font-size="10.00">H4::TimeStep4th::calcDt4th</text>
</a>
</g>
</g>
<!-- Node9&#45;&gt;Node10 -->
<g id="edge12" class="edge"><title>Node9&#45;&gt;Node10</title>
<path fill="none" stroke="midnightblue" d="M277.529,-266.5C291.4,-266.5 306.518,-266.5 321.201,-266.5"/>
<polygon fill="midnightblue" stroke="midnightblue" points="321.276,-270 331.276,-266.5 321.276,-263 321.276,-270"/>
</g>
<!-- Node14&#45;&gt;Node11 -->
<g id="edge17" class="edge"><title>Node14&#45;&gt;Node11</title>
<path fill="none" stroke="midnightblue" d="M288.599,-215.29C297.785,-214.295 307.301,-213.265 316.708,-212.247"/>
<polygon fill="midnightblue" stroke="midnightblue" points="317.289,-215.704 326.854,-211.148 316.535,-208.745 317.289,-215.704"/>
</g>
<!-- Node15&#45;&gt;Node12 -->
<g id="edge19" class="edge"><title>Node15&#45;&gt;Node12</title>
<path fill="none" stroke="midnightblue" d="M276.088,-30.6014C301.027,-37.5646 330.243,-45.7216 353.765,-52.2889"/>
<polygon fill="midnightblue" stroke="midnightblue" points="352.895,-55.6799 363.468,-54.9981 354.777,-48.9378 352.895,-55.6799"/>
</g>
<!-- Node16&#45;&gt;Node12 -->
<g id="edge21" class="edge"><title>Node16&#45;&gt;Node12</title>
<path fill="none" stroke="midnightblue" d="M289.602,-64.5C301.898,-64.5 314.753,-64.5 327.127,-64.5"/>
<polygon fill="midnightblue" stroke="midnightblue" points="327.385,-68.0001 337.385,-64.5 327.385,-61.0001 327.385,-68.0001"/>
</g>
</g>
</svg>
