<?xml version="1.0" encoding="UTF-8" standalone="no"?>
<!DOCTYPE svg PUBLIC "-//W3C//DTD SVG 1.1//EN"
 "http://www.w3.org/Graphics/SVG/1.1/DTD/svg11.dtd">
<!-- Generated by graphviz version 2.38.0 (20140413.2041)
 -->
<!-- Title: H4::HermiteIntegrator::integrateGroupsOneStep Pages: 1 -->
<svg width="285pt" height="127pt"
 viewBox="0.00 0.00 285.00 126.50" xmlns="http://www.w3.org/2000/svg" xmlns:xlink="http://www.w3.org/1999/xlink">
<g id="graph0" class="graph" transform="scale(1 1) rotate(0) translate(4 122.5)">
<title>H4::HermiteIntegrator::integrateGroupsOneStep</title>
<polygon fill="white" stroke="none" points="-4,4 -4,-122.5 281,-122.5 281,4 -4,4"/>
<!-- Node1 -->
<g id="node1" class="node"><title>Node1</title>
<polygon fill="#bfbfbf" stroke="black" points="0,-39 0,-69 128,-69 128,-39 0,-39"/>
<text text-anchor="start" x="8" y="-57" font-family="FreeSans" font-size="10.00">H4::HermiteIntegrator</text>
<text text-anchor="middle" x="64" y="-46" font-family="FreeSans" font-size="10.00">::integrateGroupsOneStep</text>
</g>
<!-- Node2 -->
<g id="node2" class="node"><title>Node2</title>
<g id="a_node2"><a xlink:href="classH4_1_1HermiteManager.html#ad5ab496b530db1dfab24bebc39fabe8e" target="_top" xlink:title="time step calculator ">
<polygon fill="white" stroke="black" points="168.5,-88 168.5,-118 272.5,-118 272.5,-88 168.5,-88"/>
<text text-anchor="start" x="176.5" y="-106" font-family="FreeSans" font-size="10.00">H4::HermiteManager</text>
<text text-anchor="middle" x="220.5" y="-95" font-family="FreeSans" font-size="10.00">::checkParams</text>
</a>
</g>
</g>
<!-- Node1&#45;&gt;Node2 -->
<g id="edge1" class="edge"><title>Node1&#45;&gt;Node2</title>
<path fill="none" stroke="midnightblue" d="M112.616,-69.1014C128.255,-74.0615 145.805,-79.6274 162.092,-84.7929"/>
<polygon fill="midnightblue" stroke="midnightblue" points="161.451,-88.2615 172.041,-87.9484 163.567,-81.589 161.451,-88.2615"/>
</g>
<!-- Node3 -->
<g id="node3" class="node"><title>Node3</title>
<g id="a_node3"><a xlink:href="classCOMM_1_1List.html#aaddc8ba775e2a6504eb393d7d0c2235b" target="_top" xlink:title="Get modified status. ">
<polygon fill="white" stroke="black" points="164,-39 164,-69 277,-69 277,-39 164,-39"/>
<text text-anchor="start" x="172" y="-57" font-family="FreeSans" font-size="10.00">COMM::List&lt; Tparticle</text>
<text text-anchor="middle" x="220.5" y="-46" font-family="FreeSans" font-size="10.00"> &gt;::isModified</text>
</a>
</g>
</g>
<!-- Node1&#45;&gt;Node3 -->
<g id="edge2" class="edge"><title>Node1&#45;&gt;Node3</title>
<path fill="none" stroke="midnightblue" d="M128.287,-54C136.7,-54 145.341,-54 153.794,-54"/>
<polygon fill="midnightblue" stroke="midnightblue" points="153.983,-57.5001 163.983,-54 153.983,-50.5001 153.983,-57.5001"/>
</g>
<!-- Node4 -->
<g id="node4" class="node"><title>Node4</title>
<g id="a_node4"><a xlink:href="classCOMM_1_1List.html#af1c92acd831f62c52f3385a71d6403e7" target="_top" xlink:title="get current member number ">
<polygon fill="white" stroke="black" points="168.5,-0.5 168.5,-19.5 272.5,-19.5 272.5,-0.5 168.5,-0.5"/>
<text text-anchor="middle" x="220.5" y="-7.5" font-family="FreeSans" font-size="10.00">COMM::List::getSize</text>
</a>
</g>
</g>
<!-- Node1&#45;&gt;Node4 -->
<g id="edge3" class="edge"><title>Node1&#45;&gt;Node4</title>
<path fill="none" stroke="midnightblue" d="M117.738,-38.9808C136.768,-33.5613 158.011,-27.5114 176.146,-22.3468"/>
<polygon fill="midnightblue" stroke="midnightblue" points="177.208,-25.6835 185.867,-19.5783 175.291,-18.9512 177.208,-25.6835"/>
</g>
</g>
</svg>
