<?xml version="1.0" encoding="UTF-8" standalone="no"?>
<!DOCTYPE svg PUBLIC "-//W3C//DTD SVG 1.1//EN"
 "http://www.w3.org/Graphics/SVG/1.1/DTD/svg11.dtd">
<!-- Generated by graphviz version 2.43.0 (0)
 -->
<!-- Title: AR::TimeTransformedSymplecticIntegrator::operator= Pages: 1 -->
<svg width="492pt" height="66pt"
 viewBox="0.00 0.00 492.00 66.00" xmlns="http://www.w3.org/2000/svg" xmlns:xlink="http://www.w3.org/1999/xlink">
<g id="graph0" class="graph" transform="scale(1 1) rotate(0) translate(4 62)">
<title>AR::TimeTransformedSymplecticIntegrator::operator=</title>
<polygon fill="white" stroke="transparent" points="-4,4 -4,-62 488,-62 488,4 -4,4"/>
<!-- Node1 -->
<g id="node1" class="node">
<title>Node1</title>
<g id="a_node1"><a xlink:title="operator =">
<polygon fill="#bfbfbf" stroke="black" points="0,-14 0,-44 159,-44 159,-14 0,-14"/>
<text text-anchor="start" x="8" y="-32" font-family="FreeSans" font-size="10.00">AR::TimeTransformedSymplectic</text>
<text text-anchor="middle" x="79.5" y="-21" font-family="FreeSans" font-size="10.00">Integrator::operator=</text>
</a>
</g>
</g>
<!-- Node2 -->
<g id="node2" class="node">
<title>Node2</title>
<g id="a_node2"><a xlink:href="classAR_1_1TimeTransformedSymplecticIntegrator.html#aaa3a79d58bda3139dc300f0f46bff536" target="_top" xlink:title="Clear function.">
<polygon fill="white" stroke="black" points="195,-14 195,-44 354,-44 354,-14 195,-14"/>
<text text-anchor="start" x="203" y="-32" font-family="FreeSans" font-size="10.00">AR::TimeTransformedSymplectic</text>
<text text-anchor="middle" x="274.5" y="-21" font-family="FreeSans" font-size="10.00">Integrator::clear</text>
</a>
</g>
</g>
<!-- Node1&#45;&gt;Node2 -->
<g id="edge1" class="edge">
<title>Node1&#45;&gt;Node2</title>
<path fill="none" stroke="midnightblue" d="M159,-29C167.48,-29 176.14,-29 184.73,-29"/>
<polygon fill="midnightblue" stroke="midnightblue" points="184.76,-32.5 194.76,-29 184.76,-25.5 184.76,-32.5"/>
</g>
<!-- Node3 -->
<g id="node3" class="node">
<title>Node3</title>
<g id="a_node3"><a xlink:href="classAR_1_1Profile.html#a848512d98c7ca1339f490523414100b3" target="_top" xlink:title=" ">
<polygon fill="white" stroke="black" points="393.5,-38.5 393.5,-57.5 480.5,-57.5 480.5,-38.5 393.5,-38.5"/>
<text text-anchor="middle" x="437" y="-45.5" font-family="FreeSans" font-size="10.00">AR::Profile::clear</text>
</a>
</g>
</g>
<!-- Node2&#45;&gt;Node3 -->
<g id="edge2" class="edge">
<title>Node2&#45;&gt;Node3</title>
<path fill="none" stroke="midnightblue" d="M354.34,-38.33C364.13,-39.49 373.95,-40.65 383.22,-41.75"/>
<polygon fill="midnightblue" stroke="midnightblue" points="383.07,-45.26 393.41,-42.96 383.89,-38.31 383.07,-45.26"/>
</g>
<!-- Node4 -->
<g id="node4" class="node">
<title>Node4</title>
<g id="a_node4"><a xlink:href="classCOMM_1_1List.html#aceaeddd10f8a05984f25a258a48c2620" target="_top" xlink:title="Clear function.">
<polygon fill="white" stroke="black" points="390,-0.5 390,-19.5 484,-19.5 484,-0.5 390,-0.5"/>
<text text-anchor="middle" x="437" y="-7.5" font-family="FreeSans" font-size="10.00">COMM::List::clear</text>
</a>
</g>
</g>
<!-- Node2&#45;&gt;Node4 -->
<g id="edge3" class="edge">
<title>Node2&#45;&gt;Node4</title>
<path fill="none" stroke="midnightblue" d="M354.34,-19.67C362.92,-18.65 371.53,-17.63 379.76,-16.66"/>
<polygon fill="midnightblue" stroke="midnightblue" points="380.45,-20.1 389.97,-15.45 379.62,-13.15 380.45,-20.1"/>
</g>
</g>
</svg>
