<?xml version="1.0" encoding="UTF-8" standalone="no"?>
<!DOCTYPE svg PUBLIC "-//W3C//DTD SVG 1.1//EN"
 "http://www.w3.org/Graphics/SVG/1.1/DTD/svg11.dtd">
<!-- Generated by graphviz version 2.43.0 (0)
 -->
<!-- Title: H4::HermiteIntegrator::integrateSingleOneStepAct Pages: 1 -->
<!--zoomable 176 -->
<svg id="main" version="1.1" xmlns="http://www.w3.org/2000/svg" xmlns:xlink="http://www.w3.org/1999/xlink" xml:space="preserve" onload="init(evt)">
<style type="text/css"><![CDATA[
.edge:hover path { stroke: red; }
.edge:hover polygon { stroke: red; fill: red; }
]]></style>
<script type="text/javascript"><![CDATA[
var edges = document.getElementsByTagName('g');
if (edges && edges.length) {
  for (var i=0;i<edges.length;i++) {
    if (edges[i].id.substr(0,4)=='edge') {
      edges[i].setAttribute('class','edge');
    }
  }
}
]]></script>
        <defs>
                <circle id="rim" cx="0" cy="0" r="7"/>
                <circle id="rim2" cx="0" cy="0" r="3.5"/>
                <g id="zoomPlus">
                        <use xlink:href="#rim" fill="#404040">
                                <set attributeName="fill" to="#808080" begin="zoomplus.mouseover" end="zoomplus.mouseout"/>
                        </use>
                        <path d="M-4,0h8M0,-4v8" fill="none" stroke="white" stroke-width="1.5" pointer-events="none"/>
                </g>
                <g id="zoomMin">
                        <use xlink:href="#rim" fill="#404040">
                                <set attributeName="fill" to="#808080" begin="zoomminus.mouseover" end="zoomminus.mouseout"/>
                        </use>
                        <path d="M-4,0h8" fill="none" stroke="white" stroke-width="1.5" pointer-events="none"/>
                </g>
                <g id="dirArrow">
                        <path fill="none" stroke="white" stroke-width="1.5" d="M0,-3.0v7 M-2.5,-0.5L0,-3.0L2.5,-0.5"/>
                </g>
               <g id="resetDef">
                       <use xlink:href="#rim2" fill="#404040">
                               <set attributeName="fill" to="#808080" begin="reset.mouseover" end="reset.mouseout"/>
                       </use>
               </g>
        </defs>

<script type="text/javascript">
var viewWidth = 521;
var viewHeight = 176;
var sectionId = 'dynsection-30';
</script>
<script xlink:href="svgpan.js"/>
<svg id="graph" class="graph">
<g id="viewport">
<title>H4::HermiteIntegrator::integrateSingleOneStepAct</title>
<polygon fill="white" stroke="transparent" points="-4,4 -4,-172 517,-172 517,4 -4,4"/>
<!-- Node1 -->
<g id="node1" class="node">
<title>Node1</title>
<g id="a_node1"><a xlink:title="Integration single active particles and update steps.">
<polygon fill="#bfbfbf" stroke="black" points="0,-66.5 0,-96.5 139,-96.5 139,-66.5 0,-66.5"/>
<text text-anchor="start" x="8" y="-84.5" font-family="FreeSans" font-size="10.00">H4::HermiteIntegrator</text>
<text text-anchor="middle" x="69.5" y="-73.5" font-family="FreeSans" font-size="10.00">::integrateSingleOneStepAct</text>
</a>
</g>
</g>
<!-- Node2 -->
<g id="node2" class="node">
<title>Node2</title>
<g id="a_node2"><a xlink:href="classH4_1_1BlockTimeStep4th.html#a8532dd2e9fbbba336390b56295e21b76" target="_top" xlink:title="calculate the maximum time step limit for next block step based on the input (current) time">
<polygon fill="white" stroke="black" points="189.5,-137.5 189.5,-167.5 303.5,-167.5 303.5,-137.5 189.5,-137.5"/>
<text text-anchor="start" x="197.5" y="-155.5" font-family="FreeSans" font-size="10.00">H4::BlockTimeStep4th</text>
<text text-anchor="middle" x="246.5" y="-144.5" font-family="FreeSans" font-size="10.00">::calcNextDtLimit</text>
</a>
</g>
</g>
<!-- Node1&#45;&gt;Node2 -->
<g id="edge1" class="edge">
<title>Node1&#45;&gt;Node2</title>
<path fill="none" stroke="midnightblue" d="M103.18,-96.63C123.66,-105.92 150.68,-117.85 175,-127.5 180.41,-129.65 186.09,-131.81 191.78,-133.92"/>
<polygon fill="midnightblue" stroke="midnightblue" points="190.72,-137.25 201.31,-137.39 193.12,-130.68 190.72,-137.25"/>
</g>
<!-- Node3 -->
<g id="node3" class="node">
<title>Node3</title>
<g id="a_node3"><a xlink:href="classH4_1_1HermiteIntegrator.html#a5c92334f487ce31326f4469035b24ba7" target="_top" xlink:title="check whether parameters values are correct">
<polygon fill="white" stroke="black" points="191.5,-88.5 191.5,-118.5 301.5,-118.5 301.5,-88.5 191.5,-88.5"/>
<text text-anchor="start" x="199.5" y="-106.5" font-family="FreeSans" font-size="10.00">H4::HermiteIntegrator</text>
<text text-anchor="middle" x="246.5" y="-95.5" font-family="FreeSans" font-size="10.00">::checkParams</text>
</a>
</g>
</g>
<!-- Node1&#45;&gt;Node3 -->
<g id="edge2" class="edge">
<title>Node1&#45;&gt;Node3</title>
<path fill="none" stroke="midnightblue" d="M139.16,-90.13C152.97,-91.87 167.44,-93.69 181.1,-95.4"/>
<polygon fill="midnightblue" stroke="midnightblue" points="181.01,-98.92 191.37,-96.69 181.88,-91.97 181.01,-98.92"/>
</g>
<!-- Node6 -->
<g id="node6" class="node">
<title>Node6</title>
<g id="a_node6"><a xlink:href="classCOMM_1_1List.html#ad6c06deee95952a09db820733ea428f9" target="_top" xlink:title="return member data array address">
<polygon fill="white" stroke="black" points="175,-50 175,-69 318,-69 318,-50 175,-50"/>
<text text-anchor="middle" x="246.5" y="-57" font-family="FreeSans" font-size="10.00">COMM::List::getDataAddress</text>
</a>
</g>
</g>
<!-- Node1&#45;&gt;Node6 -->
<g id="edge5" class="edge">
<title>Node1&#45;&gt;Node6</title>
<path fill="none" stroke="midnightblue" d="M139.16,-72.87C147.56,-71.81 156.2,-70.73 164.75,-69.65"/>
<polygon fill="midnightblue" stroke="midnightblue" points="165.25,-73.12 174.73,-68.4 164.37,-66.17 165.25,-73.12"/>
</g>
<!-- Node7 -->
<g id="node7" class="node">
<title>Node7</title>
<g id="a_node7"><a xlink:href="classH4_1_1HermiteIntegrator.html#a73a391b3a23556c20a7d7f6b7a2fbc7c" target="_top" xlink:title="get next time for intergration">
<polygon fill="white" stroke="black" points="191.5,-0.5 191.5,-30.5 301.5,-30.5 301.5,-0.5 191.5,-0.5"/>
<text text-anchor="start" x="199.5" y="-18.5" font-family="FreeSans" font-size="10.00">H4::HermiteIntegrator</text>
<text text-anchor="middle" x="246.5" y="-7.5" font-family="FreeSans" font-size="10.00">::getNextTime</text>
</a>
</g>
</g>
<!-- Node1&#45;&gt;Node7 -->
<g id="edge6" class="edge">
<title>Node1&#45;&gt;Node7</title>
<path fill="none" stroke="midnightblue" d="M108.11,-66.4C127.95,-58.52 152.73,-48.82 175,-40.5 180.61,-38.4 186.49,-36.25 192.36,-34.13"/>
<polygon fill="midnightblue" stroke="midnightblue" points="193.94,-37.28 202.17,-30.61 191.57,-30.7 193.94,-37.28"/>
</g>
<!-- Node4 -->
<g id="node4" class="node">
<title>Node4</title>
<g id="a_node4"><a xlink:href="classH4_1_1HermiteManager.html#ad5ab496b530db1dfab24bebc39fabe8e" target="_top" xlink:title="time step calculator">
<polygon fill="white" stroke="black" points="380.5,-112.5 380.5,-142.5 486.5,-142.5 486.5,-112.5 380.5,-112.5"/>
<text text-anchor="start" x="388.5" y="-130.5" font-family="FreeSans" font-size="10.00">H4::HermiteManager</text>
<text text-anchor="middle" x="433.5" y="-119.5" font-family="FreeSans" font-size="10.00">::checkParams</text>
</a>
</g>
</g>
<!-- Node3&#45;&gt;Node4 -->
<g id="edge3" class="edge">
<title>Node3&#45;&gt;Node4</title>
<path fill="none" stroke="midnightblue" d="M301.51,-110.51C323.06,-113.3 348,-116.54 370.3,-119.43"/>
<polygon fill="midnightblue" stroke="midnightblue" points="369.97,-122.92 380.34,-120.73 370.87,-115.98 369.97,-122.92"/>
</g>
<!-- Node5 -->
<g id="node5" class="node">
<title>Node5</title>
<g id="a_node5"><a xlink:href="classAR_1_1TimeTransformedSymplecticManager.html#a8921a86541d095de3a8685f4aad2da48" target="_top" xlink:title="check whether parameters values are correct">
<polygon fill="white" stroke="black" points="354,-63.5 354,-93.5 513,-93.5 513,-63.5 354,-63.5"/>
<text text-anchor="start" x="362" y="-81.5" font-family="FreeSans" font-size="10.00">AR::TimeTransformedSymplectic</text>
<text text-anchor="middle" x="433.5" y="-70.5" font-family="FreeSans" font-size="10.00">Manager::checkParams</text>
</a>
</g>
</g>
<!-- Node3&#45;&gt;Node5 -->
<g id="edge4" class="edge">
<title>Node3&#45;&gt;Node5</title>
<path fill="none" stroke="midnightblue" d="M301.51,-96.2C314.77,-94.41 329.31,-92.44 343.73,-90.5"/>
<polygon fill="midnightblue" stroke="midnightblue" points="344.23,-93.96 353.68,-89.15 343.3,-87.02 344.23,-93.96"/>
</g>
</g>
</svg>
        <g id="navigator" transform="translate(0 0)" fill="#404254">
                <rect fill="#f2f5e9" fill-opacity="0.5" stroke="#606060" stroke-width=".5" x="0" y="0" width="60" height="60"/>
                <use id="zoomplus" xlink:href="#zoomPlus" x="17" y="9" onmousedown="handleZoom(evt,'in')"/>
                <use id="zoomminus" xlink:href="#zoomMin" x="42" y="9" onmousedown="handleZoom(evt,'out')"/>
                <use id="reset" xlink:href="#resetDef" x="30" y="36" onmousedown="handleReset()"/>
                <g id="arrowUp" xlink:href="#dirArrow" transform="translate(30 24)" onmousedown="handlePan(0,-1)">
                  <use xlink:href="#rim" fill="#404040">
                        <set attributeName="fill" to="#808080" begin="arrowUp.mouseover" end="arrowUp.mouseout"/>
                  </use>
                  <path fill="none" stroke="white" stroke-width="1.5" d="M0,-3.0v7 M-2.5,-0.5L0,-3.0L2.5,-0.5"/>
                </g>
                <g id="arrowRight" xlink:href="#dirArrow" transform="rotate(90) translate(36 -43)" onmousedown="handlePan(1,0)">
                  <use xlink:href="#rim" fill="#404040">
                        <set attributeName="fill" to="#808080" begin="arrowRight.mouseover" end="arrowRight.mouseout"/>
                  </use>
                  <path fill="none" stroke="white" stroke-width="1.5" d="M0,-3.0v7 M-2.5,-0.5L0,-3.0L2.5,-0.5"/>
                </g>
                <g id="arrowDown" xlink:href="#dirArrow" transform="rotate(180) translate(-30 -48)" onmousedown="handlePan(0,1)">
                  <use xlink:href="#rim" fill="#404040">
                        <set attributeName="fill" to="#808080" begin="arrowDown.mouseover" end="arrowDown.mouseout"/>
                  </use>
                  <path fill="none" stroke="white" stroke-width="1.5" d="M0,-3.0v7 M-2.5,-0.5L0,-3.0L2.5,-0.5"/>
                </g>
                <g id="arrowLeft" xlink:href="#dirArrow" transform="rotate(270) translate(-36 17)" onmousedown="handlePan(-1,0)">
                  <use xlink:href="#rim" fill="#404040">
                        <set attributeName="fill" to="#808080" begin="arrowLeft.mouseover" end="arrowLeft.mouseout"/>
                  </use>
                  <path fill="none" stroke="white" stroke-width="1.5" d="M0,-3.0v7 M-2.5,-0.5L0,-3.0L2.5,-0.5"/>
                </g>
        </g>
        <svg viewBox="0 0 15 15" width="100%" height="30px" preserveAspectRatio="xMaxYMin meet">
         <g id="arrow_out" transform="scale(0.3 0.3)">
          <a xlink:href="classH4_1_1HermiteIntegrator_a1aaef2826d6bb2c6cc4cafef39fbfaca_cgraph_org.svg" target="_base">
           <rect id="button" ry="5" rx="5" y="6" x="6" height="38" width="38"
                fill="#f2f5e9" fill-opacity="0.5" stroke="#606060" stroke-width="1.0"/>
           <path id="arrow"
             d="M 11.500037,31.436501 C 11.940474,20.09759 22.043105,11.32322 32.158766,21.979434 L 37.068811,17.246167 C 37.068811,17.246167 37.088388,32 37.088388,32 L 22.160133,31.978069 C 22.160133,31.978069 26.997745,27.140456 26.997745,27.140456 C 18.528582,18.264221 13.291696,25.230495 11.500037,31.436501 z"
             style="fill:#404040;"/>
          </a>
         </g>
        </svg>
</svg>
