<?xml version="1.0" encoding="UTF-8" standalone="no"?>
<!DOCTYPE svg PUBLIC "-//W3C//DTD SVG 1.1//EN"
 "http://www.w3.org/Graphics/SVG/1.1/DTD/svg11.dtd">
<!-- Generated by graphviz version 2.38.0 (20140413.2041)
 -->
<!-- Title: H4::ARInformation&lt; Tparticle &gt; Pages: 1 -->
<!--zoomable 90 -->
<svg id="main" version="1.1" xmlns="http://www.w3.org/2000/svg" xmlns:xlink="http://www.w3.org/1999/xlink" xml:space="preserve" onload="init(evt)">
<style type="text/css"><![CDATA[
.edge:hover path { stroke: red; }
.edge:hover polygon { stroke: red; fill: red; }
]]></style>
<script type="text/javascript"><![CDATA[
var edges = document.getElementsByTagName('g');
if (edges && edges.length) {
  for (var i=0;i<edges.length;i++) {
    if (edges[i].id.substr(0,4)=='edge') {
      edges[i].setAttribute('class','edge');
    }
  }
}
]]></script>
        <defs>
                <circle id="rim" cx="0" cy="0" r="7"/>
                <circle id="rim2" cx="0" cy="0" r="3.5"/>
                <g id="zoomPlus">
                        <use xlink:href="#rim" fill="#404040">
                                <set attributeName="fill" to="#808080" begin="zoomplus.mouseover" end="zoomplus.mouseout"/>
                        </use>
                        <path d="M-4,0h8M0,-4v8" fill="none" stroke="white" stroke-width="1.5" pointer-events="none"/>
                </g>
                <g id="zoomMin">
                        <use xlink:href="#rim" fill="#404040">
                                <set attributeName="fill" to="#808080" begin="zoomminus.mouseover" end="zoomminus.mouseout"/>
                        </use>
                        <path d="M-4,0h8" fill="none" stroke="white" stroke-width="1.5" pointer-events="none"/>
                </g>
                <g id="dirArrow">
                        <path fill="none" stroke="white" stroke-width="1.5" d="M0,-3.0v7 M-2.5,-0.5L0,-3.0L2.5,-0.5"/>
                </g>
               <g id="resetDef">
                       <use xlink:href="#rim2" fill="#404040">
                               <set attributeName="fill" to="#808080" begin="reset.mouseover" end="reset.mouseout"/>
                       </use>
               </g>
        </defs>

<script type="text/javascript">
var viewWidth = 1113;
var viewHeight = 90;
var sectionId = 'dynsection-1';
</script>
<script xlink:href="svgpan.js"/>
<svg id="graph" class="graph">
<g id="viewport">
<title>H4::ARInformation&lt; Tparticle &gt;</title>
<polygon fill="white" stroke="none" points="-4,4 -4,-86 1109,-86 1109,4 -4,4"/>
<!-- Node1 -->
<g id="node1" class="node"><title>Node1</title>
<polygon fill="#bfbfbf" stroke="black" points="1004,-13 1004,-43 1105,-43 1105,-13 1004,-13"/>
<text text-anchor="start" x="1012" y="-31" font-family="FreeSans" font-size="10.00">H4::ARInformation&lt;</text>
<text text-anchor="middle" x="1054.5" y="-20" font-family="FreeSans" font-size="10.00"> Tparticle &gt;</text>
</g>
<!-- Node2 -->
<g id="node2" class="node"><title>Node2</title>
<g id="a_node2"><a xlink:href="classAR_1_1Information.html" target="_top" xlink:title="AR::Information\&lt; Particle\lAR\&lt; Tparticle \&gt;, ParticleH4\l\&lt; Tparticle \&gt; \&gt;">
<polygon fill="white" stroke="black" points="772,-38.5 772,-79.5 906,-79.5 906,-38.5 772,-38.5"/>
<text text-anchor="start" x="780" y="-67.5" font-family="FreeSans" font-size="10.00">AR::Information&lt; Particle</text>
<text text-anchor="start" x="780" y="-56.5" font-family="FreeSans" font-size="10.00">AR&lt; Tparticle &gt;, ParticleH4</text>
<text text-anchor="middle" x="839" y="-45.5" font-family="FreeSans" font-size="10.00">&lt; Tparticle &gt; &gt;</text>
</a>
</g>
</g>
<!-- Node2&#45;&gt;Node1 -->
<g id="edge1" class="edge"><title>Node2&#45;&gt;Node1</title>
<path fill="none" stroke="midnightblue" d="M916.258,-47.9274C945.441,-43.6901 977.941,-38.971 1003.99,-35.1892"/>
<polygon fill="midnightblue" stroke="midnightblue" points="915.484,-44.503 906.091,-49.4037 916.49,-51.4304 915.484,-44.503"/>
</g>
<!-- Node3 -->
<g id="node3" class="node"><title>Node3</title>
<g id="a_node3"><a xlink:href="classCOMM_1_1List.html" target="_top" xlink:title="COMM::List\&lt; COMM::Binary\lTree\&lt; ParticleAR\&lt; Tparticle \&gt; \&gt; \&gt;">
<polygon fill="white" stroke="black" points="530,-44 530,-74 691,-74 691,-44 530,-44"/>
<text text-anchor="start" x="538" y="-62" font-family="FreeSans" font-size="10.00">COMM::List&lt; COMM::Binary</text>
<text text-anchor="middle" x="610.5" y="-51" font-family="FreeSans" font-size="10.00">Tree&lt; ParticleAR&lt; Tparticle &gt; &gt; &gt;</text>
</a>
</g>
</g>
<!-- Node3&#45;&gt;Node2 -->
<g id="edge2" class="edge"><title>Node3&#45;&gt;Node2</title>
<path fill="none" stroke="#9a32cd" stroke-dasharray="5,2" d="M701.045,-59C724.632,-59 749.654,-59 771.769,-59"/>
<polygon fill="#9a32cd" stroke="#9a32cd" points="701.037,-55.5001 691.037,-59 701.037,-62.5001 701.037,-55.5001"/>
<text text-anchor="middle" x="731.5" y="-62" font-family="FreeSans" font-size="10.00"> binarytree</text>
</g>
<!-- Node4 -->
<g id="node4" class="node"><title>Node4</title>
<g id="a_node4"><a xlink:href="classCOMM_1_1BinaryTree.html" target="_top" xlink:title="COMM::BinaryTree\&lt; Particle\lAR\&lt; Tparticle \&gt; \&gt;">
<polygon fill="white" stroke="black" points="329,-44 329,-74 469,-74 469,-44 329,-44"/>
<text text-anchor="start" x="337" y="-62" font-family="FreeSans" font-size="10.00">COMM::BinaryTree&lt; Particle</text>
<text text-anchor="middle" x="399" y="-51" font-family="FreeSans" font-size="10.00">AR&lt; Tparticle &gt; &gt;</text>
</a>
</g>
</g>
<!-- Node4&#45;&gt;Node3 -->
<g id="edge3" class="edge"><title>Node4&#45;&gt;Node3</title>
<path fill="none" stroke="#9a32cd" stroke-dasharray="5,2" d="M479.344,-59C495.882,-59 513.32,-59 529.869,-59"/>
<polygon fill="#9a32cd" stroke="#9a32cd" points="479.179,-55.5001 469.179,-59 479.179,-62.5001 479.179,-55.5001"/>
<text text-anchor="middle" x="499.5" y="-73" font-family="FreeSans" font-size="10.00"> adr_</text>
<text text-anchor="middle" x="499.5" y="-62" font-family="FreeSans" font-size="10.00">data_</text>
</g>
<!-- Node5 -->
<g id="node5" class="node"><title>Node5</title>
<polygon fill="white" stroke="#bfbfbf" points="175,-62.5 175,-81.5 292,-81.5 292,-62.5 175,-62.5"/>
<text text-anchor="middle" x="233.5" y="-69.5" font-family="FreeSans" font-size="10.00">ParticleAR&lt; Tparticle &gt;</text>
</g>
<!-- Node5&#45;&gt;Node4 -->
<g id="edge4" class="edge"><title>Node5&#45;&gt;Node4</title>
<path fill="none" stroke="midnightblue" d="M302.302,-66.609C311.063,-65.9124 320.044,-65.1983 328.827,-64.5"/>
<polygon fill="midnightblue" stroke="midnightblue" points="301.835,-63.135 292.144,-67.4167 302.39,-70.113 301.835,-63.135"/>
</g>
<!-- Node6 -->
<g id="node6" class="node"><title>Node6</title>
<g id="a_node6"><a xlink:href="classCOMM_1_1Binary.html" target="_top" xlink:title="Binary parameter class. ">
<polygon fill="white" stroke="black" points="194,-24.5 194,-43.5 273,-43.5 273,-24.5 194,-24.5"/>
<text text-anchor="middle" x="233.5" y="-31.5" font-family="FreeSans" font-size="10.00">COMM::Binary</text>
</a>
</g>
</g>
<!-- Node6&#45;&gt;Node4 -->
<g id="edge5" class="edge"><title>Node6&#45;&gt;Node4</title>
<path fill="none" stroke="midnightblue" d="M283.333,-41.4669C297.619,-43.6512 313.515,-46.0817 328.809,-48.4204"/>
<polygon fill="midnightblue" stroke="midnightblue" points="283.661,-37.9764 273.247,-39.9247 282.603,-44.896 283.661,-37.9764"/>
</g>
<!-- Node7 -->
<g id="node7" class="node"><title>Node7</title>
<g id="a_node7"><a xlink:href="classCOMM_1_1Vector3.html" target="_top" xlink:title="COMM::Vector3\&lt; Float \&gt;">
<polygon fill="white" stroke="black" points="0,-24.5 0,-43.5 123,-43.5 123,-24.5 0,-24.5"/>
<text text-anchor="middle" x="61.5" y="-31.5" font-family="FreeSans" font-size="10.00">COMM::Vector3&lt; Float &gt;</text>
</a>
</g>
</g>
<!-- Node7&#45;&gt;Node6 -->
<g id="edge6" class="edge"><title>Node7&#45;&gt;Node6</title>
<path fill="none" stroke="#9a32cd" stroke-dasharray="5,2" d="M133.458,-34C154.194,-34 176.076,-34 193.983,-34"/>
<polygon fill="#9a32cd" stroke="#9a32cd" points="133.394,-30.5001 123.394,-34 133.394,-37.5001 133.394,-30.5001"/>
<text text-anchor="middle" x="149" y="-37" font-family="FreeSans" font-size="10.00"> am</text>
</g>
<!-- Node8 -->
<g id="node8" class="node"><title>Node8</title>
<g id="a_node8"><a xlink:href="classCOMM_1_1List.html" target="_top" xlink:title="COMM::List\&lt; int \&gt;">
<polygon fill="white" stroke="black" points="792,-0.5 792,-19.5 886,-19.5 886,-0.5 792,-0.5"/>
<text text-anchor="middle" x="839" y="-7.5" font-family="FreeSans" font-size="10.00">COMM::List&lt; int &gt;</text>
</a>
</g>
</g>
<!-- Node8&#45;&gt;Node1 -->
<g id="edge7" class="edge"><title>Node8&#45;&gt;Node1</title>
<path fill="none" stroke="#9a32cd" stroke-dasharray="5,2" d="M896.132,-14.5259C923.282,-16.7373 956.34,-19.4629 986,-22 991.744,-22.4913 997.762,-23.0144 1003.74,-23.539"/>
<polygon fill="#9a32cd" stroke="#9a32cd" points="896.287,-11.0269 886.036,-13.705 895.719,-18.0039 896.287,-11.0269"/>
<text text-anchor="middle" x="955" y="-25" font-family="FreeSans" font-size="10.00"> particle_index</text>
</g>
</g>
</svg>
        <g id="navigator" transform="translate(0 0)" fill="#404254">
                <rect fill="#f2f5e9" fill-opacity="0.5" stroke="#606060" stroke-width=".5" x="0" y="0" width="60" height="60"/>
                <use id="zoomplus" xlink:href="#zoomPlus" x="17" y="9" onmousedown="handleZoom(evt,'in')"/>
                <use id="zoomminus" xlink:href="#zoomMin" x="42" y="9" onmousedown="handleZoom(evt,'out')"/>
                <use id="reset" xlink:href="#resetDef" x="30" y="36" onmousedown="handleReset()"/>
                <g id="arrowUp" xlink:href="#dirArrow" transform="translate(30 24)" onmousedown="handlePan(0,-1)">
                  <use xlink:href="#rim" fill="#404040">
                        <set attributeName="fill" to="#808080" begin="arrowUp.mouseover" end="arrowUp.mouseout"/>
                  </use>
                  <path fill="none" stroke="white" stroke-width="1.5" d="M0,-3.0v7 M-2.5,-0.5L0,-3.0L2.5,-0.5"/>
                </g>
                <g id="arrowRight" xlink:href="#dirArrow" transform="rotate(90) translate(36 -43)" onmousedown="handlePan(1,0)">
                  <use xlink:href="#rim" fill="#404040">
                        <set attributeName="fill" to="#808080" begin="arrowRight.mouseover" end="arrowRight.mouseout"/>
                  </use>
                  <path fill="none" stroke="white" stroke-width="1.5" d="M0,-3.0v7 M-2.5,-0.5L0,-3.0L2.5,-0.5"/>
                </g>
                <g id="arrowDown" xlink:href="#dirArrow" transform="rotate(180) translate(-30 -48)" onmousedown="handlePan(0,1)">
                  <use xlink:href="#rim" fill="#404040">
                        <set attributeName="fill" to="#808080" begin="arrowDown.mouseover" end="arrowDown.mouseout"/>
                  </use>
                  <path fill="none" stroke="white" stroke-width="1.5" d="M0,-3.0v7 M-2.5,-0.5L0,-3.0L2.5,-0.5"/>
                </g>
                <g id="arrowLeft" xlink:href="#dirArrow" transform="rotate(270) translate(-36 17)" onmousedown="handlePan(-1,0)">
                  <use xlink:href="#rim" fill="#404040">
                        <set attributeName="fill" to="#808080" begin="arrowLeft.mouseover" end="arrowLeft.mouseout"/>
                  </use>
                  <path fill="none" stroke="white" stroke-width="1.5" d="M0,-3.0v7 M-2.5,-0.5L0,-3.0L2.5,-0.5"/>
                </g>
        </g>
        <svg viewBox="0 0 15 15" width="100%" height="30px" preserveAspectRatio="xMaxYMin meet">
         <g id="arrow_out" transform="scale(0.3 0.3)">
          <a xlink:href="classH4_1_1ARInformation__coll__graph_org.svg" target="_base">
           <rect id="button" ry="5" rx="5" y="6" x="6" height="38" width="38"
                fill="#f2f5e9" fill-opacity="0.5" stroke="#606060" stroke-width="1.0"/>
           <path id="arrow"
             d="M 11.500037,31.436501 C 11.940474,20.09759 22.043105,11.32322 32.158766,21.979434 L 37.068811,17.246167 C 37.068811,17.246167 37.088388,32 37.088388,32 L 22.160133,31.978069 C 22.160133,31.978069 26.997745,27.140456 26.997745,27.140456 C 18.528582,18.264221 13.291696,25.230495 11.500037,31.436501 z"
             style="fill:#404040;"/>
          </a>
         </g>
        </svg>
</svg>
