<?xml version="1.0" encoding="UTF-8" standalone="no"?>
<!DOCTYPE svg PUBLIC "-//W3C//DTD SVG 1.1//EN"
 "http://www.w3.org/Graphics/SVG/1.1/DTD/svg11.dtd">
<!-- Generated by graphviz version 2.43.0 (0)
 -->
<!-- Title: COMM::BinaryTree&lt; Tptcl, Tbinary &gt; Pages: 1 -->
<svg width="139pt" height="95pt"
 viewBox="0.00 0.00 139.00 95.00" xmlns="http://www.w3.org/2000/svg" xmlns:xlink="http://www.w3.org/1999/xlink">
<g id="graph0" class="graph" transform="scale(1 1) rotate(0) translate(4 91)">
<title>COMM::BinaryTree&lt; Tptcl, Tbinary &gt;</title>
<polygon fill="white" stroke="transparent" points="-4,4 -4,-91 135,-91 135,4 -4,4"/>
<!-- Node1 -->
<g id="node1" class="node">
<title>Node1</title>
<g id="a_node1"><a xlink:title="Binary tree cell.">
<polygon fill="#bfbfbf" stroke="black" points="0,-0.5 0,-30.5 131,-30.5 131,-0.5 0,-0.5"/>
<text text-anchor="start" x="8" y="-18.5" font-family="FreeSans" font-size="10.00">COMM::BinaryTree&lt; Tptcl,</text>
<text text-anchor="middle" x="65.5" y="-7.5" font-family="FreeSans" font-size="10.00"> Tbinary &gt;</text>
</a>
</g>
</g>
<!-- Node2 -->
<g id="node2" class="node">
<title>Node2</title>
<g id="a_node2"><a xlink:title=" ">
<polygon fill="white" stroke="#bfbfbf" points="16.5,-67.5 16.5,-86.5 54.5,-86.5 54.5,-67.5 16.5,-67.5"/>
<text text-anchor="middle" x="35.5" y="-74.5" font-family="FreeSans" font-size="10.00">Tptcl</text>
</a>
</g>
</g>
<!-- Node2&#45;&gt;Node1 -->
<g id="edge1" class="edge">
<title>Node2&#45;&gt;Node1</title>
<path fill="none" stroke="midnightblue" d="M44.38,-58.39C48.86,-49.5 54.23,-38.86 58.43,-30.52"/>
<polygon fill="midnightblue" stroke="midnightblue" points="41.18,-56.97 39.8,-67.48 47.43,-60.12 41.18,-56.97"/>
</g>
<!-- Node3 -->
<g id="node3" class="node">
<title>Node3</title>
<g id="a_node3"><a xlink:title=" ">
<polygon fill="white" stroke="#bfbfbf" points="72.5,-67.5 72.5,-86.5 120.5,-86.5 120.5,-67.5 72.5,-67.5"/>
<text text-anchor="middle" x="96.5" y="-74.5" font-family="FreeSans" font-size="10.00">Tbinary</text>
</a>
</g>
</g>
<!-- Node3&#45;&gt;Node1 -->
<g id="edge2" class="edge">
<title>Node3&#45;&gt;Node1</title>
<path fill="none" stroke="midnightblue" d="M87.33,-58.39C82.69,-49.5 77.15,-38.86 72.81,-30.52"/>
<polygon fill="midnightblue" stroke="midnightblue" points="84.33,-60.22 92.06,-67.48 90.54,-56.99 84.33,-60.22"/>
</g>
</g>
</svg>
