<?xml version="1.0" encoding="UTF-8" standalone="no"?>
<!DOCTYPE svg PUBLIC "-//W3C//DTD SVG 1.1//EN"
 "http://www.w3.org/Graphics/SVG/1.1/DTD/svg11.dtd">
<!-- Generated by graphviz version 2.38.0 (20140413.2041)
 -->
<!-- Title: COMM::ParticleGroup::printColumnTitle Pages: 1 -->
<svg width="313pt" height="88pt"
 viewBox="0.00 0.00 313.00 88.00" xmlns="http://www.w3.org/2000/svg" xmlns:xlink="http://www.w3.org/1999/xlink">
<g id="graph0" class="graph" transform="scale(1 1) rotate(0) translate(4 84)">
<title>COMM::ParticleGroup::printColumnTitle</title>
<polygon fill="white" stroke="none" points="-4,4 -4,-84 309,-84 309,4 -4,4"/>
<!-- Node1 -->
<g id="node1" class="node"><title>Node1</title>
<polygon fill="#bfbfbf" stroke="black" points="0,-24.5 0,-54.5 111,-54.5 111,-24.5 0,-24.5"/>
<text text-anchor="start" x="8" y="-42.5" font-family="FreeSans" font-size="10.00">COMM::ParticleGroup</text>
<text text-anchor="middle" x="55.5" y="-31.5" font-family="FreeSans" font-size="10.00">::printColumnTitle</text>
</g>
<!-- Node1&#45;&gt;Node1 -->
<g id="edge2" class="edge"><title>Node1&#45;&gt;Node1</title>
<path fill="none" stroke="midnightblue" d="M25.2931,-64.9579C29.0422,-69.679 39.1111,-73 55.5,-73 82.3945,-73 92.2699,-64.0566 85.126,-54.659"/>
<polygon fill="midnightblue" stroke="midnightblue" points="28.8052,-64.8403 25.874,-54.659 21.8163,-64.446 28.8052,-64.8403"/>
</g>
<!-- Node2 -->
<g id="node2" class="node"><title>Node2</title>
<g id="a_node2"><a xlink:href="classH4_1_1HermiteIntegrator.html#ac5071fb8fac2b382267d541c64b21a9c" target="_top" xlink:title="print titles of class members using column style ">
<polygon fill="white" stroke="black" points="172,-49.5 172,-79.5 280,-79.5 280,-49.5 172,-49.5"/>
<text text-anchor="start" x="180" y="-67.5" font-family="FreeSans" font-size="10.00">H4::HermiteIntegrator</text>
<text text-anchor="middle" x="226" y="-56.5" font-family="FreeSans" font-size="10.00">::printColumnTitle</text>
</a>
</g>
</g>
<!-- Node1&#45;&gt;Node2 -->
<g id="edge1" class="edge"><title>Node1&#45;&gt;Node2</title>
<path fill="none" stroke="midnightblue" d="M121.403,-49.1296C138.04,-51.598 155.741,-54.2242 171.716,-56.5944"/>
<polygon fill="midnightblue" stroke="midnightblue" points="121.613,-45.6224 111.207,-47.6168 120.585,-52.5466 121.613,-45.6224"/>
</g>
<!-- Node3 -->
<g id="node3" class="node"><title>Node3</title>
<g id="a_node3"><a xlink:href="classAR_1_1TimeTransformedSymplecticIntegrator.html#a810d3b067eb342d28e6f97c7041b96c0" target="_top" xlink:title="print titles of class members using column style ">
<polygon fill="white" stroke="black" points="147,-0.5 147,-30.5 305,-30.5 305,-0.5 147,-0.5"/>
<text text-anchor="start" x="155" y="-18.5" font-family="FreeSans" font-size="10.00">AR::TimeTransformedSymplectic</text>
<text text-anchor="middle" x="226" y="-7.5" font-family="FreeSans" font-size="10.00">Integrator::printColumnTitle</text>
</a>
</g>
</g>
<!-- Node1&#45;&gt;Node3 -->
<g id="edge3" class="edge"><title>Node1&#45;&gt;Node3</title>
<path fill="none" stroke="midnightblue" d="M121.222,-30.2815C129.561,-29.0937 138.171,-27.8674 146.698,-26.6528"/>
<polygon fill="midnightblue" stroke="midnightblue" points="120.614,-26.8327 111.207,-31.7079 121.601,-33.7627 120.614,-26.8327"/>
</g>
</g>
</svg>
