<?xml version="1.0" encoding="UTF-8" standalone="no"?>
<!DOCTYPE svg PUBLIC "-//W3C//DTD SVG 1.1//EN"
 "http://www.w3.org/Graphics/SVG/1.1/DTD/svg11.dtd">
<!-- Generated by graphviz version 2.43.0 (0)
 -->
<!-- Title: COMM::Matrix3::rotation Pages: 1 -->
<svg width="513pt" height="97pt"
 viewBox="0.00 0.00 513.00 96.50" xmlns="http://www.w3.org/2000/svg" xmlns:xlink="http://www.w3.org/1999/xlink">
<g id="graph0" class="graph" transform="scale(1 1) rotate(0) translate(4 92.5)">
<title>COMM::Matrix3::rotation</title>
<polygon fill="white" stroke="transparent" points="-4,4 -4,-92.5 509,-92.5 509,4 -4,4"/>
<!-- Node1 -->
<g id="node1" class="node">
<title>Node1</title>
<g id="a_node1"><a xlink:title=" ">
<polygon fill="#bfbfbf" stroke="black" points="385,-28 385,-47 505,-47 505,-28 385,-28"/>
<text text-anchor="middle" x="445" y="-35" font-family="FreeSans" font-size="10.00">COMM::Matrix3::rotation</text>
</a>
</g>
</g>
<!-- Node2 -->
<g id="node2" class="node">
<title>Node2</title>
<g id="a_node2"><a xlink:href="classCOMM_1_1Binary.html#ad34e7d44a73fecd129d4178465d21d5a" target="_top" xlink:title="Orbit to position and velocity.">
<polygon fill="white" stroke="black" points="200,-50 200,-69 346,-69 346,-50 200,-50"/>
<text text-anchor="middle" x="273" y="-57" font-family="FreeSans" font-size="10.00">COMM::Binary::orbitToParticle</text>
</a>
</g>
</g>
<!-- Node1&#45;&gt;Node2 -->
<g id="edge1" class="edge">
<title>Node1&#45;&gt;Node2</title>
<path fill="none" stroke="midnightblue" d="M374.55,-46.49C365.24,-47.69 355.66,-48.93 346.29,-50.14"/>
<polygon fill="midnightblue" stroke="midnightblue" points="375.07,-49.95 384.54,-45.19 374.18,-43.01 375.07,-49.95"/>
</g>
<!-- Node5 -->
<g id="node5" class="node">
<title>Node5</title>
<g id="a_node5"><a xlink:href="classCOMM_1_1Binary.html#a792e15cee5b951a3d7a92a884884fc1b" target="_top" xlink:title="rotate position vector from binary rest&#45;frame to original frame based on three angles">
<polygon fill="white" stroke="black" points="197,-0.5 197,-30.5 349,-30.5 349,-0.5 197,-0.5"/>
<text text-anchor="start" x="205" y="-18.5" font-family="FreeSans" font-size="10.00">COMM::Binary::rotateToOriginal</text>
<text text-anchor="middle" x="273" y="-7.5" font-family="FreeSans" font-size="10.00">Frame</text>
</a>
</g>
</g>
<!-- Node1&#45;&gt;Node5 -->
<g id="edge4" class="edge">
<title>Node1&#45;&gt;Node5</title>
<path fill="none" stroke="midnightblue" d="M374.51,-28.51C366.19,-27.43 357.66,-26.33 349.26,-25.24"/>
<polygon fill="midnightblue" stroke="midnightblue" points="374.18,-31.99 384.54,-29.81 375.07,-25.05 374.18,-31.99"/>
</g>
<!-- Node3 -->
<g id="node3" class="node">
<title>Node3</title>
<g id="a_node3"><a xlink:href="classCOMM_1_1Binary.html#a63121141b69896f59f742cf9b97bb409" target="_top" xlink:title="calculate two components from kepler Orbit">
<polygon fill="white" stroke="black" points="10.5,-69 10.5,-88 150.5,-88 150.5,-69 10.5,-69"/>
<text text-anchor="middle" x="80.5" y="-76" font-family="FreeSans" font-size="10.00">COMM::Binary::calcParticles</text>
</a>
</g>
</g>
<!-- Node2&#45;&gt;Node3 -->
<g id="edge2" class="edge">
<title>Node2&#45;&gt;Node3</title>
<path fill="none" stroke="midnightblue" d="M189.67,-67.71C176.71,-69 163.42,-70.33 150.79,-71.59"/>
<polygon fill="midnightblue" stroke="midnightblue" points="190.38,-71.16 199.98,-66.68 189.68,-64.19 190.38,-71.16"/>
</g>
<!-- Node4 -->
<g id="node4" class="node">
<title>Node4</title>
<g id="a_node4"><a xlink:href="classCOMM_1_1Binary.html#a3b76733f76ca3f8696e2f5b2dcc9393f" target="_top" xlink:title="calculate two components from kepler Orbit with input eccentricity anomaly">
<polygon fill="white" stroke="black" points="0,-31 0,-50 161,-50 161,-31 0,-31"/>
<text text-anchor="middle" x="80.5" y="-38" font-family="FreeSans" font-size="10.00">COMM::Binary::calcParticlesEcca</text>
</a>
</g>
</g>
<!-- Node2&#45;&gt;Node4 -->
<g id="edge3" class="edge">
<title>Node2&#45;&gt;Node4</title>
<path fill="none" stroke="midnightblue" d="M189.8,-51.3C180.34,-50.36 170.7,-49.4 161.27,-48.46"/>
<polygon fill="midnightblue" stroke="midnightblue" points="189.68,-54.81 199.98,-52.32 190.38,-47.84 189.68,-54.81"/>
</g>
</g>
</svg>
