<?xml version="1.0" encoding="UTF-8" standalone="no"?>
<!DOCTYPE svg PUBLIC "-//W3C//DTD SVG 1.1//EN"
 "http://www.w3.org/Graphics/SVG/1.1/DTD/svg11.dtd">
<!-- Generated by graphviz version 2.43.0 (0)
 -->
<!-- Title: COMM::Binary::orbitToParticle Pages: 1 -->
<svg width="351pt" height="66pt"
 viewBox="0.00 0.00 351.00 66.00" xmlns="http://www.w3.org/2000/svg" xmlns:xlink="http://www.w3.org/1999/xlink">
<g id="graph0" class="graph" transform="scale(1 1) rotate(0) translate(4 62)">
<title>COMM::Binary::orbitToParticle</title>
<polygon fill="white" stroke="transparent" points="-4,4 -4,-62 347,-62 347,4 -4,4"/>
<!-- Node1 -->
<g id="node1" class="node">
<title>Node1</title>
<g id="a_node1"><a xlink:title="Orbit to position and velocity.">
<polygon fill="#bfbfbf" stroke="black" points="197,-19.5 197,-38.5 343,-38.5 343,-19.5 197,-19.5"/>
<text text-anchor="middle" x="270" y="-26.5" font-family="FreeSans" font-size="10.00">COMM::Binary::orbitToParticle</text>
</a>
</g>
</g>
<!-- Node2 -->
<g id="node2" class="node">
<title>Node2</title>
<g id="a_node2"><a xlink:href="classCOMM_1_1Binary.html#a63121141b69896f59f742cf9b97bb409" target="_top" xlink:title="calculate two components from kepler Orbit">
<polygon fill="white" stroke="black" points="10.5,-38.5 10.5,-57.5 150.5,-57.5 150.5,-38.5 10.5,-38.5"/>
<text text-anchor="middle" x="80.5" y="-45.5" font-family="FreeSans" font-size="10.00">COMM::Binary::calcParticles</text>
</a>
</g>
</g>
<!-- Node1&#45;&gt;Node2 -->
<g id="edge1" class="edge">
<title>Node1&#45;&gt;Node2</title>
<path fill="none" stroke="midnightblue" d="M186.73,-37.34C174.67,-38.56 162.36,-39.81 150.6,-41"/>
<polygon fill="midnightblue" stroke="midnightblue" points="187.18,-40.81 196.78,-36.32 186.47,-33.84 187.18,-40.81"/>
</g>
<!-- Node3 -->
<g id="node3" class="node">
<title>Node3</title>
<g id="a_node3"><a xlink:href="classCOMM_1_1Binary.html#a3b76733f76ca3f8696e2f5b2dcc9393f" target="_top" xlink:title="calculate two components from kepler Orbit with input eccentricity anomaly">
<polygon fill="white" stroke="black" points="0,-0.5 0,-19.5 161,-19.5 161,-0.5 0,-0.5"/>
<text text-anchor="middle" x="80.5" y="-7.5" font-family="FreeSans" font-size="10.00">COMM::Binary::calcParticlesEcca</text>
</a>
</g>
</g>
<!-- Node1&#45;&gt;Node3 -->
<g id="edge2" class="edge">
<title>Node1&#45;&gt;Node3</title>
<path fill="none" stroke="midnightblue" d="M186.57,-20.65C178.13,-19.79 169.57,-18.92 161.17,-18.07"/>
<polygon fill="midnightblue" stroke="midnightblue" points="186.47,-24.16 196.78,-21.68 187.18,-17.19 186.47,-24.16"/>
</g>
</g>
</svg>
