<?xml version="1.0" encoding="UTF-8" standalone="no"?>
<!DOCTYPE svg PUBLIC "-//W3C//DTD SVG 1.1//EN"
 "http://www.w3.org/Graphics/SVG/1.1/DTD/svg11.dtd">
<!-- Generated by graphviz version 2.43.0 (0)
 -->
<!-- Title: H4::HermiteIntegrator::initialSystemSingle Pages: 1 -->
<svg width="495pt" height="190pt"
 viewBox="0.00 0.00 495.00 189.50" xmlns="http://www.w3.org/2000/svg" xmlns:xlink="http://www.w3.org/1999/xlink">
<g id="graph0" class="graph" transform="scale(1 1) rotate(0) translate(4 185.5)">
<title>H4::HermiteIntegrator::initialSystemSingle</title>
<polygon fill="white" stroke="transparent" points="-4,4 -4,-185.5 491,-185.5 491,4 -4,4"/>
<!-- Node1 -->
<g id="node1" class="node">
<title>Node1</title>
<g id="a_node1"><a xlink:title="Initial system array.">
<polygon fill="#bfbfbf" stroke="black" points="0,-61 0,-91 110,-91 110,-61 0,-61"/>
<text text-anchor="start" x="8" y="-79" font-family="FreeSans" font-size="10.00">H4::HermiteIntegrator</text>
<text text-anchor="middle" x="55" y="-68" font-family="FreeSans" font-size="10.00">::initialSystemSingle</text>
</a>
</g>
</g>
<!-- Node2 -->
<g id="node2" class="node">
<title>Node2</title>
<g id="a_node2"><a xlink:href="classH4_1_1HermiteIntegrator.html#a5c92334f487ce31326f4469035b24ba7" target="_top" xlink:title="check whether parameters values are correct">
<polygon fill="white" stroke="black" points="164,-127 164,-157 274,-157 274,-127 164,-127"/>
<text text-anchor="start" x="172" y="-145" font-family="FreeSans" font-size="10.00">H4::HermiteIntegrator</text>
<text text-anchor="middle" x="219" y="-134" font-family="FreeSans" font-size="10.00">::checkParams</text>
</a>
</g>
</g>
<!-- Node1&#45;&gt;Node2 -->
<g id="edge1" class="edge">
<title>Node1&#45;&gt;Node2</title>
<path fill="none" stroke="midnightblue" d="M87.34,-91.15C104.5,-99.22 126.23,-109.09 146,-117 151.43,-119.17 157.13,-121.34 162.85,-123.44"/>
<polygon fill="midnightblue" stroke="midnightblue" points="161.85,-126.8 172.44,-126.9 164.22,-120.22 161.85,-126.8"/>
</g>
<!-- Node5 -->
<g id="node5" class="node">
<title>Node5</title>
<g id="a_node5"><a xlink:href="classCOMM_1_1List.html#a929bb5bdaaa7ce70d872ae0c758c77ae" target="_top" xlink:title="get current member number">
<polygon fill="white" stroke="black" points="166.5,-88.5 166.5,-107.5 271.5,-107.5 271.5,-88.5 166.5,-88.5"/>
<text text-anchor="middle" x="219" y="-95.5" font-family="FreeSans" font-size="10.00">COMM::List::getSize</text>
</a>
</g>
</g>
<!-- Node1&#45;&gt;Node5 -->
<g id="edge4" class="edge">
<title>Node1&#45;&gt;Node5</title>
<path fill="none" stroke="midnightblue" d="M110.39,-83.39C125.11,-85.38 141.14,-87.56 156.22,-89.61"/>
<polygon fill="midnightblue" stroke="midnightblue" points="156.11,-93.13 166.49,-91 157.05,-86.19 156.11,-93.13"/>
</g>
<!-- Node6 -->
<g id="node6" class="node">
<title>Node6</title>
<g id="a_node6"><a xlink:href="classCOMM_1_1List.html#a610a134731844b13df4b22ef0d9ad603" target="_top" xlink:title="increase size without initialization">
<polygon fill="white" stroke="black" points="155,-39 155,-69 283,-69 283,-39 155,-39"/>
<text text-anchor="start" x="163" y="-57" font-family="FreeSans" font-size="10.00">COMM::List::increaseSize</text>
<text text-anchor="middle" x="219" y="-46" font-family="FreeSans" font-size="10.00">NoInitialize</text>
</a>
</g>
</g>
<!-- Node1&#45;&gt;Node6 -->
<g id="edge5" class="edge">
<title>Node1&#45;&gt;Node6</title>
<path fill="none" stroke="midnightblue" d="M110.39,-68.61C121.41,-67.12 133.17,-65.52 144.72,-63.95"/>
<polygon fill="midnightblue" stroke="midnightblue" points="145.35,-67.4 154.79,-62.58 144.41,-60.46 145.35,-67.4"/>
</g>
<!-- Node7 -->
<g id="node7" class="node">
<title>Node7</title>
<g id="a_node7"><a xlink:href="classCOMM_1_1List.html#a0f3dd09ceff0ce9b3ffd15f48a9ea9c4" target="_top" xlink:title="increase size without initialization">
<polygon fill="white" stroke="black" points="146,-0.5 146,-19.5 292,-19.5 292,-0.5 146,-0.5"/>
<text text-anchor="middle" x="219" y="-7.5" font-family="FreeSans" font-size="10.00">COMM::List::resizeNoInitialize</text>
</a>
</g>
</g>
<!-- Node1&#45;&gt;Node7 -->
<g id="edge6" class="edge">
<title>Node1&#45;&gt;Node7</title>
<path fill="none" stroke="midnightblue" d="M81.28,-60.85C98.94,-50.76 123.32,-37.79 146,-29 152.24,-26.58 158.89,-24.37 165.54,-22.37"/>
<polygon fill="midnightblue" stroke="midnightblue" points="166.58,-25.71 175.24,-19.6 164.66,-18.98 166.58,-25.71"/>
</g>
<!-- Node3 -->
<g id="node3" class="node">
<title>Node3</title>
<g id="a_node3"><a xlink:href="classH4_1_1HermiteManager.html#ad5ab496b530db1dfab24bebc39fabe8e" target="_top" xlink:title="time step calculator">
<polygon fill="white" stroke="black" points="354.5,-151 354.5,-181 460.5,-181 460.5,-151 354.5,-151"/>
<text text-anchor="start" x="362.5" y="-169" font-family="FreeSans" font-size="10.00">H4::HermiteManager</text>
<text text-anchor="middle" x="407.5" y="-158" font-family="FreeSans" font-size="10.00">::checkParams</text>
</a>
</g>
</g>
<!-- Node2&#45;&gt;Node3 -->
<g id="edge2" class="edge">
<title>Node2&#45;&gt;Node3</title>
<path fill="none" stroke="midnightblue" d="M274.19,-148.97C296.11,-151.79 321.54,-155.07 344.22,-157.98"/>
<polygon fill="midnightblue" stroke="midnightblue" points="344.05,-161.49 354.42,-159.3 344.95,-154.55 344.05,-161.49"/>
</g>
<!-- Node4 -->
<g id="node4" class="node">
<title>Node4</title>
<g id="a_node4"><a xlink:href="classAR_1_1TimeTransformedSymplecticManager.html#a8921a86541d095de3a8685f4aad2da48" target="_top" xlink:title="check whether parameters values are correct">
<polygon fill="white" stroke="black" points="328,-102 328,-132 487,-132 487,-102 328,-102"/>
<text text-anchor="start" x="336" y="-120" font-family="FreeSans" font-size="10.00">AR::TimeTransformedSymplectic</text>
<text text-anchor="middle" x="407.5" y="-109" font-family="FreeSans" font-size="10.00">Manager::checkParams</text>
</a>
</g>
</g>
<!-- Node2&#45;&gt;Node4 -->
<g id="edge3" class="edge">
<title>Node2&#45;&gt;Node4</title>
<path fill="none" stroke="midnightblue" d="M274.19,-134.74C287.83,-132.91 302.82,-130.9 317.66,-128.91"/>
<polygon fill="midnightblue" stroke="midnightblue" points="318.44,-132.34 327.89,-127.54 317.51,-125.4 318.44,-132.34"/>
</g>
</g>
</svg>
