<?xml version="1.0" encoding="UTF-8" standalone="no"?>
<!DOCTYPE svg PUBLIC "-//W3C//DTD SVG 1.1//EN"
 "http://www.w3.org/Graphics/SVG/1.1/DTD/svg11.dtd">
<!-- Generated by graphviz version 2.38.0 (20140413.2041)
 -->
<!-- Title: COMM::Binary::printColumn Pages: 1 -->
<svg width="323pt" height="88pt"
 viewBox="0.00 0.00 323.00 88.00" xmlns="http://www.w3.org/2000/svg" xmlns:xlink="http://www.w3.org/1999/xlink">
<g id="graph0" class="graph" transform="scale(1 1) rotate(0) translate(4 84)">
<title>COMM::Binary::printColumn</title>
<polygon fill="white" stroke="none" points="-4,4 -4,-84 319,-84 319,4 -4,4"/>
<!-- Node1 -->
<g id="node1" class="node"><title>Node1</title>
<polygon fill="#bfbfbf" stroke="black" points="0,-30 0,-49 135,-49 135,-30 0,-30"/>
<text text-anchor="middle" x="67.5" y="-37" font-family="FreeSans" font-size="10.00">COMM::Binary::printColumn</text>
</g>
<!-- Node2 -->
<g id="node2" class="node"><title>Node2</title>
<g id="a_node2"><a xlink:href="classCOMM_1_1BinaryTree.html#a1b8d7c87b78eedb52e7682c9b9b8a4e7" target="_top" xlink:title="print data of class members using column style ">
<polygon fill="white" stroke="black" points="171,-49.5 171,-79.5 315,-79.5 315,-49.5 171,-49.5"/>
<text text-anchor="start" x="179" y="-67.5" font-family="FreeSans" font-size="10.00">COMM::BinaryTree&lt; Tparticle</text>
<text text-anchor="middle" x="243" y="-56.5" font-family="FreeSans" font-size="10.00"> &gt;::printColumn</text>
</a>
</g>
</g>
<!-- Node1&#45;&gt;Node2 -->
<g id="edge1" class="edge"><title>Node1&#45;&gt;Node2</title>
<path fill="none" stroke="midnightblue" d="M144.716,-50.4821C153.418,-51.736 162.263,-53.0106 170.895,-54.2543"/>
<polygon fill="midnightblue" stroke="midnightblue" points="144.985,-46.9848 134.588,-49.0227 143.986,-53.9132 144.985,-46.9848"/>
</g>
<!-- Node3 -->
<g id="node3" class="node"><title>Node3</title>
<g id="a_node3"><a xlink:href="classCOMM_1_1BinaryTree.html#a92be2e2f14c5b4ad77e03f090a5dbac1" target="_top" xlink:title="print function ">
<polygon fill="white" stroke="black" points="171,-0.5 171,-30.5 315,-30.5 315,-0.5 171,-0.5"/>
<text text-anchor="start" x="179" y="-18.5" font-family="FreeSans" font-size="10.00">COMM::BinaryTree&lt; Tparticle</text>
<text text-anchor="middle" x="243" y="-7.5" font-family="FreeSans" font-size="10.00"> &gt;::printColumnIter</text>
</a>
</g>
</g>
<!-- Node1&#45;&gt;Node3 -->
<g id="edge2" class="edge"><title>Node1&#45;&gt;Node3</title>
<path fill="none" stroke="midnightblue" d="M145.104,-28.9034C153.711,-27.7128 162.453,-26.5036 170.985,-25.3234"/>
<polygon fill="midnightblue" stroke="midnightblue" points="144.509,-25.4523 135.083,-30.2896 145.469,-32.3863 144.509,-25.4523"/>
</g>
</g>
</svg>
