<?xml version="1.0" encoding="UTF-8" standalone="no"?>
<!DOCTYPE svg PUBLIC "-//W3C//DTD SVG 1.1//EN"
 "http://www.w3.org/Graphics/SVG/1.1/DTD/svg11.dtd">
<!-- Generated by graphviz version 2.38.0 (20140413.2041)
 -->
<!-- Title: AR::SymplecticStep::clear Pages: 1 -->
<svg width="615pt" height="39pt"
 viewBox="0.00 0.00 615.00 39.00" xmlns="http://www.w3.org/2000/svg" xmlns:xlink="http://www.w3.org/1999/xlink">
<g id="graph0" class="graph" transform="scale(1 1) rotate(0) translate(4 35)">
<title>AR::SymplecticStep::clear</title>
<polygon fill="white" stroke="none" points="-4,4 -4,-35 611,-35 611,4 -4,4"/>
<!-- Node1 -->
<g id="node1" class="node"><title>Node1</title>
<polygon fill="#bfbfbf" stroke="black" points="0,-0.5 0,-30.5 103,-30.5 103,-0.5 0,-0.5"/>
<text text-anchor="start" x="8" y="-18.5" font-family="FreeSans" font-size="10.00">AR::SymplecticStep</text>
<text text-anchor="middle" x="51.5" y="-7.5" font-family="FreeSans" font-size="10.00">::clear</text>
</g>
<!-- Node2 -->
<g id="node2" class="node"><title>Node2</title>
<g id="a_node2"><a xlink:href="classAR_1_1SymplecticStep.html#a3783c763a55a3f197f2914c3c621f020" target="_top" xlink:title="Symplectic coefficients generation for input order. ">
<polygon fill="white" stroke="black" points="139,-0.5 139,-30.5 274,-30.5 274,-0.5 139,-0.5"/>
<text text-anchor="start" x="147" y="-18.5" font-family="FreeSans" font-size="10.00">AR::SymplecticStep</text>
<text text-anchor="middle" x="206.5" y="-7.5" font-family="FreeSans" font-size="10.00">::initialSymplecticCofficients</text>
</a>
</g>
</g>
<!-- Node1&#45;&gt;Node2 -->
<g id="edge1" class="edge"><title>Node1&#45;&gt;Node2</title>
<path fill="none" stroke="midnightblue" d="M113.178,-15.5C121.639,-15.5 130.369,-15.5 138.931,-15.5"/>
<polygon fill="midnightblue" stroke="midnightblue" points="113.022,-12.0001 103.022,-15.5 113.022,-19.0001 113.022,-12.0001"/>
</g>
<!-- Node3 -->
<g id="node3" class="node"><title>Node3</title>
<g id="a_node3"><a xlink:href="classAR_1_1SymplecticStep.html#a7bd554fb4782da4c8a5b56be01877273" target="_top" xlink:title="read class data with BINARY format and initial the array ">
<polygon fill="white" stroke="black" points="310,-0.5 310,-30.5 413,-30.5 413,-0.5 310,-0.5"/>
<text text-anchor="start" x="318" y="-18.5" font-family="FreeSans" font-size="10.00">AR::SymplecticStep</text>
<text text-anchor="middle" x="361.5" y="-7.5" font-family="FreeSans" font-size="10.00">::readBinary</text>
</a>
</g>
</g>
<!-- Node2&#45;&gt;Node3 -->
<g id="edge2" class="edge"><title>Node2&#45;&gt;Node3</title>
<path fill="none" stroke="midnightblue" d="M284.269,-15.5C292.899,-15.5 301.525,-15.5 309.706,-15.5"/>
<polygon fill="midnightblue" stroke="midnightblue" points="284.163,-12.0001 274.163,-15.5 284.163,-19.0001 284.163,-12.0001"/>
</g>
<!-- Node4 -->
<g id="node4" class="node"><title>Node4</title>
<g id="a_node4"><a xlink:href="classAR_1_1TimeTransformedSymplecticManager.html#a468331841b3d06894c4fb450891c7c2e" target="_top" xlink:title="read class data with BINARY format and initial the array ">
<polygon fill="white" stroke="black" points="449,-0.5 449,-30.5 607,-30.5 607,-0.5 449,-0.5"/>
<text text-anchor="start" x="457" y="-18.5" font-family="FreeSans" font-size="10.00">AR::TimeTransformedSymplectic</text>
<text text-anchor="middle" x="528" y="-7.5" font-family="FreeSans" font-size="10.00">Manager&lt; TARacc &gt;::readBinary</text>
</a>
</g>
</g>
<!-- Node3&#45;&gt;Node4 -->
<g id="edge3" class="edge"><title>Node3&#45;&gt;Node4</title>
<path fill="none" stroke="midnightblue" d="M423.232,-15.5C431.609,-15.5 440.307,-15.5 448.943,-15.5"/>
<polygon fill="midnightblue" stroke="midnightblue" points="423.198,-12.0001 413.198,-15.5 423.198,-19.0001 423.198,-12.0001"/>
</g>
</g>
</svg>
