<?xml version="1.0" encoding="UTF-8" standalone="no"?>
<!DOCTYPE svg PUBLIC "-//W3C//DTD SVG 1.1//EN"
 "http://www.w3.org/Graphics/SVG/1.1/DTD/svg11.dtd">
<!-- Generated by graphviz version 2.43.0 (0)
 -->
<!-- Title: H4::HermiteIntegrator::checkBreak Pages: 1 -->
<svg width="304pt" height="264pt"
 viewBox="0.00 0.00 304.00 263.50" xmlns="http://www.w3.org/2000/svg" xmlns:xlink="http://www.w3.org/1999/xlink">
<g id="graph0" class="graph" transform="scale(1 1) rotate(0) translate(4 259.5)">
<title>H4::HermiteIntegrator::checkBreak</title>
<polygon fill="white" stroke="transparent" points="-4,4 -4,-259.5 300,-259.5 300,4 -4,4"/>
<!-- Node1 -->
<g id="node1" class="node">
<title>Node1</title>
<g id="a_node1"><a xlink:title="Check break condition.">
<polygon fill="#bfbfbf" stroke="black" points="0,-110 0,-140 110,-140 110,-110 0,-110"/>
<text text-anchor="start" x="8" y="-128" font-family="FreeSans" font-size="10.00">H4::HermiteIntegrator</text>
<text text-anchor="middle" x="55" y="-117" font-family="FreeSans" font-size="10.00">::checkBreak</text>
</a>
</g>
</g>
<!-- Node2 -->
<g id="node2" class="node">
<title>Node2</title>
<g id="a_node2"><a xlink:href="classAR_1_1SlowDown.html#a7cae8bcc039bb158497e2f9bb6efbd78" target="_top" xlink:title="calculate slowdown factor based on perturbation and inner acceleration">
<polygon fill="white" stroke="black" points="146,-225 146,-255 296,-255 296,-225 146,-225"/>
<text text-anchor="start" x="154" y="-243" font-family="FreeSans" font-size="10.00">AR::SlowDown::calcSlowDown</text>
<text text-anchor="middle" x="221" y="-232" font-family="FreeSans" font-size="10.00">Factor</text>
</a>
</g>
</g>
<!-- Node1&#45;&gt;Node2 -->
<g id="edge1" class="edge">
<title>Node1&#45;&gt;Node2</title>
<path fill="none" stroke="midnightblue" d="M67.12,-140.1C82.65,-160.17 112.71,-195.48 146,-216 148.76,-217.7 151.65,-219.29 154.63,-220.78"/>
<polygon fill="midnightblue" stroke="midnightblue" points="153.21,-223.98 163.76,-224.95 156.12,-217.61 153.21,-223.98"/>
</g>
<!-- Node3 -->
<g id="node3" class="node">
<title>Node3</title>
<g id="a_node3"><a xlink:href="classH4_1_1HermiteIntegrator.html#a73a391b3a23556c20a7d7f6b7a2fbc7c" target="_top" xlink:title="get next time for intergration">
<polygon fill="white" stroke="black" points="166,-176 166,-206 276,-206 276,-176 166,-176"/>
<text text-anchor="start" x="174" y="-194" font-family="FreeSans" font-size="10.00">H4::HermiteIntegrator</text>
<text text-anchor="middle" x="221" y="-183" font-family="FreeSans" font-size="10.00">::getNextTime</text>
</a>
</g>
</g>
<!-- Node1&#45;&gt;Node3 -->
<g id="edge2" class="edge">
<title>Node1&#45;&gt;Node3</title>
<path fill="none" stroke="midnightblue" d="M86.9,-140.02C104.12,-148.15 126.04,-158.11 146,-166 151.57,-168.2 157.43,-170.39 163.3,-172.51"/>
<polygon fill="midnightblue" stroke="midnightblue" points="162.56,-175.96 173.16,-175.98 164.89,-169.35 162.56,-175.96"/>
</g>
<!-- Node4 -->
<g id="node4" class="node">
<title>Node4</title>
<g id="a_node4"><a xlink:href="classCOMM_1_1List.html#a929bb5bdaaa7ce70d872ae0c758c77ae" target="_top" xlink:title="get current member number">
<polygon fill="white" stroke="black" points="168.5,-137.5 168.5,-156.5 273.5,-156.5 273.5,-137.5 168.5,-137.5"/>
<text text-anchor="middle" x="221" y="-144.5" font-family="FreeSans" font-size="10.00">COMM::List::getSize</text>
</a>
</g>
</g>
<!-- Node1&#45;&gt;Node4 -->
<g id="edge3" class="edge">
<title>Node1&#45;&gt;Node4</title>
<path fill="none" stroke="midnightblue" d="M110.15,-132.26C125.54,-134.33 142.41,-136.59 158.21,-138.71"/>
<polygon fill="midnightblue" stroke="midnightblue" points="158.03,-142.22 168.41,-140.08 158.96,-135.28 158.03,-142.22"/>
</g>
<!-- Node5 -->
<g id="node5" class="node">
<title>Node5</title>
<g id="a_node5"><a xlink:href="classAR_1_1SlowDown.html#a7d4f7bdbab34f9f8842e62c596023b75" target="_top" xlink:title="Get original slow&#45;down factor.">
<polygon fill="white" stroke="black" points="148,-88 148,-118 294,-118 294,-88 148,-88"/>
<text text-anchor="start" x="156" y="-106" font-family="FreeSans" font-size="10.00">AR::SlowDown::getSlowDown</text>
<text text-anchor="middle" x="221" y="-95" font-family="FreeSans" font-size="10.00">FactorOrigin</text>
</a>
</g>
</g>
<!-- Node1&#45;&gt;Node5 -->
<g id="edge4" class="edge">
<title>Node1&#45;&gt;Node5</title>
<path fill="none" stroke="midnightblue" d="M110.15,-117.74C118.99,-116.55 128.32,-115.3 137.66,-114.05"/>
<polygon fill="midnightblue" stroke="midnightblue" points="138.32,-117.49 147.76,-112.69 137.39,-110.55 138.32,-117.49"/>
</g>
<!-- Node6 -->
<g id="node6" class="node">
<title>Node6</title>
<g id="a_node6"><a xlink:href="classAR_1_1SlowDown.html#ab9436a956d9925171387b0cfe4ffbb0f" target="_top" xlink:title="initialize slow&#45;down parameters">
<polygon fill="white" stroke="black" points="156,-39 156,-69 286,-69 286,-39 156,-39"/>
<text text-anchor="start" x="164" y="-57" font-family="FreeSans" font-size="10.00">AR::SlowDown::initialSlow</text>
<text text-anchor="middle" x="221" y="-46" font-family="FreeSans" font-size="10.00">DownReference</text>
</a>
</g>
</g>
<!-- Node1&#45;&gt;Node6 -->
<g id="edge5" class="edge">
<title>Node1&#45;&gt;Node6</title>
<path fill="none" stroke="midnightblue" d="M83.08,-109.84C100.69,-100.31 124.33,-88.14 146,-79 151.28,-76.77 156.84,-74.6 162.43,-72.52"/>
<polygon fill="midnightblue" stroke="midnightblue" points="163.63,-75.81 171.85,-69.12 161.25,-69.23 163.63,-75.81"/>
</g>
<!-- Node7 -->
<g id="node7" class="node">
<title>Node7</title>
<g id="a_node7"><a xlink:href="classCOMM_1_1List.html#a0f3dd09ceff0ce9b3ffd15f48a9ea9c4" target="_top" xlink:title="increase size without initialization">
<polygon fill="white" stroke="black" points="148,-0.5 148,-19.5 294,-19.5 294,-0.5 148,-0.5"/>
<text text-anchor="middle" x="221" y="-7.5" font-family="FreeSans" font-size="10.00">COMM::List::resizeNoInitialize</text>
</a>
</g>
</g>
<!-- Node1&#45;&gt;Node7 -->
<g id="edge6" class="edge">
<title>Node1&#45;&gt;Node7</title>
<path fill="none" stroke="midnightblue" d="M66.3,-109.69C81.33,-88.56 111.28,-50.73 146,-30 150.46,-27.34 155.27,-25.03 160.24,-23.01"/>
<polygon fill="midnightblue" stroke="midnightblue" points="161.7,-26.21 169.9,-19.51 159.31,-19.63 161.7,-26.21"/>
</g>
</g>
</svg>
