<?xml version="1.0" encoding="UTF-8" standalone="no"?>
<!DOCTYPE svg PUBLIC "-//W3C//DTD SVG 1.1//EN"
 "http://www.w3.org/Graphics/SVG/1.1/DTD/svg11.dtd">
<!-- Generated by graphviz version 2.38.0 (20140413.2041)
 -->
<!-- Title: H4::HermiteIntegrator::checkBreak Pages: 1 -->
<svg width="299pt" height="176pt"
 viewBox="0.00 0.00 299.00 175.50" xmlns="http://www.w3.org/2000/svg" xmlns:xlink="http://www.w3.org/1999/xlink">
<g id="graph0" class="graph" transform="scale(1 1) rotate(0) translate(4 171.5)">
<title>H4::HermiteIntegrator::checkBreak</title>
<polygon fill="white" stroke="none" points="-4,4 -4,-171.5 295,-171.5 295,4 -4,4"/>
<!-- Node1 -->
<g id="node1" class="node"><title>Node1</title>
<polygon fill="#bfbfbf" stroke="black" points="0,-73.5 0,-103.5 108,-103.5 108,-73.5 0,-73.5"/>
<text text-anchor="start" x="8" y="-91.5" font-family="FreeSans" font-size="10.00">H4::HermiteIntegrator</text>
<text text-anchor="middle" x="54" y="-80.5" font-family="FreeSans" font-size="10.00">::checkBreak</text>
</g>
<!-- Node2 -->
<g id="node2" class="node"><title>Node2</title>
<g id="a_node2"><a xlink:href="classCOMM_1_1List.html#af1c92acd831f62c52f3385a71d6403e7" target="_top" xlink:title="get current member number ">
<polygon fill="white" stroke="black" points="165.5,-148 165.5,-167 269.5,-167 269.5,-148 165.5,-148"/>
<text text-anchor="middle" x="217.5" y="-155" font-family="FreeSans" font-size="10.00">COMM::List::getSize</text>
</a>
</g>
</g>
<!-- Node1&#45;&gt;Node2 -->
<g id="edge1" class="edge"><title>Node1&#45;&gt;Node2</title>
<path fill="none" stroke="midnightblue" d="M77.979,-103.575C95.486,-114.515 120.503,-129.004 144,-138.5 149.938,-140.9 156.272,-143.079 162.631,-145.034"/>
<polygon fill="midnightblue" stroke="midnightblue" points="162.012,-148.498 172.591,-147.921 163.961,-141.775 162.012,-148.498"/>
</g>
<!-- Node3 -->
<g id="node3" class="node"><title>Node3</title>
<g id="a_node3"><a xlink:href="classAR_1_1SlowDown.html#ab9436a956d9925171387b0cfe4ffbb0f" target="_top" xlink:title="initialize slow&#45;down parameters ">
<polygon fill="white" stroke="black" points="153.5,-98.5 153.5,-128.5 281.5,-128.5 281.5,-98.5 153.5,-98.5"/>
<text text-anchor="start" x="161.5" y="-116.5" font-family="FreeSans" font-size="10.00">AR::SlowDown::initialSlow</text>
<text text-anchor="middle" x="217.5" y="-105.5" font-family="FreeSans" font-size="10.00">DownReference</text>
</a>
</g>
</g>
<!-- Node1&#45;&gt;Node3 -->
<g id="edge2" class="edge"><title>Node1&#45;&gt;Node3</title>
<path fill="none" stroke="midnightblue" d="M108.329,-96.7552C119.485,-98.4823 131.435,-100.332 143.173,-102.149"/>
<polygon fill="midnightblue" stroke="midnightblue" points="142.991,-105.662 153.409,-103.734 144.062,-98.7449 142.991,-105.662"/>
</g>
<!-- Node4 -->
<g id="node4" class="node"><title>Node4</title>
<g id="a_node4"><a xlink:href="classAR_1_1SlowDown.html#a7cae8bcc039bb158497e2f9bb6efbd78" target="_top" xlink:title="calculate slowdown factor based on perturbation and inner acceleration ">
<polygon fill="white" stroke="black" points="144,-49.5 144,-79.5 291,-79.5 291,-49.5 144,-49.5"/>
<text text-anchor="start" x="152" y="-67.5" font-family="FreeSans" font-size="10.00">AR::SlowDown::calcSlowDown</text>
<text text-anchor="middle" x="217.5" y="-56.5" font-family="FreeSans" font-size="10.00">Factor</text>
</a>
</g>
</g>
<!-- Node1&#45;&gt;Node4 -->
<g id="edge3" class="edge"><title>Node1&#45;&gt;Node4</title>
<path fill="none" stroke="midnightblue" d="M108.329,-80.575C116.517,-79.3581 125.133,-78.0778 133.778,-76.793"/>
<polygon fill="midnightblue" stroke="midnightblue" points="134.541,-80.2182 143.918,-75.2862 133.512,-73.2942 134.541,-80.2182"/>
</g>
<!-- Node5 -->
<g id="node5" class="node"><title>Node5</title>
<g id="a_node5"><a xlink:href="classAR_1_1SlowDown.html#a1f153e07b27376eb86bffb7756199b6a" target="_top" xlink:title="Get original slow&#45;down factor. ">
<polygon fill="white" stroke="black" points="146,-0.5 146,-30.5 289,-30.5 289,-0.5 146,-0.5"/>
<text text-anchor="start" x="154" y="-18.5" font-family="FreeSans" font-size="10.00">AR::SlowDown::getSlowDown</text>
<text text-anchor="middle" x="217.5" y="-7.5" font-family="FreeSans" font-size="10.00">FactorOrigin</text>
</a>
</g>
</g>
<!-- Node1&#45;&gt;Node5 -->
<g id="edge4" class="edge"><title>Node1&#45;&gt;Node5</title>
<path fill="none" stroke="midnightblue" d="M80.5366,-73.2893C98.0344,-63.228 121.975,-50.1604 144,-40.5 149.03,-38.294 154.321,-36.1499 159.658,-34.1049"/>
<polygon fill="midnightblue" stroke="midnightblue" points="161.112,-37.2988 169.27,-30.5391 158.677,-30.7358 161.112,-37.2988"/>
</g>
</g>
</svg>
