<?xml version="1.0" encoding="UTF-8" standalone="no"?>
<!DOCTYPE svg PUBLIC "-//W3C//DTD SVG 1.1//EN"
 "http://www.w3.org/Graphics/SVG/1.1/DTD/svg11.dtd">
<!-- Generated by graphviz version 2.43.0 (0)
 -->
<!-- Title: AR::TimeTransformedSymplecticIntegrator::writeBackParticlesOriginFrame Pages: 1 -->
<svg width="368pt" height="235pt"
 viewBox="0.00 0.00 368.00 235.00" xmlns="http://www.w3.org/2000/svg" xmlns:xlink="http://www.w3.org/1999/xlink">
<g id="graph0" class="graph" transform="scale(1 1) rotate(0) translate(4 231)">
<title>AR::TimeTransformedSymplecticIntegrator::writeBackParticlesOriginFrame</title>
<polygon fill="white" stroke="transparent" points="-4,4 -4,-231 364,-231 364,4 -4,4"/>
<!-- Node1 -->
<g id="node1" class="node">
<title>Node1</title>
<g id="a_node1"><a xlink:title="write back particles to original address">
<polygon fill="#bfbfbf" stroke="black" points="0,-98.5 0,-128.5 197,-128.5 197,-98.5 0,-98.5"/>
<text text-anchor="start" x="8" y="-116.5" font-family="FreeSans" font-size="10.00">AR::TimeTransformedSymplectic</text>
<text text-anchor="middle" x="98.5" y="-105.5" font-family="FreeSans" font-size="10.00">Integrator::writeBackParticlesOriginFrame</text>
</a>
</g>
</g>
<!-- Node2 -->
<g id="node2" class="node">
<title>Node2</title>
<g id="a_node2"><a xlink:href="classCOMM_1_1List.html#ad6c06deee95952a09db820733ea428f9" target="_top" xlink:title="return member data array address">
<polygon fill="white" stroke="black" points="239.5,-196.5 239.5,-226.5 353.5,-226.5 353.5,-196.5 239.5,-196.5"/>
<text text-anchor="start" x="247.5" y="-214.5" font-family="FreeSans" font-size="10.00">COMM::List&lt; Tparticle</text>
<text text-anchor="middle" x="296.5" y="-203.5" font-family="FreeSans" font-size="10.00"> &gt;::getDataAddress</text>
</a>
</g>
</g>
<!-- Node1&#45;&gt;Node2 -->
<g id="edge1" class="edge">
<title>Node1&#45;&gt;Node2</title>
<path fill="none" stroke="midnightblue" d="M124.54,-128.77C150.97,-144.54 194.09,-169.36 233,-187.5 236.63,-189.19 240.41,-190.86 244.25,-192.49"/>
<polygon fill="midnightblue" stroke="midnightblue" points="243.23,-195.86 253.81,-196.42 245.89,-189.38 243.23,-195.86"/>
</g>
<!-- Node3 -->
<g id="node3" class="node">
<title>Node3</title>
<g id="a_node3"><a xlink:href="classCOMM_1_1List.html#a10c436e2b6daa16f11a339296f50c4c1" target="_top" xlink:title=" ">
<polygon fill="white" stroke="black" points="239.5,-147.5 239.5,-177.5 353.5,-177.5 353.5,-147.5 239.5,-147.5"/>
<text text-anchor="start" x="247.5" y="-165.5" font-family="FreeSans" font-size="10.00">COMM::List&lt; Tparticle</text>
<text text-anchor="middle" x="296.5" y="-154.5" font-family="FreeSans" font-size="10.00"> &gt;::getMode</text>
</a>
</g>
</g>
<!-- Node1&#45;&gt;Node3 -->
<g id="edge2" class="edge">
<title>Node1&#45;&gt;Node3</title>
<path fill="none" stroke="midnightblue" d="M159.64,-128.53C181.79,-134.07 207,-140.37 229.63,-146.03"/>
<polygon fill="midnightblue" stroke="midnightblue" points="228.94,-149.47 239.49,-148.5 230.64,-142.68 228.94,-149.47"/>
</g>
<!-- Node4 -->
<g id="node4" class="node">
<title>Node4</title>
<g id="a_node4"><a xlink:href="classCOMM_1_1List.html#a5811f51c2099462dbf1a9e058f14b973" target="_top" xlink:title="return member original address array">
<polygon fill="white" stroke="black" points="233,-98.5 233,-128.5 360,-128.5 360,-98.5 233,-98.5"/>
<text text-anchor="start" x="241" y="-116.5" font-family="FreeSans" font-size="10.00">COMM::List&lt; Tparticle</text>
<text text-anchor="middle" x="296.5" y="-105.5" font-family="FreeSans" font-size="10.00"> &gt;::getOriginAddressArray</text>
</a>
</g>
</g>
<!-- Node1&#45;&gt;Node4 -->
<g id="edge3" class="edge">
<title>Node1&#45;&gt;Node4</title>
<path fill="none" stroke="midnightblue" d="M197.21,-113.5C205.8,-113.5 214.4,-113.5 222.73,-113.5"/>
<polygon fill="midnightblue" stroke="midnightblue" points="222.74,-117 232.74,-113.5 222.74,-110 222.74,-117"/>
</g>
<!-- Node5 -->
<g id="node5" class="node">
<title>Node5</title>
<g id="a_node5"><a xlink:href="classCOMM_1_1List.html#a929bb5bdaaa7ce70d872ae0c758c77ae" target="_top" xlink:title="get current member number">
<polygon fill="white" stroke="black" points="239.5,-49.5 239.5,-79.5 353.5,-79.5 353.5,-49.5 239.5,-49.5"/>
<text text-anchor="start" x="247.5" y="-67.5" font-family="FreeSans" font-size="10.00">COMM::List&lt; Tparticle</text>
<text text-anchor="middle" x="296.5" y="-56.5" font-family="FreeSans" font-size="10.00"> &gt;::getSize</text>
</a>
</g>
</g>
<!-- Node1&#45;&gt;Node5 -->
<g id="edge4" class="edge">
<title>Node1&#45;&gt;Node5</title>
<path fill="none" stroke="midnightblue" d="M159.64,-98.47C181.79,-92.93 207,-86.63 229.63,-80.97"/>
<polygon fill="midnightblue" stroke="midnightblue" points="230.64,-84.32 239.49,-78.5 228.94,-77.53 230.64,-84.32"/>
</g>
<!-- Node6 -->
<g id="node6" class="node">
<title>Node6</title>
<g id="a_node6"><a xlink:href="classCOMM_1_1ParticleGroup.html#a26f8bf8385483a36a879c846aa1a1719" target="_top" xlink:title="return true if the system is the in their origin frame">
<polygon fill="white" stroke="black" points="241,-0.5 241,-30.5 352,-30.5 352,-0.5 241,-0.5"/>
<text text-anchor="start" x="249" y="-18.5" font-family="FreeSans" font-size="10.00">COMM::ParticleGroup</text>
<text text-anchor="middle" x="296.5" y="-7.5" font-family="FreeSans" font-size="10.00">::isOriginFrame</text>
</a>
</g>
</g>
<!-- Node1&#45;&gt;Node6 -->
<g id="edge5" class="edge">
<title>Node1&#45;&gt;Node6</title>
<path fill="none" stroke="midnightblue" d="M125.12,-98.29C151.65,-82.83 194.53,-58.63 233,-40.5 237.33,-38.46 241.88,-36.43 246.46,-34.46"/>
<polygon fill="midnightblue" stroke="midnightblue" points="247.98,-37.62 255.85,-30.53 245.27,-31.16 247.98,-37.62"/>
</g>
</g>
</svg>
