<?xml version="1.0" encoding="UTF-8" standalone="no"?>
<!DOCTYPE svg PUBLIC "-//W3C//DTD SVG 1.1//EN"
 "http://www.w3.org/Graphics/SVG/1.1/DTD/svg11.dtd">
<!-- Generated by graphviz version 2.43.0 (0)
 -->
<!-- Title: COMM::List::getDataAddress Pages: 1 -->
<svg width="348pt" height="492pt"
 viewBox="0.00 0.00 348.00 492.00" xmlns="http://www.w3.org/2000/svg" xmlns:xlink="http://www.w3.org/1999/xlink">
<g id="graph0" class="graph" transform="scale(1 1) rotate(0) translate(4 488)">
<title>COMM::List::getDataAddress</title>
<polygon fill="white" stroke="transparent" points="-4,4 -4,-488 344,-488 344,4 -4,4"/>
<!-- Node1 -->
<g id="node1" class="node">
<title>Node1</title>
<g id="a_node1"><a xlink:title="return member data array address">
<polygon fill="#bfbfbf" stroke="black" points="197,-226 197,-245 340,-245 340,-226 197,-226"/>
<text text-anchor="middle" x="268.5" y="-233" font-family="FreeSans" font-size="10.00">COMM::List::getDataAddress</text>
</a>
</g>
</g>
<!-- Node2 -->
<g id="node2" class="node">
<title>Node2</title>
<g id="a_node2"><a xlink:href="classH4_1_1HermiteIntegrator.html#aafda8d20755ddd59875994844de3f0c3" target="_top" xlink:title="calculate slowdown energy">
<polygon fill="white" stroke="black" points="23,-453.5 23,-483.5 138,-483.5 138,-453.5 23,-453.5"/>
<text text-anchor="start" x="31" y="-471.5" font-family="FreeSans" font-size="10.00">H4::HermiteIntegrator</text>
<text text-anchor="middle" x="80.5" y="-460.5" font-family="FreeSans" font-size="10.00">::calcEnergySlowDown</text>
</a>
</g>
</g>
<!-- Node1&#45;&gt;Node2 -->
<g id="edge1" class="edge">
<title>Node1&#45;&gt;Node2</title>
<path fill="none" stroke="midnightblue" d="M263.08,-254.95C252.7,-296.18 222.82,-392.82 161,-444.5 154.36,-450.05 146.47,-454.31 138.28,-457.59"/>
<polygon fill="midnightblue" stroke="midnightblue" points="266.52,-255.62 265.45,-245.08 259.71,-253.98 266.52,-255.62"/>
</g>
<!-- Node3 -->
<g id="node3" class="node">
<title>Node3</title>
<g id="a_node3"><a xlink:href="classH4_1_1HermiteIntegrator.html#afaba53fb063b55b26a02d9e4cb907b27" target="_top" xlink:title="get sorted dt index of groups">
<polygon fill="white" stroke="black" points="24.5,-404.5 24.5,-434.5 136.5,-434.5 136.5,-404.5 24.5,-404.5"/>
<text text-anchor="start" x="32.5" y="-422.5" font-family="FreeSans" font-size="10.00">H4::HermiteIntegrator</text>
<text text-anchor="middle" x="80.5" y="-411.5" font-family="FreeSans" font-size="10.00">::getSortDtIndexGroup</text>
</a>
</g>
</g>
<!-- Node1&#45;&gt;Node3 -->
<g id="edge2" class="edge">
<title>Node1&#45;&gt;Node3</title>
<path fill="none" stroke="midnightblue" d="M259.95,-254.66C245.74,-288.26 211.78,-357.82 161,-395.5 153.82,-400.83 145.46,-404.98 136.9,-408.22"/>
<polygon fill="midnightblue" stroke="midnightblue" points="263.32,-255.68 263.87,-245.1 256.84,-253.02 263.32,-255.68"/>
</g>
<!-- Node4 -->
<g id="node4" class="node">
<title>Node4</title>
<g id="a_node4"><a xlink:href="classH4_1_1HermiteIntegrator.html#a0733c6183aaba7c2d7095e1d34ce3b6a" target="_top" xlink:title="get sorted dt index of singles">
<polygon fill="white" stroke="black" points="24,-355.5 24,-385.5 137,-385.5 137,-355.5 24,-355.5"/>
<text text-anchor="start" x="32" y="-373.5" font-family="FreeSans" font-size="10.00">H4::HermiteIntegrator</text>
<text text-anchor="middle" x="80.5" y="-362.5" font-family="FreeSans" font-size="10.00">::getSortDtIndexSingle</text>
</a>
</g>
</g>
<!-- Node1&#45;&gt;Node4 -->
<g id="edge3" class="edge">
<title>Node1&#45;&gt;Node4</title>
<path fill="none" stroke="midnightblue" d="M254.6,-253.62C236.4,-277.92 200.91,-320.86 161,-345.5 153.74,-349.98 145.6,-353.73 137.37,-356.84"/>
<polygon fill="midnightblue" stroke="midnightblue" points="257.62,-255.43 260.71,-245.3 251.97,-251.29 257.62,-255.43"/>
</g>
<!-- Node5 -->
<g id="node5" class="node">
<title>Node5</title>
<g id="a_node5"><a xlink:href="classH4_1_1ARInformation.html#a7302705f0a8042febbc8a86ce8fb0abc" target="_top" xlink:title="get two branch particle index">
<polygon fill="white" stroke="black" points="0,-295 0,-336 161,-336 161,-295 0,-295"/>
<text text-anchor="start" x="8" y="-324" font-family="FreeSans" font-size="10.00">H4::ARInformation::</text>
<text text-anchor="start" x="8" y="-313" font-family="FreeSans" font-size="10.00">getTwoBranchParticleIndexOrigin</text>
<text text-anchor="middle" x="80.5" y="-302" font-family="FreeSans" font-size="10.00">FromBinaryTree</text>
</a>
</g>
</g>
<!-- Node1&#45;&gt;Node5 -->
<g id="edge4" class="edge">
<title>Node1&#45;&gt;Node5</title>
<path fill="none" stroke="midnightblue" d="M238.94,-249.65C217.65,-260.02 187.76,-274.19 161,-285.5 153.53,-288.66 145.59,-291.84 137.75,-294.9"/>
<polygon fill="midnightblue" stroke="midnightblue" points="240.63,-252.72 248.08,-245.18 237.56,-246.43 240.63,-252.72"/>
</g>
<!-- Node6 -->
<g id="node6" class="node">
<title>Node6</title>
<g id="a_node6"><a xlink:href="classAR_1_1TimeTransformedSymplecticIntegrator.html#adc635c0084f56558f2e87c86d1a80b00" target="_top" xlink:title="initialization for integration">
<polygon fill="white" stroke="black" points="1,-245.5 1,-275.5 160,-275.5 160,-245.5 1,-245.5"/>
<text text-anchor="start" x="9" y="-263.5" font-family="FreeSans" font-size="10.00">AR::TimeTransformedSymplectic</text>
<text text-anchor="middle" x="80.5" y="-252.5" font-family="FreeSans" font-size="10.00">Integrator::initialIntegration</text>
</a>
</g>
</g>
<!-- Node1&#45;&gt;Node6 -->
<g id="edge5" class="edge">
<title>Node1&#45;&gt;Node6</title>
<path fill="none" stroke="midnightblue" d="M186.95,-246.33C178.05,-247.52 169,-248.74 160.12,-249.93"/>
<polygon fill="midnightblue" stroke="midnightblue" points="187.47,-249.79 196.92,-244.99 186.54,-242.85 187.47,-249.79"/>
</g>
<!-- Node7 -->
<g id="node7" class="node">
<title>Node7</title>
<g id="a_node7"><a xlink:href="classH4_1_1HermiteIntegrator.html#a6e40f52b15e96a4d4e7f3cf89241e300" target="_top" xlink:title="Initial Hermite integrator.">
<polygon fill="white" stroke="black" points="25.5,-196.5 25.5,-226.5 135.5,-226.5 135.5,-196.5 25.5,-196.5"/>
<text text-anchor="start" x="33.5" y="-214.5" font-family="FreeSans" font-size="10.00">H4::HermiteIntegrator</text>
<text text-anchor="middle" x="80.5" y="-203.5" font-family="FreeSans" font-size="10.00">::initialIntegration</text>
</a>
</g>
</g>
<!-- Node1&#45;&gt;Node7 -->
<g id="edge6" class="edge">
<title>Node1&#45;&gt;Node7</title>
<path fill="none" stroke="midnightblue" d="M186.8,-225.09C169.46,-222.85 151.55,-220.54 135.52,-218.47"/>
<polygon fill="midnightblue" stroke="midnightblue" points="186.55,-228.58 196.92,-226.39 187.45,-221.64 186.55,-228.58"/>
</g>
<!-- Node8 -->
<g id="node8" class="node">
<title>Node8</title>
<g id="a_node8"><a xlink:href="classH4_1_1HermiteIntegrator.html#a1aaef2826d6bb2c6cc4cafef39fbfaca" target="_top" xlink:title="Integration single active particles and update steps.">
<polygon fill="white" stroke="black" points="11,-147.5 11,-177.5 150,-177.5 150,-147.5 11,-147.5"/>
<text text-anchor="start" x="19" y="-165.5" font-family="FreeSans" font-size="10.00">H4::HermiteIntegrator</text>
<text text-anchor="middle" x="80.5" y="-154.5" font-family="FreeSans" font-size="10.00">::integrateSingleOneStepAct</text>
</a>
</g>
</g>
<!-- Node1&#45;&gt;Node8 -->
<g id="edge7" class="edge">
<title>Node1&#45;&gt;Node8</title>
<path fill="none" stroke="midnightblue" d="M239.06,-221.57C217.83,-211.44 187.95,-197.77 161,-187.5 151.94,-184.05 142.18,-180.69 132.7,-177.61"/>
<polygon fill="midnightblue" stroke="midnightblue" points="237.64,-224.77 248.16,-225.95 240.67,-218.46 237.64,-224.77"/>
</g>
<!-- Node9 -->
<g id="node9" class="node">
<title>Node9</title>
<g id="a_node9"><a xlink:href="classAR_1_1TimeTransformedSymplecticIntegrator.html#afe193a9d85bdc145e13caca127824665" target="_top" xlink:title=" ">
<polygon fill="white" stroke="black" points="1,-98.5 1,-128.5 160,-128.5 160,-98.5 1,-98.5"/>
<text text-anchor="start" x="9" y="-116.5" font-family="FreeSans" font-size="10.00">AR::TimeTransformedSymplectic</text>
<text text-anchor="middle" x="80.5" y="-105.5" font-family="FreeSans" font-size="10.00">Integrator::integrateToTime</text>
</a>
</g>
</g>
<!-- Node1&#45;&gt;Node9 -->
<g id="edge8" class="edge">
<title>Node1&#45;&gt;Node9</title>
<path fill="none" stroke="midnightblue" d="M252.72,-218C233.61,-196.42 198.33,-159.96 161,-138.5 154.35,-134.68 147.05,-131.37 139.65,-128.52"/>
<polygon fill="midnightblue" stroke="midnightblue" points="250.24,-220.49 259.44,-225.74 255.53,-215.9 250.24,-220.49"/>
</g>
<!-- Node10 -->
<g id="node10" class="node">
<title>Node10</title>
<g id="a_node10"><a xlink:href="classAR_1_1TimeTransformedSymplecticIntegrator.html#aa9bc3285b782123da733df7d123a4ad6" target="_top" xlink:title="integration for two body one step">
<polygon fill="white" stroke="black" points="1,-49.5 1,-79.5 160,-79.5 160,-49.5 1,-49.5"/>
<text text-anchor="start" x="9" y="-67.5" font-family="FreeSans" font-size="10.00">AR::TimeTransformedSymplectic</text>
<text text-anchor="middle" x="80.5" y="-56.5" font-family="FreeSans" font-size="10.00">Integrator::integrateTwoOneStep</text>
</a>
</g>
</g>
<!-- Node1&#45;&gt;Node10 -->
<g id="edge9" class="edge">
<title>Node1&#45;&gt;Node10</title>
<path fill="none" stroke="midnightblue" d="M258.59,-216.34C243.14,-185.17 208.4,-123.53 161,-89.5 155.59,-85.62 149.56,-82.33 143.31,-79.53"/>
<polygon fill="midnightblue" stroke="midnightblue" points="255.59,-218.18 263.09,-225.66 261.9,-215.14 255.59,-218.18"/>
</g>
<!-- Node11 -->
<g id="node11" class="node">
<title>Node11</title>
<g id="a_node11"><a xlink:href="classH4_1_1HermiteIntegrator.html#ac1d71ee127f38f68e0d767edde2fc7de" target="_top" xlink:title="sort time step array and select active particles">
<polygon fill="white" stroke="black" points="10.5,-0.5 10.5,-30.5 150.5,-30.5 150.5,-0.5 10.5,-0.5"/>
<text text-anchor="start" x="18.5" y="-18.5" font-family="FreeSans" font-size="10.00">H4::HermiteIntegrator</text>
<text text-anchor="middle" x="80.5" y="-7.5" font-family="FreeSans" font-size="10.00">::sortDtAndSelectActParticle</text>
</a>
</g>
</g>
<!-- Node1&#45;&gt;Node11 -->
<g id="edge10" class="edge">
<title>Node1&#45;&gt;Node11</title>
<path fill="none" stroke="midnightblue" d="M262.25,-216.06C250.69,-176.95 219.3,-88.4 161,-40.5 156.3,-36.64 151.01,-33.38 145.44,-30.61"/>
<polygon fill="midnightblue" stroke="midnightblue" points="258.89,-217.05 264.99,-225.71 265.62,-215.13 258.89,-217.05"/>
</g>
</g>
</svg>
