<?xml version="1.0" encoding="UTF-8" standalone="no"?>
<!DOCTYPE svg PUBLIC "-//W3C//DTD SVG 1.1//EN"
 "http://www.w3.org/Graphics/SVG/1.1/DTD/svg11.dtd">
<!-- Generated by graphviz version 2.38.0 (20140413.2041)
 -->
<!-- Title: H4::ARInformation&lt; Tparticle &gt; Pages: 1 -->
<svg width="142pt" height="117pt"
 viewBox="0.00 0.00 142.00 117.00" xmlns="http://www.w3.org/2000/svg" xmlns:xlink="http://www.w3.org/1999/xlink">
<g id="graph0" class="graph" transform="scale(1 1) rotate(0) translate(4 113)">
<title>H4::ARInformation&lt; Tparticle &gt;</title>
<polygon fill="white" stroke="none" points="-4,4 -4,-113 138,-113 138,4 -4,4"/>
<!-- Node1 -->
<g id="node1" class="node"><title>Node1</title>
<polygon fill="#bfbfbf" stroke="black" points="16.5,-0.5 16.5,-30.5 117.5,-30.5 117.5,-0.5 16.5,-0.5"/>
<text text-anchor="start" x="24.5" y="-18.5" font-family="FreeSans" font-size="10.00">H4::ARInformation&lt;</text>
<text text-anchor="middle" x="67" y="-7.5" font-family="FreeSans" font-size="10.00"> Tparticle &gt;</text>
</g>
<!-- Node2 -->
<g id="node2" class="node"><title>Node2</title>
<g id="a_node2"><a xlink:href="classAR_1_1Information.html" target="_top" xlink:title="AR::Information\&lt; Particle\lAR\&lt; Tparticle \&gt;, ParticleH4\l\&lt; Tparticle \&gt; \&gt;">
<polygon fill="white" stroke="black" points="0,-67.5 0,-108.5 134,-108.5 134,-67.5 0,-67.5"/>
<text text-anchor="start" x="8" y="-96.5" font-family="FreeSans" font-size="10.00">AR::Information&lt; Particle</text>
<text text-anchor="start" x="8" y="-85.5" font-family="FreeSans" font-size="10.00">AR&lt; Tparticle &gt;, ParticleH4</text>
<text text-anchor="middle" x="67" y="-74.5" font-family="FreeSans" font-size="10.00">&lt; Tparticle &gt; &gt;</text>
</a>
</g>
</g>
<!-- Node2&#45;&gt;Node1 -->
<g id="edge1" class="edge"><title>Node2&#45;&gt;Node1</title>
<path fill="none" stroke="midnightblue" d="M67,-57.08C67,-48.0061 67,-38.4498 67,-30.8916"/>
<polygon fill="midnightblue" stroke="midnightblue" points="63.5001,-57.3618 67,-67.3618 70.5001,-57.3619 63.5001,-57.3618"/>
</g>
</g>
</svg>
