<?xml version="1.0" encoding="UTF-8" standalone="no"?>
<!DOCTYPE svg PUBLIC "-//W3C//DTD SVG 1.1//EN"
 "http://www.w3.org/Graphics/SVG/1.1/DTD/svg11.dtd">
<!-- Generated by graphviz version 2.43.0 (0)
 -->
<!-- Title: COMM::List::resizeNoInitialize Pages: 1 -->
<svg width="495pt" height="186pt"
 viewBox="0.00 0.00 495.00 186.00" xmlns="http://www.w3.org/2000/svg" xmlns:xlink="http://www.w3.org/1999/xlink">
<g id="graph0" class="graph" transform="scale(1 1) rotate(0) translate(4 182)">
<title>COMM::List::resizeNoInitialize</title>
<polygon fill="white" stroke="transparent" points="-4,4 -4,-182 491,-182 491,4 -4,4"/>
<!-- Node1 -->
<g id="node1" class="node">
<title>Node1</title>
<g id="a_node1"><a xlink:title="increase size without initialization">
<polygon fill="#bfbfbf" stroke="black" points="341,-79 341,-98 487,-98 487,-79 341,-79"/>
<text text-anchor="middle" x="414" y="-86" font-family="FreeSans" font-size="10.00">COMM::List::resizeNoInitialize</text>
</a>
</g>
</g>
<!-- Node2 -->
<g id="node2" class="node">
<title>Node2</title>
<g id="a_node2"><a xlink:href="classH4_1_1HermiteIntegrator.html#aa2e53961f55ac16a239a07471cbe6110" target="_top" xlink:title="Check break condition.">
<polygon fill="white" stroke="black" points="170.5,-147.5 170.5,-177.5 280.5,-177.5 280.5,-147.5 170.5,-147.5"/>
<text text-anchor="start" x="178.5" y="-165.5" font-family="FreeSans" font-size="10.00">H4::HermiteIntegrator</text>
<text text-anchor="middle" x="225.5" y="-154.5" font-family="FreeSans" font-size="10.00">::checkBreak</text>
</a>
</g>
</g>
<!-- Node1&#45;&gt;Node2 -->
<g id="edge1" class="edge">
<title>Node1&#45;&gt;Node2</title>
<path fill="none" stroke="midnightblue" d="M385.01,-102.75C363.47,-113.39 332.78,-127.88 305,-138.5 296.75,-141.66 287.89,-144.69 279.2,-147.48"/>
<polygon fill="midnightblue" stroke="midnightblue" points="386.83,-105.75 394.22,-98.15 383.71,-99.48 386.83,-105.75"/>
</g>
<!-- Node4 -->
<g id="node4" class="node">
<title>Node4</title>
<g id="a_node4"><a xlink:href="classAR_1_1TimeTransformedSymplecticIntegrator.html#adc635c0084f56558f2e87c86d1a80b00" target="_top" xlink:title="initialization for integration">
<polygon fill="white" stroke="black" points="146,-98.5 146,-128.5 305,-128.5 305,-98.5 146,-98.5"/>
<text text-anchor="start" x="154" y="-116.5" font-family="FreeSans" font-size="10.00">AR::TimeTransformedSymplectic</text>
<text text-anchor="middle" x="225.5" y="-105.5" font-family="FreeSans" font-size="10.00">Integrator::initialIntegration</text>
</a>
</g>
</g>
<!-- Node1&#45;&gt;Node4 -->
<g id="edge3" class="edge">
<title>Node1&#45;&gt;Node4</title>
<path fill="none" stroke="midnightblue" d="M331.98,-99.36C323.07,-100.56 314.01,-101.77 305.12,-102.96"/>
<polygon fill="midnightblue" stroke="midnightblue" points="332.51,-102.82 341.96,-98.02 331.58,-95.88 332.51,-102.82"/>
</g>
<!-- Node5 -->
<g id="node5" class="node">
<title>Node5</title>
<g id="a_node5"><a xlink:href="classH4_1_1HermiteIntegrator.html#ae588ac618961f983b7c8710b2e6a65dc" target="_top" xlink:title="Initial system array.">
<polygon fill="white" stroke="black" points="170.5,-49.5 170.5,-79.5 280.5,-79.5 280.5,-49.5 170.5,-49.5"/>
<text text-anchor="start" x="178.5" y="-67.5" font-family="FreeSans" font-size="10.00">H4::HermiteIntegrator</text>
<text text-anchor="middle" x="225.5" y="-56.5" font-family="FreeSans" font-size="10.00">::initialSystemSingle</text>
</a>
</g>
</g>
<!-- Node1&#45;&gt;Node5 -->
<g id="edge4" class="edge">
<title>Node1&#45;&gt;Node5</title>
<path fill="none" stroke="midnightblue" d="M330.96,-77.94C313.97,-75.76 296.47,-73.5 280.77,-71.48"/>
<polygon fill="midnightblue" stroke="midnightblue" points="330.53,-81.42 340.89,-79.22 331.42,-74.47 330.53,-81.42"/>
</g>
<!-- Node6 -->
<g id="node6" class="node">
<title>Node6</title>
<g id="a_node6"><a xlink:href="classAR_1_1TimeTransformedSymplecticIntegrator.html#a9a5c7bd3dfff2fd3ab96fd639ec30d27" target="_top" xlink:title="read class data with BINARY format and initial the array">
<polygon fill="white" stroke="black" points="146,-0.5 146,-30.5 305,-30.5 305,-0.5 146,-0.5"/>
<text text-anchor="start" x="154" y="-18.5" font-family="FreeSans" font-size="10.00">AR::TimeTransformedSymplectic</text>
<text text-anchor="middle" x="225.5" y="-7.5" font-family="FreeSans" font-size="10.00">Integrator::readBinary</text>
</a>
</g>
</g>
<!-- Node1&#45;&gt;Node6 -->
<g id="edge5" class="edge">
<title>Node1&#45;&gt;Node6</title>
<path fill="none" stroke="midnightblue" d="M384.13,-74.63C362.58,-64.53 332.28,-50.87 305,-40.5 295.91,-37.04 286.11,-33.66 276.62,-30.55"/>
<polygon fill="midnightblue" stroke="midnightblue" points="382.83,-77.89 393.37,-78.99 385.82,-71.56 382.83,-77.89"/>
</g>
<!-- Node3 -->
<g id="node3" class="node">
<title>Node3</title>
<g id="a_node3"><a xlink:href="classH4_1_1HermiteIntegrator.html#a4681b656dd42eae01d3d85e66ac55112" target="_top" xlink:title="adjust groups">
<polygon fill="white" stroke="black" points="0,-147.5 0,-177.5 110,-177.5 110,-147.5 0,-147.5"/>
<text text-anchor="start" x="8" y="-165.5" font-family="FreeSans" font-size="10.00">H4::HermiteIntegrator</text>
<text text-anchor="middle" x="55" y="-154.5" font-family="FreeSans" font-size="10.00">::adjustGroups</text>
</a>
</g>
</g>
<!-- Node2&#45;&gt;Node3 -->
<g id="edge2" class="edge">
<title>Node2&#45;&gt;Node3</title>
<path fill="none" stroke="midnightblue" d="M160.15,-162.5C143.65,-162.5 126.07,-162.5 110.14,-162.5"/>
<polygon fill="midnightblue" stroke="midnightblue" points="160.26,-166 170.26,-162.5 160.26,-159 160.26,-166"/>
</g>
</g>
</svg>
