<?xml version="1.0" encoding="UTF-8" standalone="no"?>
<!DOCTYPE svg PUBLIC "-//W3C//DTD SVG 1.1//EN"
 "http://www.w3.org/Graphics/SVG/1.1/DTD/svg11.dtd">
<!-- Generated by graphviz version 2.38.0 (20140413.2041)
 -->
<!-- Title: AR::TimeTransformedSymplecticIntegrator::reserveIntegratorMem Pages: 1 -->
<svg width="326pt" height="116pt"
 viewBox="0.00 0.00 326.00 115.50" xmlns="http://www.w3.org/2000/svg" xmlns:xlink="http://www.w3.org/1999/xlink">
<g id="graph0" class="graph" transform="scale(1 1) rotate(0) translate(4 111.5)">
<title>AR::TimeTransformedSymplecticIntegrator::reserveIntegratorMem</title>
<polygon fill="white" stroke="none" points="-4,4 -4,-111.5 322,-111.5 322,4 -4,4"/>
<!-- Node1 -->
<g id="node1" class="node"><title>Node1</title>
<polygon fill="#bfbfbf" stroke="black" points="-2.84217e-14,-33 -2.84217e-14,-63 158,-63 158,-33 -2.84217e-14,-33"/>
<text text-anchor="start" x="8" y="-51" font-family="FreeSans" font-size="10.00">AR::TimeTransformedSymplectic</text>
<text text-anchor="middle" x="79" y="-40" font-family="FreeSans" font-size="10.00">Integrator::reserveIntegratorMem</text>
</g>
<!-- Node2 -->
<g id="node2" class="node"><title>Node2</title>
<g id="a_node2"><a xlink:href="classCOMM_1_1List.html#af3b49aeea643123fe2428af456c3fc77" target="_top" xlink:title="Get maximum member number allow to store. ">
<polygon fill="white" stroke="black" points="199.5,-77 199.5,-107 312.5,-107 312.5,-77 199.5,-77"/>
<text text-anchor="start" x="207.5" y="-95" font-family="FreeSans" font-size="10.00">COMM::List&lt; Tparticle</text>
<text text-anchor="middle" x="256" y="-84" font-family="FreeSans" font-size="10.00"> &gt;::getSizeMax</text>
</a>
</g>
</g>
<!-- Node1&#45;&gt;Node2 -->
<g id="edge1" class="edge"><title>Node1&#45;&gt;Node2</title>
<path fill="none" stroke="midnightblue" d="M139.736,-63.0192C155.725,-67.0395 173.095,-71.4066 189.383,-75.502"/>
<polygon fill="midnightblue" stroke="midnightblue" points="188.811,-78.9672 199.363,-78.0113 190.518,-72.1785 188.811,-78.9672"/>
</g>
<!-- Node3 -->
<g id="node3" class="node"><title>Node3</title>
<g id="a_node3"><a xlink:href="classCOMM_1_1List.html#a10c70f9a45d06c2589898cbaf1e4fbf8" target="_top" xlink:title="set mode ">
<polygon fill="white" stroke="black" points="202,-38.5 202,-57.5 310,-57.5 310,-38.5 202,-38.5"/>
<text text-anchor="middle" x="256" y="-45.5" font-family="FreeSans" font-size="10.00">COMM::List::setMode</text>
</a>
</g>
</g>
<!-- Node1&#45;&gt;Node3 -->
<g id="edge2" class="edge"><title>Node1&#45;&gt;Node3</title>
<path fill="none" stroke="midnightblue" d="M158.032,-48C169.29,-48 180.761,-48 191.685,-48"/>
<polygon fill="midnightblue" stroke="midnightblue" points="191.967,-51.5001 201.967,-48 191.967,-44.5001 191.967,-51.5001"/>
</g>
<!-- Node4 -->
<g id="node4" class="node"><title>Node4</title>
<g id="a_node4"><a xlink:href="classCOMM_1_1List.html#a7f125554959409d40217deb7402c0de9" target="_top" xlink:title="Memory allocation for storing members. ">
<polygon fill="white" stroke="black" points="194,-0.5 194,-19.5 318,-19.5 318,-0.5 194,-0.5"/>
<text text-anchor="middle" x="256" y="-7.5" font-family="FreeSans" font-size="10.00">COMM::List::reserveMem</text>
</a>
</g>
</g>
<!-- Node1&#45;&gt;Node4 -->
<g id="edge3" class="edge"><title>Node1&#45;&gt;Node4</title>
<path fill="none" stroke="midnightblue" d="M149.165,-32.9814C166.491,-29.219 184.822,-25.2386 201.272,-21.6666"/>
<polygon fill="midnightblue" stroke="midnightblue" points="202.216,-25.0433 211.246,-19.5009 200.731,-18.2027 202.216,-25.0433"/>
</g>
</g>
</svg>
