<?xml version="1.0" encoding="UTF-8" standalone="no"?>
<!DOCTYPE svg PUBLIC "-//W3C//DTD SVG 1.1//EN"
 "http://www.w3.org/Graphics/SVG/1.1/DTD/svg11.dtd">
<!-- Generated by graphviz version 2.43.0 (0)
 -->
<!-- Title: COMM::List::setMode Pages: 1 -->
<svg width="313pt" height="186pt"
 viewBox="0.00 0.00 313.00 186.00" xmlns="http://www.w3.org/2000/svg" xmlns:xlink="http://www.w3.org/1999/xlink">
<g id="graph0" class="graph" transform="scale(1 1) rotate(0) translate(4 182)">
<title>COMM::List::setMode</title>
<polygon fill="white" stroke="transparent" points="-4,4 -4,-182 309,-182 309,4 -4,4"/>
<!-- Node1 -->
<g id="node1" class="node">
<title>Node1</title>
<g id="a_node1"><a xlink:title="set mode">
<polygon fill="#bfbfbf" stroke="black" points="195,-79 195,-98 305,-98 305,-79 195,-79"/>
<text text-anchor="middle" x="250" y="-86" font-family="FreeSans" font-size="10.00">COMM::List::setMode</text>
</a>
</g>
</g>
<!-- Node2 -->
<g id="node2" class="node">
<title>Node2</title>
<g id="a_node2"><a xlink:href="classAR_1_1TimeTransformedSymplecticIntegrator.html#a9a5c7bd3dfff2fd3ab96fd639ec30d27" target="_top" xlink:title="read class data with BINARY format and initial the array">
<polygon fill="white" stroke="black" points="0,-147.5 0,-177.5 159,-177.5 159,-147.5 0,-147.5"/>
<text text-anchor="start" x="8" y="-165.5" font-family="FreeSans" font-size="10.00">AR::TimeTransformedSymplectic</text>
<text text-anchor="middle" x="79.5" y="-154.5" font-family="FreeSans" font-size="10.00">Integrator::readBinary</text>
</a>
</g>
</g>
<!-- Node1&#45;&gt;Node2 -->
<g id="edge1" class="edge">
<title>Node1&#45;&gt;Node2</title>
<path fill="none" stroke="midnightblue" d="M225.33,-103.46C207.57,-114.23 182.39,-128.56 159,-138.5 151.39,-141.73 143.2,-144.73 135.09,-147.44"/>
<polygon fill="midnightblue" stroke="midnightblue" points="227.21,-106.41 233.89,-98.19 223.54,-100.45 227.21,-106.41"/>
</g>
<!-- Node3 -->
<g id="node3" class="node">
<title>Node3</title>
<g id="a_node3"><a xlink:href="classAR_1_1TimeTransformedSymplecticIntegrator.html#ac00641c72ad0f21c9796e8e6cb574530" target="_top" xlink:title="reserve memory for force">
<polygon fill="white" stroke="black" points="0,-98.5 0,-128.5 159,-128.5 159,-98.5 0,-98.5"/>
<text text-anchor="start" x="8" y="-116.5" font-family="FreeSans" font-size="10.00">AR::TimeTransformedSymplectic</text>
<text text-anchor="middle" x="79.5" y="-105.5" font-family="FreeSans" font-size="10.00">Integrator::reserveIntegratorMem</text>
</a>
</g>
</g>
<!-- Node1&#45;&gt;Node3 -->
<g id="edge2" class="edge">
<title>Node1&#45;&gt;Node3</title>
<path fill="none" stroke="midnightblue" d="M184.73,-98.04C176.37,-99.28 167.74,-100.56 159.18,-101.83"/>
<polygon fill="midnightblue" stroke="midnightblue" points="185.38,-101.48 194.76,-96.55 184.35,-94.55 185.38,-101.48"/>
</g>
<!-- Node4 -->
<g id="node4" class="node">
<title>Node4</title>
<g id="a_node4"><a xlink:href="classH4_1_1HermiteIntegrator.html#ab37772f7b30dbb9cc6de51bf58a20fae" target="_top" xlink:title="reserve memory for system">
<polygon fill="white" stroke="black" points="21.5,-49.5 21.5,-79.5 137.5,-79.5 137.5,-49.5 21.5,-49.5"/>
<text text-anchor="start" x="29.5" y="-67.5" font-family="FreeSans" font-size="10.00">H4::HermiteIntegrator</text>
<text text-anchor="middle" x="79.5" y="-56.5" font-family="FreeSans" font-size="10.00">::reserveIntegratorMem</text>
</a>
</g>
</g>
<!-- Node1&#45;&gt;Node4 -->
<g id="edge3" class="edge">
<title>Node1&#45;&gt;Node4</title>
<path fill="none" stroke="midnightblue" d="M184.72,-79.34C169.19,-77.13 152.71,-74.79 137.54,-72.62"/>
<polygon fill="midnightblue" stroke="midnightblue" points="184.36,-82.83 194.76,-80.77 185.35,-75.9 184.36,-82.83"/>
</g>
<!-- Node5 -->
<g id="node5" class="node">
<title>Node5</title>
<g id="a_node5"><a xlink:href="classH4_1_1ARInformation.html#a2bebff4ce2ba995af165f03e72b6b088" target="_top" xlink:title="reserve memory">
<polygon fill="white" stroke="black" points="29,-0.5 29,-30.5 130,-30.5 130,-0.5 29,-0.5"/>
<text text-anchor="start" x="37" y="-18.5" font-family="FreeSans" font-size="10.00">H4::ARInformation::</text>
<text text-anchor="middle" x="79.5" y="-7.5" font-family="FreeSans" font-size="10.00">reserveMem</text>
</a>
</g>
</g>
<!-- Node1&#45;&gt;Node5 -->
<g id="edge4" class="edge">
<title>Node1&#45;&gt;Node5</title>
<path fill="none" stroke="midnightblue" d="M224.08,-73.63C206.34,-63.44 181.72,-50.08 159,-40.5 149.91,-36.66 140.01,-33.08 130.41,-29.89"/>
<polygon fill="midnightblue" stroke="midnightblue" points="222.77,-76.91 233.17,-78.92 226.29,-70.87 222.77,-76.91"/>
</g>
</g>
</svg>
