<?xml version="1.0" encoding="UTF-8" standalone="no"?>
<!DOCTYPE svg PUBLIC "-//W3C//DTD SVG 1.1//EN"
 "http://www.w3.org/Graphics/SVG/1.1/DTD/svg11.dtd">
<!-- Generated by graphviz version 2.38.0 (20140413.2041)
 -->
<!-- Title: H4::HermiteIntegrator&lt; Tparticle, Tpcm, Tpert, TARpert, Tacc, TARacc, Tinfo &gt; Pages: 1 -->
<svg width="914pt" height="319pt"
 viewBox="0.00 0.00 914.00 318.50" xmlns="http://www.w3.org/2000/svg" xmlns:xlink="http://www.w3.org/1999/xlink">
<g id="graph0" class="graph" transform="scale(1 1) rotate(0) translate(4 314.5)">
<title>H4::HermiteIntegrator&lt; Tparticle, Tpcm, Tpert, TARpert, Tacc, TARacc, Tinfo &gt;</title>
<polygon fill="white" stroke="none" points="-4,4 -4,-314.5 910,-314.5 910,4 -4,4"/>
<!-- Node1 -->
<g id="node1" class="node"><title>Node1</title>
<polygon fill="#bfbfbf" stroke="black" points="781,-101.5 781,-153.5 906,-153.5 906,-101.5 781,-101.5"/>
<text text-anchor="start" x="789" y="-141.5" font-family="FreeSans" font-size="10.00">H4::HermiteIntegrator</text>
<text text-anchor="start" x="789" y="-130.5" font-family="FreeSans" font-size="10.00">&lt; Tparticle, Tpcm, Tpert,</text>
<text text-anchor="start" x="789" y="-119.5" font-family="FreeSans" font-size="10.00"> TARpert, Tacc, TARacc,</text>
<text text-anchor="middle" x="843.5" y="-108.5" font-family="FreeSans" font-size="10.00"> Tinfo &gt;</text>
</g>
<!-- Node2 -->
<g id="node2" class="node"><title>Node2</title>
<g id="a_node2"><a xlink:href="classCOMM_1_1ParticleGroup.html" target="_top" xlink:title="COMM::ParticleGroup\l\&lt; H4::ParticleH4, Tpcm \&gt;">
<polygon fill="white" stroke="black" points="544,-235.5 544,-265.5 669,-265.5 669,-235.5 544,-235.5"/>
<text text-anchor="start" x="552" y="-253.5" font-family="FreeSans" font-size="10.00">COMM::ParticleGroup</text>
<text text-anchor="middle" x="606.5" y="-242.5" font-family="FreeSans" font-size="10.00">&lt; H4::ParticleH4, Tpcm &gt;</text>
</a>
</g>
</g>
<!-- Node2&#45;&gt;Node1 -->
<g id="edge1" class="edge"><title>Node2&#45;&gt;Node1</title>
<path fill="none" stroke="#9a32cd" stroke-dasharray="5,2" d="M675.542,-232.286C680.82,-230.466 686.026,-228.534 691,-226.5 735.642,-208.246 781.217,-176.289 810.557,-153.625"/>
<polygon fill="#9a32cd" stroke="#9a32cd" points="674.396,-228.979 665.998,-235.438 676.592,-235.625 674.396,-228.979"/>
<text text-anchor="middle" x="736" y="-218.5" font-family="FreeSans" font-size="10.00"> particles</text>
</g>
<!-- Node3 -->
<g id="node3" class="node"><title>Node3</title>
<g id="a_node3"><a xlink:href="classCOMM_1_1List.html" target="_top" xlink:title="COMM::List\&lt; H4::ParticleH4 \&gt;">
<polygon fill="white" stroke="black" points="309.5,-279 309.5,-298 454.5,-298 454.5,-279 309.5,-279"/>
<text text-anchor="middle" x="382" y="-286" font-family="FreeSans" font-size="10.00">COMM::List&lt; H4::ParticleH4 &gt;</text>
</a>
</g>
</g>
<!-- Node3&#45;&gt;Node2 -->
<g id="edge2" class="edge"><title>Node3&#45;&gt;Node2</title>
<path fill="none" stroke="midnightblue" d="M448.823,-277.258C478.853,-272.13 514.216,-266.09 543.738,-261.048"/>
<polygon fill="midnightblue" stroke="midnightblue" points="448.127,-273.826 438.859,-278.96 449.305,-280.727 448.127,-273.826"/>
</g>
<!-- Node4 -->
<g id="node4" class="node"><title>Node4</title>
<g id="a_node4"><a xlink:href="classH4_1_1ParticleH4.html" target="_top" xlink:title="Particle type for hermite integrator. ">
<polygon fill="white" stroke="black" points="91,-279 91,-298 223,-298 223,-279 91,-279"/>
<text text-anchor="middle" x="157" y="-286" font-family="FreeSans" font-size="10.00">H4::ParticleH4&lt; Tparticle &gt;</text>
</a>
</g>
</g>
<!-- Node4&#45;&gt;Node3 -->
<g id="edge3" class="edge"><title>Node4&#45;&gt;Node3</title>
<path fill="none" stroke="#9a32cd" stroke-dasharray="5,2" d="M233.415,-288.5C257.892,-288.5 284.97,-288.5 309.178,-288.5"/>
<polygon fill="#9a32cd" stroke="#9a32cd" points="233.1,-285 223.1,-288.5 233.1,-292 233.1,-285"/>
<text text-anchor="middle" x="263" y="-302.5" font-family="FreeSans" font-size="10.00"> adr_</text>
<text text-anchor="middle" x="263" y="-291.5" font-family="FreeSans" font-size="10.00">data_</text>
</g>
<!-- Node5 -->
<g id="node5" class="node"><title>Node5</title>
<polygon fill="white" stroke="#bfbfbf" points="0,-279 0,-298 54,-298 54,-279 0,-279"/>
<text text-anchor="middle" x="27" y="-286" font-family="FreeSans" font-size="10.00">Tparticle</text>
</g>
<!-- Node5&#45;&gt;Node4 -->
<g id="edge4" class="edge"><title>Node5&#45;&gt;Node4</title>
<path fill="none" stroke="midnightblue" d="M64.3169,-288.5C72.6684,-288.5 81.7989,-288.5 90.9578,-288.5"/>
<polygon fill="midnightblue" stroke="midnightblue" points="64.2116,-285 54.2116,-288.5 64.2115,-292 64.2116,-285"/>
</g>
<!-- Node6 -->
<g id="node6" class="node"><title>Node6</title>
<polygon fill="white" stroke="#bfbfbf" points="361.5,-241 361.5,-260 402.5,-260 402.5,-241 361.5,-241"/>
<text text-anchor="middle" x="382" y="-248" font-family="FreeSans" font-size="10.00">Tpcm</text>
</g>
<!-- Node6&#45;&gt;Node2 -->
<g id="edge5" class="edge"><title>Node6&#45;&gt;Node2</title>
<path fill="none" stroke="#9a32cd" stroke-dasharray="5,2" d="M412.749,-250.5C446.023,-250.5 500.846,-250.5 543.535,-250.5"/>
<polygon fill="#9a32cd" stroke="#9a32cd" points="412.745,-247 402.745,-250.5 412.745,-254 412.745,-247"/>
<text text-anchor="middle" x="491.5" y="-253.5" font-family="FreeSans" font-size="10.00"> cm</text>
</g>
<!-- Node7 -->
<g id="node7" class="node"><title>Node7</title>
<g id="a_node7"><a xlink:href="classCOMM_1_1List.html" target="_top" xlink:title="COMM::List\&lt; AR::TimeTransformed\lSymplecticIntegrator \&gt;">
<polygon fill="white" stroke="black" points="522,-186.5 522,-216.5 691,-216.5 691,-186.5 522,-186.5"/>
<text text-anchor="start" x="530" y="-204.5" font-family="FreeSans" font-size="10.00">COMM::List&lt; AR::TimeTransformed</text>
<text text-anchor="middle" x="606.5" y="-193.5" font-family="FreeSans" font-size="10.00">SymplecticIntegrator &gt;</text>
</a>
</g>
</g>
<!-- Node7&#45;&gt;Node1 -->
<g id="edge6" class="edge"><title>Node7&#45;&gt;Node1</title>
<path fill="none" stroke="#9a32cd" stroke-dasharray="5,2" d="M672.507,-183.754C700.487,-175.841 733.487,-166.141 763,-156.5 768.726,-154.63 774.657,-152.614 780.58,-150.549"/>
<polygon fill="#9a32cd" stroke="#9a32cd" points="671.512,-180.398 662.833,-186.476 673.407,-187.137 671.512,-180.398"/>
<text text-anchor="middle" x="736" y="-175.5" font-family="FreeSans" font-size="10.00"> groups</text>
</g>
<!-- Node8 -->
<g id="node8" class="node"><title>Node8</title>
<g id="a_node8"><a xlink:href="classAR_1_1TimeTransformedSymplecticIntegrator.html" target="_top" xlink:title="Time Transformed Symplectic integrator class for a group of particles. ">
<polygon fill="white" stroke="black" points="303,-181 303,-222 461,-222 461,-181 303,-181"/>
<text text-anchor="start" x="311" y="-210" font-family="FreeSans" font-size="10.00">AR::TimeTransformedSymplectic</text>
<text text-anchor="start" x="311" y="-199" font-family="FreeSans" font-size="10.00">Integrator&lt; Tparticle, Tpcm,</text>
<text text-anchor="middle" x="382" y="-188" font-family="FreeSans" font-size="10.00"> Tpert, Tmethod, Tinfo &gt;</text>
</a>
</g>
</g>
<!-- Node8&#45;&gt;Node7 -->
<g id="edge7" class="edge"><title>Node8&#45;&gt;Node7</title>
<path fill="none" stroke="#9a32cd" stroke-dasharray="5,2" d="M471.389,-201.5C488.034,-201.5 505.392,-201.5 521.884,-201.5"/>
<polygon fill="#9a32cd" stroke="#9a32cd" points="471.132,-198 461.132,-201.5 471.132,-205 471.132,-198"/>
<text text-anchor="middle" x="491.5" y="-215.5" font-family="FreeSans" font-size="10.00"> adr_</text>
<text text-anchor="middle" x="491.5" y="-204.5" font-family="FreeSans" font-size="10.00">data_</text>
</g>
<!-- Node9 -->
<g id="node9" class="node"><title>Node9</title>
<g id="a_node9"><a xlink:href="classAR_1_1Profile.html" target="_top" xlink:title="profiling class for AR integrator ">
<polygon fill="white" stroke="black" points="126,-211 126,-230 188,-230 188,-211 126,-211"/>
<text text-anchor="middle" x="157" y="-218" font-family="FreeSans" font-size="10.00">AR::Profile</text>
</a>
</g>
</g>
<!-- Node9&#45;&gt;Node8 -->
<g id="edge8" class="edge"><title>Node9&#45;&gt;Node8</title>
<path fill="none" stroke="#9a32cd" stroke-dasharray="5,2" d="M198.231,-217.072C227.24,-214.601 267.328,-211.185 302.57,-208.182"/>
<polygon fill="#9a32cd" stroke="#9a32cd" points="197.742,-213.601 188.075,-217.938 198.336,-220.576 197.742,-213.601"/>
<text text-anchor="middle" x="263" y="-215.5" font-family="FreeSans" font-size="10.00"> profile</text>
</g>
<!-- Node10 -->
<g id="node10" class="node"><title>Node10</title>
<g id="a_node10"><a xlink:href="classAR_1_1SlowDown.html" target="_top" xlink:title="Slow&#45;down parameter control class. ">
<polygon fill="white" stroke="black" points="117,-173 117,-192 197,-192 197,-173 117,-173"/>
<text text-anchor="middle" x="157" y="-180" font-family="FreeSans" font-size="10.00">AR::SlowDown</text>
</a>
</g>
</g>
<!-- Node10&#45;&gt;Node8 -->
<g id="edge9" class="edge"><title>Node10&#45;&gt;Node8</title>
<path fill="none" stroke="#9a32cd" stroke-dasharray="5,2" d="M207.412,-186.71C235.361,-189.091 270.949,-192.123 302.618,-194.822"/>
<polygon fill="#9a32cd" stroke="#9a32cd" points="207.36,-183.193 197.099,-185.831 206.766,-190.168 207.36,-183.193"/>
<text text-anchor="middle" x="263" y="-196.5" font-family="FreeSans" font-size="10.00"> slowdown</text>
</g>
<!-- Node11 -->
<g id="node11" class="node"><title>Node11</title>
<g id="a_node11"><a xlink:href="classAR_1_1TimeTransformedSymplecticManager.html" target="_top" xlink:title="AR::TimeTransformedSymplectic\lManager\&lt; TARacc \&gt;">
<polygon fill="white" stroke="black" points="527.5,-137.5 527.5,-167.5 685.5,-167.5 685.5,-137.5 527.5,-137.5"/>
<text text-anchor="start" x="535.5" y="-155.5" font-family="FreeSans" font-size="10.00">AR::TimeTransformedSymplectic</text>
<text text-anchor="middle" x="606.5" y="-144.5" font-family="FreeSans" font-size="10.00">Manager&lt; TARacc &gt;</text>
</a>
</g>
</g>
<!-- Node11&#45;&gt;Node1 -->
<g id="edge10" class="edge"><title>Node11&#45;&gt;Node1</title>
<path fill="none" stroke="#9a32cd" stroke-dasharray="5,2" d="M696.05,-143.08C724.332,-140.071 755,-136.808 780.929,-134.05"/>
<polygon fill="#9a32cd" stroke="#9a32cd" points="695.325,-139.637 685.752,-144.175 696.066,-146.598 695.325,-139.637"/>
<text text-anchor="middle" x="736" y="-144.5" font-family="FreeSans" font-size="10.00"> ar_manager</text>
</g>
<!-- Node12 -->
<g id="node12" class="node"><title>Node12</title>
<g id="a_node12"><a xlink:href="classAR_1_1SymplecticStep.html" target="_top" xlink:title="class to manager symplectic KD steps ">
<polygon fill="white" stroke="black" points="330.5,-143 330.5,-162 433.5,-162 433.5,-143 330.5,-143"/>
<text text-anchor="middle" x="382" y="-150" font-family="FreeSans" font-size="10.00">AR::SymplecticStep</text>
</a>
</g>
</g>
<!-- Node12&#45;&gt;Node11 -->
<g id="edge11" class="edge"><title>Node12&#45;&gt;Node11</title>
<path fill="none" stroke="#9a32cd" stroke-dasharray="5,2" d="M443.785,-152.5C469.597,-152.5 500.007,-152.5 527.451,-152.5"/>
<polygon fill="#9a32cd" stroke="#9a32cd" points="443.767,-149 433.767,-152.5 443.767,-156 443.767,-149"/>
<text text-anchor="middle" x="491.5" y="-155.5" font-family="FreeSans" font-size="10.00"> step</text>
</g>
<!-- Node13 -->
<g id="node13" class="node"><title>Node13</title>
<g id="a_node13"><a xlink:href="classH4_1_1Profile.html" target="_top" xlink:title="H4::Profile">
<polygon fill="white" stroke="black" points="576.5,-99 576.5,-118 636.5,-118 636.5,-99 576.5,-99"/>
<text text-anchor="middle" x="606.5" y="-106" font-family="FreeSans" font-size="10.00">H4::Profile</text>
</a>
</g>
</g>
<!-- Node13&#45;&gt;Node1 -->
<g id="edge12" class="edge"><title>Node13&#45;&gt;Node1</title>
<path fill="none" stroke="#9a32cd" stroke-dasharray="5,2" d="M646.643,-108.675C678.143,-109.136 723.514,-110.525 763,-114.5 768.844,-115.088 774.911,-115.834 780.969,-116.668"/>
<polygon fill="#9a32cd" stroke="#9a32cd" points="646.562,-105.173 636.52,-108.551 646.477,-112.173 646.562,-105.173"/>
<text text-anchor="middle" x="736" y="-117.5" font-family="FreeSans" font-size="10.00"> profile</text>
</g>
<!-- Node14 -->
<g id="node14" class="node"><title>Node14</title>
<g id="a_node14"><a xlink:href="classH4_1_1HermiteManager.html" target="_top" xlink:title="H4::HermiteManager\l\&lt; Tacc \&gt;">
<polygon fill="white" stroke="black" points="554.5,-49.5 554.5,-79.5 658.5,-79.5 658.5,-49.5 554.5,-49.5"/>
<text text-anchor="start" x="562.5" y="-67.5" font-family="FreeSans" font-size="10.00">H4::HermiteManager</text>
<text text-anchor="middle" x="606.5" y="-56.5" font-family="FreeSans" font-size="10.00">&lt; Tacc &gt;</text>
</a>
</g>
</g>
<!-- Node14&#45;&gt;Node1 -->
<g id="edge13" class="edge"><title>Node14&#45;&gt;Node1</title>
<path fill="none" stroke="#9a32cd" stroke-dasharray="5,2" d="M668.76,-74.6348C697.632,-80.0382 732.381,-87.4502 763,-96.5 768.825,-98.2216 774.823,-100.187 780.79,-102.274"/>
<polygon fill="#9a32cd" stroke="#9a32cd" points="669.277,-71.1713 658.81,-72.808 668.013,-78.0562 669.277,-71.1713"/>
<text text-anchor="middle" x="736" y="-99.5" font-family="FreeSans" font-size="10.00"> manager</text>
</g>
<!-- Node15 -->
<g id="node15" class="node"><title>Node15</title>
<g id="a_node15"><a xlink:href="classH4_1_1BlockTimeStep4th.html" target="_top" xlink:title="H4::BlockTimeStep4th">
<polygon fill="white" stroke="black" points="325.5,-55 325.5,-74 438.5,-74 438.5,-55 325.5,-55"/>
<text text-anchor="middle" x="382" y="-62" font-family="FreeSans" font-size="10.00">H4::BlockTimeStep4th</text>
</a>
</g>
</g>
<!-- Node15&#45;&gt;Node14 -->
<g id="edge14" class="edge"><title>Node15&#45;&gt;Node14</title>
<path fill="none" stroke="#9a32cd" stroke-dasharray="5,2" d="M448.815,-64.5C482.575,-64.5 523.075,-64.5 554.441,-64.5"/>
<polygon fill="#9a32cd" stroke="#9a32cd" points="448.572,-61.0001 438.572,-64.5 448.572,-68.0001 448.572,-61.0001"/>
<text text-anchor="middle" x="491.5" y="-67.5" font-family="FreeSans" font-size="10.00"> step</text>
</g>
<!-- Node16 -->
<g id="node16" class="node"><title>Node16</title>
<g id="a_node16"><a xlink:href="classH4_1_1TimeStep4th.html" target="_top" xlink:title="H4::TimeStep4th">
<polygon fill="white" stroke="black" points="112.5,-55 112.5,-74 201.5,-74 201.5,-55 112.5,-55"/>
<text text-anchor="middle" x="157" y="-62" font-family="FreeSans" font-size="10.00">H4::TimeStep4th</text>
</a>
</g>
</g>
<!-- Node16&#45;&gt;Node15 -->
<g id="edge15" class="edge"><title>Node16&#45;&gt;Node15</title>
<path fill="none" stroke="midnightblue" d="M211.839,-64.5C246.183,-64.5 290.595,-64.5 325.295,-64.5"/>
<polygon fill="midnightblue" stroke="midnightblue" points="211.526,-61.0001 201.526,-64.5 211.526,-68.0001 211.526,-61.0001"/>
</g>
<!-- Node17 -->
<g id="node17" class="node"><title>Node17</title>
<g id="a_node17"><a xlink:href="classCOMM_1_1List.html" target="_top" xlink:title="COMM::List\&lt; H4::Neighbor\l\&lt; Tparticle \&gt; \&gt;">
<polygon fill="white" stroke="black" points="541.5,-0.5 541.5,-30.5 671.5,-30.5 671.5,-0.5 541.5,-0.5"/>
<text text-anchor="start" x="549.5" y="-18.5" font-family="FreeSans" font-size="10.00">COMM::List&lt; H4::Neighbor</text>
<text text-anchor="middle" x="606.5" y="-7.5" font-family="FreeSans" font-size="10.00">&lt; Tparticle &gt; &gt;</text>
</a>
</g>
</g>
<!-- Node17&#45;&gt;Node1 -->
<g id="edge16" class="edge"><title>Node17&#45;&gt;Node1</title>
<path fill="none" stroke="#9a32cd" stroke-dasharray="5,2" d="M673.053,-33.5634C679.149,-35.477 685.209,-37.4688 691,-39.5 723.713,-50.9738 732.788,-52.4997 763,-69.5 779.378,-78.7161 796.36,-90.7207 810.402,-101.416"/>
<polygon fill="#9a32cd" stroke="#9a32cd" points="674.063,-30.2122 663.476,-30.6262 672.01,-36.9045 674.063,-30.2122"/>
<text text-anchor="middle" x="736" y="-72.5" font-family="FreeSans" font-size="10.00"> neighbors</text>
</g>
</g>
</svg>
