<?xml version="1.0" encoding="UTF-8" standalone="no"?>
<!DOCTYPE svg PUBLIC "-//W3C//DTD SVG 1.1//EN"
 "http://www.w3.org/Graphics/SVG/1.1/DTD/svg11.dtd">
<!-- Generated by graphviz version 2.38.0 (20140413.2041)
 -->
<!-- Title: COMM::ParticleGroup::readBinary Pages: 1 -->
<svg width="313pt" height="57pt"
 viewBox="0.00 0.00 313.00 57.00" xmlns="http://www.w3.org/2000/svg" xmlns:xlink="http://www.w3.org/1999/xlink">
<g id="graph0" class="graph" transform="scale(1 1) rotate(0) translate(4 53)">
<title>COMM::ParticleGroup::readBinary</title>
<polygon fill="white" stroke="none" points="-4,4 -4,-53 309,-53 309,4 -4,4"/>
<!-- Node1 -->
<g id="node1" class="node"><title>Node1</title>
<polygon fill="#bfbfbf" stroke="black" points="0,-0.5 0,-30.5 111,-30.5 111,-0.5 0,-0.5"/>
<text text-anchor="start" x="8" y="-18.5" font-family="FreeSans" font-size="10.00">COMM::ParticleGroup</text>
<text text-anchor="middle" x="55.5" y="-7.5" font-family="FreeSans" font-size="10.00">::readBinary</text>
</g>
<!-- Node1&#45;&gt;Node1 -->
<g id="edge1" class="edge"><title>Node1&#45;&gt;Node1</title>
<path fill="none" stroke="midnightblue" d="M25.2931,-40.9579C29.0422,-45.679 39.1111,-49 55.5,-49 82.3945,-49 92.2699,-40.0566 85.126,-30.659"/>
<polygon fill="midnightblue" stroke="midnightblue" points="28.8052,-40.8403 25.874,-30.659 21.8163,-40.446 28.8052,-40.8403"/>
</g>
<!-- Node2 -->
<g id="node2" class="node"><title>Node2</title>
<g id="a_node2"><a xlink:href="classAR_1_1TimeTransformedSymplecticIntegrator.html#a9a5c7bd3dfff2fd3ab96fd639ec30d27" target="_top" xlink:title="read class data with BINARY format and initial the array ">
<polygon fill="white" stroke="black" points="147,-0.5 147,-30.5 305,-30.5 305,-0.5 147,-0.5"/>
<text text-anchor="start" x="155" y="-18.5" font-family="FreeSans" font-size="10.00">AR::TimeTransformedSymplectic</text>
<text text-anchor="middle" x="226" y="-7.5" font-family="FreeSans" font-size="10.00">Integrator::readBinary</text>
</a>
</g>
</g>
<!-- Node1&#45;&gt;Node2 -->
<g id="edge2" class="edge"><title>Node1&#45;&gt;Node2</title>
<path fill="none" stroke="midnightblue" d="M121.222,-15.5C129.561,-15.5 138.171,-15.5 146.698,-15.5"/>
<polygon fill="midnightblue" stroke="midnightblue" points="121.207,-12.0001 111.207,-15.5 121.207,-19.0001 121.207,-12.0001"/>
</g>
</g>
</svg>
