<?xml version="1.0" encoding="UTF-8" standalone="no"?>
<!DOCTYPE svg PUBLIC "-//W3C//DTD SVG 1.1//EN"
 "http://www.w3.org/Graphics/SVG/1.1/DTD/svg11.dtd">
<!-- Generated by graphviz version 2.38.0 (20140413.2041)
 -->
<!-- Title: H4::HermiteIntegrator::breakGroups Pages: 1 -->
<svg width="278pt" height="253pt"
 viewBox="0.00 0.00 278.00 252.50" xmlns="http://www.w3.org/2000/svg" xmlns:xlink="http://www.w3.org/1999/xlink">
<g id="graph0" class="graph" transform="scale(1 1) rotate(0) translate(4 248.5)">
<title>H4::HermiteIntegrator::breakGroups</title>
<polygon fill="white" stroke="none" points="-4,4 -4,-248.5 274,-248.5 274,4 -4,4"/>
<!-- Node1 -->
<g id="node1" class="node"><title>Node1</title>
<polygon fill="#bfbfbf" stroke="black" points="0,-121 0,-151 108,-151 108,-121 0,-121"/>
<text text-anchor="start" x="8" y="-139" font-family="FreeSans" font-size="10.00">H4::HermiteIntegrator</text>
<text text-anchor="middle" x="54" y="-128" font-family="FreeSans" font-size="10.00">::breakGroups</text>
</g>
<!-- Node2 -->
<g id="node2" class="node"><title>Node2</title>
<g id="a_node2"><a xlink:href="classH4_1_1HermiteManager.html#ad5ab496b530db1dfab24bebc39fabe8e" target="_top" xlink:title="time step calculator ">
<polygon fill="white" stroke="black" points="155,-214 155,-244 259,-244 259,-214 155,-214"/>
<text text-anchor="start" x="163" y="-232" font-family="FreeSans" font-size="10.00">H4::HermiteManager</text>
<text text-anchor="middle" x="207" y="-221" font-family="FreeSans" font-size="10.00">::checkParams</text>
</a>
</g>
</g>
<!-- Node1&#45;&gt;Node2 -->
<g id="edge1" class="edge"><title>Node1&#45;&gt;Node2</title>
<path fill="none" stroke="midnightblue" d="M71.351,-151.055C88.4598,-166.214 116.596,-189.513 144,-205 146.864,-206.619 149.858,-208.174 152.919,-209.661"/>
<polygon fill="midnightblue" stroke="midnightblue" points="151.684,-212.944 162.235,-213.908 154.588,-206.575 151.684,-212.944"/>
</g>
<!-- Node3 -->
<g id="node3" class="node"><title>Node3</title>
<g id="a_node3"><a xlink:href="classCOMM_1_1List.html#aaddc8ba775e2a6504eb393d7d0c2235b" target="_top" xlink:title="Get modified status. ">
<polygon fill="white" stroke="black" points="150.5,-165 150.5,-195 263.5,-195 263.5,-165 150.5,-165"/>
<text text-anchor="start" x="158.5" y="-183" font-family="FreeSans" font-size="10.00">COMM::List&lt; Tparticle</text>
<text text-anchor="middle" x="207" y="-172" font-family="FreeSans" font-size="10.00"> &gt;::isModified</text>
</a>
</g>
</g>
<!-- Node1&#45;&gt;Node3 -->
<g id="edge2" class="edge"><title>Node1&#45;&gt;Node3</title>
<path fill="none" stroke="midnightblue" d="M106.543,-151.019C118.745,-154.575 131.879,-158.402 144.475,-162.072"/>
<polygon fill="midnightblue" stroke="midnightblue" points="143.853,-165.536 154.433,-164.974 145.811,-158.816 143.853,-165.536"/>
</g>
<!-- Node4 -->
<g id="node4" class="node"><title>Node4</title>
<g id="a_node4"><a xlink:href="classCOMM_1_1List.html#af1c92acd831f62c52f3385a71d6403e7" target="_top" xlink:title="get current member number ">
<polygon fill="white" stroke="black" points="155,-126.5 155,-145.5 259,-145.5 259,-126.5 155,-126.5"/>
<text text-anchor="middle" x="207" y="-133.5" font-family="FreeSans" font-size="10.00">COMM::List::getSize</text>
</a>
</g>
</g>
<!-- Node1&#45;&gt;Node4 -->
<g id="edge3" class="edge"><title>Node1&#45;&gt;Node4</title>
<path fill="none" stroke="midnightblue" d="M108.237,-129.518C120.045,-129.226 132.65,-129.173 144.749,-129.358"/>
<polygon fill="midnightblue" stroke="midnightblue" points="144.693,-132.858 154.765,-129.57 144.841,-125.859 144.693,-132.858"/>
</g>
<!-- Node1&#45;&gt;Node4 -->
<g id="edge4" class="edge"><title>Node1&#45;&gt;Node4</title>
<path fill="none" stroke="midnightblue" d="M108.237,-142.482C120.045,-142.774 132.65,-142.827 144.749,-142.642"/>
<polygon fill="midnightblue" stroke="midnightblue" points="144.841,-146.141 154.765,-142.43 144.693,-139.142 144.841,-146.141"/>
</g>
<!-- Node5 -->
<g id="node5" class="node"><title>Node5</title>
<g id="a_node5"><a xlink:href="classCOMM_1_1List.html#adeefdc2865fe56e2413b2cada9772a5e" target="_top" xlink:title="copy one member and its address ">
<polygon fill="white" stroke="black" points="146,-88.5 146,-107.5 268,-107.5 268,-88.5 146,-88.5"/>
<text text-anchor="middle" x="207" y="-95.5" font-family="FreeSans" font-size="10.00">COMM::List::addMember</text>
</a>
</g>
</g>
<!-- Node1&#45;&gt;Node5 -->
<g id="edge5" class="edge"><title>Node1&#45;&gt;Node5</title>
<path fill="none" stroke="midnightblue" d="M108.237,-122.603C124.396,-118.536 142.05,-114.093 157.855,-110.116"/>
<polygon fill="midnightblue" stroke="midnightblue" points="159.096,-113.413 167.939,-107.578 157.387,-106.625 159.096,-113.413"/>
</g>
<!-- Node6 -->
<g id="node6" class="node"><title>Node6</title>
<g id="a_node6"><a xlink:href="classCOMM_1_1List.html#a610a134731844b13df4b22ef0d9ad603" target="_top" xlink:title="increase size without initialization ">
<polygon fill="white" stroke="black" points="144,-39 144,-69 270,-69 270,-39 144,-39"/>
<text text-anchor="start" x="152" y="-57" font-family="FreeSans" font-size="10.00">COMM::List::increaseSize</text>
<text text-anchor="middle" x="207" y="-46" font-family="FreeSans" font-size="10.00">NoInitialize</text>
</a>
</g>
</g>
<!-- Node1&#45;&gt;Node6 -->
<g id="edge6" class="edge"><title>Node1&#45;&gt;Node6</title>
<path fill="none" stroke="midnightblue" d="M76.2705,-120.775C93.8927,-108.56 119.868,-91.4547 144,-79 147.935,-76.969 152.075,-74.988 156.27,-73.0873"/>
<polygon fill="midnightblue" stroke="midnightblue" points="157.721,-76.2732 165.487,-69.0662 154.921,-69.8572 157.721,-76.2732"/>
</g>
<!-- Node7 -->
<g id="node7" class="node"><title>Node7</title>
<g id="a_node7"><a xlink:href="classCOMM_1_1List.html#aceaeddd10f8a05984f25a258a48c2620" target="_top" xlink:title="Clear function. ">
<polygon fill="white" stroke="black" points="161,-0.5 161,-19.5 253,-19.5 253,-0.5 161,-0.5"/>
<text text-anchor="middle" x="207" y="-7.5" font-family="FreeSans" font-size="10.00">COMM::List::clear</text>
</a>
</g>
</g>
<!-- Node1&#45;&gt;Node7 -->
<g id="edge7" class="edge"><title>Node1&#45;&gt;Node7</title>
<path fill="none" stroke="midnightblue" d="M63.9146,-120.669C78.0386,-97.6887 107.714,-54.4114 144,-30 147.689,-27.5181 151.707,-25.3269 155.866,-23.3955"/>
<polygon fill="midnightblue" stroke="midnightblue" points="157.218,-26.6241 165.124,-19.5706 154.545,-20.1546 157.218,-26.6241"/>
</g>
</g>
</svg>
