<?xml version="1.0" encoding="UTF-8" standalone="no"?>
<!DOCTYPE svg PUBLIC "-//W3C//DTD SVG 1.1//EN"
 "http://www.w3.org/Graphics/SVG/1.1/DTD/svg11.dtd">
<!-- Generated by graphviz version 2.38.0 (20140413.2041)
 -->
<!-- Title: H4::HermiteIntegrator::integrateToTimeList Pages: 1 -->
<svg width="265pt" height="176pt"
 viewBox="0.00 0.00 265.00 176.00" xmlns="http://www.w3.org/2000/svg" xmlns:xlink="http://www.w3.org/1999/xlink">
<g id="graph0" class="graph" transform="scale(1 1) rotate(0) translate(4 172)">
<title>H4::HermiteIntegrator::integrateToTimeList</title>
<polygon fill="white" stroke="none" points="-4,4 -4,-172 261,-172 261,4 -4,4"/>
<!-- Node1 -->
<g id="node1" class="node"><title>Node1</title>
<polygon fill="#bfbfbf" stroke="black" points="0,-44.5 0,-74.5 108,-74.5 108,-44.5 0,-44.5"/>
<text text-anchor="start" x="8" y="-62.5" font-family="FreeSans" font-size="10.00">H4::HermiteIntegrator</text>
<text text-anchor="middle" x="54" y="-51.5" font-family="FreeSans" font-size="10.00">::integrateToTimeList</text>
</g>
<!-- Node2 -->
<g id="node2" class="node"><title>Node2</title>
<g id="a_node2"><a xlink:href="classH4_1_1HermiteManager.html#ad5ab496b530db1dfab24bebc39fabe8e" target="_top" xlink:title="time step calculator ">
<polygon fill="white" stroke="black" points="148.5,-137.5 148.5,-167.5 252.5,-167.5 252.5,-137.5 148.5,-137.5"/>
<text text-anchor="start" x="156.5" y="-155.5" font-family="FreeSans" font-size="10.00">H4::HermiteManager</text>
<text text-anchor="middle" x="200.5" y="-144.5" font-family="FreeSans" font-size="10.00">::checkParams</text>
</a>
</g>
</g>
<!-- Node1&#45;&gt;Node2 -->
<g id="edge1" class="edge"><title>Node1&#45;&gt;Node2</title>
<path fill="none" stroke="midnightblue" d="M71.7992,-74.6171C89.0372,-89.6092 117.07,-112.583 144,-128.5 146.626,-130.052 149.372,-131.562 152.175,-133.017"/>
<polygon fill="midnightblue" stroke="midnightblue" points="150.733,-136.209 161.252,-137.473 153.818,-129.925 150.733,-136.209"/>
</g>
<!-- Node3 -->
<g id="node3" class="node"><title>Node3</title>
<g id="a_node3"><a xlink:href="classCOMM_1_1List.html#aaddc8ba775e2a6504eb393d7d0c2235b" target="_top" xlink:title="Get modified status. ">
<polygon fill="white" stroke="black" points="144,-88.5 144,-118.5 257,-118.5 257,-88.5 144,-88.5"/>
<text text-anchor="start" x="152" y="-106.5" font-family="FreeSans" font-size="10.00">COMM::List&lt; Tparticle</text>
<text text-anchor="middle" x="200.5" y="-95.5" font-family="FreeSans" font-size="10.00"> &gt;::isModified</text>
</a>
</g>
</g>
<!-- Node1&#45;&gt;Node3 -->
<g id="edge2" class="edge"><title>Node1&#45;&gt;Node3</title>
<path fill="none" stroke="midnightblue" d="M104.325,-74.5192C115.822,-78.0202 128.183,-81.7842 140.067,-85.4027"/>
<polygon fill="midnightblue" stroke="midnightblue" points="139.321,-88.8343 149.907,-88.3991 141.36,-82.1378 139.321,-88.8343"/>
</g>
<!-- Node4 -->
<g id="node4" class="node"><title>Node4</title>
<g id="a_node4"><a xlink:href="classCOMM_1_1List.html#af1c92acd831f62c52f3385a71d6403e7" target="_top" xlink:title="get current member number ">
<polygon fill="white" stroke="black" points="148.5,-50 148.5,-69 252.5,-69 252.5,-50 148.5,-50"/>
<text text-anchor="middle" x="200.5" y="-57" font-family="FreeSans" font-size="10.00">COMM::List::getSize</text>
</a>
</g>
</g>
<!-- Node1&#45;&gt;Node4 -->
<g id="edge3" class="edge"><title>Node1&#45;&gt;Node4</title>
<path fill="none" stroke="midnightblue" d="M108.396,-59.5C118.062,-59.5 128.213,-59.5 138.087,-59.5"/>
<polygon fill="midnightblue" stroke="midnightblue" points="138.245,-63.0001 148.245,-59.5 138.245,-56.0001 138.245,-63.0001"/>
</g>
<!-- Node5 -->
<g id="node5" class="node"><title>Node5</title>
<g id="a_node5"><a xlink:href="classCOMM_1_1List.html#a125e4f93ee02b677f8377bd541f2105d" target="_top" xlink:title="return member data array address ">
<polygon fill="white" stroke="black" points="144,-0.5 144,-30.5 257,-30.5 257,-0.5 144,-0.5"/>
<text text-anchor="start" x="152" y="-18.5" font-family="FreeSans" font-size="10.00">COMM::List&lt; Tparticle</text>
<text text-anchor="middle" x="200.5" y="-7.5" font-family="FreeSans" font-size="10.00"> &gt;::getDataAddress</text>
</a>
</g>
</g>
<!-- Node1&#45;&gt;Node5 -->
<g id="edge4" class="edge"><title>Node1&#45;&gt;Node5</title>
<path fill="none" stroke="midnightblue" d="M85.9989,-44.4036C100.071,-39.277 117.284,-33.6805 134.009,-28.7184"/>
<polygon fill="midnightblue" stroke="midnightblue" points="135.148,-32.0321 143.772,-25.8784 133.193,-25.3107 135.148,-32.0321"/>
</g>
<!-- Node1&#45;&gt;Node5 -->
<g id="edge5" class="edge"><title>Node1&#45;&gt;Node5</title>
<path fill="none" stroke="midnightblue" d="M108.396,-49.7825C125.174,-45.0528 143.41,-39.3623 159.128,-33.9217"/>
<polygon fill="midnightblue" stroke="midnightblue" points="160.3,-37.2197 168.554,-30.5772 157.959,-30.6226 160.3,-37.2197"/>
</g>
</g>
</svg>
