<?xml version="1.0" encoding="UTF-8" standalone="no"?>
<!DOCTYPE svg PUBLIC "-//W3C//DTD SVG 1.1//EN"
 "http://www.w3.org/Graphics/SVG/1.1/DTD/svg11.dtd">
<!-- Generated by graphviz version 2.43.0 (0)
 -->
<!-- Title: AR::TimeTransformedSymplecticIntegrator::writeBinary Pages: 1 -->
<svg width="317pt" height="116pt"
 viewBox="0.00 0.00 317.00 115.50" xmlns="http://www.w3.org/2000/svg" xmlns:xlink="http://www.w3.org/1999/xlink">
<g id="graph0" class="graph" transform="scale(1 1) rotate(0) translate(4 111.5)">
<title>AR::TimeTransformedSymplecticIntegrator::writeBinary</title>
<polygon fill="white" stroke="transparent" points="-4,4 -4,-111.5 313,-111.5 313,4 -4,4"/>
<!-- Node1 -->
<g id="node1" class="node">
<title>Node1</title>
<g id="a_node1"><a xlink:title="write class data with BINARY format">
<polygon fill="#bfbfbf" stroke="black" points="0,-44.5 0,-74.5 159,-74.5 159,-44.5 0,-44.5"/>
<text text-anchor="start" x="8" y="-62.5" font-family="FreeSans" font-size="10.00">AR::TimeTransformedSymplectic</text>
<text text-anchor="middle" x="79.5" y="-51.5" font-family="FreeSans" font-size="10.00">Integrator::writeBinary</text>
</a>
</g>
</g>
<!-- Node2 -->
<g id="node2" class="node">
<title>Node2</title>
<g id="a_node2"><a xlink:href="classCOMM_1_1List.html#a929bb5bdaaa7ce70d872ae0c758c77ae" target="_top" xlink:title="get current member number">
<polygon fill="white" stroke="black" points="199.5,-88 199.5,-107 304.5,-107 304.5,-88 199.5,-88"/>
<text text-anchor="middle" x="252" y="-95" font-family="FreeSans" font-size="10.00">COMM::List::getSize</text>
</a>
</g>
</g>
<!-- Node1&#45;&gt;Node2 -->
<g id="edge1" class="edge">
<title>Node1&#45;&gt;Node2</title>
<path fill="none" stroke="midnightblue" d="M147.89,-74.52C164.61,-78.25 182.29,-82.19 198.2,-85.73"/>
<polygon fill="midnightblue" stroke="midnightblue" points="197.85,-89.24 208.37,-88 199.37,-82.41 197.85,-89.24"/>
</g>
<!-- Node3 -->
<g id="node3" class="node">
<title>Node3</title>
<g id="a_node3"><a xlink:href="classAR_1_1Profile.html#ae3afe50f02c55bb640ec60569d9a359a" target="_top" xlink:title="write class data with BINARY format">
<polygon fill="white" stroke="black" points="195,-50 195,-69 309,-69 309,-50 195,-50"/>
<text text-anchor="middle" x="252" y="-57" font-family="FreeSans" font-size="10.00">AR::Profile::writeBinary</text>
</a>
</g>
</g>
<!-- Node1&#45;&gt;Node3 -->
<g id="edge2" class="edge">
<title>Node1&#45;&gt;Node3</title>
<path fill="none" stroke="midnightblue" d="M159.26,-59.5C167.82,-59.5 176.47,-59.5 184.86,-59.5"/>
<polygon fill="midnightblue" stroke="midnightblue" points="184.94,-63 194.94,-59.5 184.94,-56 184.94,-63"/>
</g>
<!-- Node4 -->
<g id="node4" class="node">
<title>Node4</title>
<g id="a_node4"><a xlink:href="classCOMM_1_1ParticleGroup.html#a9841046fae8fbbd01ddfa4c549aaa23d" target="_top" xlink:title="write particle data to files (notice original address is lost)">
<polygon fill="white" stroke="black" points="196.5,-0.5 196.5,-30.5 307.5,-30.5 307.5,-0.5 196.5,-0.5"/>
<text text-anchor="start" x="204.5" y="-18.5" font-family="FreeSans" font-size="10.00">COMM::ParticleGroup</text>
<text text-anchor="middle" x="252" y="-7.5" font-family="FreeSans" font-size="10.00">::writeBinary</text>
</a>
</g>
</g>
<!-- Node1&#45;&gt;Node4 -->
<g id="edge3" class="edge">
<title>Node1&#45;&gt;Node4</title>
<path fill="none" stroke="midnightblue" d="M138.7,-44.48C153.97,-40.54 170.54,-36.26 186.14,-32.24"/>
<polygon fill="midnightblue" stroke="midnightblue" points="187.42,-35.52 196.22,-29.64 185.67,-28.75 187.42,-35.52"/>
</g>
</g>
</svg>
