<?xml version="1.0" encoding="UTF-8" standalone="no"?>
<!DOCTYPE svg PUBLIC "-//W3C//DTD SVG 1.1//EN"
 "http://www.w3.org/Graphics/SVG/1.1/DTD/svg11.dtd">
<!-- Generated by graphviz version 2.43.0 (0)
 -->
<!-- Title: COMM::BinaryTree::generateLevelBranch Pages: 1 -->
<svg width="328pt" height="57pt"
 viewBox="0.00 0.00 328.00 57.00" xmlns="http://www.w3.org/2000/svg" xmlns:xlink="http://www.w3.org/1999/xlink">
<g id="graph0" class="graph" transform="scale(1 1) rotate(0) translate(4 53)">
<title>COMM::BinaryTree::generateLevelBranch</title>
<polygon fill="white" stroke="transparent" points="-4,4 -4,-53 324,-53 324,4 -4,4"/>
<!-- Node1 -->
<g id="node1" class="node">
<title>Node1</title>
<g id="a_node1"><a xlink:title="generate level and branch">
<polygon fill="#bfbfbf" stroke="black" points="180,-0.5 180,-30.5 320,-30.5 320,-0.5 180,-0.5"/>
<text text-anchor="start" x="188" y="-18.5" font-family="FreeSans" font-size="10.00">COMM::BinaryTree::generate</text>
<text text-anchor="middle" x="250" y="-7.5" font-family="FreeSans" font-size="10.00">LevelBranch</text>
</a>
</g>
</g>
<!-- Node1&#45;&gt;Node1 -->
<g id="edge2" class="edge">
<title>Node1&#45;&gt;Node1</title>
<path fill="none" stroke="midnightblue" d="M281.63,-40.96C277.7,-45.68 267.16,-49 250,-49 221.84,-49 211.5,-40.06 218.98,-30.66"/>
<polygon fill="midnightblue" stroke="midnightblue" points="285.1,-40.44 281.02,-30.66 278.12,-40.85 285.1,-40.44"/>
</g>
<!-- Node2 -->
<g id="node2" class="node">
<title>Node2</title>
<g id="a_node2"><a xlink:href="classCOMM_1_1BinaryTree.html#a81333bcbb82bb9ec8426b08743475291" target="_top" xlink:title="Generate kepler binary tree for a group of particles.">
<polygon fill="white" stroke="black" points="0,-0.5 0,-30.5 144,-30.5 144,-0.5 0,-0.5"/>
<text text-anchor="start" x="8" y="-18.5" font-family="FreeSans" font-size="10.00">COMM::BinaryTree&lt; Tparticle</text>
<text text-anchor="middle" x="72" y="-7.5" font-family="FreeSans" font-size="10.00"> &gt;::generateBinaryTree</text>
</a>
</g>
</g>
<!-- Node1&#45;&gt;Node2 -->
<g id="edge1" class="edge">
<title>Node1&#45;&gt;Node2</title>
<path fill="none" stroke="midnightblue" d="M169.94,-15.5C161.35,-15.5 152.65,-15.5 144.17,-15.5"/>
<polygon fill="midnightblue" stroke="midnightblue" points="169.95,-19 179.95,-15.5 169.95,-12 169.95,-19"/>
</g>
</g>
</svg>
