<?xml version="1.0" encoding="UTF-8" standalone="no"?>
<!DOCTYPE svg PUBLIC "-//W3C//DTD SVG 1.1//EN"
 "http://www.w3.org/Graphics/SVG/1.1/DTD/svg11.dtd">
<!-- Generated by graphviz version 2.38.0 (20140413.2041)
 -->
<!-- Title: H4::Neighbor&lt; Tparticle &gt; Pages: 1 -->
<svg width="149pt" height="106pt"
 viewBox="0.00 0.00 148.50 106.00" xmlns="http://www.w3.org/2000/svg" xmlns:xlink="http://www.w3.org/1999/xlink">
<g id="graph0" class="graph" transform="scale(1 1) rotate(0) translate(4 102)">
<title>H4::Neighbor&lt; Tparticle &gt;</title>
<polygon fill="white" stroke="none" points="-4,4 -4,-102 144.5,-102 144.5,4 -4,4"/>
<!-- Node1 -->
<g id="node1" class="node"><title>Node1</title>
<polygon fill="#bfbfbf" stroke="black" points="-7.10543e-15,-0.5 -7.10543e-15,-19.5 125,-19.5 125,-0.5 -7.10543e-15,-0.5"/>
<text text-anchor="middle" x="62.5" y="-7.5" font-family="FreeSans" font-size="10.00">H4::Neighbor&lt; Tparticle &gt;</text>
</g>
<!-- Node2 -->
<g id="node2" class="node"><title>Node2</title>
<g id="a_node2"><a xlink:href="classCOMM_1_1List.html" target="_top" xlink:title="COMM::List\&lt; H4::NBAdr\l\&lt; Tparticle \&gt; \&gt;">
<polygon fill="white" stroke="black" points="2.5,-67.5 2.5,-97.5 122.5,-97.5 122.5,-67.5 2.5,-67.5"/>
<text text-anchor="start" x="10.5" y="-85.5" font-family="FreeSans" font-size="10.00">COMM::List&lt; H4::NBAdr</text>
<text text-anchor="middle" x="62.5" y="-74.5" font-family="FreeSans" font-size="10.00">&lt; Tparticle &gt; &gt;</text>
</a>
</g>
</g>
<!-- Node2&#45;&gt;Node1 -->
<g id="edge1" class="edge"><title>Node2&#45;&gt;Node1</title>
<path fill="none" stroke="#9a32cd" stroke-dasharray="5,2" d="M62.5,-57.0913C62.5,-44.2136 62.5,-29.1974 62.5,-19.8932"/>
<polygon fill="#9a32cd" stroke="#9a32cd" points="59.0001,-57.2332 62.5,-67.2333 66.0001,-57.2333 59.0001,-57.2332"/>
<text text-anchor="middle" x="101.5" y="-41" font-family="FreeSans" font-size="10.00"> neighbor_address</text>
</g>
</g>
</svg>
