<?xml version="1.0" encoding="UTF-8" standalone="no"?>
<!DOCTYPE svg PUBLIC "-//W3C//DTD SVG 1.1//EN"
 "http://www.w3.org/Graphics/SVG/1.1/DTD/svg11.dtd">
<!-- Generated by graphviz version 2.38.0 (20140413.2041)
 -->
<!-- Title: COMM::Binary::calcParticlesEcca Pages: 1 -->
<svg width="507pt" height="28pt"
 viewBox="0.00 0.00 507.00 28.00" xmlns="http://www.w3.org/2000/svg" xmlns:xlink="http://www.w3.org/1999/xlink">
<g id="graph0" class="graph" transform="scale(1 1) rotate(0) translate(4 24)">
<title>COMM::Binary::calcParticlesEcca</title>
<polygon fill="white" stroke="none" points="-4,4 -4,-24 503,-24 503,4 -4,4"/>
<!-- Node1 -->
<g id="node1" class="node"><title>Node1</title>
<polygon fill="#bfbfbf" stroke="black" points="0,-0.5 0,-19.5 161,-19.5 161,-0.5 0,-0.5"/>
<text text-anchor="middle" x="80.5" y="-7.5" font-family="FreeSans" font-size="10.00">COMM::Binary::calcParticlesEcca</text>
</g>
<!-- Node2 -->
<g id="node2" class="node"><title>Node2</title>
<g id="a_node2"><a xlink:href="classCOMM_1_1Binary.html#ad34e7d44a73fecd129d4178465d21d5a" target="_top" xlink:title="Orbit to position and velocity. ">
<polygon fill="white" stroke="black" points="197,-0.5 197,-19.5 343,-19.5 343,-0.5 197,-0.5"/>
<text text-anchor="middle" x="270" y="-7.5" font-family="FreeSans" font-size="10.00">COMM::Binary::orbitToParticle</text>
</a>
</g>
</g>
<!-- Node1&#45;&gt;Node2 -->
<g id="edge1" class="edge"><title>Node1&#45;&gt;Node2</title>
<path fill="none" stroke="midnightblue" d="M161.017,-10C169.461,-10 178.063,-10 186.54,-10"/>
<polygon fill="midnightblue" stroke="midnightblue" points="186.799,-13.5001 196.799,-10 186.799,-6.5001 186.799,-13.5001"/>
</g>
<!-- Node3 -->
<g id="node3" class="node"><title>Node3</title>
<g id="a_node3"><a xlink:href="classCOMM_1_1Matrix3.html#a7737c9224752c6c5b8d8785de5268b17" target="_top" xlink:title="COMM::Matrix3::rotation">
<polygon fill="white" stroke="black" points="379,-0.5 379,-19.5 499,-19.5 499,-0.5 379,-0.5"/>
<text text-anchor="middle" x="439" y="-7.5" font-family="FreeSans" font-size="10.00">COMM::Matrix3::rotation</text>
</a>
</g>
</g>
<!-- Node2&#45;&gt;Node3 -->
<g id="edge2" class="edge"><title>Node2&#45;&gt;Node3</title>
<path fill="none" stroke="midnightblue" d="M343.277,-10C351.738,-10 360.355,-10 368.773,-10"/>
<polygon fill="midnightblue" stroke="midnightblue" points="368.917,-13.5001 378.917,-10 368.917,-6.5001 368.917,-13.5001"/>
</g>
</g>
</svg>
