<?xml version="1.0" encoding="UTF-8" standalone="no"?>
<!DOCTYPE svg PUBLIC "-//W3C//DTD SVG 1.1//EN"
 "http://www.w3.org/Graphics/SVG/1.1/DTD/svg11.dtd">
<!-- Generated by graphviz version 2.43.0 (0)
 -->
<!-- Title: H4::HermiteIntegrator::breakGroups Pages: 1 -->
<svg width="517pt" height="264pt"
 viewBox="0.00 0.00 517.00 263.50" xmlns="http://www.w3.org/2000/svg" xmlns:xlink="http://www.w3.org/1999/xlink">
<g id="graph0" class="graph" transform="scale(1 1) rotate(0) translate(4 259.5)">
<title>H4::HermiteIntegrator::breakGroups</title>
<polygon fill="white" stroke="transparent" points="-4,4 -4,-259.5 513,-259.5 513,4 -4,4"/>
<!-- Node1 -->
<g id="node1" class="node">
<title>Node1</title>
<g id="a_node1"><a xlink:title="break groups">
<polygon fill="#bfbfbf" stroke="black" points="0,-104.5 0,-134.5 110,-134.5 110,-104.5 0,-104.5"/>
<text text-anchor="start" x="8" y="-122.5" font-family="FreeSans" font-size="10.00">H4::HermiteIntegrator</text>
<text text-anchor="middle" x="55" y="-111.5" font-family="FreeSans" font-size="10.00">::breakGroups</text>
</a>
</g>
</g>
<!-- Node2 -->
<g id="node2" class="node">
<title>Node2</title>
<g id="a_node2"><a xlink:href="classH4_1_1HermiteIntegrator.html#a0ab6545fc47c14c3ea6e8de7b47b5679" target="_top" xlink:title="correct Etot slowdown reference due to the groups change">
<polygon fill="white" stroke="black" points="146,-214 146,-255 314,-255 314,-214 146,-214"/>
<text text-anchor="start" x="154" y="-243" font-family="FreeSans" font-size="10.00">H4::HermiteIntegrator</text>
<text text-anchor="start" x="154" y="-232" font-family="FreeSans" font-size="10.00">::accumDESlowDownChangeBreak</text>
<text text-anchor="middle" x="230" y="-221" font-family="FreeSans" font-size="10.00">Group</text>
</a>
</g>
</g>
<!-- Node1&#45;&gt;Node2 -->
<g id="edge1" class="edge">
<title>Node1&#45;&gt;Node2</title>
<path fill="none" stroke="midnightblue" d="M68.54,-134.69C84.71,-153.41 114.52,-185.12 146,-204.5 148.81,-206.23 151.72,-207.88 154.72,-209.45"/>
<polygon fill="midnightblue" stroke="midnightblue" points="153.37,-212.68 163.89,-213.93 156.44,-206.39 153.37,-212.68"/>
</g>
<!-- Node3 -->
<g id="node3" class="node">
<title>Node3</title>
<g id="a_node3"><a xlink:href="classCOMM_1_1List.html#adeefdc2865fe56e2413b2cada9772a5e" target="_top" xlink:title="copy one member and its address">
<polygon fill="white" stroke="black" points="168,-176 168,-195 292,-195 292,-176 168,-176"/>
<text text-anchor="middle" x="230" y="-183" font-family="FreeSans" font-size="10.00">COMM::List::addMember</text>
</a>
</g>
</g>
<!-- Node1&#45;&gt;Node3 -->
<g id="edge2" class="edge">
<title>Node1&#45;&gt;Node3</title>
<path fill="none" stroke="midnightblue" d="M81.65,-134.67C99.26,-144.57 123.45,-157.16 146,-165.5 153.99,-168.46 162.58,-171.1 171.1,-173.41"/>
<polygon fill="midnightblue" stroke="midnightblue" points="170.46,-176.86 181.02,-175.97 172.21,-170.08 170.46,-176.86"/>
</g>
<!-- Node4 -->
<g id="node4" class="node">
<title>Node4</title>
<g id="a_node4"><a xlink:href="classH4_1_1HermiteIntegrator.html#a5c92334f487ce31326f4469035b24ba7" target="_top" xlink:title="check whether parameters values are correct">
<polygon fill="white" stroke="black" points="175,-126.5 175,-156.5 285,-156.5 285,-126.5 175,-126.5"/>
<text text-anchor="start" x="183" y="-144.5" font-family="FreeSans" font-size="10.00">H4::HermiteIntegrator</text>
<text text-anchor="middle" x="230" y="-133.5" font-family="FreeSans" font-size="10.00">::checkParams</text>
</a>
</g>
</g>
<!-- Node1&#45;&gt;Node4 -->
<g id="edge3" class="edge">
<title>Node1&#45;&gt;Node4</title>
<path fill="none" stroke="midnightblue" d="M110.26,-126.4C127.57,-128.6 146.89,-131.06 164.84,-133.34"/>
<polygon fill="midnightblue" stroke="midnightblue" points="164.57,-136.83 174.93,-134.62 165.45,-129.89 164.57,-136.83"/>
</g>
<!-- Node7 -->
<g id="node7" class="node">
<title>Node7</title>
<g id="a_node7"><a xlink:href="classCOMM_1_1List.html#aceaeddd10f8a05984f25a258a48c2620" target="_top" xlink:title="Clear function.">
<polygon fill="white" stroke="black" points="183,-88 183,-107 277,-107 277,-88 183,-88"/>
<text text-anchor="middle" x="230" y="-95" font-family="FreeSans" font-size="10.00">COMM::List::clear</text>
</a>
</g>
</g>
<!-- Node1&#45;&gt;Node7 -->
<g id="edge6" class="edge">
<title>Node1&#45;&gt;Node7</title>
<path fill="none" stroke="midnightblue" d="M110.26,-112.6C130.18,-110.07 152.77,-107.19 172.85,-104.64"/>
<polygon fill="midnightblue" stroke="midnightblue" points="173.31,-108.11 182.79,-103.38 172.43,-101.17 173.31,-108.11"/>
</g>
<!-- Node8 -->
<g id="node8" class="node">
<title>Node8</title>
<g id="a_node8"><a xlink:href="classCOMM_1_1List.html#a929bb5bdaaa7ce70d872ae0c758c77ae" target="_top" xlink:title="get current member number">
<polygon fill="white" stroke="black" points="177.5,-50 177.5,-69 282.5,-69 282.5,-50 177.5,-50"/>
<text text-anchor="middle" x="230" y="-57" font-family="FreeSans" font-size="10.00">COMM::List::getSize</text>
</a>
</g>
</g>
<!-- Node1&#45;&gt;Node8 -->
<g id="edge7" class="edge">
<title>Node1&#45;&gt;Node8</title>
<path fill="none" stroke="midnightblue" d="M84.98,-104.48C102.33,-95.95 125.02,-85.6 146,-78.5 153.67,-75.91 161.85,-73.55 169.98,-71.46"/>
<polygon fill="midnightblue" stroke="midnightblue" points="170.95,-74.82 179.82,-69.03 169.28,-68.02 170.95,-74.82"/>
</g>
<!-- Node9 -->
<g id="node9" class="node">
<title>Node9</title>
<g id="a_node9"><a xlink:href="classCOMM_1_1List.html#a610a134731844b13df4b22ef0d9ad603" target="_top" xlink:title="increase size without initialization">
<polygon fill="white" stroke="black" points="166,-0.5 166,-30.5 294,-30.5 294,-0.5 166,-0.5"/>
<text text-anchor="start" x="174" y="-18.5" font-family="FreeSans" font-size="10.00">COMM::List::increaseSize</text>
<text text-anchor="middle" x="230" y="-7.5" font-family="FreeSans" font-size="10.00">NoInitialize</text>
</a>
</g>
</g>
<!-- Node1&#45;&gt;Node9 -->
<g id="edge8" class="edge">
<title>Node1&#45;&gt;Node9</title>
<path fill="none" stroke="midnightblue" d="M69.47,-104.24C85.89,-86.51 115.27,-57.54 146,-40.5 149.96,-38.31 154.13,-36.28 158.41,-34.42"/>
<polygon fill="midnightblue" stroke="midnightblue" points="159.95,-37.57 167.92,-30.59 157.34,-31.08 159.95,-37.57"/>
</g>
<!-- Node5 -->
<g id="node5" class="node">
<title>Node5</title>
<g id="a_node5"><a xlink:href="classH4_1_1HermiteManager.html#ad5ab496b530db1dfab24bebc39fabe8e" target="_top" xlink:title="time step calculator">
<polygon fill="white" stroke="black" points="376.5,-150.5 376.5,-180.5 482.5,-180.5 482.5,-150.5 376.5,-150.5"/>
<text text-anchor="start" x="384.5" y="-168.5" font-family="FreeSans" font-size="10.00">H4::HermiteManager</text>
<text text-anchor="middle" x="429.5" y="-157.5" font-family="FreeSans" font-size="10.00">::checkParams</text>
</a>
</g>
</g>
<!-- Node4&#45;&gt;Node5 -->
<g id="edge4" class="edge">
<title>Node4&#45;&gt;Node5</title>
<path fill="none" stroke="midnightblue" d="M285.23,-148.09C310.33,-151.14 340.29,-154.78 366.3,-157.94"/>
<polygon fill="midnightblue" stroke="midnightblue" points="366.09,-161.44 376.44,-159.17 366.93,-154.49 366.09,-161.44"/>
</g>
<!-- Node6 -->
<g id="node6" class="node">
<title>Node6</title>
<g id="a_node6"><a xlink:href="classAR_1_1TimeTransformedSymplecticManager.html#a8921a86541d095de3a8685f4aad2da48" target="_top" xlink:title="check whether parameters values are correct">
<polygon fill="white" stroke="black" points="350,-101.5 350,-131.5 509,-131.5 509,-101.5 350,-101.5"/>
<text text-anchor="start" x="358" y="-119.5" font-family="FreeSans" font-size="10.00">AR::TimeTransformedSymplectic</text>
<text text-anchor="middle" x="429.5" y="-108.5" font-family="FreeSans" font-size="10.00">Manager::checkParams</text>
</a>
</g>
</g>
<!-- Node4&#45;&gt;Node6 -->
<g id="edge5" class="edge">
<title>Node4&#45;&gt;Node6</title>
<path fill="none" stroke="midnightblue" d="M285.23,-134.64C302.17,-132.49 321.32,-130.07 339.98,-127.71"/>
<polygon fill="midnightblue" stroke="midnightblue" points="340.49,-131.17 349.97,-126.44 339.61,-124.22 340.49,-131.17"/>
</g>
</g>
</svg>
