<?xml version="1.0" encoding="UTF-8" standalone="no"?>
<!DOCTYPE svg PUBLIC "-//W3C//DTD SVG 1.1//EN"
 "http://www.w3.org/Graphics/SVG/1.1/DTD/svg11.dtd">
<!-- Generated by graphviz version 2.43.0 (0)
 -->
<!-- Title: H4::ARInformation::clear Pages: 1 -->
<svg width="277pt" height="88pt"
 viewBox="0.00 0.00 277.00 88.00" xmlns="http://www.w3.org/2000/svg" xmlns:xlink="http://www.w3.org/1999/xlink">
<g id="graph0" class="graph" transform="scale(1 1) rotate(0) translate(4 84)">
<title>H4::ARInformation::clear</title>
<polygon fill="white" stroke="transparent" points="-4,4 -4,-84 273,-84 273,4 -4,4"/>
<!-- Node1 -->
<g id="node1" class="node">
<title>Node1</title>
<g id="a_node1"><a xlink:title=" ">
<polygon fill="#bfbfbf" stroke="black" points="0,-30 0,-60 101,-60 101,-30 0,-30"/>
<text text-anchor="start" x="8" y="-48" font-family="FreeSans" font-size="10.00">H4::ARInformation::</text>
<text text-anchor="middle" x="50.5" y="-37" font-family="FreeSans" font-size="10.00">clear</text>
</a>
</g>
</g>
<!-- Node2 -->
<g id="node2" class="node">
<title>Node2</title>
<g id="a_node2"><a xlink:href="classCOMM_1_1List.html#aceaeddd10f8a05984f25a258a48c2620" target="_top" xlink:title="Clear function.">
<polygon fill="white" stroke="black" points="156,-60.5 156,-79.5 250,-79.5 250,-60.5 156,-60.5"/>
<text text-anchor="middle" x="203" y="-67.5" font-family="FreeSans" font-size="10.00">COMM::List::clear</text>
</a>
</g>
</g>
<!-- Node1&#45;&gt;Node2 -->
<g id="edge1" class="edge">
<title>Node1&#45;&gt;Node2</title>
<path fill="none" stroke="midnightblue" d="M101.2,-53.26C115.53,-55.64 131.26,-58.25 145.95,-60.69"/>
<polygon fill="midnightblue" stroke="midnightblue" points="145.48,-64.16 155.92,-62.35 146.63,-57.25 145.48,-64.16"/>
</g>
<!-- Node3 -->
<g id="node3" class="node">
<title>Node3</title>
<g id="a_node3"><a xlink:href="classAR_1_1Information.html#ab8e8198bc43281784e7f84e988ecf7bc" target="_top" xlink:title="clear function">
<polygon fill="white" stroke="black" points="137,-0.5 137,-41.5 269,-41.5 269,-0.5 137,-0.5"/>
<text text-anchor="start" x="145" y="-29.5" font-family="FreeSans" font-size="10.00">AR::Information&lt; Tparticle,</text>
<text text-anchor="start" x="145" y="-18.5" font-family="FreeSans" font-size="10.00"> ParticleH4&lt; Tparticle &gt;</text>
<text text-anchor="middle" x="203" y="-7.5" font-family="FreeSans" font-size="10.00"> &gt;::clear</text>
</a>
</g>
</g>
<!-- Node1&#45;&gt;Node3 -->
<g id="edge2" class="edge">
<title>Node1&#45;&gt;Node3</title>
<path fill="none" stroke="midnightblue" d="M101.2,-37.07C109.38,-35.77 118.02,-34.39 126.67,-33.01"/>
<polygon fill="midnightblue" stroke="midnightblue" points="127.46,-36.43 136.79,-31.4 126.36,-29.52 127.46,-36.43"/>
</g>
</g>
</svg>
