<?xml version="1.0" encoding="UTF-8" standalone="no"?>
<!DOCTYPE svg PUBLIC "-//W3C//DTD SVG 1.1//EN"
 "http://www.w3.org/Graphics/SVG/1.1/DTD/svg11.dtd">
<!-- Generated by graphviz version 2.38.0 (20140413.2041)
 -->
<!-- Title: H4::HermiteIntegrator::printColumn Pages: 1 -->
<svg width="288pt" height="203pt"
 viewBox="0.00 0.00 288.00 203.00" xmlns="http://www.w3.org/2000/svg" xmlns:xlink="http://www.w3.org/1999/xlink">
<g id="graph0" class="graph" transform="scale(1 1) rotate(0) translate(4 199)">
<title>H4::HermiteIntegrator::printColumn</title>
<polygon fill="white" stroke="none" points="-4,4 -4,-199 284,-199 284,4 -4,4"/>
<!-- Node1 -->
<g id="node1" class="node"><title>Node1</title>
<polygon fill="#bfbfbf" stroke="black" points="0,-82.5 0,-112.5 108,-112.5 108,-82.5 0,-82.5"/>
<text text-anchor="start" x="8" y="-100.5" font-family="FreeSans" font-size="10.00">H4::HermiteIntegrator</text>
<text text-anchor="middle" x="54" y="-89.5" font-family="FreeSans" font-size="10.00">::printColumn</text>
</g>
<!-- Node2 -->
<g id="node2" class="node"><title>Node2</title>
<g id="a_node2"><a xlink:href="structH4_1_1HermiteEnergy.html#a23fb5809bab0975984e73254f46090b2" target="_top" xlink:title="print data of class members using column style ">
<polygon fill="white" stroke="black" points="161.5,-164.5 161.5,-194.5 262.5,-194.5 262.5,-164.5 161.5,-164.5"/>
<text text-anchor="start" x="169.5" y="-182.5" font-family="FreeSans" font-size="10.00">H4::HermiteEnergy::</text>
<text text-anchor="middle" x="212" y="-171.5" font-family="FreeSans" font-size="10.00">printColumn</text>
</a>
</g>
</g>
<!-- Node1&#45;&gt;Node2 -->
<g id="edge1" class="edge"><title>Node1&#45;&gt;Node2</title>
<path fill="none" stroke="midnightblue" d="M75.8296,-112.645C93.4063,-124.975 119.544,-142.28 144,-154.5 148.22,-156.609 152.664,-158.642 157.172,-160.577"/>
<polygon fill="midnightblue" stroke="midnightblue" points="155.884,-163.831 166.463,-164.4 158.547,-157.358 155.884,-163.831"/>
</g>
<!-- Node3 -->
<g id="node3" class="node"><title>Node3</title>
<g id="a_node3"><a xlink:href="classCOMM_1_1List.html#af1c92acd831f62c52f3385a71d6403e7" target="_top" xlink:title="get current member number ">
<polygon fill="white" stroke="black" points="160,-126 160,-145 264,-145 264,-126 160,-126"/>
<text text-anchor="middle" x="212" y="-133" font-family="FreeSans" font-size="10.00">COMM::List::getSize</text>
</a>
</g>
</g>
<!-- Node1&#45;&gt;Node3 -->
<g id="edge2" class="edge"><title>Node1&#45;&gt;Node3</title>
<path fill="none" stroke="midnightblue" d="M108.25,-110.471C125.663,-114.713 144.912,-119.402 161.997,-123.563"/>
<polygon fill="midnightblue" stroke="midnightblue" points="161.232,-126.979 171.776,-125.945 162.889,-120.178 161.232,-126.979"/>
</g>
<!-- Node4 -->
<g id="node4" class="node"><title>Node4</title>
<g id="a_node4"><a xlink:href="classAR_1_1SlowDown.html#aad85683de34ff2da23215cf26ff94f9b" target="_top" xlink:title="print data of class members using column style ">
<polygon fill="white" stroke="black" points="144,-88 144,-107 280,-107 280,-88 144,-88"/>
<text text-anchor="middle" x="212" y="-95" font-family="FreeSans" font-size="10.00">AR::SlowDown::printColumn</text>
</a>
</g>
</g>
<!-- Node1&#45;&gt;Node4 -->
<g id="edge3" class="edge"><title>Node1&#45;&gt;Node4</title>
<path fill="none" stroke="midnightblue" d="M108.25,-97.5C116.497,-97.5 125.157,-97.5 133.803,-97.5"/>
<polygon fill="midnightblue" stroke="midnightblue" points="133.921,-101 143.921,-97.5 133.921,-94.0001 133.921,-101"/>
</g>
<!-- Node5 -->
<g id="node5" class="node"><title>Node5</title>
<g id="a_node5"><a xlink:href="classH4_1_1Profile.html#ab30b19795f511f6d76628649bb32959e" target="_top" xlink:title="print data of class members using column style ">
<polygon fill="white" stroke="black" points="154,-50 154,-69 270,-69 270,-50 154,-50"/>
<text text-anchor="middle" x="212" y="-57" font-family="FreeSans" font-size="10.00">H4::Profile::printColumn</text>
</a>
</g>
</g>
<!-- Node1&#45;&gt;Node5 -->
<g id="edge4" class="edge"><title>Node1&#45;&gt;Node5</title>
<path fill="none" stroke="midnightblue" d="M108.25,-84.5288C125.663,-80.2872 144.912,-75.5983 161.997,-71.4366"/>
<polygon fill="midnightblue" stroke="midnightblue" points="162.889,-74.8218 171.776,-69.0545 161.232,-68.0207 162.889,-74.8218"/>
</g>
<!-- Node6 -->
<g id="node6" class="node"><title>Node6</title>
<g id="a_node6"><a xlink:href="classCOMM_1_1ParticleGroup.html#a785c959cd78824f9b7801a6529f96ac6" target="_top" xlink:title="print data of class members using column style ">
<polygon fill="white" stroke="black" points="156.5,-0.5 156.5,-30.5 267.5,-30.5 267.5,-0.5 156.5,-0.5"/>
<text text-anchor="start" x="164.5" y="-18.5" font-family="FreeSans" font-size="10.00">COMM::ParticleGroup</text>
<text text-anchor="middle" x="212" y="-7.5" font-family="FreeSans" font-size="10.00">::printColumn</text>
</a>
</g>
</g>
<!-- Node1&#45;&gt;Node6 -->
<g id="edge5" class="edge"><title>Node1&#45;&gt;Node6</title>
<path fill="none" stroke="midnightblue" d="M75.8296,-82.3552C93.4063,-70.0246 119.544,-52.7201 144,-40.5 148.22,-38.3912 152.664,-36.3577 157.172,-34.4235"/>
<polygon fill="midnightblue" stroke="midnightblue" points="158.547,-37.6422 166.463,-30.6004 155.884,-31.1688 158.547,-37.6422"/>
</g>
</g>
</svg>
