<?xml version="1.0" encoding="UTF-8" standalone="no"?>
<!DOCTYPE svg PUBLIC "-//W3C//DTD SVG 1.1//EN"
 "http://www.w3.org/Graphics/SVG/1.1/DTD/svg11.dtd">
<!-- Generated by graphviz version 2.43.0 (0)
 -->
<!-- Title: AR::TimeTransformedSymplecticIntegrator::correctCenterOfMassDrift Pages: 1 -->
<svg width="331pt" height="137pt"
 viewBox="0.00 0.00 331.00 137.00" xmlns="http://www.w3.org/2000/svg" xmlns:xlink="http://www.w3.org/1999/xlink">
<g id="graph0" class="graph" transform="scale(1 1) rotate(0) translate(4 133)">
<title>AR::TimeTransformedSymplecticIntegrator::correctCenterOfMassDrift</title>
<polygon fill="white" stroke="transparent" points="-4,4 -4,-133 327,-133 327,4 -4,4"/>
<!-- Node1 -->
<g id="node1" class="node">
<title>Node1</title>
<g id="a_node1"><a xlink:title="correct CM drift">
<polygon fill="#bfbfbf" stroke="black" points="0,-49.5 0,-79.5 173,-79.5 173,-49.5 0,-49.5"/>
<text text-anchor="start" x="8" y="-67.5" font-family="FreeSans" font-size="10.00">AR::TimeTransformedSymplectic</text>
<text text-anchor="middle" x="86.5" y="-56.5" font-family="FreeSans" font-size="10.00">Integrator::correctCenterOfMassDrift</text>
</a>
</g>
</g>
<!-- Node2 -->
<g id="node2" class="node">
<title>Node2</title>
<g id="a_node2"><a xlink:href="classCOMM_1_1List.html#ad6c06deee95952a09db820733ea428f9" target="_top" xlink:title="return member data array address">
<polygon fill="white" stroke="black" points="209,-98.5 209,-128.5 323,-128.5 323,-98.5 209,-98.5"/>
<text text-anchor="start" x="217" y="-116.5" font-family="FreeSans" font-size="10.00">COMM::List&lt; Tparticle</text>
<text text-anchor="middle" x="266" y="-105.5" font-family="FreeSans" font-size="10.00"> &gt;::getDataAddress</text>
</a>
</g>
</g>
<!-- Node1&#45;&gt;Node2 -->
<g id="edge1" class="edge">
<title>Node1&#45;&gt;Node2</title>
<path fill="none" stroke="midnightblue" d="M142.2,-79.6C160.68,-84.7 181.48,-90.44 200.63,-95.73"/>
<polygon fill="midnightblue" stroke="midnightblue" points="199.91,-99.16 210.48,-98.45 201.77,-92.41 199.91,-99.16"/>
</g>
<!-- Node3 -->
<g id="node3" class="node">
<title>Node3</title>
<g id="a_node3"><a xlink:href="classCOMM_1_1List.html#a929bb5bdaaa7ce70d872ae0c758c77ae" target="_top" xlink:title="get current member number">
<polygon fill="white" stroke="black" points="209,-49.5 209,-79.5 323,-79.5 323,-49.5 209,-49.5"/>
<text text-anchor="start" x="217" y="-67.5" font-family="FreeSans" font-size="10.00">COMM::List&lt; Tparticle</text>
<text text-anchor="middle" x="266" y="-56.5" font-family="FreeSans" font-size="10.00"> &gt;::getSize</text>
</a>
</g>
</g>
<!-- Node1&#45;&gt;Node3 -->
<g id="edge2" class="edge">
<title>Node1&#45;&gt;Node3</title>
<path fill="none" stroke="midnightblue" d="M173.13,-64.5C181.61,-64.5 190.12,-64.5 198.37,-64.5"/>
<polygon fill="midnightblue" stroke="midnightblue" points="198.64,-68 208.64,-64.5 198.64,-61 198.64,-68"/>
</g>
<!-- Node4 -->
<g id="node4" class="node">
<title>Node4</title>
<g id="a_node4"><a xlink:href="classCOMM_1_1ParticleGroup.html#a26f8bf8385483a36a879c846aa1a1719" target="_top" xlink:title="return true if the system is the in their origin frame">
<polygon fill="white" stroke="black" points="210.5,-0.5 210.5,-30.5 321.5,-30.5 321.5,-0.5 210.5,-0.5"/>
<text text-anchor="start" x="218.5" y="-18.5" font-family="FreeSans" font-size="10.00">COMM::ParticleGroup</text>
<text text-anchor="middle" x="266" y="-7.5" font-family="FreeSans" font-size="10.00">::isOriginFrame</text>
</a>
</g>
</g>
<!-- Node1&#45;&gt;Node4 -->
<g id="edge3" class="edge">
<title>Node1&#45;&gt;Node4</title>
<path fill="none" stroke="midnightblue" d="M142.2,-49.4C160.68,-44.3 181.48,-38.56 200.63,-33.27"/>
<polygon fill="midnightblue" stroke="midnightblue" points="201.77,-36.59 210.48,-30.55 199.91,-29.84 201.77,-36.59"/>
</g>
</g>
</svg>
