<?xml version="1.0" encoding="UTF-8" standalone="no"?>
<!DOCTYPE svg PUBLIC "-//W3C//DTD SVG 1.1//EN"
 "http://www.w3.org/Graphics/SVG/1.1/DTD/svg11.dtd">
<!-- Generated by graphviz version 2.43.0 (0)
 -->
<!-- Title: H4::HermiteIntegrator::getEnergyErrorSlowDown Pages: 1 -->
<svg width="277pt" height="39pt"
 viewBox="0.00 0.00 277.00 39.00" xmlns="http://www.w3.org/2000/svg" xmlns:xlink="http://www.w3.org/1999/xlink">
<g id="graph0" class="graph" transform="scale(1 1) rotate(0) translate(4 35)">
<title>H4::HermiteIntegrator::getEnergyErrorSlowDown</title>
<polygon fill="white" stroke="transparent" points="-4,4 -4,-35 273,-35 273,4 -4,4"/>
<!-- Node1 -->
<g id="node1" class="node">
<title>Node1</title>
<g id="a_node1"><a xlink:title="get slowdown energy error">
<polygon fill="#bfbfbf" stroke="black" points="0,-0.5 0,-30.5 131,-30.5 131,-0.5 0,-0.5"/>
<text text-anchor="start" x="8" y="-18.5" font-family="FreeSans" font-size="10.00">H4::HermiteIntegrator</text>
<text text-anchor="middle" x="65.5" y="-7.5" font-family="FreeSans" font-size="10.00">::getEnergyErrorSlowDown</text>
</a>
</g>
</g>
<!-- Node2 -->
<g id="node2" class="node">
<title>Node2</title>
<g id="a_node2"><a xlink:href="structH4_1_1HermiteEnergy.html#a19211bc7c7d783e741cace2b14c48f05" target="_top" xlink:title="calc energy error">
<polygon fill="white" stroke="black" points="167,-0.5 167,-30.5 269,-30.5 269,-0.5 167,-0.5"/>
<text text-anchor="start" x="175" y="-18.5" font-family="FreeSans" font-size="10.00">H4::HermiteEnergy::</text>
<text text-anchor="middle" x="218" y="-7.5" font-family="FreeSans" font-size="10.00">getEnergyError</text>
</a>
</g>
</g>
<!-- Node1&#45;&gt;Node2 -->
<g id="edge1" class="edge">
<title>Node1&#45;&gt;Node2</title>
<path fill="none" stroke="midnightblue" d="M131.2,-15.5C139.69,-15.5 148.37,-15.5 156.79,-15.5"/>
<polygon fill="midnightblue" stroke="midnightblue" points="156.9,-19 166.9,-15.5 156.9,-12 156.9,-19"/>
</g>
</g>
</svg>
