<?xml version="1.0" encoding="UTF-8" standalone="no"?>
<!DOCTYPE svg PUBLIC "-//W3C//DTD SVG 1.1//EN"
 "http://www.w3.org/Graphics/SVG/1.1/DTD/svg11.dtd">
<!-- Generated by graphviz version 2.43.0 (0)
 -->
<!-- Title: AR::SlowDown::printColumnTitle Pages: 1 -->
<svg width="291pt" height="88pt"
 viewBox="0.00 0.00 291.00 88.00" xmlns="http://www.w3.org/2000/svg" xmlns:xlink="http://www.w3.org/1999/xlink">
<g id="graph0" class="graph" transform="scale(1 1) rotate(0) translate(4 84)">
<title>AR::SlowDown::printColumnTitle</title>
<polygon fill="white" stroke="transparent" points="-4,4 -4,-84 287,-84 287,4 -4,4"/>
<!-- Node1 -->
<g id="node1" class="node">
<title>Node1</title>
<g id="a_node1"><a xlink:title="print titles of class members using column style">
<polygon fill="#bfbfbf" stroke="black" points="146,-24.5 146,-54.5 283,-54.5 283,-24.5 146,-24.5"/>
<text text-anchor="start" x="154" y="-42.5" font-family="FreeSans" font-size="10.00">AR::SlowDown::printColumn</text>
<text text-anchor="middle" x="214.5" y="-31.5" font-family="FreeSans" font-size="10.00">Title</text>
</a>
</g>
</g>
<!-- Node2 -->
<g id="node2" class="node">
<title>Node2</title>
<g id="a_node2"><a xlink:href="classAR_1_1BinarySlowDown.html#aea2f6baa1725bf932bcdda2c711f913a" target="_top" xlink:title="print titles of class members using column style">
<polygon fill="white" stroke="black" points="1,-49.5 1,-79.5 109,-79.5 109,-49.5 1,-49.5"/>
<text text-anchor="start" x="9" y="-67.5" font-family="FreeSans" font-size="10.00">AR::BinarySlowDown</text>
<text text-anchor="middle" x="55" y="-56.5" font-family="FreeSans" font-size="10.00">::printColumnTitle</text>
</a>
</g>
</g>
<!-- Node1&#45;&gt;Node2 -->
<g id="edge1" class="edge">
<title>Node1&#45;&gt;Node2</title>
<path fill="none" stroke="midnightblue" d="M135.75,-51.84C126.83,-53.26 117.89,-54.68 109.39,-56.03"/>
<polygon fill="midnightblue" stroke="midnightblue" points="136.46,-55.27 145.79,-50.25 135.37,-48.36 136.46,-55.27"/>
</g>
<!-- Node3 -->
<g id="node3" class="node">
<title>Node3</title>
<g id="a_node3"><a xlink:href="classH4_1_1HermiteIntegrator.html#ac5071fb8fac2b382267d541c64b21a9c" target="_top" xlink:title="print titles of class members using column style">
<polygon fill="white" stroke="black" points="0,-0.5 0,-30.5 110,-30.5 110,-0.5 0,-0.5"/>
<text text-anchor="start" x="8" y="-18.5" font-family="FreeSans" font-size="10.00">H4::HermiteIntegrator</text>
<text text-anchor="middle" x="55" y="-7.5" font-family="FreeSans" font-size="10.00">::printColumnTitle</text>
</a>
</g>
</g>
<!-- Node1&#45;&gt;Node3 -->
<g id="edge2" class="edge">
<title>Node1&#45;&gt;Node3</title>
<path fill="none" stroke="midnightblue" d="M135.75,-27.65C127.16,-26.34 118.56,-25.03 110.35,-23.78"/>
<polygon fill="midnightblue" stroke="midnightblue" points="135.38,-31.14 145.79,-29.18 136.43,-24.22 135.38,-31.14"/>
</g>
</g>
</svg>
