<?xml version="1.0" encoding="UTF-8" standalone="no"?>
<!DOCTYPE svg PUBLIC "-//W3C//DTD SVG 1.1//EN"
 "http://www.w3.org/Graphics/SVG/1.1/DTD/svg11.dtd">
<!-- Generated by graphviz version 2.38.0 (20140413.2041)
 -->
<!-- Title: AR::TimeTransformedSymplecticIntegrator::backupIntData Pages: 1 -->
<svg width="339pt" height="88pt"
 viewBox="0.00 0.00 339.00 88.00" xmlns="http://www.w3.org/2000/svg" xmlns:xlink="http://www.w3.org/1999/xlink">
<g id="graph0" class="graph" transform="scale(1 1) rotate(0) translate(4 84)">
<title>AR::TimeTransformedSymplecticIntegrator::backupIntData</title>
<polygon fill="white" stroke="none" points="-4,4 -4,-84 335,-84 335,4 -4,4"/>
<!-- Node1 -->
<g id="node1" class="node"><title>Node1</title>
<polygon fill="#bfbfbf" stroke="black" points="0,-24.5 0,-54.5 158,-54.5 158,-24.5 0,-24.5"/>
<text text-anchor="start" x="8" y="-42.5" font-family="FreeSans" font-size="10.00">AR::TimeTransformedSymplectic</text>
<text text-anchor="middle" x="79" y="-31.5" font-family="FreeSans" font-size="10.00">Integrator::backupIntData</text>
</g>
<!-- Node2 -->
<g id="node2" class="node"><title>Node2</title>
<g id="a_node2"><a xlink:href="classCOMM_1_1ParticleGroup.html#ae28ed1ffac4d21b920fdec8b32d1215c" target="_top" xlink:title="Backup member particle position and velocity. ">
<polygon fill="white" stroke="black" points="204.5,-49.5 204.5,-79.5 320.5,-79.5 320.5,-49.5 204.5,-49.5"/>
<text text-anchor="start" x="212.5" y="-67.5" font-family="FreeSans" font-size="10.00">COMM::ParticleGroup</text>
<text text-anchor="middle" x="262.5" y="-56.5" font-family="FreeSans" font-size="10.00">::backupParticlePosVel</text>
</a>
</g>
</g>
<!-- Node1&#45;&gt;Node2 -->
<g id="edge1" class="edge"><title>Node1&#45;&gt;Node2</title>
<path fill="none" stroke="midnightblue" d="M158.026,-50.2473C170.064,-51.9055 182.407,-53.6057 194.185,-55.228"/>
<polygon fill="midnightblue" stroke="midnightblue" points="193.984,-58.7332 204.368,-56.6306 194.939,-51.7987 193.984,-58.7332"/>
</g>
<!-- Node3 -->
<g id="node3" class="node"><title>Node3</title>
<g id="a_node3"><a xlink:href="classAR_1_1SlowDown.html#a6103fa59192c6de25dd9be66e76d0189" target="_top" xlink:title="backup real time and force ratio ">
<polygon fill="white" stroke="black" points="194,-0.5 194,-30.5 331,-30.5 331,-0.5 194,-0.5"/>
<text text-anchor="start" x="202" y="-18.5" font-family="FreeSans" font-size="10.00">AR::SlowDown::backupSlow</text>
<text text-anchor="middle" x="262.5" y="-7.5" font-family="FreeSans" font-size="10.00">DownFactorAndTimeReal</text>
</a>
</g>
</g>
<!-- Node1&#45;&gt;Node3 -->
<g id="edge2" class="edge"><title>Node1&#45;&gt;Node3</title>
<path fill="none" stroke="midnightblue" d="M158.026,-29.1826C166.589,-28.0502 175.306,-26.8975 183.864,-25.7659"/>
<polygon fill="midnightblue" stroke="midnightblue" points="184.364,-29.2303 193.819,-24.4495 183.447,-22.2907 184.364,-29.2303"/>
</g>
</g>
</svg>
