<?xml version="1.0" encoding="UTF-8" standalone="no"?>
<!DOCTYPE svg PUBLIC "-//W3C//DTD SVG 1.1//EN"
 "http://www.w3.org/Graphics/SVG/1.1/DTD/svg11.dtd">
<!-- Generated by graphviz version 2.38.0 (20140413.2041)
 -->
<!-- Title: H4::HermiteIntegrator::adjustGroups Pages: 1 -->
<svg width="265pt" height="127pt"
 viewBox="0.00 0.00 265.00 126.50" xmlns="http://www.w3.org/2000/svg" xmlns:xlink="http://www.w3.org/1999/xlink">
<g id="graph0" class="graph" transform="scale(1 1) rotate(0) translate(4 122.5)">
<title>H4::HermiteIntegrator::adjustGroups</title>
<polygon fill="white" stroke="none" points="-4,4 -4,-122.5 261,-122.5 261,4 -4,4"/>
<!-- Node1 -->
<g id="node1" class="node"><title>Node1</title>
<polygon fill="#bfbfbf" stroke="black" points="0,-17 0,-47 108,-47 108,-17 0,-17"/>
<text text-anchor="start" x="8" y="-35" font-family="FreeSans" font-size="10.00">H4::HermiteIntegrator</text>
<text text-anchor="middle" x="54" y="-24" font-family="FreeSans" font-size="10.00">::adjustGroups</text>
</g>
<!-- Node2 -->
<g id="node2" class="node"><title>Node2</title>
<g id="a_node2"><a xlink:href="classH4_1_1HermiteManager.html#ad5ab496b530db1dfab24bebc39fabe8e" target="_top" xlink:title="time step calculator ">
<polygon fill="white" stroke="black" points="148.5,-88 148.5,-118 252.5,-118 252.5,-88 148.5,-88"/>
<text text-anchor="start" x="156.5" y="-106" font-family="FreeSans" font-size="10.00">H4::HermiteManager</text>
<text text-anchor="middle" x="200.5" y="-95" font-family="FreeSans" font-size="10.00">::checkParams</text>
</a>
</g>
</g>
<!-- Node1&#45;&gt;Node2 -->
<g id="edge1" class="edge"><title>Node1&#45;&gt;Node2</title>
<path fill="none" stroke="midnightblue" d="M82.3805,-47.1665C99.8399,-56.6606 123.044,-68.9541 144,-79 147.319,-80.5911 150.77,-82.1965 154.255,-83.7826"/>
<polygon fill="midnightblue" stroke="midnightblue" points="152.932,-87.0249 163.489,-87.9124 155.789,-80.6348 152.932,-87.0249"/>
</g>
<!-- Node3 -->
<g id="node3" class="node"><title>Node3</title>
<g id="a_node3"><a xlink:href="classCOMM_1_1List.html#aaddc8ba775e2a6504eb393d7d0c2235b" target="_top" xlink:title="Get modified status. ">
<polygon fill="white" stroke="black" points="144,-39 144,-69 257,-69 257,-39 144,-39"/>
<text text-anchor="start" x="152" y="-57" font-family="FreeSans" font-size="10.00">COMM::List&lt; Tparticle</text>
<text text-anchor="middle" x="200.5" y="-46" font-family="FreeSans" font-size="10.00"> &gt;::isModified</text>
</a>
</g>
</g>
<!-- Node1&#45;&gt;Node3 -->
<g id="edge2" class="edge"><title>Node1&#45;&gt;Node3</title>
<path fill="none" stroke="midnightblue" d="M108.396,-40.1295C116.717,-41.3963 125.397,-42.7178 133.95,-44.0201"/>
<polygon fill="midnightblue" stroke="midnightblue" points="133.491,-47.4904 143.904,-45.5355 134.545,-40.5702 133.491,-47.4904"/>
</g>
<!-- Node4 -->
<g id="node4" class="node"><title>Node4</title>
<g id="a_node4"><a xlink:href="classCOMM_1_1List.html#af1c92acd831f62c52f3385a71d6403e7" target="_top" xlink:title="get current member number ">
<polygon fill="white" stroke="black" points="148.5,-0.5 148.5,-19.5 252.5,-19.5 252.5,-0.5 148.5,-0.5"/>
<text text-anchor="middle" x="200.5" y="-7.5" font-family="FreeSans" font-size="10.00">COMM::List::getSize</text>
</a>
</g>
</g>
<!-- Node1&#45;&gt;Node4 -->
<g id="edge3" class="edge"><title>Node1&#45;&gt;Node4</title>
<path fill="none" stroke="midnightblue" d="M108.396,-17.3291C118.062,-15.639 128.213,-14.0467 138.087,-12.668"/>
<polygon fill="midnightblue" stroke="midnightblue" points="138.795,-16.1047 148.245,-11.3135 137.87,-9.16607 138.795,-16.1047"/>
</g>
<!-- Node1&#45;&gt;Node4 -->
<g id="edge4" class="edge"><title>Node1&#45;&gt;Node4</title>
<path fill="none" stroke="midnightblue" d="M108.396,-30.4119C126.202,-28.1033 145.652,-24.9624 161.99,-21.713"/>
<polygon fill="midnightblue" stroke="midnightblue" points="163.158,-25.0444 172.229,-19.5697 161.724,-18.1929 163.158,-25.0444"/>
</g>
</g>
</svg>
