<?xml version="1.0" encoding="UTF-8" standalone="no"?>
<!DOCTYPE svg PUBLIC "-//W3C//DTD SVG 1.1//EN"
 "http://www.w3.org/Graphics/SVG/1.1/DTD/svg11.dtd">
<!-- Generated by graphviz version 2.38.0 (20140413.2041)
 -->
<!-- Title: AR::TimeTransformedSymplecticIntegrator&lt; Tparticle, Tpcm, Tpert, Tmethod, Tinfo &gt; Pages: 1 -->
<svg width="172pt" height="117pt"
 viewBox="0.00 0.00 172.00 117.00" xmlns="http://www.w3.org/2000/svg" xmlns:xlink="http://www.w3.org/1999/xlink">
<g id="graph0" class="graph" transform="scale(1 1) rotate(0) translate(4 113)">
<title>AR::TimeTransformedSymplecticIntegrator&lt; Tparticle, Tpcm, Tpert, Tmethod, Tinfo &gt;</title>
<polygon fill="white" stroke="none" points="-4,4 -4,-113 168,-113 168,4 -4,4"/>
<!-- Node1 -->
<g id="node1" class="node"><title>Node1</title>
<polygon fill="#bfbfbf" stroke="black" points="-1.42109e-14,-0.5 -1.42109e-14,-41.5 158,-41.5 158,-0.5 -1.42109e-14,-0.5"/>
<text text-anchor="start" x="8" y="-29.5" font-family="FreeSans" font-size="10.00">AR::TimeTransformedSymplectic</text>
<text text-anchor="start" x="8" y="-18.5" font-family="FreeSans" font-size="10.00">Integrator&lt; Tparticle, Tpcm,</text>
<text text-anchor="middle" x="79" y="-7.5" font-family="FreeSans" font-size="10.00"> Tpert, Tmethod, Tinfo &gt;</text>
</g>
<!-- Node2 -->
<g id="node2" class="node"><title>Node2</title>
<g id="a_node2"><a xlink:href="classAR_1_1Profile.html" target="_top" xlink:title="profiling class for AR integrator ">
<polygon fill="white" stroke="black" points="4,-89.5 4,-108.5 66,-108.5 66,-89.5 4,-89.5"/>
<text text-anchor="middle" x="35" y="-96.5" font-family="FreeSans" font-size="10.00">AR::Profile</text>
</a>
</g>
</g>
<!-- Node2&#45;&gt;Node1 -->
<g id="edge1" class="edge"><title>Node2&#45;&gt;Node1</title>
<path fill="none" stroke="#9a32cd" stroke-dasharray="5,2" d="M45.1046,-80.5466C51.8216,-68.9445 60.6542,-53.6883 67.6188,-41.6584"/>
<polygon fill="#9a32cd" stroke="#9a32cd" points="42.0288,-78.8739 40.0474,-89.2818 48.0868,-82.3812 42.0288,-78.8739"/>
<text text-anchor="middle" x="71" y="-63" font-family="FreeSans" font-size="10.00"> profile</text>
</g>
<!-- Node3 -->
<g id="node3" class="node"><title>Node3</title>
<g id="a_node3"><a xlink:href="classAR_1_1SlowDown.html" target="_top" xlink:title="Slow&#45;down parameter control class. ">
<polygon fill="white" stroke="black" points="84,-89.5 84,-108.5 164,-108.5 164,-89.5 84,-89.5"/>
<text text-anchor="middle" x="124" y="-96.5" font-family="FreeSans" font-size="10.00">AR::SlowDown</text>
</a>
</g>
</g>
<!-- Node3&#45;&gt;Node1 -->
<g id="edge2" class="edge"><title>Node3&#45;&gt;Node1</title>
<path fill="none" stroke="#9a32cd" stroke-dasharray="5,2" d="M113.666,-80.5466C106.796,-68.9445 97.7628,-53.6883 90.6398,-41.6584"/>
<polygon fill="#9a32cd" stroke="#9a32cd" points="110.731,-82.4603 118.838,-89.2818 116.755,-78.8938 110.731,-82.4603"/>
<text text-anchor="middle" x="128" y="-63" font-family="FreeSans" font-size="10.00"> slowdown</text>
</g>
</g>
</svg>
