<?xml version="1.0" encoding="UTF-8" standalone="no"?>
<!DOCTYPE svg PUBLIC "-//W3C//DTD SVG 1.1//EN"
 "http://www.w3.org/Graphics/SVG/1.1/DTD/svg11.dtd">
<!-- Generated by graphviz version 2.43.0 (0)
 -->
<!-- Title: H4::HermiteIntegrator::printColumnTitle Pages: 1 -->
<svg width="291pt" height="88pt"
 viewBox="0.00 0.00 291.00 88.00" xmlns="http://www.w3.org/2000/svg" xmlns:xlink="http://www.w3.org/1999/xlink">
<g id="graph0" class="graph" transform="scale(1 1) rotate(0) translate(4 84)">
<title>H4::HermiteIntegrator::printColumnTitle</title>
<polygon fill="white" stroke="transparent" points="-4,4 -4,-84 287,-84 287,4 -4,4"/>
<!-- Node1 -->
<g id="node1" class="node">
<title>Node1</title>
<g id="a_node1"><a xlink:title="print titles of class members using column style">
<polygon fill="#bfbfbf" stroke="black" points="0,-24.5 0,-54.5 110,-54.5 110,-24.5 0,-24.5"/>
<text text-anchor="start" x="8" y="-42.5" font-family="FreeSans" font-size="10.00">H4::HermiteIntegrator</text>
<text text-anchor="middle" x="55" y="-31.5" font-family="FreeSans" font-size="10.00">::printColumnTitle</text>
</a>
</g>
</g>
<!-- Node2 -->
<g id="node2" class="node">
<title>Node2</title>
<g id="a_node2"><a xlink:href="classH4_1_1Profile.html#a8e51775cec14994e52c5b1e5dc320df3" target="_top" xlink:title="print titles of class members using column style">
<polygon fill="white" stroke="black" points="156,-49.5 156,-79.5 273,-79.5 273,-49.5 156,-49.5"/>
<text text-anchor="start" x="164" y="-67.5" font-family="FreeSans" font-size="10.00">H4::Profile::printColumn</text>
<text text-anchor="middle" x="214.5" y="-56.5" font-family="FreeSans" font-size="10.00">Title</text>
</a>
</g>
</g>
<!-- Node1&#45;&gt;Node2 -->
<g id="edge1" class="edge">
<title>Node1&#45;&gt;Node2</title>
<path fill="none" stroke="midnightblue" d="M110.2,-48.1C121.74,-49.94 134.06,-51.89 146.03,-53.79"/>
<polygon fill="midnightblue" stroke="midnightblue" points="145.55,-57.26 155.97,-55.37 146.65,-50.34 145.55,-57.26"/>
</g>
<!-- Node3 -->
<g id="node3" class="node">
<title>Node3</title>
<g id="a_node3"><a xlink:href="classAR_1_1SlowDown.html#aabda0e13486505032234934132a127a9" target="_top" xlink:title="print titles of class members using column style">
<polygon fill="white" stroke="black" points="146,-0.5 146,-30.5 283,-30.5 283,-0.5 146,-0.5"/>
<text text-anchor="start" x="154" y="-18.5" font-family="FreeSans" font-size="10.00">AR::SlowDown::printColumn</text>
<text text-anchor="middle" x="214.5" y="-7.5" font-family="FreeSans" font-size="10.00">Title</text>
</a>
</g>
</g>
<!-- Node1&#45;&gt;Node3 -->
<g id="edge2" class="edge">
<title>Node1&#45;&gt;Node3</title>
<path fill="none" stroke="midnightblue" d="M110.2,-31.24C118.45,-29.98 127.1,-28.67 135.74,-27.35"/>
<polygon fill="midnightblue" stroke="midnightblue" points="136.48,-30.78 145.84,-25.81 135.43,-23.86 136.48,-30.78"/>
</g>
</g>
</svg>
