<?xml version="1.0" encoding="UTF-8" standalone="no"?>
<!DOCTYPE svg PUBLIC "-//W3C//DTD SVG 1.1//EN"
 "http://www.w3.org/Graphics/SVG/1.1/DTD/svg11.dtd">
<!-- Generated by graphviz version 2.43.0 (0)
 -->
<!-- Title: AR::TimeTransformedSymplecticIntegrator::integrateOneStep Pages: 1 -->
<svg width="317pt" height="39pt"
 viewBox="0.00 0.00 317.00 39.00" xmlns="http://www.w3.org/2000/svg" xmlns:xlink="http://www.w3.org/1999/xlink">
<g id="graph0" class="graph" transform="scale(1 1) rotate(0) translate(4 35)">
<title>AR::TimeTransformedSymplecticIntegrator::integrateOneStep</title>
<polygon fill="white" stroke="transparent" points="-4,4 -4,-35 313,-35 313,4 -4,4"/>
<!-- Node1 -->
<g id="node1" class="node">
<title>Node1</title>
<g id="a_node1"><a xlink:title="integration for one step">
<polygon fill="#bfbfbf" stroke="black" points="0,-0.5 0,-30.5 159,-30.5 159,-0.5 0,-0.5"/>
<text text-anchor="start" x="8" y="-18.5" font-family="FreeSans" font-size="10.00">AR::TimeTransformedSymplectic</text>
<text text-anchor="middle" x="79.5" y="-7.5" font-family="FreeSans" font-size="10.00">Integrator::integrateOneStep</text>
</a>
</g>
</g>
<!-- Node2 -->
<g id="node2" class="node">
<title>Node2</title>
<g id="a_node2"><a xlink:href="classCOMM_1_1List.html#ae7f0254c3a70d0459c3cdf8073c20b0d" target="_top" xlink:title="Get modified status.">
<polygon fill="white" stroke="black" points="195,-0.5 195,-30.5 309,-30.5 309,-0.5 195,-0.5"/>
<text text-anchor="start" x="203" y="-18.5" font-family="FreeSans" font-size="10.00">COMM::List&lt; Tparticle</text>
<text text-anchor="middle" x="252" y="-7.5" font-family="FreeSans" font-size="10.00"> &gt;::isModified</text>
</a>
</g>
</g>
<!-- Node1&#45;&gt;Node2 -->
<g id="edge1" class="edge">
<title>Node1&#45;&gt;Node2</title>
<path fill="none" stroke="midnightblue" d="M159.26,-15.5C167.82,-15.5 176.47,-15.5 184.86,-15.5"/>
<polygon fill="midnightblue" stroke="midnightblue" points="184.94,-19 194.94,-15.5 184.94,-12 184.94,-19"/>
</g>
</g>
</svg>
