<?xml version="1.0" encoding="UTF-8" standalone="no"?>
<!DOCTYPE svg PUBLIC "-//W3C//DTD SVG 1.1//EN"
 "http://www.w3.org/Graphics/SVG/1.1/DTD/svg11.dtd">
<!-- Generated by graphviz version 2.38.0 (20140413.2041)
 -->
<!-- Title: COMM::List::resizeNoInitialize Pages: 1 -->
<svg width="505pt" height="410pt"
 viewBox="0.00 0.00 505.00 410.00" xmlns="http://www.w3.org/2000/svg" xmlns:xlink="http://www.w3.org/1999/xlink">
<g id="graph0" class="graph" transform="scale(1 1) rotate(0) translate(4 406)">
<title>COMM::List::resizeNoInitialize</title>
<polygon fill="white" stroke="none" points="-4,4 -4,-406 501,-406 501,4 -4,4"/>
<!-- Node1 -->
<g id="node1" class="node"><title>Node1</title>
<polygon fill="#bfbfbf" stroke="black" points="0,-186 0,-205 143,-205 143,-186 0,-186"/>
<text text-anchor="middle" x="71.5" y="-193" font-family="FreeSans" font-size="10.00">COMM::List::resizeNoInitialize</text>
</g>
<!-- Node2 -->
<g id="node2" class="node"><title>Node2</title>
<g id="a_node2"><a xlink:href="classH4_1_1ARInformation.html#a621aae6cac384b1897d410fc204e775a" target="_top" xlink:title="Initialize group of particles from a binarytree. ">
<polygon fill="white" stroke="black" points="185,-371.5 185,-401.5 340,-401.5 340,-371.5 185,-371.5"/>
<text text-anchor="start" x="193" y="-389.5" font-family="FreeSans" font-size="10.00">H4::ARInformation::</text>
<text text-anchor="middle" x="262.5" y="-378.5" font-family="FreeSans" font-size="10.00">addParticlesAndCopyBinaryTree</text>
</a>
</g>
</g>
<!-- Node1&#45;&gt;Node2 -->
<g id="edge1" class="edge"><title>Node1&#45;&gt;Node2</title>
<path fill="none" stroke="midnightblue" d="M80.2312,-214.493C94.7353,-247.86 129.128,-317.185 179,-356.5 186.66,-362.539 195.646,-367.433 204.817,-371.377"/>
<polygon fill="midnightblue" stroke="midnightblue" points="83.3402,-212.858 76.2266,-205.006 76.8913,-215.58 83.3402,-212.858"/>
</g>
<!-- Node3 -->
<g id="node3" class="node"><title>Node3</title>
<g id="a_node3"><a xlink:href="classH4_1_1HermiteIntegrator.html#ab37772f7b30dbb9cc6de51bf58a20fae" target="_top" xlink:title="reserve memory for system ">
<polygon fill="white" stroke="black" points="382,-253.5 382,-283.5 497,-283.5 497,-253.5 382,-253.5"/>
<text text-anchor="start" x="390" y="-271.5" font-family="FreeSans" font-size="10.00">H4::HermiteIntegrator</text>
<text text-anchor="middle" x="439.5" y="-260.5" font-family="FreeSans" font-size="10.00">::reserveIntegratorMem</text>
</a>
</g>
</g>
<!-- Node1&#45;&gt;Node3 -->
<g id="edge2" class="edge"><title>Node1&#45;&gt;Node3</title>
<path fill="none" stroke="midnightblue" d="M81.5375,-214.688C96.7906,-244.507 130.768,-300.887 179,-323.5 246.203,-355.008 274.432,-343.17 346,-323.5 374.104,-315.776 402.305,-297.042 420.049,-283.585"/>
<polygon fill="midnightblue" stroke="midnightblue" points="84.493,-212.768 76.9304,-205.348 78.2151,-215.865 84.493,-212.768"/>
</g>
<!-- Node4 -->
<g id="node4" class="node"><title>Node4</title>
<g id="a_node4"><a xlink:href="classH4_1_1HermiteIntegrator.html#ae588ac618961f983b7c8710b2e6a65dc" target="_top" xlink:title="Initial system array. ">
<polygon fill="white" stroke="black" points="208.5,-283.5 208.5,-313.5 316.5,-313.5 316.5,-283.5 208.5,-283.5"/>
<text text-anchor="start" x="216.5" y="-301.5" font-family="FreeSans" font-size="10.00">H4::HermiteIntegrator</text>
<text text-anchor="middle" x="262.5" y="-290.5" font-family="FreeSans" font-size="10.00">::initialSystemSingle</text>
</a>
</g>
</g>
<!-- Node1&#45;&gt;Node4 -->
<g id="edge3" class="edge"><title>Node1&#45;&gt;Node4</title>
<path fill="none" stroke="midnightblue" d="M90.3203,-211.874C110.47,-229.598 144.926,-257.59 179,-274.5 188.086,-279.009 198.166,-282.816 208.071,-285.976"/>
<polygon fill="midnightblue" stroke="midnightblue" points="92.632,-209.246 82.8448,-205.188 87.9657,-214.463 92.632,-209.246"/>
</g>
<!-- Node5 -->
<g id="node5" class="node"><title>Node5</title>
<g id="a_node5"><a xlink:href="classAR_1_1Information.html#a14e49407402b8d9e350b9e4cde688e0d" target="_top" xlink:title="generate binary tree for the particle group ">
<polygon fill="white" stroke="black" points="179,-224 179,-265 346,-265 346,-224 179,-224"/>
<text text-anchor="start" x="187" y="-253" font-family="FreeSans" font-size="10.00">AR::Information&lt; Particle</text>
<text text-anchor="start" x="187" y="-242" font-family="FreeSans" font-size="10.00">AR&lt; Tparticle &gt;, ParticleH4</text>
<text text-anchor="middle" x="262.5" y="-231" font-family="FreeSans" font-size="10.00">&lt; Tparticle &gt; &gt;::generateBinaryTree</text>
</a>
</g>
</g>
<!-- Node1&#45;&gt;Node5 -->
<g id="edge4" class="edge"><title>Node1&#45;&gt;Node5</title>
<path fill="none" stroke="midnightblue" d="M119.256,-207.622C138.229,-212.541 160.685,-218.363 182.082,-223.91"/>
<polygon fill="midnightblue" stroke="midnightblue" points="119.948,-204.186 109.39,-205.064 118.191,-210.962 119.948,-204.186"/>
</g>
<!-- Node6 -->
<g id="node6" class="node"><title>Node6</title>
<g id="a_node6"><a xlink:href="classH4_1_1Neighbor.html#afe89ca65c2ced4c9e36ccf027bc4ff81" target="_top" xlink:title="reset neighbor information ">
<polygon fill="white" stroke="black" points="195,-186 195,-205 330,-205 330,-186 195,-186"/>
<text text-anchor="middle" x="262.5" y="-193" font-family="FreeSans" font-size="10.00">H4::Neighbor::resetNeighbor</text>
</a>
</g>
</g>
<!-- Node1&#45;&gt;Node6 -->
<g id="edge5" class="edge"><title>Node1&#45;&gt;Node6</title>
<path fill="none" stroke="midnightblue" d="M153.547,-195.5C167.273,-195.5 181.386,-195.5 194.695,-195.5"/>
<polygon fill="midnightblue" stroke="midnightblue" points="153.145,-192 143.145,-195.5 153.145,-199 153.145,-192"/>
</g>
<!-- Node7 -->
<g id="node7" class="node"><title>Node7</title>
<g id="a_node7"><a xlink:href="classH4_1_1Neighbor.html#adb50a3684215fd3b4951fe6ccf4dc8c7" target="_top" xlink:title="clear no release memory ">
<polygon fill="white" stroke="black" points="187.5,-148 187.5,-167 337.5,-167 337.5,-148 187.5,-148"/>
<text text-anchor="middle" x="262.5" y="-155" font-family="FreeSans" font-size="10.00">H4::Neighbor::clearNoFreeMem</text>
</a>
</g>
</g>
<!-- Node1&#45;&gt;Node7 -->
<g id="edge7" class="edge"><title>Node1&#45;&gt;Node7</title>
<path fill="none" stroke="midnightblue" d="M130.242,-183.89C157.122,-178.486 188.703,-172.136 214.15,-167.02"/>
<polygon fill="midnightblue" stroke="midnightblue" points="129.307,-180.508 120.193,-185.911 130.686,-187.371 129.307,-180.508"/>
</g>
<!-- Node8 -->
<g id="node8" class="node"><title>Node8</title>
<g id="a_node8"><a xlink:href="classAR_1_1TimeTransformedSymplecticIntegrator.html#aa655bbfc4e9f9af1ae7f7a09fc193443" target="_top" xlink:title="operator = ">
<polygon fill="white" stroke="black" points="183.5,-98.5 183.5,-128.5 341.5,-128.5 341.5,-98.5 183.5,-98.5"/>
<text text-anchor="start" x="191.5" y="-116.5" font-family="FreeSans" font-size="10.00">AR::TimeTransformedSymplectic</text>
<text text-anchor="middle" x="262.5" y="-105.5" font-family="FreeSans" font-size="10.00">Integrator::operator=</text>
</a>
</g>
</g>
<!-- Node1&#45;&gt;Node8 -->
<g id="edge8" class="edge"><title>Node1&#45;&gt;Node8</title>
<path fill="none" stroke="midnightblue" d="M96.9142,-180.642C118.076,-168.205 149.804,-150.598 179,-138.5 187.71,-134.891 197.13,-131.544 206.382,-128.549"/>
<polygon fill="midnightblue" stroke="midnightblue" points="95.0632,-177.671 88.2562,-185.79 98.6405,-183.688 95.0632,-177.671"/>
</g>
<!-- Node9 -->
<g id="node9" class="node"><title>Node9</title>
<g id="a_node9"><a xlink:href="classAR_1_1TimeTransformedSymplecticIntegrator.html#a4db984abe326fd1a30b3d52f6537e5eb" target="_top" xlink:title="initialization for integration ">
<polygon fill="white" stroke="black" points="183.5,-49.5 183.5,-79.5 341.5,-79.5 341.5,-49.5 183.5,-49.5"/>
<text text-anchor="start" x="191.5" y="-67.5" font-family="FreeSans" font-size="10.00">AR::TimeTransformedSymplectic</text>
<text text-anchor="middle" x="262.5" y="-56.5" font-family="FreeSans" font-size="10.00">Integrator::initialIntegration</text>
</a>
</g>
</g>
<!-- Node1&#45;&gt;Node9 -->
<g id="edge9" class="edge"><title>Node1&#45;&gt;Node9</title>
<path fill="none" stroke="midnightblue" d="M85.7893,-177.643C104.203,-154.12 139.684,-112.994 179,-89.5 185.424,-85.6614 192.485,-82.3686 199.69,-79.5548"/>
<polygon fill="midnightblue" stroke="midnightblue" points="82.9016,-175.657 79.5953,-185.723 88.457,-179.916 82.9016,-175.657"/>
</g>
<!-- Node10 -->
<g id="node10" class="node"><title>Node10</title>
<g id="a_node10"><a xlink:href="classAR_1_1TimeTransformedSymplecticIntegrator.html#a9a5c7bd3dfff2fd3ab96fd639ec30d27" target="_top" xlink:title="read class data with BINARY format and initial the array ">
<polygon fill="white" stroke="black" points="183.5,-0.5 183.5,-30.5 341.5,-30.5 341.5,-0.5 183.5,-0.5"/>
<text text-anchor="start" x="191.5" y="-18.5" font-family="FreeSans" font-size="10.00">AR::TimeTransformedSymplectic</text>
<text text-anchor="middle" x="262.5" y="-7.5" font-family="FreeSans" font-size="10.00">Integrator::readBinary</text>
</a>
</g>
</g>
<!-- Node1&#45;&gt;Node10 -->
<g id="edge10" class="edge"><title>Node1&#45;&gt;Node10</title>
<path fill="none" stroke="midnightblue" d="M80.4265,-176.479C95.0295,-143.762 129.301,-76.8509 179,-40.5 184.315,-36.6124 190.24,-33.3227 196.409,-30.5401"/>
<polygon fill="midnightblue" stroke="midnightblue" points="77.1444,-175.251 76.3818,-185.818 83.5678,-178.033 77.1444,-175.251"/>
</g>
<!-- Node6&#45;&gt;Node3 -->
<g id="edge6" class="edge"><title>Node6&#45;&gt;Node3</title>
<path fill="none" stroke="midnightblue" d="M325.824,-207.72C332.724,-209.7 339.574,-211.953 346,-214.5 371.757,-224.71 398.867,-241.328 417.029,-253.436"/>
<polygon fill="midnightblue" stroke="midnightblue" points="326.286,-204.22 315.721,-205.011 324.473,-210.982 326.286,-204.22"/>
</g>
</g>
</svg>
