<?xml version="1.0" encoding="UTF-8" standalone="no"?>
<!DOCTYPE svg PUBLIC "-//W3C//DTD SVG 1.1//EN"
 "http://www.w3.org/Graphics/SVG/1.1/DTD/svg11.dtd">
<!-- Generated by graphviz version 2.43.0 (0)
 -->
<!-- Title: H4::HermiteIntegrator::clear Pages: 1 -->
<svg width="256pt" height="166pt"
 viewBox="0.00 0.00 256.00 165.50" xmlns="http://www.w3.org/2000/svg" xmlns:xlink="http://www.w3.org/1999/xlink">
<g id="graph0" class="graph" transform="scale(1 1) rotate(0) translate(4 161.5)">
<title>H4::HermiteIntegrator::clear</title>
<polygon fill="white" stroke="transparent" points="-4,4 -4,-161.5 252,-161.5 252,4 -4,4"/>
<!-- Node1 -->
<g id="node1" class="node">
<title>Node1</title>
<g id="a_node1"><a xlink:title="clear function">
<polygon fill="#bfbfbf" stroke="black" points="0,-66.5 0,-96.5 110,-96.5 110,-66.5 0,-66.5"/>
<text text-anchor="start" x="8" y="-84.5" font-family="FreeSans" font-size="10.00">H4::HermiteIntegrator</text>
<text text-anchor="middle" x="55" y="-73.5" font-family="FreeSans" font-size="10.00">::clear</text>
</a>
</g>
</g>
<!-- Node2 -->
<g id="node2" class="node">
<title>Node2</title>
<g id="a_node2"><a xlink:href="classH4_1_1Profile.html#acddb468fc57a003b653b6d2181e0e1f0" target="_top" xlink:title=" ">
<polygon fill="white" stroke="black" points="154,-138 154,-157 240,-157 240,-138 154,-138"/>
<text text-anchor="middle" x="197" y="-145" font-family="FreeSans" font-size="10.00">H4::Profile::clear</text>
</a>
</g>
</g>
<!-- Node1&#45;&gt;Node2 -->
<g id="edge1" class="edge">
<title>Node1&#45;&gt;Node2</title>
<path fill="none" stroke="midnightblue" d="M82.76,-96.54C100.45,-106.21 124.29,-118.75 146,-128.5 150.38,-130.47 155.02,-132.41 159.65,-134.27"/>
<polygon fill="midnightblue" stroke="midnightblue" points="158.45,-137.55 169.03,-137.92 160.99,-131.03 158.45,-137.55"/>
</g>
<!-- Node3 -->
<g id="node3" class="node">
<title>Node3</title>
<g id="a_node3"><a xlink:href="structAR_1_1InterruptBinary.html#a1309ddc9ea338b2990190c72c37d8c06" target="_top" xlink:title=" ">
<polygon fill="white" stroke="black" points="148,-88.5 148,-118.5 246,-118.5 246,-88.5 148,-88.5"/>
<text text-anchor="start" x="156" y="-106.5" font-family="FreeSans" font-size="10.00">AR::InterruptBinary</text>
<text text-anchor="middle" x="197" y="-95.5" font-family="FreeSans" font-size="10.00">::clear</text>
</a>
</g>
</g>
<!-- Node1&#45;&gt;Node3 -->
<g id="edge2" class="edge">
<title>Node1&#45;&gt;Node3</title>
<path fill="none" stroke="midnightblue" d="M110.13,-90.01C119.28,-91.44 128.82,-92.94 138.06,-94.4"/>
<polygon fill="midnightblue" stroke="midnightblue" points="137.53,-97.85 147.95,-95.95 138.62,-90.94 137.53,-97.85"/>
</g>
<!-- Node4 -->
<g id="node4" class="node">
<title>Node4</title>
<g id="a_node4"><a xlink:href="classCOMM_1_1List.html#aceaeddd10f8a05984f25a258a48c2620" target="_top" xlink:title="Clear function.">
<polygon fill="white" stroke="black" points="150,-50 150,-69 244,-69 244,-50 150,-50"/>
<text text-anchor="middle" x="197" y="-57" font-family="FreeSans" font-size="10.00">COMM::List::clear</text>
</a>
</g>
</g>
<!-- Node1&#45;&gt;Node4 -->
<g id="edge3" class="edge">
<title>Node1&#45;&gt;Node4</title>
<path fill="none" stroke="midnightblue" d="M110.13,-72.99C119.84,-71.47 129.97,-69.88 139.74,-68.34"/>
<polygon fill="midnightblue" stroke="midnightblue" points="140.42,-71.78 149.75,-66.77 139.33,-64.86 140.42,-71.78"/>
</g>
<!-- Node5 -->
<g id="node5" class="node">
<title>Node5</title>
<g id="a_node5"><a xlink:href="structH4_1_1HermiteEnergy.html#a716caf752e5366863b7b8abfbc1e269d" target="_top" xlink:title="clear function">
<polygon fill="white" stroke="black" points="146,-0.5 146,-30.5 248,-30.5 248,-0.5 146,-0.5"/>
<text text-anchor="start" x="154" y="-18.5" font-family="FreeSans" font-size="10.00">H4::HermiteEnergy::</text>
<text text-anchor="middle" x="197" y="-7.5" font-family="FreeSans" font-size="10.00">clear</text>
</a>
</g>
</g>
<!-- Node1&#45;&gt;Node5 -->
<g id="edge4" class="edge">
<title>Node1&#45;&gt;Node5</title>
<path fill="none" stroke="midnightblue" d="M88.12,-66.36C107.95,-57.01 133.58,-44.92 154.89,-34.88"/>
<polygon fill="midnightblue" stroke="midnightblue" points="156.48,-38 164.03,-30.57 153.49,-31.67 156.48,-38"/>
</g>
</g>
</svg>
