<?xml version="1.0" encoding="UTF-8" standalone="no"?>
<!DOCTYPE svg PUBLIC "-//W3C//DTD SVG 1.1//EN"
 "http://www.w3.org/Graphics/SVG/1.1/DTD/svg11.dtd">
<!-- Generated by graphviz version 2.38.0 (20140413.2041)
 -->
<!-- Title: COMM::Binary::calcEccAnomaly Pages: 1 -->
<svg width="478pt" height="28pt"
 viewBox="0.00 0.00 478.00 28.00" xmlns="http://www.w3.org/2000/svg" xmlns:xlink="http://www.w3.org/1999/xlink">
<g id="graph0" class="graph" transform="scale(1 1) rotate(0) translate(4 24)">
<title>COMM::Binary::calcEccAnomaly</title>
<polygon fill="white" stroke="none" points="-4,4 -4,-24 474,-24 474,4 -4,4"/>
<!-- Node1 -->
<g id="node1" class="node"><title>Node1</title>
<polygon fill="#bfbfbf" stroke="black" points="0,-0.5 0,-19.5 155,-19.5 155,-0.5 0,-0.5"/>
<text text-anchor="middle" x="77.5" y="-7.5" font-family="FreeSans" font-size="10.00">COMM::Binary::calcEccAnomaly</text>
</g>
<!-- Node2 -->
<g id="node2" class="node"><title>Node2</title>
<g id="a_node2"><a xlink:href="classCOMM_1_1Binary.html#a223000b97a96b3c97941d8ec6af32dbc" target="_top" xlink:title="solve kepler orbit after dt ">
<polygon fill="white" stroke="black" points="191,-0.5 191,-19.5 324,-19.5 324,-0.5 191,-0.5"/>
<text text-anchor="middle" x="257.5" y="-7.5" font-family="FreeSans" font-size="10.00">COMM::Binary::solveKepler</text>
</a>
</g>
</g>
<!-- Node1&#45;&gt;Node2 -->
<g id="edge1" class="edge"><title>Node1&#45;&gt;Node2</title>
<path fill="none" stroke="midnightblue" d="M165.171,-10C173.846,-10 182.55,-10 190.954,-10"/>
<polygon fill="midnightblue" stroke="midnightblue" points="165.021,-6.5001 155.021,-10 165.021,-13.5001 165.021,-6.5001"/>
</g>
<!-- Node3 -->
<g id="node3" class="node"><title>Node3</title>
<g id="a_node3"><a xlink:href="classCOMM_1_1Binary.html#ab71d171dc5e238a22dbc93e62397137c" target="_top" xlink:title="Solve kepler motion for dt. ">
<polygon fill="white" stroke="black" points="360,-0.5 360,-19.5 470,-19.5 470,-0.5 360,-0.5"/>
<text text-anchor="middle" x="415" y="-7.5" font-family="FreeSans" font-size="10.00">COMM::Binary::evolve</text>
</a>
</g>
</g>
<!-- Node2&#45;&gt;Node3 -->
<g id="edge2" class="edge"><title>Node2&#45;&gt;Node3</title>
<path fill="none" stroke="midnightblue" d="M334.705,-10C343.147,-10 351.613,-10 359.706,-10"/>
<polygon fill="midnightblue" stroke="midnightblue" points="334.446,-6.5001 324.446,-10 334.446,-13.5001 334.446,-6.5001"/>
</g>
</g>
</svg>
