<?xml version="1.0" encoding="UTF-8" standalone="no"?>
<!DOCTYPE svg PUBLIC "-//W3C//DTD SVG 1.1//EN"
 "http://www.w3.org/Graphics/SVG/1.1/DTD/svg11.dtd">
<!-- Generated by graphviz version 2.38.0 (20140413.2041)
 -->
<!-- Title: AR::TimeTransformedSymplecticIntegrator::integrateToTime Pages: 1 -->
<svg width="360pt" height="341pt"
 viewBox="0.00 0.00 360.00 341.00" xmlns="http://www.w3.org/2000/svg" xmlns:xlink="http://www.w3.org/1999/xlink">
<g id="graph0" class="graph" transform="scale(1 1) rotate(0) translate(4 337)">
<title>AR::TimeTransformedSymplecticIntegrator::integrateToTime</title>
<polygon fill="white" stroke="none" points="-4,4 -4,-337 356,-337 356,4 -4,4"/>
<!-- Node1 -->
<g id="node1" class="node"><title>Node1</title>
<polygon fill="#bfbfbf" stroke="black" points="0,-170.5 0,-200.5 158,-200.5 158,-170.5 0,-170.5"/>
<text text-anchor="start" x="8" y="-188.5" font-family="FreeSans" font-size="10.00">AR::TimeTransformedSymplectic</text>
<text text-anchor="middle" x="79" y="-177.5" font-family="FreeSans" font-size="10.00">Integrator::integrateToTime</text>
</g>
<!-- Node2 -->
<g id="node2" class="node"><title>Node2</title>
<g id="a_node2"><a xlink:href="classAR_1_1TimeTransformedSymplecticManager.html#a8921a86541d095de3a8685f4aad2da48" target="_top" xlink:title="check whether parameters values are correct ">
<polygon fill="white" stroke="black" points="194,-302.5 194,-332.5 352,-332.5 352,-302.5 194,-302.5"/>
<text text-anchor="start" x="202" y="-320.5" font-family="FreeSans" font-size="10.00">AR::TimeTransformedSymplectic</text>
<text text-anchor="middle" x="273" y="-309.5" font-family="FreeSans" font-size="10.00">Manager::checkParams</text>
</a>
</g>
</g>
<!-- Node1&#45;&gt;Node2 -->
<g id="edge1" class="edge"><title>Node1&#45;&gt;Node2</title>
<path fill="none" stroke="midnightblue" d="M92.3971,-200.872C111.767,-223.932 151.424,-267.443 194,-292.5 197.654,-294.65 201.514,-296.639 205.484,-298.474"/>
<polygon fill="midnightblue" stroke="midnightblue" points="204.326,-301.785 214.898,-302.482 207.068,-295.345 204.326,-301.785"/>
</g>
<!-- Node3 -->
<g id="node3" class="node"><title>Node3</title>
<g id="a_node3"><a xlink:href="classAR_1_1SlowDown.html#ad5c3d75646774b843eb1eefc86f10b52" target="_top" xlink:title="get real time value ">
<polygon fill="white" stroke="black" points="203.5,-264 203.5,-283 342.5,-283 342.5,-264 203.5,-264"/>
<text text-anchor="middle" x="273" y="-271" font-family="FreeSans" font-size="10.00">AR::SlowDown::getRealTime</text>
</a>
</g>
</g>
<!-- Node1&#45;&gt;Node3 -->
<g id="edge2" class="edge"><title>Node1&#45;&gt;Node3</title>
<path fill="none" stroke="midnightblue" d="M100.404,-200.504C122.459,-216.069 159.145,-240.107 194,-254.5 200.145,-257.038 206.709,-259.289 213.321,-261.273"/>
<polygon fill="midnightblue" stroke="midnightblue" points="212.427,-264.658 223.001,-263.991 214.319,-257.918 212.427,-264.658"/>
</g>
<!-- Node4 -->
<g id="node4" class="node"><title>Node4</title>
<g id="a_node4"><a xlink:href="classCOMM_1_1List.html#af1c92acd831f62c52f3385a71d6403e7" target="_top" xlink:title="get current member number ">
<polygon fill="white" stroke="black" points="216.5,-214.5 216.5,-244.5 329.5,-244.5 329.5,-214.5 216.5,-214.5"/>
<text text-anchor="start" x="224.5" y="-232.5" font-family="FreeSans" font-size="10.00">COMM::List&lt; Tparticle</text>
<text text-anchor="middle" x="273" y="-221.5" font-family="FreeSans" font-size="10.00"> &gt;::getSize</text>
</a>
</g>
</g>
<!-- Node1&#45;&gt;Node4 -->
<g id="edge3" class="edge"><title>Node1&#45;&gt;Node4</title>
<path fill="none" stroke="midnightblue" d="M158.094,-196.752C179.401,-201.381 201.927,-206.747 221.273,-211.842"/>
<polygon fill="midnightblue" stroke="midnightblue" points="220.51,-215.261 231.076,-214.476 222.327,-208.501 220.51,-215.261"/>
</g>
<!-- Node1&#45;&gt;Node4 -->
<g id="edge4" class="edge"><title>Node1&#45;&gt;Node4</title>
<path fill="none" stroke="midnightblue" d="M121.189,-200.596C146.027,-207.406 178.228,-215.046 206.493,-220.926"/>
<polygon fill="midnightblue" stroke="midnightblue" points="205.811,-224.359 216.309,-222.928 207.21,-217.5 205.811,-224.359"/>
</g>
<!-- Node5 -->
<g id="node5" class="node"><title>Node5</title>
<g id="a_node5"><a xlink:href="classCOMM_1_1List.html#a125e4f93ee02b677f8377bd541f2105d" target="_top" xlink:title="return member data array address ">
<polygon fill="white" stroke="black" points="203,-176 203,-195 343,-195 343,-176 203,-176"/>
<text text-anchor="middle" x="273" y="-183" font-family="FreeSans" font-size="10.00">COMM::List::getDataAddress</text>
</a>
</g>
</g>
<!-- Node1&#45;&gt;Node5 -->
<g id="edge5" class="edge"><title>Node1&#45;&gt;Node5</title>
<path fill="none" stroke="midnightblue" d="M158.094,-178.855C169.576,-178.719 181.414,-178.715 192.916,-178.844"/>
<polygon fill="midnightblue" stroke="midnightblue" points="192.87,-182.344 202.921,-178.992 192.974,-175.344 192.87,-182.344"/>
</g>
<!-- Node1&#45;&gt;Node5 -->
<g id="edge6" class="edge"><title>Node1&#45;&gt;Node5</title>
<path fill="none" stroke="midnightblue" d="M158.094,-192.145C169.576,-192.281 181.414,-192.285 192.916,-192.156"/>
<polygon fill="midnightblue" stroke="midnightblue" points="192.974,-195.656 202.921,-192.008 192.87,-188.656 192.974,-195.656"/>
</g>
<!-- Node6 -->
<g id="node6" class="node"><title>Node6</title>
<g id="a_node6"><a xlink:href="classAR_1_1SlowDown.html#a1f153e07b27376eb86bffb7756199b6a" target="_top" xlink:title="Get original slow&#45;down factor. ">
<polygon fill="white" stroke="black" points="201.5,-126.5 201.5,-156.5 344.5,-156.5 344.5,-126.5 201.5,-126.5"/>
<text text-anchor="start" x="209.5" y="-144.5" font-family="FreeSans" font-size="10.00">AR::SlowDown::getSlowDown</text>
<text text-anchor="middle" x="273" y="-133.5" font-family="FreeSans" font-size="10.00">FactorOrigin</text>
</a>
</g>
</g>
<!-- Node1&#45;&gt;Node6 -->
<g id="edge7" class="edge"><title>Node1&#45;&gt;Node6</title>
<path fill="none" stroke="midnightblue" d="M145.539,-170.481C161.975,-166.714 179.741,-162.643 196.616,-158.776"/>
<polygon fill="midnightblue" stroke="midnightblue" points="197.466,-162.172 206.431,-156.526 195.902,-155.348 197.466,-162.172"/>
</g>
<!-- Node7 -->
<g id="node7" class="node"><title>Node7</title>
<g id="a_node7"><a xlink:href="classAR_1_1SlowDown.html#a885e6a131ed7cc37f420cc59162f4244" target="_top" xlink:title="AR::SlowDown::getPertIn">
<polygon fill="white" stroke="black" points="211,-88 211,-107 335,-107 335,-88 211,-88"/>
<text text-anchor="middle" x="273" y="-95" font-family="FreeSans" font-size="10.00">AR::SlowDown::getPertIn</text>
</a>
</g>
</g>
<!-- Node1&#45;&gt;Node7 -->
<g id="edge8" class="edge"><title>Node1&#45;&gt;Node7</title>
<path fill="none" stroke="midnightblue" d="M101.294,-170.247C123.487,-154.977 159.746,-131.758 194,-117.5 200.91,-114.624 208.341,-112.076 215.774,-109.845"/>
<polygon fill="midnightblue" stroke="midnightblue" points="216.831,-113.183 225.501,-107.093 214.926,-106.447 216.831,-113.183"/>
</g>
<!-- Node8 -->
<g id="node8" class="node"><title>Node8</title>
<g id="a_node8"><a xlink:href="classAR_1_1SlowDown.html#af86e63ccc63510fb77c9ce495cb3a263" target="_top" xlink:title="AR::SlowDown::getPertOut">
<polygon fill="white" stroke="black" points="207.5,-50 207.5,-69 338.5,-69 338.5,-50 207.5,-50"/>
<text text-anchor="middle" x="273" y="-57" font-family="FreeSans" font-size="10.00">AR::SlowDown::getPertOut</text>
</a>
</g>
</g>
<!-- Node1&#45;&gt;Node8 -->
<g id="edge9" class="edge"><title>Node1&#45;&gt;Node8</title>
<path fill="none" stroke="midnightblue" d="M91.8675,-170.131C110.835,-146.668 150.321,-102.155 194,-78.5 198.221,-76.2143 202.717,-74.1998 207.339,-72.4247"/>
<polygon fill="midnightblue" stroke="midnightblue" points="208.642,-75.6777 216.954,-69.1076 206.359,-69.0604 208.642,-75.6777"/>
</g>
<!-- Node9 -->
<g id="node9" class="node"><title>Node9</title>
<g id="a_node9"><a xlink:href="classCOMM_1_1BinaryTree.html#a7f522c71405aed42888caaf4f8eb45eb" target="_top" xlink:title="Process root data and return result iteratively. ">
<polygon fill="white" stroke="black" points="205,-0.5 205,-30.5 341,-30.5 341,-0.5 205,-0.5"/>
<text text-anchor="start" x="213" y="-18.5" font-family="FreeSans" font-size="10.00">COMM::BinaryTree::process</text>
<text text-anchor="middle" x="273" y="-7.5" font-family="FreeSans" font-size="10.00">RootIter</text>
</a>
</g>
</g>
<!-- Node1&#45;&gt;Node9 -->
<g id="edge10" class="edge"><title>Node1&#45;&gt;Node9</title>
<path fill="none" stroke="midnightblue" d="M87.8446,-170.343C103.823,-140.943 142.987,-75.953 194,-40.5 196.744,-38.5929 199.642,-36.8253 202.642,-35.1876"/>
<polygon fill="midnightblue" stroke="midnightblue" points="204.455,-38.1967 211.896,-30.6547 201.376,-31.9102 204.455,-38.1967"/>
</g>
</g>
</svg>
