<?xml version="1.0" encoding="UTF-8" standalone="no"?>
<!DOCTYPE svg PUBLIC "-//W3C//DTD SVG 1.1//EN"
 "http://www.w3.org/Graphics/SVG/1.1/DTD/svg11.dtd">
<!-- Generated by graphviz version 2.38.0 (20140413.2041)
 -->
<!-- Title: COMM::ParticleGroup&lt; Tparticle, Tpcm &gt; Pages: 1 -->
<svg width="129pt" height="95pt"
 viewBox="0.00 0.00 129.00 95.00" xmlns="http://www.w3.org/2000/svg" xmlns:xlink="http://www.w3.org/1999/xlink">
<g id="graph0" class="graph" transform="scale(1 1) rotate(0) translate(4 91)">
<title>COMM::ParticleGroup&lt; Tparticle, Tpcm &gt;</title>
<polygon fill="white" stroke="none" points="-4,4 -4,-91 125,-91 125,4 -4,4"/>
<!-- Node1 -->
<g id="node1" class="node"><title>Node1</title>
<polygon fill="#bfbfbf" stroke="black" points="5,-0.5 5,-30.5 116,-30.5 116,-0.5 5,-0.5"/>
<text text-anchor="start" x="13" y="-18.5" font-family="FreeSans" font-size="10.00">COMM::ParticleGroup</text>
<text text-anchor="middle" x="60.5" y="-7.5" font-family="FreeSans" font-size="10.00">&lt; Tparticle, Tpcm &gt;</text>
</g>
<!-- Node2 -->
<g id="node2" class="node"><title>Node2</title>
<g id="a_node2"><a xlink:href="classCOMM_1_1List.html" target="_top" xlink:title="COMM::List\&lt; Tparticle \&gt;">
<polygon fill="white" stroke="black" points="-7.10543e-15,-67.5 -7.10543e-15,-86.5 121,-86.5 121,-67.5 -7.10543e-15,-67.5"/>
<text text-anchor="middle" x="60.5" y="-74.5" font-family="FreeSans" font-size="10.00">COMM::List&lt; Tparticle &gt;</text>
</a>
</g>
</g>
<!-- Node2&#45;&gt;Node1 -->
<g id="edge1" class="edge"><title>Node2&#45;&gt;Node1</title>
<path fill="none" stroke="midnightblue" d="M60.5,-57.2349C60.5,-48.5864 60.5,-38.4969 60.5,-30.523"/>
<polygon fill="midnightblue" stroke="midnightblue" points="57.0001,-57.4751 60.5,-67.4751 64.0001,-57.4751 57.0001,-57.4751"/>
</g>
</g>
</svg>
