<?xml version="1.0" encoding="UTF-8" standalone="no"?>
<!DOCTYPE svg PUBLIC "-//W3C//DTD SVG 1.1//EN"
 "http://www.w3.org/Graphics/SVG/1.1/DTD/svg11.dtd">
<!-- Generated by graphviz version 2.43.0 (0)
 -->
<!-- Title: AR::TimeTransformedSymplecticIntegrator::integrateTwoOneStep Pages: 1 -->
<svg width="346pt" height="127pt"
 viewBox="0.00 0.00 346.00 126.50" xmlns="http://www.w3.org/2000/svg" xmlns:xlink="http://www.w3.org/1999/xlink">
<g id="graph0" class="graph" transform="scale(1 1) rotate(0) translate(4 122.5)">
<title>AR::TimeTransformedSymplecticIntegrator::integrateTwoOneStep</title>
<polygon fill="white" stroke="transparent" points="-4,4 -4,-122.5 342,-122.5 342,4 -4,4"/>
<!-- Node1 -->
<g id="node1" class="node">
<title>Node1</title>
<g id="a_node1"><a xlink:title="integration for two body one step">
<polygon fill="#bfbfbf" stroke="black" points="0,-71.5 0,-101.5 159,-101.5 159,-71.5 0,-71.5"/>
<text text-anchor="start" x="8" y="-89.5" font-family="FreeSans" font-size="10.00">AR::TimeTransformedSymplectic</text>
<text text-anchor="middle" x="79.5" y="-78.5" font-family="FreeSans" font-size="10.00">Integrator::integrateTwoOneStep</text>
</a>
</g>
</g>
<!-- Node2 -->
<g id="node2" class="node">
<title>Node2</title>
<g id="a_node2"><a xlink:href="classCOMM_1_1List.html#ad6c06deee95952a09db820733ea428f9" target="_top" xlink:title="return member data array address">
<polygon fill="white" stroke="black" points="195,-99 195,-118 338,-118 338,-99 195,-99"/>
<text text-anchor="middle" x="266.5" y="-106" font-family="FreeSans" font-size="10.00">COMM::List::getDataAddress</text>
</a>
</g>
</g>
<!-- Node1&#45;&gt;Node2 -->
<g id="edge1" class="edge">
<title>Node1&#45;&gt;Node2</title>
<path fill="none" stroke="midnightblue" d="M159.22,-89.18C180.3,-91.48 202.35,-94.37 220.87,-97.32"/>
<polygon fill="midnightblue" stroke="midnightblue" points="220.33,-100.78 230.77,-98.96 221.48,-93.87 220.33,-100.78"/>
</g>
<!-- Node1&#45;&gt;Node2 -->
<g id="edge2" class="edge">
<title>Node1&#45;&gt;Node2</title>
<path fill="none" stroke="midnightblue" d="M151.5,-101.53C162.42,-103 173.76,-104.38 184.88,-105.61"/>
<polygon fill="midnightblue" stroke="midnightblue" points="184.68,-109.11 195,-106.69 185.43,-102.15 184.68,-109.11"/>
</g>
<!-- Node3 -->
<g id="node3" class="node">
<title>Node3</title>
<g id="a_node3"><a xlink:href="classCOMM_1_1List.html#a929bb5bdaaa7ce70d872ae0c758c77ae" target="_top" xlink:title="get current member number">
<polygon fill="white" stroke="black" points="209.5,-49.5 209.5,-79.5 323.5,-79.5 323.5,-49.5 209.5,-49.5"/>
<text text-anchor="start" x="217.5" y="-67.5" font-family="FreeSans" font-size="10.00">COMM::List&lt; Tparticle</text>
<text text-anchor="middle" x="266.5" y="-56.5" font-family="FreeSans" font-size="10.00"> &gt;::getSize</text>
</a>
</g>
</g>
<!-- Node1&#45;&gt;Node3 -->
<g id="edge3" class="edge">
<title>Node1&#45;&gt;Node3</title>
<path fill="none" stroke="midnightblue" d="M159.22,-77.14C172.49,-75.56 186.15,-73.94 199.07,-72.4"/>
<polygon fill="midnightblue" stroke="midnightblue" points="199.73,-75.85 209.25,-71.19 198.91,-68.89 199.73,-75.85"/>
</g>
<!-- Node4 -->
<g id="node4" class="node">
<title>Node4</title>
<g id="a_node4"><a xlink:href="classCOMM_1_1List.html#ae7f0254c3a70d0459c3cdf8073c20b0d" target="_top" xlink:title="Get modified status.">
<polygon fill="white" stroke="black" points="209.5,-0.5 209.5,-30.5 323.5,-30.5 323.5,-0.5 209.5,-0.5"/>
<text text-anchor="start" x="217.5" y="-18.5" font-family="FreeSans" font-size="10.00">COMM::List&lt; Tparticle</text>
<text text-anchor="middle" x="266.5" y="-7.5" font-family="FreeSans" font-size="10.00"> &gt;::isModified</text>
</a>
</g>
</g>
<!-- Node1&#45;&gt;Node4 -->
<g id="edge4" class="edge">
<title>Node1&#45;&gt;Node4</title>
<path fill="none" stroke="midnightblue" d="M116.96,-71.41C139.38,-62.24 168.75,-50.42 195,-40.5 200.6,-38.38 206.48,-36.22 212.34,-34.09"/>
<polygon fill="midnightblue" stroke="midnightblue" points="213.92,-37.24 222.15,-30.56 211.55,-30.65 213.92,-37.24"/>
</g>
</g>
</svg>
