<?xml version="1.0" encoding="UTF-8" standalone="no"?>
<!DOCTYPE svg PUBLIC "-//W3C//DTD SVG 1.1//EN"
 "http://www.w3.org/Graphics/SVG/1.1/DTD/svg11.dtd">
<!-- Generated by graphviz version 2.38.0 (20140413.2041)
 -->
<!-- Title: COMM::Binary::orbitToParticle Pages: 1 -->
<svg width="351pt" height="66pt"
 viewBox="0.00 0.00 351.00 66.00" xmlns="http://www.w3.org/2000/svg" xmlns:xlink="http://www.w3.org/1999/xlink">
<g id="graph0" class="graph" transform="scale(1 1) rotate(0) translate(4 62)">
<title>COMM::Binary::orbitToParticle</title>
<polygon fill="white" stroke="none" points="-4,4 -4,-62 347,-62 347,4 -4,4"/>
<!-- Node1 -->
<g id="node1" class="node"><title>Node1</title>
<polygon fill="#bfbfbf" stroke="black" points="0,-19.5 0,-38.5 146,-38.5 146,-19.5 0,-19.5"/>
<text text-anchor="middle" x="73" y="-26.5" font-family="FreeSans" font-size="10.00">COMM::Binary::orbitToParticle</text>
</g>
<!-- Node2 -->
<g id="node2" class="node"><title>Node2</title>
<g id="a_node2"><a xlink:href="classCOMM_1_1Binary.html#a3b9864bdad2ae38b335514c786a3d04a" target="_top" xlink:title="calculate two components from kepler Orbit ">
<polygon fill="white" stroke="black" points="193,-38.5 193,-57.5 332,-57.5 332,-38.5 193,-38.5"/>
<text text-anchor="middle" x="262.5" y="-45.5" font-family="FreeSans" font-size="10.00">COMM::Binary::calcParticles</text>
</a>
</g>
</g>
<!-- Node1&#45;&gt;Node2 -->
<g id="edge1" class="edge"><title>Node1&#45;&gt;Node2</title>
<path fill="none" stroke="midnightblue" d="M156.341,-37.3439C168.48,-38.5739 180.877,-39.8302 192.703,-41.0286"/>
<polygon fill="midnightblue" stroke="midnightblue" points="156.526,-33.8448 146.224,-36.3187 155.82,-40.8091 156.526,-33.8448"/>
</g>
<!-- Node3 -->
<g id="node3" class="node"><title>Node3</title>
<g id="a_node3"><a xlink:href="classCOMM_1_1Binary.html#aec312d069f58972cc73c7a8ca77d3e5a" target="_top" xlink:title="calculate two components from kepler Orbit with input eccentricity anomaly ">
<polygon fill="white" stroke="black" points="182,-0.5 182,-19.5 343,-19.5 343,-0.5 182,-0.5"/>
<text text-anchor="middle" x="262.5" y="-7.5" font-family="FreeSans" font-size="10.00">COMM::Binary::calcParticlesEcca</text>
</a>
</g>
</g>
<!-- Node1&#45;&gt;Node3 -->
<g id="edge2" class="edge"><title>Node1&#45;&gt;Node3</title>
<path fill="none" stroke="midnightblue" d="M156.432,-20.6469C164.867,-19.7922 173.426,-18.9249 181.83,-18.0733"/>
<polygon fill="midnightblue" stroke="midnightblue" points="155.82,-17.1909 146.224,-21.6813 156.526,-24.1552 155.82,-17.1909"/>
</g>
</g>
</svg>
