<?xml version="1.0" encoding="UTF-8" standalone="no"?>
<!DOCTYPE svg PUBLIC "-//W3C//DTD SVG 1.1//EN"
 "http://www.w3.org/Graphics/SVG/1.1/DTD/svg11.dtd">
<!-- Generated by graphviz version 2.38.0 (20140413.2041)
 -->
<!-- Title: COMM::List::setMode Pages: 1 -->
<svg width="310pt" height="284pt"
 viewBox="0.00 0.00 310.00 284.00" xmlns="http://www.w3.org/2000/svg" xmlns:xlink="http://www.w3.org/1999/xlink">
<g id="graph0" class="graph" transform="scale(1 1) rotate(0) translate(4 280)">
<title>COMM::List::setMode</title>
<polygon fill="white" stroke="none" points="-4,4 -4,-280 306,-280 306,4 -4,4"/>
<!-- Node1 -->
<g id="node1" class="node"><title>Node1</title>
<polygon fill="#bfbfbf" stroke="black" points="0,-123 0,-142 108,-142 108,-123 0,-123"/>
<text text-anchor="middle" x="54" y="-130" font-family="FreeSans" font-size="10.00">COMM::List::setMode</text>
</g>
<!-- Node2 -->
<g id="node2" class="node"><title>Node2</title>
<g id="a_node2"><a xlink:href="classH4_1_1ARInformation.html#a2bebff4ce2ba995af165f03e72b6b088" target="_top" xlink:title="reserve memory ">
<polygon fill="white" stroke="black" points="173,-245.5 173,-275.5 273,-275.5 273,-245.5 173,-245.5"/>
<text text-anchor="start" x="181" y="-263.5" font-family="FreeSans" font-size="10.00">H4::ARInformation::</text>
<text text-anchor="middle" x="223" y="-252.5" font-family="FreeSans" font-size="10.00">reserveMem</text>
</a>
</g>
</g>
<!-- Node1&#45;&gt;Node2 -->
<g id="edge1" class="edge"><title>Node1&#45;&gt;Node2</title>
<path fill="none" stroke="midnightblue" d="M65.8974,-150.683C80.7293,-173.911 109.424,-213.811 144,-236.5 152.647,-242.174 162.705,-246.564 172.667,-249.941"/>
<polygon fill="midnightblue" stroke="midnightblue" points="68.8277,-148.768 60.5772,-142.121 62.882,-152.462 68.8277,-148.768"/>
</g>
<!-- Node3 -->
<g id="node3" class="node"><title>Node3</title>
<g id="a_node3"><a xlink:href="classH4_1_1HermiteIntegrator.html#ab37772f7b30dbb9cc6de51bf58a20fae" target="_top" xlink:title="reserve memory for system ">
<polygon fill="white" stroke="black" points="165.5,-196.5 165.5,-226.5 280.5,-226.5 280.5,-196.5 165.5,-196.5"/>
<text text-anchor="start" x="173.5" y="-214.5" font-family="FreeSans" font-size="10.00">H4::HermiteIntegrator</text>
<text text-anchor="middle" x="223" y="-203.5" font-family="FreeSans" font-size="10.00">::reserveIntegratorMem</text>
</a>
</g>
</g>
<!-- Node1&#45;&gt;Node3 -->
<g id="edge2" class="edge"><title>Node1&#45;&gt;Node3</title>
<path fill="none" stroke="midnightblue" d="M76.3265,-147.842C93.8371,-159.897 119.633,-176.442 144,-187.5 151.225,-190.779 159.022,-193.772 166.794,-196.446"/>
<polygon fill="midnightblue" stroke="midnightblue" points="78.1765,-144.865 67.9763,-142 74.1639,-150.601 78.1765,-144.865"/>
</g>
<!-- Node4 -->
<g id="node4" class="node"><title>Node4</title>
<g id="a_node4"><a xlink:href="classAR_1_1Information.html#a989cdd6a1b4bf633d8361946ca1c87f9" target="_top" xlink:title="reserve memory of binarytree list ">
<polygon fill="white" stroke="black" points="155,-137 155,-178 291,-178 291,-137 155,-137"/>
<text text-anchor="start" x="163" y="-166" font-family="FreeSans" font-size="10.00">AR::Information&lt; Particle</text>
<text text-anchor="start" x="163" y="-155" font-family="FreeSans" font-size="10.00">AR&lt; Tparticle &gt;, ParticleH4</text>
<text text-anchor="middle" x="223" y="-144" font-family="FreeSans" font-size="10.00">&lt; Tparticle &gt; &gt;::reserveMem</text>
</a>
</g>
</g>
<!-- Node1&#45;&gt;Node4 -->
<g id="edge3" class="edge"><title>Node1&#45;&gt;Node4</title>
<path fill="none" stroke="midnightblue" d="M118.195,-141.96C130.17,-143.753 142.739,-145.635 154.831,-147.445"/>
<polygon fill="midnightblue" stroke="midnightblue" points="118.707,-138.498 108.299,-140.479 117.671,-145.421 118.707,-138.498"/>
</g>
<!-- Node5 -->
<g id="node5" class="node"><title>Node5</title>
<g id="a_node5"><a xlink:href="classH4_1_1Neighbor.html#a87e10f1f0d865d9bfd7bae47884ff95a" target="_top" xlink:title="reserve memory for neighbor lists ">
<polygon fill="white" stroke="black" points="159,-99 159,-118 287,-118 287,-99 159,-99"/>
<text text-anchor="middle" x="223" y="-106" font-family="FreeSans" font-size="10.00">H4::Neighbor::reserveMem</text>
</a>
</g>
</g>
<!-- Node1&#45;&gt;Node5 -->
<g id="edge4" class="edge"><title>Node1&#45;&gt;Node5</title>
<path fill="none" stroke="midnightblue" d="M118.26,-123.409C131.502,-121.506 145.466,-119.499 158.708,-117.596"/>
<polygon fill="midnightblue" stroke="midnightblue" points="117.699,-119.953 108.299,-124.84 118.695,-126.882 117.699,-119.953"/>
</g>
<!-- Node6 -->
<g id="node6" class="node"><title>Node6</title>
<g id="a_node6"><a xlink:href="classAR_1_1TimeTransformedSymplecticIntegrator.html#ac00641c72ad0f21c9796e8e6cb574530" target="_top" xlink:title="reserve memory for force ">
<polygon fill="white" stroke="black" points="144,-49.5 144,-79.5 302,-79.5 302,-49.5 144,-49.5"/>
<text text-anchor="start" x="152" y="-67.5" font-family="FreeSans" font-size="10.00">AR::TimeTransformedSymplectic</text>
<text text-anchor="middle" x="223" y="-56.5" font-family="FreeSans" font-size="10.00">Integrator::reserveIntegratorMem</text>
</a>
</g>
</g>
<!-- Node1&#45;&gt;Node6 -->
<g id="edge5" class="edge"><title>Node1&#45;&gt;Node6</title>
<path fill="none" stroke="midnightblue" d="M82.0934,-118.186C99.5026,-109.297 122.756,-97.9881 144,-89.5 152.715,-86.0177 162.121,-82.6693 171.283,-79.6172"/>
<polygon fill="midnightblue" stroke="midnightblue" points="80.3532,-115.146 73.0728,-122.843 83.5642,-121.366 80.3532,-115.146"/>
</g>
<!-- Node7 -->
<g id="node7" class="node"><title>Node7</title>
<g id="a_node7"><a xlink:href="classAR_1_1TimeTransformedSymplecticIntegrator.html#a9a5c7bd3dfff2fd3ab96fd639ec30d27" target="_top" xlink:title="read class data with BINARY format and initial the array ">
<polygon fill="white" stroke="black" points="144,-0.5 144,-30.5 302,-30.5 302,-0.5 144,-0.5"/>
<text text-anchor="start" x="152" y="-18.5" font-family="FreeSans" font-size="10.00">AR::TimeTransformedSymplectic</text>
<text text-anchor="middle" x="223" y="-7.5" font-family="FreeSans" font-size="10.00">Integrator::readBinary</text>
</a>
</g>
</g>
<!-- Node1&#45;&gt;Node7 -->
<g id="edge6" class="edge"><title>Node1&#45;&gt;Node7</title>
<path fill="none" stroke="midnightblue" d="M67.8004,-114.712C83.535,-94.0654 112.103,-60.3235 144,-40.5 150.16,-36.6719 156.961,-33.3768 163.903,-30.5543"/>
<polygon fill="midnightblue" stroke="midnightblue" points="64.848,-112.817 61.689,-122.93 70.465,-116.994 64.848,-112.817"/>
</g>
</g>
</svg>
