<?xml version="1.0" encoding="UTF-8" standalone="no"?>
<!DOCTYPE svg PUBLIC "-//W3C//DTD SVG 1.1//EN"
 "http://www.w3.org/Graphics/SVG/1.1/DTD/svg11.dtd">
<!-- Generated by graphviz version 2.43.0 (0)
 -->
<!-- Title: H4::ARInformation::addParticlesAndCopyBinaryTree Pages: 1 -->
<svg width="359pt" height="138pt"
 viewBox="0.00 0.00 359.00 138.00" xmlns="http://www.w3.org/2000/svg" xmlns:xlink="http://www.w3.org/1999/xlink">
<g id="graph0" class="graph" transform="scale(1 1) rotate(0) translate(4 134)">
<title>H4::ARInformation::addParticlesAndCopyBinaryTree</title>
<polygon fill="white" stroke="transparent" points="-4,4 -4,-134 355,-134 355,4 -4,4"/>
<!-- Node1 -->
<g id="node1" class="node">
<title>Node1</title>
<g id="a_node1"><a xlink:title="Initialize group of particles from a binarytree.">
<polygon fill="#bfbfbf" stroke="black" points="0,-39 0,-69 156,-69 156,-39 0,-39"/>
<text text-anchor="start" x="8" y="-57" font-family="FreeSans" font-size="10.00">H4::ARInformation::</text>
<text text-anchor="middle" x="78" y="-46" font-family="FreeSans" font-size="10.00">addParticlesAndCopyBinaryTree</text>
</a>
</g>
</g>
<!-- Node2 -->
<g id="node2" class="node">
<title>Node2</title>
<g id="a_node2"><a xlink:href="classAR_1_1Information.html#a850f893bb19c9093a2894f5ff7032bc9" target="_top" xlink:title="get the root of binary tree">
<polygon fill="white" stroke="black" points="205.5,-88.5 205.5,-129.5 337.5,-129.5 337.5,-88.5 205.5,-88.5"/>
<text text-anchor="start" x="213.5" y="-117.5" font-family="FreeSans" font-size="10.00">AR::Information&lt; Tparticle,</text>
<text text-anchor="start" x="213.5" y="-106.5" font-family="FreeSans" font-size="10.00"> ParticleH4&lt; Tparticle &gt;</text>
<text text-anchor="middle" x="271.5" y="-95.5" font-family="FreeSans" font-size="10.00"> &gt;::getBinaryTreeRoot</text>
</a>
</g>
</g>
<!-- Node1&#45;&gt;Node2 -->
<g id="edge1" class="edge">
<title>Node1&#45;&gt;Node2</title>
<path fill="none" stroke="midnightblue" d="M131.33,-69.03C151.11,-74.71 174.03,-81.29 195.49,-87.46"/>
<polygon fill="midnightblue" stroke="midnightblue" points="194.65,-90.86 205.23,-90.25 196.59,-84.13 194.65,-90.86"/>
</g>
<!-- Node3 -->
<g id="node3" class="node">
<title>Node3</title>
<g id="a_node3"><a xlink:href="classCOMM_1_1BinaryTree.html#a5f1c2ffc8671b88ada31015c546c0e67" target="_top" xlink:title="collect BinaryTree data iteratively and save to a BinaryTree array">
<polygon fill="white" stroke="black" points="206.5,-39 206.5,-69 336.5,-69 336.5,-39 206.5,-39"/>
<text text-anchor="start" x="214.5" y="-57" font-family="FreeSans" font-size="10.00">COMM::BinaryTree::gether</text>
<text text-anchor="middle" x="271.5" y="-46" font-family="FreeSans" font-size="10.00">BinaryTreeIter</text>
</a>
</g>
</g>
<!-- Node1&#45;&gt;Node3 -->
<g id="edge2" class="edge">
<title>Node1&#45;&gt;Node3</title>
<path fill="none" stroke="midnightblue" d="M156.06,-54C169.4,-54 183.23,-54 196.48,-54"/>
<polygon fill="midnightblue" stroke="midnightblue" points="196.49,-57.5 206.49,-54 196.49,-50.5 196.49,-57.5"/>
</g>
<!-- Node4 -->
<g id="node4" class="node">
<title>Node4</title>
<g id="a_node4"><a xlink:href="classCOMM_1_1BinaryTree.html#aa3dab2972f971be5a3bff5fa10cfcfa8" target="_top" xlink:title="get total number of members">
<polygon fill="white" stroke="black" points="192,-0.5 192,-19.5 351,-19.5 351,-0.5 192,-0.5"/>
<text text-anchor="middle" x="271.5" y="-7.5" font-family="FreeSans" font-size="10.00">COMM::BinaryTree::getMemberN</text>
</a>
</g>
</g>
<!-- Node1&#45;&gt;Node4 -->
<g id="edge3" class="edge">
<title>Node1&#45;&gt;Node4</title>
<path fill="none" stroke="midnightblue" d="M144.37,-38.98C168.81,-33.36 196.21,-27.07 219.2,-21.79"/>
<polygon fill="midnightblue" stroke="midnightblue" points="220.14,-25.16 229.1,-19.51 218.57,-18.34 220.14,-25.16"/>
</g>
</g>
</svg>
