<?xml version="1.0" encoding="UTF-8" standalone="no"?>
<!DOCTYPE svg PUBLIC "-//W3C//DTD SVG 1.1//EN"
 "http://www.w3.org/Graphics/SVG/1.1/DTD/svg11.dtd">
<!-- Generated by graphviz version 2.38.0 (20140413.2041)
 -->
<!-- Title: AR::TimeTransformedSymplecticManager&lt; Tmethod &gt; Pages: 1 -->
<svg width="187pt" height="106pt"
 viewBox="0.00 0.00 186.50 106.00" xmlns="http://www.w3.org/2000/svg" xmlns:xlink="http://www.w3.org/1999/xlink">
<g id="graph0" class="graph" transform="scale(1 1) rotate(0) translate(4 102)">
<title>AR::TimeTransformedSymplecticManager&lt; Tmethod &gt;</title>
<polygon fill="white" stroke="none" points="-4,4 -4,-102 182.5,-102 182.5,4 -4,4"/>
<!-- Node1 -->
<g id="node1" class="node"><title>Node1</title>
<polygon fill="#bfbfbf" stroke="black" points="20.5,-0.5 20.5,-30.5 178.5,-30.5 178.5,-0.5 20.5,-0.5"/>
<text text-anchor="start" x="28.5" y="-18.5" font-family="FreeSans" font-size="10.00">AR::TimeTransformedSymplectic</text>
<text text-anchor="middle" x="99.5" y="-7.5" font-family="FreeSans" font-size="10.00">Manager&lt; Tmethod &gt;</text>
</g>
<!-- Node2 -->
<g id="node2" class="node"><title>Node2</title>
<g id="a_node2"><a xlink:href="classAR_1_1SymplecticStep.html" target="_top" xlink:title="class to manager symplectic KD steps ">
<polygon fill="white" stroke="black" points="0,-78.5 0,-97.5 103,-97.5 103,-78.5 0,-78.5"/>
<text text-anchor="middle" x="51.5" y="-85.5" font-family="FreeSans" font-size="10.00">AR::SymplecticStep</text>
</a>
</g>
</g>
<!-- Node2&#45;&gt;Node1 -->
<g id="edge1" class="edge"><title>Node2&#45;&gt;Node1</title>
<path fill="none" stroke="#9a32cd" stroke-dasharray="5,2" d="M63.048,-70.0389C71.2664,-57.968 82.1792,-41.94 89.9162,-30.5762"/>
<polygon fill="#9a32cd" stroke="#9a32cd" points="60.1206,-68.1195 57.3857,-78.3553 65.9068,-72.0591 60.1206,-68.1195"/>
<text text-anchor="middle" x="88" y="-52" font-family="FreeSans" font-size="10.00"> step</text>
</g>
<!-- Node3 -->
<g id="node3" class="node"><title>Node3</title>
<polygon fill="white" stroke="#bfbfbf" points="121,-78.5 121,-97.5 176,-97.5 176,-78.5 121,-78.5"/>
<text text-anchor="middle" x="148.5" y="-85.5" font-family="FreeSans" font-size="10.00">Tmethod</text>
</g>
<!-- Node3&#45;&gt;Node1 -->
<g id="edge2" class="edge"><title>Node3&#45;&gt;Node1</title>
<path fill="none" stroke="#9a32cd" stroke-dasharray="5,2" d="M136.711,-70.0389C128.322,-57.968 117.182,-41.94 109.283,-30.5762"/>
<polygon fill="#9a32cd" stroke="#9a32cd" points="133.91,-72.1414 142.492,-78.3553 139.658,-68.1463 133.91,-72.1414"/>
<text text-anchor="middle" x="151.5" y="-52" font-family="FreeSans" font-size="10.00"> interaction</text>
</g>
</g>
</svg>
