<?xml version="1.0" encoding="UTF-8" standalone="no"?>
<!DOCTYPE svg PUBLIC "-//W3C//DTD SVG 1.1//EN"
 "http://www.w3.org/Graphics/SVG/1.1/DTD/svg11.dtd">
<!-- Generated by graphviz version 2.38.0 (20140413.2041)
 -->
<!-- Title: AR::TimeTransformedSymplecticIntegrator::integrateTwoOneStep Pages: 1 -->
<svg width="360pt" height="312pt"
 viewBox="0.00 0.00 360.00 311.50" xmlns="http://www.w3.org/2000/svg" xmlns:xlink="http://www.w3.org/1999/xlink">
<g id="graph0" class="graph" transform="scale(1 1) rotate(0) translate(4 307.5)">
<title>AR::TimeTransformedSymplecticIntegrator::integrateTwoOneStep</title>
<polygon fill="white" stroke="none" points="-4,4 -4,-307.5 356,-307.5 356,4 -4,4"/>
<!-- Node1 -->
<g id="node1" class="node"><title>Node1</title>
<polygon fill="#bfbfbf" stroke="black" points="0,-101 0,-131 158,-131 158,-101 0,-101"/>
<text text-anchor="start" x="8" y="-119" font-family="FreeSans" font-size="10.00">AR::TimeTransformedSymplectic</text>
<text text-anchor="middle" x="79" y="-108" font-family="FreeSans" font-size="10.00">Integrator::integrateTwoOneStep</text>
</g>
<!-- Node2 -->
<g id="node2" class="node"><title>Node2</title>
<g id="a_node2"><a xlink:href="classAR_1_1TimeTransformedSymplecticManager.html#a8921a86541d095de3a8685f4aad2da48" target="_top" xlink:title="check whether parameters values are correct ">
<polygon fill="white" stroke="black" points="194,-273 194,-303 352,-303 352,-273 194,-273"/>
<text text-anchor="start" x="202" y="-291" font-family="FreeSans" font-size="10.00">AR::TimeTransformedSymplectic</text>
<text text-anchor="middle" x="273" y="-280" font-family="FreeSans" font-size="10.00">Manager::checkParams</text>
</a>
</g>
</g>
<!-- Node1&#45;&gt;Node2 -->
<g id="edge1" class="edge"><title>Node1&#45;&gt;Node2</title>
<path fill="none" stroke="midnightblue" d="M87.4819,-131.065C103.09,-160.949 142.034,-227.952 194,-264 196.139,-265.484 198.373,-266.878 200.677,-268.189"/>
<polygon fill="midnightblue" stroke="midnightblue" points="199.357,-271.443 209.86,-272.836 202.518,-265.198 199.357,-271.443"/>
</g>
<!-- Node3 -->
<g id="node3" class="node"><title>Node3</title>
<g id="a_node3"><a xlink:href="classCOMM_1_1List.html#aaddc8ba775e2a6504eb393d7d0c2235b" target="_top" xlink:title="Get modified status. ">
<polygon fill="white" stroke="black" points="216.5,-224 216.5,-254 329.5,-254 329.5,-224 216.5,-224"/>
<text text-anchor="start" x="224.5" y="-242" font-family="FreeSans" font-size="10.00">COMM::List&lt; Tparticle</text>
<text text-anchor="middle" x="273" y="-231" font-family="FreeSans" font-size="10.00"> &gt;::isModified</text>
</a>
</g>
</g>
<!-- Node1&#45;&gt;Node3 -->
<g id="edge2" class="edge"><title>Node1&#45;&gt;Node3</title>
<path fill="none" stroke="midnightblue" d="M93.6022,-131.3C113.586,-152.898 152.977,-192.225 194,-215 198.119,-217.287 202.483,-219.384 206.961,-221.303"/>
<polygon fill="midnightblue" stroke="midnightblue" points="205.68,-224.56 216.266,-224.994 208.261,-218.054 205.68,-224.56"/>
</g>
<!-- Node4 -->
<g id="node4" class="node"><title>Node4</title>
<g id="a_node4"><a xlink:href="classCOMM_1_1List.html#af1c92acd831f62c52f3385a71d6403e7" target="_top" xlink:title="get current member number ">
<polygon fill="white" stroke="black" points="216.5,-175 216.5,-205 329.5,-205 329.5,-175 216.5,-175"/>
<text text-anchor="start" x="224.5" y="-193" font-family="FreeSans" font-size="10.00">COMM::List&lt; Tparticle</text>
<text text-anchor="middle" x="273" y="-182" font-family="FreeSans" font-size="10.00"> &gt;::getSize</text>
</a>
</g>
</g>
<!-- Node1&#45;&gt;Node4 -->
<g id="edge3" class="edge"><title>Node1&#45;&gt;Node4</title>
<path fill="none" stroke="midnightblue" d="M111.539,-131.001C134.204,-141.492 165.64,-155.457 194,-166 199.229,-167.944 204.695,-169.858 210.201,-171.704"/>
<polygon fill="midnightblue" stroke="midnightblue" points="209.52,-175.164 220.113,-174.948 211.697,-168.511 209.52,-175.164"/>
</g>
<!-- Node5 -->
<g id="node5" class="node"><title>Node5</title>
<g id="a_node5"><a xlink:href="classAR_1_1SlowDown.html#a7cae8bcc039bb158497e2f9bb6efbd78" target="_top" xlink:title="calculate slowdown factor based on perturbation and inner acceleration ">
<polygon fill="white" stroke="black" points="199.5,-126 199.5,-156 346.5,-156 346.5,-126 199.5,-126"/>
<text text-anchor="start" x="207.5" y="-144" font-family="FreeSans" font-size="10.00">AR::SlowDown::calcSlowDown</text>
<text text-anchor="middle" x="273" y="-133" font-family="FreeSans" font-size="10.00">Factor</text>
</a>
</g>
</g>
<!-- Node1&#45;&gt;Node5 -->
<g id="edge4" class="edge"><title>Node1&#45;&gt;Node5</title>
<path fill="none" stroke="midnightblue" d="M158.094,-126.168C168.294,-127.497 178.774,-128.861 189.051,-130.199"/>
<polygon fill="midnightblue" stroke="midnightblue" points="188.874,-133.706 199.242,-131.526 189.778,-126.764 188.874,-133.706"/>
</g>
<!-- Node6 -->
<g id="node6" class="node"><title>Node6</title>
<g id="a_node6"><a xlink:href="classCOMM_1_1List.html#a125e4f93ee02b677f8377bd541f2105d" target="_top" xlink:title="return member data array address ">
<polygon fill="white" stroke="black" points="216.5,-77 216.5,-107 329.5,-107 329.5,-77 216.5,-77"/>
<text text-anchor="start" x="224.5" y="-95" font-family="FreeSans" font-size="10.00">COMM::List&lt; Tparticle</text>
<text text-anchor="middle" x="273" y="-84" font-family="FreeSans" font-size="10.00"> &gt;::getDataAddress</text>
</a>
</g>
</g>
<!-- Node1&#45;&gt;Node6 -->
<g id="edge5" class="edge"><title>Node1&#45;&gt;Node6</title>
<path fill="none" stroke="midnightblue" d="M148.233,-100.978C167.058,-98.2669 187.442,-95.7345 206.131,-93.7883"/>
<polygon fill="midnightblue" stroke="midnightblue" points="206.716,-97.2473 216.319,-92.7698 206.02,-90.282 206.716,-97.2473"/>
</g>
<!-- Node1&#45;&gt;Node6 -->
<g id="edge6" class="edge"><title>Node1&#45;&gt;Node6</title>
<path fill="none" stroke="midnightblue" d="M158.094,-112.883C174.105,-111.072 190.805,-108.917 206.326,-106.65"/>
<polygon fill="midnightblue" stroke="midnightblue" points="206.967,-110.094 216.337,-105.148 205.928,-103.171 206.967,-110.094"/>
</g>
<!-- Node7 -->
<g id="node7" class="node"><title>Node7</title>
<g id="a_node7"><a xlink:href="classAR_1_1SlowDown.html#a05cb058656662b84f4a2af3600916363" target="_top" xlink:title="drift real time ">
<polygon fill="white" stroke="black" points="202,-38.5 202,-57.5 344,-57.5 344,-38.5 202,-38.5"/>
<text text-anchor="middle" x="273" y="-45.5" font-family="FreeSans" font-size="10.00">AR::SlowDown::driftRealTime</text>
</a>
</g>
</g>
<!-- Node1&#45;&gt;Node7 -->
<g id="edge7" class="edge"><title>Node1&#45;&gt;Node7</title>
<path fill="none" stroke="midnightblue" d="M112.432,-100.834C134.981,-90.6655 165.914,-77.456 194,-68 202.375,-65.1803 211.369,-62.5338 220.167,-60.1467"/>
<polygon fill="midnightblue" stroke="midnightblue" points="221.193,-63.4961 229.973,-57.5665 219.411,-56.7265 221.193,-63.4961"/>
</g>
<!-- Node8 -->
<g id="node8" class="node"><title>Node8</title>
<g id="a_node8"><a xlink:href="classAR_1_1SlowDown.html#ad5c3d75646774b843eb1eefc86f10b52" target="_top" xlink:title="get real time value ">
<polygon fill="white" stroke="black" points="203.5,-0.5 203.5,-19.5 342.5,-19.5 342.5,-0.5 203.5,-0.5"/>
<text text-anchor="middle" x="273" y="-7.5" font-family="FreeSans" font-size="10.00">AR::SlowDown::getRealTime</text>
</a>
</g>
</g>
<!-- Node1&#45;&gt;Node8 -->
<g id="edge8" class="edge"><title>Node1&#45;&gt;Node8</title>
<path fill="none" stroke="midnightblue" d="M95.5631,-100.684C116.29,-81.148 154.906,-47.6633 194,-29 199.031,-26.5981 204.394,-24.483 209.863,-22.6236"/>
<polygon fill="midnightblue" stroke="midnightblue" points="211.26,-25.8548 219.772,-19.5462 209.183,-19.1698 211.26,-25.8548"/>
</g>
</g>
</svg>
