<?xml version="1.0" encoding="UTF-8" standalone="no"?>
<!DOCTYPE svg PUBLIC "-//W3C//DTD SVG 1.1//EN"
 "http://www.w3.org/Graphics/SVG/1.1/DTD/svg11.dtd">
<!-- Generated by graphviz version 2.43.0 (0)
 -->
<!-- Title: AR::SlowDown::initialSlowDownReference Pages: 1 -->
<svg width="479pt" height="137pt"
 viewBox="0.00 0.00 479.00 137.00" xmlns="http://www.w3.org/2000/svg" xmlns:xlink="http://www.w3.org/1999/xlink">
<g id="graph0" class="graph" transform="scale(1 1) rotate(0) translate(4 133)">
<title>AR::SlowDown::initialSlowDownReference</title>
<polygon fill="white" stroke="transparent" points="-4,4 -4,-133 475,-133 475,4 -4,4"/>
<!-- Node1 -->
<g id="node1" class="node">
<title>Node1</title>
<g id="a_node1"><a xlink:title="initialize slow&#45;down parameters">
<polygon fill="#bfbfbf" stroke="black" points="341,-49.5 341,-79.5 471,-79.5 471,-49.5 341,-49.5"/>
<text text-anchor="start" x="349" y="-67.5" font-family="FreeSans" font-size="10.00">AR::SlowDown::initialSlow</text>
<text text-anchor="middle" x="406" y="-56.5" font-family="FreeSans" font-size="10.00">DownReference</text>
</a>
</g>
</g>
<!-- Node2 -->
<g id="node2" class="node">
<title>Node2</title>
<g id="a_node2"><a xlink:href="classH4_1_1HermiteIntegrator.html#aa2e53961f55ac16a239a07471cbe6110" target="_top" xlink:title="Check break condition.">
<polygon fill="white" stroke="black" points="170.5,-98.5 170.5,-128.5 280.5,-128.5 280.5,-98.5 170.5,-98.5"/>
<text text-anchor="start" x="178.5" y="-116.5" font-family="FreeSans" font-size="10.00">H4::HermiteIntegrator</text>
<text text-anchor="middle" x="225.5" y="-105.5" font-family="FreeSans" font-size="10.00">::checkBreak</text>
</a>
</g>
</g>
<!-- Node1&#45;&gt;Node2 -->
<g id="edge1" class="edge">
<title>Node1&#45;&gt;Node2</title>
<path fill="none" stroke="midnightblue" d="M340.25,-82.27C320.72,-87.64 299.49,-93.46 280.72,-98.62"/>
<polygon fill="midnightblue" stroke="midnightblue" points="341.27,-85.62 349.99,-79.6 339.42,-78.87 341.27,-85.62"/>
</g>
<!-- Node4 -->
<g id="node4" class="node">
<title>Node4</title>
<g id="a_node4"><a xlink:href="classH4_1_1HermiteIntegrator.html#a51b5efc55abeab0975009596cd5507bf" target="_top" xlink:title="check the pair with distance below r_crit for ptcl in adr_dt_sorted_">
<polygon fill="white" stroke="black" points="170.5,-49.5 170.5,-79.5 280.5,-79.5 280.5,-49.5 170.5,-49.5"/>
<text text-anchor="start" x="178.5" y="-67.5" font-family="FreeSans" font-size="10.00">H4::HermiteIntegrator</text>
<text text-anchor="middle" x="225.5" y="-56.5" font-family="FreeSans" font-size="10.00">::checkNewGroup</text>
</a>
</g>
</g>
<!-- Node1&#45;&gt;Node4 -->
<g id="edge3" class="edge">
<title>Node1&#45;&gt;Node4</title>
<path fill="none" stroke="midnightblue" d="M330.52,-64.5C313.82,-64.5 296.4,-64.5 280.7,-64.5"/>
<polygon fill="midnightblue" stroke="midnightblue" points="330.81,-68 340.81,-64.5 330.81,-61 330.81,-68"/>
</g>
<!-- Node5 -->
<g id="node5" class="node">
<title>Node5</title>
<g id="a_node5"><a xlink:href="classAR_1_1TimeTransformedSymplecticIntegrator.html#adc635c0084f56558f2e87c86d1a80b00" target="_top" xlink:title="initialization for integration">
<polygon fill="white" stroke="black" points="146,-0.5 146,-30.5 305,-30.5 305,-0.5 146,-0.5"/>
<text text-anchor="start" x="154" y="-18.5" font-family="FreeSans" font-size="10.00">AR::TimeTransformedSymplectic</text>
<text text-anchor="middle" x="225.5" y="-7.5" font-family="FreeSans" font-size="10.00">Integrator::initialIntegration</text>
</a>
</g>
</g>
<!-- Node1&#45;&gt;Node5 -->
<g id="edge5" class="edge">
<title>Node1&#45;&gt;Node5</title>
<path fill="none" stroke="midnightblue" d="M340.08,-46.68C320.81,-41.39 299.9,-35.65 281.33,-30.55"/>
<polygon fill="midnightblue" stroke="midnightblue" points="339.42,-50.13 349.99,-49.4 341.27,-43.38 339.42,-50.13"/>
</g>
<!-- Node3 -->
<g id="node3" class="node">
<title>Node3</title>
<g id="a_node3"><a xlink:href="classH4_1_1HermiteIntegrator.html#a4681b656dd42eae01d3d85e66ac55112" target="_top" xlink:title="adjust groups">
<polygon fill="white" stroke="black" points="0,-73.5 0,-103.5 110,-103.5 110,-73.5 0,-73.5"/>
<text text-anchor="start" x="8" y="-91.5" font-family="FreeSans" font-size="10.00">H4::HermiteIntegrator</text>
<text text-anchor="middle" x="55" y="-80.5" font-family="FreeSans" font-size="10.00">::adjustGroups</text>
</a>
</g>
</g>
<!-- Node2&#45;&gt;Node3 -->
<g id="edge2" class="edge">
<title>Node2&#45;&gt;Node3</title>
<path fill="none" stroke="midnightblue" d="M160.15,-103.95C143.65,-101.5 126.07,-98.9 110.14,-96.53"/>
<polygon fill="midnightblue" stroke="midnightblue" points="159.85,-107.45 170.26,-105.45 160.88,-100.52 159.85,-107.45"/>
</g>
<!-- Node4&#45;&gt;Node3 -->
<g id="edge4" class="edge">
<title>Node4&#45;&gt;Node3</title>
<path fill="none" stroke="midnightblue" d="M160.15,-73.67C143.65,-76.02 126.07,-78.52 110.14,-80.79"/>
<polygon fill="midnightblue" stroke="midnightblue" points="160.85,-77.1 170.26,-72.23 159.86,-70.17 160.85,-77.1"/>
</g>
</g>
</svg>
