<?xml version="1.0" encoding="UTF-8" standalone="no"?>
<!DOCTYPE svg PUBLIC "-//W3C//DTD SVG 1.1//EN"
 "http://www.w3.org/Graphics/SVG/1.1/DTD/svg11.dtd">
<!-- Generated by graphviz version 2.43.0 (0)
 -->
<!-- Title: AR::SymplecticStep::writeBinary Pages: 1 -->
<svg width="306pt" height="39pt"
 viewBox="0.00 0.00 306.00 39.00" xmlns="http://www.w3.org/2000/svg" xmlns:xlink="http://www.w3.org/1999/xlink">
<g id="graph0" class="graph" transform="scale(1 1) rotate(0) translate(4 35)">
<title>AR::SymplecticStep::writeBinary</title>
<polygon fill="white" stroke="transparent" points="-4,4 -4,-35 302,-35 302,4 -4,4"/>
<!-- Node1 -->
<g id="node1" class="node">
<title>Node1</title>
<g id="a_node1"><a xlink:title="write class data with BINARY format">
<polygon fill="#bfbfbf" stroke="black" points="195,-0.5 195,-30.5 298,-30.5 298,-0.5 195,-0.5"/>
<text text-anchor="start" x="203" y="-18.5" font-family="FreeSans" font-size="10.00">AR::SymplecticStep</text>
<text text-anchor="middle" x="246.5" y="-7.5" font-family="FreeSans" font-size="10.00">::writeBinary</text>
</a>
</g>
</g>
<!-- Node2 -->
<g id="node2" class="node">
<title>Node2</title>
<g id="a_node2"><a xlink:href="classAR_1_1TimeTransformedSymplecticManager.html#ab360e8472572d3df9e5dcc5dcfa2a548" target="_top" xlink:title="write class data with BINARY format">
<polygon fill="white" stroke="black" points="0,-0.5 0,-30.5 159,-30.5 159,-0.5 0,-0.5"/>
<text text-anchor="start" x="8" y="-18.5" font-family="FreeSans" font-size="10.00">AR::TimeTransformedSymplectic</text>
<text text-anchor="middle" x="79.5" y="-7.5" font-family="FreeSans" font-size="10.00">Manager&lt; TARacc &gt;::writeBinary</text>
</a>
</g>
</g>
<!-- Node1&#45;&gt;Node2 -->
<g id="edge1" class="edge">
<title>Node1&#45;&gt;Node2</title>
<path fill="none" stroke="midnightblue" d="M184.39,-15.5C176.15,-15.5 167.6,-15.5 159.1,-15.5"/>
<polygon fill="midnightblue" stroke="midnightblue" points="184.65,-19 194.65,-15.5 184.65,-12 184.65,-19"/>
</g>
</g>
</svg>
