<?xml version="1.0" encoding="UTF-8" standalone="no"?>
<!DOCTYPE svg PUBLIC "-//W3C//DTD SVG 1.1//EN"
 "http://www.w3.org/Graphics/SVG/1.1/DTD/svg11.dtd">
<!-- Generated by graphviz version 2.38.0 (20140413.2041)
 -->
<!-- Title: H4::ARInformation::getTwoBranchParticleIndexOriginFromBinaryTree Pages: 1 -->
<svg width="345pt" height="116pt"
 viewBox="0.00 0.00 345.00 115.50" xmlns="http://www.w3.org/2000/svg" xmlns:xlink="http://www.w3.org/1999/xlink">
<g id="graph0" class="graph" transform="scale(1 1) rotate(0) translate(4 111.5)">
<title>H4::ARInformation::getTwoBranchParticleIndexOriginFromBinaryTree</title>
<polygon fill="white" stroke="none" points="-4,4 -4,-111.5 341,-111.5 341,4 -4,4"/>
<!-- Node1 -->
<g id="node1" class="node"><title>Node1</title>
<polygon fill="#bfbfbf" stroke="black" points="0,-39 0,-80 161,-80 161,-39 0,-39"/>
<text text-anchor="start" x="8" y="-68" font-family="FreeSans" font-size="10.00">H4::ARInformation::</text>
<text text-anchor="start" x="8" y="-57" font-family="FreeSans" font-size="10.00">getTwoBranchParticleIndexOrigin</text>
<text text-anchor="middle" x="80.5" y="-46" font-family="FreeSans" font-size="10.00">FromBinaryTree</text>
</g>
<!-- Node2 -->
<g id="node2" class="node"><title>Node2</title>
<g id="a_node2"><a xlink:href="classCOMM_1_1List.html#a125e4f93ee02b677f8377bd541f2105d" target="_top" xlink:title="return member data array address ">
<polygon fill="white" stroke="black" points="197,-88 197,-107 337,-107 337,-88 197,-88"/>
<text text-anchor="middle" x="267" y="-95" font-family="FreeSans" font-size="10.00">COMM::List::getDataAddress</text>
</a>
</g>
</g>
<!-- Node1&#45;&gt;Node2 -->
<g id="edge1" class="edge"><title>Node1&#45;&gt;Node2</title>
<path fill="none" stroke="midnightblue" d="M161.083,-75.8911C177.484,-79.2691 194.429,-82.7592 209.792,-85.9234"/>
<polygon fill="midnightblue" stroke="midnightblue" points="209.137,-89.3618 219.638,-87.9511 210.549,-82.5057 209.137,-89.3618"/>
</g>
<!-- Node3 -->
<g id="node3" class="node"><title>Node3</title>
<g id="a_node3"><a xlink:href="classCOMM_1_1List.html#abcdc25c6ecaf2d352583fa75f9fa1180" target="_top" xlink:title="return last member ">
<polygon fill="white" stroke="black" points="198,-50 198,-69 336,-69 336,-50 198,-50"/>
<text text-anchor="middle" x="267" y="-57" font-family="FreeSans" font-size="10.00">COMM::List::getLastMember</text>
</a>
</g>
</g>
<!-- Node1&#45;&gt;Node3 -->
<g id="edge2" class="edge"><title>Node1&#45;&gt;Node3</title>
<path fill="none" stroke="midnightblue" d="M161.083,-59.5C169.916,-59.5 178.906,-59.5 187.722,-59.5"/>
<polygon fill="midnightblue" stroke="midnightblue" points="187.972,-63.0001 197.972,-59.5 187.971,-56.0001 187.972,-63.0001"/>
</g>
<!-- Node4 -->
<g id="node4" class="node"><title>Node4</title>
<g id="a_node4"><a xlink:href="classCOMM_1_1BinaryTree.html#a9afa87b53ab8657e922afb707dda1e2f" target="_top" xlink:title="Process (bottom) leaf data with extra dat iteratively (from left to right) ">
<polygon fill="white" stroke="black" points="199,-0.5 199,-30.5 335,-30.5 335,-0.5 199,-0.5"/>
<text text-anchor="start" x="207" y="-18.5" font-family="FreeSans" font-size="10.00">COMM::BinaryTree::process</text>
<text text-anchor="middle" x="267" y="-7.5" font-family="FreeSans" font-size="10.00">LeafIter</text>
</a>
</g>
</g>
<!-- Node1&#45;&gt;Node4 -->
<g id="edge3" class="edge"><title>Node1&#45;&gt;Node4</title>
<path fill="none" stroke="midnightblue" d="M161.083,-40.5208C171.726,-37.9827 182.598,-35.3899 193.118,-32.881"/>
<polygon fill="midnightblue" stroke="midnightblue" points="194.163,-36.2302 203.078,-30.5058 192.539,-29.4211 194.163,-36.2302"/>
</g>
</g>
</svg>
