<?xml version="1.0" encoding="UTF-8" standalone="no"?>
<!DOCTYPE svg PUBLIC "-//W3C//DTD SVG 1.1//EN"
 "http://www.w3.org/Graphics/SVG/1.1/DTD/svg11.dtd">
<!-- Generated by graphviz version 2.43.0 (0)
 -->
<!-- Title: COMM::ParticleGroup::shiftToCenterOfMassFrame Pages: 1 -->
<svg width="345pt" height="39pt"
 viewBox="0.00 0.00 345.00 39.00" xmlns="http://www.w3.org/2000/svg" xmlns:xlink="http://www.w3.org/1999/xlink">
<g id="graph0" class="graph" transform="scale(1 1) rotate(0) translate(4 35)">
<title>COMM::ParticleGroup::shiftToCenterOfMassFrame</title>
<polygon fill="white" stroke="transparent" points="-4,4 -4,-35 341,-35 341,4 -4,4"/>
<!-- Node1 -->
<g id="node1" class="node">
<title>Node1</title>
<g id="a_node1"><a xlink:title="shift particle to their c.m. frame">
<polygon fill="#bfbfbf" stroke="black" points="195,-0.5 195,-30.5 337,-30.5 337,-0.5 195,-0.5"/>
<text text-anchor="start" x="203" y="-18.5" font-family="FreeSans" font-size="10.00">COMM::ParticleGroup</text>
<text text-anchor="middle" x="266" y="-7.5" font-family="FreeSans" font-size="10.00">::shiftToCenterOfMassFrame</text>
</a>
</g>
</g>
<!-- Node2 -->
<g id="node2" class="node">
<title>Node2</title>
<g id="a_node2"><a xlink:href="classAR_1_1TimeTransformedSymplecticIntegrator.html#adc635c0084f56558f2e87c86d1a80b00" target="_top" xlink:title="initialization for integration">
<polygon fill="white" stroke="black" points="0,-0.5 0,-30.5 159,-30.5 159,-0.5 0,-0.5"/>
<text text-anchor="start" x="8" y="-18.5" font-family="FreeSans" font-size="10.00">AR::TimeTransformedSymplectic</text>
<text text-anchor="middle" x="79.5" y="-7.5" font-family="FreeSans" font-size="10.00">Integrator::initialIntegration</text>
</a>
</g>
</g>
<!-- Node1&#45;&gt;Node2 -->
<g id="edge1" class="edge">
<title>Node1&#45;&gt;Node2</title>
<path fill="none" stroke="midnightblue" d="M184.71,-15.5C176.22,-15.5 167.58,-15.5 159.11,-15.5"/>
<polygon fill="midnightblue" stroke="midnightblue" points="184.99,-19 194.99,-15.5 184.99,-12 184.99,-19"/>
</g>
</g>
</svg>
