<?xml version="1.0" encoding="UTF-8" standalone="no"?>
<!DOCTYPE svg PUBLIC "-//W3C//DTD SVG 1.1//EN"
 "http://www.w3.org/Graphics/SVG/1.1/DTD/svg11.dtd">
<!-- Generated by graphviz version 2.43.0 (0)
 -->
<!-- Title: H4::HermiteIntegrator::integrateGroupsOneStep Pages: 1 -->
<svg width="491pt" height="313pt"
 viewBox="0.00 0.00 491.00 312.50" xmlns="http://www.w3.org/2000/svg" xmlns:xlink="http://www.w3.org/1999/xlink">
<g id="graph0" class="graph" transform="scale(1 1) rotate(0) translate(4 308.5)">
<title>H4::HermiteIntegrator::integrateGroupsOneStep</title>
<polygon fill="white" stroke="transparent" points="-4,4 -4,-308.5 487,-308.5 487,4 -4,4"/>
<!-- Node1 -->
<g id="node1" class="node">
<title>Node1</title>
<g id="a_node1"><a xlink:title="Integrate groups.">
<polygon fill="#bfbfbf" stroke="black" points="0,-137.5 0,-167.5 128,-167.5 128,-137.5 0,-137.5"/>
<text text-anchor="start" x="8" y="-155.5" font-family="FreeSans" font-size="10.00">H4::HermiteIntegrator</text>
<text text-anchor="middle" x="64" y="-144.5" font-family="FreeSans" font-size="10.00">::integrateGroupsOneStep</text>
</a>
</g>
</g>
<!-- Node2 -->
<g id="node2" class="node">
<title>Node2</title>
<g id="a_node2"><a xlink:href="classCOMM_1_1List.html#adeefdc2865fe56e2413b2cada9772a5e" target="_top" xlink:title="copy one member and its address">
<polygon fill="white" stroke="black" points="164,-285 164,-304 288,-304 288,-285 164,-285"/>
<text text-anchor="middle" x="226" y="-292" font-family="FreeSans" font-size="10.00">COMM::List::addMember</text>
</a>
</g>
</g>
<!-- Node1&#45;&gt;Node2 -->
<g id="edge1" class="edge">
<title>Node1&#45;&gt;Node2</title>
<path fill="none" stroke="midnightblue" d="M73.3,-167.6C88.17,-193.26 121.76,-245.42 164,-274.5 167.51,-276.92 171.33,-279.06 175.3,-280.95"/>
<polygon fill="midnightblue" stroke="midnightblue" points="174.15,-284.27 184.72,-284.94 176.88,-277.82 174.15,-284.27"/>
</g>
<!-- Node3 -->
<g id="node3" class="node">
<title>Node3</title>
<g id="a_node3"><a xlink:href="classH4_1_1HermiteIntegrator.html#a5c92334f487ce31326f4469035b24ba7" target="_top" xlink:title="check whether parameters values are correct">
<polygon fill="white" stroke="black" points="171,-235.5 171,-265.5 281,-265.5 281,-235.5 171,-235.5"/>
<text text-anchor="start" x="179" y="-253.5" font-family="FreeSans" font-size="10.00">H4::HermiteIntegrator</text>
<text text-anchor="middle" x="226" y="-242.5" font-family="FreeSans" font-size="10.00">::checkParams</text>
</a>
</g>
</g>
<!-- Node1&#45;&gt;Node3 -->
<g id="edge2" class="edge">
<title>Node1&#45;&gt;Node3</title>
<path fill="none" stroke="midnightblue" d="M82.69,-167.65C101.82,-183.51 133.66,-208.44 164,-225.5 167.49,-227.46 171.17,-229.36 174.92,-231.16"/>
<polygon fill="midnightblue" stroke="midnightblue" points="173.76,-234.48 184.31,-235.46 176.67,-228.12 173.76,-234.48"/>
</g>
<!-- Node6 -->
<g id="node6" class="node">
<title>Node6</title>
<g id="a_node6"><a xlink:href="structAR_1_1InterruptBinary.html#a1309ddc9ea338b2990190c72c37d8c06" target="_top" xlink:title=" ">
<polygon fill="white" stroke="black" points="177,-186.5 177,-216.5 275,-216.5 275,-186.5 177,-186.5"/>
<text text-anchor="start" x="185" y="-204.5" font-family="FreeSans" font-size="10.00">AR::InterruptBinary</text>
<text text-anchor="middle" x="226" y="-193.5" font-family="FreeSans" font-size="10.00">::clear</text>
</a>
</g>
</g>
<!-- Node1&#45;&gt;Node6 -->
<g id="edge5" class="edge">
<title>Node1&#45;&gt;Node6</title>
<path fill="none" stroke="midnightblue" d="M114.31,-167.6C130.97,-172.7 149.71,-178.44 166.98,-183.73"/>
<polygon fill="midnightblue" stroke="midnightblue" points="166.36,-187.2 176.95,-186.78 168.41,-180.51 166.36,-187.2"/>
</g>
<!-- Node7 -->
<g id="node7" class="node">
<title>Node7</title>
<g id="a_node7"><a xlink:href="classH4_1_1HermiteIntegrator.html#a73a391b3a23556c20a7d7f6b7a2fbc7c" target="_top" xlink:title="get next time for intergration">
<polygon fill="white" stroke="black" points="171,-137.5 171,-167.5 281,-167.5 281,-137.5 171,-137.5"/>
<text text-anchor="start" x="179" y="-155.5" font-family="FreeSans" font-size="10.00">H4::HermiteIntegrator</text>
<text text-anchor="middle" x="226" y="-144.5" font-family="FreeSans" font-size="10.00">::getNextTime</text>
</a>
</g>
</g>
<!-- Node1&#45;&gt;Node7 -->
<g id="edge6" class="edge">
<title>Node1&#45;&gt;Node7</title>
<path fill="none" stroke="midnightblue" d="M128.24,-152.5C138.89,-152.5 149.97,-152.5 160.65,-152.5"/>
<polygon fill="midnightblue" stroke="midnightblue" points="160.75,-156 170.75,-152.5 160.75,-149 160.75,-156"/>
</g>
<!-- Node8 -->
<g id="node8" class="node">
<title>Node8</title>
<g id="a_node8"><a xlink:href="classAR_1_1SymplecticStep.html#a6401a341620f1b64e65e667ac715e5c4" target="_top" xlink:title="get Symplectic order">
<polygon fill="white" stroke="black" points="174.5,-88.5 174.5,-118.5 277.5,-118.5 277.5,-88.5 174.5,-88.5"/>
<text text-anchor="start" x="182.5" y="-106.5" font-family="FreeSans" font-size="10.00">AR::SymplecticStep</text>
<text text-anchor="middle" x="226" y="-95.5" font-family="FreeSans" font-size="10.00">::getOrder</text>
</a>
</g>
</g>
<!-- Node1&#45;&gt;Node8 -->
<g id="edge7" class="edge">
<title>Node1&#45;&gt;Node8</title>
<path fill="none" stroke="midnightblue" d="M114.31,-137.4C130.66,-132.39 149.02,-126.77 166.03,-121.56"/>
<polygon fill="midnightblue" stroke="midnightblue" points="167.32,-124.83 175.85,-118.55 165.27,-118.13 167.32,-124.83"/>
</g>
<!-- Node9 -->
<g id="node9" class="node">
<title>Node9</title>
<g id="a_node9"><a xlink:href="classCOMM_1_1List.html#a929bb5bdaaa7ce70d872ae0c758c77ae" target="_top" xlink:title="get current member number">
<polygon fill="white" stroke="black" points="173.5,-50 173.5,-69 278.5,-69 278.5,-50 173.5,-50"/>
<text text-anchor="middle" x="226" y="-57" font-family="FreeSans" font-size="10.00">COMM::List::getSize</text>
</a>
</g>
</g>
<!-- Node1&#45;&gt;Node9 -->
<g id="edge8" class="edge">
<title>Node1&#45;&gt;Node9</title>
<path fill="none" stroke="midnightblue" d="M81.34,-137.5C100.06,-121 132.27,-94.69 164,-78.5 168.28,-76.31 172.86,-74.32 177.52,-72.53"/>
<polygon fill="midnightblue" stroke="midnightblue" points="178.87,-75.76 187.11,-69.1 176.51,-69.17 178.87,-75.76"/>
</g>
<!-- Node10 -->
<g id="node10" class="node">
<title>Node10</title>
<g id="a_node10"><a xlink:href="classH4_1_1HermiteIntegrator.html#a06f93be79142a0a1d17779eb1b34e164" target="_top" xlink:title="get current real time">
<polygon fill="white" stroke="black" points="171,-0.5 171,-30.5 281,-30.5 281,-0.5 171,-0.5"/>
<text text-anchor="start" x="179" y="-18.5" font-family="FreeSans" font-size="10.00">H4::HermiteIntegrator</text>
<text text-anchor="middle" x="226" y="-7.5" font-family="FreeSans" font-size="10.00">::getTime</text>
</a>
</g>
</g>
<!-- Node1&#45;&gt;Node10 -->
<g id="edge9" class="edge">
<title>Node1&#45;&gt;Node10</title>
<path fill="none" stroke="midnightblue" d="M74.85,-137.47C90.96,-113.92 125.08,-68.17 164,-40.5 166.53,-38.7 169.21,-37 171.98,-35.4"/>
<polygon fill="midnightblue" stroke="midnightblue" points="173.82,-38.39 181.05,-30.64 170.57,-32.19 173.82,-38.39"/>
</g>
<!-- Node4 -->
<g id="node4" class="node">
<title>Node4</title>
<g id="a_node4"><a xlink:href="classH4_1_1HermiteManager.html#ad5ab496b530db1dfab24bebc39fabe8e" target="_top" xlink:title="time step calculator">
<polygon fill="white" stroke="black" points="350.5,-259.5 350.5,-289.5 456.5,-289.5 456.5,-259.5 350.5,-259.5"/>
<text text-anchor="start" x="358.5" y="-277.5" font-family="FreeSans" font-size="10.00">H4::HermiteManager</text>
<text text-anchor="middle" x="403.5" y="-266.5" font-family="FreeSans" font-size="10.00">::checkParams</text>
</a>
</g>
</g>
<!-- Node3&#45;&gt;Node4 -->
<g id="edge3" class="edge">
<title>Node3&#45;&gt;Node4</title>
<path fill="none" stroke="midnightblue" d="M281.09,-257.9C299.87,-260.47 321.08,-263.37 340.45,-266.01"/>
<polygon fill="midnightblue" stroke="midnightblue" points="340.01,-269.49 350.39,-267.37 340.96,-262.55 340.01,-269.49"/>
</g>
<!-- Node5 -->
<g id="node5" class="node">
<title>Node5</title>
<g id="a_node5"><a xlink:href="classAR_1_1TimeTransformedSymplecticManager.html#a8921a86541d095de3a8685f4aad2da48" target="_top" xlink:title="check whether parameters values are correct">
<polygon fill="white" stroke="black" points="324,-210.5 324,-240.5 483,-240.5 483,-210.5 324,-210.5"/>
<text text-anchor="start" x="332" y="-228.5" font-family="FreeSans" font-size="10.00">AR::TimeTransformedSymplectic</text>
<text text-anchor="middle" x="403.5" y="-217.5" font-family="FreeSans" font-size="10.00">Manager::checkParams</text>
</a>
</g>
</g>
<!-- Node3&#45;&gt;Node5 -->
<g id="edge4" class="edge">
<title>Node3&#45;&gt;Node5</title>
<path fill="none" stroke="midnightblue" d="M281.09,-242.8C291.42,-241.32 302.49,-239.75 313.58,-238.17"/>
<polygon fill="midnightblue" stroke="midnightblue" points="314.35,-241.59 323.75,-236.72 313.36,-234.66 314.35,-241.59"/>
</g>
</g>
</svg>
