<?xml version="1.0" encoding="UTF-8" standalone="no"?>
<!DOCTYPE svg PUBLIC "-//W3C//DTD SVG 1.1//EN"
 "http://www.w3.org/Graphics/SVG/1.1/DTD/svg11.dtd">
<!-- Generated by graphviz version 2.43.0 (0)
 -->
<!-- Title: H4::HermiteIntegrator::initialIntegration Pages: 1 -->
<svg width="492pt" height="215pt"
 viewBox="0.00 0.00 492.00 214.50" xmlns="http://www.w3.org/2000/svg" xmlns:xlink="http://www.w3.org/1999/xlink">
<g id="graph0" class="graph" transform="scale(1 1) rotate(0) translate(4 210.5)">
<title>H4::HermiteIntegrator::initialIntegration</title>
<polygon fill="white" stroke="transparent" points="-4,4 -4,-210.5 488,-210.5 488,4 -4,4"/>
<!-- Node1 -->
<g id="node1" class="node">
<title>Node1</title>
<g id="a_node1"><a xlink:title="Initial Hermite integrator.">
<polygon fill="#bfbfbf" stroke="black" points="0,-83 0,-113 110,-113 110,-83 0,-83"/>
<text text-anchor="start" x="8" y="-101" font-family="FreeSans" font-size="10.00">H4::HermiteIntegrator</text>
<text text-anchor="middle" x="55" y="-90" font-family="FreeSans" font-size="10.00">::initialIntegration</text>
</a>
</g>
</g>
<!-- Node2 -->
<g id="node2" class="node">
<title>Node2</title>
<g id="a_node2"><a xlink:href="classH4_1_1BlockTimeStep4th.html#a8532dd2e9fbbba336390b56295e21b76" target="_top" xlink:title="calculate the maximum time step limit for next block step based on the input (current) time">
<polygon fill="white" stroke="black" points="160.5,-176 160.5,-206 274.5,-206 274.5,-176 160.5,-176"/>
<text text-anchor="start" x="168.5" y="-194" font-family="FreeSans" font-size="10.00">H4::BlockTimeStep4th</text>
<text text-anchor="middle" x="217.5" y="-183" font-family="FreeSans" font-size="10.00">::calcNextDtLimit</text>
</a>
</g>
</g>
<!-- Node1&#45;&gt;Node2 -->
<g id="edge1" class="edge">
<title>Node1&#45;&gt;Node2</title>
<path fill="none" stroke="midnightblue" d="M72.84,-113.25C90.15,-128.3 118.41,-151.15 146,-166 149.97,-168.14 154.15,-170.15 158.43,-172.04"/>
<polygon fill="midnightblue" stroke="midnightblue" points="157.29,-175.36 167.87,-175.97 159.98,-168.9 157.29,-175.36"/>
</g>
<!-- Node3 -->
<g id="node3" class="node">
<title>Node3</title>
<g id="a_node3"><a xlink:href="classH4_1_1HermiteIntegrator.html#a5c92334f487ce31326f4469035b24ba7" target="_top" xlink:title="check whether parameters values are correct">
<polygon fill="white" stroke="black" points="162.5,-127 162.5,-157 272.5,-157 272.5,-127 162.5,-127"/>
<text text-anchor="start" x="170.5" y="-145" font-family="FreeSans" font-size="10.00">H4::HermiteIntegrator</text>
<text text-anchor="middle" x="217.5" y="-134" font-family="FreeSans" font-size="10.00">::checkParams</text>
</a>
</g>
</g>
<!-- Node1&#45;&gt;Node3 -->
<g id="edge2" class="edge">
<title>Node1&#45;&gt;Node3</title>
<path fill="none" stroke="midnightblue" d="M110.34,-112.9C123.88,-116.61 138.52,-120.62 152.47,-124.45"/>
<polygon fill="midnightblue" stroke="midnightblue" points="151.92,-127.93 162.49,-127.19 153.77,-121.17 151.92,-127.93"/>
</g>
<!-- Node6 -->
<g id="node6" class="node">
<title>Node6</title>
<g id="a_node6"><a xlink:href="classCOMM_1_1List.html#ad6c06deee95952a09db820733ea428f9" target="_top" xlink:title="return member data array address">
<polygon fill="white" stroke="black" points="146,-88.5 146,-107.5 289,-107.5 289,-88.5 146,-88.5"/>
<text text-anchor="middle" x="217.5" y="-95.5" font-family="FreeSans" font-size="10.00">COMM::List::getDataAddress</text>
</a>
</g>
</g>
<!-- Node1&#45;&gt;Node6 -->
<g id="edge5" class="edge">
<title>Node1&#45;&gt;Node6</title>
<path fill="none" stroke="midnightblue" d="M110.34,-98C118.51,-98 127.08,-98 135.66,-98"/>
<polygon fill="midnightblue" stroke="midnightblue" points="135.72,-101.5 145.72,-98 135.72,-94.5 135.72,-101.5"/>
</g>
<!-- Node7 -->
<g id="node7" class="node">
<title>Node7</title>
<g id="a_node7"><a xlink:href="classH4_1_1BlockTimeStep4th.html#ab72d7e4dc79d4f9fd7a85184d59f0135" target="_top" xlink:title="get maximum time step">
<polygon fill="white" stroke="black" points="160.5,-39 160.5,-69 274.5,-69 274.5,-39 160.5,-39"/>
<text text-anchor="start" x="168.5" y="-57" font-family="FreeSans" font-size="10.00">H4::BlockTimeStep4th</text>
<text text-anchor="middle" x="217.5" y="-46" font-family="FreeSans" font-size="10.00">::getDtMax</text>
</a>
</g>
</g>
<!-- Node1&#45;&gt;Node7 -->
<g id="edge6" class="edge">
<title>Node1&#45;&gt;Node7</title>
<path fill="none" stroke="midnightblue" d="M110.34,-83.1C123.66,-79.45 138.04,-75.51 151.79,-71.74"/>
<polygon fill="midnightblue" stroke="midnightblue" points="152.95,-75.05 161.67,-69.03 151.1,-68.3 152.95,-75.05"/>
</g>
<!-- Node8 -->
<g id="node8" class="node">
<title>Node8</title>
<g id="a_node8"><a xlink:href="classCOMM_1_1List.html#a929bb5bdaaa7ce70d872ae0c758c77ae" target="_top" xlink:title="get current member number">
<polygon fill="white" stroke="black" points="165,-0.5 165,-19.5 270,-19.5 270,-0.5 165,-0.5"/>
<text text-anchor="middle" x="217.5" y="-7.5" font-family="FreeSans" font-size="10.00">COMM::List::getSize</text>
</a>
</g>
</g>
<!-- Node1&#45;&gt;Node8 -->
<g id="edge7" class="edge">
<title>Node1&#45;&gt;Node8</title>
<path fill="none" stroke="midnightblue" d="M71.61,-82.92C88.61,-67.3 117.22,-43.21 146,-29 150.83,-26.61 156,-24.5 161.26,-22.63"/>
<polygon fill="midnightblue" stroke="midnightblue" points="162.37,-25.95 170.78,-19.52 160.19,-19.29 162.37,-25.95"/>
</g>
<!-- Node4 -->
<g id="node4" class="node">
<title>Node4</title>
<g id="a_node4"><a xlink:href="classH4_1_1HermiteManager.html#ad5ab496b530db1dfab24bebc39fabe8e" target="_top" xlink:title="time step calculator">
<polygon fill="white" stroke="black" points="351.5,-151 351.5,-181 457.5,-181 457.5,-151 351.5,-151"/>
<text text-anchor="start" x="359.5" y="-169" font-family="FreeSans" font-size="10.00">H4::HermiteManager</text>
<text text-anchor="middle" x="404.5" y="-158" font-family="FreeSans" font-size="10.00">::checkParams</text>
</a>
</g>
</g>
<!-- Node3&#45;&gt;Node4 -->
<g id="edge3" class="edge">
<title>Node3&#45;&gt;Node4</title>
<path fill="none" stroke="midnightblue" d="M272.51,-149.01C294.06,-151.8 319,-155.04 341.3,-157.93"/>
<polygon fill="midnightblue" stroke="midnightblue" points="340.97,-161.42 351.34,-159.23 341.87,-154.48 340.97,-161.42"/>
</g>
<!-- Node5 -->
<g id="node5" class="node">
<title>Node5</title>
<g id="a_node5"><a xlink:href="classAR_1_1TimeTransformedSymplecticManager.html#a8921a86541d095de3a8685f4aad2da48" target="_top" xlink:title="check whether parameters values are correct">
<polygon fill="white" stroke="black" points="325,-102 325,-132 484,-132 484,-102 325,-102"/>
<text text-anchor="start" x="333" y="-120" font-family="FreeSans" font-size="10.00">AR::TimeTransformedSymplectic</text>
<text text-anchor="middle" x="404.5" y="-109" font-family="FreeSans" font-size="10.00">Manager::checkParams</text>
</a>
</g>
</g>
<!-- Node3&#45;&gt;Node5 -->
<g id="edge4" class="edge">
<title>Node3&#45;&gt;Node5</title>
<path fill="none" stroke="midnightblue" d="M272.51,-134.7C285.77,-132.91 300.31,-130.94 314.73,-129"/>
<polygon fill="midnightblue" stroke="midnightblue" points="315.23,-132.46 324.68,-127.65 314.3,-125.52 315.23,-132.46"/>
</g>
</g>
</svg>
