<?xml version="1.0" encoding="UTF-8" standalone="no"?>
<!DOCTYPE svg PUBLIC "-//W3C//DTD SVG 1.1//EN"
 "http://www.w3.org/Graphics/SVG/1.1/DTD/svg11.dtd">
<!-- Generated by graphviz version 2.38.0 (20140413.2041)
 -->
<!-- Title: AR::SymplecticStep::getOrder Pages: 1 -->
<svg width="317pt" height="88pt"
 viewBox="0.00 0.00 317.00 88.00" xmlns="http://www.w3.org/2000/svg" xmlns:xlink="http://www.w3.org/1999/xlink">
<g id="graph0" class="graph" transform="scale(1 1) rotate(0) translate(4 84)">
<title>AR::SymplecticStep::getOrder</title>
<polygon fill="white" stroke="none" points="-4,4 -4,-84 313,-84 313,4 -4,4"/>
<!-- Node1 -->
<g id="node1" class="node"><title>Node1</title>
<polygon fill="#bfbfbf" stroke="black" points="0,-24.5 0,-54.5 103,-54.5 103,-24.5 0,-24.5"/>
<text text-anchor="start" x="8" y="-42.5" font-family="FreeSans" font-size="10.00">AR::SymplecticStep</text>
<text text-anchor="middle" x="51.5" y="-31.5" font-family="FreeSans" font-size="10.00">::getOrder</text>
</g>
<!-- Node2 -->
<g id="node2" class="node"><title>Node2</title>
<g id="a_node2"><a xlink:href="classH4_1_1HermiteIntegrator.html#a6e40f52b15e96a4d4e7f3cf89241e300" target="_top" xlink:title="Initial Hermite integrator. ">
<polygon fill="white" stroke="black" points="170,-49.5 170,-79.5 278,-79.5 278,-49.5 170,-49.5"/>
<text text-anchor="start" x="178" y="-67.5" font-family="FreeSans" font-size="10.00">H4::HermiteIntegrator</text>
<text text-anchor="middle" x="224" y="-56.5" font-family="FreeSans" font-size="10.00">::initialIntegration</text>
</a>
</g>
</g>
<!-- Node1&#45;&gt;Node2 -->
<g id="edge1" class="edge"><title>Node1&#45;&gt;Node2</title>
<path fill="none" stroke="midnightblue" d="M113.263,-48.4095C131.742,-51.1191 151.899,-54.0746 169.836,-56.7047"/>
<polygon fill="midnightblue" stroke="midnightblue" points="113.596,-44.921 103.194,-46.9331 112.58,-51.847 113.596,-44.921"/>
</g>
<!-- Node3 -->
<g id="node3" class="node"><title>Node3</title>
<g id="a_node3"><a xlink:href="classAR_1_1TimeTransformedSymplecticManager.html#a8921a86541d095de3a8685f4aad2da48" target="_top" xlink:title="check whether parameters values are correct ">
<polygon fill="white" stroke="black" points="139,-0.5 139,-30.5 309,-30.5 309,-0.5 139,-0.5"/>
<text text-anchor="start" x="147" y="-18.5" font-family="FreeSans" font-size="10.00">AR::TimeTransformedSymplectic</text>
<text text-anchor="middle" x="224" y="-7.5" font-family="FreeSans" font-size="10.00">Manager&lt; TARacc &gt;::checkParams</text>
</a>
</g>
</g>
<!-- Node1&#45;&gt;Node3 -->
<g id="edge2" class="edge"><title>Node1&#45;&gt;Node3</title>
<path fill="none" stroke="midnightblue" d="M113.203,-30.9553C121.569,-29.7777 130.279,-28.5516 138.972,-27.3279"/>
<polygon fill="midnightblue" stroke="midnightblue" points="112.608,-27.5044 103.194,-32.3642 113.584,-34.4361 112.608,-27.5044"/>
</g>
</g>
</svg>
