<?xml version="1.0" encoding="UTF-8" standalone="no"?>
<!DOCTYPE svg PUBLIC "-//W3C//DTD SVG 1.1//EN"
 "http://www.w3.org/Graphics/SVG/1.1/DTD/svg11.dtd">
<!-- Generated by graphviz version 2.38.0 (20140413.2041)
 -->
<!-- Title: COMM::Binary::printColumnTitle Pages: 1 -->
<svg width="323pt" height="88pt"
 viewBox="0.00 0.00 323.00 88.00" xmlns="http://www.w3.org/2000/svg" xmlns:xlink="http://www.w3.org/1999/xlink">
<g id="graph0" class="graph" transform="scale(1 1) rotate(0) translate(4 84)">
<title>COMM::Binary::printColumnTitle</title>
<polygon fill="white" stroke="none" points="-4,4 -4,-84 319,-84 319,4 -4,4"/>
<!-- Node1 -->
<g id="node1" class="node"><title>Node1</title>
<polygon fill="#bfbfbf" stroke="black" points="0,-24.5 0,-54.5 135,-54.5 135,-24.5 0,-24.5"/>
<text text-anchor="start" x="8" y="-42.5" font-family="FreeSans" font-size="10.00">COMM::Binary::printColumn</text>
<text text-anchor="middle" x="67.5" y="-31.5" font-family="FreeSans" font-size="10.00">Title</text>
</g>
<!-- Node2 -->
<g id="node2" class="node"><title>Node2</title>
<g id="a_node2"><a xlink:href="classCOMM_1_1BinaryTree.html#a1a30cbcb9733ab6df7871f2f2bd33460" target="_top" xlink:title="print titles of class members using column style ">
<polygon fill="white" stroke="black" points="171,-49.5 171,-79.5 315,-79.5 315,-49.5 171,-49.5"/>
<text text-anchor="start" x="179" y="-67.5" font-family="FreeSans" font-size="10.00">COMM::BinaryTree&lt; Tparticle</text>
<text text-anchor="middle" x="243" y="-56.5" font-family="FreeSans" font-size="10.00"> &gt;::printColumnTitle</text>
</a>
</g>
</g>
<!-- Node1&#45;&gt;Node2 -->
<g id="edge1" class="edge"><title>Node1&#45;&gt;Node2</title>
<path fill="none" stroke="midnightblue" d="M145.104,-50.5381C153.711,-51.7783 162.453,-53.0379 170.985,-54.2673"/>
<polygon fill="midnightblue" stroke="midnightblue" points="145.48,-47.0562 135.083,-49.0942 144.482,-53.9847 145.48,-47.0562"/>
</g>
<!-- Node3 -->
<g id="node3" class="node"><title>Node3</title>
<g id="a_node3"><a xlink:href="classH4_1_1HermiteIntegrator.html#aefaac6ef510ac839a678081a80e69131" target="_top" xlink:title="add groups from lists of particle index ">
<polygon fill="white" stroke="black" points="189,-0.5 189,-30.5 297,-30.5 297,-0.5 189,-0.5"/>
<text text-anchor="start" x="197" y="-18.5" font-family="FreeSans" font-size="10.00">H4::HermiteIntegrator</text>
<text text-anchor="middle" x="243" y="-7.5" font-family="FreeSans" font-size="10.00">::addGroups</text>
</a>
</g>
</g>
<!-- Node1&#45;&gt;Node3 -->
<g id="edge2" class="edge"><title>Node1&#45;&gt;Node3</title>
<path fill="none" stroke="midnightblue" d="M145.187,-28.8921C159.901,-26.8566 175.007,-24.7671 188.78,-22.8618"/>
<polygon fill="midnightblue" stroke="midnightblue" points="144.509,-25.4523 135.083,-30.2896 145.469,-32.3863 144.509,-25.4523"/>
</g>
</g>
</svg>
