<?xml version="1.0" encoding="UTF-8" standalone="no"?>
<!DOCTYPE svg PUBLIC "-//W3C//DTD SVG 1.1//EN"
 "http://www.w3.org/Graphics/SVG/1.1/DTD/svg11.dtd">
<!-- Generated by graphviz version 2.38.0 (20140413.2041)
 -->
<!-- Title: AR::TimeTransformedSymplecticIntegrator::readBinary Pages: 1 -->
<svg width="360pt" height="279pt"
 viewBox="0.00 0.00 360.00 279.00" xmlns="http://www.w3.org/2000/svg" xmlns:xlink="http://www.w3.org/1999/xlink">
<g id="graph0" class="graph" transform="scale(1 1) rotate(0) translate(4 275)">
<title>AR::TimeTransformedSymplecticIntegrator::readBinary</title>
<polygon fill="white" stroke="none" points="-4,4 -4,-275 356,-275 356,4 -4,4"/>
<!-- Node1 -->
<g id="node1" class="node"><title>Node1</title>
<polygon fill="#bfbfbf" stroke="black" points="0,-148 0,-178 158,-178 158,-148 0,-148"/>
<text text-anchor="start" x="8" y="-166" font-family="FreeSans" font-size="10.00">AR::TimeTransformedSymplectic</text>
<text text-anchor="middle" x="79" y="-155" font-family="FreeSans" font-size="10.00">Integrator::readBinary</text>
</g>
<!-- Node2 -->
<g id="node2" class="node"><title>Node2</title>
<g id="a_node2"><a xlink:href="classCOMM_1_1List.html#a10c70f9a45d06c2589898cbaf1e4fbf8" target="_top" xlink:title="set mode ">
<polygon fill="white" stroke="black" points="219,-251.5 219,-270.5 327,-270.5 327,-251.5 219,-251.5"/>
<text text-anchor="middle" x="273" y="-258.5" font-family="FreeSans" font-size="10.00">COMM::List::setMode</text>
</a>
</g>
</g>
<!-- Node1&#45;&gt;Node2 -->
<g id="edge1" class="edge"><title>Node1&#45;&gt;Node2</title>
<path fill="none" stroke="midnightblue" d="M106.394,-178.255C128.472,-194.267 161.496,-218.388 194,-233 209.803,-240.104 228.651,-244.789 243.86,-248.76"/>
<polygon fill="midnightblue" stroke="midnightblue" points="243.16,-252.196 253.726,-251.415 244.98,-245.436 243.16,-252.196"/>
</g>
<!-- Node1&#45;&gt;Node2 -->
<g id="edge5" class="edge"><title>Node1&#45;&gt;Node2</title>
<path fill="none" stroke="midnightblue" d="M91.1176,-178.267C110.584,-198.534 152.711,-232.439 194,-251 198.725,-253.124 203.723,-255.032 208.814,-256.714"/>
<polygon fill="midnightblue" stroke="midnightblue" points="208.089,-260.151 218.673,-259.668 210.099,-253.445 208.089,-260.151"/>
</g>
<!-- Node3 -->
<g id="node3" class="node"><title>Node3</title>
<g id="a_node3"><a xlink:href="classCOMM_1_1List.html#a7f125554959409d40217deb7402c0de9" target="_top" xlink:title="Memory allocation for storing members. ">
<polygon fill="white" stroke="black" points="211,-213.5 211,-232.5 335,-232.5 335,-213.5 211,-213.5"/>
<text text-anchor="middle" x="273" y="-220.5" font-family="FreeSans" font-size="10.00">COMM::List::reserveMem</text>
</a>
</g>
</g>
<!-- Node1&#45;&gt;Node3 -->
<g id="edge2" class="edge"><title>Node1&#45;&gt;Node3</title>
<path fill="none" stroke="midnightblue" d="M118.702,-178.077C140.608,-186.317 168.621,-196.369 194,-204 202.154,-206.452 210.859,-208.816 219.387,-210.994"/>
<polygon fill="midnightblue" stroke="midnightblue" points="218.723,-214.435 229.273,-213.459 220.417,-207.643 218.723,-214.435"/>
</g>
<!-- Node4 -->
<g id="node4" class="node"><title>Node4</title>
<g id="a_node4"><a xlink:href="classCOMM_1_1List.html#a0f3dd09ceff0ce9b3ffd15f48a9ea9c4" target="_top" xlink:title="increase size without initialization ">
<polygon fill="white" stroke="black" points="201.5,-175.5 201.5,-194.5 344.5,-194.5 344.5,-175.5 201.5,-175.5"/>
<text text-anchor="middle" x="273" y="-182.5" font-family="FreeSans" font-size="10.00">COMM::List::resizeNoInitialize</text>
</a>
</g>
</g>
<!-- Node1&#45;&gt;Node4 -->
<g id="edge3" class="edge"><title>Node1&#45;&gt;Node4</title>
<path fill="none" stroke="midnightblue" d="M158.094,-171.948C169.063,-173.205 180.356,-174.499 191.371,-175.761"/>
<polygon fill="midnightblue" stroke="midnightblue" points="191.059,-179.248 201.392,-176.91 191.856,-172.294 191.059,-179.248"/>
</g>
<!-- Node5 -->
<g id="node5" class="node"><title>Node5</title>
<g id="a_node5"><a xlink:href="classAR_1_1TimeTransformedSymplecticManager.html#a468331841b3d06894c4fb450891c7c2e" target="_top" xlink:title="read class data with BINARY format and initial the array ">
<polygon fill="white" stroke="black" points="194,-126 194,-156 352,-156 352,-126 194,-126"/>
<text text-anchor="start" x="202" y="-144" font-family="FreeSans" font-size="10.00">AR::TimeTransformedSymplectic</text>
<text text-anchor="middle" x="273" y="-133" font-family="FreeSans" font-size="10.00">Manager::readBinary</text>
</a>
</g>
</g>
<!-- Node1&#45;&gt;Node5 -->
<g id="edge4" class="edge"><title>Node1&#45;&gt;Node5</title>
<path fill="none" stroke="midnightblue" d="M158.094,-154.052C166.601,-153.077 175.302,-152.08 183.918,-151.093"/>
<polygon fill="midnightblue" stroke="midnightblue" points="184.439,-154.556 193.975,-149.94 183.642,-147.602 184.439,-154.556"/>
</g>
<!-- Node6 -->
<g id="node6" class="node"><title>Node6</title>
<g id="a_node6"><a xlink:href="classCOMM_1_1ParticleGroup.html#ac437d74b8165f0ada466e1bedca66a58" target="_top" xlink:title="Read particle data from file. ">
<polygon fill="white" stroke="black" points="217.5,-77 217.5,-107 328.5,-107 328.5,-77 217.5,-77"/>
<text text-anchor="start" x="225.5" y="-95" font-family="FreeSans" font-size="10.00">COMM::ParticleGroup</text>
<text text-anchor="middle" x="273" y="-84" font-family="FreeSans" font-size="10.00">::readBinary</text>
</a>
</g>
</g>
<!-- Node1&#45;&gt;Node6 -->
<g id="edge6" class="edge"><title>Node1&#45;&gt;Node6</title>
<path fill="none" stroke="midnightblue" d="M115.427,-147.924C137.801,-138.598 167.406,-126.613 194,-117 200.29,-114.727 206.901,-112.445 213.503,-110.234"/>
<polygon fill="midnightblue" stroke="midnightblue" points="214.733,-113.514 223.132,-107.056 212.539,-106.867 214.733,-113.514"/>
</g>
<!-- Node7 -->
<g id="node7" class="node"><title>Node7</title>
<g id="a_node7"><a xlink:href="classAR_1_1SlowDown.html#a0f7fdbbdaff81b171802ba4d5d659682" target="_top" xlink:title="read class data with BINARY format ">
<polygon fill="white" stroke="black" points="208,-38.5 208,-57.5 338,-57.5 338,-38.5 208,-38.5"/>
<text text-anchor="middle" x="273" y="-45.5" font-family="FreeSans" font-size="10.00">AR::SlowDown::readBinary</text>
</a>
</g>
</g>
<!-- Node1&#45;&gt;Node7 -->
<g id="edge7" class="edge"><title>Node1&#45;&gt;Node7</title>
<path fill="none" stroke="midnightblue" d="M93.9302,-147.733C114.007,-126.656 153.174,-88.8858 194,-68 199.554,-65.1587 205.542,-62.7003 211.643,-60.5776"/>
<polygon fill="midnightblue" stroke="midnightblue" points="212.811,-63.8789 221.279,-57.5114 210.689,-57.2085 212.811,-63.8789"/>
</g>
<!-- Node8 -->
<g id="node8" class="node"><title>Node8</title>
<g id="a_node8"><a xlink:href="classAR_1_1Profile.html#a6876b1f0f13a035cdcd51d7f5a4bd65d" target="_top" xlink:title="read class data with BINARY format and initial the array ">
<polygon fill="white" stroke="black" points="217,-0.5 217,-19.5 329,-19.5 329,-0.5 217,-0.5"/>
<text text-anchor="middle" x="273" y="-7.5" font-family="FreeSans" font-size="10.00">AR::Profile::readBinary</text>
</a>
</g>
</g>
<!-- Node1&#45;&gt;Node8 -->
<g id="edge8" class="edge"><title>Node1&#45;&gt;Node8</title>
<path fill="none" stroke="midnightblue" d="M88.4522,-147.832C104.914,-119.761 144.078,-59.7725 194,-29 198.156,-26.438 202.636,-24.2213 207.272,-22.3036"/>
<polygon fill="midnightblue" stroke="midnightblue" points="208.76,-25.4864 216.955,-18.7718 206.361,-18.9102 208.76,-25.4864"/>
</g>
</g>
</svg>
