<?xml version="1.0" encoding="UTF-8" standalone="no"?>
<!DOCTYPE svg PUBLIC "-//W3C//DTD SVG 1.1//EN"
 "http://www.w3.org/Graphics/SVG/1.1/DTD/svg11.dtd">
<!-- Generated by graphviz version 2.43.0 (0)
 -->
<!-- Title: AR::TimeTransformedSymplecticIntegrator::reserveIntegratorMem Pages: 1 -->
<svg width="330pt" height="66pt"
 viewBox="0.00 0.00 330.00 66.00" xmlns="http://www.w3.org/2000/svg" xmlns:xlink="http://www.w3.org/1999/xlink">
<g id="graph0" class="graph" transform="scale(1 1) rotate(0) translate(4 62)">
<title>AR::TimeTransformedSymplecticIntegrator::reserveIntegratorMem</title>
<polygon fill="white" stroke="transparent" points="-4,4 -4,-62 326,-62 326,4 -4,4"/>
<!-- Node1 -->
<g id="node1" class="node">
<title>Node1</title>
<g id="a_node1"><a xlink:title="reserve memory for force">
<polygon fill="#bfbfbf" stroke="black" points="0,-14 0,-44 159,-44 159,-14 0,-14"/>
<text text-anchor="start" x="8" y="-32" font-family="FreeSans" font-size="10.00">AR::TimeTransformedSymplectic</text>
<text text-anchor="middle" x="79.5" y="-21" font-family="FreeSans" font-size="10.00">Integrator::reserveIntegratorMem</text>
</a>
</g>
</g>
<!-- Node2 -->
<g id="node2" class="node">
<title>Node2</title>
<g id="a_node2"><a xlink:href="classCOMM_1_1List.html#a7f125554959409d40217deb7402c0de9" target="_top" xlink:title="Memory allocation for storing members.">
<polygon fill="white" stroke="black" points="195,-38.5 195,-57.5 322,-57.5 322,-38.5 195,-38.5"/>
<text text-anchor="middle" x="258.5" y="-45.5" font-family="FreeSans" font-size="10.00">COMM::List::reserveMem</text>
</a>
</g>
</g>
<!-- Node1&#45;&gt;Node2 -->
<g id="edge1" class="edge">
<title>Node1&#45;&gt;Node2</title>
<path fill="none" stroke="midnightblue" d="M159.17,-37.44C167.63,-38.35 176.22,-39.28 184.62,-40.18"/>
<polygon fill="midnightblue" stroke="midnightblue" points="184.42,-43.68 194.74,-41.26 185.17,-36.72 184.42,-43.68"/>
</g>
<!-- Node3 -->
<g id="node3" class="node">
<title>Node3</title>
<g id="a_node3"><a xlink:href="classCOMM_1_1List.html#a10c70f9a45d06c2589898cbaf1e4fbf8" target="_top" xlink:title="set mode">
<polygon fill="white" stroke="black" points="203.5,-0.5 203.5,-19.5 313.5,-19.5 313.5,-0.5 203.5,-0.5"/>
<text text-anchor="middle" x="258.5" y="-7.5" font-family="FreeSans" font-size="10.00">COMM::List::setMode</text>
</a>
</g>
</g>
<!-- Node1&#45;&gt;Node3 -->
<g id="edge2" class="edge">
<title>Node1&#45;&gt;Node3</title>
<path fill="none" stroke="midnightblue" d="M159.17,-20.56C170.62,-19.33 182.29,-18.07 193.41,-16.88"/>
<polygon fill="midnightblue" stroke="midnightblue" points="193.87,-20.35 203.44,-15.8 193.12,-13.39 193.87,-20.35"/>
</g>
</g>
</svg>
