<?xml version="1.0" encoding="UTF-8" standalone="no"?>
<!DOCTYPE svg PUBLIC "-//W3C//DTD SVG 1.1//EN"
 "http://www.w3.org/Graphics/SVG/1.1/DTD/svg11.dtd">
<!-- Generated by graphviz version 2.43.0 (0)
 -->
<!-- Title: COMM::ParticleGroup::clear Pages: 1 -->
<svg width="273pt" height="50pt"
 viewBox="0.00 0.00 273.00 50.00" xmlns="http://www.w3.org/2000/svg" xmlns:xlink="http://www.w3.org/1999/xlink">
<g id="graph0" class="graph" transform="scale(1 1) rotate(0) translate(4 46)">
<title>COMM::ParticleGroup::clear</title>
<polygon fill="white" stroke="transparent" points="-4,4 -4,-46 269,-46 269,4 -4,4"/>
<!-- Node1 -->
<g id="node1" class="node">
<title>Node1</title>
<g id="a_node1"><a xlink:title="Clear function.">
<polygon fill="#bfbfbf" stroke="black" points="154,-6 154,-36 265,-36 265,-6 154,-6"/>
<text text-anchor="start" x="162" y="-24" font-family="FreeSans" font-size="10.00">COMM::ParticleGroup</text>
<text text-anchor="middle" x="209.5" y="-13" font-family="FreeSans" font-size="10.00">::clear</text>
</a>
</g>
</g>
<!-- Node2 -->
<g id="node2" class="node">
<title>Node2</title>
<g id="a_node2"><a xlink:href="classCOMM_1_1ParticleGroup.html#ad24d34c19dcf7f18c085d9cc01c388b1" target="_top" xlink:title="destructor">
<polygon fill="white" stroke="black" points="0,-0.5 0,-41.5 118,-41.5 118,-0.5 0,-0.5"/>
<text text-anchor="start" x="8" y="-29.5" font-family="FreeSans" font-size="10.00">COMM::ParticleGroup</text>
<text text-anchor="start" x="8" y="-18.5" font-family="FreeSans" font-size="10.00">&lt; H4::ParticleH4, Tpcm</text>
<text text-anchor="middle" x="59" y="-7.5" font-family="FreeSans" font-size="10.00"> &gt;::~ParticleGroup</text>
</a>
</g>
</g>
<!-- Node1&#45;&gt;Node2 -->
<g id="edge1" class="edge">
<title>Node1&#45;&gt;Node2</title>
<path fill="none" stroke="midnightblue" d="M143.46,-21C135.03,-21 126.44,-21 118.14,-21"/>
<polygon fill="midnightblue" stroke="midnightblue" points="143.63,-24.5 153.63,-21 143.63,-17.5 143.63,-24.5"/>
</g>
</g>
</svg>
