<?xml version="1.0" encoding="UTF-8" standalone="no"?>
<!DOCTYPE svg PUBLIC "-//W3C//DTD SVG 1.1//EN"
 "http://www.w3.org/Graphics/SVG/1.1/DTD/svg11.dtd">
<!-- Generated by graphviz version 2.38.0 (20140413.2041)
 -->
<!-- Title: H4::HermiteIntegrator::initialIntegration Pages: 1 -->
<svg width="292pt" height="274pt"
 viewBox="0.00 0.00 292.00 274.00" xmlns="http://www.w3.org/2000/svg" xmlns:xlink="http://www.w3.org/1999/xlink">
<g id="graph0" class="graph" transform="scale(1 1) rotate(0) translate(4 270)">
<title>H4::HermiteIntegrator::initialIntegration</title>
<polygon fill="white" stroke="none" points="-4,4 -4,-270 288,-270 288,4 -4,4"/>
<!-- Node1 -->
<g id="node1" class="node"><title>Node1</title>
<polygon fill="#bfbfbf" stroke="black" points="0,-142.5 0,-172.5 108,-172.5 108,-142.5 0,-142.5"/>
<text text-anchor="start" x="8" y="-160.5" font-family="FreeSans" font-size="10.00">H4::HermiteIntegrator</text>
<text text-anchor="middle" x="54" y="-149.5" font-family="FreeSans" font-size="10.00">::initialIntegration</text>
</g>
<!-- Node2 -->
<g id="node2" class="node"><title>Node2</title>
<g id="a_node2"><a xlink:href="classCOMM_1_1List.html#aaddc8ba775e2a6504eb393d7d0c2235b" target="_top" xlink:title="Get modified status. ">
<polygon fill="white" stroke="black" points="157.5,-235.5 157.5,-265.5 270.5,-265.5 270.5,-235.5 157.5,-235.5"/>
<text text-anchor="start" x="165.5" y="-253.5" font-family="FreeSans" font-size="10.00">COMM::List&lt; Tparticle</text>
<text text-anchor="middle" x="214" y="-242.5" font-family="FreeSans" font-size="10.00"> &gt;::isModified</text>
</a>
</g>
</g>
<!-- Node1&#45;&gt;Node2 -->
<g id="edge1" class="edge"><title>Node1&#45;&gt;Node2</title>
<path fill="none" stroke="midnightblue" d="M71.242,-172.752C88.2641,-188.068 116.333,-211.489 144,-226.5 147.257,-228.267 150.67,-229.944 154.16,-231.527"/>
<polygon fill="midnightblue" stroke="midnightblue" points="152.953,-234.817 163.526,-235.5 155.686,-228.373 152.953,-234.817"/>
</g>
<!-- Node3 -->
<g id="node3" class="node"><title>Node3</title>
<g id="a_node3"><a xlink:href="classCOMM_1_1List.html#af1c92acd831f62c52f3385a71d6403e7" target="_top" xlink:title="get current member number ">
<polygon fill="white" stroke="black" points="157.5,-186.5 157.5,-216.5 270.5,-216.5 270.5,-186.5 157.5,-186.5"/>
<text text-anchor="start" x="165.5" y="-204.5" font-family="FreeSans" font-size="10.00">COMM::List&lt; Tparticle</text>
<text text-anchor="middle" x="214" y="-193.5" font-family="FreeSans" font-size="10.00"> &gt;::getSize</text>
</a>
</g>
</g>
<!-- Node1&#45;&gt;Node3 -->
<g id="edge2" class="edge"><title>Node1&#45;&gt;Node3</title>
<path fill="none" stroke="midnightblue" d="M108.051,-165.858C128.053,-170.895 150.551,-177.265 169.572,-183.305"/>
<polygon fill="midnightblue" stroke="midnightblue" points="168.578,-186.662 179.17,-186.425 170.742,-180.005 168.578,-186.662"/>
</g>
<!-- Node1&#45;&gt;Node3 -->
<g id="edge3" class="edge"><title>Node1&#45;&gt;Node3</title>
<path fill="none" stroke="midnightblue" d="M88.895,-172.596C106.038,-178.308 127.443,-184.603 147.625,-189.954"/>
<polygon fill="midnightblue" stroke="midnightblue" points="146.851,-193.369 157.41,-192.499 148.612,-186.595 146.851,-193.369"/>
</g>
<!-- Node4 -->
<g id="node4" class="node"><title>Node4</title>
<g id="a_node4"><a xlink:href="classCOMM_1_1List.html#a125e4f93ee02b677f8377bd541f2105d" target="_top" xlink:title="return member data array address ">
<polygon fill="white" stroke="black" points="144,-148 144,-167 284,-167 284,-148 144,-148"/>
<text text-anchor="middle" x="214" y="-155" font-family="FreeSans" font-size="10.00">COMM::List::getDataAddress</text>
</a>
</g>
</g>
<!-- Node1&#45;&gt;Node4 -->
<g id="edge4" class="edge"><title>Node1&#45;&gt;Node4</title>
<path fill="none" stroke="midnightblue" d="M108.051,-151.085C116.299,-150.865 124.971,-150.753 133.649,-150.75"/>
<polygon fill="midnightblue" stroke="midnightblue" points="133.798,-154.251 143.814,-150.797 133.83,-147.251 133.798,-154.251"/>
</g>
<!-- Node1&#45;&gt;Node4 -->
<g id="edge5" class="edge"><title>Node1&#45;&gt;Node4</title>
<path fill="none" stroke="midnightblue" d="M108.051,-163.915C116.299,-164.135 124.971,-164.247 133.649,-164.25"/>
<polygon fill="midnightblue" stroke="midnightblue" points="133.83,-167.749 143.814,-164.203 133.798,-160.749 133.83,-167.749"/>
</g>
<!-- Node5 -->
<g id="node5" class="node"><title>Node5</title>
<g id="a_node5"><a xlink:href="classH4_1_1HermiteManager.html#ad5ab496b530db1dfab24bebc39fabe8e" target="_top" xlink:title="time step calculator ">
<polygon fill="white" stroke="black" points="162,-98.5 162,-128.5 266,-128.5 266,-98.5 162,-98.5"/>
<text text-anchor="start" x="170" y="-116.5" font-family="FreeSans" font-size="10.00">H4::HermiteManager</text>
<text text-anchor="middle" x="214" y="-105.5" font-family="FreeSans" font-size="10.00">::checkParams</text>
</a>
</g>
</g>
<!-- Node1&#45;&gt;Node5 -->
<g id="edge6" class="edge"><title>Node1&#45;&gt;Node5</title>
<path fill="none" stroke="midnightblue" d="M108.051,-142.726C122.182,-138.791 137.559,-134.509 152.076,-130.466"/>
<polygon fill="midnightblue" stroke="midnightblue" points="153.268,-133.767 161.963,-127.713 151.39,-127.024 153.268,-133.767"/>
</g>
<!-- Node6 -->
<g id="node6" class="node"><title>Node6</title>
<g id="a_node6"><a xlink:href="classH4_1_1BlockTimeStep4th.html#a8532dd2e9fbbba336390b56295e21b76" target="_top" xlink:title="calculate the maximum time step limit for next block step based on the input (current) time ...">
<polygon fill="white" stroke="black" points="157.5,-49.5 157.5,-79.5 270.5,-79.5 270.5,-49.5 157.5,-49.5"/>
<text text-anchor="start" x="165.5" y="-67.5" font-family="FreeSans" font-size="10.00">H4::BlockTimeStep4th</text>
<text text-anchor="middle" x="214" y="-56.5" font-family="FreeSans" font-size="10.00">::calcNextDtLimit</text>
</a>
</g>
</g>
<!-- Node1&#45;&gt;Node6 -->
<g id="edge7" class="edge"><title>Node1&#45;&gt;Node6</title>
<path fill="none" stroke="midnightblue" d="M71.6415,-142.277C88.7568,-127.25 116.697,-104.417 144,-89.5 147.879,-87.3811 151.973,-85.3773 156.153,-83.4965"/>
<polygon fill="midnightblue" stroke="midnightblue" points="157.552,-86.7051 165.392,-79.5784 154.819,-80.2606 157.552,-86.7051"/>
</g>
<!-- Node7 -->
<g id="node7" class="node"><title>Node7</title>
<g id="a_node7"><a xlink:href="classAR_1_1SymplecticStep.html#a191a4dfa707aa4bbe6258c90c6ae80bc" target="_top" xlink:title="get Symplectic order ">
<polygon fill="white" stroke="black" points="162.5,-0.5 162.5,-30.5 265.5,-30.5 265.5,-0.5 162.5,-0.5"/>
<text text-anchor="start" x="170.5" y="-18.5" font-family="FreeSans" font-size="10.00">AR::SymplecticStep</text>
<text text-anchor="middle" x="214" y="-7.5" font-family="FreeSans" font-size="10.00">::getOrder</text>
</a>
</g>
</g>
<!-- Node1&#45;&gt;Node7 -->
<g id="edge8" class="edge"><title>Node1&#45;&gt;Node7</title>
<path fill="none" stroke="midnightblue" d="M62.7458,-142.348C76.1032,-117.643 105.757,-68.6217 144,-40.5 146.858,-38.3983 149.911,-36.4581 153.082,-34.6691"/>
<polygon fill="midnightblue" stroke="midnightblue" points="154.927,-37.6578 162.269,-30.0189 151.766,-31.4123 154.927,-37.6578"/>
</g>
</g>
</svg>
