<?xml version="1.0" encoding="UTF-8" standalone="no"?>
<!DOCTYPE svg PUBLIC "-//W3C//DTD SVG 1.1//EN"
 "http://www.w3.org/Graphics/SVG/1.1/DTD/svg11.dtd">
<!-- Generated by graphviz version 2.43.0 (0)
 -->
<!-- Title: H4::HermiteIntegrator::getTime Pages: 1 -->
<svg width="282pt" height="39pt"
 viewBox="0.00 0.00 282.00 39.00" xmlns="http://www.w3.org/2000/svg" xmlns:xlink="http://www.w3.org/1999/xlink">
<g id="graph0" class="graph" transform="scale(1 1) rotate(0) translate(4 35)">
<title>H4::HermiteIntegrator::getTime</title>
<polygon fill="white" stroke="transparent" points="-4,4 -4,-35 278,-35 278,4 -4,4"/>
<!-- Node1 -->
<g id="node1" class="node">
<title>Node1</title>
<g id="a_node1"><a xlink:title="get current real time">
<polygon fill="#bfbfbf" stroke="black" points="164,-0.5 164,-30.5 274,-30.5 274,-0.5 164,-0.5"/>
<text text-anchor="start" x="172" y="-18.5" font-family="FreeSans" font-size="10.00">H4::HermiteIntegrator</text>
<text text-anchor="middle" x="219" y="-7.5" font-family="FreeSans" font-size="10.00">::getTime</text>
</a>
</g>
</g>
<!-- Node2 -->
<g id="node2" class="node">
<title>Node2</title>
<g id="a_node2"><a xlink:href="classH4_1_1HermiteIntegrator.html#acaf43160d505e983bab7dff3f57150ce" target="_top" xlink:title="Integrate groups.">
<polygon fill="white" stroke="black" points="0,-0.5 0,-30.5 128,-30.5 128,-0.5 0,-0.5"/>
<text text-anchor="start" x="8" y="-18.5" font-family="FreeSans" font-size="10.00">H4::HermiteIntegrator</text>
<text text-anchor="middle" x="64" y="-7.5" font-family="FreeSans" font-size="10.00">::integrateGroupsOneStep</text>
</a>
</g>
</g>
<!-- Node1&#45;&gt;Node2 -->
<g id="edge1" class="edge">
<title>Node1&#45;&gt;Node2</title>
<path fill="none" stroke="midnightblue" d="M153.49,-15.5C145.08,-15.5 136.47,-15.5 128.08,-15.5"/>
<polygon fill="midnightblue" stroke="midnightblue" points="153.63,-19 163.63,-15.5 153.63,-12 153.63,-19"/>
</g>
</g>
</svg>
