<?xml version="1.0" encoding="UTF-8" standalone="no"?>
<!DOCTYPE svg PUBLIC "-//W3C//DTD SVG 1.1//EN"
 "http://www.w3.org/Graphics/SVG/1.1/DTD/svg11.dtd">
<!-- Generated by graphviz version 2.43.0 (0)
 -->
<!-- Title: H4::HermiteIntegrator&lt; Tparticle, Tpcm, Tpert, TARpert, Tacc, TARacc, Tinfo &gt; Pages: 1 -->
<svg width="812pt" height="328pt"
 viewBox="0.00 0.00 812.00 327.50" xmlns="http://www.w3.org/2000/svg" xmlns:xlink="http://www.w3.org/1999/xlink">
<g id="graph0" class="graph" transform="scale(1 1) rotate(0) translate(4 323.5)">
<title>H4::HermiteIntegrator&lt; Tparticle, Tpcm, Tpert, TARpert, Tacc, TARacc, Tinfo &gt;</title>
<polygon fill="white" stroke="transparent" points="-4,4 -4,-323.5 808,-323.5 808,4 -4,4"/>
<!-- Node1 -->
<g id="node1" class="node">
<title>Node1</title>
<g id="a_node1"><a xlink:title="Hermite integrator class.">
<polygon fill="#bfbfbf" stroke="black" points="679,-129.5 679,-181.5 804,-181.5 804,-129.5 679,-129.5"/>
<text text-anchor="start" x="687" y="-169.5" font-family="FreeSans" font-size="10.00">H4::HermiteIntegrator</text>
<text text-anchor="start" x="687" y="-158.5" font-family="FreeSans" font-size="10.00">&lt; Tparticle, Tpcm, Tpert,</text>
<text text-anchor="start" x="687" y="-147.5" font-family="FreeSans" font-size="10.00"> TARpert, Tacc, TARacc,</text>
<text text-anchor="middle" x="741.5" y="-136.5" font-family="FreeSans" font-size="10.00"> Tinfo &gt;</text>
</a>
</g>
</g>
<!-- Node2 -->
<g id="node2" class="node">
<title>Node2</title>
<g id="a_node2"><a xlink:href="classCOMM_1_1ParticleGroup.html" target="_top" xlink:title=" ">
<polygon fill="white" stroke="black" points="440.5,-282.5 440.5,-312.5 566.5,-312.5 566.5,-282.5 440.5,-282.5"/>
<text text-anchor="start" x="448.5" y="-300.5" font-family="FreeSans" font-size="10.00">COMM::ParticleGroup</text>
<text text-anchor="middle" x="503.5" y="-289.5" font-family="FreeSans" font-size="10.00">&lt; H4::ParticleH4, Tpcm &gt;</text>
</a>
</g>
</g>
<!-- Node2&#45;&gt;Node1 -->
<g id="edge1" class="edge">
<title>Node2&#45;&gt;Node1</title>
<path fill="none" stroke="#9a32cd" stroke-dasharray="5,2" d="M574.38,-279.16C579.38,-277.39 584.3,-275.5 589,-273.5 623.09,-258.99 631.41,-253.79 661,-231.5 680.83,-216.57 701.02,-197.2 716.09,-181.76"/>
<polygon fill="#9a32cd" stroke="#9a32cd" points="573.06,-275.91 564.7,-282.42 575.3,-282.55 573.06,-275.91"/>
<text text-anchor="middle" x="634" y="-267.5" font-family="FreeSans" font-size="10.00"> particles</text>
</g>
<!-- Node3 -->
<g id="node3" class="node">
<title>Node3</title>
<g id="a_node3"><a xlink:href="classCOMM_1_1List.html" target="_top" xlink:title=" ">
<polygon fill="white" stroke="black" points="203.5,-288 203.5,-307 351.5,-307 351.5,-288 203.5,-288"/>
<text text-anchor="middle" x="277.5" y="-295" font-family="FreeSans" font-size="10.00">COMM::List&lt; H4::ParticleH4 &gt;</text>
</a>
</g>
</g>
<!-- Node3&#45;&gt;Node2 -->
<g id="edge2" class="edge">
<title>Node3&#45;&gt;Node2</title>
<path fill="none" stroke="midnightblue" d="M361.78,-297.5C387.84,-297.5 416.12,-297.5 440.45,-297.5"/>
<polygon fill="midnightblue" stroke="midnightblue" points="361.54,-294 351.54,-297.5 361.54,-301 361.54,-294"/>
</g>
<!-- Node4 -->
<g id="node4" class="node">
<title>Node4</title>
<g id="a_node4"><a xlink:href="classH4_1_1ParticleH4.html" target="_top" xlink:title="particle type for AR integrator, not necessary anymore">
<polygon fill="white" stroke="black" points="0,-288 0,-307 134,-307 134,-288 0,-288"/>
<text text-anchor="middle" x="67" y="-295" font-family="FreeSans" font-size="10.00">H4::ParticleH4&lt; Tparticle &gt;</text>
</a>
</g>
</g>
<!-- Node4&#45;&gt;Node3 -->
<g id="edge3" class="edge">
<title>Node4&#45;&gt;Node3</title>
<path fill="none" stroke="#9a32cd" stroke-dasharray="5,2" d="M144.45,-297.5C163.63,-297.5 184.16,-297.5 203.18,-297.5"/>
<polygon fill="#9a32cd" stroke="#9a32cd" points="144.26,-294 134.26,-297.5 144.26,-301 144.26,-294"/>
<text text-anchor="middle" x="166" y="-311.5" font-family="FreeSans" font-size="10.00"> adr_</text>
<text text-anchor="middle" x="166" y="-300.5" font-family="FreeSans" font-size="10.00">data_</text>
</g>
<!-- Node5 -->
<g id="node5" class="node">
<title>Node5</title>
<g id="a_node5"><a xlink:href="classCOMM_1_1List.html" target="_top" xlink:title=" ">
<polygon fill="white" stroke="black" points="418,-233.5 418,-263.5 589,-263.5 589,-233.5 418,-233.5"/>
<text text-anchor="start" x="426" y="-251.5" font-family="FreeSans" font-size="10.00">COMM::List&lt; AR::TimeTransformed</text>
<text text-anchor="middle" x="503.5" y="-240.5" font-family="FreeSans" font-size="10.00">SymplecticIntegrator &gt;</text>
</a>
</g>
</g>
<!-- Node5&#45;&gt;Node1 -->
<g id="edge4" class="edge">
<title>Node5&#45;&gt;Node1</title>
<path fill="none" stroke="#9a32cd" stroke-dasharray="5,2" d="M570.84,-230.46C577.01,-228.55 583.14,-226.54 589,-224.5 623.38,-212.5 660.62,-195.6 689.57,-181.53"/>
<polygon fill="#9a32cd" stroke="#9a32cd" points="569.7,-227.15 561.15,-233.41 571.74,-233.85 569.7,-227.15"/>
<text text-anchor="middle" x="634" y="-219.5" font-family="FreeSans" font-size="10.00"> groups</text>
</g>
<!-- Node6 -->
<g id="node6" class="node">
<title>Node6</title>
<g id="a_node6"><a xlink:href="classAR_1_1TimeTransformedSymplecticIntegrator.html" target="_top" xlink:title="Time Transformed Symplectic integrator class for a group of particles.">
<polygon fill="white" stroke="black" points="198,-228 198,-269 357,-269 357,-228 198,-228"/>
<text text-anchor="start" x="206" y="-257" font-family="FreeSans" font-size="10.00">AR::TimeTransformedSymplectic</text>
<text text-anchor="start" x="206" y="-246" font-family="FreeSans" font-size="10.00">Integrator&lt; Tparticle, Tpcm,</text>
<text text-anchor="middle" x="277.5" y="-235" font-family="FreeSans" font-size="10.00"> Tpert, Tmethod, Tinfo &gt;</text>
</a>
</g>
</g>
<!-- Node6&#45;&gt;Node5 -->
<g id="edge5" class="edge">
<title>Node6&#45;&gt;Node5</title>
<path fill="none" stroke="#9a32cd" stroke-dasharray="5,2" d="M367.42,-248.5C384.07,-248.5 401.43,-248.5 417.94,-248.5"/>
<polygon fill="#9a32cd" stroke="#9a32cd" points="367.16,-245 357.16,-248.5 367.16,-252 367.16,-245"/>
<text text-anchor="middle" x="387.5" y="-262.5" font-family="FreeSans" font-size="10.00"> adr_</text>
<text text-anchor="middle" x="387.5" y="-251.5" font-family="FreeSans" font-size="10.00">data_</text>
</g>
<!-- Node7 -->
<g id="node7" class="node">
<title>Node7</title>
<g id="a_node7"><a xlink:href="classAR_1_1Profile.html" target="_top" xlink:title="profiling class for AR integrator">
<polygon fill="white" stroke="black" points="36,-239 36,-258 98,-258 98,-239 36,-239"/>
<text text-anchor="middle" x="67" y="-246" font-family="FreeSans" font-size="10.00">AR::Profile</text>
</a>
</g>
</g>
<!-- Node7&#45;&gt;Node6 -->
<g id="edge6" class="edge">
<title>Node7&#45;&gt;Node6</title>
<path fill="none" stroke="#9a32cd" stroke-dasharray="5,2" d="M108.33,-248.5C133.75,-248.5 167.43,-248.5 197.98,-248.5"/>
<polygon fill="#9a32cd" stroke="#9a32cd" points="108.32,-245 98.32,-248.5 108.32,-252 108.32,-245"/>
<text text-anchor="middle" x="166" y="-251.5" font-family="FreeSans" font-size="10.00"> profile</text>
</g>
<!-- Node8 -->
<g id="node8" class="node">
<title>Node8</title>
<g id="a_node8"><a xlink:href="classAR_1_1TimeTransformedSymplecticManager.html" target="_top" xlink:title=" ">
<polygon fill="white" stroke="black" points="424,-184.5 424,-214.5 583,-214.5 583,-184.5 424,-184.5"/>
<text text-anchor="start" x="432" y="-202.5" font-family="FreeSans" font-size="10.00">AR::TimeTransformedSymplectic</text>
<text text-anchor="middle" x="503.5" y="-191.5" font-family="FreeSans" font-size="10.00">Manager&lt; TARacc &gt;</text>
</a>
</g>
</g>
<!-- Node8&#45;&gt;Node1 -->
<g id="edge7" class="edge">
<title>Node8&#45;&gt;Node1</title>
<path fill="none" stroke="#9a32cd" stroke-dasharray="5,2" d="M593.36,-183.09C615.46,-178.99 639.09,-174.6 661,-170.5 666.8,-169.42 672.83,-168.28 678.87,-167.15"/>
<polygon fill="#9a32cd" stroke="#9a32cd" points="592.52,-179.68 583.32,-184.95 593.79,-186.57 592.52,-179.68"/>
<text text-anchor="middle" x="634" y="-182.5" font-family="FreeSans" font-size="10.00"> ar_manager</text>
</g>
<!-- Node9 -->
<g id="node9" class="node">
<title>Node9</title>
<g id="a_node9"><a xlink:href="classAR_1_1SymplecticStep.html" target="_top" xlink:title="class to manager symplectic KD steps">
<polygon fill="white" stroke="black" points="226,-190 226,-209 329,-209 329,-190 226,-190"/>
<text text-anchor="middle" x="277.5" y="-197" font-family="FreeSans" font-size="10.00">AR::SymplecticStep</text>
</a>
</g>
</g>
<!-- Node9&#45;&gt;Node8 -->
<g id="edge8" class="edge">
<title>Node9&#45;&gt;Node8</title>
<path fill="none" stroke="#9a32cd" stroke-dasharray="5,2" d="M339.18,-199.5C365.3,-199.5 396.17,-199.5 424,-199.5"/>
<polygon fill="#9a32cd" stroke="#9a32cd" points="339.05,-196 329.05,-199.5 339.05,-203 339.05,-196"/>
<text text-anchor="middle" x="387.5" y="-202.5" font-family="FreeSans" font-size="10.00"> step</text>
</g>
<!-- Node10 -->
<g id="node10" class="node">
<title>Node10</title>
<g id="a_node10"><a xlink:href="classH4_1_1Profile.html" target="_top" xlink:title=" ">
<polygon fill="white" stroke="black" points="473,-146 473,-165 534,-165 534,-146 473,-146"/>
<text text-anchor="middle" x="503.5" y="-153" font-family="FreeSans" font-size="10.00">H4::Profile</text>
</a>
</g>
</g>
<!-- Node10&#45;&gt;Node1 -->
<g id="edge9" class="edge">
<title>Node10&#45;&gt;Node1</title>
<path fill="none" stroke="#9a32cd" stroke-dasharray="5,2" d="M544.71,-155.5C581.44,-155.5 636.31,-155.5 678.62,-155.5"/>
<polygon fill="#9a32cd" stroke="#9a32cd" points="544.39,-152 534.39,-155.5 544.39,-159 544.39,-152"/>
<text text-anchor="middle" x="634" y="-158.5" font-family="FreeSans" font-size="10.00"> profile</text>
</g>
<!-- Node11 -->
<g id="node11" class="node">
<title>Node11</title>
<g id="a_node11"><a xlink:href="classH4_1_1HermiteManager.html" target="_top" xlink:title=" ">
<polygon fill="white" stroke="black" points="450.5,-49.5 450.5,-79.5 556.5,-79.5 556.5,-49.5 450.5,-49.5"/>
<text text-anchor="start" x="458.5" y="-67.5" font-family="FreeSans" font-size="10.00">H4::HermiteManager</text>
<text text-anchor="middle" x="503.5" y="-56.5" font-family="FreeSans" font-size="10.00">&lt; Tacc &gt;</text>
</a>
</g>
</g>
<!-- Node11&#45;&gt;Node1 -->
<g id="edge10" class="edge">
<title>Node11&#45;&gt;Node1</title>
<path fill="none" stroke="#9a32cd" stroke-dasharray="5,2" d="M567.01,-68.01C596.55,-71.47 631.67,-78.25 661,-91.5 681.02,-100.55 700.3,-115.84 714.86,-129.22"/>
<polygon fill="#9a32cd" stroke="#9a32cd" points="567.13,-64.51 556.82,-66.92 566.39,-71.47 567.13,-64.51"/>
<text text-anchor="middle" x="634" y="-94.5" font-family="FreeSans" font-size="10.00"> manager</text>
</g>
<!-- Node12 -->
<g id="node12" class="node">
<title>Node12</title>
<g id="a_node12"><a xlink:href="classH4_1_1BlockTimeStep4th.html" target="_top" xlink:title=" ">
<polygon fill="white" stroke="black" points="220.5,-88 220.5,-107 334.5,-107 334.5,-88 220.5,-88"/>
<text text-anchor="middle" x="277.5" y="-95" font-family="FreeSans" font-size="10.00">H4::BlockTimeStep4th</text>
</a>
</g>
</g>
<!-- Node12&#45;&gt;Node1 -->
<g id="edge13" class="edge">
<title>Node12&#45;&gt;Node1</title>
<path fill="none" stroke="#9a32cd" stroke-dasharray="5,2" d="M344.71,-101.44C407.74,-105.67 505.14,-113.45 589,-125.5 618.73,-129.77 651.44,-136.05 678.84,-141.76"/>
<polygon fill="#9a32cd" stroke="#9a32cd" points="344.73,-97.93 334.52,-100.77 344.26,-104.92 344.73,-97.93"/>
<text text-anchor="middle" x="503.5" y="-128.5" font-family="FreeSans" font-size="10.00"> step</text>
</g>
<!-- Node12&#45;&gt;Node11 -->
<g id="edge11" class="edge">
<title>Node12&#45;&gt;Node11</title>
<path fill="none" stroke="#9a32cd" stroke-dasharray="5,2" d="M344.97,-87.71C378.69,-82.74 419.05,-76.79 450.47,-72.17"/>
<polygon fill="#9a32cd" stroke="#9a32cd" points="344.12,-84.3 334.74,-89.22 345.14,-91.22 344.12,-84.3"/>
<text text-anchor="middle" x="387.5" y="-85.5" font-family="FreeSans" font-size="10.00"> step</text>
</g>
<!-- Node13 -->
<g id="node13" class="node">
<title>Node13</title>
<g id="a_node13"><a xlink:href="classH4_1_1TimeStep4th.html" target="_top" xlink:title=" ">
<polygon fill="white" stroke="black" points="22.5,-88 22.5,-107 111.5,-107 111.5,-88 22.5,-88"/>
<text text-anchor="middle" x="67" y="-95" font-family="FreeSans" font-size="10.00">H4::TimeStep4th</text>
</a>
</g>
</g>
<!-- Node13&#45;&gt;Node12 -->
<g id="edge12" class="edge">
<title>Node13&#45;&gt;Node12</title>
<path fill="none" stroke="midnightblue" d="M122.04,-97.5C152.17,-97.5 189.66,-97.5 220.15,-97.5"/>
<polygon fill="midnightblue" stroke="midnightblue" points="121.71,-94 111.71,-97.5 121.71,-101 121.71,-94"/>
</g>
<!-- Node14 -->
<g id="node14" class="node">
<title>Node14</title>
<g id="a_node14"><a xlink:href="classCOMM_1_1List.html" target="_top" xlink:title=" ">
<polygon fill="white" stroke="black" points="437,-0.5 437,-30.5 570,-30.5 570,-0.5 437,-0.5"/>
<text text-anchor="start" x="445" y="-18.5" font-family="FreeSans" font-size="10.00">COMM::List&lt; H4::Neighbor</text>
<text text-anchor="middle" x="503.5" y="-7.5" font-family="FreeSans" font-size="10.00">&lt; Tparticle &gt; &gt;</text>
</a>
</g>
</g>
<!-- Node14&#45;&gt;Node1 -->
<g id="edge14" class="edge">
<title>Node14&#45;&gt;Node1</title>
<path fill="none" stroke="#9a32cd" stroke-dasharray="5,2" d="M580.08,-27.08C607.13,-33.64 636.87,-43.81 661,-59.5 688.39,-77.31 711.13,-107.51 725.17,-129.29"/>
<polygon fill="#9a32cd" stroke="#9a32cd" points="580.78,-23.65 570.25,-24.82 579.22,-30.47 580.78,-23.65"/>
<text text-anchor="middle" x="634" y="-62.5" font-family="FreeSans" font-size="10.00"> neighbors</text>
</g>
</g>
</svg>
