<?xml version="1.0" encoding="UTF-8" standalone="no"?>
<!DOCTYPE svg PUBLIC "-//W3C//DTD SVG 1.1//EN"
 "http://www.w3.org/Graphics/SVG/1.1/DTD/svg11.dtd">
<!-- Generated by graphviz version 2.38.0 (20140413.2041)
 -->
<!-- Title: H4::TimeStep4th::printColumnTitle Pages: 1 -->
<svg width="468pt" height="39pt"
 viewBox="0.00 0.00 468.00 39.00" xmlns="http://www.w3.org/2000/svg" xmlns:xlink="http://www.w3.org/1999/xlink">
<g id="graph0" class="graph" transform="scale(1 1) rotate(0) translate(4 35)">
<title>H4::TimeStep4th::printColumnTitle</title>
<polygon fill="white" stroke="none" points="-4,4 -4,-35 464,-35 464,4 -4,4"/>
<!-- Node1 -->
<g id="node1" class="node"><title>Node1</title>
<polygon fill="#bfbfbf" stroke="black" points="0,-0.5 0,-30.5 145,-30.5 145,-0.5 0,-0.5"/>
<text text-anchor="start" x="8" y="-18.5" font-family="FreeSans" font-size="10.00">H4::TimeStep4th::printColumn</text>
<text text-anchor="middle" x="72.5" y="-7.5" font-family="FreeSans" font-size="10.00">Title</text>
</g>
<!-- Node2 -->
<g id="node2" class="node"><title>Node2</title>
<g id="a_node2"><a xlink:href="classH4_1_1BlockTimeStep4th.html#ad50b354b506ab0dcf32537471cfd4c26" target="_top" xlink:title="print titles of class members using column style ">
<polygon fill="white" stroke="black" points="181,-0.5 181,-30.5 294,-30.5 294,-0.5 181,-0.5"/>
<text text-anchor="start" x="189" y="-18.5" font-family="FreeSans" font-size="10.00">H4::BlockTimeStep4th</text>
<text text-anchor="middle" x="237.5" y="-7.5" font-family="FreeSans" font-size="10.00">::printColumnTitle</text>
</a>
</g>
</g>
<!-- Node1&#45;&gt;Node2 -->
<g id="edge1" class="edge"><title>Node1&#45;&gt;Node2</title>
<path fill="none" stroke="midnightblue" d="M155.718,-15.5C164.136,-15.5 172.544,-15.5 180.583,-15.5"/>
<polygon fill="midnightblue" stroke="midnightblue" points="155.469,-12.0001 145.469,-15.5 155.469,-19.0001 155.469,-12.0001"/>
</g>
<!-- Node3 -->
<g id="node3" class="node"><title>Node3</title>
<g id="a_node3"><a xlink:href="classH4_1_1HermiteManager.html#a631deef048bdfe9ef9a1dc3d9f4a221c" target="_top" xlink:title="print titles of class members using column style ">
<polygon fill="white" stroke="black" points="330,-0.5 330,-30.5 460,-30.5 460,-0.5 330,-0.5"/>
<text text-anchor="start" x="338" y="-18.5" font-family="FreeSans" font-size="10.00">H4::HermiteManager</text>
<text text-anchor="middle" x="395" y="-7.5" font-family="FreeSans" font-size="10.00">&lt; Tacc &gt;::printColumnTitle</text>
</a>
</g>
</g>
<!-- Node2&#45;&gt;Node3 -->
<g id="edge2" class="edge"><title>Node2&#45;&gt;Node3</title>
<path fill="none" stroke="midnightblue" d="M304.402,-15.5C312.866,-15.5 321.523,-15.5 329.957,-15.5"/>
<polygon fill="midnightblue" stroke="midnightblue" points="304.2,-12.0001 294.2,-15.5 304.2,-19.0001 304.2,-12.0001"/>
</g>
</g>
</svg>
