<?xml version="1.0" encoding="UTF-8" standalone="no"?>
<!DOCTYPE svg PUBLIC "-//W3C//DTD SVG 1.1//EN"
 "http://www.w3.org/Graphics/SVG/1.1/DTD/svg11.dtd">
<!-- Generated by graphviz version 2.43.0 (0)
 -->
<!-- Title: COMM::List::reserveMem Pages: 1 -->
<svg width="330pt" height="235pt"
 viewBox="0.00 0.00 330.00 235.00" xmlns="http://www.w3.org/2000/svg" xmlns:xlink="http://www.w3.org/1999/xlink">
<g id="graph0" class="graph" transform="scale(1 1) rotate(0) translate(4 231)">
<title>COMM::List::reserveMem</title>
<polygon fill="white" stroke="transparent" points="-4,4 -4,-231 326,-231 326,4 -4,4"/>
<!-- Node1 -->
<g id="node1" class="node">
<title>Node1</title>
<g id="a_node1"><a xlink:title="Memory allocation for storing members.">
<polygon fill="#bfbfbf" stroke="black" points="195,-104 195,-123 322,-123 322,-104 195,-104"/>
<text text-anchor="middle" x="258.5" y="-111" font-family="FreeSans" font-size="10.00">COMM::List::reserveMem</text>
</a>
</g>
</g>
<!-- Node2 -->
<g id="node2" class="node">
<title>Node2</title>
<g id="a_node2"><a xlink:href="classCOMM_1_1List.html#a9bab371ce70f4b606893f8df2562b06d" target="_top" xlink:title="operator = is copy">
<polygon fill="white" stroke="black" points="16,-196.5 16,-226.5 143,-226.5 143,-196.5 16,-196.5"/>
<text text-anchor="start" x="24" y="-214.5" font-family="FreeSans" font-size="10.00">COMM::List&lt; H4::Particle</text>
<text text-anchor="middle" x="79.5" y="-203.5" font-family="FreeSans" font-size="10.00">H4 &gt;::operator=</text>
</a>
</g>
</g>
<!-- Node1&#45;&gt;Node2 -->
<g id="edge1" class="edge">
<title>Node1&#45;&gt;Node2</title>
<path fill="none" stroke="midnightblue" d="M239.91,-129.74C221.13,-146.32 189.89,-171.79 159,-187.5 152.39,-190.86 145.23,-193.84 138.02,-196.47"/>
<polygon fill="midnightblue" stroke="midnightblue" points="242.29,-132.31 247.39,-123.03 237.61,-127.11 242.29,-132.31"/>
</g>
<!-- Node3 -->
<g id="node3" class="node">
<title>Node3</title>
<g id="a_node3"><a xlink:href="classAR_1_1TimeTransformedSymplecticIntegrator.html#a9a5c7bd3dfff2fd3ab96fd639ec30d27" target="_top" xlink:title="read class data with BINARY format and initial the array">
<polygon fill="white" stroke="black" points="0,-147.5 0,-177.5 159,-177.5 159,-147.5 0,-147.5"/>
<text text-anchor="start" x="8" y="-165.5" font-family="FreeSans" font-size="10.00">AR::TimeTransformedSymplectic</text>
<text text-anchor="middle" x="79.5" y="-154.5" font-family="FreeSans" font-size="10.00">Integrator::readBinary</text>
</a>
</g>
</g>
<!-- Node1&#45;&gt;Node3 -->
<g id="edge2" class="edge">
<title>Node1&#45;&gt;Node3</title>
<path fill="none" stroke="midnightblue" d="M213.15,-125.78C189.4,-132.35 159.94,-140.51 134.82,-147.46"/>
<polygon fill="midnightblue" stroke="midnightblue" points="214.25,-129.11 222.95,-123.06 212.38,-122.36 214.25,-129.11"/>
</g>
<!-- Node4 -->
<g id="node4" class="node">
<title>Node4</title>
<g id="a_node4"><a xlink:href="classAR_1_1TimeTransformedSymplecticIntegrator.html#ac00641c72ad0f21c9796e8e6cb574530" target="_top" xlink:title="reserve memory for force">
<polygon fill="white" stroke="black" points="0,-98.5 0,-128.5 159,-128.5 159,-98.5 0,-98.5"/>
<text text-anchor="start" x="8" y="-116.5" font-family="FreeSans" font-size="10.00">AR::TimeTransformedSymplectic</text>
<text text-anchor="middle" x="79.5" y="-105.5" font-family="FreeSans" font-size="10.00">Integrator::reserveIntegratorMem</text>
</a>
</g>
</g>
<!-- Node1&#45;&gt;Node4 -->
<g id="edge3" class="edge">
<title>Node1&#45;&gt;Node4</title>
<path fill="none" stroke="midnightblue" d="M184.55,-113.5C176.22,-113.5 167.71,-113.5 159.3,-113.5"/>
<polygon fill="midnightblue" stroke="midnightblue" points="184.6,-117 194.6,-113.5 184.6,-110 184.6,-117"/>
</g>
<!-- Node5 -->
<g id="node5" class="node">
<title>Node5</title>
<g id="a_node5"><a xlink:href="classH4_1_1HermiteIntegrator.html#ab37772f7b30dbb9cc6de51bf58a20fae" target="_top" xlink:title="reserve memory for system">
<polygon fill="white" stroke="black" points="21.5,-49.5 21.5,-79.5 137.5,-79.5 137.5,-49.5 21.5,-49.5"/>
<text text-anchor="start" x="29.5" y="-67.5" font-family="FreeSans" font-size="10.00">H4::HermiteIntegrator</text>
<text text-anchor="middle" x="79.5" y="-56.5" font-family="FreeSans" font-size="10.00">::reserveIntegratorMem</text>
</a>
</g>
</g>
<!-- Node1&#45;&gt;Node5 -->
<g id="edge4" class="edge">
<title>Node1&#45;&gt;Node5</title>
<path fill="none" stroke="midnightblue" d="M213.15,-101.22C189.4,-94.65 159.94,-86.49 134.82,-79.54"/>
<polygon fill="midnightblue" stroke="midnightblue" points="212.38,-104.64 222.95,-103.94 214.25,-97.89 212.38,-104.64"/>
</g>
<!-- Node6 -->
<g id="node6" class="node">
<title>Node6</title>
<g id="a_node6"><a xlink:href="classH4_1_1ARInformation.html#a2bebff4ce2ba995af165f03e72b6b088" target="_top" xlink:title="reserve memory">
<polygon fill="white" stroke="black" points="29,-0.5 29,-30.5 130,-30.5 130,-0.5 29,-0.5"/>
<text text-anchor="start" x="37" y="-18.5" font-family="FreeSans" font-size="10.00">H4::ARInformation::</text>
<text text-anchor="middle" x="79.5" y="-7.5" font-family="FreeSans" font-size="10.00">reserveMem</text>
</a>
</g>
</g>
<!-- Node1&#45;&gt;Node6 -->
<g id="edge5" class="edge">
<title>Node1&#45;&gt;Node6</title>
<path fill="none" stroke="midnightblue" d="M239.53,-97.3C220.66,-81.01 189.53,-56.13 159,-40.5 149.96,-35.87 139.9,-31.89 130.07,-28.55"/>
<polygon fill="midnightblue" stroke="midnightblue" points="237.24,-99.94 247.06,-103.91 241.85,-94.68 237.24,-99.94"/>
</g>
</g>
</svg>
