<?xml version="1.0" encoding="UTF-8" standalone="no"?>
<!DOCTYPE svg PUBLIC "-//W3C//DTD SVG 1.1//EN"
 "http://www.w3.org/Graphics/SVG/1.1/DTD/svg11.dtd">
<!-- Generated by graphviz version 2.38.0 (20140413.2041)
 -->
<!-- Title: AR::TimeTransformedSymplecticIntegrator::writeBackSlowDownParticles Pages: 1 -->
<svg width="375pt" height="284pt"
 viewBox="0.00 0.00 375.00 284.00" xmlns="http://www.w3.org/2000/svg" xmlns:xlink="http://www.w3.org/1999/xlink">
<g id="graph0" class="graph" transform="scale(1 1) rotate(0) translate(4 280)">
<title>AR::TimeTransformedSymplecticIntegrator::writeBackSlowDownParticles</title>
<polygon fill="white" stroke="none" points="-4,4 -4,-280 371,-280 371,4 -4,4"/>
<!-- Node1 -->
<g id="node1" class="node"><title>Node1</title>
<polygon fill="#bfbfbf" stroke="black" points="0,-122.5 0,-152.5 188,-152.5 188,-122.5 0,-122.5"/>
<text text-anchor="start" x="8" y="-140.5" font-family="FreeSans" font-size="10.00">AR::TimeTransformedSymplectic</text>
<text text-anchor="middle" x="94" y="-129.5" font-family="FreeSans" font-size="10.00">Integrator::writeBackSlowDownParticles</text>
</g>
<!-- Node2 -->
<g id="node2" class="node"><title>Node2</title>
<g id="a_node2"><a xlink:href="classCOMM_1_1List.html#a53cc90f6633ba9fed844442fc5b36b47" target="_top" xlink:title="COMM::List\&lt; Tparticle\l \&gt;::getMode">
<polygon fill="white" stroke="black" points="239,-245.5 239,-275.5 352,-275.5 352,-245.5 239,-245.5"/>
<text text-anchor="start" x="247" y="-263.5" font-family="FreeSans" font-size="10.00">COMM::List&lt; Tparticle</text>
<text text-anchor="middle" x="295.5" y="-252.5" font-family="FreeSans" font-size="10.00"> &gt;::getMode</text>
</a>
</g>
</g>
<!-- Node1&#45;&gt;Node2 -->
<g id="edge1" class="edge"><title>Node1&#45;&gt;Node2</title>
<path fill="none" stroke="midnightblue" d="M110.898,-152.511C134.128,-173.756 179.445,-212.658 224,-236.5 227.27,-238.25 230.693,-239.909 234.193,-241.476"/>
<polygon fill="midnightblue" stroke="midnightblue" points="233.01,-244.775 243.586,-245.406 235.712,-238.317 233.01,-244.775"/>
</g>
<!-- Node3 -->
<g id="node3" class="node"><title>Node3</title>
<g id="a_node3"><a xlink:href="classCOMM_1_1ParticleGroup.html#a04903afdcfee09b36b30600a2683c99e" target="_top" xlink:title="return true if the system is the in their origin frame ">
<polygon fill="white" stroke="black" points="240,-196.5 240,-226.5 351,-226.5 351,-196.5 240,-196.5"/>
<text text-anchor="start" x="248" y="-214.5" font-family="FreeSans" font-size="10.00">COMM::ParticleGroup</text>
<text text-anchor="middle" x="295.5" y="-203.5" font-family="FreeSans" font-size="10.00">::isOriginFrame</text>
</a>
</g>
</g>
<!-- Node1&#45;&gt;Node3 -->
<g id="edge2" class="edge"><title>Node1&#45;&gt;Node3</title>
<path fill="none" stroke="midnightblue" d="M132.663,-152.574C158.306,-162.721 193.077,-176.249 224,-187.5 229.088,-189.351 234.398,-191.239 239.72,-193.102"/>
<polygon fill="midnightblue" stroke="midnightblue" points="238.676,-196.444 249.271,-196.414 240.97,-189.83 238.676,-196.444"/>
</g>
<!-- Node4 -->
<g id="node4" class="node"><title>Node4</title>
<g id="a_node4"><a xlink:href="classCOMM_1_1List.html#a432ae1abc33765666f627149c0982c3a" target="_top" xlink:title="return member original address array ">
<polygon fill="white" stroke="black" points="233,-147.5 233,-177.5 358,-177.5 358,-147.5 233,-147.5"/>
<text text-anchor="start" x="241" y="-165.5" font-family="FreeSans" font-size="10.00">COMM::List&lt; Tparticle</text>
<text text-anchor="middle" x="295.5" y="-154.5" font-family="FreeSans" font-size="10.00"> &gt;::getOriginAddressArray</text>
</a>
</g>
</g>
<!-- Node1&#45;&gt;Node4 -->
<g id="edge3" class="edge"><title>Node1&#45;&gt;Node4</title>
<path fill="none" stroke="midnightblue" d="M188.033,-149.158C199.699,-150.62 211.488,-152.098 222.759,-153.51"/>
<polygon fill="midnightblue" stroke="midnightblue" points="222.587,-157.016 232.944,-154.786 223.457,-150.07 222.587,-157.016"/>
</g>
<!-- Node5 -->
<g id="node5" class="node"><title>Node5</title>
<g id="a_node5"><a xlink:href="classCOMM_1_1List.html#a125e4f93ee02b677f8377bd541f2105d" target="_top" xlink:title="return member data array address ">
<polygon fill="white" stroke="black" points="239,-98.5 239,-128.5 352,-128.5 352,-98.5 239,-98.5"/>
<text text-anchor="start" x="247" y="-116.5" font-family="FreeSans" font-size="10.00">COMM::List&lt; Tparticle</text>
<text text-anchor="middle" x="295.5" y="-105.5" font-family="FreeSans" font-size="10.00"> &gt;::getDataAddress</text>
</a>
</g>
</g>
<!-- Node1&#45;&gt;Node5 -->
<g id="edge4" class="edge"><title>Node1&#45;&gt;Node5</title>
<path fill="none" stroke="midnightblue" d="M188.033,-126.308C201.74,-124.659 215.616,-122.99 228.621,-121.425"/>
<polygon fill="midnightblue" stroke="midnightblue" points="229.333,-124.865 238.844,-120.195 228.497,-117.915 229.333,-124.865"/>
</g>
<!-- Node6 -->
<g id="node6" class="node"><title>Node6</title>
<g id="a_node6"><a xlink:href="classAR_1_1SlowDown.html#acdbeeada2bb4f8ef82aee8e5574f3beb" target="_top" xlink:title="Get slow&#45;down factor. ">
<polygon fill="white" stroke="black" points="224,-49.5 224,-79.5 367,-79.5 367,-49.5 224,-49.5"/>
<text text-anchor="start" x="232" y="-67.5" font-family="FreeSans" font-size="10.00">AR::SlowDown::getSlowDown</text>
<text text-anchor="middle" x="295.5" y="-56.5" font-family="FreeSans" font-size="10.00">Factor</text>
</a>
</g>
</g>
<!-- Node1&#45;&gt;Node6 -->
<g id="edge5" class="edge"><title>Node1&#45;&gt;Node6</title>
<path fill="none" stroke="midnightblue" d="M135.035,-122.422C160.477,-112.885 194.129,-100.353 224,-89.5 229.847,-87.3755 235.975,-85.1707 242.073,-82.99"/>
<polygon fill="midnightblue" stroke="midnightblue" points="243.344,-86.2529 251.588,-79.598 240.993,-79.6593 243.344,-86.2529"/>
</g>
<!-- Node7 -->
<g id="node7" class="node"><title>Node7</title>
<g id="a_node7"><a xlink:href="classCOMM_1_1List.html#af1c92acd831f62c52f3385a71d6403e7" target="_top" xlink:title="get current member number ">
<polygon fill="white" stroke="black" points="239,-0.5 239,-30.5 352,-30.5 352,-0.5 239,-0.5"/>
<text text-anchor="start" x="247" y="-18.5" font-family="FreeSans" font-size="10.00">COMM::List&lt; Tparticle</text>
<text text-anchor="middle" x="295.5" y="-7.5" font-family="FreeSans" font-size="10.00"> &gt;::getSize</text>
</a>
</g>
</g>
<!-- Node1&#45;&gt;Node7 -->
<g id="edge6" class="edge"><title>Node1&#45;&gt;Node7</title>
<path fill="none" stroke="midnightblue" d="M111.788,-122.192C135.364,-101.351 180.304,-63.9622 224,-40.5 227.969,-38.369 232.156,-36.3566 236.431,-34.4696"/>
<polygon fill="midnightblue" stroke="midnightblue" points="237.986,-37.6136 245.875,-30.5419 235.297,-31.1503 237.986,-37.6136"/>
</g>
</g>
</svg>
