<?xml version="1.0" encoding="UTF-8" standalone="no"?>
<!DOCTYPE svg PUBLIC "-//W3C//DTD SVG 1.1//EN"
 "http://www.w3.org/Graphics/SVG/1.1/DTD/svg11.dtd">
<!-- Generated by graphviz version 2.43.0 (0)
 -->
<!-- Title: COMM::ParticleGroup::printColumnTitle Pages: 1 -->
<svg width="314pt" height="57pt"
 viewBox="0.00 0.00 314.00 57.00" xmlns="http://www.w3.org/2000/svg" xmlns:xlink="http://www.w3.org/1999/xlink">
<g id="graph0" class="graph" transform="scale(1 1) rotate(0) translate(4 53)">
<title>COMM::ParticleGroup::printColumnTitle</title>
<polygon fill="white" stroke="transparent" points="-4,4 -4,-53 310,-53 310,4 -4,4"/>
<!-- Node1 -->
<g id="node1" class="node">
<title>Node1</title>
<g id="a_node1"><a xlink:title="print titles of class members using column style">
<polygon fill="#bfbfbf" stroke="black" points="195,-0.5 195,-30.5 306,-30.5 306,-0.5 195,-0.5"/>
<text text-anchor="start" x="203" y="-18.5" font-family="FreeSans" font-size="10.00">COMM::ParticleGroup</text>
<text text-anchor="middle" x="250.5" y="-7.5" font-family="FreeSans" font-size="10.00">::printColumnTitle</text>
</a>
</g>
</g>
<!-- Node1&#45;&gt;Node1 -->
<g id="edge1" class="edge">
<title>Node1&#45;&gt;Node1</title>
<path fill="none" stroke="midnightblue" d="M280.71,-40.96C276.96,-45.68 266.89,-49 250.5,-49 223.61,-49 213.73,-40.06 220.87,-30.66"/>
<polygon fill="midnightblue" stroke="midnightblue" points="284.18,-40.45 280.13,-30.66 277.19,-40.84 284.18,-40.45"/>
</g>
<!-- Node2 -->
<g id="node2" class="node">
<title>Node2</title>
<g id="a_node2"><a xlink:href="classAR_1_1TimeTransformedSymplecticIntegrator.html#a810d3b067eb342d28e6f97c7041b96c0" target="_top" xlink:title="print titles of class members using column style">
<polygon fill="white" stroke="black" points="0,-0.5 0,-30.5 159,-30.5 159,-0.5 0,-0.5"/>
<text text-anchor="start" x="8" y="-18.5" font-family="FreeSans" font-size="10.00">AR::TimeTransformedSymplectic</text>
<text text-anchor="middle" x="79.5" y="-7.5" font-family="FreeSans" font-size="10.00">Integrator::printColumnTitle</text>
</a>
</g>
</g>
<!-- Node1&#45;&gt;Node2 -->
<g id="edge2" class="edge">
<title>Node1&#45;&gt;Node2</title>
<path fill="none" stroke="midnightblue" d="M184.59,-15.5C176.22,-15.5 167.59,-15.5 159.03,-15.5"/>
<polygon fill="midnightblue" stroke="midnightblue" points="184.63,-19 194.63,-15.5 184.63,-12 184.63,-19"/>
</g>
</g>
</svg>
