<?xml version="1.0" encoding="UTF-8" standalone="no"?>
<!DOCTYPE svg PUBLIC "-//W3C//DTD SVG 1.1//EN"
 "http://www.w3.org/Graphics/SVG/1.1/DTD/svg11.dtd">
<!-- Generated by graphviz version 2.38.0 (20140413.2041)
 -->
<!-- Title: COMM::List::getLastMember Pages: 1 -->
<svg width="343pt" height="245pt"
 viewBox="0.00 0.00 343.00 245.00" xmlns="http://www.w3.org/2000/svg" xmlns:xlink="http://www.w3.org/1999/xlink">
<g id="graph0" class="graph" transform="scale(1 1) rotate(0) translate(4 241)">
<title>COMM::List::getLastMember</title>
<polygon fill="white" stroke="none" points="-4,4 -4,-241 339,-241 339,4 -4,4"/>
<!-- Node1 -->
<g id="node1" class="node"><title>Node1</title>
<polygon fill="#bfbfbf" stroke="black" points="0,-104 0,-123 138,-123 138,-104 0,-104"/>
<text text-anchor="middle" x="69" y="-111" font-family="FreeSans" font-size="10.00">COMM::List::getLastMember</text>
</g>
<!-- Node2 -->
<g id="node2" class="node"><title>Node2</title>
<g id="a_node2"><a xlink:href="classH4_1_1ARInformation.html#a621aae6cac384b1897d410fc204e775a" target="_top" xlink:title="Initialize group of particles from a binarytree. ">
<polygon fill="white" stroke="black" points="177,-206.5 177,-236.5 332,-236.5 332,-206.5 177,-206.5"/>
<text text-anchor="start" x="185" y="-224.5" font-family="FreeSans" font-size="10.00">H4::ARInformation::</text>
<text text-anchor="middle" x="254.5" y="-213.5" font-family="FreeSans" font-size="10.00">addParticlesAndCopyBinaryTree</text>
</a>
</g>
</g>
<!-- Node1&#45;&gt;Node2 -->
<g id="edge1" class="edge"><title>Node1&#45;&gt;Node2</title>
<path fill="none" stroke="midnightblue" d="M86.5478,-130.333C105.92,-149.161 139.735,-179.386 174,-197.5 180.373,-200.869 187.289,-203.838 194.293,-206.434"/>
<polygon fill="midnightblue" stroke="midnightblue" points="88.9702,-127.806 79.3997,-123.261 84.0471,-132.782 88.9702,-127.806"/>
</g>
<!-- Node3 -->
<g id="node3" class="node"><title>Node3</title>
<g id="a_node3"><a xlink:href="classH4_1_1ARInformation.html#a54e2345bbf41103ae4e06dcf474ec304" target="_top" xlink:title="get two branch particle index ">
<polygon fill="white" stroke="black" points="174,-147 174,-188 335,-188 335,-147 174,-147"/>
<text text-anchor="start" x="182" y="-176" font-family="FreeSans" font-size="10.00">H4::ARInformation::</text>
<text text-anchor="start" x="182" y="-165" font-family="FreeSans" font-size="10.00">getTwoBranchParticleIndexOrigin</text>
<text text-anchor="middle" x="254.5" y="-154" font-family="FreeSans" font-size="10.00">FromBinaryTree</text>
</a>
</g>
</g>
<!-- Node1&#45;&gt;Node3 -->
<g id="edge2" class="edge"><title>Node1&#45;&gt;Node3</title>
<path fill="none" stroke="midnightblue" d="M112.066,-125.879C133.312,-132.131 159.648,-139.881 183.813,-146.993"/>
<polygon fill="midnightblue" stroke="midnightblue" points="112.965,-122.495 102.384,-123.03 110.989,-129.211 112.965,-122.495"/>
</g>
<!-- Node4 -->
<g id="node4" class="node"><title>Node4</title>
<g id="a_node4"><a xlink:href="classH4_1_1HermiteIntegrator.html#aefaac6ef510ac839a678081a80e69131" target="_top" xlink:title="add groups from lists of particle index ">
<polygon fill="white" stroke="black" points="200.5,-98.5 200.5,-128.5 308.5,-128.5 308.5,-98.5 200.5,-98.5"/>
<text text-anchor="start" x="208.5" y="-116.5" font-family="FreeSans" font-size="10.00">H4::HermiteIntegrator</text>
<text text-anchor="middle" x="254.5" y="-105.5" font-family="FreeSans" font-size="10.00">::addGroups</text>
</a>
</g>
</g>
<!-- Node1&#45;&gt;Node4 -->
<g id="edge3" class="edge"><title>Node1&#45;&gt;Node4</title>
<path fill="none" stroke="midnightblue" d="M148.327,-113.5C165.916,-113.5 184.179,-113.5 200.452,-113.5"/>
<polygon fill="midnightblue" stroke="midnightblue" points="148.068,-110 138.068,-113.5 148.068,-117 148.068,-110"/>
</g>
<!-- Node5 -->
<g id="node5" class="node"><title>Node5</title>
<g id="a_node5"><a xlink:href="classH4_1_1HermiteIntegrator.html#a51b5efc55abeab0975009596cd5507bf" target="_top" xlink:title="check the pair with distance below r_crit for ptcl in adr_dt_sorted_ ">
<polygon fill="white" stroke="black" points="200.5,-49.5 200.5,-79.5 308.5,-79.5 308.5,-49.5 200.5,-49.5"/>
<text text-anchor="start" x="208.5" y="-67.5" font-family="FreeSans" font-size="10.00">H4::HermiteIntegrator</text>
<text text-anchor="middle" x="254.5" y="-56.5" font-family="FreeSans" font-size="10.00">::checkNewGroup</text>
</a>
</g>
</g>
<!-- Node1&#45;&gt;Node5 -->
<g id="edge4" class="edge"><title>Node1&#45;&gt;Node5</title>
<path fill="none" stroke="midnightblue" d="M115.676,-101.303C141.371,-94.4419 173.575,-85.8423 200.391,-78.6816"/>
<polygon fill="midnightblue" stroke="midnightblue" points="114.575,-97.9745 105.816,-103.936 116.381,-104.738 114.575,-97.9745"/>
</g>
<!-- Node6 -->
<g id="node6" class="node"><title>Node6</title>
<g id="a_node6"><a xlink:href="classAR_1_1TimeTransformedSymplecticIntegrator.html#aa655bbfc4e9f9af1ae7f7a09fc193443" target="_top" xlink:title="operator = ">
<polygon fill="white" stroke="black" points="175.5,-0.5 175.5,-30.5 333.5,-30.5 333.5,-0.5 175.5,-0.5"/>
<text text-anchor="start" x="183.5" y="-18.5" font-family="FreeSans" font-size="10.00">AR::TimeTransformedSymplectic</text>
<text text-anchor="middle" x="254.5" y="-7.5" font-family="FreeSans" font-size="10.00">Integrator::operator=</text>
</a>
</g>
</g>
<!-- Node1&#45;&gt;Node6 -->
<g id="edge5" class="edge"><title>Node1&#45;&gt;Node6</title>
<path fill="none" stroke="midnightblue" d="M88.8521,-97.559C108.869,-81.3064 141.977,-56.2999 174,-40.5 181.526,-36.787 189.722,-33.4732 197.899,-30.5682"/>
<polygon fill="midnightblue" stroke="midnightblue" points="86.6062,-94.8745 81.1163,-103.936 91.0588,-100.276 86.6062,-94.8745"/>
</g>
</g>
</svg>
