<?xml version="1.0" encoding="UTF-8" standalone="no"?>
<!DOCTYPE svg PUBLIC "-//W3C//DTD SVG 1.1//EN"
 "http://www.w3.org/Graphics/SVG/1.1/DTD/svg11.dtd">
<!-- Generated by graphviz version 2.38.0 (20140413.2041)
 -->
<!-- Title: AR::SymplecticStep::writeBinary Pages: 1 -->
<svg width="305pt" height="39pt"
 viewBox="0.00 0.00 305.00 39.00" xmlns="http://www.w3.org/2000/svg" xmlns:xlink="http://www.w3.org/1999/xlink">
<g id="graph0" class="graph" transform="scale(1 1) rotate(0) translate(4 35)">
<title>AR::SymplecticStep::writeBinary</title>
<polygon fill="white" stroke="none" points="-4,4 -4,-35 301,-35 301,4 -4,4"/>
<!-- Node1 -->
<g id="node1" class="node"><title>Node1</title>
<polygon fill="#bfbfbf" stroke="black" points="0,-0.5 0,-30.5 103,-30.5 103,-0.5 0,-0.5"/>
<text text-anchor="start" x="8" y="-18.5" font-family="FreeSans" font-size="10.00">AR::SymplecticStep</text>
<text text-anchor="middle" x="51.5" y="-7.5" font-family="FreeSans" font-size="10.00">::writeBinary</text>
</g>
<!-- Node2 -->
<g id="node2" class="node"><title>Node2</title>
<g id="a_node2"><a xlink:href="classAR_1_1TimeTransformedSymplecticManager.html#ab360e8472572d3df9e5dcc5dcfa2a548" target="_top" xlink:title="write class data with BINARY format ">
<polygon fill="white" stroke="black" points="139,-0.5 139,-30.5 297,-30.5 297,-0.5 139,-0.5"/>
<text text-anchor="start" x="147" y="-18.5" font-family="FreeSans" font-size="10.00">AR::TimeTransformedSymplectic</text>
<text text-anchor="middle" x="218" y="-7.5" font-family="FreeSans" font-size="10.00">Manager&lt; TARacc &gt;::writeBinary</text>
</a>
</g>
</g>
<!-- Node1&#45;&gt;Node2 -->
<g id="edge1" class="edge"><title>Node1&#45;&gt;Node2</title>
<path fill="none" stroke="midnightblue" d="M113.232,-15.5C121.609,-15.5 130.307,-15.5 138.943,-15.5"/>
<polygon fill="midnightblue" stroke="midnightblue" points="113.198,-12.0001 103.198,-15.5 113.198,-19.0001 113.198,-12.0001"/>
</g>
</g>
</svg>
