<?xml version="1.0" encoding="UTF-8" standalone="no"?>
<!DOCTYPE svg PUBLIC "-//W3C//DTD SVG 1.1//EN"
 "http://www.w3.org/Graphics/SVG/1.1/DTD/svg11.dtd">
<!-- Generated by graphviz version 2.38.0 (20140413.2041)
 -->
<!-- Title: AR::SlowDown::initialSlowDownReference Pages: 1 -->
<svg width="330pt" height="137pt"
 viewBox="0.00 0.00 330.00 137.00" xmlns="http://www.w3.org/2000/svg" xmlns:xlink="http://www.w3.org/1999/xlink">
<g id="graph0" class="graph" transform="scale(1 1) rotate(0) translate(4 133)">
<title>AR::SlowDown::initialSlowDownReference</title>
<polygon fill="white" stroke="none" points="-4,4 -4,-133 326,-133 326,4 -4,4"/>
<!-- Node1 -->
<g id="node1" class="node"><title>Node1</title>
<polygon fill="#bfbfbf" stroke="black" points="0,-49.5 0,-79.5 128,-79.5 128,-49.5 0,-49.5"/>
<text text-anchor="start" x="8" y="-67.5" font-family="FreeSans" font-size="10.00">AR::SlowDown::initialSlow</text>
<text text-anchor="middle" x="64" y="-56.5" font-family="FreeSans" font-size="10.00">DownReference</text>
</g>
<!-- Node2 -->
<g id="node2" class="node"><title>Node2</title>
<g id="a_node2"><a xlink:href="classH4_1_1HermiteIntegrator.html#aa2e53961f55ac16a239a07471cbe6110" target="_top" xlink:title="Check break condition. ">
<polygon fill="white" stroke="black" points="189,-98.5 189,-128.5 297,-128.5 297,-98.5 189,-98.5"/>
<text text-anchor="start" x="197" y="-116.5" font-family="FreeSans" font-size="10.00">H4::HermiteIntegrator</text>
<text text-anchor="middle" x="243" y="-105.5" font-family="FreeSans" font-size="10.00">::checkBreak</text>
</a>
</g>
</g>
<!-- Node1&#45;&gt;Node2 -->
<g id="edge1" class="edge"><title>Node1&#45;&gt;Node2</title>
<path fill="none" stroke="midnightblue" d="M129.294,-82.299C148.849,-87.7123 170.111,-93.5985 188.844,-98.7846"/>
<polygon fill="midnightblue" stroke="midnightblue" points="130.121,-78.8964 119.55,-79.6014 128.254,-85.6427 130.121,-78.8964"/>
</g>
<!-- Node3 -->
<g id="node3" class="node"><title>Node3</title>
<g id="a_node3"><a xlink:href="classH4_1_1HermiteIntegrator.html#a51b5efc55abeab0975009596cd5507bf" target="_top" xlink:title="check the pair with distance below r_crit for ptcl in adr_dt_sorted_ ">
<polygon fill="white" stroke="black" points="189,-49.5 189,-79.5 297,-79.5 297,-49.5 189,-49.5"/>
<text text-anchor="start" x="197" y="-67.5" font-family="FreeSans" font-size="10.00">H4::HermiteIntegrator</text>
<text text-anchor="middle" x="243" y="-56.5" font-family="FreeSans" font-size="10.00">::checkNewGroup</text>
</a>
</g>
</g>
<!-- Node1&#45;&gt;Node3 -->
<g id="edge2" class="edge"><title>Node1&#45;&gt;Node3</title>
<path fill="none" stroke="midnightblue" d="M138.771,-64.5C155.613,-64.5 173.188,-64.5 188.962,-64.5"/>
<polygon fill="midnightblue" stroke="midnightblue" points="138.401,-61.0001 128.401,-64.5 138.401,-68.0001 138.401,-61.0001"/>
</g>
<!-- Node4 -->
<g id="node4" class="node"><title>Node4</title>
<g id="a_node4"><a xlink:href="classAR_1_1TimeTransformedSymplecticIntegrator.html#a4db984abe326fd1a30b3d52f6537e5eb" target="_top" xlink:title="initialization for integration ">
<polygon fill="white" stroke="black" points="164,-0.5 164,-30.5 322,-30.5 322,-0.5 164,-0.5"/>
<text text-anchor="start" x="172" y="-18.5" font-family="FreeSans" font-size="10.00">AR::TimeTransformedSymplectic</text>
<text text-anchor="middle" x="243" y="-7.5" font-family="FreeSans" font-size="10.00">Integrator::initialIntegration</text>
</a>
</g>
</g>
<!-- Node1&#45;&gt;Node4 -->
<g id="edge3" class="edge"><title>Node1&#45;&gt;Node4</title>
<path fill="none" stroke="midnightblue" d="M129.375,-46.6788C148.485,-41.3882 169.221,-35.6478 187.63,-30.5516"/>
<polygon fill="midnightblue" stroke="midnightblue" points="128.254,-43.3573 119.55,-49.3986 130.121,-50.1036 128.254,-43.3573"/>
</g>
</g>
</svg>
