<?xml version="1.0" encoding="UTF-8" standalone="no"?>
<!DOCTYPE svg PUBLIC "-//W3C//DTD SVG 1.1//EN"
 "http://www.w3.org/Graphics/SVG/1.1/DTD/svg11.dtd">
<!-- Generated by graphviz version 2.43.0 (0)
 -->
<!-- Title: COMM::List::createRemoveTable Pages: 1 -->
<svg width="307pt" height="39pt"
 viewBox="0.00 0.00 307.00 39.00" xmlns="http://www.w3.org/2000/svg" xmlns:xlink="http://www.w3.org/1999/xlink">
<g id="graph0" class="graph" transform="scale(1 1) rotate(0) translate(4 35)">
<title>COMM::List::createRemoveTable</title>
<polygon fill="white" stroke="transparent" points="-4,4 -4,-35 303,-35 303,4 -4,4"/>
<!-- Node1 -->
<g id="node1" class="node">
<title>Node1</title>
<g id="a_node1"><a xlink:title="create remove table for removing a list of members">
<polygon fill="#bfbfbf" stroke="black" points="163,-0.5 163,-30.5 299,-30.5 299,-0.5 163,-0.5"/>
<text text-anchor="start" x="171" y="-18.5" font-family="FreeSans" font-size="10.00">COMM::List::createRemove</text>
<text text-anchor="middle" x="231" y="-7.5" font-family="FreeSans" font-size="10.00">Table</text>
</a>
</g>
</g>
<!-- Node2 -->
<g id="node2" class="node">
<title>Node2</title>
<g id="a_node2"><a xlink:href="classCOMM_1_1List.html#a6ba0cb3afda3ce09363b58fffcb4eff9" target="_top" xlink:title="remove a list of member based on an index list">
<polygon fill="white" stroke="black" points="0,-0.5 0,-30.5 127,-30.5 127,-0.5 0,-0.5"/>
<text text-anchor="start" x="8" y="-18.5" font-family="FreeSans" font-size="10.00">COMM::List&lt; H4::Particle</text>
<text text-anchor="middle" x="63.5" y="-7.5" font-family="FreeSans" font-size="10.00">H4 &gt;::removeMemberList</text>
</a>
</g>
</g>
<!-- Node1&#45;&gt;Node2 -->
<g id="edge1" class="edge">
<title>Node1&#45;&gt;Node2</title>
<path fill="none" stroke="midnightblue" d="M152.43,-15.5C143.98,-15.5 135.46,-15.5 127.22,-15.5"/>
<polygon fill="midnightblue" stroke="midnightblue" points="152.68,-19 162.68,-15.5 152.68,-12 152.68,-19"/>
</g>
</g>
</svg>
