<?xml version="1.0" encoding="UTF-8" standalone="no"?>
<!DOCTYPE svg PUBLIC "-//W3C//DTD SVG 1.1//EN"
 "http://www.w3.org/Graphics/SVG/1.1/DTD/svg11.dtd">
<!-- Generated by graphviz version 2.38.0 (20140413.2041)
 -->
<!-- Title: COMM::BinaryTree&lt; Tptcl &gt; Pages: 1 -->
<svg width="190pt" height="152pt"
 viewBox="0.00 0.00 190.00 152.00" xmlns="http://www.w3.org/2000/svg" xmlns:xlink="http://www.w3.org/1999/xlink">
<g id="graph0" class="graph" transform="scale(1 1) rotate(0) translate(4 148)">
<title>COMM::BinaryTree&lt; Tptcl &gt;</title>
<polygon fill="white" stroke="none" points="-4,4 -4,-148 186,-148 186,4 -4,4"/>
<!-- Node1 -->
<g id="node1" class="node"><title>Node1</title>
<polygon fill="#bfbfbf" stroke="black" points="0,-0.5 0,-19.5 137,-19.5 137,-0.5 0,-0.5"/>
<text text-anchor="middle" x="68.5" y="-7.5" font-family="FreeSans" font-size="10.00">COMM::BinaryTree&lt; Tptcl &gt;</text>
</g>
<!-- Node2 -->
<g id="node2" class="node"><title>Node2</title>
<polygon fill="white" stroke="#bfbfbf" points="24.5,-57.5 24.5,-76.5 62.5,-76.5 62.5,-57.5 24.5,-57.5"/>
<text text-anchor="middle" x="43.5" y="-64.5" font-family="FreeSans" font-size="10.00">Tptcl</text>
</g>
<!-- Node2&#45;&gt;Node1 -->
<g id="edge1" class="edge"><title>Node2&#45;&gt;Node1</title>
<path fill="none" stroke="midnightblue" d="M51.6676,-48.0314C55.9861,-38.5306 61.092,-27.2977 64.5387,-19.7149"/>
<polygon fill="midnightblue" stroke="midnightblue" points="48.3581,-46.8542 47.4062,-57.4062 54.7306,-49.7509 48.3581,-46.8542"/>
</g>
<!-- Node3 -->
<g id="node3" class="node"><title>Node3</title>
<g id="a_node3"><a xlink:href="classCOMM_1_1Binary.html" target="_top" xlink:title="Binary parameter class. ">
<polygon fill="white" stroke="black" points="81,-57.5 81,-76.5 160,-76.5 160,-57.5 81,-57.5"/>
<text text-anchor="middle" x="120.5" y="-64.5" font-family="FreeSans" font-size="10.00">COMM::Binary</text>
</a>
</g>
</g>
<!-- Node3&#45;&gt;Node1 -->
<g id="edge2" class="edge"><title>Node3&#45;&gt;Node1</title>
<path fill="none" stroke="midnightblue" d="M105.489,-50.1229C96.1298,-40.2238 84.4426,-27.8624 76.7396,-19.7149"/>
<polygon fill="midnightblue" stroke="midnightblue" points="102.962,-52.5443 112.375,-57.4062 108.048,-47.7352 102.962,-52.5443"/>
</g>
<!-- Node4 -->
<g id="node4" class="node"><title>Node4</title>
<g id="a_node4"><a xlink:href="classCOMM_1_1Vector3.html" target="_top" xlink:title="COMM::Vector3\&lt; Float \&gt;">
<polygon fill="white" stroke="black" points="59,-124.5 59,-143.5 182,-143.5 182,-124.5 59,-124.5"/>
<text text-anchor="middle" x="120.5" y="-131.5" font-family="FreeSans" font-size="10.00">COMM::Vector3&lt; Float &gt;</text>
</a>
</g>
</g>
<!-- Node4&#45;&gt;Node3 -->
<g id="edge3" class="edge"><title>Node4&#45;&gt;Node3</title>
<path fill="none" stroke="#9a32cd" stroke-dasharray="5,2" d="M120.5,-114.037C120.5,-101.67 120.5,-86.1198 120.5,-76.6273"/>
<polygon fill="#9a32cd" stroke="#9a32cd" points="117,-114.234 120.5,-124.234 124,-114.234 117,-114.234"/>
<text text-anchor="middle" x="128.5" y="-98" font-family="FreeSans" font-size="10.00"> am</text>
</g>
</g>
</svg>
