<?xml version="1.0" encoding="UTF-8" standalone="no"?>
<!DOCTYPE svg PUBLIC "-//W3C//DTD SVG 1.1//EN"
 "http://www.w3.org/Graphics/SVG/1.1/DTD/svg11.dtd">
<!-- Generated by graphviz version 2.43.0 (0)
 -->
<!-- Title: H4::ARInformation&lt; Tparticle &gt; Pages: 1 -->
<svg width="264pt" height="330pt"
 viewBox="0.00 0.00 263.50 330.00" xmlns="http://www.w3.org/2000/svg" xmlns:xlink="http://www.w3.org/1999/xlink">
<g id="graph0" class="graph" transform="scale(1 1) rotate(0) translate(4 326)">
<title>H4::ARInformation&lt; Tparticle &gt;</title>
<polygon fill="white" stroke="transparent" points="-4,4 -4,-326 259.5,-326 259.5,4 -4,4"/>
<!-- Node1 -->
<g id="node1" class="node">
<title>Node1</title>
<g id="a_node1"><a xlink:title="contain group information">
<polygon fill="#bfbfbf" stroke="black" points="91,-0.5 91,-30.5 193,-30.5 193,-0.5 91,-0.5"/>
<text text-anchor="start" x="99" y="-18.5" font-family="FreeSans" font-size="10.00">H4::ARInformation&lt;</text>
<text text-anchor="middle" x="142" y="-7.5" font-family="FreeSans" font-size="10.00"> Tparticle &gt;</text>
</a>
</g>
</g>
<!-- Node2 -->
<g id="node2" class="node">
<title>Node2</title>
<g id="a_node2"><a xlink:href="classAR_1_1Information.html" target="_top" xlink:title=" ">
<polygon fill="white" stroke="black" points="10,-78.5 10,-108.5 142,-108.5 142,-78.5 10,-78.5"/>
<text text-anchor="start" x="18" y="-96.5" font-family="FreeSans" font-size="10.00">AR::Information&lt; Tparticle,</text>
<text text-anchor="middle" x="76" y="-85.5" font-family="FreeSans" font-size="10.00"> ParticleH4&lt; Tparticle &gt; &gt;</text>
</a>
</g>
</g>
<!-- Node2&#45;&gt;Node1 -->
<g id="edge1" class="edge">
<title>Node2&#45;&gt;Node1</title>
<path fill="none" stroke="midnightblue" d="M95.27,-70.31C106.37,-57.53 119.98,-41.86 129.64,-30.73"/>
<polygon fill="midnightblue" stroke="midnightblue" points="92.33,-68.36 88.41,-78.2 97.61,-72.95 92.33,-68.36"/>
</g>
<!-- Node3 -->
<g id="node3" class="node">
<title>Node3</title>
<g id="a_node3"><a xlink:href="classCOMM_1_1List.html" target="_top" xlink:title=" ">
<polygon fill="white" stroke="black" points="6.5,-156.5 6.5,-186.5 145.5,-186.5 145.5,-156.5 6.5,-156.5"/>
<text text-anchor="start" x="14.5" y="-174.5" font-family="FreeSans" font-size="10.00">COMM::List&lt; COMM::Binary</text>
<text text-anchor="middle" x="76" y="-163.5" font-family="FreeSans" font-size="10.00">Tree&lt; Tparticle &gt; &gt;</text>
</a>
</g>
</g>
<!-- Node3&#45;&gt;Node2 -->
<g id="edge2" class="edge">
<title>Node3&#45;&gt;Node2</title>
<path fill="none" stroke="#9a32cd" stroke-dasharray="5,2" d="M76,-146.09C76,-133.76 76,-119.22 76,-108.73"/>
<polygon fill="#9a32cd" stroke="#9a32cd" points="72.5,-146.2 76,-156.2 79.5,-146.21 72.5,-146.2"/>
<text text-anchor="middle" x="98.5" y="-130" font-family="FreeSans" font-size="10.00"> binarytree</text>
</g>
<!-- Node4 -->
<g id="node4" class="node">
<title>Node4</title>
<g id="a_node4"><a xlink:href="classCOMM_1_1BinaryTree.html" target="_top" xlink:title=" ">
<polygon fill="white" stroke="black" points="0,-245.5 0,-264.5 152,-264.5 152,-245.5 0,-245.5"/>
<text text-anchor="middle" x="76" y="-252.5" font-family="FreeSans" font-size="10.00">COMM::BinaryTree&lt; Tparticle &gt;</text>
</a>
</g>
</g>
<!-- Node4&#45;&gt;Node3 -->
<g id="edge3" class="edge">
<title>Node4&#45;&gt;Node3</title>
<path fill="none" stroke="#9a32cd" stroke-dasharray="5,2" d="M76,-235.23C76,-220.41 76,-200.05 76,-186.6"/>
<polygon fill="#9a32cd" stroke="#9a32cd" points="72.5,-235.28 76,-245.28 79.5,-235.28 72.5,-235.28"/>
<text text-anchor="middle" x="88.5" y="-219" font-family="FreeSans" font-size="10.00"> adr_</text>
<text text-anchor="middle" x="88.5" y="-208" font-family="FreeSans" font-size="10.00">data_</text>
</g>
<!-- Node5 -->
<g id="node5" class="node">
<title>Node5</title>
<g id="a_node5"><a xlink:title=" ">
<polygon fill="white" stroke="#bfbfbf" points="15,-302.5 15,-321.5 69,-321.5 69,-302.5 15,-302.5"/>
<text text-anchor="middle" x="42" y="-309.5" font-family="FreeSans" font-size="10.00">Tparticle</text>
</a>
</g>
</g>
<!-- Node5&#45;&gt;Node4 -->
<g id="edge4" class="edge">
<title>Node5&#45;&gt;Node4</title>
<path fill="none" stroke="midnightblue" d="M52.73,-293.64C58.68,-284.01 65.83,-272.46 70.61,-264.71"/>
<polygon fill="midnightblue" stroke="midnightblue" points="49.59,-292.06 47.31,-302.41 55.55,-295.74 49.59,-292.06"/>
</g>
<!-- Node6 -->
<g id="node6" class="node">
<title>Node6</title>
<g id="a_node6"><a xlink:title=" ">
<polygon fill="white" stroke="#bfbfbf" points="87,-302.5 87,-321.5 135,-321.5 135,-302.5 87,-302.5"/>
<text text-anchor="middle" x="111" y="-309.5" font-family="FreeSans" font-size="10.00">Tbinary</text>
</a>
</g>
</g>
<!-- Node6&#45;&gt;Node4 -->
<g id="edge5" class="edge">
<title>Node6&#45;&gt;Node4</title>
<path fill="none" stroke="midnightblue" d="M100.14,-293.94C93.98,-284.25 86.53,-272.54 81.55,-264.71"/>
<polygon fill="midnightblue" stroke="midnightblue" points="97.21,-295.85 105.53,-302.41 103.12,-292.09 97.21,-295.85"/>
</g>
<!-- Node7 -->
<g id="node7" class="node">
<title>Node7</title>
<g id="a_node7"><a xlink:href="classCOMM_1_1List.html" target="_top" xlink:title=" ">
<polygon fill="white" stroke="black" points="160.5,-84 160.5,-103 255.5,-103 255.5,-84 160.5,-84"/>
<text text-anchor="middle" x="208" y="-91" font-family="FreeSans" font-size="10.00">COMM::List&lt; int &gt;</text>
</a>
</g>
</g>
<!-- Node7&#45;&gt;Node1 -->
<g id="edge6" class="edge">
<title>Node7&#45;&gt;Node1</title>
<path fill="none" stroke="#9a32cd" stroke-dasharray="5,2" d="M193.79,-76.14C181.99,-62.55 165.38,-43.42 154.18,-30.52"/>
<polygon fill="#9a32cd" stroke="#9a32cd" points="191.23,-78.53 200.43,-83.78 196.51,-73.94 191.23,-78.53"/>
<text text-anchor="middle" x="209" y="-52" font-family="FreeSans" font-size="10.00"> particle_index</text>
</g>
</g>
</svg>
