<?xml version="1.0" encoding="UTF-8" standalone="no"?>
<!DOCTYPE svg PUBLIC "-//W3C//DTD SVG 1.1//EN"
 "http://www.w3.org/Graphics/SVG/1.1/DTD/svg11.dtd">
<!-- Generated by graphviz version 2.38.0 (20140413.2041)
 -->
<!-- Title: H4::HermiteManager&lt; Tmethod &gt; Pages: 1 -->
<svg width="121pt" height="163pt"
 viewBox="0.00 0.00 121.00 163.00" xmlns="http://www.w3.org/2000/svg" xmlns:xlink="http://www.w3.org/1999/xlink">
<g id="graph0" class="graph" transform="scale(1 1) rotate(0) translate(4 159)">
<title>H4::HermiteManager&lt; Tmethod &gt;</title>
<polygon fill="white" stroke="none" points="-4,4 -4,-159 117,-159 117,4 -4,4"/>
<!-- Node1 -->
<g id="node1" class="node"><title>Node1</title>
<polygon fill="#bfbfbf" stroke="black" points="4.5,-0.5 4.5,-30.5 108.5,-30.5 108.5,-0.5 4.5,-0.5"/>
<text text-anchor="start" x="12.5" y="-18.5" font-family="FreeSans" font-size="10.00">H4::HermiteManager</text>
<text text-anchor="middle" x="56.5" y="-7.5" font-family="FreeSans" font-size="10.00">&lt; Tmethod &gt;</text>
</g>
<!-- Node2 -->
<g id="node2" class="node"><title>Node2</title>
<g id="a_node2"><a xlink:href="classH4_1_1BlockTimeStep4th.html" target="_top" xlink:title="H4::BlockTimeStep4th">
<polygon fill="white" stroke="black" points="0,-78.5 0,-97.5 113,-97.5 113,-78.5 0,-78.5"/>
<text text-anchor="middle" x="56.5" y="-85.5" font-family="FreeSans" font-size="10.00">H4::BlockTimeStep4th</text>
</a>
</g>
</g>
<!-- Node2&#45;&gt;Node1 -->
<g id="edge1" class="edge"><title>Node2&#45;&gt;Node1</title>
<path fill="none" stroke="#9a32cd" stroke-dasharray="5,2" d="M56.5,-68.2362C56.5,-56.4079 56.5,-41.3829 56.5,-30.5762"/>
<polygon fill="#9a32cd" stroke="#9a32cd" points="53.0001,-68.3553 56.5,-78.3553 60.0001,-68.3554 53.0001,-68.3553"/>
<text text-anchor="middle" x="67" y="-52" font-family="FreeSans" font-size="10.00"> step</text>
</g>
<!-- Node3 -->
<g id="node3" class="node"><title>Node3</title>
<g id="a_node3"><a xlink:href="classH4_1_1TimeStep4th.html" target="_top" xlink:title="H4::TimeStep4th">
<polygon fill="white" stroke="black" points="12,-135.5 12,-154.5 101,-154.5 101,-135.5 12,-135.5"/>
<text text-anchor="middle" x="56.5" y="-142.5" font-family="FreeSans" font-size="10.00">H4::TimeStep4th</text>
</a>
</g>
</g>
<!-- Node3&#45;&gt;Node2 -->
<g id="edge2" class="edge"><title>Node3&#45;&gt;Node2</title>
<path fill="none" stroke="midnightblue" d="M56.5,-125.117C56.5,-115.817 56.5,-105.056 56.5,-97.7149"/>
<polygon fill="midnightblue" stroke="midnightblue" points="53.0001,-125.406 56.5,-135.406 60.0001,-125.406 53.0001,-125.406"/>
</g>
</g>
</svg>
