<?xml version="1.0" encoding="UTF-8" standalone="no"?>
<!DOCTYPE svg PUBLIC "-//W3C//DTD SVG 1.1//EN"
 "http://www.w3.org/Graphics/SVG/1.1/DTD/svg11.dtd">
<!-- Generated by graphviz version 2.38.0 (20140413.2041)
 -->
<!-- Title: AR::TimeTransformedSymplecticIntegrator::printColumnTitle Pages: 1 -->
<svg width="338pt" height="137pt"
 viewBox="0.00 0.00 338.00 137.00" xmlns="http://www.w3.org/2000/svg" xmlns:xlink="http://www.w3.org/1999/xlink">
<g id="graph0" class="graph" transform="scale(1 1) rotate(0) translate(4 133)">
<title>AR::TimeTransformedSymplecticIntegrator::printColumnTitle</title>
<polygon fill="white" stroke="none" points="-4,4 -4,-133 334,-133 334,4 -4,4"/>
<!-- Node1 -->
<g id="node1" class="node"><title>Node1</title>
<polygon fill="#bfbfbf" stroke="black" points="0,-49.5 0,-79.5 158,-79.5 158,-49.5 0,-49.5"/>
<text text-anchor="start" x="8" y="-67.5" font-family="FreeSans" font-size="10.00">AR::TimeTransformedSymplectic</text>
<text text-anchor="middle" x="79" y="-56.5" font-family="FreeSans" font-size="10.00">Integrator::printColumnTitle</text>
</g>
<!-- Node2 -->
<g id="node2" class="node"><title>Node2</title>
<g id="a_node2"><a xlink:href="classAR_1_1SlowDown.html#aa871b6ffb269568fa6108c547234f09f" target="_top" xlink:title="print titles of class members using column style ">
<polygon fill="white" stroke="black" points="194,-98.5 194,-128.5 330,-128.5 330,-98.5 194,-98.5"/>
<text text-anchor="start" x="202" y="-116.5" font-family="FreeSans" font-size="10.00">AR::SlowDown::printColumn</text>
<text text-anchor="middle" x="262" y="-105.5" font-family="FreeSans" font-size="10.00">Title</text>
</a>
</g>
</g>
<!-- Node1&#45;&gt;Node2 -->
<g id="edge1" class="edge"><title>Node1&#45;&gt;Node2</title>
<path fill="none" stroke="midnightblue" d="M135.783,-79.6014C154.71,-84.7253 176.025,-90.4956 195.63,-95.8032"/>
<polygon fill="midnightblue" stroke="midnightblue" points="194.834,-99.2136 205.401,-98.4484 196.663,-92.4568 194.834,-99.2136"/>
</g>
<!-- Node3 -->
<g id="node3" class="node"><title>Node3</title>
<g id="a_node3"><a xlink:href="classAR_1_1Profile.html#a1b5aebbb911d06727642ccf97eca9c31" target="_top" xlink:title="print titles of class members using column style ">
<polygon fill="white" stroke="black" points="203,-49.5 203,-79.5 321,-79.5 321,-49.5 203,-49.5"/>
<text text-anchor="start" x="211" y="-67.5" font-family="FreeSans" font-size="10.00">AR::Profile::printColumn</text>
<text text-anchor="middle" x="262" y="-56.5" font-family="FreeSans" font-size="10.00">Title</text>
</a>
</g>
</g>
<!-- Node1&#45;&gt;Node3 -->
<g id="edge2" class="edge"><title>Node1&#45;&gt;Node3</title>
<path fill="none" stroke="midnightblue" d="M158.074,-64.5C169.574,-64.5 181.348,-64.5 192.633,-64.5"/>
<polygon fill="midnightblue" stroke="midnightblue" points="192.837,-68.0001 202.837,-64.5 192.837,-61.0001 192.837,-68.0001"/>
</g>
<!-- Node4 -->
<g id="node4" class="node"><title>Node4</title>
<g id="a_node4"><a xlink:href="classCOMM_1_1ParticleGroup.html#a2d92a2c26818cf9820ea13026091fb81" target="_top" xlink:title="print titles of class members using column style ">
<polygon fill="white" stroke="black" points="206.5,-0.5 206.5,-30.5 317.5,-30.5 317.5,-0.5 206.5,-0.5"/>
<text text-anchor="start" x="214.5" y="-18.5" font-family="FreeSans" font-size="10.00">COMM::ParticleGroup</text>
<text text-anchor="middle" x="262" y="-7.5" font-family="FreeSans" font-size="10.00">::printColumnTitle</text>
</a>
</g>
</g>
<!-- Node1&#45;&gt;Node4 -->
<g id="edge3" class="edge"><title>Node1&#45;&gt;Node4</title>
<path fill="none" stroke="midnightblue" d="M135.783,-49.3986C154.976,-44.2025 176.625,-38.3417 196.458,-32.9728"/>
<polygon fill="midnightblue" stroke="midnightblue" points="197.595,-36.2908 206.333,-30.2992 195.766,-29.534 197.595,-36.2908"/>
</g>
</g>
</svg>
