<?xml version="1.0" encoding="UTF-8" standalone="no"?>
<!DOCTYPE svg PUBLIC "-//W3C//DTD SVG 1.1//EN"
 "http://www.w3.org/Graphics/SVG/1.1/DTD/svg11.dtd">
<!-- Generated by graphviz version 2.43.0 (0)
 -->
<!-- Title: H4::HermiteIntegrator::reserveIntegratorMem Pages: 1 -->
<svg width="287pt" height="66pt"
 viewBox="0.00 0.00 287.00 66.00" xmlns="http://www.w3.org/2000/svg" xmlns:xlink="http://www.w3.org/1999/xlink">
<g id="graph0" class="graph" transform="scale(1 1) rotate(0) translate(4 62)">
<title>H4::HermiteIntegrator::reserveIntegratorMem</title>
<polygon fill="white" stroke="transparent" points="-4,4 -4,-62 283,-62 283,4 -4,4"/>
<!-- Node1 -->
<g id="node1" class="node">
<title>Node1</title>
<g id="a_node1"><a xlink:title="reserve memory for system">
<polygon fill="#bfbfbf" stroke="black" points="0,-14 0,-44 116,-44 116,-14 0,-14"/>
<text text-anchor="start" x="8" y="-32" font-family="FreeSans" font-size="10.00">H4::HermiteIntegrator</text>
<text text-anchor="middle" x="58" y="-21" font-family="FreeSans" font-size="10.00">::reserveIntegratorMem</text>
</a>
</g>
</g>
<!-- Node2 -->
<g id="node2" class="node">
<title>Node2</title>
<g id="a_node2"><a xlink:href="classCOMM_1_1List.html#a7f125554959409d40217deb7402c0de9" target="_top" xlink:title="Memory allocation for storing members.">
<polygon fill="white" stroke="black" points="152,-38.5 152,-57.5 279,-57.5 279,-38.5 152,-38.5"/>
<text text-anchor="middle" x="215.5" y="-45.5" font-family="FreeSans" font-size="10.00">COMM::List::reserveMem</text>
</a>
</g>
</g>
<!-- Node1&#45;&gt;Node2 -->
<g id="edge1" class="edge">
<title>Node1&#45;&gt;Node2</title>
<path fill="none" stroke="midnightblue" d="M116.02,-35.97C124.43,-36.99 133.19,-38.06 141.86,-39.12"/>
<polygon fill="midnightblue" stroke="midnightblue" points="141.63,-42.62 151.98,-40.36 142.48,-35.67 141.63,-42.62"/>
</g>
<!-- Node3 -->
<g id="node3" class="node">
<title>Node3</title>
<g id="a_node3"><a xlink:href="classCOMM_1_1List.html#a10c70f9a45d06c2589898cbaf1e4fbf8" target="_top" xlink:title="set mode">
<polygon fill="white" stroke="black" points="160.5,-0.5 160.5,-19.5 270.5,-19.5 270.5,-0.5 160.5,-0.5"/>
<text text-anchor="middle" x="215.5" y="-7.5" font-family="FreeSans" font-size="10.00">COMM::List::setMode</text>
</a>
</g>
</g>
<!-- Node1&#45;&gt;Node3 -->
<g id="edge2" class="edge">
<title>Node1&#45;&gt;Node3</title>
<path fill="none" stroke="midnightblue" d="M116.02,-22.03C127.1,-20.68 138.79,-19.25 150.09,-17.87"/>
<polygon fill="midnightblue" stroke="midnightblue" points="150.83,-21.31 160.33,-16.62 149.98,-14.36 150.83,-21.31"/>
</g>
</g>
</svg>
