<?xml version="1.0" encoding="UTF-8" standalone="no"?>
<!DOCTYPE svg PUBLIC "-//W3C//DTD SVG 1.1//EN"
 "http://www.w3.org/Graphics/SVG/1.1/DTD/svg11.dtd">
<!-- Generated by graphviz version 2.38.0 (20140413.2041)
 -->
<!-- Title: AR::SlowDown::increaseUpdateTimeOnePeriod Pages: 1 -->
<svg width="380pt" height="50pt"
 viewBox="0.00 0.00 380.00 50.00" xmlns="http://www.w3.org/2000/svg" xmlns:xlink="http://www.w3.org/1999/xlink">
<g id="graph0" class="graph" transform="scale(1 1) rotate(0) translate(4 46)">
<title>AR::SlowDown::increaseUpdateTimeOnePeriod</title>
<polygon fill="white" stroke="none" points="-4,4 -4,-46 376,-46 376,4 -4,4"/>
<!-- Node1 -->
<g id="node1" class="node"><title>Node1</title>
<polygon fill="#bfbfbf" stroke="black" points="0,-6 0,-36 151,-36 151,-6 0,-6"/>
<text text-anchor="start" x="8" y="-24" font-family="FreeSans" font-size="10.00">AR::SlowDown::increaseUpdate</text>
<text text-anchor="middle" x="75.5" y="-13" font-family="FreeSans" font-size="10.00">TimeOnePeriod</text>
</g>
<!-- Node2 -->
<g id="node2" class="node"><title>Node2</title>
<g id="a_node2"><a xlink:href="classAR_1_1TimeTransformedSymplecticIntegrator.html#aef58e7b1ec25846a506b9b0281522a1f" target="_top" xlink:title="update slowdown factor based on perturbation and record slowdown energy change ">
<polygon fill="white" stroke="black" points="187,-0.5 187,-41.5 372,-41.5 372,-0.5 187,-0.5"/>
<text text-anchor="start" x="195" y="-29.5" font-family="FreeSans" font-size="10.00">AR::TimeTransformedSymplectic</text>
<text text-anchor="start" x="195" y="-18.5" font-family="FreeSans" font-size="10.00">Integrator::updateSlowDownAndCorrect</text>
<text text-anchor="middle" x="279.5" y="-7.5" font-family="FreeSans" font-size="10.00">Energy</text>
</a>
</g>
</g>
<!-- Node1&#45;&gt;Node2 -->
<g id="edge1" class="edge"><title>Node1&#45;&gt;Node2</title>
<path fill="none" stroke="midnightblue" d="M161.29,-21C169.684,-21 178.232,-21 186.693,-21"/>
<polygon fill="midnightblue" stroke="midnightblue" points="161.143,-17.5001 151.143,-21 161.143,-24.5001 161.143,-17.5001"/>
</g>
</g>
</svg>
