<?xml version="1.0" encoding="UTF-8" standalone="no"?>
<!DOCTYPE svg PUBLIC "-//W3C//DTD SVG 1.1//EN"
 "http://www.w3.org/Graphics/SVG/1.1/DTD/svg11.dtd">
<!-- Generated by graphviz version 2.43.0 (0)
 -->
<!-- Title: H4::Neighbor::clearNoFreeMemNoResizeNeighborAdress Pages: 1 -->
<svg width="346pt" height="66pt"
 viewBox="0.00 0.00 346.00 66.00" xmlns="http://www.w3.org/2000/svg" xmlns:xlink="http://www.w3.org/1999/xlink">
<g id="graph0" class="graph" transform="scale(1 1) rotate(0) translate(4 62)">
<title>H4::Neighbor::clearNoFreeMemNoResizeNeighborAdress</title>
<polygon fill="white" stroke="transparent" points="-4,4 -4,-62 342,-62 342,4 -4,4"/>
<!-- Node1 -->
<g id="node1" class="node">
<title>Node1</title>
<g id="a_node1"><a xlink:title="clear function">
<polygon fill="#bfbfbf" stroke="black" points="188,-14 188,-44 338,-44 338,-14 188,-14"/>
<text text-anchor="start" x="196" y="-32" font-family="FreeSans" font-size="10.00">H4::Neighbor::clearNoFree</text>
<text text-anchor="middle" x="263" y="-21" font-family="FreeSans" font-size="10.00">MemNoResizeNeighborAdress</text>
</a>
</g>
</g>
<!-- Node2 -->
<g id="node2" class="node">
<title>Node2</title>
<g id="a_node2"><a xlink:href="classH4_1_1Neighbor.html#a8b785d84927d544959711bcde3f6c668" target="_top" xlink:title="clear function">
<polygon fill="white" stroke="black" points="27,-38.5 27,-57.5 125,-57.5 125,-38.5 27,-38.5"/>
<text text-anchor="middle" x="76" y="-45.5" font-family="FreeSans" font-size="10.00">H4::Neighbor::clear</text>
</a>
</g>
</g>
<!-- Node1&#45;&gt;Node2 -->
<g id="edge1" class="edge">
<title>Node1&#45;&gt;Node2</title>
<path fill="none" stroke="midnightblue" d="M177.84,-37.64C159.78,-39.5 141.29,-41.4 125.15,-43.05"/>
<polygon fill="midnightblue" stroke="midnightblue" points="178.23,-41.12 187.82,-36.62 177.51,-34.16 178.23,-41.12"/>
</g>
<!-- Node3 -->
<g id="node3" class="node">
<title>Node3</title>
<g id="a_node3"><a xlink:href="classH4_1_1Neighbor.html#adb50a3684215fd3b4951fe6ccf4dc8c7" target="_top" xlink:title="clear no release memory">
<polygon fill="white" stroke="black" points="0,-0.5 0,-19.5 152,-19.5 152,-0.5 0,-0.5"/>
<text text-anchor="middle" x="76" y="-7.5" font-family="FreeSans" font-size="10.00">H4::Neighbor::clearNoFreeMem</text>
</a>
</g>
</g>
<!-- Node1&#45;&gt;Node3 -->
<g id="edge2" class="edge">
<title>Node1&#45;&gt;Node3</title>
<path fill="none" stroke="midnightblue" d="M177.82,-20.35C169.24,-19.47 160.57,-18.58 152.1,-17.71"/>
<polygon fill="midnightblue" stroke="midnightblue" points="177.51,-23.84 187.82,-21.38 178.23,-16.88 177.51,-23.84"/>
</g>
</g>
</svg>
