<?xml version="1.0" encoding="UTF-8" standalone="no"?>
<!DOCTYPE svg PUBLIC "-//W3C//DTD SVG 1.1//EN"
 "http://www.w3.org/Graphics/SVG/1.1/DTD/svg11.dtd">
<!-- Generated by graphviz version 2.38.0 (20140413.2041)
 -->
<!-- Title: COMM::Matrix3::rotation Pages: 1 -->
<svg width="507pt" height="66pt"
 viewBox="0.00 0.00 507.00 66.00" xmlns="http://www.w3.org/2000/svg" xmlns:xlink="http://www.w3.org/1999/xlink">
<g id="graph0" class="graph" transform="scale(1 1) rotate(0) translate(4 62)">
<title>COMM::Matrix3::rotation</title>
<polygon fill="white" stroke="none" points="-4,4 -4,-62 503,-62 503,4 -4,4"/>
<!-- Node1 -->
<g id="node1" class="node"><title>Node1</title>
<polygon fill="#bfbfbf" stroke="black" points="0,-19.5 0,-38.5 120,-38.5 120,-19.5 0,-19.5"/>
<text text-anchor="middle" x="60" y="-26.5" font-family="FreeSans" font-size="10.00">COMM::Matrix3::rotation</text>
</g>
<!-- Node2 -->
<g id="node2" class="node"><title>Node2</title>
<g id="a_node2"><a xlink:href="classCOMM_1_1Binary.html#ad34e7d44a73fecd129d4178465d21d5a" target="_top" xlink:title="Orbit to position and velocity. ">
<polygon fill="white" stroke="black" points="156,-19.5 156,-38.5 302,-38.5 302,-19.5 156,-19.5"/>
<text text-anchor="middle" x="229" y="-26.5" font-family="FreeSans" font-size="10.00">COMM::Binary::orbitToParticle</text>
</a>
</g>
</g>
<!-- Node1&#45;&gt;Node2 -->
<g id="edge1" class="edge"><title>Node1&#45;&gt;Node2</title>
<path fill="none" stroke="midnightblue" d="M130.493,-29C138.908,-29 147.52,-29 155.971,-29"/>
<polygon fill="midnightblue" stroke="midnightblue" points="130.348,-25.5001 120.348,-29 130.348,-32.5001 130.348,-25.5001"/>
</g>
<!-- Node3 -->
<g id="node3" class="node"><title>Node3</title>
<g id="a_node3"><a xlink:href="classCOMM_1_1Binary.html#a3b9864bdad2ae38b335514c786a3d04a" target="_top" xlink:title="calculate two components from kepler Orbit ">
<polygon fill="white" stroke="black" points="349,-38.5 349,-57.5 488,-57.5 488,-38.5 349,-38.5"/>
<text text-anchor="middle" x="418.5" y="-45.5" font-family="FreeSans" font-size="10.00">COMM::Binary::calcParticles</text>
</a>
</g>
</g>
<!-- Node2&#45;&gt;Node3 -->
<g id="edge2" class="edge"><title>Node2&#45;&gt;Node3</title>
<path fill="none" stroke="midnightblue" d="M312.341,-37.3439C324.48,-38.5739 336.877,-39.8302 348.703,-41.0286"/>
<polygon fill="midnightblue" stroke="midnightblue" points="312.526,-33.8448 302.224,-36.3187 311.82,-40.8091 312.526,-33.8448"/>
</g>
<!-- Node4 -->
<g id="node4" class="node"><title>Node4</title>
<g id="a_node4"><a xlink:href="classCOMM_1_1Binary.html#aec312d069f58972cc73c7a8ca77d3e5a" target="_top" xlink:title="calculate two components from kepler Orbit with input eccentricity anomaly ">
<polygon fill="white" stroke="black" points="338,-0.5 338,-19.5 499,-19.5 499,-0.5 338,-0.5"/>
<text text-anchor="middle" x="418.5" y="-7.5" font-family="FreeSans" font-size="10.00">COMM::Binary::calcParticlesEcca</text>
</a>
</g>
</g>
<!-- Node2&#45;&gt;Node4 -->
<g id="edge3" class="edge"><title>Node2&#45;&gt;Node4</title>
<path fill="none" stroke="midnightblue" d="M312.432,-20.6469C320.867,-19.7922 329.426,-18.9249 337.83,-18.0733"/>
<polygon fill="midnightblue" stroke="midnightblue" points="311.82,-17.1909 302.224,-21.6813 312.526,-24.1552 311.82,-17.1909"/>
</g>
</g>
</svg>
