<?xml version="1.0" encoding="UTF-8" standalone="no"?>
<!DOCTYPE svg PUBLIC "-//W3C//DTD SVG 1.1//EN"
 "http://www.w3.org/Graphics/SVG/1.1/DTD/svg11.dtd">
<!-- Generated by graphviz version 2.38.0 (20140413.2041)
 -->
<!-- Title: H4::TimeStep4th::print Pages: 1 -->
<svg width="409pt" height="39pt"
 viewBox="0.00 0.00 409.00 39.00" xmlns="http://www.w3.org/2000/svg" xmlns:xlink="http://www.w3.org/1999/xlink">
<g id="graph0" class="graph" transform="scale(1 1) rotate(0) translate(4 35)">
<title>H4::TimeStep4th::print</title>
<polygon fill="white" stroke="none" points="-4,4 -4,-35 405,-35 405,4 -4,4"/>
<!-- Node1 -->
<g id="node1" class="node"><title>Node1</title>
<polygon fill="#bfbfbf" stroke="black" points="0,-6 0,-25 112,-25 112,-6 0,-6"/>
<text text-anchor="middle" x="56" y="-13" font-family="FreeSans" font-size="10.00">H4::TimeStep4th::print</text>
</g>
<!-- Node2 -->
<g id="node2" class="node"><title>Node2</title>
<g id="a_node2"><a xlink:href="classH4_1_1BlockTimeStep4th.html#af88c475ec4a35295f8437edc0740186a" target="_top" xlink:title="H4::BlockTimeStep4th\l::print">
<polygon fill="white" stroke="black" points="148,-0.5 148,-30.5 261,-30.5 261,-0.5 148,-0.5"/>
<text text-anchor="start" x="156" y="-18.5" font-family="FreeSans" font-size="10.00">H4::BlockTimeStep4th</text>
<text text-anchor="middle" x="204.5" y="-7.5" font-family="FreeSans" font-size="10.00">::print</text>
</a>
</g>
</g>
<!-- Node1&#45;&gt;Node2 -->
<g id="edge1" class="edge"><title>Node1&#45;&gt;Node2</title>
<path fill="none" stroke="midnightblue" d="M122.49,-15.5C130.855,-15.5 139.355,-15.5 147.55,-15.5"/>
<polygon fill="midnightblue" stroke="midnightblue" points="122.385,-12.0001 112.385,-15.5 122.385,-19.0001 122.385,-12.0001"/>
</g>
<!-- Node3 -->
<g id="node3" class="node"><title>Node3</title>
<g id="a_node3"><a xlink:href="classH4_1_1HermiteManager.html#ae9e15b459c416804250a698ce221283d" target="_top" xlink:title="print parameters ">
<polygon fill="white" stroke="black" points="297,-0.5 297,-30.5 401,-30.5 401,-0.5 297,-0.5"/>
<text text-anchor="start" x="305" y="-18.5" font-family="FreeSans" font-size="10.00">H4::HermiteManager</text>
<text text-anchor="middle" x="349" y="-7.5" font-family="FreeSans" font-size="10.00">&lt; Tacc &gt;::print</text>
</a>
</g>
</g>
<!-- Node2&#45;&gt;Node3 -->
<g id="edge2" class="edge"><title>Node2&#45;&gt;Node3</title>
<path fill="none" stroke="midnightblue" d="M271.005,-15.5C279.595,-15.5 288.297,-15.5 296.608,-15.5"/>
<polygon fill="midnightblue" stroke="midnightblue" points="271.002,-12.0001 261.002,-15.5 271.002,-19.0001 271.002,-12.0001"/>
</g>
</g>
</svg>
