<?xml version="1.0" encoding="UTF-8" standalone="no"?>
<!DOCTYPE svg PUBLIC "-//W3C//DTD SVG 1.1//EN"
 "http://www.w3.org/Graphics/SVG/1.1/DTD/svg11.dtd">
<!-- Generated by graphviz version 2.43.0 (0)
 -->
<!-- Title: COMM::List::increaseSizeNoInitialize Pages: 1 -->
<svg width="495pt" height="186pt"
 viewBox="0.00 0.00 495.00 186.00" xmlns="http://www.w3.org/2000/svg" xmlns:xlink="http://www.w3.org/1999/xlink">
<g id="graph0" class="graph" transform="scale(1 1) rotate(0) translate(4 182)">
<title>COMM::List::increaseSizeNoInitialize</title>
<polygon fill="white" stroke="transparent" points="-4,4 -4,-182 491,-182 491,4 -4,4"/>
<!-- Node1 -->
<g id="node1" class="node">
<title>Node1</title>
<g id="a_node1"><a xlink:title="increase size without initialization">
<polygon fill="#bfbfbf" stroke="black" points="359,-73.5 359,-103.5 487,-103.5 487,-73.5 359,-73.5"/>
<text text-anchor="start" x="367" y="-91.5" font-family="FreeSans" font-size="10.00">COMM::List::increaseSize</text>
<text text-anchor="middle" x="423" y="-80.5" font-family="FreeSans" font-size="10.00">NoInitialize</text>
</a>
</g>
</g>
<!-- Node2 -->
<g id="node2" class="node">
<title>Node2</title>
<g id="a_node2"><a xlink:href="classH4_1_1HermiteIntegrator.html#aefaac6ef510ac839a678081a80e69131" target="_top" xlink:title="add groups from lists of particle index">
<polygon fill="white" stroke="black" points="188.5,-98.5 188.5,-128.5 298.5,-128.5 298.5,-98.5 188.5,-98.5"/>
<text text-anchor="start" x="196.5" y="-116.5" font-family="FreeSans" font-size="10.00">H4::HermiteIntegrator</text>
<text text-anchor="middle" x="243.5" y="-105.5" font-family="FreeSans" font-size="10.00">::addGroups</text>
</a>
</g>
</g>
<!-- Node1&#45;&gt;Node2 -->
<g id="edge1" class="edge">
<title>Node1&#45;&gt;Node2</title>
<path fill="none" stroke="midnightblue" d="M348.61,-98.84C331.85,-101.2 314.33,-103.66 298.56,-105.89"/>
<polygon fill="midnightblue" stroke="midnightblue" points="349.51,-102.25 358.92,-97.38 348.53,-95.31 349.51,-102.25"/>
</g>
<!-- Node5 -->
<g id="node5" class="node">
<title>Node5</title>
<g id="a_node5"><a xlink:href="classH4_1_1HermiteIntegrator.html#a58a59fd478331237bafbe42b0fbe9d4b" target="_top" xlink:title="break groups">
<polygon fill="white" stroke="black" points="188.5,-147.5 188.5,-177.5 298.5,-177.5 298.5,-147.5 188.5,-147.5"/>
<text text-anchor="start" x="196.5" y="-165.5" font-family="FreeSans" font-size="10.00">H4::HermiteIntegrator</text>
<text text-anchor="middle" x="243.5" y="-154.5" font-family="FreeSans" font-size="10.00">::breakGroups</text>
</a>
</g>
</g>
<!-- Node1&#45;&gt;Node5 -->
<g id="edge4" class="edge">
<title>Node1&#45;&gt;Node5</title>
<path fill="none" stroke="midnightblue" d="M386.3,-108.39C367.77,-118.24 344.55,-129.84 323,-138.5 315.07,-141.69 306.54,-144.7 298.13,-147.45"/>
<polygon fill="midnightblue" stroke="midnightblue" points="388.11,-111.39 395.27,-103.57 384.8,-105.23 388.11,-111.39"/>
</g>
<!-- Node6 -->
<g id="node6" class="node">
<title>Node6</title>
<g id="a_node6"><a xlink:href="classAR_1_1TimeTransformedSymplecticIntegrator.html#adc635c0084f56558f2e87c86d1a80b00" target="_top" xlink:title="initialization for integration">
<polygon fill="white" stroke="black" points="164,-49.5 164,-79.5 323,-79.5 323,-49.5 164,-49.5"/>
<text text-anchor="start" x="172" y="-67.5" font-family="FreeSans" font-size="10.00">AR::TimeTransformedSymplectic</text>
<text text-anchor="middle" x="243.5" y="-56.5" font-family="FreeSans" font-size="10.00">Integrator::initialIntegration</text>
</a>
</g>
</g>
<!-- Node1&#45;&gt;Node6 -->
<g id="edge6" class="edge">
<title>Node1&#45;&gt;Node6</title>
<path fill="none" stroke="midnightblue" d="M348.76,-78.6C340.33,-77.46 331.71,-76.29 323.22,-75.14"/>
<polygon fill="midnightblue" stroke="midnightblue" points="348.54,-82.1 358.92,-79.97 349.48,-75.16 348.54,-82.1"/>
</g>
<!-- Node7 -->
<g id="node7" class="node">
<title>Node7</title>
<g id="a_node7"><a xlink:href="classH4_1_1HermiteIntegrator.html#ae588ac618961f983b7c8710b2e6a65dc" target="_top" xlink:title="Initial system array.">
<polygon fill="white" stroke="black" points="188.5,-0.5 188.5,-30.5 298.5,-30.5 298.5,-0.5 188.5,-0.5"/>
<text text-anchor="start" x="196.5" y="-18.5" font-family="FreeSans" font-size="10.00">H4::HermiteIntegrator</text>
<text text-anchor="middle" x="243.5" y="-7.5" font-family="FreeSans" font-size="10.00">::initialSystemSingle</text>
</a>
</g>
</g>
<!-- Node1&#45;&gt;Node7 -->
<g id="edge7" class="edge">
<title>Node1&#45;&gt;Node7</title>
<path fill="none" stroke="midnightblue" d="M385.47,-68.64C367.06,-59.09 344.19,-47.92 323,-39.5 315.05,-36.34 306.52,-33.35 298.11,-30.61"/>
<polygon fill="midnightblue" stroke="midnightblue" points="383.91,-71.77 394.39,-73.32 387.16,-65.57 383.91,-71.77"/>
</g>
<!-- Node3 -->
<g id="node3" class="node">
<title>Node3</title>
<g id="a_node3"><a xlink:href="classH4_1_1HermiteIntegrator.html#a4681b656dd42eae01d3d85e66ac55112" target="_top" xlink:title="adjust groups">
<polygon fill="white" stroke="black" points="9,-147.5 9,-177.5 119,-177.5 119,-147.5 9,-147.5"/>
<text text-anchor="start" x="17" y="-165.5" font-family="FreeSans" font-size="10.00">H4::HermiteIntegrator</text>
<text text-anchor="middle" x="64" y="-154.5" font-family="FreeSans" font-size="10.00">::adjustGroups</text>
</a>
</g>
</g>
<!-- Node2&#45;&gt;Node3 -->
<g id="edge2" class="edge">
<title>Node2&#45;&gt;Node3</title>
<path fill="none" stroke="midnightblue" d="M178.59,-131.14C159.13,-136.51 137.94,-142.36 119.19,-147.54"/>
<polygon fill="midnightblue" stroke="midnightblue" points="179.57,-134.5 188.28,-128.47 177.71,-127.76 179.57,-134.5"/>
</g>
<!-- Node4 -->
<g id="node4" class="node">
<title>Node4</title>
<g id="a_node4"><a xlink:href="classH4_1_1HermiteIntegrator.html#aa1916dc7e970885940bd74ed52aa222c" target="_top" xlink:title="Add group based on a configure file.">
<polygon fill="white" stroke="black" points="0,-98.5 0,-128.5 128,-128.5 128,-98.5 0,-98.5"/>
<text text-anchor="start" x="8" y="-116.5" font-family="FreeSans" font-size="10.00">H4::HermiteIntegrator</text>
<text text-anchor="middle" x="64" y="-105.5" font-family="FreeSans" font-size="10.00">::readGroupConfigureAscii</text>
</a>
</g>
</g>
<!-- Node2&#45;&gt;Node4 -->
<g id="edge3" class="edge">
<title>Node2&#45;&gt;Node4</title>
<path fill="none" stroke="midnightblue" d="M177.84,-113.5C161.67,-113.5 144.33,-113.5 128.23,-113.5"/>
<polygon fill="midnightblue" stroke="midnightblue" points="178.28,-117 188.28,-113.5 178.28,-110 178.28,-117"/>
</g>
<!-- Node5&#45;&gt;Node3 -->
<g id="edge5" class="edge">
<title>Node5&#45;&gt;Node3</title>
<path fill="none" stroke="midnightblue" d="M178.05,-162.5C158.74,-162.5 137.77,-162.5 119.19,-162.5"/>
<polygon fill="midnightblue" stroke="midnightblue" points="178.28,-166 188.28,-162.5 178.28,-159 178.28,-166"/>
</g>
</g>
</svg>
