<?xml version="1.0" encoding="UTF-8" standalone="no"?>
<!DOCTYPE svg PUBLIC "-//W3C//DTD SVG 1.1//EN"
 "http://www.w3.org/Graphics/SVG/1.1/DTD/svg11.dtd">
<!-- Generated by graphviz version 2.43.0 (0)
 -->
<!-- Title: H4::HermiteIntegrator::getNextTime Pages: 1 -->
<svg width="439pt" height="186pt"
 viewBox="0.00 0.00 439.00 186.00" xmlns="http://www.w3.org/2000/svg" xmlns:xlink="http://www.w3.org/1999/xlink">
<g id="graph0" class="graph" transform="scale(1 1) rotate(0) translate(4 182)">
<title>H4::HermiteIntegrator::getNextTime</title>
<polygon fill="white" stroke="transparent" points="-4,4 -4,-182 435,-182 435,4 -4,4"/>
<!-- Node1 -->
<g id="node1" class="node">
<title>Node1</title>
<g id="a_node1"><a xlink:title="get next time for intergration">
<polygon fill="#bfbfbf" stroke="black" points="321,-73.5 321,-103.5 431,-103.5 431,-73.5 321,-73.5"/>
<text text-anchor="start" x="329" y="-91.5" font-family="FreeSans" font-size="10.00">H4::HermiteIntegrator</text>
<text text-anchor="middle" x="376" y="-80.5" font-family="FreeSans" font-size="10.00">::getNextTime</text>
</a>
</g>
</g>
<!-- Node2 -->
<g id="node2" class="node">
<title>Node2</title>
<g id="a_node2"><a xlink:href="classH4_1_1HermiteIntegrator.html#aa2e53961f55ac16a239a07471cbe6110" target="_top" xlink:title="Check break condition.">
<polygon fill="white" stroke="black" points="160.5,-147.5 160.5,-177.5 270.5,-177.5 270.5,-147.5 160.5,-147.5"/>
<text text-anchor="start" x="168.5" y="-165.5" font-family="FreeSans" font-size="10.00">H4::HermiteIntegrator</text>
<text text-anchor="middle" x="215.5" y="-154.5" font-family="FreeSans" font-size="10.00">::checkBreak</text>
</a>
</g>
</g>
<!-- Node1&#45;&gt;Node2 -->
<g id="edge1" class="edge">
<title>Node1&#45;&gt;Node2</title>
<path fill="none" stroke="midnightblue" d="M341.56,-108.86C324.91,-118.54 304.26,-129.85 285,-138.5 277.99,-141.65 270.43,-144.66 262.98,-147.42"/>
<polygon fill="midnightblue" stroke="midnightblue" points="343.53,-111.77 350.37,-103.68 339.98,-105.73 343.53,-111.77"/>
</g>
<!-- Node4 -->
<g id="node4" class="node">
<title>Node4</title>
<g id="a_node4"><a xlink:href="classH4_1_1HermiteIntegrator.html#acaf43160d505e983bab7dff3f57150ce" target="_top" xlink:title="Integrate groups.">
<polygon fill="white" stroke="black" points="151.5,-98.5 151.5,-128.5 279.5,-128.5 279.5,-98.5 151.5,-98.5"/>
<text text-anchor="start" x="159.5" y="-116.5" font-family="FreeSans" font-size="10.00">H4::HermiteIntegrator</text>
<text text-anchor="middle" x="215.5" y="-105.5" font-family="FreeSans" font-size="10.00">::integrateGroupsOneStep</text>
</a>
</g>
</g>
<!-- Node1&#45;&gt;Node4 -->
<g id="edge3" class="edge">
<title>Node1&#45;&gt;Node4</title>
<path fill="none" stroke="midnightblue" d="M310.77,-98.63C300.5,-100.25 289.89,-101.92 279.65,-103.54"/>
<polygon fill="midnightblue" stroke="midnightblue" points="311.56,-102.05 320.9,-97.03 310.47,-95.13 311.56,-102.05"/>
</g>
<!-- Node5 -->
<g id="node5" class="node">
<title>Node5</title>
<g id="a_node5"><a xlink:href="classH4_1_1HermiteIntegrator.html#a1aaef2826d6bb2c6cc4cafef39fbfaca" target="_top" xlink:title="Integration single active particles and update steps.">
<polygon fill="white" stroke="black" points="146,-49.5 146,-79.5 285,-79.5 285,-49.5 146,-49.5"/>
<text text-anchor="start" x="154" y="-67.5" font-family="FreeSans" font-size="10.00">H4::HermiteIntegrator</text>
<text text-anchor="middle" x="215.5" y="-56.5" font-family="FreeSans" font-size="10.00">::integrateSingleOneStepAct</text>
</a>
</g>
</g>
<!-- Node1&#45;&gt;Node5 -->
<g id="edge4" class="edge">
<title>Node1&#45;&gt;Node5</title>
<path fill="none" stroke="midnightblue" d="M310.77,-78.77C302.35,-77.5 293.7,-76.19 285.21,-74.9"/>
<polygon fill="midnightblue" stroke="midnightblue" points="310.49,-82.27 320.9,-80.31 311.53,-75.35 310.49,-82.27"/>
</g>
<!-- Node6 -->
<g id="node6" class="node">
<title>Node6</title>
<g id="a_node6"><a xlink:href="classH4_1_1HermiteIntegrator.html#a69acbc0939cb1943b1254f2197361f68" target="_top" xlink:title="modify single particles due to external functions, update energy">
<polygon fill="white" stroke="black" points="158,-0.5 158,-30.5 273,-30.5 273,-0.5 158,-0.5"/>
<text text-anchor="start" x="166" y="-18.5" font-family="FreeSans" font-size="10.00">H4::HermiteIntegrator</text>
<text text-anchor="middle" x="215.5" y="-7.5" font-family="FreeSans" font-size="10.00">::modifySingleParticles</text>
</a>
</g>
</g>
<!-- Node1&#45;&gt;Node6 -->
<g id="edge5" class="edge">
<title>Node1&#45;&gt;Node6</title>
<path fill="none" stroke="midnightblue" d="M340.35,-68.55C323.85,-59.44 303.69,-48.85 285,-40.5 277.26,-37.04 268.87,-33.68 260.72,-30.6"/>
<polygon fill="midnightblue" stroke="midnightblue" points="338.66,-71.62 349.1,-73.44 342.07,-65.51 338.66,-71.62"/>
</g>
<!-- Node3 -->
<g id="node3" class="node">
<title>Node3</title>
<g id="a_node3"><a xlink:href="classH4_1_1HermiteIntegrator.html#a4681b656dd42eae01d3d85e66ac55112" target="_top" xlink:title="adjust groups">
<polygon fill="white" stroke="black" points="0,-147.5 0,-177.5 110,-177.5 110,-147.5 0,-147.5"/>
<text text-anchor="start" x="8" y="-165.5" font-family="FreeSans" font-size="10.00">H4::HermiteIntegrator</text>
<text text-anchor="middle" x="55" y="-154.5" font-family="FreeSans" font-size="10.00">::adjustGroups</text>
</a>
</g>
</g>
<!-- Node2&#45;&gt;Node3 -->
<g id="edge2" class="edge">
<title>Node2&#45;&gt;Node3</title>
<path fill="none" stroke="midnightblue" d="M150.34,-162.5C137,-162.5 123.06,-162.5 110.13,-162.5"/>
<polygon fill="midnightblue" stroke="midnightblue" points="150.4,-166 160.4,-162.5 150.4,-159 150.4,-166"/>
</g>
</g>
</svg>
