<?xml version="1.0" encoding="UTF-8" standalone="no"?>
<!DOCTYPE svg PUBLIC "-//W3C//DTD SVG 1.1//EN"
 "http://www.w3.org/Graphics/SVG/1.1/DTD/svg11.dtd">
<!-- Generated by graphviz version 2.38.0 (20140413.2041)
 -->
<!-- Title: COMM::BinaryTree&lt; Tptcl &gt; Pages: 1 -->
<svg width="155pt" height="84pt"
 viewBox="0.00 0.00 155.00 84.00" xmlns="http://www.w3.org/2000/svg" xmlns:xlink="http://www.w3.org/1999/xlink">
<g id="graph0" class="graph" transform="scale(1 1) rotate(0) translate(4 80)">
<title>COMM::BinaryTree&lt; Tptcl &gt;</title>
<polygon fill="white" stroke="none" points="-4,4 -4,-80 151,-80 151,4 -4,4"/>
<!-- Node1 -->
<g id="node1" class="node"><title>Node1</title>
<polygon fill="#bfbfbf" stroke="black" points="0,-0.5 0,-19.5 137,-19.5 137,-0.5 0,-0.5"/>
<text text-anchor="middle" x="68.5" y="-7.5" font-family="FreeSans" font-size="10.00">COMM::BinaryTree&lt; Tptcl &gt;</text>
</g>
<!-- Node2 -->
<g id="node2" class="node"><title>Node2</title>
<polygon fill="white" stroke="#bfbfbf" points="11.5,-56.5 11.5,-75.5 49.5,-75.5 49.5,-56.5 11.5,-56.5"/>
<text text-anchor="middle" x="30.5" y="-63.5" font-family="FreeSans" font-size="10.00">Tptcl</text>
</g>
<!-- Node2&#45;&gt;Node1 -->
<g id="edge1" class="edge"><title>Node2&#45;&gt;Node1</title>
<path fill="none" stroke="midnightblue" d="M42.5647,-47.8554C49.1447,-38.5048 57.011,-27.3265 62.3418,-19.7511"/>
<polygon fill="midnightblue" stroke="midnightblue" points="39.6676,-45.8907 36.7749,-56.083 45.3922,-49.9192 39.6676,-45.8907"/>
</g>
<!-- Node3 -->
<g id="node3" class="node"><title>Node3</title>
<g id="a_node3"><a xlink:href="classCOMM_1_1Binary.html" target="_top" xlink:title="Binary parameter class. ">
<polygon fill="white" stroke="black" points="68,-56.5 68,-75.5 147,-75.5 147,-56.5 68,-56.5"/>
<text text-anchor="middle" x="107.5" y="-63.5" font-family="FreeSans" font-size="10.00">COMM::Binary</text>
</a>
</g>
</g>
<!-- Node3&#45;&gt;Node1 -->
<g id="edge2" class="edge"><title>Node3&#45;&gt;Node1</title>
<path fill="none" stroke="midnightblue" d="M95.1178,-47.8554C88.3646,-38.5048 80.2914,-27.3265 74.8202,-19.7511"/>
<polygon fill="midnightblue" stroke="midnightblue" points="92.3676,-50.0254 101.06,-56.083 98.0424,-45.927 92.3676,-50.0254"/>
</g>
</g>
</svg>
