<?xml version="1.0" encoding="UTF-8" standalone="no"?>
<!DOCTYPE svg PUBLIC "-//W3C//DTD SVG 1.1//EN"
 "http://www.w3.org/Graphics/SVG/1.1/DTD/svg11.dtd">
<!-- Generated by graphviz version 2.38.0 (20140413.2041)
 -->
<!-- Title: H4::BlockTimeStep4th::calcNextDtLimit Pages: 1 -->
<svg width="296pt" height="88pt"
 viewBox="0.00 0.00 296.00 88.00" xmlns="http://www.w3.org/2000/svg" xmlns:xlink="http://www.w3.org/1999/xlink">
<g id="graph0" class="graph" transform="scale(1 1) rotate(0) translate(4 84)">
<title>H4::BlockTimeStep4th::calcNextDtLimit</title>
<polygon fill="white" stroke="none" points="-4,4 -4,-84 292,-84 292,4 -4,4"/>
<!-- Node1 -->
<g id="node1" class="node"><title>Node1</title>
<polygon fill="#bfbfbf" stroke="black" points="0,-24.5 0,-54.5 113,-54.5 113,-24.5 0,-24.5"/>
<text text-anchor="start" x="8" y="-42.5" font-family="FreeSans" font-size="10.00">H4::BlockTimeStep4th</text>
<text text-anchor="middle" x="56.5" y="-31.5" font-family="FreeSans" font-size="10.00">::calcNextDtLimit</text>
</g>
<!-- Node2 -->
<g id="node2" class="node"><title>Node2</title>
<g id="a_node2"><a xlink:href="classH4_1_1HermiteIntegrator.html#a6e40f52b15e96a4d4e7f3cf89241e300" target="_top" xlink:title="Initial Hermite integrator. ">
<polygon fill="white" stroke="black" points="164.5,-49.5 164.5,-79.5 272.5,-79.5 272.5,-49.5 164.5,-49.5"/>
<text text-anchor="start" x="172.5" y="-67.5" font-family="FreeSans" font-size="10.00">H4::HermiteIntegrator</text>
<text text-anchor="middle" x="218.5" y="-56.5" font-family="FreeSans" font-size="10.00">::initialIntegration</text>
</a>
</g>
</g>
<!-- Node1&#45;&gt;Node2 -->
<g id="edge1" class="edge"><title>Node1&#45;&gt;Node2</title>
<path fill="none" stroke="midnightblue" d="M122.896,-49.7181C136.649,-51.8671 150.999,-54.1092 164.243,-56.1786"/>
<polygon fill="midnightblue" stroke="midnightblue" points="123.432,-46.2594 113.011,-48.1736 122.351,-53.1755 123.432,-46.2594"/>
</g>
<!-- Node3 -->
<g id="node3" class="node"><title>Node3</title>
<g id="a_node3"><a xlink:href="classH4_1_1HermiteIntegrator.html#a1aaef2826d6bb2c6cc4cafef39fbfaca" target="_top" xlink:title="Integration single active particles and update steps. ">
<polygon fill="white" stroke="black" points="149,-0.5 149,-30.5 288,-30.5 288,-0.5 149,-0.5"/>
<text text-anchor="start" x="157" y="-18.5" font-family="FreeSans" font-size="10.00">H4::HermiteIntegrator</text>
<text text-anchor="middle" x="218.5" y="-7.5" font-family="FreeSans" font-size="10.00">::integrateSingleOneStepAct</text>
</a>
</g>
</g>
<!-- Node1&#45;&gt;Node3 -->
<g id="edge2" class="edge"><title>Node1&#45;&gt;Node3</title>
<path fill="none" stroke="midnightblue" d="M122.913,-29.688C131.46,-28.4061 140.235,-27.0897 148.833,-25.8"/>
<polygon fill="midnightblue" stroke="midnightblue" points="122.381,-26.2286 113.011,-31.1733 123.42,-33.1511 122.381,-26.2286"/>
</g>
</g>
</svg>
