<?xml version="1.0" encoding="UTF-8" standalone="no"?>
<!DOCTYPE svg PUBLIC "-//W3C//DTD SVG 1.1//EN"
 "http://www.w3.org/Graphics/SVG/1.1/DTD/svg11.dtd">
<!-- Generated by graphviz version 2.38.0 (20140413.2041)
 -->
<!-- Title: H4::HermiteIntegrator::calcEnergySlowDown Pages: 1 -->
<svg width="270pt" height="137pt"
 viewBox="0.00 0.00 270.00 137.00" xmlns="http://www.w3.org/2000/svg" xmlns:xlink="http://www.w3.org/1999/xlink">
<g id="graph0" class="graph" transform="scale(1 1) rotate(0) translate(4 133)">
<title>H4::HermiteIntegrator::calcEnergySlowDown</title>
<polygon fill="white" stroke="none" points="-4,4 -4,-133 266,-133 266,4 -4,4"/>
<!-- Node1 -->
<g id="node1" class="node"><title>Node1</title>
<polygon fill="#bfbfbf" stroke="black" points="0,-49.5 0,-79.5 113,-79.5 113,-49.5 0,-49.5"/>
<text text-anchor="start" x="8" y="-67.5" font-family="FreeSans" font-size="10.00">H4::HermiteIntegrator</text>
<text text-anchor="middle" x="56.5" y="-56.5" font-family="FreeSans" font-size="10.00">::calcEnergySlowDown</text>
</g>
<!-- Node2 -->
<g id="node2" class="node"><title>Node2</title>
<g id="a_node2"><a xlink:href="classCOMM_1_1List.html#a125e4f93ee02b677f8377bd541f2105d" target="_top" xlink:title="return member data array address ">
<polygon fill="white" stroke="black" points="149,-98.5 149,-128.5 262,-128.5 262,-98.5 149,-98.5"/>
<text text-anchor="start" x="157" y="-116.5" font-family="FreeSans" font-size="10.00">COMM::List&lt; Tparticle</text>
<text text-anchor="middle" x="205.5" y="-105.5" font-family="FreeSans" font-size="10.00"> &gt;::getDataAddress</text>
</a>
</g>
</g>
<!-- Node1&#45;&gt;Node2 -->
<g id="edge1" class="edge"><title>Node1&#45;&gt;Node2</title>
<path fill="none" stroke="midnightblue" d="M113.074,-76.4565C130.715,-81.9725 149.823,-88.525 165.986,-94.6437"/>
<polygon fill="midnightblue" stroke="midnightblue" points="165.041,-98.0312 175.63,-98.3842 167.573,-91.5049 165.041,-98.0312"/>
</g>
<!-- Node1&#45;&gt;Node2 -->
<g id="edge3" class="edge"><title>Node1&#45;&gt;Node2</title>
<path fill="none" stroke="midnightblue" d="M86.192,-79.545C101.347,-85.5877 120.613,-92.4201 139.174,-98.4374"/>
<polygon fill="midnightblue" stroke="midnightblue" points="138.2,-101.8 148.791,-101.501 140.325,-95.1307 138.2,-101.8"/>
</g>
<!-- Node3 -->
<g id="node3" class="node"><title>Node3</title>
<g id="a_node3"><a xlink:href="classCOMM_1_1List.html#af1c92acd831f62c52f3385a71d6403e7" target="_top" xlink:title="get current member number ">
<polygon fill="white" stroke="black" points="149,-49.5 149,-79.5 262,-79.5 262,-49.5 149,-49.5"/>
<text text-anchor="start" x="157" y="-67.5" font-family="FreeSans" font-size="10.00">COMM::List&lt; Tparticle</text>
<text text-anchor="middle" x="205.5" y="-56.5" font-family="FreeSans" font-size="10.00"> &gt;::getSize</text>
</a>
</g>
</g>
<!-- Node1&#45;&gt;Node3 -->
<g id="edge2" class="edge"><title>Node1&#45;&gt;Node3</title>
<path fill="none" stroke="midnightblue" d="M113.074,-57.9317C121.489,-57.758 130.238,-57.7088 138.842,-57.7843"/>
<polygon fill="midnightblue" stroke="midnightblue" points="138.797,-61.2839 148.847,-57.9301 138.899,-54.2846 138.797,-61.2839"/>
</g>
<!-- Node1&#45;&gt;Node3 -->
<g id="edge4" class="edge"><title>Node1&#45;&gt;Node3</title>
<path fill="none" stroke="midnightblue" d="M113.074,-71.0683C121.489,-71.242 130.238,-71.2912 138.842,-71.2157"/>
<polygon fill="midnightblue" stroke="midnightblue" points="138.899,-74.7154 148.847,-71.0699 138.797,-67.7161 138.899,-74.7154"/>
</g>
<!-- Node4 -->
<g id="node4" class="node"><title>Node4</title>
<g id="a_node4"><a xlink:href="structH4_1_1HermiteEnergy.html#a50daca35966723e7de348d726e4ece09" target="_top" xlink:title="calc total energy ">
<polygon fill="white" stroke="black" points="155,-0.5 155,-30.5 256,-30.5 256,-0.5 155,-0.5"/>
<text text-anchor="start" x="163" y="-18.5" font-family="FreeSans" font-size="10.00">H4::HermiteEnergy::</text>
<text text-anchor="middle" x="205.5" y="-7.5" font-family="FreeSans" font-size="10.00">getEtot</text>
</a>
</g>
</g>
<!-- Node1&#45;&gt;Node4 -->
<g id="edge5" class="edge"><title>Node1&#45;&gt;Node4</title>
<path fill="none" stroke="midnightblue" d="M102.804,-49.3986C117.544,-44.4853 134.067,-38.9776 149.44,-33.8534"/>
<polygon fill="midnightblue" stroke="midnightblue" points="150.965,-37.0343 159.345,-30.5516 148.752,-30.3935 150.965,-37.0343"/>
</g>
</g>
</svg>
