<?xml version="1.0" encoding="UTF-8" standalone="no"?>
<!DOCTYPE svg PUBLIC "-//W3C//DTD SVG 1.1//EN"
 "http://www.w3.org/Graphics/SVG/1.1/DTD/svg11.dtd">
<!-- Generated by graphviz version 2.38.0 (20140413.2041)
 -->
<!-- Title: COMM::Binary Pages: 1 -->
<svg width="275pt" height="165pt"
 viewBox="0.00 0.00 275.00 164.50" xmlns="http://www.w3.org/2000/svg" xmlns:xlink="http://www.w3.org/1999/xlink">
<g id="graph0" class="graph" transform="scale(1 1) rotate(0) translate(4 160.5)">
<title>COMM::Binary</title>
<polygon fill="white" stroke="none" points="-4,4 -4,-160.5 271,-160.5 271,4 -4,4"/>
<!-- Node1 -->
<g id="node1" class="node"><title>Node1</title>
<polygon fill="#bfbfbf" stroke="black" points="0,-60.5 0,-79.5 79,-79.5 79,-60.5 0,-60.5"/>
<text text-anchor="middle" x="39.5" y="-67.5" font-family="FreeSans" font-size="10.00">COMM::Binary</text>
</g>
<!-- Node2 -->
<g id="node2" class="node"><title>Node2</title>
<g id="a_node2"><a xlink:href="classCOMM_1_1BinaryTree.html" target="_top" xlink:title="COMM::BinaryTree\&lt; H4\l::ParticleAR \&gt;">
<polygon fill="white" stroke="black" points="131.5,-126 131.5,-156 250.5,-156 250.5,-126 131.5,-126"/>
<text text-anchor="start" x="139.5" y="-144" font-family="FreeSans" font-size="10.00">COMM::BinaryTree&lt; H4</text>
<text text-anchor="middle" x="191" y="-133" font-family="FreeSans" font-size="10.00">::ParticleAR &gt;</text>
</a>
</g>
</g>
<!-- Node1&#45;&gt;Node2 -->
<g id="edge1" class="edge"><title>Node1&#45;&gt;Node2</title>
<path fill="none" stroke="midnightblue" d="M61.6326,-85.3657C76.115,-95.3765 96.061,-108.17 115,-117 121.939,-120.235 129.431,-123.203 136.902,-125.866"/>
<polygon fill="midnightblue" stroke="midnightblue" points="63.5703,-82.4495 53.3791,-79.5526 59.5394,-88.1724 63.5703,-82.4495"/>
</g>
<!-- Node3 -->
<g id="node3" class="node"><title>Node3</title>
<g id="a_node3"><a xlink:href="classCOMM_1_1BinaryTree.html" target="_top" xlink:title="COMM::BinaryTree\&lt; Particle\lAR\&lt; Tparticle \&gt; \&gt;">
<polygon fill="white" stroke="black" points="121,-77 121,-107 261,-107 261,-77 121,-77"/>
<text text-anchor="start" x="129" y="-95" font-family="FreeSans" font-size="10.00">COMM::BinaryTree&lt; Particle</text>
<text text-anchor="middle" x="191" y="-84" font-family="FreeSans" font-size="10.00">AR&lt; Tparticle &gt; &gt;</text>
</a>
</g>
</g>
<!-- Node1&#45;&gt;Node3 -->
<g id="edge2" class="edge"><title>Node1&#45;&gt;Node3</title>
<path fill="none" stroke="midnightblue" d="M89.5517,-77.2183C99.5821,-78.6944 110.316,-80.2739 120.897,-81.831"/>
<polygon fill="midnightblue" stroke="midnightblue" points="89.7921,-73.7161 79.3891,-75.7228 88.773,-80.6415 89.7921,-73.7161"/>
</g>
<!-- Node4 -->
<g id="node4" class="node"><title>Node4</title>
<g id="a_node4"><a xlink:href="classCOMM_1_1BinaryTree.html" target="_top" xlink:title="COMM::BinaryTree\&lt; Tparticle \&gt;">
<polygon fill="white" stroke="black" points="115,-38.5 115,-57.5 267,-57.5 267,-38.5 115,-38.5"/>
<text text-anchor="middle" x="191" y="-45.5" font-family="FreeSans" font-size="10.00">COMM::BinaryTree&lt; Tparticle &gt;</text>
</a>
</g>
</g>
<!-- Node1&#45;&gt;Node4 -->
<g id="edge3" class="edge"><title>Node1&#45;&gt;Node4</title>
<path fill="none" stroke="midnightblue" d="M89.571,-62.7788C100.975,-61.1006 113.287,-59.2889 125.251,-57.5283"/>
<polygon fill="midnightblue" stroke="midnightblue" points="88.773,-59.3585 79.3891,-64.2772 89.7921,-66.2839 88.773,-59.3585"/>
</g>
<!-- Node5 -->
<g id="node5" class="node"><title>Node5</title>
<g id="a_node5"><a xlink:href="classCOMM_1_1BinaryTree.html" target="_top" xlink:title="Binary tree cell. ">
<polygon fill="white" stroke="black" points="122.5,-0.5 122.5,-19.5 259.5,-19.5 259.5,-0.5 122.5,-0.5"/>
<text text-anchor="middle" x="191" y="-7.5" font-family="FreeSans" font-size="10.00">COMM::BinaryTree&lt; Tptcl &gt;</text>
</a>
</g>
</g>
<!-- Node1&#45;&gt;Node5 -->
<g id="edge4" class="edge"><title>Node1&#45;&gt;Node5</title>
<path fill="none" stroke="midnightblue" d="M64.0306,-55.0195C78.3268,-46.4404 97.1993,-36.0193 115,-29 124.372,-25.3044 134.69,-22.1435 144.595,-19.521"/>
<polygon fill="midnightblue" stroke="midnightblue" points="62.0514,-52.1275 55.354,-60.337 65.7091,-58.0958 62.0514,-52.1275"/>
</g>
</g>
</svg>
