<?xml version="1.0" encoding="UTF-8" standalone="no"?>
<!DOCTYPE svg PUBLIC "-//W3C//DTD SVG 1.1//EN"
 "http://www.w3.org/Graphics/SVG/1.1/DTD/svg11.dtd">
<!-- Generated by graphviz version 2.38.0 (20140413.2041)
 -->
<!-- Title: COMM::BinaryTree::generateBinaryTree Pages: 1 -->
<svg width="351pt" height="50pt"
 viewBox="0.00 0.00 351.00 50.00" xmlns="http://www.w3.org/2000/svg" xmlns:xlink="http://www.w3.org/1999/xlink">
<g id="graph0" class="graph" transform="scale(1 1) rotate(0) translate(4 46)">
<title>COMM::BinaryTree::generateBinaryTree</title>
<polygon fill="white" stroke="none" points="-4,4 -4,-46 347,-46 347,4 -4,4"/>
<!-- Node1 -->
<g id="node1" class="node"><title>Node1</title>
<polygon fill="#bfbfbf" stroke="black" points="0,-6 0,-36 140,-36 140,-6 0,-6"/>
<text text-anchor="start" x="8" y="-24" font-family="FreeSans" font-size="10.00">COMM::BinaryTree::generate</text>
<text text-anchor="middle" x="70" y="-13" font-family="FreeSans" font-size="10.00">BinaryTree</text>
</g>
<!-- Node2 -->
<g id="node2" class="node"><title>Node2</title>
<g id="a_node2"><a xlink:href="classAR_1_1Information.html#a14e49407402b8d9e350b9e4cde688e0d" target="_top" xlink:title="generate binary tree for the particle group ">
<polygon fill="white" stroke="black" points="176,-0.5 176,-41.5 343,-41.5 343,-0.5 176,-0.5"/>
<text text-anchor="start" x="184" y="-29.5" font-family="FreeSans" font-size="10.00">AR::Information&lt; Particle</text>
<text text-anchor="start" x="184" y="-18.5" font-family="FreeSans" font-size="10.00">AR&lt; Tparticle &gt;, ParticleH4</text>
<text text-anchor="middle" x="259.5" y="-7.5" font-family="FreeSans" font-size="10.00">&lt; Tparticle &gt; &gt;::generateBinaryTree</text>
</a>
</g>
</g>
<!-- Node1&#45;&gt;Node2 -->
<g id="edge1" class="edge"><title>Node1&#45;&gt;Node2</title>
<path fill="none" stroke="midnightblue" d="M150.28,-21C158.774,-21 167.431,-21 175.961,-21"/>
<polygon fill="midnightblue" stroke="midnightblue" points="150.019,-17.5001 140.019,-21 150.019,-24.5001 150.019,-17.5001"/>
</g>
</g>
</svg>
