<?xml version="1.0" encoding="UTF-8" standalone="no"?>
<!DOCTYPE svg PUBLIC "-//W3C//DTD SVG 1.1//EN"
 "http://www.w3.org/Graphics/SVG/1.1/DTD/svg11.dtd">
<!-- Generated by graphviz version 2.38.0 (20140413.2041)
 -->
<!-- Title: AR::TimeTransformedSymplecticIntegrator::updateSlowDownAndCorrectEnergy Pages: 1 -->
<svg width="380pt" height="88pt"
 viewBox="0.00 0.00 380.00 88.00" xmlns="http://www.w3.org/2000/svg" xmlns:xlink="http://www.w3.org/1999/xlink">
<g id="graph0" class="graph" transform="scale(1 1) rotate(0) translate(4 84)">
<title>AR::TimeTransformedSymplecticIntegrator::updateSlowDownAndCorrectEnergy</title>
<polygon fill="white" stroke="none" points="-4,4 -4,-84 376,-84 376,4 -4,4"/>
<!-- Node1 -->
<g id="node1" class="node"><title>Node1</title>
<polygon fill="#bfbfbf" stroke="black" points="0,-19 0,-60 185,-60 185,-19 0,-19"/>
<text text-anchor="start" x="8" y="-48" font-family="FreeSans" font-size="10.00">AR::TimeTransformedSymplectic</text>
<text text-anchor="start" x="8" y="-37" font-family="FreeSans" font-size="10.00">Integrator::updateSlowDownAndCorrect</text>
<text text-anchor="middle" x="92.5" y="-26" font-family="FreeSans" font-size="10.00">Energy</text>
</g>
<!-- Node2 -->
<g id="node2" class="node"><title>Node2</title>
<g id="a_node2"><a xlink:href="classAR_1_1SlowDown.html#acdbeeada2bb4f8ef82aee8e5574f3beb" target="_top" xlink:title="Get slow&#45;down factor. ">
<polygon fill="white" stroke="black" points="225,-49.5 225,-79.5 368,-79.5 368,-49.5 225,-49.5"/>
<text text-anchor="start" x="233" y="-67.5" font-family="FreeSans" font-size="10.00">AR::SlowDown::getSlowDown</text>
<text text-anchor="middle" x="296.5" y="-56.5" font-family="FreeSans" font-size="10.00">Factor</text>
</a>
</g>
</g>
<!-- Node1&#45;&gt;Node2 -->
<g id="edge1" class="edge"><title>Node1&#45;&gt;Node2</title>
<path fill="none" stroke="midnightblue" d="M185.044,-50.8297C194.96,-52.057 205,-53.2995 214.775,-54.5093"/>
<polygon fill="midnightblue" stroke="midnightblue" points="214.496,-58.0014 224.85,-55.7562 215.356,-51.0544 214.496,-58.0014"/>
</g>
<!-- Node3 -->
<g id="node3" class="node"><title>Node3</title>
<g id="a_node3"><a xlink:href="classAR_1_1SlowDown.html#a43c4636ed1a5fe2acad80dfff75d0677" target="_top" xlink:title="advance update time by one period ">
<polygon fill="white" stroke="black" points="221,-0.5 221,-30.5 372,-30.5 372,-0.5 221,-0.5"/>
<text text-anchor="start" x="229" y="-18.5" font-family="FreeSans" font-size="10.00">AR::SlowDown::increaseUpdate</text>
<text text-anchor="middle" x="296.5" y="-7.5" font-family="FreeSans" font-size="10.00">TimeOnePeriod</text>
</a>
</g>
</g>
<!-- Node1&#45;&gt;Node3 -->
<g id="edge2" class="edge"><title>Node1&#45;&gt;Node3</title>
<path fill="none" stroke="midnightblue" d="M185.044,-28.6235C193.672,-27.5984 202.393,-26.5622 210.952,-25.5453"/>
<polygon fill="midnightblue" stroke="midnightblue" points="211.393,-29.0176 220.91,-24.3621 210.567,-22.0665 211.393,-29.0176"/>
</g>
</g>
</svg>
