<?xml version="1.0" encoding="UTF-8" standalone="no"?>
<!DOCTYPE svg PUBLIC "-//W3C//DTD SVG 1.1//EN"
 "http://www.w3.org/Graphics/SVG/1.1/DTD/svg11.dtd">
<!-- Generated by graphviz version 2.38.0 (20140413.2041)
 -->
<!-- Title: AR::SlowDown::getSlowDownFactorOrigin Pages: 1 -->
<svg width="345pt" height="137pt"
 viewBox="0.00 0.00 345.00 137.00" xmlns="http://www.w3.org/2000/svg" xmlns:xlink="http://www.w3.org/1999/xlink">
<g id="graph0" class="graph" transform="scale(1 1) rotate(0) translate(4 133)">
<title>AR::SlowDown::getSlowDownFactorOrigin</title>
<polygon fill="white" stroke="none" points="-4,4 -4,-133 341,-133 341,4 -4,4"/>
<!-- Node1 -->
<g id="node1" class="node"><title>Node1</title>
<polygon fill="#bfbfbf" stroke="black" points="0,-49.5 0,-79.5 143,-79.5 143,-49.5 0,-49.5"/>
<text text-anchor="start" x="8" y="-67.5" font-family="FreeSans" font-size="10.00">AR::SlowDown::getSlowDown</text>
<text text-anchor="middle" x="71.5" y="-56.5" font-family="FreeSans" font-size="10.00">FactorOrigin</text>
</g>
<!-- Node2 -->
<g id="node2" class="node"><title>Node2</title>
<g id="a_node2"><a xlink:href="classH4_1_1HermiteIntegrator.html#aa2e53961f55ac16a239a07471cbe6110" target="_top" xlink:title="Check break condition. ">
<polygon fill="white" stroke="black" points="204,-98.5 204,-128.5 312,-128.5 312,-98.5 204,-98.5"/>
<text text-anchor="start" x="212" y="-116.5" font-family="FreeSans" font-size="10.00">H4::HermiteIntegrator</text>
<text text-anchor="middle" x="258" y="-105.5" font-family="FreeSans" font-size="10.00">::checkBreak</text>
</a>
</g>
</g>
<!-- Node1&#45;&gt;Node2 -->
<g id="edge1" class="edge"><title>Node1&#45;&gt;Node2</title>
<path fill="none" stroke="midnightblue" d="M138.786,-82.1044C160.197,-87.7909 183.64,-94.0169 203.963,-99.4143"/>
<polygon fill="midnightblue" stroke="midnightblue" points="139.673,-78.7188 129.11,-79.5346 137.876,-85.4843 139.673,-78.7188"/>
</g>
<!-- Node3 -->
<g id="node3" class="node"><title>Node3</title>
<g id="a_node3"><a xlink:href="classH4_1_1HermiteIntegrator.html#a51b5efc55abeab0975009596cd5507bf" target="_top" xlink:title="check the pair with distance below r_crit for ptcl in adr_dt_sorted_ ">
<polygon fill="white" stroke="black" points="204,-49.5 204,-79.5 312,-79.5 312,-49.5 204,-49.5"/>
<text text-anchor="start" x="212" y="-67.5" font-family="FreeSans" font-size="10.00">H4::HermiteIntegrator</text>
<text text-anchor="middle" x="258" y="-56.5" font-family="FreeSans" font-size="10.00">::checkNewGroup</text>
</a>
</g>
</g>
<!-- Node1&#45;&gt;Node3 -->
<g id="edge2" class="edge"><title>Node1&#45;&gt;Node3</title>
<path fill="none" stroke="midnightblue" d="M153.055,-64.5C170.201,-64.5 187.895,-64.5 203.715,-64.5"/>
<polygon fill="midnightblue" stroke="midnightblue" points="153.041,-61.0001 143.041,-64.5 153.041,-68.0001 153.041,-61.0001"/>
</g>
<!-- Node4 -->
<g id="node4" class="node"><title>Node4</title>
<g id="a_node4"><a xlink:href="classAR_1_1TimeTransformedSymplecticIntegrator.html#a24f338caf7308ceda28fcd7f8a223165" target="_top" xlink:title="AR::TimeTransformedSymplectic\lIntegrator::integrateToTime">
<polygon fill="white" stroke="black" points="179,-0.5 179,-30.5 337,-30.5 337,-0.5 179,-0.5"/>
<text text-anchor="start" x="187" y="-18.5" font-family="FreeSans" font-size="10.00">AR::TimeTransformedSymplectic</text>
<text text-anchor="middle" x="258" y="-7.5" font-family="FreeSans" font-size="10.00">Integrator::integrateToTime</text>
</a>
</g>
</g>
<!-- Node1&#45;&gt;Node4 -->
<g id="edge3" class="edge"><title>Node1&#45;&gt;Node4</title>
<path fill="none" stroke="midnightblue" d="M138.856,-46.8771C159.041,-41.5163 181.026,-35.6775 200.497,-30.5062"/>
<polygon fill="midnightblue" stroke="midnightblue" points="137.876,-43.5157 129.11,-49.4654 139.673,-50.2812 137.876,-43.5157"/>
</g>
</g>
</svg>
