<?xml version="1.0" encoding="UTF-8" standalone="no"?>
<!DOCTYPE svg PUBLIC "-//W3C//DTD SVG 1.1//EN"
 "http://www.w3.org/Graphics/SVG/1.1/DTD/svg11.dtd">
<!-- Generated by graphviz version 2.43.0 (0)
 -->
<!-- Title: H4::ARInformation::printColumn Pages: 1 -->
<svg width="277pt" height="50pt"
 viewBox="0.00 0.00 277.00 50.00" xmlns="http://www.w3.org/2000/svg" xmlns:xlink="http://www.w3.org/1999/xlink">
<g id="graph0" class="graph" transform="scale(1 1) rotate(0) translate(4 46)">
<title>H4::ARInformation::printColumn</title>
<polygon fill="white" stroke="transparent" points="-4,4 -4,-46 273,-46 273,4 -4,4"/>
<!-- Node1 -->
<g id="node1" class="node">
<title>Node1</title>
<g id="a_node1"><a xlink:title="print data of class members using column style">
<polygon fill="#bfbfbf" stroke="black" points="0,-6 0,-36 101,-36 101,-6 0,-6"/>
<text text-anchor="start" x="8" y="-24" font-family="FreeSans" font-size="10.00">H4::ARInformation::</text>
<text text-anchor="middle" x="50.5" y="-13" font-family="FreeSans" font-size="10.00">printColumn</text>
</a>
</g>
</g>
<!-- Node2 -->
<g id="node2" class="node">
<title>Node2</title>
<g id="a_node2"><a xlink:href="classAR_1_1Information.html#a7226e0485c7f653965c902b726b2997b" target="_top" xlink:title="print data of class members using column style">
<polygon fill="white" stroke="black" points="137,-0.5 137,-41.5 269,-41.5 269,-0.5 137,-0.5"/>
<text text-anchor="start" x="145" y="-29.5" font-family="FreeSans" font-size="10.00">AR::Information&lt; Tparticle,</text>
<text text-anchor="start" x="145" y="-18.5" font-family="FreeSans" font-size="10.00"> ParticleH4&lt; Tparticle &gt;</text>
<text text-anchor="middle" x="203" y="-7.5" font-family="FreeSans" font-size="10.00"> &gt;::printColumn</text>
</a>
</g>
</g>
<!-- Node1&#45;&gt;Node2 -->
<g id="edge1" class="edge">
<title>Node1&#45;&gt;Node2</title>
<path fill="none" stroke="midnightblue" d="M101.2,-21C109.38,-21 118.02,-21 126.67,-21"/>
<polygon fill="midnightblue" stroke="midnightblue" points="126.79,-24.5 136.79,-21 126.79,-17.5 126.79,-24.5"/>
</g>
</g>
</svg>
