<?xml version="1.0" encoding="UTF-8" standalone="no"?>
<!DOCTYPE svg PUBLIC "-//W3C//DTD SVG 1.1//EN"
 "http://www.w3.org/Graphics/SVG/1.1/DTD/svg11.dtd">
<!-- Generated by graphviz version 2.43.0 (0)
 -->
<!-- Title: AR::TimeTransformedSymplecticIntegrator::readBinary Pages: 1 -->
<svg width="349pt" height="204pt"
 viewBox="0.00 0.00 349.00 203.50" xmlns="http://www.w3.org/2000/svg" xmlns:xlink="http://www.w3.org/1999/xlink">
<g id="graph0" class="graph" transform="scale(1 1) rotate(0) translate(4 199.5)">
<title>AR::TimeTransformedSymplecticIntegrator::readBinary</title>
<polygon fill="white" stroke="transparent" points="-4,4 -4,-199.5 345,-199.5 345,4 -4,4"/>
<!-- Node1 -->
<g id="node1" class="node">
<title>Node1</title>
<g id="a_node1"><a xlink:title="read class data with BINARY format and initial the array">
<polygon fill="#bfbfbf" stroke="black" points="0,-63.5 0,-93.5 159,-93.5 159,-63.5 0,-63.5"/>
<text text-anchor="start" x="8" y="-81.5" font-family="FreeSans" font-size="10.00">AR::TimeTransformedSymplectic</text>
<text text-anchor="middle" x="79.5" y="-70.5" font-family="FreeSans" font-size="10.00">Integrator::readBinary</text>
</a>
</g>
</g>
<!-- Node2 -->
<g id="node2" class="node">
<title>Node2</title>
<g id="a_node2"><a xlink:href="classAR_1_1Profile.html#a6876b1f0f13a035cdcd51d7f5a4bd65d" target="_top" xlink:title="read class data with BINARY format and initial the array">
<polygon fill="white" stroke="black" points="212,-176 212,-195 324,-195 324,-176 212,-176"/>
<text text-anchor="middle" x="268" y="-183" font-family="FreeSans" font-size="10.00">AR::Profile::readBinary</text>
</a>
</g>
</g>
<!-- Node1&#45;&gt;Node2 -->
<g id="edge1" class="edge">
<title>Node1&#45;&gt;Node2</title>
<path fill="none" stroke="midnightblue" d="M95.81,-93.54C116.57,-113.14 155.62,-147.15 195,-166.5 199.86,-168.89 205.05,-171 210.35,-172.87"/>
<polygon fill="midnightblue" stroke="midnightblue" points="209.33,-176.22 219.93,-175.97 211.49,-169.56 209.33,-176.22"/>
</g>
<!-- Node3 -->
<g id="node3" class="node">
<title>Node3</title>
<g id="a_node3"><a xlink:href="classCOMM_1_1ParticleGroup.html#ac437d74b8165f0ada466e1bedca66a58" target="_top" xlink:title="Read particle data from file.">
<polygon fill="white" stroke="black" points="212.5,-126.5 212.5,-156.5 323.5,-156.5 323.5,-126.5 212.5,-126.5"/>
<text text-anchor="start" x="220.5" y="-144.5" font-family="FreeSans" font-size="10.00">COMM::ParticleGroup</text>
<text text-anchor="middle" x="268" y="-133.5" font-family="FreeSans" font-size="10.00">::readBinary</text>
</a>
</g>
</g>
<!-- Node1&#45;&gt;Node3 -->
<g id="edge2" class="edge">
<title>Node1&#45;&gt;Node3</title>
<path fill="none" stroke="midnightblue" d="M125.17,-93.59C151.49,-102.48 184.97,-113.79 212.79,-123.19"/>
<polygon fill="midnightblue" stroke="midnightblue" points="211.78,-126.54 222.37,-126.42 214.02,-119.91 211.78,-126.54"/>
</g>
<!-- Node4 -->
<g id="node4" class="node">
<title>Node4</title>
<g id="a_node4"><a xlink:href="classCOMM_1_1List.html#a7f125554959409d40217deb7402c0de9" target="_top" xlink:title="Memory allocation for storing members.">
<polygon fill="white" stroke="black" points="204.5,-88 204.5,-107 331.5,-107 331.5,-88 204.5,-88"/>
<text text-anchor="middle" x="268" y="-95" font-family="FreeSans" font-size="10.00">COMM::List::reserveMem</text>
</a>
</g>
</g>
<!-- Node1&#45;&gt;Node4 -->
<g id="edge3" class="edge">
<title>Node1&#45;&gt;Node4</title>
<path fill="none" stroke="midnightblue" d="M159.05,-86.5C170.76,-87.69 182.78,-88.92 194.35,-90.1"/>
<polygon fill="midnightblue" stroke="midnightblue" points="194.08,-93.59 204.39,-91.12 194.79,-86.63 194.08,-93.59"/>
</g>
<!-- Node5 -->
<g id="node5" class="node">
<title>Node5</title>
<g id="a_node5"><a xlink:href="classCOMM_1_1List.html#a0f3dd09ceff0ce9b3ffd15f48a9ea9c4" target="_top" xlink:title="increase size without initialization">
<polygon fill="white" stroke="black" points="195,-50 195,-69 341,-69 341,-50 195,-50"/>
<text text-anchor="middle" x="268" y="-57" font-family="FreeSans" font-size="10.00">COMM::List::resizeNoInitialize</text>
</a>
</g>
</g>
<!-- Node1&#45;&gt;Node5 -->
<g id="edge4" class="edge">
<title>Node1&#45;&gt;Node5</title>
<path fill="none" stroke="midnightblue" d="M159.05,-70.5C167.57,-69.63 176.25,-68.75 184.81,-67.87"/>
<polygon fill="midnightblue" stroke="midnightblue" points="185.18,-71.35 194.77,-66.86 184.47,-64.39 185.18,-71.35"/>
</g>
<!-- Node6 -->
<g id="node6" class="node">
<title>Node6</title>
<g id="a_node6"><a xlink:href="classCOMM_1_1List.html#a10c70f9a45d06c2589898cbaf1e4fbf8" target="_top" xlink:title="set mode">
<polygon fill="white" stroke="black" points="211,-0.5 211,-30.5 325,-30.5 325,-0.5 211,-0.5"/>
<text text-anchor="start" x="219" y="-18.5" font-family="FreeSans" font-size="10.00">COMM::List&lt; Tparticle</text>
<text text-anchor="middle" x="268" y="-7.5" font-family="FreeSans" font-size="10.00"> &gt;::setMode</text>
</a>
</g>
</g>
<!-- Node1&#45;&gt;Node6 -->
<g id="edge5" class="edge">
<title>Node1&#45;&gt;Node6</title>
<path fill="none" stroke="midnightblue" d="M110.05,-63.43C134.43,-53.65 169.92,-41.19 201,-31.31"/>
<polygon fill="midnightblue" stroke="midnightblue" points="202.42,-34.53 210.91,-28.2 200.32,-27.85 202.42,-34.53"/>
</g>
<!-- Node1&#45;&gt;Node6 -->
<g id="edge6" class="edge">
<title>Node1&#45;&gt;Node6</title>
<path fill="none" stroke="midnightblue" d="M144.16,-63.43C171.98,-54.64 203.73,-43.64 227.98,-34.29"/>
<polygon fill="midnightblue" stroke="midnightblue" points="229.52,-37.45 237.54,-30.53 226.95,-30.93 229.52,-37.45"/>
</g>
</g>
</svg>
