<?xml version="1.0" encoding="UTF-8" standalone="no"?>
<!DOCTYPE svg PUBLIC "-//W3C//DTD SVG 1.1//EN"
 "http://www.w3.org/Graphics/SVG/1.1/DTD/svg11.dtd">
<!-- Generated by graphviz version 2.38.0 (20140413.2041)
 -->
<!-- Title: H4::TimeStep4th::calcDt2nd Pages: 1 -->
<svg width="445pt" height="39pt"
 viewBox="0.00 0.00 445.00 39.00" xmlns="http://www.w3.org/2000/svg" xmlns:xlink="http://www.w3.org/1999/xlink">
<g id="graph0" class="graph" transform="scale(1 1) rotate(0) translate(4 35)">
<title>H4::TimeStep4th::calcDt2nd</title>
<polygon fill="white" stroke="none" points="-4,4 -4,-35 441,-35 441,4 -4,4"/>
<!-- Node1 -->
<g id="node1" class="node"><title>Node1</title>
<polygon fill="#bfbfbf" stroke="black" points="0,-6 0,-25 137,-25 137,-6 0,-6"/>
<text text-anchor="middle" x="68.5" y="-13" font-family="FreeSans" font-size="10.00">H4::TimeStep4th::calcDt2nd</text>
</g>
<!-- Node2 -->
<g id="node2" class="node"><title>Node2</title>
<g id="a_node2"><a xlink:href="classH4_1_1BlockTimeStep4th.html#a2ce3db7b624e883bece0a0ddc83bc8bc" target="_top" xlink:title="Calculate 2nd order block time step. ">
<polygon fill="white" stroke="black" points="173,-0.5 173,-30.5 286,-30.5 286,-0.5 173,-0.5"/>
<text text-anchor="start" x="181" y="-18.5" font-family="FreeSans" font-size="10.00">H4::BlockTimeStep4th</text>
<text text-anchor="middle" x="229.5" y="-7.5" font-family="FreeSans" font-size="10.00">::calcBlockDt2nd</text>
</a>
</g>
</g>
<!-- Node1&#45;&gt;Node2 -->
<g id="edge1" class="edge"><title>Node1&#45;&gt;Node2</title>
<path fill="none" stroke="midnightblue" d="M147.421,-15.5C155.995,-15.5 164.593,-15.5 172.816,-15.5"/>
<polygon fill="midnightblue" stroke="midnightblue" points="147.392,-12.0001 137.392,-15.5 147.391,-19.0001 147.392,-12.0001"/>
</g>
<!-- Node3 -->
<g id="node3" class="node"><title>Node3</title>
<g id="a_node3"><a xlink:href="classH4_1_1HermiteIntegrator.html#ab37772f7b30dbb9cc6de51bf58a20fae" target="_top" xlink:title="reserve memory for system ">
<polygon fill="white" stroke="black" points="322,-0.5 322,-30.5 437,-30.5 437,-0.5 322,-0.5"/>
<text text-anchor="start" x="330" y="-18.5" font-family="FreeSans" font-size="10.00">H4::HermiteIntegrator</text>
<text text-anchor="middle" x="379.5" y="-7.5" font-family="FreeSans" font-size="10.00">::reserveIntegratorMem</text>
</a>
</g>
</g>
<!-- Node2&#45;&gt;Node3 -->
<g id="edge2" class="edge"><title>Node2&#45;&gt;Node3</title>
<path fill="none" stroke="midnightblue" d="M296.264,-15.5C304.738,-15.5 313.358,-15.5 321.671,-15.5"/>
<polygon fill="midnightblue" stroke="midnightblue" points="296.031,-12.0001 286.031,-15.5 296.031,-19.0001 296.031,-12.0001"/>
</g>
</g>
</svg>
