<?xml version="1.0" encoding="UTF-8" standalone="no"?>
<!DOCTYPE svg PUBLIC "-//W3C//DTD SVG 1.1//EN"
 "http://www.w3.org/Graphics/SVG/1.1/DTD/svg11.dtd">
<!-- Generated by graphviz version 2.38.0 (20140413.2041)
 -->
<!-- Title: COMM::ParticleGroup::isOriginFrame Pages: 1 -->
<svg width="351pt" height="186pt"
 viewBox="0.00 0.00 351.00 186.00" xmlns="http://www.w3.org/2000/svg" xmlns:xlink="http://www.w3.org/1999/xlink">
<g id="graph0" class="graph" transform="scale(1 1) rotate(0) translate(4 182)">
<title>COMM::ParticleGroup::isOriginFrame</title>
<polygon fill="white" stroke="none" points="-4,4 -4,-182 347,-182 347,4 -4,4"/>
<!-- Node1 -->
<g id="node1" class="node"><title>Node1</title>
<polygon fill="#bfbfbf" stroke="black" points="0,-73.5 0,-103.5 111,-103.5 111,-73.5 0,-73.5"/>
<text text-anchor="start" x="8" y="-91.5" font-family="FreeSans" font-size="10.00">COMM::ParticleGroup</text>
<text text-anchor="middle" x="55.5" y="-80.5" font-family="FreeSans" font-size="10.00">::isOriginFrame</text>
</g>
<!-- Node2 -->
<g id="node2" class="node"><title>Node2</title>
<g id="a_node2"><a xlink:href="classAR_1_1TimeTransformedSymplecticIntegrator.html#a4db984abe326fd1a30b3d52f6537e5eb" target="_top" xlink:title="initialization for integration ">
<polygon fill="white" stroke="black" points="166,-147.5 166,-177.5 324,-177.5 324,-147.5 166,-147.5"/>
<text text-anchor="start" x="174" y="-165.5" font-family="FreeSans" font-size="10.00">AR::TimeTransformedSymplectic</text>
<text text-anchor="middle" x="245" y="-154.5" font-family="FreeSans" font-size="10.00">Integrator::initialIntegration</text>
</a>
</g>
</g>
<!-- Node1&#45;&gt;Node2 -->
<g id="edge1" class="edge"><title>Node1&#45;&gt;Node2</title>
<path fill="none" stroke="midnightblue" d="M88.732,-109.02C105.576,-119.034 126.836,-130.594 147,-138.5 155.56,-141.856 164.733,-144.851 173.899,-147.491"/>
<polygon fill="midnightblue" stroke="midnightblue" points="90.2303,-105.836 79.8636,-103.649 86.604,-111.823 90.2303,-105.836"/>
</g>
<!-- Node3 -->
<g id="node3" class="node"><title>Node3</title>
<g id="a_node3"><a xlink:href="classAR_1_1TimeTransformedSymplecticIntegrator.html#ad9d82c4c1565d944c64a1a48961980e6" target="_top" xlink:title="correct CM drift ">
<polygon fill="white" stroke="black" points="159,-98.5 159,-128.5 331,-128.5 331,-98.5 159,-98.5"/>
<text text-anchor="start" x="167" y="-116.5" font-family="FreeSans" font-size="10.00">AR::TimeTransformedSymplectic</text>
<text text-anchor="middle" x="245" y="-105.5" font-family="FreeSans" font-size="10.00">Integrator::correctCenterOfMassDrift</text>
</a>
</g>
</g>
<!-- Node1&#45;&gt;Node3 -->
<g id="edge2" class="edge"><title>Node1&#45;&gt;Node3</title>
<path fill="none" stroke="midnightblue" d="M121.236,-97.1314C133.365,-98.7486 146.213,-100.462 158.85,-102.147"/>
<polygon fill="midnightblue" stroke="midnightblue" points="121.612,-93.6507 111.237,-95.7982 120.686,-100.589 121.612,-93.6507"/>
</g>
<!-- Node4 -->
<g id="node4" class="node"><title>Node4</title>
<g id="a_node4"><a xlink:href="classAR_1_1TimeTransformedSymplecticIntegrator.html#ad24173534adac2b1e58a40de5e525baf" target="_top" xlink:title="write back particles with slowdown velocity ">
<polygon fill="white" stroke="black" points="151,-49.5 151,-79.5 339,-79.5 339,-49.5 151,-49.5"/>
<text text-anchor="start" x="159" y="-67.5" font-family="FreeSans" font-size="10.00">AR::TimeTransformedSymplectic</text>
<text text-anchor="middle" x="245" y="-56.5" font-family="FreeSans" font-size="10.00">Integrator::writeBackSlowDownParticles</text>
</a>
</g>
</g>
<!-- Node1&#45;&gt;Node4 -->
<g id="edge3" class="edge"><title>Node1&#45;&gt;Node4</title>
<path fill="none" stroke="midnightblue" d="M121.357,-80.1983C130.862,-78.9817 140.806,-77.7089 150.742,-76.437"/>
<polygon fill="midnightblue" stroke="midnightblue" points="120.711,-76.7523 111.237,-81.4937 121.6,-83.6956 120.711,-76.7523"/>
</g>
<!-- Node5 -->
<g id="node5" class="node"><title>Node5</title>
<g id="a_node5"><a xlink:href="classAR_1_1TimeTransformedSymplecticIntegrator.html#a0f18041128f371f6c76d87b2684499cb" target="_top" xlink:title="write back particles to original address ">
<polygon fill="white" stroke="black" points="147,-0.5 147,-30.5 343,-30.5 343,-0.5 147,-0.5"/>
<text text-anchor="start" x="155" y="-18.5" font-family="FreeSans" font-size="10.00">AR::TimeTransformedSymplectic</text>
<text text-anchor="middle" x="245" y="-7.5" font-family="FreeSans" font-size="10.00">Integrator::writeBackParticlesOriginFrame</text>
</a>
</g>
</g>
<!-- Node1&#45;&gt;Node5 -->
<g id="edge4" class="edge"><title>Node1&#45;&gt;Node5</title>
<path fill="none" stroke="midnightblue" d="M89.9316,-68.3381C106.633,-58.9019 127.413,-48.096 147,-40.5 156.566,-36.7901 166.875,-33.4624 177.077,-30.5377"/>
<polygon fill="midnightblue" stroke="midnightblue" points="88.032,-65.3929 81.106,-73.4105 91.5202,-71.462 88.032,-65.3929"/>
</g>
</g>
</svg>
