<?xml version="1.0" encoding="UTF-8" standalone="no"?>
<!DOCTYPE svg PUBLIC "-//W3C//DTD SVG 1.1//EN"
 "http://www.w3.org/Graphics/SVG/1.1/DTD/svg11.dtd">
<!-- Generated by graphviz version 2.43.0 (0)
 -->
<!-- Title: AR::SymplecticStep::clear Pages: 1 -->
<svg width="618pt" height="39pt"
 viewBox="0.00 0.00 618.00 39.00" xmlns="http://www.w3.org/2000/svg" xmlns:xlink="http://www.w3.org/1999/xlink">
<g id="graph0" class="graph" transform="scale(1 1) rotate(0) translate(4 35)">
<title>AR::SymplecticStep::clear</title>
<polygon fill="white" stroke="transparent" points="-4,4 -4,-35 614,-35 614,4 -4,4"/>
<!-- Node1 -->
<g id="node1" class="node">
<title>Node1</title>
<g id="a_node1"><a xlink:title="clear function">
<polygon fill="#bfbfbf" stroke="black" points="507,-0.5 507,-30.5 610,-30.5 610,-0.5 507,-0.5"/>
<text text-anchor="start" x="515" y="-18.5" font-family="FreeSans" font-size="10.00">AR::SymplecticStep</text>
<text text-anchor="middle" x="558.5" y="-7.5" font-family="FreeSans" font-size="10.00">::clear</text>
</a>
</g>
</g>
<!-- Node2 -->
<g id="node2" class="node">
<title>Node2</title>
<g id="a_node2"><a xlink:href="classAR_1_1SymplecticStep.html#a3783c763a55a3f197f2914c3c621f020" target="_top" xlink:title="Symplectic coefficients generation for input order.">
<polygon fill="white" stroke="black" points="334,-0.5 334,-30.5 471,-30.5 471,-0.5 334,-0.5"/>
<text text-anchor="start" x="342" y="-18.5" font-family="FreeSans" font-size="10.00">AR::SymplecticStep</text>
<text text-anchor="middle" x="402.5" y="-7.5" font-family="FreeSans" font-size="10.00">::initialSymplecticCofficients</text>
</a>
</g>
</g>
<!-- Node1&#45;&gt;Node2 -->
<g id="edge1" class="edge">
<title>Node1&#45;&gt;Node2</title>
<path fill="none" stroke="midnightblue" d="M496.58,-15.5C488.2,-15.5 479.55,-15.5 471.06,-15.5"/>
<polygon fill="midnightblue" stroke="midnightblue" points="496.65,-19 506.65,-15.5 496.65,-12 496.65,-19"/>
</g>
<!-- Node3 -->
<g id="node3" class="node">
<title>Node3</title>
<g id="a_node3"><a xlink:href="classAR_1_1SymplecticStep.html#a7bd554fb4782da4c8a5b56be01877273" target="_top" xlink:title="read class data with BINARY format and initial the array">
<polygon fill="white" stroke="black" points="195,-0.5 195,-30.5 298,-30.5 298,-0.5 195,-0.5"/>
<text text-anchor="start" x="203" y="-18.5" font-family="FreeSans" font-size="10.00">AR::SymplecticStep</text>
<text text-anchor="middle" x="246.5" y="-7.5" font-family="FreeSans" font-size="10.00">::readBinary</text>
</a>
</g>
</g>
<!-- Node2&#45;&gt;Node3 -->
<g id="edge2" class="edge">
<title>Node2&#45;&gt;Node3</title>
<path fill="none" stroke="midnightblue" d="M323.81,-15.5C315.16,-15.5 306.52,-15.5 298.32,-15.5"/>
<polygon fill="midnightblue" stroke="midnightblue" points="323.95,-19 333.95,-15.5 323.95,-12 323.95,-19"/>
</g>
<!-- Node4 -->
<g id="node4" class="node">
<title>Node4</title>
<g id="a_node4"><a xlink:href="classAR_1_1TimeTransformedSymplecticManager.html#a3c558e76724b4c39c65c9d1bc53f927e" target="_top" xlink:title="read class data with BINARY format and initial the array">
<polygon fill="white" stroke="black" points="0,-0.5 0,-30.5 159,-30.5 159,-0.5 0,-0.5"/>
<text text-anchor="start" x="8" y="-18.5" font-family="FreeSans" font-size="10.00">AR::TimeTransformedSymplectic</text>
<text text-anchor="middle" x="79.5" y="-7.5" font-family="FreeSans" font-size="10.00">Manager&lt; TARacc &gt;::readBinary</text>
</a>
</g>
</g>
<!-- Node3&#45;&gt;Node4 -->
<g id="edge3" class="edge">
<title>Node3&#45;&gt;Node4</title>
<path fill="none" stroke="midnightblue" d="M184.39,-15.5C176.15,-15.5 167.6,-15.5 159.1,-15.5"/>
<polygon fill="midnightblue" stroke="midnightblue" points="184.65,-19 194.65,-15.5 184.65,-12 184.65,-19"/>
</g>
</g>
</svg>
