<?xml version="1.0" encoding="UTF-8" standalone="no"?>
<!DOCTYPE svg PUBLIC "-//W3C//DTD SVG 1.1//EN"
 "http://www.w3.org/Graphics/SVG/1.1/DTD/svg11.dtd">
<!-- Generated by graphviz version 2.38.0 (20140413.2041)
 -->
<!-- Title: AR::Information&lt; Tparticle, Tpcm &gt; Pages: 1 -->
<svg width="204pt" height="319pt"
 viewBox="0.00 0.00 203.50 319.00" xmlns="http://www.w3.org/2000/svg" xmlns:xlink="http://www.w3.org/1999/xlink">
<g id="graph0" class="graph" transform="scale(1 1) rotate(0) translate(4 315)">
<title>AR::Information&lt; Tparticle, Tpcm &gt;</title>
<polygon fill="white" stroke="none" points="-4,4 -4,-315 199.5,-315 199.5,4 -4,4"/>
<!-- Node1 -->
<g id="node1" class="node"><title>Node1</title>
<polygon fill="#bfbfbf" stroke="black" points="10,-0.5 10,-30.5 142,-30.5 142,-0.5 10,-0.5"/>
<text text-anchor="start" x="18" y="-18.5" font-family="FreeSans" font-size="10.00">AR::Information&lt; Tparticle,</text>
<text text-anchor="middle" x="76" y="-7.5" font-family="FreeSans" font-size="10.00"> Tpcm &gt;</text>
</g>
<!-- Node2 -->
<g id="node2" class="node"><title>Node2</title>
<g id="a_node2"><a xlink:href="classCOMM_1_1List.html" target="_top" xlink:title="COMM::List\&lt; COMM::Binary\lTree\&lt; Tparticle \&gt; \&gt;">
<polygon fill="white" stroke="black" points="7.5,-78.5 7.5,-108.5 144.5,-108.5 144.5,-78.5 7.5,-78.5"/>
<text text-anchor="start" x="15.5" y="-96.5" font-family="FreeSans" font-size="10.00">COMM::List&lt; COMM::Binary</text>
<text text-anchor="middle" x="76" y="-85.5" font-family="FreeSans" font-size="10.00">Tree&lt; Tparticle &gt; &gt;</text>
</a>
</g>
</g>
<!-- Node2&#45;&gt;Node1 -->
<g id="edge1" class="edge"><title>Node2&#45;&gt;Node1</title>
<path fill="none" stroke="#9a32cd" stroke-dasharray="5,2" d="M76,-68.0898C76,-55.7565 76,-41.2237 76,-30.7309"/>
<polygon fill="#9a32cd" stroke="#9a32cd" points="72.5001,-68.2049 76,-78.205 79.5001,-68.205 72.5001,-68.2049"/>
<text text-anchor="middle" x="98.5" y="-52" font-family="FreeSans" font-size="10.00"> binarytree</text>
</g>
<!-- Node3 -->
<g id="node3" class="node"><title>Node3</title>
<g id="a_node3"><a xlink:href="classCOMM_1_1BinaryTree.html" target="_top" xlink:title="COMM::BinaryTree\&lt; Tparticle \&gt;">
<polygon fill="white" stroke="black" points="0,-167.5 0,-186.5 152,-186.5 152,-167.5 0,-167.5"/>
<text text-anchor="middle" x="76" y="-174.5" font-family="FreeSans" font-size="10.00">COMM::BinaryTree&lt; Tparticle &gt;</text>
</a>
</g>
</g>
<!-- Node3&#45;&gt;Node2 -->
<g id="edge2" class="edge"><title>Node3&#45;&gt;Node2</title>
<path fill="none" stroke="#9a32cd" stroke-dasharray="5,2" d="M76,-157.229C76,-142.408 76,-122.051 76,-108.597"/>
<polygon fill="#9a32cd" stroke="#9a32cd" points="72.5001,-157.278 76,-167.278 79.5001,-157.278 72.5001,-157.278"/>
<text text-anchor="middle" x="88.5" y="-141" font-family="FreeSans" font-size="10.00"> adr_</text>
<text text-anchor="middle" x="88.5" y="-130" font-family="FreeSans" font-size="10.00">data_</text>
</g>
<!-- Node4 -->
<g id="node4" class="node"><title>Node4</title>
<polygon fill="white" stroke="#bfbfbf" points="22,-224.5 22,-243.5 76,-243.5 76,-224.5 22,-224.5"/>
<text text-anchor="middle" x="49" y="-231.5" font-family="FreeSans" font-size="10.00">Tparticle</text>
</g>
<!-- Node4&#45;&gt;Node3 -->
<g id="edge3" class="edge"><title>Node4&#45;&gt;Node3</title>
<path fill="none" stroke="midnightblue" d="M57.6724,-215.334C62.3675,-205.77 67.9597,-194.378 71.7218,-186.715"/>
<polygon fill="midnightblue" stroke="midnightblue" points="54.4837,-213.887 53.2188,-224.406 60.7674,-216.972 54.4837,-213.887"/>
</g>
<!-- Node5 -->
<g id="node5" class="node"><title>Node5</title>
<g id="a_node5"><a xlink:href="classCOMM_1_1Binary.html" target="_top" xlink:title="Binary parameter class. ">
<polygon fill="white" stroke="black" points="94.5,-224.5 94.5,-243.5 173.5,-243.5 173.5,-224.5 94.5,-224.5"/>
<text text-anchor="middle" x="134" y="-231.5" font-family="FreeSans" font-size="10.00">COMM::Binary</text>
</a>
</g>
</g>
<!-- Node5&#45;&gt;Node3 -->
<g id="edge4" class="edge"><title>Node5&#45;&gt;Node3</title>
<path fill="none" stroke="midnightblue" d="M117.566,-217.416C107.076,-207.469 93.8672,-194.943 85.1903,-186.715"/>
<polygon fill="midnightblue" stroke="midnightblue" points="115.273,-220.065 124.938,-224.406 120.09,-214.986 115.273,-220.065"/>
</g>
<!-- Node6 -->
<g id="node6" class="node"><title>Node6</title>
<g id="a_node6"><a xlink:href="classCOMM_1_1Vector3.html" target="_top" xlink:title="COMM::Vector3\&lt; Float \&gt;">
<polygon fill="white" stroke="black" points="72.5,-291.5 72.5,-310.5 195.5,-310.5 195.5,-291.5 72.5,-291.5"/>
<text text-anchor="middle" x="134" y="-298.5" font-family="FreeSans" font-size="10.00">COMM::Vector3&lt; Float &gt;</text>
</a>
</g>
</g>
<!-- Node6&#45;&gt;Node5 -->
<g id="edge5" class="edge"><title>Node6&#45;&gt;Node5</title>
<path fill="none" stroke="#9a32cd" stroke-dasharray="5,2" d="M134,-281.037C134,-268.67 134,-253.12 134,-243.627"/>
<polygon fill="#9a32cd" stroke="#9a32cd" points="130.5,-281.234 134,-291.234 137.5,-281.234 130.5,-281.234"/>
<text text-anchor="middle" x="142" y="-265" font-family="FreeSans" font-size="10.00"> am</text>
</g>
</g>
</svg>
