<?xml version="1.0" encoding="UTF-8" standalone="no"?>
<!DOCTYPE svg PUBLIC "-//W3C//DTD SVG 1.1//EN"
 "http://www.w3.org/Graphics/SVG/1.1/DTD/svg11.dtd">
<!-- Generated by graphviz version 2.43.0 (0)
 -->
<!-- Title: H4::HermiteManager&lt; Tmethod &gt; Pages: 1 -->
<svg width="122pt" height="163pt"
 viewBox="0.00 0.00 122.00 163.00" xmlns="http://www.w3.org/2000/svg" xmlns:xlink="http://www.w3.org/1999/xlink">
<g id="graph0" class="graph" transform="scale(1 1) rotate(0) translate(4 159)">
<title>H4::HermiteManager&lt; Tmethod &gt;</title>
<polygon fill="white" stroke="transparent" points="-4,4 -4,-159 118,-159 118,4 -4,4"/>
<!-- Node1 -->
<g id="node1" class="node">
<title>Node1</title>
<g id="a_node1"><a xlink:title="Hermite manager class.">
<polygon fill="#bfbfbf" stroke="black" points="4,-0.5 4,-30.5 110,-30.5 110,-0.5 4,-0.5"/>
<text text-anchor="start" x="12" y="-18.5" font-family="FreeSans" font-size="10.00">H4::HermiteManager</text>
<text text-anchor="middle" x="57" y="-7.5" font-family="FreeSans" font-size="10.00">&lt; Tmethod &gt;</text>
</a>
</g>
</g>
<!-- Node2 -->
<g id="node2" class="node">
<title>Node2</title>
<g id="a_node2"><a xlink:href="classH4_1_1BlockTimeStep4th.html" target="_top" xlink:title=" ">
<polygon fill="white" stroke="black" points="0,-78.5 0,-97.5 114,-97.5 114,-78.5 0,-78.5"/>
<text text-anchor="middle" x="57" y="-85.5" font-family="FreeSans" font-size="10.00">H4::BlockTimeStep4th</text>
</a>
</g>
</g>
<!-- Node2&#45;&gt;Node1 -->
<g id="edge1" class="edge">
<title>Node2&#45;&gt;Node1</title>
<path fill="none" stroke="#9a32cd" stroke-dasharray="5,2" d="M57,-68.24C57,-56.41 57,-41.38 57,-30.58"/>
<polygon fill="#9a32cd" stroke="#9a32cd" points="53.5,-68.36 57,-78.36 60.5,-68.36 53.5,-68.36"/>
<text text-anchor="middle" x="68" y="-52" font-family="FreeSans" font-size="10.00"> step</text>
</g>
<!-- Node3 -->
<g id="node3" class="node">
<title>Node3</title>
<g id="a_node3"><a xlink:href="classH4_1_1TimeStep4th.html" target="_top" xlink:title=" ">
<polygon fill="white" stroke="black" points="12.5,-135.5 12.5,-154.5 101.5,-154.5 101.5,-135.5 12.5,-135.5"/>
<text text-anchor="middle" x="57" y="-142.5" font-family="FreeSans" font-size="10.00">H4::TimeStep4th</text>
</a>
</g>
</g>
<!-- Node3&#45;&gt;Node2 -->
<g id="edge2" class="edge">
<title>Node3&#45;&gt;Node2</title>
<path fill="none" stroke="midnightblue" d="M57,-125.12C57,-115.82 57,-105.06 57,-97.71"/>
<polygon fill="midnightblue" stroke="midnightblue" points="53.5,-125.41 57,-135.41 60.5,-125.41 53.5,-125.41"/>
</g>
</g>
</svg>
