<?xml version="1.0" encoding="UTF-8" standalone="no"?>
<!DOCTYPE svg PUBLIC "-//W3C//DTD SVG 1.1//EN"
 "http://www.w3.org/Graphics/SVG/1.1/DTD/svg11.dtd">
<!-- Generated by graphviz version 2.38.0 (20140413.2041)
 -->
<!-- Title: H4::TimeStep4th::calcDt4th Pages: 1 -->
<svg width="442pt" height="39pt"
 viewBox="0.00 0.00 442.00 39.00" xmlns="http://www.w3.org/2000/svg" xmlns:xlink="http://www.w3.org/1999/xlink">
<g id="graph0" class="graph" transform="scale(1 1) rotate(0) translate(4 35)">
<title>H4::TimeStep4th::calcDt4th</title>
<polygon fill="white" stroke="none" points="-4,4 -4,-35 438,-35 438,4 -4,4"/>
<!-- Node1 -->
<g id="node1" class="node"><title>Node1</title>
<polygon fill="#bfbfbf" stroke="black" points="0,-6 0,-25 134,-25 134,-6 0,-6"/>
<text text-anchor="middle" x="67" y="-13" font-family="FreeSans" font-size="10.00">H4::TimeStep4th::calcDt4th</text>
</g>
<!-- Node2 -->
<g id="node2" class="node"><title>Node2</title>
<g id="a_node2"><a xlink:href="classH4_1_1BlockTimeStep4th.html#ab1f08407cdb06b16cf8f6316a1524394" target="_top" xlink:title="Calculate 4th order block time step. ">
<polygon fill="white" stroke="black" points="170,-0.5 170,-30.5 283,-30.5 283,-0.5 170,-0.5"/>
<text text-anchor="start" x="178" y="-18.5" font-family="FreeSans" font-size="10.00">H4::BlockTimeStep4th</text>
<text text-anchor="middle" x="226.5" y="-7.5" font-family="FreeSans" font-size="10.00">::calcBlockDt4th</text>
</a>
</g>
</g>
<!-- Node1&#45;&gt;Node2 -->
<g id="edge1" class="edge"><title>Node1&#45;&gt;Node2</title>
<path fill="none" stroke="midnightblue" d="M144.613,-15.5C153.072,-15.5 161.564,-15.5 169.698,-15.5"/>
<polygon fill="midnightblue" stroke="midnightblue" points="144.338,-12.0001 134.338,-15.5 144.338,-19.0001 144.338,-12.0001"/>
</g>
<!-- Node3 -->
<g id="node3" class="node"><title>Node3</title>
<g id="a_node3"><a xlink:href="classH4_1_1HermiteIntegrator.html#ab37772f7b30dbb9cc6de51bf58a20fae" target="_top" xlink:title="reserve memory for system ">
<polygon fill="white" stroke="black" points="319,-0.5 319,-30.5 434,-30.5 434,-0.5 319,-0.5"/>
<text text-anchor="start" x="327" y="-18.5" font-family="FreeSans" font-size="10.00">H4::HermiteIntegrator</text>
<text text-anchor="middle" x="376.5" y="-7.5" font-family="FreeSans" font-size="10.00">::reserveIntegratorMem</text>
</a>
</g>
</g>
<!-- Node2&#45;&gt;Node3 -->
<g id="edge2" class="edge"><title>Node2&#45;&gt;Node3</title>
<path fill="none" stroke="midnightblue" d="M293.264,-15.5C301.738,-15.5 310.358,-15.5 318.671,-15.5"/>
<polygon fill="midnightblue" stroke="midnightblue" points="293.031,-12.0001 283.031,-15.5 293.031,-19.0001 293.031,-12.0001"/>
</g>
</g>
</svg>
