<?xml version="1.0" encoding="UTF-8" standalone="no"?>
<!DOCTYPE svg PUBLIC "-//W3C//DTD SVG 1.1//EN"
 "http://www.w3.org/Graphics/SVG/1.1/DTD/svg11.dtd">
<!-- Generated by graphviz version 2.38.0 (20140413.2041)
 -->
<!-- Title: COMM::ParticleGroup&lt; Tparticle, Tpcm &gt; Pages: 1 -->
<svg width="188pt" height="106pt"
 viewBox="0.00 0.00 188.00 106.00" xmlns="http://www.w3.org/2000/svg" xmlns:xlink="http://www.w3.org/1999/xlink">
<g id="graph0" class="graph" transform="scale(1 1) rotate(0) translate(4 102)">
<title>COMM::ParticleGroup&lt; Tparticle, Tpcm &gt;</title>
<polygon fill="white" stroke="none" points="-4,4 -4,-102 184,-102 184,4 -4,4"/>
<!-- Node1 -->
<g id="node1" class="node"><title>Node1</title>
<polygon fill="#bfbfbf" stroke="black" points="54,-0.5 54,-30.5 165,-30.5 165,-0.5 54,-0.5"/>
<text text-anchor="start" x="62" y="-18.5" font-family="FreeSans" font-size="10.00">COMM::ParticleGroup</text>
<text text-anchor="middle" x="109.5" y="-7.5" font-family="FreeSans" font-size="10.00">&lt; Tparticle, Tpcm &gt;</text>
</g>
<!-- Node2 -->
<g id="node2" class="node"><title>Node2</title>
<g id="a_node2"><a xlink:href="classCOMM_1_1List.html" target="_top" xlink:title="COMM::List\&lt; Tparticle \&gt;">
<polygon fill="white" stroke="black" points="0,-78.5 0,-97.5 121,-97.5 121,-78.5 0,-78.5"/>
<text text-anchor="middle" x="60.5" y="-85.5" font-family="FreeSans" font-size="10.00">COMM::List&lt; Tparticle &gt;</text>
</a>
</g>
</g>
<!-- Node2&#45;&gt;Node1 -->
<g id="edge1" class="edge"><title>Node2&#45;&gt;Node1</title>
<path fill="none" stroke="midnightblue" d="M72.2886,-70.0389C80.6782,-57.968 91.8183,-41.94 99.7166,-30.5762"/>
<polygon fill="midnightblue" stroke="midnightblue" points="69.3416,-68.1463 66.5084,-78.3553 75.0896,-72.1414 69.3416,-68.1463"/>
</g>
<!-- Node3 -->
<g id="node3" class="node"><title>Node3</title>
<polygon fill="white" stroke="#bfbfbf" points="139,-78.5 139,-97.5 180,-97.5 180,-78.5 139,-78.5"/>
<text text-anchor="middle" x="159.5" y="-85.5" font-family="FreeSans" font-size="10.00">Tpcm</text>
</g>
<!-- Node3&#45;&gt;Node1 -->
<g id="edge2" class="edge"><title>Node3&#45;&gt;Node1</title>
<path fill="none" stroke="#9a32cd" stroke-dasharray="5,2" d="M147.471,-70.0389C138.91,-57.968 127.543,-41.94 119.483,-30.5762"/>
<polygon fill="#9a32cd" stroke="#9a32cd" points="144.729,-72.2232 153.369,-78.3553 150.439,-68.1737 144.729,-72.2232"/>
<text text-anchor="middle" x="146.5" y="-52" font-family="FreeSans" font-size="10.00"> cm</text>
</g>
</g>
</svg>
