<?xml version="1.0" encoding="UTF-8" standalone="no"?>
<!DOCTYPE svg PUBLIC "-//W3C//DTD SVG 1.1//EN"
 "http://www.w3.org/Graphics/SVG/1.1/DTD/svg11.dtd">
<!-- Generated by graphviz version 2.43.0 (0)
 -->
<!-- Title: AR::TimeTransformedSymplecticIntegrator::initialIntegration Pages: 1 -->
<svg width="349pt" height="421pt"
 viewBox="0.00 0.00 349.00 421.00" xmlns="http://www.w3.org/2000/svg" xmlns:xlink="http://www.w3.org/1999/xlink">
<g id="graph0" class="graph" transform="scale(1 1) rotate(0) translate(4 417)">
<title>AR::TimeTransformedSymplecticIntegrator::initialIntegration</title>
<polygon fill="white" stroke="transparent" points="-4,4 -4,-417 345,-417 345,4 -4,4"/>
<!-- Node1 -->
<g id="node1" class="node">
<title>Node1</title>
<g id="a_node1"><a xlink:title="initialization for integration">
<polygon fill="#bfbfbf" stroke="black" points="0,-210.5 0,-240.5 159,-240.5 159,-210.5 0,-210.5"/>
<text text-anchor="start" x="8" y="-228.5" font-family="FreeSans" font-size="10.00">AR::TimeTransformedSymplectic</text>
<text text-anchor="middle" x="79.5" y="-217.5" font-family="FreeSans" font-size="10.00">Integrator::initialIntegration</text>
</a>
</g>
</g>
<!-- Node2 -->
<g id="node2" class="node">
<title>Node2</title>
<g id="a_node2"><a xlink:href="classCOMM_1_1ParticleGroup.html#ae6aeae77c0ba7d3fe9a48e55c8db4c82" target="_top" xlink:title="calculate center&#45;of&#45;mass">
<polygon fill="white" stroke="black" points="212.5,-382.5 212.5,-412.5 323.5,-412.5 323.5,-382.5 212.5,-382.5"/>
<text text-anchor="start" x="220.5" y="-400.5" font-family="FreeSans" font-size="10.00">COMM::ParticleGroup</text>
<text text-anchor="middle" x="268" y="-389.5" font-family="FreeSans" font-size="10.00">::calcCenterOfMass</text>
</a>
</g>
</g>
<!-- Node1&#45;&gt;Node2 -->
<g id="edge1" class="edge">
<title>Node1&#45;&gt;Node2</title>
<path fill="none" stroke="midnightblue" d="M88.35,-240.92C104.35,-270.84 143.6,-337.03 195,-373.5 197.55,-375.31 200.25,-376.99 203.04,-378.55"/>
<polygon fill="midnightblue" stroke="midnightblue" points="201.72,-381.8 212.23,-383.13 204.84,-375.54 201.72,-381.8"/>
</g>
<!-- Node3 -->
<g id="node3" class="node">
<title>Node3</title>
<g id="a_node3"><a xlink:href="classCOMM_1_1List.html#ad6c06deee95952a09db820733ea428f9" target="_top" xlink:title="return member data array address">
<polygon fill="white" stroke="black" points="211,-333.5 211,-363.5 325,-363.5 325,-333.5 211,-333.5"/>
<text text-anchor="start" x="219" y="-351.5" font-family="FreeSans" font-size="10.00">COMM::List&lt; Tparticle</text>
<text text-anchor="middle" x="268" y="-340.5" font-family="FreeSans" font-size="10.00"> &gt;::getDataAddress</text>
</a>
</g>
</g>
<!-- Node1&#45;&gt;Node3 -->
<g id="edge2" class="edge">
<title>Node1&#45;&gt;Node3</title>
<path fill="none" stroke="midnightblue" d="M100.51,-240.51C121.98,-260.39 158,-294.45 195,-315.5 205.27,-321.35 217.19,-326.04 228.34,-330.06"/>
<polygon fill="midnightblue" stroke="midnightblue" points="227.28,-333.4 237.87,-333.44 229.61,-326.8 227.28,-333.4"/>
</g>
<!-- Node1&#45;&gt;Node3 -->
<g id="edge3" class="edge">
<title>Node1&#45;&gt;Node3</title>
<path fill="none" stroke="midnightblue" d="M89.6,-240.75C107.78,-264.43 150.69,-308.29 195,-333.5 197,-334.64 199.06,-335.73 201.17,-336.78"/>
<polygon fill="midnightblue" stroke="midnightblue" points="200.09,-340.13 210.64,-341.08 202.98,-333.76 200.09,-340.13"/>
</g>
<!-- Node4 -->
<g id="node4" class="node">
<title>Node4</title>
<g id="a_node4"><a xlink:href="classCOMM_1_1List.html#a929bb5bdaaa7ce70d872ae0c758c77ae" target="_top" xlink:title="get current member number">
<polygon fill="white" stroke="black" points="211,-284.5 211,-314.5 325,-314.5 325,-284.5 211,-284.5"/>
<text text-anchor="start" x="219" y="-302.5" font-family="FreeSans" font-size="10.00">COMM::List&lt; Tparticle</text>
<text text-anchor="middle" x="268" y="-291.5" font-family="FreeSans" font-size="10.00"> &gt;::getSize</text>
</a>
</g>
</g>
<!-- Node1&#45;&gt;Node4 -->
<g id="edge4" class="edge">
<title>Node1&#45;&gt;Node4</title>
<path fill="none" stroke="midnightblue" d="M112.75,-240.51C135.52,-250.88 166.85,-264.69 195,-275.5 200,-277.42 205.22,-279.33 210.47,-281.2"/>
<polygon fill="midnightblue" stroke="midnightblue" points="209.32,-284.5 219.92,-284.48 211.63,-277.89 209.32,-284.5"/>
</g>
<!-- Node5 -->
<g id="node5" class="node">
<title>Node5</title>
<g id="a_node5"><a xlink:href="classCOMM_1_1List.html#a610a134731844b13df4b22ef0d9ad603" target="_top" xlink:title="increase size without initialization">
<polygon fill="white" stroke="black" points="204,-235.5 204,-265.5 332,-265.5 332,-235.5 204,-235.5"/>
<text text-anchor="start" x="212" y="-253.5" font-family="FreeSans" font-size="10.00">COMM::List::increaseSize</text>
<text text-anchor="middle" x="268" y="-242.5" font-family="FreeSans" font-size="10.00">NoInitialize</text>
</a>
</g>
</g>
<!-- Node1&#45;&gt;Node5 -->
<g id="edge5" class="edge">
<title>Node1&#45;&gt;Node5</title>
<path fill="none" stroke="midnightblue" d="M159.05,-236.03C170.6,-237.58 182.46,-239.17 193.89,-240.7"/>
<polygon fill="midnightblue" stroke="midnightblue" points="193.44,-244.17 203.81,-242.03 194.37,-237.23 193.44,-244.17"/>
</g>
<!-- Node6 -->
<g id="node6" class="node">
<title>Node6</title>
<g id="a_node6"><a xlink:href="classAR_1_1SlowDown.html#ab9436a956d9925171387b0cfe4ffbb0f" target="_top" xlink:title="initialize slow&#45;down parameters">
<polygon fill="white" stroke="black" points="203,-186.5 203,-216.5 333,-216.5 333,-186.5 203,-186.5"/>
<text text-anchor="start" x="211" y="-204.5" font-family="FreeSans" font-size="10.00">AR::SlowDown::initialSlow</text>
<text text-anchor="middle" x="268" y="-193.5" font-family="FreeSans" font-size="10.00">DownReference</text>
</a>
</g>
</g>
<!-- Node1&#45;&gt;Node6 -->
<g id="edge6" class="edge">
<title>Node1&#45;&gt;Node6</title>
<path fill="none" stroke="midnightblue" d="M159.05,-215.39C170.26,-213.95 181.75,-212.47 192.87,-211.04"/>
<polygon fill="midnightblue" stroke="midnightblue" points="193.48,-214.49 202.95,-209.74 192.58,-207.55 193.48,-214.49"/>
</g>
<!-- Node7 -->
<g id="node7" class="node">
<title>Node7</title>
<g id="a_node7"><a xlink:href="classCOMM_1_1ParticleGroup.html#a26f8bf8385483a36a879c846aa1a1719" target="_top" xlink:title="return true if the system is the in their origin frame">
<polygon fill="white" stroke="black" points="212.5,-137.5 212.5,-167.5 323.5,-167.5 323.5,-137.5 212.5,-137.5"/>
<text text-anchor="start" x="220.5" y="-155.5" font-family="FreeSans" font-size="10.00">COMM::ParticleGroup</text>
<text text-anchor="middle" x="268" y="-144.5" font-family="FreeSans" font-size="10.00">::isOriginFrame</text>
</a>
</g>
</g>
<!-- Node1&#45;&gt;Node7 -->
<g id="edge7" class="edge">
<title>Node1&#45;&gt;Node7</title>
<path fill="none" stroke="midnightblue" d="M114.84,-210.44C137.47,-200.68 167.82,-187.9 195,-177.5 200.76,-175.3 206.8,-173.07 212.85,-170.89"/>
<polygon fill="midnightblue" stroke="midnightblue" points="214.04,-174.18 222.29,-167.54 211.69,-167.59 214.04,-174.18"/>
</g>
<!-- Node8 -->
<g id="node8" class="node">
<title>Node8</title>
<g id="a_node8"><a xlink:href="classCOMM_1_1List.html#a0f3dd09ceff0ce9b3ffd15f48a9ea9c4" target="_top" xlink:title="increase size without initialization">
<polygon fill="white" stroke="black" points="195,-99 195,-118 341,-118 341,-99 195,-99"/>
<text text-anchor="middle" x="268" y="-106" font-family="FreeSans" font-size="10.00">COMM::List::resizeNoInitialize</text>
</a>
</g>
</g>
<!-- Node1&#45;&gt;Node8 -->
<g id="edge8" class="edge">
<title>Node1&#45;&gt;Node8</title>
<path fill="none" stroke="midnightblue" d="M94.16,-210.37C114.23,-189.05 153.78,-150.32 195,-128.5 200.14,-125.78 205.69,-123.4 211.35,-121.32"/>
<polygon fill="midnightblue" stroke="midnightblue" points="212.55,-124.61 220.92,-118.1 210.32,-117.97 212.55,-124.61"/>
</g>
<!-- Node9 -->
<g id="node9" class="node">
<title>Node9</title>
<g id="a_node9"><a xlink:href="classCOMM_1_1List.html#afe063c29e3ae8df95f65db67d7d8ba81" target="_top" xlink:title="Reset modified status to false.">
<polygon fill="white" stroke="black" points="211,-49.5 211,-79.5 325,-79.5 325,-49.5 211,-49.5"/>
<text text-anchor="start" x="219" y="-67.5" font-family="FreeSans" font-size="10.00">COMM::List&lt; Tparticle</text>
<text text-anchor="middle" x="268" y="-56.5" font-family="FreeSans" font-size="10.00"> &gt;::setModifiedFalse</text>
</a>
</g>
</g>
<!-- Node1&#45;&gt;Node9 -->
<g id="edge9" class="edge">
<title>Node1&#45;&gt;Node9</title>
<path fill="none" stroke="midnightblue" d="M89.5,-210.11C106.6,-182.17 146.43,-122.91 195,-89.5 197.87,-87.53 200.9,-85.7 204.05,-84"/>
<polygon fill="midnightblue" stroke="midnightblue" points="205.68,-87.1 213.13,-79.56 202.61,-80.81 205.68,-87.1"/>
</g>
<!-- Node10 -->
<g id="node10" class="node">
<title>Node10</title>
<g id="a_node10"><a xlink:href="classCOMM_1_1ParticleGroup.html#a46a5186631babb11c1be415ba740315d" target="_top" xlink:title="shift particle to their c.m. frame">
<polygon fill="white" stroke="black" points="197,-0.5 197,-30.5 339,-30.5 339,-0.5 197,-0.5"/>
<text text-anchor="start" x="205" y="-18.5" font-family="FreeSans" font-size="10.00">COMM::ParticleGroup</text>
<text text-anchor="middle" x="268" y="-7.5" font-family="FreeSans" font-size="10.00">::shiftToCenterOfMassFrame</text>
</a>
</g>
</g>
<!-- Node1&#45;&gt;Node10 -->
<g id="edge10" class="edge">
<title>Node1&#45;&gt;Node10</title>
<path fill="none" stroke="midnightblue" d="M85.78,-210.39C98.77,-175.38 135.6,-88.08 195,-40.5 197.28,-38.68 199.69,-36.98 202.21,-35.41"/>
<polygon fill="midnightblue" stroke="midnightblue" points="204.03,-38.4 211.09,-30.51 200.65,-32.27 204.03,-38.4"/>
</g>
</g>
</svg>
