<?xml version="1.0" encoding="UTF-8" standalone="no"?>
<!DOCTYPE svg PUBLIC "-//W3C//DTD SVG 1.1//EN"
 "http://www.w3.org/Graphics/SVG/1.1/DTD/svg11.dtd">
<!-- Generated by graphviz version 2.43.0 (0)
 -->
<!-- Title: H4::HermiteIntegrator::calcEnergySlowDown Pages: 1 -->
<svg width="443pt" height="214pt"
 viewBox="0.00 0.00 443.00 214.00" xmlns="http://www.w3.org/2000/svg" xmlns:xlink="http://www.w3.org/1999/xlink">
<g id="graph0" class="graph" transform="scale(1 1) rotate(0) translate(4 210)">
<title>H4::HermiteIntegrator::calcEnergySlowDown</title>
<polygon fill="white" stroke="transparent" points="-4,4 -4,-210 439,-210 439,4 -4,4"/>
<!-- Node1 -->
<g id="node1" class="node">
<title>Node1</title>
<g id="a_node1"><a xlink:title="calculate slowdown energy">
<polygon fill="#bfbfbf" stroke="black" points="0,-93.5 0,-123.5 115,-123.5 115,-93.5 0,-93.5"/>
<text text-anchor="start" x="8" y="-111.5" font-family="FreeSans" font-size="10.00">H4::HermiteIntegrator</text>
<text text-anchor="middle" x="57.5" y="-100.5" font-family="FreeSans" font-size="10.00">::calcEnergySlowDown</text>
</a>
</g>
</g>
<!-- Node2 -->
<g id="node2" class="node">
<title>Node2</title>
<g id="a_node2"><a xlink:href="classH4_1_1HermiteIntegrator.html#a410704caed145bb7191651ce059ee8c0" target="_top" xlink:title="correct Etot slowdown reference due to the groups change">
<polygon fill="white" stroke="black" points="151,-175.5 151,-205.5 294,-205.5 294,-175.5 151,-175.5"/>
<text text-anchor="start" x="159" y="-193.5" font-family="FreeSans" font-size="10.00">H4::HermiteIntegrator</text>
<text text-anchor="middle" x="222.5" y="-182.5" font-family="FreeSans" font-size="10.00">::accumDESlowDownChange</text>
</a>
</g>
</g>
<!-- Node1&#45;&gt;Node2 -->
<g id="edge1" class="edge">
<title>Node1&#45;&gt;Node2</title>
<path fill="none" stroke="midnightblue" d="M83.62,-123.61C102,-134.42 127.69,-149.03 151,-160.5 158.55,-164.21 166.67,-167.92 174.62,-171.41"/>
<polygon fill="midnightblue" stroke="midnightblue" points="173.27,-174.63 183.83,-175.37 176.04,-168.2 173.27,-174.63"/>
</g>
<!-- Node3 -->
<g id="node3" class="node">
<title>Node3</title>
<g id="a_node3"><a xlink:href="classCOMM_1_1List.html#a929bb5bdaaa7ce70d872ae0c758c77ae" target="_top" xlink:title="get current member number">
<polygon fill="white" stroke="black" points="330,-137 330,-156 435,-156 435,-137 330,-137"/>
<text text-anchor="middle" x="382.5" y="-144" font-family="FreeSans" font-size="10.00">COMM::List::getSize</text>
</a>
</g>
</g>
<!-- Node1&#45;&gt;Node3 -->
<g id="edge5" class="edge">
<title>Node1&#45;&gt;Node3</title>
<path fill="none" stroke="midnightblue" d="M115.06,-121.24C126.89,-123.59 139.32,-125.82 151,-127.5 207.72,-135.63 272.83,-140.6 319.35,-143.41"/>
<polygon fill="midnightblue" stroke="midnightblue" points="319.39,-146.92 329.58,-144.01 319.8,-139.93 319.39,-146.92"/>
</g>
<!-- Node4 -->
<g id="node4" class="node">
<title>Node4</title>
<g id="a_node4"><a xlink:href="classCOMM_1_1List.html#ad6c06deee95952a09db820733ea428f9" target="_top" xlink:title="return member data array address">
<polygon fill="white" stroke="black" points="151,-99 151,-118 294,-118 294,-99 151,-99"/>
<text text-anchor="middle" x="222.5" y="-106" font-family="FreeSans" font-size="10.00">COMM::List::getDataAddress</text>
</a>
</g>
</g>
<!-- Node1&#45;&gt;Node4 -->
<g id="edge3" class="edge">
<title>Node1&#45;&gt;Node4</title>
<path fill="none" stroke="midnightblue" d="M115.05,-108.5C123.38,-108.5 132.09,-108.5 140.79,-108.5"/>
<polygon fill="midnightblue" stroke="midnightblue" points="140.97,-112 150.97,-108.5 140.97,-105 140.97,-112"/>
</g>
<!-- Node5 -->
<g id="node5" class="node">
<title>Node5</title>
<g id="a_node5"><a xlink:href="structH4_1_1HermiteEnergy.html#a6bdafc9006735804870117f62e9431b9" target="_top" xlink:title="calc total energy">
<polygon fill="white" stroke="black" points="171.5,-49.5 171.5,-79.5 273.5,-79.5 273.5,-49.5 171.5,-49.5"/>
<text text-anchor="start" x="179.5" y="-67.5" font-family="FreeSans" font-size="10.00">H4::HermiteEnergy::</text>
<text text-anchor="middle" x="222.5" y="-56.5" font-family="FreeSans" font-size="10.00">getEtot</text>
</a>
</g>
</g>
<!-- Node1&#45;&gt;Node5 -->
<g id="edge4" class="edge">
<title>Node1&#45;&gt;Node5</title>
<path fill="none" stroke="midnightblue" d="M114.14,-93.48C129.35,-89.38 145.89,-84.91 161.34,-80.74"/>
<polygon fill="midnightblue" stroke="midnightblue" points="162.56,-84.03 171.31,-78.05 160.74,-77.28 162.56,-84.03"/>
</g>
<!-- Node6 -->
<g id="node6" class="node">
<title>Node6</title>
<g id="a_node6"><a xlink:href="classH4_1_1HermiteIntegrator.html#a332dd3e31b1a67d014b8be0fb16363e2" target="_top" xlink:title="write back group members to particles">
<polygon fill="white" stroke="black" points="157,-0.5 157,-30.5 288,-30.5 288,-0.5 157,-0.5"/>
<text text-anchor="start" x="165" y="-18.5" font-family="FreeSans" font-size="10.00">H4::HermiteIntegrator</text>
<text text-anchor="middle" x="222.5" y="-7.5" font-family="FreeSans" font-size="10.00">::writeBackGroupMembers</text>
</a>
</g>
</g>
<!-- Node1&#45;&gt;Node6 -->
<g id="edge6" class="edge">
<title>Node1&#45;&gt;Node6</title>
<path fill="none" stroke="midnightblue" d="M75.88,-93.28C93.73,-78.26 122.82,-55.43 151,-40.5 154.98,-38.39 159.18,-36.39 163.46,-34.52"/>
<polygon fill="midnightblue" stroke="midnightblue" points="165.01,-37.66 172.91,-30.61 162.33,-31.2 165.01,-37.66"/>
</g>
<!-- Node2&#45;&gt;Node3 -->
<g id="edge2" class="edge">
<title>Node2&#45;&gt;Node3</title>
<path fill="none" stroke="midnightblue" d="M277.43,-175.48C296.98,-170.04 318.82,-163.96 337.42,-158.78"/>
<polygon fill="midnightblue" stroke="midnightblue" points="338.41,-162.13 347.11,-156.08 336.53,-155.39 338.41,-162.13"/>
</g>
<!-- Node6&#45;&gt;Node3 -->
<g id="edge7" class="edge">
<title>Node6&#45;&gt;Node3</title>
<path fill="none" stroke="midnightblue" d="M276.28,-30.61C282.51,-33.42 288.57,-36.7 294,-40.5 328.02,-64.31 356.22,-104.73 370.79,-128.18"/>
<polygon fill="midnightblue" stroke="midnightblue" points="367.85,-130.07 376.02,-136.81 373.84,-126.45 367.85,-130.07"/>
</g>
</g>
</svg>
