<?xml version="1.0" encoding="UTF-8" standalone="no"?>
<!DOCTYPE svg PUBLIC "-//W3C//DTD SVG 1.1//EN"
 "http://www.w3.org/Graphics/SVG/1.1/DTD/svg11.dtd">
<!-- Generated by graphviz version 2.38.0 (20140413.2041)
 -->
<!-- Title: AR::TimeTransformedSymplecticIntegrator::correctCenterOfMassDrift Pages: 1 -->
<svg width="329pt" height="137pt"
 viewBox="0.00 0.00 329.00 137.00" xmlns="http://www.w3.org/2000/svg" xmlns:xlink="http://www.w3.org/1999/xlink">
<g id="graph0" class="graph" transform="scale(1 1) rotate(0) translate(4 133)">
<title>AR::TimeTransformedSymplecticIntegrator::correctCenterOfMassDrift</title>
<polygon fill="white" stroke="none" points="-4,4 -4,-133 325,-133 325,4 -4,4"/>
<!-- Node1 -->
<g id="node1" class="node"><title>Node1</title>
<polygon fill="#bfbfbf" stroke="black" points="0,-49.5 0,-79.5 172,-79.5 172,-49.5 0,-49.5"/>
<text text-anchor="start" x="8" y="-67.5" font-family="FreeSans" font-size="10.00">AR::TimeTransformedSymplectic</text>
<text text-anchor="middle" x="86" y="-56.5" font-family="FreeSans" font-size="10.00">Integrator::correctCenterOfMassDrift</text>
</g>
<!-- Node2 -->
<g id="node2" class="node"><title>Node2</title>
<g id="a_node2"><a xlink:href="classCOMM_1_1ParticleGroup.html#a04903afdcfee09b36b30600a2683c99e" target="_top" xlink:title="return true if the system is the in their origin frame ">
<polygon fill="white" stroke="black" points="209,-98.5 209,-128.5 320,-128.5 320,-98.5 209,-98.5"/>
<text text-anchor="start" x="217" y="-116.5" font-family="FreeSans" font-size="10.00">COMM::ParticleGroup</text>
<text text-anchor="middle" x="264.5" y="-105.5" font-family="FreeSans" font-size="10.00">::isOriginFrame</text>
</a>
</g>
</g>
<!-- Node1&#45;&gt;Node2 -->
<g id="edge1" class="edge"><title>Node1&#45;&gt;Node2</title>
<path fill="none" stroke="midnightblue" d="M141.396,-79.6014C159.768,-84.7019 180.447,-90.4429 199.493,-95.7305"/>
<polygon fill="midnightblue" stroke="midnightblue" points="198.712,-99.1458 209.284,-98.4484 200.584,-92.4009 198.712,-99.1458"/>
</g>
<!-- Node3 -->
<g id="node3" class="node"><title>Node3</title>
<g id="a_node3"><a xlink:href="classCOMM_1_1List.html#a125e4f93ee02b677f8377bd541f2105d" target="_top" xlink:title="return member data array address ">
<polygon fill="white" stroke="black" points="208,-49.5 208,-79.5 321,-79.5 321,-49.5 208,-49.5"/>
<text text-anchor="start" x="216" y="-67.5" font-family="FreeSans" font-size="10.00">COMM::List&lt; Tparticle</text>
<text text-anchor="middle" x="264.5" y="-56.5" font-family="FreeSans" font-size="10.00"> &gt;::getDataAddress</text>
</a>
</g>
</g>
<!-- Node1&#45;&gt;Node3 -->
<g id="edge2" class="edge"><title>Node1&#45;&gt;Node3</title>
<path fill="none" stroke="midnightblue" d="M172.148,-64.5C180.797,-64.5 189.485,-64.5 197.88,-64.5"/>
<polygon fill="midnightblue" stroke="midnightblue" points="197.953,-68.0001 207.953,-64.5 197.953,-61.0001 197.953,-68.0001"/>
</g>
<!-- Node4 -->
<g id="node4" class="node"><title>Node4</title>
<g id="a_node4"><a xlink:href="classCOMM_1_1List.html#af1c92acd831f62c52f3385a71d6403e7" target="_top" xlink:title="get current member number ">
<polygon fill="white" stroke="black" points="208,-0.5 208,-30.5 321,-30.5 321,-0.5 208,-0.5"/>
<text text-anchor="start" x="216" y="-18.5" font-family="FreeSans" font-size="10.00">COMM::List&lt; Tparticle</text>
<text text-anchor="middle" x="264.5" y="-7.5" font-family="FreeSans" font-size="10.00"> &gt;::getSize</text>
</a>
</g>
</g>
<!-- Node1&#45;&gt;Node4 -->
<g id="edge3" class="edge"><title>Node1&#45;&gt;Node4</title>
<path fill="none" stroke="midnightblue" d="M141.396,-49.3986C159.768,-44.2981 180.447,-38.5571 199.493,-33.2695"/>
<polygon fill="midnightblue" stroke="midnightblue" points="200.584,-36.5991 209.284,-30.5516 198.712,-29.8542 200.584,-36.5991"/>
</g>
</g>
</svg>
