<?xml version="1.0" encoding="UTF-8" standalone="no"?>
<!DOCTYPE svg PUBLIC "-//W3C//DTD SVG 1.1//EN"
 "http://www.w3.org/Graphics/SVG/1.1/DTD/svg11.dtd">
<!-- Generated by graphviz version 2.43.0 (0)
 -->
<!-- Title: AR::Information&lt; Tparticle, Tpcm &gt; Pages: 1 -->
<svg width="160pt" height="252pt"
 viewBox="0.00 0.00 160.00 252.00" xmlns="http://www.w3.org/2000/svg" xmlns:xlink="http://www.w3.org/1999/xlink">
<g id="graph0" class="graph" transform="scale(1 1) rotate(0) translate(4 248)">
<title>AR::Information&lt; Tparticle, Tpcm &gt;</title>
<polygon fill="white" stroke="transparent" points="-4,4 -4,-248 156,-248 156,4 -4,4"/>
<!-- Node1 -->
<g id="node1" class="node">
<title>Node1</title>
<g id="a_node1"><a xlink:title="A class contains information (e.g. parameters, binary tree, indices) about the particle group.">
<polygon fill="#bfbfbf" stroke="black" points="10,-0.5 10,-30.5 142,-30.5 142,-0.5 10,-0.5"/>
<text text-anchor="start" x="18" y="-18.5" font-family="FreeSans" font-size="10.00">AR::Information&lt; Tparticle,</text>
<text text-anchor="middle" x="76" y="-7.5" font-family="FreeSans" font-size="10.00"> Tpcm &gt;</text>
</a>
</g>
</g>
<!-- Node2 -->
<g id="node2" class="node">
<title>Node2</title>
<g id="a_node2"><a xlink:href="classCOMM_1_1List.html" target="_top" xlink:title=" ">
<polygon fill="white" stroke="black" points="6.5,-78.5 6.5,-108.5 145.5,-108.5 145.5,-78.5 6.5,-78.5"/>
<text text-anchor="start" x="14.5" y="-96.5" font-family="FreeSans" font-size="10.00">COMM::List&lt; COMM::Binary</text>
<text text-anchor="middle" x="76" y="-85.5" font-family="FreeSans" font-size="10.00">Tree&lt; Tparticle &gt; &gt;</text>
</a>
</g>
</g>
<!-- Node2&#45;&gt;Node1 -->
<g id="edge1" class="edge">
<title>Node2&#45;&gt;Node1</title>
<path fill="none" stroke="#9a32cd" stroke-dasharray="5,2" d="M76,-68.09C76,-55.76 76,-41.22 76,-30.73"/>
<polygon fill="#9a32cd" stroke="#9a32cd" points="72.5,-68.2 76,-78.2 79.5,-68.21 72.5,-68.2"/>
<text text-anchor="middle" x="98.5" y="-52" font-family="FreeSans" font-size="10.00"> binarytree</text>
</g>
<!-- Node3 -->
<g id="node3" class="node">
<title>Node3</title>
<g id="a_node3"><a xlink:href="classCOMM_1_1BinaryTree.html" target="_top" xlink:title=" ">
<polygon fill="white" stroke="black" points="0,-167.5 0,-186.5 152,-186.5 152,-167.5 0,-167.5"/>
<text text-anchor="middle" x="76" y="-174.5" font-family="FreeSans" font-size="10.00">COMM::BinaryTree&lt; Tparticle &gt;</text>
</a>
</g>
</g>
<!-- Node3&#45;&gt;Node2 -->
<g id="edge2" class="edge">
<title>Node3&#45;&gt;Node2</title>
<path fill="none" stroke="#9a32cd" stroke-dasharray="5,2" d="M76,-157.23C76,-142.41 76,-122.05 76,-108.6"/>
<polygon fill="#9a32cd" stroke="#9a32cd" points="72.5,-157.28 76,-167.28 79.5,-157.28 72.5,-157.28"/>
<text text-anchor="middle" x="88.5" y="-141" font-family="FreeSans" font-size="10.00"> adr_</text>
<text text-anchor="middle" x="88.5" y="-130" font-family="FreeSans" font-size="10.00">data_</text>
</g>
<!-- Node4 -->
<g id="node4" class="node">
<title>Node4</title>
<g id="a_node4"><a xlink:title=" ">
<polygon fill="white" stroke="#bfbfbf" points="15,-224.5 15,-243.5 69,-243.5 69,-224.5 15,-224.5"/>
<text text-anchor="middle" x="42" y="-231.5" font-family="FreeSans" font-size="10.00">Tparticle</text>
</a>
</g>
</g>
<!-- Node4&#45;&gt;Node3 -->
<g id="edge3" class="edge">
<title>Node4&#45;&gt;Node3</title>
<path fill="none" stroke="midnightblue" d="M52.73,-215.64C58.68,-206.01 65.83,-194.46 70.61,-186.71"/>
<polygon fill="midnightblue" stroke="midnightblue" points="49.59,-214.06 47.31,-224.41 55.55,-217.74 49.59,-214.06"/>
</g>
<!-- Node5 -->
<g id="node5" class="node">
<title>Node5</title>
<g id="a_node5"><a xlink:title=" ">
<polygon fill="white" stroke="#bfbfbf" points="87,-224.5 87,-243.5 135,-243.5 135,-224.5 87,-224.5"/>
<text text-anchor="middle" x="111" y="-231.5" font-family="FreeSans" font-size="10.00">Tbinary</text>
</a>
</g>
</g>
<!-- Node5&#45;&gt;Node3 -->
<g id="edge4" class="edge">
<title>Node5&#45;&gt;Node3</title>
<path fill="none" stroke="midnightblue" d="M100.14,-215.94C93.98,-206.25 86.53,-194.54 81.55,-186.71"/>
<polygon fill="midnightblue" stroke="midnightblue" points="97.21,-217.85 105.53,-224.41 103.12,-214.09 97.21,-217.85"/>
</g>
</g>
</svg>
