<?xml version="1.0" encoding="UTF-8" standalone="no"?>
<!DOCTYPE svg PUBLIC "-//W3C//DTD SVG 1.1//EN"
 "http://www.w3.org/Graphics/SVG/1.1/DTD/svg11.dtd">
<!-- Generated by graphviz version 2.43.0 (0)
 -->
<!-- Title: AR::BinarySlowDown Pages: 1 -->
<svg width="209pt" height="162pt"
 viewBox="0.00 0.00 208.50 162.00" xmlns="http://www.w3.org/2000/svg" xmlns:xlink="http://www.w3.org/1999/xlink">
<g id="graph0" class="graph" transform="scale(1 1) rotate(0) translate(4 158)">
<title>AR::BinarySlowDown</title>
<polygon fill="white" stroke="transparent" points="-4,4 -4,-158 204.5,-158 204.5,4 -4,4"/>
<!-- Node1 -->
<g id="node1" class="node">
<title>Node1</title>
<g id="a_node1"><a xlink:title="binary parameter with slowdown">
<polygon fill="#bfbfbf" stroke="black" points="81,-0.5 81,-19.5 189,-19.5 189,-0.5 81,-0.5"/>
<text text-anchor="middle" x="135" y="-7.5" font-family="FreeSans" font-size="10.00">AR::BinarySlowDown</text>
</a>
</g>
</g>
<!-- Node2 -->
<g id="node2" class="node">
<title>Node2</title>
<g id="a_node2"><a xlink:href="classCOMM_1_1Binary.html" target="_top" xlink:title="Binary parameter class.">
<polygon fill="white" stroke="black" points="22.5,-67.5 22.5,-86.5 101.5,-86.5 101.5,-67.5 22.5,-67.5"/>
<text text-anchor="middle" x="62" y="-74.5" font-family="FreeSans" font-size="10.00">COMM::Binary</text>
</a>
</g>
</g>
<!-- Node2&#45;&gt;Node1 -->
<g id="edge1" class="edge">
<title>Node2&#45;&gt;Node1</title>
<path fill="none" stroke="midnightblue" d="M79.57,-60.36C93.92,-47.58 113.67,-29.99 125.31,-19.63"/>
<polygon fill="midnightblue" stroke="midnightblue" points="76.99,-57.97 71.85,-67.23 81.64,-63.2 76.99,-57.97"/>
</g>
<!-- Node3 -->
<g id="node3" class="node">
<title>Node3</title>
<g id="a_node3"><a xlink:href="classCOMM_1_1Vector3.html" target="_top" xlink:title=" ">
<polygon fill="white" stroke="black" points="0,-134.5 0,-153.5 124,-153.5 124,-134.5 0,-134.5"/>
<text text-anchor="middle" x="62" y="-141.5" font-family="FreeSans" font-size="10.00">COMM::Vector3&lt; Float &gt;</text>
</a>
</g>
</g>
<!-- Node3&#45;&gt;Node2 -->
<g id="edge2" class="edge">
<title>Node3&#45;&gt;Node2</title>
<path fill="none" stroke="#9a32cd" stroke-dasharray="5,2" d="M62,-124.04C62,-111.67 62,-96.12 62,-86.63"/>
<polygon fill="#9a32cd" stroke="#9a32cd" points="58.5,-124.23 62,-134.23 65.5,-124.23 58.5,-124.23"/>
<text text-anchor="middle" x="70" y="-108" font-family="FreeSans" font-size="10.00"> am</text>
</g>
<!-- Node4 -->
<g id="node4" class="node">
<title>Node4</title>
<g id="a_node4"><a xlink:href="classAR_1_1SlowDown.html" target="_top" xlink:title="Slow&#45;down parameter control class.">
<polygon fill="white" stroke="black" points="119.5,-67.5 119.5,-86.5 200.5,-86.5 200.5,-67.5 119.5,-67.5"/>
<text text-anchor="middle" x="160" y="-74.5" font-family="FreeSans" font-size="10.00">AR::SlowDown</text>
</a>
</g>
</g>
<!-- Node4&#45;&gt;Node1 -->
<g id="edge3" class="edge">
<title>Node4&#45;&gt;Node1</title>
<path fill="none" stroke="#9a32cd" stroke-dasharray="5,2" d="M153,-57.79C148.2,-45.31 142.04,-29.31 138.32,-19.63"/>
<polygon fill="#9a32cd" stroke="#9a32cd" points="149.77,-59.16 156.63,-67.23 156.31,-56.64 149.77,-59.16"/>
<text text-anchor="middle" x="171" y="-41" font-family="FreeSans" font-size="10.00"> slowdown</text>
</g>
</g>
</svg>
