<?xml version="1.0" encoding="UTF-8" standalone="no"?>
<!DOCTYPE svg PUBLIC "-//W3C//DTD SVG 1.1//EN"
 "http://www.w3.org/Graphics/SVG/1.1/DTD/svg11.dtd">
<!-- Generated by graphviz version 2.38.0 (20140413.2041)
 -->
<!-- Title: H4::BlockTimeStep4th::writeBinary Pages: 1 -->
<svg width="264pt" height="39pt"
 viewBox="0.00 0.00 264.00 39.00" xmlns="http://www.w3.org/2000/svg" xmlns:xlink="http://www.w3.org/1999/xlink">
<g id="graph0" class="graph" transform="scale(1 1) rotate(0) translate(4 35)">
<title>H4::BlockTimeStep4th::writeBinary</title>
<polygon fill="white" stroke="none" points="-4,4 -4,-35 260,-35 260,4 -4,4"/>
<!-- Node1 -->
<g id="node1" class="node"><title>Node1</title>
<polygon fill="#bfbfbf" stroke="black" points="0,-0.5 0,-30.5 113,-30.5 113,-0.5 0,-0.5"/>
<text text-anchor="start" x="8" y="-18.5" font-family="FreeSans" font-size="10.00">H4::BlockTimeStep4th</text>
<text text-anchor="middle" x="56.5" y="-7.5" font-family="FreeSans" font-size="10.00">::writeBinary</text>
</g>
<!-- Node2 -->
<g id="node2" class="node"><title>Node2</title>
<g id="a_node2"><a xlink:href="classH4_1_1HermiteManager.html#a15fac138bf891c05d793b48ae8141494" target="_top" xlink:title="write class data to file with binary format ">
<polygon fill="white" stroke="black" points="149,-0.5 149,-30.5 256,-30.5 256,-0.5 149,-0.5"/>
<text text-anchor="start" x="157" y="-18.5" font-family="FreeSans" font-size="10.00">H4::HermiteManager</text>
<text text-anchor="middle" x="202.5" y="-7.5" font-family="FreeSans" font-size="10.00">&lt; Tacc &gt;::writeBinary</text>
</a>
</g>
</g>
<!-- Node1&#45;&gt;Node2 -->
<g id="edge1" class="edge"><title>Node1&#45;&gt;Node2</title>
<path fill="none" stroke="midnightblue" d="M123.452,-15.5C131.951,-15.5 140.562,-15.5 148.809,-15.5"/>
<polygon fill="midnightblue" stroke="midnightblue" points="123.174,-12.0001 113.174,-15.5 123.174,-19.0001 123.174,-12.0001"/>
</g>
</g>
</svg>
