<?xml version="1.0" encoding="UTF-8" standalone="no"?>
<!DOCTYPE svg PUBLIC "-//W3C//DTD SVG 1.1//EN"
 "http://www.w3.org/Graphics/SVG/1.1/DTD/svg11.dtd">
<!-- Generated by graphviz version 2.38.0 (20140413.2041)
 -->
<!-- Title: COMM::BinaryTree::processLeafIter Pages: 1 -->
<svg width="341pt" height="99pt"
 viewBox="0.00 0.00 341.00 98.50" xmlns="http://www.w3.org/2000/svg" xmlns:xlink="http://www.w3.org/1999/xlink">
<g id="graph0" class="graph" transform="scale(1 1) rotate(0) translate(4 94.5)">
<title>COMM::BinaryTree::processLeafIter</title>
<polygon fill="white" stroke="none" points="-4,4 -4,-94.5 337,-94.5 337,4 -4,4"/>
<!-- Node1 -->
<g id="node1" class="node"><title>Node1</title>
<polygon fill="#bfbfbf" stroke="black" points="0,-33 0,-63 136,-63 136,-33 0,-33"/>
<text text-anchor="start" x="8" y="-51" font-family="FreeSans" font-size="10.00">COMM::BinaryTree::process</text>
<text text-anchor="middle" x="68" y="-40" font-family="FreeSans" font-size="10.00">LeafIter</text>
</g>
<!-- Node2 -->
<g id="node2" class="node"><title>Node2</title>
<g id="a_node2"><a xlink:href="classH4_1_1ARInformation.html#a621aae6cac384b1897d410fc204e775a" target="_top" xlink:title="Initialize group of particles from a binarytree. ">
<polygon fill="white" stroke="black" points="175,-60 175,-90 330,-90 330,-60 175,-60"/>
<text text-anchor="start" x="183" y="-78" font-family="FreeSans" font-size="10.00">H4::ARInformation::</text>
<text text-anchor="middle" x="252.5" y="-67" font-family="FreeSans" font-size="10.00">addParticlesAndCopyBinaryTree</text>
</a>
</g>
</g>
<!-- Node1&#45;&gt;Node2 -->
<g id="edge1" class="edge"><title>Node1&#45;&gt;Node2</title>
<path fill="none" stroke="midnightblue" d="M146.341,-59.4423C155.799,-60.8415 165.461,-62.2709 174.907,-63.6685"/>
<polygon fill="midnightblue" stroke="midnightblue" points="146.583,-55.9401 136.179,-57.9388 145.559,-62.8647 146.583,-55.9401"/>
</g>
<!-- Node3 -->
<g id="node3" class="node"><title>Node3</title>
<g id="a_node3"><a xlink:href="classH4_1_1ARInformation.html#a54e2345bbf41103ae4e06dcf474ec304" target="_top" xlink:title="get two branch particle index ">
<polygon fill="white" stroke="black" points="172,-0.5 172,-41.5 333,-41.5 333,-0.5 172,-0.5"/>
<text text-anchor="start" x="180" y="-29.5" font-family="FreeSans" font-size="10.00">H4::ARInformation::</text>
<text text-anchor="start" x="180" y="-18.5" font-family="FreeSans" font-size="10.00">getTwoBranchParticleIndexOrigin</text>
<text text-anchor="middle" x="252.5" y="-7.5" font-family="FreeSans" font-size="10.00">FromBinaryTree</text>
</a>
</g>
</g>
<!-- Node1&#45;&gt;Node3 -->
<g id="edge2" class="edge"><title>Node1&#45;&gt;Node3</title>
<path fill="none" stroke="midnightblue" d="M146.346,-36.557C154.764,-35.3117 163.343,-34.0424 171.788,-32.793"/>
<polygon fill="midnightblue" stroke="midnightblue" points="145.559,-33.1353 136.179,-38.0612 146.583,-40.0599 145.559,-33.1353"/>
</g>
</g>
</svg>
