<?xml version="1.0" encoding="UTF-8" standalone="no"?>
<!DOCTYPE svg PUBLIC "-//W3C//DTD SVG 1.1//EN"
 "http://www.w3.org/Graphics/SVG/1.1/DTD/svg11.dtd">
<!-- Generated by graphviz version 2.43.0 (0)
 -->
<!-- Title: COMM::List::clear Pages: 1 -->
<!--zoomable 284 -->
<svg id="main" version="1.1" xmlns="http://www.w3.org/2000/svg" xmlns:xlink="http://www.w3.org/1999/xlink" xml:space="preserve" onload="init(evt)">
<style type="text/css"><![CDATA[
.edge:hover path { stroke: red; }
.edge:hover polygon { stroke: red; fill: red; }
]]></style>
<script type="text/javascript"><![CDATA[
var edges = document.getElementsByTagName('g');
if (edges && edges.length) {
  for (var i=0;i<edges.length;i++) {
    if (edges[i].id.substr(0,4)=='edge') {
      edges[i].setAttribute('class','edge');
    }
  }
}
]]></script>
        <defs>
                <circle id="rim" cx="0" cy="0" r="7"/>
                <circle id="rim2" cx="0" cy="0" r="3.5"/>
                <g id="zoomPlus">
                        <use xlink:href="#rim" fill="#404040">
                                <set attributeName="fill" to="#808080" begin="zoomplus.mouseover" end="zoomplus.mouseout"/>
                        </use>
                        <path d="M-4,0h8M0,-4v8" fill="none" stroke="white" stroke-width="1.5" pointer-events="none"/>
                </g>
                <g id="zoomMin">
                        <use xlink:href="#rim" fill="#404040">
                                <set attributeName="fill" to="#808080" begin="zoomminus.mouseover" end="zoomminus.mouseout"/>
                        </use>
                        <path d="M-4,0h8" fill="none" stroke="white" stroke-width="1.5" pointer-events="none"/>
                </g>
                <g id="dirArrow">
                        <path fill="none" stroke="white" stroke-width="1.5" d="M0,-3.0v7 M-2.5,-0.5L0,-3.0L2.5,-0.5"/>
                </g>
               <g id="resetDef">
                       <use xlink:href="#rim2" fill="#404040">
                               <set attributeName="fill" to="#808080" begin="reset.mouseover" end="reset.mouseout"/>
                       </use>
               </g>
        </defs>

<script type="text/javascript">
var viewWidth = 525;
var viewHeight = 284;
var sectionId = 'dynsection-1';
</script>
<script xlink:href="svgpan.js"/>
<svg id="graph" class="graph">
<g id="viewport">
<title>COMM::List::clear</title>
<polygon fill="white" stroke="transparent" points="-4,4 -4,-280 521,-280 521,4 -4,4"/>
<!-- Node1 -->
<g id="node1" class="node">
<title>Node1</title>
<g id="a_node1"><a xlink:title="Clear function.">
<polygon fill="#bfbfbf" stroke="black" points="423,-128 423,-147 517,-147 517,-128 423,-128"/>
<text text-anchor="middle" x="470" y="-135" font-family="FreeSans" font-size="10.00">COMM::List::clear</text>
</a>
</g>
</g>
<!-- Node2 -->
<g id="node2" class="node">
<title>Node2</title>
<g id="a_node2"><a xlink:href="classH4_1_1HermiteIntegrator.html#a58a59fd478331237bafbe42b0fbe9d4b" target="_top" xlink:title="break groups">
<polygon fill="white" stroke="black" points="252.5,-245.5 252.5,-275.5 362.5,-275.5 362.5,-245.5 252.5,-245.5"/>
<text text-anchor="start" x="260.5" y="-263.5" font-family="FreeSans" font-size="10.00">H4::HermiteIntegrator</text>
<text text-anchor="middle" x="307.5" y="-252.5" font-family="FreeSans" font-size="10.00">::breakGroups</text>
</a>
</g>
</g>
<!-- Node1&#45;&gt;Node2 -->
<g id="edge1" class="edge">
<title>Node1&#45;&gt;Node2</title>
<path fill="none" stroke="midnightblue" d="M458.32,-156.1C444.59,-178.39 418.71,-215.37 387,-236.5 379.65,-241.4 371.25,-245.33 362.75,-248.48"/>
<polygon fill="midnightblue" stroke="midnightblue" points="461.47,-157.65 463.6,-147.27 455.46,-154.06 461.47,-157.65"/>
</g>
<!-- Node4 -->
<g id="node4" class="node">
<title>Node4</title>
<g id="a_node4"><a xlink:href="classH4_1_1ARInformation.html#a35dab173023966109fc3a7cd4747159d" target="_top" xlink:title=" ">
<polygon fill="white" stroke="black" points="257,-196.5 257,-226.5 358,-226.5 358,-196.5 257,-196.5"/>
<text text-anchor="start" x="265" y="-214.5" font-family="FreeSans" font-size="10.00">H4::ARInformation::</text>
<text text-anchor="middle" x="307.5" y="-203.5" font-family="FreeSans" font-size="10.00">clear</text>
</a>
</g>
</g>
<!-- Node1&#45;&gt;Node4 -->
<g id="edge3" class="edge">
<title>Node1&#45;&gt;Node4</title>
<path fill="none" stroke="midnightblue" d="M446.65,-152.78C430.58,-163.28 408.11,-176.99 387,-186.5 377.87,-190.61 367.87,-194.35 358.15,-197.6"/>
<polygon fill="midnightblue" stroke="midnightblue" points="448.92,-155.47 455.31,-147.02 445.05,-149.64 448.92,-155.47"/>
</g>
<!-- Node5 -->
<g id="node5" class="node">
<title>Node5</title>
<g id="a_node5"><a xlink:href="classAR_1_1TimeTransformedSymplecticIntegrator.html#aaa3a79d58bda3139dc300f0f46bff536" target="_top" xlink:title="Clear function.">
<polygon fill="white" stroke="black" points="228,-147.5 228,-177.5 387,-177.5 387,-147.5 228,-147.5"/>
<text text-anchor="start" x="236" y="-165.5" font-family="FreeSans" font-size="10.00">AR::TimeTransformedSymplectic</text>
<text text-anchor="middle" x="307.5" y="-154.5" font-family="FreeSans" font-size="10.00">Integrator::clear</text>
</a>
</g>
</g>
<!-- Node1&#45;&gt;Node5 -->
<g id="edge4" class="edge">
<title>Node1&#45;&gt;Node5</title>
<path fill="none" stroke="midnightblue" d="M412.43,-146.31C404.25,-147.59 395.7,-148.92 387.18,-150.24"/>
<polygon fill="midnightblue" stroke="midnightblue" points="413.23,-149.73 422.58,-144.73 412.16,-142.81 413.23,-149.73"/>
</g>
<!-- Node8 -->
<g id="node8" class="node">
<title>Node8</title>
<g id="a_node8"><a xlink:href="classH4_1_1HermiteIntegrator.html#a7729add39ba30b96c19aa6337dd38293" target="_top" xlink:title="clear function">
<polygon fill="white" stroke="black" points="252.5,-98.5 252.5,-128.5 362.5,-128.5 362.5,-98.5 252.5,-98.5"/>
<text text-anchor="start" x="260.5" y="-116.5" font-family="FreeSans" font-size="10.00">H4::HermiteIntegrator</text>
<text text-anchor="middle" x="307.5" y="-105.5" font-family="FreeSans" font-size="10.00">::clear</text>
</a>
</g>
</g>
<!-- Node1&#45;&gt;Node8 -->
<g id="edge7" class="edge">
<title>Node1&#45;&gt;Node8</title>
<path fill="none" stroke="midnightblue" d="M412.24,-129.01C396.15,-126.61 378.68,-123.99 362.75,-121.61"/>
<polygon fill="midnightblue" stroke="midnightblue" points="412.17,-132.54 422.58,-130.56 413.2,-125.62 412.17,-132.54"/>
</g>
<!-- Node9 -->
<g id="node9" class="node">
<title>Node9</title>
<g id="a_node9"><a xlink:href="classCOMM_1_1List.html#a9bab371ce70f4b606893f8df2562b06d" target="_top" xlink:title="operator = is copy">
<polygon fill="white" stroke="black" points="244,-49.5 244,-79.5 371,-79.5 371,-49.5 244,-49.5"/>
<text text-anchor="start" x="252" y="-67.5" font-family="FreeSans" font-size="10.00">COMM::List&lt; H4::Particle</text>
<text text-anchor="middle" x="307.5" y="-56.5" font-family="FreeSans" font-size="10.00">H4 &gt;::operator=</text>
</a>
</g>
</g>
<!-- Node1&#45;&gt;Node9 -->
<g id="edge8" class="edge">
<title>Node1&#45;&gt;Node9</title>
<path fill="none" stroke="midnightblue" d="M446.68,-122.15C430.63,-111.61 408.16,-97.89 387,-88.5 379.71,-85.26 371.85,-82.29 364.02,-79.63"/>
<polygon fill="midnightblue" stroke="midnightblue" points="445.08,-125.28 455.34,-127.92 448.96,-119.46 445.08,-125.28"/>
</g>
<!-- Node10 -->
<g id="node10" class="node">
<title>Node10</title>
<g id="a_node10"><a xlink:href="classCOMM_1_1List.html#a2daf57dafa6922cba90337d4eaf88ea3" target="_top" xlink:title="destructor">
<polygon fill="white" stroke="black" points="244,-0.5 244,-30.5 371,-30.5 371,-0.5 244,-0.5"/>
<text text-anchor="start" x="252" y="-18.5" font-family="FreeSans" font-size="10.00">COMM::List&lt; H4::Particle</text>
<text text-anchor="middle" x="307.5" y="-7.5" font-family="FreeSans" font-size="10.00">H4 &gt;::~List</text>
</a>
</g>
</g>
<!-- Node1&#45;&gt;Node10 -->
<g id="edge9" class="edge">
<title>Node1&#45;&gt;Node10</title>
<path fill="none" stroke="midnightblue" d="M458.28,-119.09C444.5,-97.03 418.57,-60.43 387,-39.5 381.89,-36.11 376.29,-33.19 370.49,-30.66"/>
<polygon fill="midnightblue" stroke="midnightblue" points="455.4,-121.09 463.57,-127.83 461.38,-117.47 455.4,-121.09"/>
</g>
<!-- Node3 -->
<g id="node3" class="node">
<title>Node3</title>
<g id="a_node3"><a xlink:href="classH4_1_1HermiteIntegrator.html#a4681b656dd42eae01d3d85e66ac55112" target="_top" xlink:title="adjust groups">
<polygon fill="white" stroke="black" points="41,-245.5 41,-275.5 151,-275.5 151,-245.5 41,-245.5"/>
<text text-anchor="start" x="49" y="-263.5" font-family="FreeSans" font-size="10.00">H4::HermiteIntegrator</text>
<text text-anchor="middle" x="96" y="-252.5" font-family="FreeSans" font-size="10.00">::adjustGroups</text>
</a>
</g>
</g>
<!-- Node2&#45;&gt;Node3 -->
<g id="edge2" class="edge">
<title>Node2&#45;&gt;Node3</title>
<path fill="none" stroke="midnightblue" d="M242.21,-260.5C213.14,-260.5 179.14,-260.5 151.36,-260.5"/>
<polygon fill="midnightblue" stroke="midnightblue" points="242.28,-264 252.28,-260.5 242.28,-257 242.28,-264"/>
</g>
<!-- Node6 -->
<g id="node6" class="node">
<title>Node6</title>
<g id="a_node6"><a xlink:href="classAR_1_1TimeTransformedSymplecticIntegrator.html#aa655bbfc4e9f9af1ae7f7a09fc193443" target="_top" xlink:title="operator =">
<polygon fill="white" stroke="black" points="16.5,-171.5 16.5,-201.5 175.5,-201.5 175.5,-171.5 16.5,-171.5"/>
<text text-anchor="start" x="24.5" y="-189.5" font-family="FreeSans" font-size="10.00">AR::TimeTransformedSymplectic</text>
<text text-anchor="middle" x="96" y="-178.5" font-family="FreeSans" font-size="10.00">Integrator::operator=</text>
</a>
</g>
</g>
<!-- Node5&#45;&gt;Node6 -->
<g id="edge5" class="edge">
<title>Node5&#45;&gt;Node6</title>
<path fill="none" stroke="midnightblue" d="M217.79,-172.66C203.81,-174.26 189.44,-175.91 175.7,-177.48"/>
<polygon fill="midnightblue" stroke="midnightblue" points="218.36,-176.12 227.89,-171.5 217.56,-169.17 218.36,-176.12"/>
</g>
<!-- Node7 -->
<g id="node7" class="node">
<title>Node7</title>
<g id="a_node7"><a xlink:href="classAR_1_1TimeTransformedSymplecticIntegrator.html#aab55b52156245634a8d78c7728b5c802" target="_top" xlink:title="destructor">
<polygon fill="white" stroke="black" points="0,-111 0,-152 192,-152 192,-111 0,-111"/>
<text text-anchor="start" x="8" y="-140" font-family="FreeSans" font-size="10.00">AR::TimeTransformedSymplectic</text>
<text text-anchor="start" x="8" y="-129" font-family="FreeSans" font-size="10.00">Integrator::~TimeTransformedSymplectic</text>
<text text-anchor="middle" x="96" y="-118" font-family="FreeSans" font-size="10.00">Integrator</text>
</a>
</g>
</g>
<!-- Node5&#45;&gt;Node7 -->
<g id="edge6" class="edge">
<title>Node5&#45;&gt;Node7</title>
<path fill="none" stroke="midnightblue" d="M217.73,-149.36C209.32,-148.12 200.77,-146.86 192.31,-145.6"/>
<polygon fill="midnightblue" stroke="midnightblue" points="217.49,-152.87 227.89,-150.87 218.51,-145.94 217.49,-152.87"/>
</g>
</g>
</svg>
        <g id="navigator" transform="translate(0 0)" fill="#404254">
                <rect fill="#f2f5e9" fill-opacity="0.5" stroke="#606060" stroke-width=".5" x="0" y="0" width="60" height="60"/>
                <use id="zoomplus" xlink:href="#zoomPlus" x="17" y="9" onmousedown="handleZoom(evt,'in')"/>
                <use id="zoomminus" xlink:href="#zoomMin" x="42" y="9" onmousedown="handleZoom(evt,'out')"/>
                <use id="reset" xlink:href="#resetDef" x="30" y="36" onmousedown="handleReset()"/>
                <g id="arrowUp" xlink:href="#dirArrow" transform="translate(30 24)" onmousedown="handlePan(0,-1)">
                  <use xlink:href="#rim" fill="#404040">
                        <set attributeName="fill" to="#808080" begin="arrowUp.mouseover" end="arrowUp.mouseout"/>
                  </use>
                  <path fill="none" stroke="white" stroke-width="1.5" d="M0,-3.0v7 M-2.5,-0.5L0,-3.0L2.5,-0.5"/>
                </g>
                <g id="arrowRight" xlink:href="#dirArrow" transform="rotate(90) translate(36 -43)" onmousedown="handlePan(1,0)">
                  <use xlink:href="#rim" fill="#404040">
                        <set attributeName="fill" to="#808080" begin="arrowRight.mouseover" end="arrowRight.mouseout"/>
                  </use>
                  <path fill="none" stroke="white" stroke-width="1.5" d="M0,-3.0v7 M-2.5,-0.5L0,-3.0L2.5,-0.5"/>
                </g>
                <g id="arrowDown" xlink:href="#dirArrow" transform="rotate(180) translate(-30 -48)" onmousedown="handlePan(0,1)">
                  <use xlink:href="#rim" fill="#404040">
                        <set attributeName="fill" to="#808080" begin="arrowDown.mouseover" end="arrowDown.mouseout"/>
                  </use>
                  <path fill="none" stroke="white" stroke-width="1.5" d="M0,-3.0v7 M-2.5,-0.5L0,-3.0L2.5,-0.5"/>
                </g>
                <g id="arrowLeft" xlink:href="#dirArrow" transform="rotate(270) translate(-36 17)" onmousedown="handlePan(-1,0)">
                  <use xlink:href="#rim" fill="#404040">
                        <set attributeName="fill" to="#808080" begin="arrowLeft.mouseover" end="arrowLeft.mouseout"/>
                  </use>
                  <path fill="none" stroke="white" stroke-width="1.5" d="M0,-3.0v7 M-2.5,-0.5L0,-3.0L2.5,-0.5"/>
                </g>
        </g>
        <svg viewBox="0 0 15 15" width="100%" height="30px" preserveAspectRatio="xMaxYMin meet">
         <g id="arrow_out" transform="scale(0.3 0.3)">
          <a xlink:href="classCOMM_1_1List_aceaeddd10f8a05984f25a258a48c2620_icgraph_org.svg" target="_base">
           <rect id="button" ry="5" rx="5" y="6" x="6" height="38" width="38"
                fill="#f2f5e9" fill-opacity="0.5" stroke="#606060" stroke-width="1.0"/>
           <path id="arrow"
             d="M 11.500037,31.436501 C 11.940474,20.09759 22.043105,11.32322 32.158766,21.979434 L 37.068811,17.246167 C 37.068811,17.246167 37.088388,32 37.088388,32 L 22.160133,31.978069 C 22.160133,31.978069 26.997745,27.140456 26.997745,27.140456 C 18.528582,18.264221 13.291696,25.230495 11.500037,31.436501 z"
             style="fill:#404040;"/>
          </a>
         </g>
        </svg>
</svg>
