<?xml version="1.0" encoding="UTF-8" standalone="no"?>
<!DOCTYPE svg PUBLIC "-//W3C//DTD SVG 1.1//EN"
 "http://www.w3.org/Graphics/SVG/1.1/DTD/svg11.dtd">
<!-- Generated by graphviz version 2.38.0 (20140413.2041)
 -->
<!-- Title: AR::SlowDown::driftRealTime Pages: 1 -->
<svg width="344pt" height="88pt"
 viewBox="0.00 0.00 344.00 88.00" xmlns="http://www.w3.org/2000/svg" xmlns:xlink="http://www.w3.org/1999/xlink">
<g id="graph0" class="graph" transform="scale(1 1) rotate(0) translate(4 84)">
<title>AR::SlowDown::driftRealTime</title>
<polygon fill="white" stroke="none" points="-4,4 -4,-84 340,-84 340,4 -4,4"/>
<!-- Node1 -->
<g id="node1" class="node"><title>Node1</title>
<polygon fill="#bfbfbf" stroke="black" points="0,-30 0,-49 142,-49 142,-30 0,-30"/>
<text text-anchor="middle" x="71" y="-37" font-family="FreeSans" font-size="10.00">AR::SlowDown::driftRealTime</text>
</g>
<!-- Node2 -->
<g id="node2" class="node"><title>Node2</title>
<g id="a_node2"><a xlink:href="classAR_1_1TimeTransformedSymplecticIntegrator.html#aa655bbfc4e9f9af1ae7f7a09fc193443" target="_top" xlink:title="operator = ">
<polygon fill="white" stroke="black" points="178,-49.5 178,-79.5 336,-79.5 336,-49.5 178,-49.5"/>
<text text-anchor="start" x="186" y="-67.5" font-family="FreeSans" font-size="10.00">AR::TimeTransformedSymplectic</text>
<text text-anchor="middle" x="257" y="-56.5" font-family="FreeSans" font-size="10.00">Integrator::operator=</text>
</a>
</g>
</g>
<!-- Node1&#45;&gt;Node2 -->
<g id="edge1" class="edge"><title>Node1&#45;&gt;Node2</title>
<path fill="none" stroke="midnightblue" d="M152.042,-50.3753C160.593,-51.5371 169.284,-52.7179 177.812,-53.8767"/>
<polygon fill="midnightblue" stroke="midnightblue" points="152.468,-46.901 142.087,-49.0227 151.525,-53.8373 152.468,-46.901"/>
</g>
<!-- Node3 -->
<g id="node3" class="node"><title>Node3</title>
<g id="a_node3"><a xlink:href="classAR_1_1TimeTransformedSymplecticIntegrator.html#aa9bc3285b782123da733df7d123a4ad6" target="_top" xlink:title="integration for two body one step ">
<polygon fill="white" stroke="black" points="178,-0.5 178,-30.5 336,-30.5 336,-0.5 178,-0.5"/>
<text text-anchor="start" x="186" y="-18.5" font-family="FreeSans" font-size="10.00">AR::TimeTransformedSymplectic</text>
<text text-anchor="middle" x="257" y="-7.5" font-family="FreeSans" font-size="10.00">Integrator::integrateTwoOneStep</text>
</a>
</g>
</g>
<!-- Node1&#45;&gt;Node3 -->
<g id="edge2" class="edge"><title>Node1&#45;&gt;Node3</title>
<path fill="none" stroke="midnightblue" d="M152.042,-29.0597C160.593,-27.9444 169.284,-26.8108 177.812,-25.6984"/>
<polygon fill="midnightblue" stroke="midnightblue" points="151.551,-25.5941 142.087,-30.3582 152.456,-32.5353 151.551,-25.5941"/>
</g>
</g>
</svg>
