<?xml version="1.0" encoding="UTF-8" standalone="no"?>
<!DOCTYPE svg PUBLIC "-//W3C//DTD SVG 1.1//EN"
 "http://www.w3.org/Graphics/SVG/1.1/DTD/svg11.dtd">
<!-- Generated by graphviz version 2.38.0 (20140413.2041)
 -->
<!-- Title: AR::TimeTransformedSymplecticIntegrator::initialIntegration Pages: 1 -->
<!--zoomable 508 -->
<svg id="main" version="1.1" xmlns="http://www.w3.org/2000/svg" xmlns:xlink="http://www.w3.org/1999/xlink" xml:space="preserve" onload="init(evt)">
<style type="text/css"><![CDATA[
.edge:hover path { stroke: red; }
.edge:hover polygon { stroke: red; fill: red; }
]]></style>
<script type="text/javascript"><![CDATA[
var edges = document.getElementsByTagName('g');
if (edges && edges.length) {
  for (var i=0;i<edges.length;i++) {
    if (edges[i].id.substr(0,4)=='edge') {
      edges[i].setAttribute('class','edge');
    }
  }
}
]]></script>
        <defs>
                <circle id="rim" cx="0" cy="0" r="7"/>
                <circle id="rim2" cx="0" cy="0" r="3.5"/>
                <g id="zoomPlus">
                        <use xlink:href="#rim" fill="#404040">
                                <set attributeName="fill" to="#808080" begin="zoomplus.mouseover" end="zoomplus.mouseout"/>
                        </use>
                        <path d="M-4,0h8M0,-4v8" fill="none" stroke="white" stroke-width="1.5" pointer-events="none"/>
                </g>
                <g id="zoomMin">
                        <use xlink:href="#rim" fill="#404040">
                                <set attributeName="fill" to="#808080" begin="zoomminus.mouseover" end="zoomminus.mouseout"/>
                        </use>
                        <path d="M-4,0h8" fill="none" stroke="white" stroke-width="1.5" pointer-events="none"/>
                </g>
                <g id="dirArrow">
                        <path fill="none" stroke="white" stroke-width="1.5" d="M0,-3.0v7 M-2.5,-0.5L0,-3.0L2.5,-0.5"/>
                </g>
               <g id="resetDef">
                       <use xlink:href="#rim2" fill="#404040">
                               <set attributeName="fill" to="#808080" begin="reset.mouseover" end="reset.mouseout"/>
                       </use>
               </g>
        </defs>

<script type="text/javascript">
var viewWidth = 360;
var viewHeight = 508;
var sectionId = 'dynsection-7';
</script>
<script xlink:href="svgpan.js"/>
<svg id="graph" class="graph">
<g id="viewport">
<title>AR::TimeTransformedSymplecticIntegrator::initialIntegration</title>
<polygon fill="white" stroke="none" points="-4,4 -4,-504 356,-504 356,4 -4,4"/>
<!-- Node1 -->
<g id="node1" class="node"><title>Node1</title>
<polygon fill="#bfbfbf" stroke="black" points="0,-267.5 0,-297.5 158,-297.5 158,-267.5 0,-267.5"/>
<text text-anchor="start" x="8" y="-285.5" font-family="FreeSans" font-size="10.00">AR::TimeTransformedSymplectic</text>
<text text-anchor="middle" x="79" y="-274.5" font-family="FreeSans" font-size="10.00">Integrator::initialIntegration</text>
</g>
<!-- Node2 -->
<g id="node2" class="node"><title>Node2</title>
<g id="a_node2"><a xlink:href="classAR_1_1TimeTransformedSymplecticManager.html#a8921a86541d095de3a8685f4aad2da48" target="_top" xlink:title="check whether parameters values are correct ">
<polygon fill="white" stroke="black" points="194,-469.5 194,-499.5 352,-499.5 352,-469.5 194,-469.5"/>
<text text-anchor="start" x="202" y="-487.5" font-family="FreeSans" font-size="10.00">AR::TimeTransformedSymplectic</text>
<text text-anchor="middle" x="273" y="-476.5" font-family="FreeSans" font-size="10.00">Manager::checkParams</text>
</a>
</g>
</g>
<!-- Node1&#45;&gt;Node2 -->
<g id="edge1" class="edge"><title>Node1&#45;&gt;Node2</title>
<path fill="none" stroke="midnightblue" d="M85.4909,-297.694C98.6709,-332.011 135.418,-415.981 194,-460.5 195.833,-461.893 197.748,-463.206 199.726,-464.443"/>
<polygon fill="midnightblue" stroke="midnightblue" points="198.304,-467.655 208.755,-469.398 201.672,-461.519 198.304,-467.655"/>
</g>
<!-- Node3 -->
<g id="node3" class="node"><title>Node3</title>
<g id="a_node3"><a xlink:href="classCOMM_1_1List.html#af1c92acd831f62c52f3385a71d6403e7" target="_top" xlink:title="get current member number ">
<polygon fill="white" stroke="black" points="216.5,-420.5 216.5,-450.5 329.5,-450.5 329.5,-420.5 216.5,-420.5"/>
<text text-anchor="start" x="224.5" y="-438.5" font-family="FreeSans" font-size="10.00">COMM::List&lt; Tparticle</text>
<text text-anchor="middle" x="273" y="-427.5" font-family="FreeSans" font-size="10.00"> &gt;::getSize</text>
</a>
</g>
</g>
<!-- Node1&#45;&gt;Node3 -->
<g id="edge2" class="edge"><title>Node1&#45;&gt;Node3</title>
<path fill="none" stroke="midnightblue" d="M89.3086,-297.665C106.596,-324.572 146.276,-380.723 194,-411.5 198.03,-414.099 202.357,-416.43 206.833,-418.519"/>
<polygon fill="midnightblue" stroke="midnightblue" points="205.609,-421.801 216.182,-422.474 208.336,-415.354 205.609,-421.801"/>
</g>
<!-- Node4 -->
<g id="node4" class="node"><title>Node4</title>
<g id="a_node4"><a xlink:href="classCOMM_1_1List.html#a125e4f93ee02b677f8377bd541f2105d" target="_top" xlink:title="return member data array address ">
<polygon fill="white" stroke="black" points="216.5,-371.5 216.5,-401.5 329.5,-401.5 329.5,-371.5 216.5,-371.5"/>
<text text-anchor="start" x="224.5" y="-389.5" font-family="FreeSans" font-size="10.00">COMM::List&lt; Tparticle</text>
<text text-anchor="middle" x="273" y="-378.5" font-family="FreeSans" font-size="10.00"> &gt;::getDataAddress</text>
</a>
</g>
</g>
<!-- Node1&#45;&gt;Node4 -->
<g id="edge3" class="edge"><title>Node1&#45;&gt;Node4</title>
<path fill="none" stroke="midnightblue" d="M107.591,-297.781C129.823,-313.444 162.469,-336.953 194,-352.5 206.399,-358.614 220.63,-363.689 233.513,-368.127"/>
<polygon fill="midnightblue" stroke="midnightblue" points="232.455,-371.464 243.05,-371.402 234.729,-364.843 232.455,-371.464"/>
</g>
<!-- Node1&#45;&gt;Node4 -->
<g id="edge5" class="edge"><title>Node1&#45;&gt;Node4</title>
<path fill="none" stroke="midnightblue" d="M91.5791,-297.776C111.401,-317.612 153.614,-350.587 194,-370.5 198.055,-372.5 202.307,-374.388 206.643,-376.145"/>
<polygon fill="midnightblue" stroke="midnightblue" points="205.636,-379.506 216.227,-379.773 208.114,-372.96 205.636,-379.506"/>
</g>
<!-- Node5 -->
<g id="node5" class="node"><title>Node5</title>
<g id="a_node5"><a xlink:href="classCOMM_1_1List.html#a0f3dd09ceff0ce9b3ffd15f48a9ea9c4" target="_top" xlink:title="increase size without initialization ">
<polygon fill="white" stroke="black" points="201.5,-333 201.5,-352 344.5,-352 344.5,-333 201.5,-333"/>
<text text-anchor="middle" x="273" y="-340" font-family="FreeSans" font-size="10.00">COMM::List::resizeNoInitialize</text>
</a>
</g>
</g>
<!-- Node1&#45;&gt;Node5 -->
<g id="edge4" class="edge"><title>Node1&#45;&gt;Node5</title>
<path fill="none" stroke="midnightblue" d="M118.702,-297.577C140.608,-305.817 168.621,-315.869 194,-323.5 202.154,-325.952 210.859,-328.316 219.387,-330.494"/>
<polygon fill="midnightblue" stroke="midnightblue" points="218.723,-333.935 229.273,-332.959 220.417,-327.143 218.723,-333.935"/>
</g>
<!-- Node6 -->
<g id="node6" class="node"><title>Node6</title>
<g id="a_node6"><a xlink:href="classAR_1_1SlowDown.html#a96bbb1913537669fc970a149028acdfd" target="_top" xlink:title="set real time value ">
<polygon fill="white" stroke="black" points="204,-295 204,-314 342,-314 342,-295 204,-295"/>
<text text-anchor="middle" x="273" y="-302" font-family="FreeSans" font-size="10.00">AR::SlowDown::setRealTime</text>
</a>
</g>
</g>
<!-- Node1&#45;&gt;Node6 -->
<g id="edge6" class="edge"><title>Node1&#45;&gt;Node6</title>
<path fill="none" stroke="midnightblue" d="M158.094,-291.448C169.817,-292.792 181.91,-294.177 193.64,-295.521"/>
<polygon fill="midnightblue" stroke="midnightblue" points="193.502,-299.028 203.835,-296.689 194.298,-292.074 193.502,-299.028"/>
</g>
<!-- Node7 -->
<g id="node7" class="node"><title>Node7</title>
<g id="a_node7"><a xlink:href="classCOMM_1_1List.html#afe063c29e3ae8df95f65db67d7d8ba81" target="_top" xlink:title="Reset modified status to false. ">
<polygon fill="white" stroke="black" points="216.5,-245.5 216.5,-275.5 329.5,-275.5 329.5,-245.5 216.5,-245.5"/>
<text text-anchor="start" x="224.5" y="-263.5" font-family="FreeSans" font-size="10.00">COMM::List&lt; Tparticle</text>
<text text-anchor="middle" x="273" y="-252.5" font-family="FreeSans" font-size="10.00"> &gt;::setModifiedFalse</text>
</a>
</g>
</g>
<!-- Node1&#45;&gt;Node7 -->
<g id="edge7" class="edge"><title>Node1&#45;&gt;Node7</title>
<path fill="none" stroke="midnightblue" d="M158.094,-273.552C174.105,-271.717 190.805,-269.804 206.326,-268.025"/>
<polygon fill="midnightblue" stroke="midnightblue" points="206.8,-271.494 216.337,-266.878 206.003,-264.539 206.8,-271.494"/>
</g>
<!-- Node8 -->
<g id="node8" class="node"><title>Node8</title>
<g id="a_node8"><a xlink:href="classCOMM_1_1ParticleGroup.html#a04903afdcfee09b36b30600a2683c99e" target="_top" xlink:title="return true if the system is the in their origin frame ">
<polygon fill="white" stroke="black" points="217.5,-196.5 217.5,-226.5 328.5,-226.5 328.5,-196.5 217.5,-196.5"/>
<text text-anchor="start" x="225.5" y="-214.5" font-family="FreeSans" font-size="10.00">COMM::ParticleGroup</text>
<text text-anchor="middle" x="273" y="-203.5" font-family="FreeSans" font-size="10.00">::isOriginFrame</text>
</a>
</g>
</g>
<!-- Node1&#45;&gt;Node8 -->
<g id="edge8" class="edge"><title>Node1&#45;&gt;Node8</title>
<path fill="none" stroke="midnightblue" d="M115.427,-267.424C137.801,-258.098 167.406,-246.113 194,-236.5 200.29,-234.227 206.901,-231.945 213.503,-229.734"/>
<polygon fill="midnightblue" stroke="midnightblue" points="214.733,-233.014 223.132,-226.556 212.539,-226.367 214.733,-233.014"/>
</g>
<!-- Node9 -->
<g id="node9" class="node"><title>Node9</title>
<g id="a_node9"><a xlink:href="classCOMM_1_1ParticleGroup.html#ae6aeae77c0ba7d3fe9a48e55c8db4c82" target="_top" xlink:title="calculate center&#45;of&#45;mass ">
<polygon fill="white" stroke="black" points="217.5,-147.5 217.5,-177.5 328.5,-177.5 328.5,-147.5 217.5,-147.5"/>
<text text-anchor="start" x="225.5" y="-165.5" font-family="FreeSans" font-size="10.00">COMM::ParticleGroup</text>
<text text-anchor="middle" x="273" y="-154.5" font-family="FreeSans" font-size="10.00">::calcCenterOfMass</text>
</a>
</g>
</g>
<!-- Node1&#45;&gt;Node9 -->
<g id="edge9" class="edge"><title>Node1&#45;&gt;Node9</title>
<path fill="none" stroke="midnightblue" d="M94.4509,-267.217C114.838,-246.468 154.036,-209.46 194,-187.5 198.405,-185.08 203.08,-182.851 207.867,-180.807"/>
<polygon fill="midnightblue" stroke="midnightblue" points="209.173,-184.055 217.169,-177.104 206.584,-177.551 209.173,-184.055"/>
</g>
<!-- Node10 -->
<g id="node10" class="node"><title>Node10</title>
<g id="a_node10"><a xlink:href="classCOMM_1_1ParticleGroup.html#a46a5186631babb11c1be415ba740315d" target="_top" xlink:title="shift particle to their c.m. frame ">
<polygon fill="white" stroke="black" points="203,-98.5 203,-128.5 343,-128.5 343,-98.5 203,-98.5"/>
<text text-anchor="start" x="211" y="-116.5" font-family="FreeSans" font-size="10.00">COMM::ParticleGroup</text>
<text text-anchor="middle" x="273" y="-105.5" font-family="FreeSans" font-size="10.00">::shiftToCenterOfMassFrame</text>
</a>
</g>
</g>
<!-- Node1&#45;&gt;Node10 -->
<g id="edge10" class="edge"><title>Node1&#45;&gt;Node10</title>
<path fill="none" stroke="midnightblue" d="M87.8723,-267.449C103.899,-238.254 143.144,-173.717 194,-138.5 196.747,-136.598 199.648,-134.834 202.649,-133.199"/>
<polygon fill="midnightblue" stroke="midnightblue" points="204.462,-136.209 211.909,-128.673 201.388,-129.92 204.462,-136.209"/>
</g>
<!-- Node11 -->
<g id="node11" class="node"><title>Node11</title>
<g id="a_node11"><a xlink:href="classAR_1_1SlowDown.html#ab9436a956d9925171387b0cfe4ffbb0f" target="_top" xlink:title="initialize slow&#45;down parameters ">
<polygon fill="white" stroke="black" points="209,-49.5 209,-79.5 337,-79.5 337,-49.5 209,-49.5"/>
<text text-anchor="start" x="217" y="-67.5" font-family="FreeSans" font-size="10.00">AR::SlowDown::initialSlow</text>
<text text-anchor="middle" x="273" y="-56.5" font-family="FreeSans" font-size="10.00">DownReference</text>
</a>
</g>
</g>
<!-- Node1&#45;&gt;Node11 -->
<g id="edge11" class="edge"><title>Node1&#45;&gt;Node11</title>
<path fill="none" stroke="midnightblue" d="M84.6969,-267.446C96.7534,-231.266 132.262,-138.787 194,-89.5 196.292,-87.6702 198.721,-85.9729 201.25,-84.3987"/>
<polygon fill="midnightblue" stroke="midnightblue" points="203.092,-87.3808 210.181,-79.507 199.729,-81.2415 203.092,-87.3808"/>
</g>
<!-- Node12 -->
<g id="node12" class="node"><title>Node12</title>
<g id="a_node12"><a xlink:href="classAR_1_1SlowDown.html#acdbeeada2bb4f8ef82aee8e5574f3beb" target="_top" xlink:title="Get slow&#45;down factor. ">
<polygon fill="white" stroke="black" points="201.5,-0.5 201.5,-30.5 344.5,-30.5 344.5,-0.5 201.5,-0.5"/>
<text text-anchor="start" x="209.5" y="-18.5" font-family="FreeSans" font-size="10.00">AR::SlowDown::getSlowDown</text>
<text text-anchor="middle" x="273" y="-7.5" font-family="FreeSans" font-size="10.00">Factor</text>
</a>
</g>
</g>
<!-- Node1&#45;&gt;Node12 -->
<g id="edge12" class="edge"><title>Node1&#45;&gt;Node12</title>
<path fill="none" stroke="midnightblue" d="M82.74,-267.499C91.2304,-225.308 121.05,-104.529 194,-40.5 195.78,-38.9376 197.659,-37.4726 199.616,-36.0991"/>
<polygon fill="midnightblue" stroke="midnightblue" points="201.889,-38.8145 208.633,-30.6435 198.266,-32.8252 201.889,-38.8145"/>
</g>
</g>
</svg>
        <g id="navigator" transform="translate(0 0)" fill="#404254">
                <rect fill="#f2f5e9" fill-opacity="0.5" stroke="#606060" stroke-width=".5" x="0" y="0" width="60" height="60"/>
                <use id="zoomplus" xlink:href="#zoomPlus" x="17" y="9" onmousedown="handleZoom(evt,'in')"/>
                <use id="zoomminus" xlink:href="#zoomMin" x="42" y="9" onmousedown="handleZoom(evt,'out')"/>
                <use id="reset" xlink:href="#resetDef" x="30" y="36" onmousedown="handleReset()"/>
                <g id="arrowUp" xlink:href="#dirArrow" transform="translate(30 24)" onmousedown="handlePan(0,-1)">
                  <use xlink:href="#rim" fill="#404040">
                        <set attributeName="fill" to="#808080" begin="arrowUp.mouseover" end="arrowUp.mouseout"/>
                  </use>
                  <path fill="none" stroke="white" stroke-width="1.5" d="M0,-3.0v7 M-2.5,-0.5L0,-3.0L2.5,-0.5"/>
                </g>
                <g id="arrowRight" xlink:href="#dirArrow" transform="rotate(90) translate(36 -43)" onmousedown="handlePan(1,0)">
                  <use xlink:href="#rim" fill="#404040">
                        <set attributeName="fill" to="#808080" begin="arrowRight.mouseover" end="arrowRight.mouseout"/>
                  </use>
                  <path fill="none" stroke="white" stroke-width="1.5" d="M0,-3.0v7 M-2.5,-0.5L0,-3.0L2.5,-0.5"/>
                </g>
                <g id="arrowDown" xlink:href="#dirArrow" transform="rotate(180) translate(-30 -48)" onmousedown="handlePan(0,1)">
                  <use xlink:href="#rim" fill="#404040">
                        <set attributeName="fill" to="#808080" begin="arrowDown.mouseover" end="arrowDown.mouseout"/>
                  </use>
                  <path fill="none" stroke="white" stroke-width="1.5" d="M0,-3.0v7 M-2.5,-0.5L0,-3.0L2.5,-0.5"/>
                </g>
                <g id="arrowLeft" xlink:href="#dirArrow" transform="rotate(270) translate(-36 17)" onmousedown="handlePan(-1,0)">
                  <use xlink:href="#rim" fill="#404040">
                        <set attributeName="fill" to="#808080" begin="arrowLeft.mouseover" end="arrowLeft.mouseout"/>
                  </use>
                  <path fill="none" stroke="white" stroke-width="1.5" d="M0,-3.0v7 M-2.5,-0.5L0,-3.0L2.5,-0.5"/>
                </g>
        </g>
        <svg viewBox="0 0 15 15" width="100%" height="30px" preserveAspectRatio="xMaxYMin meet">
         <g id="arrow_out" transform="scale(0.3 0.3)">
          <a xlink:href="classAR_1_1TimeTransformedSymplecticIntegrator_a4db984abe326fd1a30b3d52f6537e5eb_cgraph_org.svg" target="_base">
           <rect id="button" ry="5" rx="5" y="6" x="6" height="38" width="38"
                fill="#f2f5e9" fill-opacity="0.5" stroke="#606060" stroke-width="1.0"/>
           <path id="arrow"
             d="M 11.500037,31.436501 C 11.940474,20.09759 22.043105,11.32322 32.158766,21.979434 L 37.068811,17.246167 C 37.068811,17.246167 37.088388,32 37.088388,32 L 22.160133,31.978069 C 22.160133,31.978069 26.997745,27.140456 26.997745,27.140456 C 18.528582,18.264221 13.291696,25.230495 11.500037,31.436501 z"
             style="fill:#404040;"/>
          </a>
         </g>
        </svg>
</svg>
