<?xml version="1.0" encoding="UTF-8" standalone="no"?>
<!DOCTYPE svg PUBLIC "-//W3C//DTD SVG 1.1//EN"
 "http://www.w3.org/Graphics/SVG/1.1/DTD/svg11.dtd">
<!-- Generated by graphviz version 2.38.0 (20140413.2041)
 -->
<!-- Title: COMM::List::clear Pages: 1 -->
<svg width="294pt" height="284pt"
 viewBox="0.00 0.00 294.00 284.00" xmlns="http://www.w3.org/2000/svg" xmlns:xlink="http://www.w3.org/1999/xlink">
<g id="graph0" class="graph" transform="scale(1 1) rotate(0) translate(4 280)">
<title>COMM::List::clear</title>
<polygon fill="white" stroke="none" points="-4,4 -4,-280 290,-280 290,4 -4,4"/>
<!-- Node1 -->
<g id="node1" class="node"><title>Node1</title>
<polygon fill="#bfbfbf" stroke="black" points="0,-126 0,-145 92,-145 92,-126 0,-126"/>
<text text-anchor="middle" x="46" y="-133" font-family="FreeSans" font-size="10.00">COMM::List::clear</text>
</g>
<!-- Node2 -->
<g id="node2" class="node"><title>Node2</title>
<g id="a_node2"><a xlink:href="classH4_1_1ARInformation.html#a35dab173023966109fc3a7cd4747159d" target="_top" xlink:title="H4::ARInformation::\lclear">
<polygon fill="white" stroke="black" points="157,-245.5 157,-275.5 257,-275.5 257,-245.5 157,-245.5"/>
<text text-anchor="start" x="165" y="-263.5" font-family="FreeSans" font-size="10.00">H4::ARInformation::</text>
<text text-anchor="middle" x="207" y="-252.5" font-family="FreeSans" font-size="10.00">clear</text>
</a>
</g>
</g>
<!-- Node1&#45;&gt;Node2 -->
<g id="edge1" class="edge"><title>Node1&#45;&gt;Node2</title>
<path fill="none" stroke="midnightblue" d="M57.2021,-154.126C70.5655,-176.826 96.0929,-214.827 128,-236.5 136.673,-242.391 146.849,-246.882 156.935,-250.29"/>
<polygon fill="midnightblue" stroke="midnightblue" points="60.0813,-152.11 52.0873,-145.157 54.0005,-155.577 60.0813,-152.11"/>
</g>
<!-- Node3 -->
<g id="node3" class="node"><title>Node3</title>
<g id="a_node3"><a xlink:href="classH4_1_1HermiteIntegrator.html#a7729add39ba30b96c19aa6337dd38293" target="_top" xlink:title="clear function ">
<polygon fill="white" stroke="black" points="153,-196.5 153,-226.5 261,-226.5 261,-196.5 153,-196.5"/>
<text text-anchor="start" x="161" y="-214.5" font-family="FreeSans" font-size="10.00">H4::HermiteIntegrator</text>
<text text-anchor="middle" x="207" y="-203.5" font-family="FreeSans" font-size="10.00">::clear</text>
</a>
</g>
</g>
<!-- Node1&#45;&gt;Node3 -->
<g id="edge2" class="edge"><title>Node1&#45;&gt;Node3</title>
<path fill="none" stroke="midnightblue" d="M68.0409,-151.281C83.8739,-162.579 106.46,-177.501 128,-187.5 135.839,-191.139 144.371,-194.406 152.821,-197.273"/>
<polygon fill="midnightblue" stroke="midnightblue" points="69.7041,-148.163 59.5579,-145.113 65.5872,-153.825 69.7041,-148.163"/>
</g>
<!-- Node4 -->
<g id="node4" class="node"><title>Node4</title>
<g id="a_node4"><a xlink:href="classH4_1_1HermiteIntegrator.html#a58a59fd478331237bafbe42b0fbe9d4b" target="_top" xlink:title="break groups ">
<polygon fill="white" stroke="black" points="153,-147.5 153,-177.5 261,-177.5 261,-147.5 153,-147.5"/>
<text text-anchor="start" x="161" y="-165.5" font-family="FreeSans" font-size="10.00">H4::HermiteIntegrator</text>
<text text-anchor="middle" x="207" y="-154.5" font-family="FreeSans" font-size="10.00">::breakGroups</text>
</a>
</g>
</g>
<!-- Node1&#45;&gt;Node4 -->
<g id="edge3" class="edge"><title>Node1&#45;&gt;Node4</title>
<path fill="none" stroke="midnightblue" d="M102.146,-144.864C118.585,-147.656 136.561,-150.709 152.869,-153.478"/>
<polygon fill="midnightblue" stroke="midnightblue" points="102.583,-141.389 92.1377,-143.165 101.411,-148.29 102.583,-141.389"/>
</g>
<!-- Node5 -->
<g id="node5" class="node"><title>Node5</title>
<g id="a_node5"><a xlink:href="classAR_1_1Information.html#ab8e8198bc43281784e7f84e988ecf7bc" target="_top" xlink:title="clear function ">
<polygon fill="white" stroke="black" points="140,-88 140,-129 274,-129 274,-88 140,-88"/>
<text text-anchor="start" x="148" y="-117" font-family="FreeSans" font-size="10.00">AR::Information&lt; Particle</text>
<text text-anchor="start" x="148" y="-106" font-family="FreeSans" font-size="10.00">AR&lt; Tparticle &gt;, ParticleH4</text>
<text text-anchor="middle" x="207" y="-95" font-family="FreeSans" font-size="10.00">&lt; Tparticle &gt; &gt;::clear</text>
</a>
</g>
</g>
<!-- Node1&#45;&gt;Node5 -->
<g id="edge4" class="edge"><title>Node1&#45;&gt;Node5</title>
<path fill="none" stroke="midnightblue" d="M102.155,-126.134C114.351,-124.063 127.394,-121.848 139.973,-119.712"/>
<polygon fill="midnightblue" stroke="midnightblue" points="101.411,-122.71 92.1377,-127.835 102.583,-129.611 101.411,-122.71"/>
</g>
<!-- Node6 -->
<g id="node6" class="node"><title>Node6</title>
<g id="a_node6"><a xlink:href="classH4_1_1Neighbor.html#a8b785d84927d544959711bcde3f6c668" target="_top" xlink:title="clear function ">
<polygon fill="white" stroke="black" points="158.5,-50 158.5,-69 255.5,-69 255.5,-50 158.5,-50"/>
<text text-anchor="middle" x="207" y="-57" font-family="FreeSans" font-size="10.00">H4::Neighbor::clear</text>
</a>
</g>
</g>
<!-- Node1&#45;&gt;Node6 -->
<g id="edge5" class="edge"><title>Node1&#45;&gt;Node6</title>
<path fill="none" stroke="midnightblue" d="M65.5532,-119.371C81.216,-106.543 104.748,-89.0536 128,-78.5 137.519,-74.1797 148.155,-70.7601 158.437,-68.0841"/>
<polygon fill="midnightblue" stroke="midnightblue" points="63.1274,-116.837 57.7129,-125.944 67.6247,-122.202 63.1274,-116.837"/>
</g>
<!-- Node7 -->
<g id="node7" class="node"><title>Node7</title>
<g id="a_node7"><a xlink:href="classAR_1_1TimeTransformedSymplecticIntegrator.html#aaa3a79d58bda3139dc300f0f46bff536" target="_top" xlink:title="Clear function. ">
<polygon fill="white" stroke="black" points="128,-0.5 128,-30.5 286,-30.5 286,-0.5 128,-0.5"/>
<text text-anchor="start" x="136" y="-18.5" font-family="FreeSans" font-size="10.00">AR::TimeTransformedSymplectic</text>
<text text-anchor="middle" x="207" y="-7.5" font-family="FreeSans" font-size="10.00">Integrator::clear</text>
</a>
</g>
</g>
<!-- Node1&#45;&gt;Node7 -->
<g id="edge6" class="edge"><title>Node1&#45;&gt;Node7</title>
<path fill="none" stroke="midnightblue" d="M57.9318,-117.403C71.7164,-96.0577 97.3559,-60.906 128,-40.5 133.8,-36.638 140.237,-33.3385 146.855,-30.5276"/>
<polygon fill="midnightblue" stroke="midnightblue" points="54.9635,-115.548 52.6132,-125.879 60.8929,-119.269 54.9635,-115.548"/>
</g>
</g>
</svg>
