<?xml version="1.0" encoding="UTF-8" standalone="no"?>
<!DOCTYPE svg PUBLIC "-//W3C//DTD SVG 1.1//EN"
 "http://www.w3.org/Graphics/SVG/1.1/DTD/svg11.dtd">
<!-- Generated by graphviz version 2.38.0 (20140413.2041)
 -->
<!-- Title: H4::ARInformation::printColumnTitle Pages: 1 -->
<svg width="298pt" height="50pt"
 viewBox="0.00 0.00 298.00 50.00" xmlns="http://www.w3.org/2000/svg" xmlns:xlink="http://www.w3.org/1999/xlink">
<g id="graph0" class="graph" transform="scale(1 1) rotate(0) translate(4 46)">
<title>H4::ARInformation::printColumnTitle</title>
<polygon fill="white" stroke="none" points="-4,4 -4,-46 294,-46 294,4 -4,4"/>
<!-- Node1 -->
<g id="node1" class="node"><title>Node1</title>
<polygon fill="#bfbfbf" stroke="black" points="0,-6 0,-36 100,-36 100,-6 0,-6"/>
<text text-anchor="start" x="8" y="-24" font-family="FreeSans" font-size="10.00">H4::ARInformation::</text>
<text text-anchor="middle" x="50" y="-13" font-family="FreeSans" font-size="10.00">printColumnTitle</text>
</g>
<!-- Node2 -->
<g id="node2" class="node"><title>Node2</title>
<g id="a_node2"><a xlink:href="classAR_1_1Information.html#ace11fe149ad76166c61aeb29a4957d0d" target="_top" xlink:title="print titles of class members using column style ">
<polygon fill="white" stroke="black" points="136,-0.5 136,-41.5 290,-41.5 290,-0.5 136,-0.5"/>
<text text-anchor="start" x="144" y="-29.5" font-family="FreeSans" font-size="10.00">AR::Information&lt; Particle</text>
<text text-anchor="start" x="144" y="-18.5" font-family="FreeSans" font-size="10.00">AR&lt; Tparticle &gt;, ParticleH4</text>
<text text-anchor="middle" x="213" y="-7.5" font-family="FreeSans" font-size="10.00">&lt; Tparticle &gt; &gt;::printColumnTitle</text>
</a>
</g>
</g>
<!-- Node1&#45;&gt;Node2 -->
<g id="edge1" class="edge"><title>Node1&#45;&gt;Node2</title>
<path fill="none" stroke="midnightblue" d="M100.18,-21C108.289,-21 116.9,-21 125.604,-21"/>
<polygon fill="midnightblue" stroke="midnightblue" points="125.839,-24.5001 135.839,-21 125.839,-17.5001 125.839,-24.5001"/>
</g>
</g>
</svg>
