<?xml version="1.0" encoding="UTF-8" standalone="no"?>
<!DOCTYPE svg PUBLIC "-//W3C//DTD SVG 1.1//EN"
 "http://www.w3.org/Graphics/SVG/1.1/DTD/svg11.dtd">
<!-- Generated by graphviz version 2.38.0 (20140413.2041)
 -->
<!-- Title: AR::TimeTransformedSymplecticManager::checkParams Pages: 1 -->
<svg width="360pt" height="284pt"
 viewBox="0.00 0.00 360.00 284.00" xmlns="http://www.w3.org/2000/svg" xmlns:xlink="http://www.w3.org/1999/xlink">
<g id="graph0" class="graph" transform="scale(1 1) rotate(0) translate(4 280)">
<title>AR::TimeTransformedSymplecticManager::checkParams</title>
<polygon fill="white" stroke="none" points="-4,4 -4,-280 356,-280 356,4 -4,4"/>
<!-- Node1 -->
<g id="node1" class="node"><title>Node1</title>
<polygon fill="#bfbfbf" stroke="black" points="0,-122.5 0,-152.5 158,-152.5 158,-122.5 0,-122.5"/>
<text text-anchor="start" x="8" y="-140.5" font-family="FreeSans" font-size="10.00">AR::TimeTransformedSymplectic</text>
<text text-anchor="middle" x="79" y="-129.5" font-family="FreeSans" font-size="10.00">Manager::checkParams</text>
</g>
<!-- Node2 -->
<g id="node2" class="node"><title>Node2</title>
<g id="a_node2"><a xlink:href="classH4_1_1HermiteIntegrator.html#a5c92334f487ce31326f4469035b24ba7" target="_top" xlink:title="check whether parameters values are correct ">
<polygon fill="white" stroke="black" points="219,-245.5 219,-275.5 327,-275.5 327,-245.5 219,-245.5"/>
<text text-anchor="start" x="227" y="-263.5" font-family="FreeSans" font-size="10.00">H4::HermiteIntegrator</text>
<text text-anchor="middle" x="273" y="-252.5" font-family="FreeSans" font-size="10.00">::checkParams</text>
</a>
</g>
</g>
<!-- Node1&#45;&gt;Node2 -->
<g id="edge1" class="edge"><title>Node1&#45;&gt;Node2</title>
<path fill="none" stroke="midnightblue" d="M100.552,-160.185C121.913,-182.509 157.303,-216.127 194,-236.5 201.68,-240.764 210.215,-244.37 218.741,-247.387"/>
<polygon fill="midnightblue" stroke="midnightblue" points="103.004,-157.684 93.6022,-152.8 97.9066,-162.481 103.004,-157.684"/>
</g>
<!-- Node3 -->
<g id="node3" class="node"><title>Node3</title>
<g id="a_node3"><a xlink:href="classAR_1_1TimeTransformedSymplecticIntegrator.html#a627ee2ed40338b50d6462c92ff08219f" target="_top" xlink:title="check whether parameters values are correct ">
<polygon fill="white" stroke="black" points="194,-196.5 194,-226.5 352,-226.5 352,-196.5 194,-196.5"/>
<text text-anchor="start" x="202" y="-214.5" font-family="FreeSans" font-size="10.00">AR::TimeTransformedSymplectic</text>
<text text-anchor="middle" x="273" y="-203.5" font-family="FreeSans" font-size="10.00">Integrator::checkParams</text>
</a>
</g>
</g>
<!-- Node1&#45;&gt;Node3 -->
<g id="edge2" class="edge"><title>Node1&#45;&gt;Node3</title>
<path fill="none" stroke="midnightblue" d="M120.716,-156.716C142.258,-166.536 169.296,-178.316 194,-187.5 202.367,-190.61 211.339,-193.643 220.113,-196.448"/>
<polygon fill="midnightblue" stroke="midnightblue" points="122.087,-153.495 111.539,-152.501 119.165,-159.856 122.087,-153.495"/>
</g>
<!-- Node4 -->
<g id="node4" class="node"><title>Node4</title>
<g id="a_node4"><a xlink:href="classAR_1_1TimeTransformedSymplecticIntegrator.html#a4db984abe326fd1a30b3d52f6537e5eb" target="_top" xlink:title="initialization for integration ">
<polygon fill="white" stroke="black" points="194,-147.5 194,-177.5 352,-177.5 352,-147.5 194,-147.5"/>
<text text-anchor="start" x="202" y="-165.5" font-family="FreeSans" font-size="10.00">AR::TimeTransformedSymplectic</text>
<text text-anchor="middle" x="273" y="-154.5" font-family="FreeSans" font-size="10.00">Integrator::initialIntegration</text>
</a>
</g>
</g>
<!-- Node1&#45;&gt;Node4 -->
<g id="edge3" class="edge"><title>Node1&#45;&gt;Node4</title>
<path fill="none" stroke="midnightblue" d="M168.153,-148.978C176.769,-150.1 185.47,-151.233 193.975,-152.341"/>
<polygon fill="midnightblue" stroke="midnightblue" points="168.462,-145.489 158.094,-147.668 167.558,-152.43 168.462,-145.489"/>
</g>
<!-- Node5 -->
<g id="node5" class="node"><title>Node5</title>
<g id="a_node5"><a xlink:href="classAR_1_1TimeTransformedSymplecticIntegrator.html#acb82fbf04578955d8dcf8035c0f97ee3" target="_top" xlink:title="integration for one step ">
<polygon fill="white" stroke="black" points="194,-98.5 194,-128.5 352,-128.5 352,-98.5 194,-98.5"/>
<text text-anchor="start" x="202" y="-116.5" font-family="FreeSans" font-size="10.00">AR::TimeTransformedSymplectic</text>
<text text-anchor="middle" x="273" y="-105.5" font-family="FreeSans" font-size="10.00">Integrator::integrateOneStep</text>
</a>
</g>
</g>
<!-- Node1&#45;&gt;Node5 -->
<g id="edge4" class="edge"><title>Node1&#45;&gt;Node5</title>
<path fill="none" stroke="midnightblue" d="M168.153,-126.481C176.769,-125.404 185.47,-124.316 193.975,-123.253"/>
<polygon fill="midnightblue" stroke="midnightblue" points="167.582,-123.025 158.094,-127.738 168.451,-129.971 167.582,-123.025"/>
</g>
<!-- Node6 -->
<g id="node6" class="node"><title>Node6</title>
<g id="a_node6"><a xlink:href="classAR_1_1TimeTransformedSymplecticIntegrator.html#aa9bc3285b782123da733df7d123a4ad6" target="_top" xlink:title="integration for two body one step ">
<polygon fill="white" stroke="black" points="194,-49.5 194,-79.5 352,-79.5 352,-49.5 194,-49.5"/>
<text text-anchor="start" x="202" y="-67.5" font-family="FreeSans" font-size="10.00">AR::TimeTransformedSymplectic</text>
<text text-anchor="middle" x="273" y="-56.5" font-family="FreeSans" font-size="10.00">Integrator::integrateTwoOneStep</text>
</a>
</g>
</g>
<!-- Node1&#45;&gt;Node6 -->
<g id="edge5" class="edge"><title>Node1&#45;&gt;Node6</title>
<path fill="none" stroke="midnightblue" d="M122.982,-118.344C144.184,-109.166 170.247,-98.2877 194,-89.5 203.202,-86.0955 213.111,-82.71 222.676,-79.5807"/>
<polygon fill="midnightblue" stroke="midnightblue" points="121.378,-115.224 113.608,-122.427 124.173,-121.642 121.378,-115.224"/>
</g>
<!-- Node7 -->
<g id="node7" class="node"><title>Node7</title>
<g id="a_node7"><a xlink:href="classAR_1_1TimeTransformedSymplecticIntegrator.html#a24f338caf7308ceda28fcd7f8a223165" target="_top" xlink:title="AR::TimeTransformedSymplectic\lIntegrator::integrateToTime">
<polygon fill="white" stroke="black" points="194,-0.5 194,-30.5 352,-30.5 352,-0.5 194,-0.5"/>
<text text-anchor="start" x="202" y="-18.5" font-family="FreeSans" font-size="10.00">AR::TimeTransformedSymplectic</text>
<text text-anchor="middle" x="273" y="-7.5" font-family="FreeSans" font-size="10.00">Integrator::integrateToTime</text>
</a>
</g>
</g>
<!-- Node1&#45;&gt;Node7 -->
<g id="edge6" class="edge"><title>Node1&#45;&gt;Node7</title>
<path fill="none" stroke="midnightblue" d="M101.053,-115.018C122.559,-93.231 157.839,-60.6124 194,-40.5 200.835,-36.6984 208.333,-33.3763 215.895,-30.5033"/>
<polygon fill="midnightblue" stroke="midnightblue" points="98.5002,-112.623 94.042,-122.234 103.521,-117.501 98.5002,-112.623"/>
</g>
</g>
</svg>
