<?xml version="1.0" encoding="UTF-8" standalone="no"?>
<!DOCTYPE svg PUBLIC "-//W3C//DTD SVG 1.1//EN"
 "http://www.w3.org/Graphics/SVG/1.1/DTD/svg11.dtd">
<!-- Generated by graphviz version 2.38.0 (20140413.2041)
 -->
<!-- Title: AR::TimeTransformedSymplecticIntegrator::getBackupDataSize Pages: 1 -->
<svg width="372pt" height="78pt"
 viewBox="0.00 0.00 372.00 77.50" xmlns="http://www.w3.org/2000/svg" xmlns:xlink="http://www.w3.org/1999/xlink">
<g id="graph0" class="graph" transform="scale(1 1) rotate(0) translate(4 73.5)">
<title>AR::TimeTransformedSymplecticIntegrator::getBackupDataSize</title>
<polygon fill="white" stroke="none" points="-4,4 -4,-73.5 368,-73.5 368,4 -4,4"/>
<!-- Node1 -->
<g id="node1" class="node"><title>Node1</title>
<polygon fill="#bfbfbf" stroke="black" points="0,-17 0,-47 158,-47 158,-17 0,-17"/>
<text text-anchor="start" x="8" y="-35" font-family="FreeSans" font-size="10.00">AR::TimeTransformedSymplectic</text>
<text text-anchor="middle" x="79" y="-24" font-family="FreeSans" font-size="10.00">Integrator::getBackupDataSize</text>
</g>
<!-- Node2 -->
<g id="node2" class="node"><title>Node2</title>
<g id="a_node2"><a xlink:href="classCOMM_1_1ParticleGroup.html#a1f2bf3c79eca0f4eaa338c3191b92d2c" target="_top" xlink:title="get backup data size ">
<polygon fill="white" stroke="black" points="223.5,-39 223.5,-69 334.5,-69 334.5,-39 223.5,-39"/>
<text text-anchor="start" x="231.5" y="-57" font-family="FreeSans" font-size="10.00">COMM::ParticleGroup</text>
<text text-anchor="middle" x="279" y="-46" font-family="FreeSans" font-size="10.00">::getBackupDataSize</text>
</a>
</g>
</g>
<!-- Node1&#45;&gt;Node2 -->
<g id="edge1" class="edge"><title>Node1&#45;&gt;Node2</title>
<path fill="none" stroke="midnightblue" d="M158.255,-40.695C176.508,-42.7231 195.745,-44.8606 213.333,-46.8148"/>
<polygon fill="midnightblue" stroke="midnightblue" points="213.153,-50.3162 223.478,-47.942 213.926,-43.359 213.153,-50.3162"/>
</g>
<!-- Node3 -->
<g id="node3" class="node"><title>Node3</title>
<g id="a_node3"><a xlink:href="classAR_1_1SlowDown.html#aa4a3ca60109ddaf0124d34109f18ddb9" target="_top" xlink:title="get backup data size ">
<polygon fill="white" stroke="black" points="194,-0.5 194,-19.5 364,-19.5 364,-0.5 194,-0.5"/>
<text text-anchor="middle" x="279" y="-7.5" font-family="FreeSans" font-size="10.00">AR::SlowDown::getBackupDataSize</text>
</a>
</g>
</g>
<!-- Node1&#45;&gt;Node3 -->
<g id="edge2" class="edge"><title>Node1&#45;&gt;Node3</title>
<path fill="none" stroke="midnightblue" d="M158.255,-23.305C166.646,-22.3727 175.245,-21.4173 183.796,-20.4671"/>
<polygon fill="midnightblue" stroke="midnightblue" points="184.245,-23.9389 193.797,-19.3559 183.472,-16.9817 184.245,-23.9389"/>
</g>
</g>
</svg>
