<?xml version="1.0" encoding="UTF-8" standalone="no"?>
<!DOCTYPE svg PUBLIC "-//W3C//DTD SVG 1.1//EN"
 "http://www.w3.org/Graphics/SVG/1.1/DTD/svg11.dtd">
<!-- Generated by graphviz version 2.43.0 (0)
 -->
<!-- Title: COMM::Binary::evolve Pages: 1 -->
<svg width="481pt" height="28pt"
 viewBox="0.00 0.00 481.00 28.00" xmlns="http://www.w3.org/2000/svg" xmlns:xlink="http://www.w3.org/1999/xlink">
<g id="graph0" class="graph" transform="scale(1 1) rotate(0) translate(4 24)">
<title>COMM::Binary::evolve</title>
<polygon fill="white" stroke="transparent" points="-4,4 -4,-24 477,-24 477,4 -4,4"/>
<!-- Node1 -->
<g id="node1" class="node">
<title>Node1</title>
<g id="a_node1"><a xlink:title="Solve kepler motion for dt.">
<polygon fill="#bfbfbf" stroke="black" points="0,-0.5 0,-19.5 112,-19.5 112,-0.5 0,-0.5"/>
<text text-anchor="middle" x="56" y="-7.5" font-family="FreeSans" font-size="10.00">COMM::Binary::evolve</text>
</a>
</g>
</g>
<!-- Node2 -->
<g id="node2" class="node">
<title>Node2</title>
<g id="a_node2"><a xlink:href="classCOMM_1_1Binary.html#a223000b97a96b3c97941d8ec6af32dbc" target="_top" xlink:title="solve kepler orbit after dt">
<polygon fill="white" stroke="black" points="148,-0.5 148,-19.5 282,-19.5 282,-0.5 148,-0.5"/>
<text text-anchor="middle" x="215" y="-7.5" font-family="FreeSans" font-size="10.00">COMM::Binary::solveKepler</text>
</a>
</g>
</g>
<!-- Node1&#45;&gt;Node2 -->
<g id="edge1" class="edge">
<title>Node1&#45;&gt;Node2</title>
<path fill="none" stroke="midnightblue" d="M112.35,-10C120.6,-10 129.22,-10 137.81,-10"/>
<polygon fill="midnightblue" stroke="midnightblue" points="137.85,-13.5 147.85,-10 137.85,-6.5 137.85,-13.5"/>
</g>
<!-- Node3 -->
<g id="node3" class="node">
<title>Node3</title>
<g id="a_node3"><a xlink:href="classCOMM_1_1Binary.html#aa67e18ce883bda9e858c76e3d8a56ca8" target="_top" xlink:title="calculate eccentric anomaly from separation (0&#45;pi)">
<polygon fill="white" stroke="black" points="318,-0.5 318,-19.5 473,-19.5 473,-0.5 318,-0.5"/>
<text text-anchor="middle" x="395.5" y="-7.5" font-family="FreeSans" font-size="10.00">COMM::Binary::calcEccAnomaly</text>
</a>
</g>
</g>
<!-- Node2&#45;&gt;Node3 -->
<g id="edge2" class="edge">
<title>Node2&#45;&gt;Node3</title>
<path fill="none" stroke="midnightblue" d="M282.21,-10C290.56,-10 299.19,-10 307.79,-10"/>
<polygon fill="midnightblue" stroke="midnightblue" points="307.85,-13.5 317.85,-10 307.85,-6.5 307.85,-13.5"/>
</g>
</g>
</svg>
