<?xml version="1.0" encoding="UTF-8" standalone="no"?>
<!DOCTYPE svg PUBLIC "-//W3C//DTD SVG 1.1//EN"
 "http://www.w3.org/Graphics/SVG/1.1/DTD/svg11.dtd">
<!-- Generated by graphviz version 2.43.0 (0)
 -->
<!-- Title: H4::HermiteIntegrator::readGroupConfigureAscii Pages: 1 -->
<!--zoomable 302 -->
<svg id="main" version="1.1" xmlns="http://www.w3.org/2000/svg" xmlns:xlink="http://www.w3.org/1999/xlink" xml:space="preserve" onload="init(evt)">
<style type="text/css"><![CDATA[
.edge:hover path { stroke: red; }
.edge:hover polygon { stroke: red; fill: red; }
]]></style>
<script type="text/javascript"><![CDATA[
var edges = document.getElementsByTagName('g');
if (edges && edges.length) {
  for (var i=0;i<edges.length;i++) {
    if (edges[i].id.substr(0,4)=='edge') {
      edges[i].setAttribute('class','edge');
    }
  }
}
]]></script>
        <defs>
                <circle id="rim" cx="0" cy="0" r="7"/>
                <circle id="rim2" cx="0" cy="0" r="3.5"/>
                <g id="zoomPlus">
                        <use xlink:href="#rim" fill="#404040">
                                <set attributeName="fill" to="#808080" begin="zoomplus.mouseover" end="zoomplus.mouseout"/>
                        </use>
                        <path d="M-4,0h8M0,-4v8" fill="none" stroke="white" stroke-width="1.5" pointer-events="none"/>
                </g>
                <g id="zoomMin">
                        <use xlink:href="#rim" fill="#404040">
                                <set attributeName="fill" to="#808080" begin="zoomminus.mouseover" end="zoomminus.mouseout"/>
                        </use>
                        <path d="M-4,0h8" fill="none" stroke="white" stroke-width="1.5" pointer-events="none"/>
                </g>
                <g id="dirArrow">
                        <path fill="none" stroke="white" stroke-width="1.5" d="M0,-3.0v7 M-2.5,-0.5L0,-3.0L2.5,-0.5"/>
                </g>
               <g id="resetDef">
                       <use xlink:href="#rim2" fill="#404040">
                               <set attributeName="fill" to="#808080" begin="reset.mouseover" end="reset.mouseout"/>
                       </use>
               </g>
        </defs>

<script type="text/javascript">
var viewWidth = 654;
var viewHeight = 302;
var sectionId = 'dynsection-37';
</script>
<script xlink:href="svgpan.js"/>
<svg id="graph" class="graph">
<g id="viewport">
<title>H4::HermiteIntegrator::readGroupConfigureAscii</title>
<polygon fill="white" stroke="transparent" points="-4,4 -4,-297.5 650,-297.5 650,4 -4,4"/>
<!-- Node1 -->
<g id="node1" class="node">
<title>Node1</title>
<g id="a_node1"><a xlink:title="Add group based on a configure file.">
<polygon fill="#bfbfbf" stroke="black" points="0,-131.5 0,-161.5 128,-161.5 128,-131.5 0,-131.5"/>
<text text-anchor="start" x="8" y="-149.5" font-family="FreeSans" font-size="10.00">H4::HermiteIntegrator</text>
<text text-anchor="middle" x="64" y="-138.5" font-family="FreeSans" font-size="10.00">::readGroupConfigureAscii</text>
</a>
</g>
</g>
<!-- Node2 -->
<g id="node2" class="node">
<title>Node2</title>
<g id="a_node2"><a xlink:href="classH4_1_1HermiteIntegrator.html#aefaac6ef510ac839a678081a80e69131" target="_top" xlink:title="add groups from lists of particle index">
<polygon fill="white" stroke="black" points="164,-131.5 164,-161.5 274,-161.5 274,-131.5 164,-131.5"/>
<text text-anchor="start" x="172" y="-149.5" font-family="FreeSans" font-size="10.00">H4::HermiteIntegrator</text>
<text text-anchor="middle" x="219" y="-138.5" font-family="FreeSans" font-size="10.00">::addGroups</text>
</a>
</g>
</g>
<!-- Node1&#45;&gt;Node2 -->
<g id="edge1" class="edge">
<title>Node1&#45;&gt;Node2</title>
<path fill="none" stroke="midnightblue" d="M128.11,-146.5C136.54,-146.5 145.19,-146.5 153.64,-146.5"/>
<polygon fill="midnightblue" stroke="midnightblue" points="153.82,-150 163.82,-146.5 153.82,-143 153.82,-150"/>
</g>
<!-- Node3 -->
<g id="node3" class="node">
<title>Node3</title>
<g id="a_node3"><a xlink:href="classCOMM_1_1List.html#adeefdc2865fe56e2413b2cada9772a5e" target="_top" xlink:title="copy one member and its address">
<polygon fill="white" stroke="black" points="318.5,-274 318.5,-293 442.5,-293 442.5,-274 318.5,-274"/>
<text text-anchor="middle" x="380.5" y="-281" font-family="FreeSans" font-size="10.00">COMM::List::addMember</text>
</a>
</g>
</g>
<!-- Node2&#45;&gt;Node3 -->
<g id="edge2" class="edge">
<title>Node2&#45;&gt;Node3</title>
<path fill="none" stroke="midnightblue" d="M227.46,-161.54C240.62,-186.53 270.38,-236.53 310,-263.5 313.72,-266.03 317.76,-268.25 321.96,-270.19"/>
<polygon fill="midnightblue" stroke="midnightblue" points="320.76,-273.48 331.34,-274 323.4,-266.99 320.76,-273.48"/>
</g>
<!-- Node4 -->
<g id="node4" class="node">
<title>Node4</title>
<g id="a_node4"><a xlink:href="classH4_1_1HermiteIntegrator.html#a5c92334f487ce31326f4469035b24ba7" target="_top" xlink:title="check whether parameters values are correct">
<polygon fill="white" stroke="black" points="325.5,-224.5 325.5,-254.5 435.5,-254.5 435.5,-224.5 325.5,-224.5"/>
<text text-anchor="start" x="333.5" y="-242.5" font-family="FreeSans" font-size="10.00">H4::HermiteIntegrator</text>
<text text-anchor="middle" x="380.5" y="-231.5" font-family="FreeSans" font-size="10.00">::checkParams</text>
</a>
</g>
</g>
<!-- Node2&#45;&gt;Node4 -->
<g id="edge3" class="edge">
<title>Node2&#45;&gt;Node4</title>
<path fill="none" stroke="midnightblue" d="M236.85,-161.72C254.18,-176.75 282.44,-199.58 310,-214.5 313.91,-216.62 318.04,-218.62 322.25,-220.5"/>
<polygon fill="midnightblue" stroke="midnightblue" points="320.99,-223.77 331.56,-224.42 323.7,-217.31 320.99,-223.77"/>
</g>
<!-- Node7 -->
<g id="node7" class="node">
<title>Node7</title>
<g id="a_node7"><a xlink:href="classCOMM_1_1List.html#a4de82aa7b73a5f74ae2917e4740e3cb8" target="_top" xlink:title="increase size without initialization">
<polygon fill="white" stroke="black" points="315,-175.5 315,-205.5 446,-205.5 446,-175.5 315,-175.5"/>
<text text-anchor="start" x="323" y="-193.5" font-family="FreeSans" font-size="10.00">COMM::List::decreaseSize</text>
<text text-anchor="middle" x="380.5" y="-182.5" font-family="FreeSans" font-size="10.00">NoInitialize</text>
</a>
</g>
</g>
<!-- Node2&#45;&gt;Node7 -->
<g id="edge6" class="edge">
<title>Node2&#45;&gt;Node7</title>
<path fill="none" stroke="midnightblue" d="M274.44,-161.52C287.59,-165.15 301.76,-169.05 315.3,-172.79"/>
<polygon fill="midnightblue" stroke="midnightblue" points="314.46,-176.19 325.03,-175.47 316.32,-169.44 314.46,-176.19"/>
</g>
<!-- Node8 -->
<g id="node8" class="node">
<title>Node8</title>
<g id="a_node8"><a xlink:href="classCOMM_1_1List.html#abcdc25c6ecaf2d352583fa75f9fa1180" target="_top" xlink:title="return last member">
<polygon fill="white" stroke="black" points="310,-137 310,-156 451,-156 451,-137 310,-137"/>
<text text-anchor="middle" x="380.5" y="-144" font-family="FreeSans" font-size="10.00">COMM::List::getLastMember</text>
</a>
</g>
</g>
<!-- Node2&#45;&gt;Node8 -->
<g id="edge7" class="edge">
<title>Node2&#45;&gt;Node8</title>
<path fill="none" stroke="midnightblue" d="M274.44,-146.5C282.62,-146.5 291.19,-146.5 299.75,-146.5"/>
<polygon fill="midnightblue" stroke="midnightblue" points="299.79,-150 309.79,-146.5 299.79,-143 299.79,-150"/>
</g>
<!-- Node9 -->
<g id="node9" class="node">
<title>Node9</title>
<g id="a_node9"><a xlink:href="classCOMM_1_1List.html#a929bb5bdaaa7ce70d872ae0c758c77ae" target="_top" xlink:title="get current member number">
<polygon fill="white" stroke="black" points="328,-99 328,-118 433,-118 433,-99 328,-99"/>
<text text-anchor="middle" x="380.5" y="-106" font-family="FreeSans" font-size="10.00">COMM::List::getSize</text>
</a>
</g>
</g>
<!-- Node2&#45;&gt;Node9 -->
<g id="edge8" class="edge">
<title>Node2&#45;&gt;Node9</title>
<path fill="none" stroke="midnightblue" d="M274.44,-133.53C292.25,-129.29 311.93,-124.6 329.4,-120.44"/>
<polygon fill="midnightblue" stroke="midnightblue" points="330.48,-123.78 339.4,-118.05 328.86,-116.97 330.48,-123.78"/>
</g>
<!-- Node10 -->
<g id="node10" class="node">
<title>Node10</title>
<g id="a_node10"><a xlink:href="classCOMM_1_1List.html#a610a134731844b13df4b22ef0d9ad603" target="_top" xlink:title="increase size without initialization">
<polygon fill="white" stroke="black" points="316.5,-49.5 316.5,-79.5 444.5,-79.5 444.5,-49.5 316.5,-49.5"/>
<text text-anchor="start" x="324.5" y="-67.5" font-family="FreeSans" font-size="10.00">COMM::List::increaseSize</text>
<text text-anchor="middle" x="380.5" y="-56.5" font-family="FreeSans" font-size="10.00">NoInitialize</text>
</a>
</g>
</g>
<!-- Node2&#45;&gt;Node10 -->
<g id="edge9" class="edge">
<title>Node2&#45;&gt;Node10</title>
<path fill="none" stroke="midnightblue" d="M241.05,-131.3C258.82,-118.93 285.25,-101.61 310,-89.5 314.38,-87.36 318.99,-85.3 323.66,-83.35"/>
<polygon fill="midnightblue" stroke="midnightblue" points="325.31,-86.46 333.3,-79.51 322.71,-79.96 325.31,-86.46"/>
</g>
<!-- Node11 -->
<g id="node11" class="node">
<title>Node11</title>
<g id="a_node11"><a xlink:href="classCOMM_1_1Binary.html#ad1447e83c38bd8604ad129877f860da5" target="_top" xlink:title="print titles of class members using column style">
<polygon fill="white" stroke="black" points="313,-0.5 313,-30.5 448,-30.5 448,-0.5 313,-0.5"/>
<text text-anchor="start" x="321" y="-18.5" font-family="FreeSans" font-size="10.00">COMM::Binary::printColumn</text>
<text text-anchor="middle" x="380.5" y="-7.5" font-family="FreeSans" font-size="10.00">Title</text>
</a>
</g>
</g>
<!-- Node2&#45;&gt;Node11 -->
<g id="edge10" class="edge">
<title>Node2&#45;&gt;Node11</title>
<path fill="none" stroke="midnightblue" d="M228.85,-131.5C243.13,-108.52 273.39,-64.66 310,-39.5 312.24,-37.96 314.59,-36.51 317.01,-35.15"/>
<polygon fill="midnightblue" stroke="midnightblue" points="318.71,-38.21 326.06,-30.58 315.55,-31.96 318.71,-38.21"/>
</g>
<!-- Node5 -->
<g id="node5" class="node">
<title>Node5</title>
<g id="a_node5"><a xlink:href="classH4_1_1HermiteManager.html#ad5ab496b530db1dfab24bebc39fabe8e" target="_top" xlink:title="time step calculator">
<polygon fill="white" stroke="black" points="513.5,-248.5 513.5,-278.5 619.5,-278.5 619.5,-248.5 513.5,-248.5"/>
<text text-anchor="start" x="521.5" y="-266.5" font-family="FreeSans" font-size="10.00">H4::HermiteManager</text>
<text text-anchor="middle" x="566.5" y="-255.5" font-family="FreeSans" font-size="10.00">::checkParams</text>
</a>
</g>
</g>
<!-- Node4&#45;&gt;Node5 -->
<g id="edge4" class="edge">
<title>Node4&#45;&gt;Node5</title>
<path fill="none" stroke="midnightblue" d="M435.71,-246.57C456.85,-249.33 481.21,-252.51 503.08,-255.36"/>
<polygon fill="midnightblue" stroke="midnightblue" points="502.89,-258.86 513.26,-256.69 503.79,-251.92 502.89,-258.86"/>
</g>
<!-- Node6 -->
<g id="node6" class="node">
<title>Node6</title>
<g id="a_node6"><a xlink:href="classAR_1_1TimeTransformedSymplecticManager.html#a8921a86541d095de3a8685f4aad2da48" target="_top" xlink:title="check whether parameters values are correct">
<polygon fill="white" stroke="black" points="487,-199.5 487,-229.5 646,-229.5 646,-199.5 487,-199.5"/>
<text text-anchor="start" x="495" y="-217.5" font-family="FreeSans" font-size="10.00">AR::TimeTransformedSymplectic</text>
<text text-anchor="middle" x="566.5" y="-206.5" font-family="FreeSans" font-size="10.00">Manager::checkParams</text>
</a>
</g>
</g>
<!-- Node4&#45;&gt;Node6 -->
<g id="edge5" class="edge">
<title>Node4&#45;&gt;Node6</title>
<path fill="none" stroke="midnightblue" d="M435.71,-232.13C448.59,-230.38 462.67,-228.47 476.65,-226.57"/>
<polygon fill="midnightblue" stroke="midnightblue" points="477.35,-230.01 486.79,-225.19 476.41,-223.07 477.35,-230.01"/>
</g>
</g>
</svg>
        <g id="navigator" transform="translate(0 0)" fill="#404254">
                <rect fill="#f2f5e9" fill-opacity="0.5" stroke="#606060" stroke-width=".5" x="0" y="0" width="60" height="60"/>
                <use id="zoomplus" xlink:href="#zoomPlus" x="17" y="9" onmousedown="handleZoom(evt,'in')"/>
                <use id="zoomminus" xlink:href="#zoomMin" x="42" y="9" onmousedown="handleZoom(evt,'out')"/>
                <use id="reset" xlink:href="#resetDef" x="30" y="36" onmousedown="handleReset()"/>
                <g id="arrowUp" xlink:href="#dirArrow" transform="translate(30 24)" onmousedown="handlePan(0,-1)">
                  <use xlink:href="#rim" fill="#404040">
                        <set attributeName="fill" to="#808080" begin="arrowUp.mouseover" end="arrowUp.mouseout"/>
                  </use>
                  <path fill="none" stroke="white" stroke-width="1.5" d="M0,-3.0v7 M-2.5,-0.5L0,-3.0L2.5,-0.5"/>
                </g>
                <g id="arrowRight" xlink:href="#dirArrow" transform="rotate(90) translate(36 -43)" onmousedown="handlePan(1,0)">
                  <use xlink:href="#rim" fill="#404040">
                        <set attributeName="fill" to="#808080" begin="arrowRight.mouseover" end="arrowRight.mouseout"/>
                  </use>
                  <path fill="none" stroke="white" stroke-width="1.5" d="M0,-3.0v7 M-2.5,-0.5L0,-3.0L2.5,-0.5"/>
                </g>
                <g id="arrowDown" xlink:href="#dirArrow" transform="rotate(180) translate(-30 -48)" onmousedown="handlePan(0,1)">
                  <use xlink:href="#rim" fill="#404040">
                        <set attributeName="fill" to="#808080" begin="arrowDown.mouseover" end="arrowDown.mouseout"/>
                  </use>
                  <path fill="none" stroke="white" stroke-width="1.5" d="M0,-3.0v7 M-2.5,-0.5L0,-3.0L2.5,-0.5"/>
                </g>
                <g id="arrowLeft" xlink:href="#dirArrow" transform="rotate(270) translate(-36 17)" onmousedown="handlePan(-1,0)">
                  <use xlink:href="#rim" fill="#404040">
                        <set attributeName="fill" to="#808080" begin="arrowLeft.mouseover" end="arrowLeft.mouseout"/>
                  </use>
                  <path fill="none" stroke="white" stroke-width="1.5" d="M0,-3.0v7 M-2.5,-0.5L0,-3.0L2.5,-0.5"/>
                </g>
        </g>
        <svg viewBox="0 0 15 15" width="100%" height="30px" preserveAspectRatio="xMaxYMin meet">
         <g id="arrow_out" transform="scale(0.3 0.3)">
          <a xlink:href="classH4_1_1HermiteIntegrator_aa1916dc7e970885940bd74ed52aa222c_cgraph_org.svg" target="_base">
           <rect id="button" ry="5" rx="5" y="6" x="6" height="38" width="38"
                fill="#f2f5e9" fill-opacity="0.5" stroke="#606060" stroke-width="1.0"/>
           <path id="arrow"
             d="M 11.500037,31.436501 C 11.940474,20.09759 22.043105,11.32322 32.158766,21.979434 L 37.068811,17.246167 C 37.068811,17.246167 37.088388,32 37.088388,32 L 22.160133,31.978069 C 22.160133,31.978069 26.997745,27.140456 26.997745,27.140456 C 18.528582,18.264221 13.291696,25.230495 11.500037,31.436501 z"
             style="fill:#404040;"/>
          </a>
         </g>
        </svg>
</svg>
