<?xml version="1.0" encoding="UTF-8" standalone="no"?>
<!DOCTYPE svg PUBLIC "-//W3C//DTD SVG 1.1//EN"
 "http://www.w3.org/Graphics/SVG/1.1/DTD/svg11.dtd">
<!-- Generated by graphviz version 2.43.0 (0)
 -->
<!-- Title: COMM::BinaryTree::getMemberN Pages: 1 -->
<svg width="359pt" height="88pt"
 viewBox="0.00 0.00 359.00 88.00" xmlns="http://www.w3.org/2000/svg" xmlns:xlink="http://www.w3.org/1999/xlink">
<g id="graph0" class="graph" transform="scale(1 1) rotate(0) translate(4 84)">
<title>COMM::BinaryTree::getMemberN</title>
<polygon fill="white" stroke="transparent" points="-4,4 -4,-84 355,-84 355,4 -4,4"/>
<!-- Node1 -->
<g id="node1" class="node">
<title>Node1</title>
<g id="a_node1"><a xlink:title="get total number of members">
<polygon fill="#bfbfbf" stroke="black" points="192,-30 192,-49 351,-49 351,-30 192,-30"/>
<text text-anchor="middle" x="271.5" y="-37" font-family="FreeSans" font-size="10.00">COMM::BinaryTree::getMemberN</text>
</a>
</g>
</g>
<!-- Node2 -->
<g id="node2" class="node">
<title>Node2</title>
<g id="a_node2"><a xlink:href="classH4_1_1ARInformation.html#a55d7c4a863b607e26a826cc0d640618d" target="_top" xlink:title="Initialize group of particles from a binarytree.">
<polygon fill="white" stroke="black" points="0,-49.5 0,-79.5 156,-79.5 156,-49.5 0,-49.5"/>
<text text-anchor="start" x="8" y="-67.5" font-family="FreeSans" font-size="10.00">H4::ARInformation::</text>
<text text-anchor="middle" x="78" y="-56.5" font-family="FreeSans" font-size="10.00">addParticlesAndCopyBinaryTree</text>
</a>
</g>
</g>
<!-- Node1&#45;&gt;Node2 -->
<g id="edge1" class="edge">
<title>Node1&#45;&gt;Node2</title>
<path fill="none" stroke="midnightblue" d="M187.63,-50.32C177.19,-51.68 166.55,-53.07 156.2,-54.42"/>
<polygon fill="midnightblue" stroke="midnightblue" points="188.09,-53.79 197.56,-49.02 187.19,-46.85 188.09,-53.79"/>
</g>
<!-- Node3 -->
<g id="node3" class="node">
<title>Node3</title>
<g id="a_node3"><a xlink:href="classCOMM_1_1BinaryTree.html#a81333bcbb82bb9ec8426b08743475291" target="_top" xlink:title="Generate kepler binary tree for a group of particles.">
<polygon fill="white" stroke="black" points="6,-0.5 6,-30.5 150,-30.5 150,-0.5 6,-0.5"/>
<text text-anchor="start" x="14" y="-18.5" font-family="FreeSans" font-size="10.00">COMM::BinaryTree&lt; Tparticle</text>
<text text-anchor="middle" x="78" y="-7.5" font-family="FreeSans" font-size="10.00"> &gt;::generateBinaryTree</text>
</a>
</g>
</g>
<!-- Node1&#45;&gt;Node3 -->
<g id="edge2" class="edge">
<title>Node1&#45;&gt;Node3</title>
<path fill="none" stroke="midnightblue" d="M184.52,-28.72C173.04,-27.29 161.38,-25.82 150.19,-24.42"/>
<polygon fill="midnightblue" stroke="midnightblue" points="184.18,-32.21 194.54,-29.98 185.05,-25.26 184.18,-32.21"/>
</g>
</g>
</svg>
