<?xml version="1.0" encoding="UTF-8" standalone="no"?>
<!DOCTYPE svg PUBLIC "-//W3C//DTD SVG 1.1//EN"
 "http://www.w3.org/Graphics/SVG/1.1/DTD/svg11.dtd">
<!-- Generated by graphviz version 2.38.0 (20140413.2041)
 -->
<!-- Title: COMM::List::reserveMem Pages: 1 -->
<svg width="326pt" height="284pt"
 viewBox="0.00 0.00 326.00 284.00" xmlns="http://www.w3.org/2000/svg" xmlns:xlink="http://www.w3.org/1999/xlink">
<g id="graph0" class="graph" transform="scale(1 1) rotate(0) translate(4 280)">
<title>COMM::List::reserveMem</title>
<polygon fill="white" stroke="none" points="-4,4 -4,-280 322,-280 322,4 -4,4"/>
<!-- Node1 -->
<g id="node1" class="node"><title>Node1</title>
<polygon fill="#bfbfbf" stroke="black" points="0,-123 0,-142 124,-142 124,-123 0,-123"/>
<text text-anchor="middle" x="62" y="-130" font-family="FreeSans" font-size="10.00">COMM::List::reserveMem</text>
</g>
<!-- Node2 -->
<g id="node2" class="node"><title>Node2</title>
<g id="a_node2"><a xlink:href="classH4_1_1ARInformation.html#a2bebff4ce2ba995af165f03e72b6b088" target="_top" xlink:title="reserve memory ">
<polygon fill="white" stroke="black" points="189,-245.5 189,-275.5 289,-275.5 289,-245.5 189,-245.5"/>
<text text-anchor="start" x="197" y="-263.5" font-family="FreeSans" font-size="10.00">H4::ARInformation::</text>
<text text-anchor="middle" x="239" y="-252.5" font-family="FreeSans" font-size="10.00">reserveMem</text>
</a>
</g>
</g>
<!-- Node1&#45;&gt;Node2 -->
<g id="edge1" class="edge"><title>Node1&#45;&gt;Node2</title>
<path fill="none" stroke="midnightblue" d="M75.046,-150.341C91.5706,-173.485 123.42,-213.599 160,-236.5 168.767,-241.988 178.876,-246.298 188.849,-249.655"/>
<polygon fill="midnightblue" stroke="midnightblue" points="77.8911,-148.302 69.3003,-142.101 72.1493,-152.306 77.8911,-148.302"/>
</g>
<!-- Node3 -->
<g id="node3" class="node"><title>Node3</title>
<g id="a_node3"><a xlink:href="classH4_1_1HermiteIntegrator.html#ab37772f7b30dbb9cc6de51bf58a20fae" target="_top" xlink:title="reserve memory for system ">
<polygon fill="white" stroke="black" points="181.5,-196.5 181.5,-226.5 296.5,-226.5 296.5,-196.5 181.5,-196.5"/>
<text text-anchor="start" x="189.5" y="-214.5" font-family="FreeSans" font-size="10.00">H4::HermiteIntegrator</text>
<text text-anchor="middle" x="239" y="-203.5" font-family="FreeSans" font-size="10.00">::reserveIntegratorMem</text>
</a>
</g>
</g>
<!-- Node1&#45;&gt;Node3 -->
<g id="edge2" class="edge"><title>Node1&#45;&gt;Node3</title>
<path fill="none" stroke="midnightblue" d="M86.251,-147.595C105.453,-159.586 133.724,-176.169 160,-187.5 167.546,-190.754 175.676,-193.766 183.739,-196.478"/>
<polygon fill="midnightblue" stroke="midnightblue" points="87.9229,-144.511 77.6014,-142.12 84.179,-150.426 87.9229,-144.511"/>
</g>
<!-- Node4 -->
<g id="node4" class="node"><title>Node4</title>
<g id="a_node4"><a xlink:href="classAR_1_1Information.html#a989cdd6a1b4bf633d8361946ca1c87f9" target="_top" xlink:title="reserve memory of binarytree list ">
<polygon fill="white" stroke="black" points="171,-137 171,-178 307,-178 307,-137 171,-137"/>
<text text-anchor="start" x="179" y="-166" font-family="FreeSans" font-size="10.00">AR::Information&lt; Particle</text>
<text text-anchor="start" x="179" y="-155" font-family="FreeSans" font-size="10.00">AR&lt; Tparticle &gt;, ParticleH4</text>
<text text-anchor="middle" x="239" y="-144" font-family="FreeSans" font-size="10.00">&lt; Tparticle &gt; &gt;::reserveMem</text>
</a>
</g>
</g>
<!-- Node1&#45;&gt;Node4 -->
<g id="edge3" class="edge"><title>Node1&#45;&gt;Node4</title>
<path fill="none" stroke="midnightblue" d="M134.247,-142.678C146.345,-144.406 158.873,-146.196 170.86,-147.909"/>
<polygon fill="midnightblue" stroke="midnightblue" points="134.601,-139.193 124.207,-141.244 133.611,-146.123 134.601,-139.193"/>
</g>
<!-- Node5 -->
<g id="node5" class="node"><title>Node5</title>
<g id="a_node5"><a xlink:href="classH4_1_1Neighbor.html#a87e10f1f0d865d9bfd7bae47884ff95a" target="_top" xlink:title="reserve memory for neighbor lists ">
<polygon fill="white" stroke="black" points="175,-99 175,-118 303,-118 303,-99 175,-99"/>
<text text-anchor="middle" x="239" y="-106" font-family="FreeSans" font-size="10.00">H4::Neighbor::reserveMem</text>
</a>
</g>
</g>
<!-- Node1&#45;&gt;Node5 -->
<g id="edge4" class="edge"><title>Node1&#45;&gt;Node5</title>
<path fill="none" stroke="midnightblue" d="M134.323,-122.719C147.713,-120.882 161.627,-118.974 174.751,-117.174"/>
<polygon fill="midnightblue" stroke="midnightblue" points="133.638,-119.28 124.207,-124.106 134.589,-126.215 133.638,-119.28"/>
</g>
<!-- Node6 -->
<g id="node6" class="node"><title>Node6</title>
<g id="a_node6"><a xlink:href="classAR_1_1TimeTransformedSymplecticIntegrator.html#ac00641c72ad0f21c9796e8e6cb574530" target="_top" xlink:title="reserve memory for force ">
<polygon fill="white" stroke="black" points="160,-49.5 160,-79.5 318,-79.5 318,-49.5 160,-49.5"/>
<text text-anchor="start" x="168" y="-67.5" font-family="FreeSans" font-size="10.00">AR::TimeTransformedSymplectic</text>
<text text-anchor="middle" x="239" y="-56.5" font-family="FreeSans" font-size="10.00">Integrator::reserveIntegratorMem</text>
</a>
</g>
</g>
<!-- Node1&#45;&gt;Node6 -->
<g id="edge5" class="edge"><title>Node1&#45;&gt;Node6</title>
<path fill="none" stroke="midnightblue" d="M91.8793,-118.723C110.992,-109.849 136.731,-98.3576 160,-89.5 169.037,-86.06 178.777,-82.6835 188.208,-79.5796"/>
<polygon fill="midnightblue" stroke="midnightblue" points="90.3759,-115.563 82.803,-122.972 93.3437,-121.902 90.3759,-115.563"/>
</g>
<!-- Node7 -->
<g id="node7" class="node"><title>Node7</title>
<g id="a_node7"><a xlink:href="classAR_1_1TimeTransformedSymplecticIntegrator.html#a9a5c7bd3dfff2fd3ab96fd639ec30d27" target="_top" xlink:title="read class data with BINARY format and initial the array ">
<polygon fill="white" stroke="black" points="160,-0.5 160,-30.5 318,-30.5 318,-0.5 160,-0.5"/>
<text text-anchor="start" x="168" y="-18.5" font-family="FreeSans" font-size="10.00">AR::TimeTransformedSymplectic</text>
<text text-anchor="middle" x="239" y="-7.5" font-family="FreeSans" font-size="10.00">Integrator::readBinary</text>
</a>
</g>
</g>
<!-- Node1&#45;&gt;Node7 -->
<g id="edge6" class="edge"><title>Node1&#45;&gt;Node7</title>
<path fill="none" stroke="midnightblue" d="M77.0675,-115.043C94.5062,-94.4761 126.097,-60.5723 160,-40.5 166.363,-36.7328 173.359,-33.4645 180.469,-30.6479"/>
<polygon fill="midnightblue" stroke="midnightblue" points="74.1885,-113.032 70.4948,-122.962 79.5748,-117.502 74.1885,-113.032"/>
</g>
</g>
</svg>
