<?xml version="1.0" encoding="UTF-8" standalone="no"?>
<!DOCTYPE svg PUBLIC "-//W3C//DTD SVG 1.1//EN"
 "http://www.w3.org/Graphics/SVG/1.1/DTD/svg11.dtd">
<!-- Generated by graphviz version 2.43.0 (0)
 -->
<!-- Title: AR::TimeTransformedSymplecticIntegrator::~TimeTransformedSymplecticIntegrator Pages: 1 -->
<svg width="525pt" height="66pt"
 viewBox="0.00 0.00 525.00 66.00" xmlns="http://www.w3.org/2000/svg" xmlns:xlink="http://www.w3.org/1999/xlink">
<g id="graph0" class="graph" transform="scale(1 1) rotate(0) translate(4 62)">
<title>AR::TimeTransformedSymplecticIntegrator::~TimeTransformedSymplecticIntegrator</title>
<polygon fill="white" stroke="transparent" points="-4,4 -4,-62 521,-62 521,4 -4,4"/>
<!-- Node1 -->
<g id="node1" class="node">
<title>Node1</title>
<g id="a_node1"><a xlink:title="destructor">
<polygon fill="#bfbfbf" stroke="black" points="0,-8.5 0,-49.5 192,-49.5 192,-8.5 0,-8.5"/>
<text text-anchor="start" x="8" y="-37.5" font-family="FreeSans" font-size="10.00">AR::TimeTransformedSymplectic</text>
<text text-anchor="start" x="8" y="-26.5" font-family="FreeSans" font-size="10.00">Integrator::~TimeTransformedSymplectic</text>
<text text-anchor="middle" x="96" y="-15.5" font-family="FreeSans" font-size="10.00">Integrator</text>
</a>
</g>
</g>
<!-- Node2 -->
<g id="node2" class="node">
<title>Node2</title>
<g id="a_node2"><a xlink:href="classAR_1_1TimeTransformedSymplecticIntegrator.html#aaa3a79d58bda3139dc300f0f46bff536" target="_top" xlink:title="Clear function.">
<polygon fill="white" stroke="black" points="228,-14 228,-44 387,-44 387,-14 228,-14"/>
<text text-anchor="start" x="236" y="-32" font-family="FreeSans" font-size="10.00">AR::TimeTransformedSymplectic</text>
<text text-anchor="middle" x="307.5" y="-21" font-family="FreeSans" font-size="10.00">Integrator::clear</text>
</a>
</g>
</g>
<!-- Node1&#45;&gt;Node2 -->
<g id="edge1" class="edge">
<title>Node1&#45;&gt;Node2</title>
<path fill="none" stroke="midnightblue" d="M192.25,-29C200.7,-29 209.24,-29 217.63,-29"/>
<polygon fill="midnightblue" stroke="midnightblue" points="217.79,-32.5 227.79,-29 217.79,-25.5 217.79,-32.5"/>
</g>
<!-- Node3 -->
<g id="node3" class="node">
<title>Node3</title>
<g id="a_node3"><a xlink:href="classAR_1_1Profile.html#a848512d98c7ca1339f490523414100b3" target="_top" xlink:title=" ">
<polygon fill="white" stroke="black" points="426.5,-38.5 426.5,-57.5 513.5,-57.5 513.5,-38.5 426.5,-38.5"/>
<text text-anchor="middle" x="470" y="-45.5" font-family="FreeSans" font-size="10.00">AR::Profile::clear</text>
</a>
</g>
</g>
<!-- Node2&#45;&gt;Node3 -->
<g id="edge2" class="edge">
<title>Node2&#45;&gt;Node3</title>
<path fill="none" stroke="midnightblue" d="M387.34,-38.33C397.13,-39.49 406.95,-40.65 416.22,-41.75"/>
<polygon fill="midnightblue" stroke="midnightblue" points="416.07,-45.26 426.41,-42.96 416.89,-38.31 416.07,-45.26"/>
</g>
<!-- Node4 -->
<g id="node4" class="node">
<title>Node4</title>
<g id="a_node4"><a xlink:href="classCOMM_1_1List.html#aceaeddd10f8a05984f25a258a48c2620" target="_top" xlink:title="Clear function.">
<polygon fill="white" stroke="black" points="423,-0.5 423,-19.5 517,-19.5 517,-0.5 423,-0.5"/>
<text text-anchor="middle" x="470" y="-7.5" font-family="FreeSans" font-size="10.00">COMM::List::clear</text>
</a>
</g>
</g>
<!-- Node2&#45;&gt;Node4 -->
<g id="edge3" class="edge">
<title>Node2&#45;&gt;Node4</title>
<path fill="none" stroke="midnightblue" d="M387.34,-19.67C395.92,-18.65 404.53,-17.63 412.76,-16.66"/>
<polygon fill="midnightblue" stroke="midnightblue" points="413.45,-20.1 422.97,-15.45 412.62,-13.15 413.45,-20.1"/>
</g>
</g>
</svg>
