<?xml version="1.0" encoding="UTF-8" standalone="no"?>
<!DOCTYPE svg PUBLIC "-//W3C//DTD SVG 1.1//EN"
 "http://www.w3.org/Graphics/SVG/1.1/DTD/svg11.dtd">
<!-- Generated by graphviz version 2.38.0 (20140413.2041)
 -->
<!-- Title: H4::HermiteIntegrator::integrateSingleOneStepAct Pages: 1 -->
<svg width="323pt" height="176pt"
 viewBox="0.00 0.00 323.00 175.50" xmlns="http://www.w3.org/2000/svg" xmlns:xlink="http://www.w3.org/1999/xlink">
<g id="graph0" class="graph" transform="scale(1 1) rotate(0) translate(4 171.5)">
<title>H4::HermiteIntegrator::integrateSingleOneStepAct</title>
<polygon fill="white" stroke="none" points="-4,4 -4,-171.5 319,-171.5 319,4 -4,4"/>
<!-- Node1 -->
<g id="node1" class="node"><title>Node1</title>
<polygon fill="#bfbfbf" stroke="black" points="0,-63 0,-93 139,-93 139,-63 0,-63"/>
<text text-anchor="start" x="8" y="-81" font-family="FreeSans" font-size="10.00">H4::HermiteIntegrator</text>
<text text-anchor="middle" x="69.5" y="-70" font-family="FreeSans" font-size="10.00">::integrateSingleOneStepAct</text>
</g>
<!-- Node2 -->
<g id="node2" class="node"><title>Node2</title>
<g id="a_node2"><a xlink:href="classH4_1_1HermiteManager.html#ad5ab496b530db1dfab24bebc39fabe8e" target="_top" xlink:title="time step calculator ">
<polygon fill="white" stroke="black" points="193,-137 193,-167 297,-167 297,-137 193,-137"/>
<text text-anchor="start" x="201" y="-155" font-family="FreeSans" font-size="10.00">H4::HermiteManager</text>
<text text-anchor="middle" x="245" y="-144" font-family="FreeSans" font-size="10.00">::checkParams</text>
</a>
</g>
</g>
<!-- Node1&#45;&gt;Node2 -->
<g id="edge1" class="edge"><title>Node1&#45;&gt;Node2</title>
<path fill="none" stroke="midnightblue" d="M99.832,-93.1169C120.562,-103.532 149.149,-117.358 175,-128 179.457,-129.835 184.111,-131.653 188.805,-133.421"/>
<polygon fill="midnightblue" stroke="midnightblue" points="187.854,-136.8 198.448,-136.964 190.269,-130.23 187.854,-136.8"/>
</g>
<!-- Node3 -->
<g id="node3" class="node"><title>Node3</title>
<g id="a_node3"><a xlink:href="classCOMM_1_1List.html#aaddc8ba775e2a6504eb393d7d0c2235b" target="_top" xlink:title="Get modified status. ">
<polygon fill="white" stroke="black" points="188.5,-88 188.5,-118 301.5,-118 301.5,-88 188.5,-88"/>
<text text-anchor="start" x="196.5" y="-106" font-family="FreeSans" font-size="10.00">COMM::List&lt; Tparticle</text>
<text text-anchor="middle" x="245" y="-95" font-family="FreeSans" font-size="10.00"> &gt;::isModified</text>
</a>
</g>
</g>
<!-- Node1&#45;&gt;Node3 -->
<g id="edge2" class="edge"><title>Node1&#45;&gt;Node3</title>
<path fill="none" stroke="midnightblue" d="M139.072,-87.8807C152.002,-89.7438 165.496,-91.6881 178.334,-93.538"/>
<polygon fill="midnightblue" stroke="midnightblue" points="178.069,-97.0359 188.466,-94.998 179.067,-90.1075 178.069,-97.0359"/>
</g>
<!-- Node4 -->
<g id="node4" class="node"><title>Node4</title>
<g id="a_node4"><a xlink:href="classH4_1_1BlockTimeStep4th.html#a8532dd2e9fbbba336390b56295e21b76" target="_top" xlink:title="calculate the maximum time step limit for next block step based on the input (current) time ...">
<polygon fill="white" stroke="black" points="188.5,-39 188.5,-69 301.5,-69 301.5,-39 188.5,-39"/>
<text text-anchor="start" x="196.5" y="-57" font-family="FreeSans" font-size="10.00">H4::BlockTimeStep4th</text>
<text text-anchor="middle" x="245" y="-46" font-family="FreeSans" font-size="10.00">::calcNextDtLimit</text>
</a>
</g>
</g>
<!-- Node1&#45;&gt;Node4 -->
<g id="edge3" class="edge"><title>Node1&#45;&gt;Node4</title>
<path fill="none" stroke="midnightblue" d="M139.072,-68.5146C152.002,-66.726 165.496,-64.8594 178.334,-63.0835"/>
<polygon fill="midnightblue" stroke="midnightblue" points="179.04,-66.5192 188.466,-61.6819 178.081,-59.5853 179.04,-66.5192"/>
</g>
<!-- Node5 -->
<g id="node5" class="node"><title>Node5</title>
<g id="a_node5"><a xlink:href="classCOMM_1_1List.html#a125e4f93ee02b677f8377bd541f2105d" target="_top" xlink:title="return member data array address ">
<polygon fill="white" stroke="black" points="175,-0.5 175,-19.5 315,-19.5 315,-0.5 175,-0.5"/>
<text text-anchor="middle" x="245" y="-7.5" font-family="FreeSans" font-size="10.00">COMM::List::getDataAddress</text>
</a>
</g>
</g>
<!-- Node1&#45;&gt;Node5 -->
<g id="edge4" class="edge"><title>Node1&#45;&gt;Node5</title>
<path fill="none" stroke="midnightblue" d="M100.182,-62.9331C120.83,-52.8089 149.18,-39.6116 175,-30 182.152,-27.3377 189.827,-24.8055 197.366,-22.4933"/>
<polygon fill="midnightblue" stroke="midnightblue" points="198.555,-25.7913 207.144,-19.588 196.561,-19.0813 198.555,-25.7913"/>
</g>
</g>
</svg>
