<?xml version="1.0" encoding="UTF-8" standalone="no"?>
<!DOCTYPE svg PUBLIC "-//W3C//DTD SVG 1.1//EN"
 "http://www.w3.org/Graphics/SVG/1.1/DTD/svg11.dtd">
<!-- Generated by graphviz version 2.43.0 (0)
 -->
<!-- Title: H4::HermiteIntegrator::addGroups Pages: 1 -->
<svg width="490pt" height="302pt"
 viewBox="0.00 0.00 490.00 301.50" xmlns="http://www.w3.org/2000/svg" xmlns:xlink="http://www.w3.org/1999/xlink">
<g id="graph0" class="graph" transform="scale(1 1) rotate(0) translate(4 297.5)">
<title>H4::HermiteIntegrator::addGroups</title>
<polygon fill="white" stroke="transparent" points="-4,4 -4,-297.5 486,-297.5 486,4 -4,4"/>
<!-- Node1 -->
<g id="node1" class="node">
<title>Node1</title>
<g id="a_node1"><a xlink:title="add groups from lists of particle index">
<polygon fill="#bfbfbf" stroke="black" points="0,-131.5 0,-161.5 110,-161.5 110,-131.5 0,-131.5"/>
<text text-anchor="start" x="8" y="-149.5" font-family="FreeSans" font-size="10.00">H4::HermiteIntegrator</text>
<text text-anchor="middle" x="55" y="-138.5" font-family="FreeSans" font-size="10.00">::addGroups</text>
</a>
</g>
</g>
<!-- Node2 -->
<g id="node2" class="node">
<title>Node2</title>
<g id="a_node2"><a xlink:href="classCOMM_1_1List.html#adeefdc2865fe56e2413b2cada9772a5e" target="_top" xlink:title="copy one member and its address">
<polygon fill="white" stroke="black" points="154.5,-274 154.5,-293 278.5,-293 278.5,-274 154.5,-274"/>
<text text-anchor="middle" x="216.5" y="-281" font-family="FreeSans" font-size="10.00">COMM::List::addMember</text>
</a>
</g>
</g>
<!-- Node1&#45;&gt;Node2 -->
<g id="edge1" class="edge">
<title>Node1&#45;&gt;Node2</title>
<path fill="none" stroke="midnightblue" d="M63.46,-161.54C76.62,-186.53 106.38,-236.53 146,-263.5 149.72,-266.03 153.76,-268.25 157.96,-270.19"/>
<polygon fill="midnightblue" stroke="midnightblue" points="156.76,-273.48 167.34,-274 159.4,-266.99 156.76,-273.48"/>
</g>
<!-- Node3 -->
<g id="node3" class="node">
<title>Node3</title>
<g id="a_node3"><a xlink:href="classH4_1_1HermiteIntegrator.html#a5c92334f487ce31326f4469035b24ba7" target="_top" xlink:title="check whether parameters values are correct">
<polygon fill="white" stroke="black" points="161.5,-224.5 161.5,-254.5 271.5,-254.5 271.5,-224.5 161.5,-224.5"/>
<text text-anchor="start" x="169.5" y="-242.5" font-family="FreeSans" font-size="10.00">H4::HermiteIntegrator</text>
<text text-anchor="middle" x="216.5" y="-231.5" font-family="FreeSans" font-size="10.00">::checkParams</text>
</a>
</g>
</g>
<!-- Node1&#45;&gt;Node3 -->
<g id="edge2" class="edge">
<title>Node1&#45;&gt;Node3</title>
<path fill="none" stroke="midnightblue" d="M72.85,-161.72C90.18,-176.75 118.44,-199.58 146,-214.5 149.91,-216.62 154.04,-218.62 158.25,-220.5"/>
<polygon fill="midnightblue" stroke="midnightblue" points="156.99,-223.77 167.56,-224.42 159.7,-217.31 156.99,-223.77"/>
</g>
<!-- Node6 -->
<g id="node6" class="node">
<title>Node6</title>
<g id="a_node6"><a xlink:href="classCOMM_1_1List.html#a4de82aa7b73a5f74ae2917e4740e3cb8" target="_top" xlink:title="increase size without initialization">
<polygon fill="white" stroke="black" points="151,-175.5 151,-205.5 282,-205.5 282,-175.5 151,-175.5"/>
<text text-anchor="start" x="159" y="-193.5" font-family="FreeSans" font-size="10.00">COMM::List::decreaseSize</text>
<text text-anchor="middle" x="216.5" y="-182.5" font-family="FreeSans" font-size="10.00">NoInitialize</text>
</a>
</g>
</g>
<!-- Node1&#45;&gt;Node6 -->
<g id="edge5" class="edge">
<title>Node1&#45;&gt;Node6</title>
<path fill="none" stroke="midnightblue" d="M110.44,-161.52C123.59,-165.15 137.76,-169.05 151.3,-172.79"/>
<polygon fill="midnightblue" stroke="midnightblue" points="150.46,-176.19 161.03,-175.47 152.32,-169.44 150.46,-176.19"/>
</g>
<!-- Node7 -->
<g id="node7" class="node">
<title>Node7</title>
<g id="a_node7"><a xlink:href="classCOMM_1_1List.html#abcdc25c6ecaf2d352583fa75f9fa1180" target="_top" xlink:title="return last member">
<polygon fill="white" stroke="black" points="146,-137 146,-156 287,-156 287,-137 146,-137"/>
<text text-anchor="middle" x="216.5" y="-144" font-family="FreeSans" font-size="10.00">COMM::List::getLastMember</text>
</a>
</g>
</g>
<!-- Node1&#45;&gt;Node7 -->
<g id="edge6" class="edge">
<title>Node1&#45;&gt;Node7</title>
<path fill="none" stroke="midnightblue" d="M110.44,-146.5C118.62,-146.5 127.19,-146.5 135.75,-146.5"/>
<polygon fill="midnightblue" stroke="midnightblue" points="135.79,-150 145.79,-146.5 135.79,-143 135.79,-150"/>
</g>
<!-- Node8 -->
<g id="node8" class="node">
<title>Node8</title>
<g id="a_node8"><a xlink:href="classCOMM_1_1List.html#a929bb5bdaaa7ce70d872ae0c758c77ae" target="_top" xlink:title="get current member number">
<polygon fill="white" stroke="black" points="164,-99 164,-118 269,-118 269,-99 164,-99"/>
<text text-anchor="middle" x="216.5" y="-106" font-family="FreeSans" font-size="10.00">COMM::List::getSize</text>
</a>
</g>
</g>
<!-- Node1&#45;&gt;Node8 -->
<g id="edge7" class="edge">
<title>Node1&#45;&gt;Node8</title>
<path fill="none" stroke="midnightblue" d="M110.44,-133.53C128.25,-129.29 147.93,-124.6 165.4,-120.44"/>
<polygon fill="midnightblue" stroke="midnightblue" points="166.48,-123.78 175.4,-118.05 164.86,-116.97 166.48,-123.78"/>
</g>
<!-- Node9 -->
<g id="node9" class="node">
<title>Node9</title>
<g id="a_node9"><a xlink:href="classCOMM_1_1List.html#a610a134731844b13df4b22ef0d9ad603" target="_top" xlink:title="increase size without initialization">
<polygon fill="white" stroke="black" points="152.5,-49.5 152.5,-79.5 280.5,-79.5 280.5,-49.5 152.5,-49.5"/>
<text text-anchor="start" x="160.5" y="-67.5" font-family="FreeSans" font-size="10.00">COMM::List::increaseSize</text>
<text text-anchor="middle" x="216.5" y="-56.5" font-family="FreeSans" font-size="10.00">NoInitialize</text>
</a>
</g>
</g>
<!-- Node1&#45;&gt;Node9 -->
<g id="edge8" class="edge">
<title>Node1&#45;&gt;Node9</title>
<path fill="none" stroke="midnightblue" d="M77.05,-131.3C94.82,-118.93 121.25,-101.61 146,-89.5 150.38,-87.36 154.99,-85.3 159.66,-83.35"/>
<polygon fill="midnightblue" stroke="midnightblue" points="161.31,-86.46 169.3,-79.51 158.71,-79.96 161.31,-86.46"/>
</g>
<!-- Node10 -->
<g id="node10" class="node">
<title>Node10</title>
<g id="a_node10"><a xlink:href="classCOMM_1_1Binary.html#ad1447e83c38bd8604ad129877f860da5" target="_top" xlink:title="print titles of class members using column style">
<polygon fill="white" stroke="black" points="149,-0.5 149,-30.5 284,-30.5 284,-0.5 149,-0.5"/>
<text text-anchor="start" x="157" y="-18.5" font-family="FreeSans" font-size="10.00">COMM::Binary::printColumn</text>
<text text-anchor="middle" x="216.5" y="-7.5" font-family="FreeSans" font-size="10.00">Title</text>
</a>
</g>
</g>
<!-- Node1&#45;&gt;Node10 -->
<g id="edge9" class="edge">
<title>Node1&#45;&gt;Node10</title>
<path fill="none" stroke="midnightblue" d="M64.85,-131.5C79.13,-108.52 109.39,-64.66 146,-39.5 148.24,-37.96 150.59,-36.51 153.01,-35.15"/>
<polygon fill="midnightblue" stroke="midnightblue" points="154.71,-38.21 162.06,-30.58 151.55,-31.96 154.71,-38.21"/>
</g>
<!-- Node4 -->
<g id="node4" class="node">
<title>Node4</title>
<g id="a_node4"><a xlink:href="classH4_1_1HermiteManager.html#ad5ab496b530db1dfab24bebc39fabe8e" target="_top" xlink:title="time step calculator">
<polygon fill="white" stroke="black" points="349.5,-248.5 349.5,-278.5 455.5,-278.5 455.5,-248.5 349.5,-248.5"/>
<text text-anchor="start" x="357.5" y="-266.5" font-family="FreeSans" font-size="10.00">H4::HermiteManager</text>
<text text-anchor="middle" x="402.5" y="-255.5" font-family="FreeSans" font-size="10.00">::checkParams</text>
</a>
</g>
</g>
<!-- Node3&#45;&gt;Node4 -->
<g id="edge3" class="edge">
<title>Node3&#45;&gt;Node4</title>
<path fill="none" stroke="midnightblue" d="M271.71,-246.57C292.85,-249.33 317.21,-252.51 339.08,-255.36"/>
<polygon fill="midnightblue" stroke="midnightblue" points="338.89,-258.86 349.26,-256.69 339.79,-251.92 338.89,-258.86"/>
</g>
<!-- Node5 -->
<g id="node5" class="node">
<title>Node5</title>
<g id="a_node5"><a xlink:href="classAR_1_1TimeTransformedSymplecticManager.html#a8921a86541d095de3a8685f4aad2da48" target="_top" xlink:title="check whether parameters values are correct">
<polygon fill="white" stroke="black" points="323,-199.5 323,-229.5 482,-229.5 482,-199.5 323,-199.5"/>
<text text-anchor="start" x="331" y="-217.5" font-family="FreeSans" font-size="10.00">AR::TimeTransformedSymplectic</text>
<text text-anchor="middle" x="402.5" y="-206.5" font-family="FreeSans" font-size="10.00">Manager::checkParams</text>
</a>
</g>
</g>
<!-- Node3&#45;&gt;Node5 -->
<g id="edge4" class="edge">
<title>Node3&#45;&gt;Node5</title>
<path fill="none" stroke="midnightblue" d="M271.71,-232.13C284.59,-230.38 298.67,-228.47 312.65,-226.57"/>
<polygon fill="midnightblue" stroke="midnightblue" points="313.35,-230.01 322.79,-225.19 312.41,-223.07 313.35,-230.01"/>
</g>
</g>
</svg>
