<?xml version="1.0" encoding="UTF-8" standalone="no"?>
<!DOCTYPE svg PUBLIC "-//W3C//DTD SVG 1.1//EN"
 "http://www.w3.org/Graphics/SVG/1.1/DTD/svg11.dtd">
<!-- Generated by graphviz version 2.43.0 (0)
 -->
<!-- Title: AR::SlowDown::calcSlowDownFactor Pages: 1 -->
<svg width="450pt" height="88pt"
 viewBox="0.00 0.00 450.00 88.00" xmlns="http://www.w3.org/2000/svg" xmlns:xlink="http://www.w3.org/1999/xlink">
<g id="graph0" class="graph" transform="scale(1 1) rotate(0) translate(4 84)">
<title>AR::SlowDown::calcSlowDownFactor</title>
<polygon fill="white" stroke="transparent" points="-4,4 -4,-84 446,-84 446,4 -4,4"/>
<!-- Node1 -->
<g id="node1" class="node">
<title>Node1</title>
<g id="a_node1"><a xlink:title="calculate slowdown factor based on perturbation and inner acceleration">
<polygon fill="#bfbfbf" stroke="black" points="292,-24.5 292,-54.5 442,-54.5 442,-24.5 292,-24.5"/>
<text text-anchor="start" x="300" y="-42.5" font-family="FreeSans" font-size="10.00">AR::SlowDown::calcSlowDown</text>
<text text-anchor="middle" x="367" y="-31.5" font-family="FreeSans" font-size="10.00">Factor</text>
</a>
</g>
</g>
<!-- Node2 -->
<g id="node2" class="node">
<title>Node2</title>
<g id="a_node2"><a xlink:href="classH4_1_1HermiteIntegrator.html#aa2e53961f55ac16a239a07471cbe6110" target="_top" xlink:title="Check break condition.">
<polygon fill="white" stroke="black" points="146,-49.5 146,-79.5 256,-79.5 256,-49.5 146,-49.5"/>
<text text-anchor="start" x="154" y="-67.5" font-family="FreeSans" font-size="10.00">H4::HermiteIntegrator</text>
<text text-anchor="middle" x="201" y="-56.5" font-family="FreeSans" font-size="10.00">::checkBreak</text>
</a>
</g>
</g>
<!-- Node1&#45;&gt;Node2 -->
<g id="edge1" class="edge">
<title>Node1&#45;&gt;Node2</title>
<path fill="none" stroke="midnightblue" d="M281.64,-52.36C273.08,-53.66 264.56,-54.96 256.44,-56.2"/>
<polygon fill="midnightblue" stroke="midnightblue" points="282.32,-55.8 291.68,-50.83 281.26,-48.88 282.32,-55.8"/>
</g>
<!-- Node4 -->
<g id="node4" class="node">
<title>Node4</title>
<g id="a_node4"><a xlink:href="classH4_1_1HermiteIntegrator.html#a51b5efc55abeab0975009596cd5507bf" target="_top" xlink:title="check the pair with distance below r_crit for ptcl in adr_dt_sorted_">
<polygon fill="white" stroke="black" points="146,-0.5 146,-30.5 256,-30.5 256,-0.5 146,-0.5"/>
<text text-anchor="start" x="154" y="-18.5" font-family="FreeSans" font-size="10.00">H4::HermiteIntegrator</text>
<text text-anchor="middle" x="201" y="-7.5" font-family="FreeSans" font-size="10.00">::checkNewGroup</text>
</a>
</g>
</g>
<!-- Node1&#45;&gt;Node4 -->
<g id="edge3" class="edge">
<title>Node1&#45;&gt;Node4</title>
<path fill="none" stroke="midnightblue" d="M281.64,-27.15C273.08,-25.9 264.56,-24.65 256.44,-23.47"/>
<polygon fill="midnightblue" stroke="midnightblue" points="281.28,-30.64 291.68,-28.62 282.29,-23.71 281.28,-30.64"/>
</g>
<!-- Node3 -->
<g id="node3" class="node">
<title>Node3</title>
<g id="a_node3"><a xlink:href="classH4_1_1HermiteIntegrator.html#a4681b656dd42eae01d3d85e66ac55112" target="_top" xlink:title="adjust groups">
<polygon fill="white" stroke="black" points="0,-24.5 0,-54.5 110,-54.5 110,-24.5 0,-24.5"/>
<text text-anchor="start" x="8" y="-42.5" font-family="FreeSans" font-size="10.00">H4::HermiteIntegrator</text>
<text text-anchor="middle" x="55" y="-31.5" font-family="FreeSans" font-size="10.00">::adjustGroups</text>
</a>
</g>
</g>
<!-- Node2&#45;&gt;Node3 -->
<g id="edge2" class="edge">
<title>Node2&#45;&gt;Node3</title>
<path fill="none" stroke="midnightblue" d="M136.01,-53.39C127.44,-51.9 118.72,-50.39 110.33,-48.93"/>
<polygon fill="midnightblue" stroke="midnightblue" points="135.52,-56.86 145.97,-55.12 136.72,-49.96 135.52,-56.86"/>
</g>
<!-- Node4&#45;&gt;Node3 -->
<g id="edge4" class="edge">
<title>Node4&#45;&gt;Node3</title>
<path fill="none" stroke="midnightblue" d="M136.01,-26.17C127.44,-27.59 118.72,-29.05 110.33,-30.44"/>
<polygon fill="midnightblue" stroke="midnightblue" points="136.68,-29.6 145.97,-24.5 135.53,-22.7 136.68,-29.6"/>
</g>
</g>
</svg>
