<?xml version="1.0" encoding="UTF-8" standalone="no"?>
<!DOCTYPE svg PUBLIC "-//W3C//DTD SVG 1.1//EN"
 "http://www.w3.org/Graphics/SVG/1.1/DTD/svg11.dtd">
<!-- Generated by graphviz version 2.43.0 (0)
 -->
<!-- Title: H4::HermiteIntegrator::adjustGroups Pages: 1 -->
<svg width="663pt" height="660pt"
 viewBox="0.00 0.00 663.00 660.00" xmlns="http://www.w3.org/2000/svg" xmlns:xlink="http://www.w3.org/1999/xlink">
<g id="graph0" class="graph" transform="scale(1 1) rotate(0) translate(4 656)">
<title>H4::HermiteIntegrator::adjustGroups</title>
<polygon fill="white" stroke="transparent" points="-4,4 -4,-656 659,-656 659,4 -4,4"/>
<!-- Node1 -->
<g id="node1" class="node">
<title>Node1</title>
<g id="a_node1"><a xlink:title="adjust groups">
<polygon fill="#bfbfbf" stroke="black" points="0,-396.5 0,-426.5 110,-426.5 110,-396.5 0,-396.5"/>
<text text-anchor="start" x="8" y="-414.5" font-family="FreeSans" font-size="10.00">H4::HermiteIntegrator</text>
<text text-anchor="middle" x="55" y="-403.5" font-family="FreeSans" font-size="10.00">::adjustGroups</text>
</a>
</g>
</g>
<!-- Node2 -->
<g id="node2" class="node">
<title>Node2</title>
<g id="a_node2"><a xlink:href="classH4_1_1HermiteIntegrator.html#aefaac6ef510ac839a678081a80e69131" target="_top" xlink:title="add groups from lists of particle index">
<polygon fill="white" stroke="black" points="146,-440.5 146,-470.5 256,-470.5 256,-440.5 146,-440.5"/>
<text text-anchor="start" x="154" y="-458.5" font-family="FreeSans" font-size="10.00">H4::HermiteIntegrator</text>
<text text-anchor="middle" x="201" y="-447.5" font-family="FreeSans" font-size="10.00">::addGroups</text>
</a>
</g>
</g>
<!-- Node1&#45;&gt;Node2 -->
<g id="edge1" class="edge">
<title>Node1&#45;&gt;Node2</title>
<path fill="none" stroke="midnightblue" d="M105.15,-426.52C116.61,-430.02 128.93,-433.78 140.77,-437.4"/>
<polygon fill="midnightblue" stroke="midnightblue" points="139.99,-440.82 150.58,-440.4 142.04,-434.13 139.99,-440.82"/>
</g>
<!-- Node4 -->
<g id="node4" class="node">
<title>Node4</title>
<g id="a_node4"><a xlink:href="classH4_1_1HermiteIntegrator.html#a5c92334f487ce31326f4469035b24ba7" target="_top" xlink:title="check whether parameters values are correct">
<polygon fill="white" stroke="black" points="321,-597.5 321,-627.5 431,-627.5 431,-597.5 321,-597.5"/>
<text text-anchor="start" x="329" y="-615.5" font-family="FreeSans" font-size="10.00">H4::HermiteIntegrator</text>
<text text-anchor="middle" x="376" y="-604.5" font-family="FreeSans" font-size="10.00">::checkParams</text>
</a>
</g>
</g>
<!-- Node1&#45;&gt;Node4 -->
<g id="edge29" class="edge">
<title>Node1&#45;&gt;Node4</title>
<path fill="none" stroke="midnightblue" d="M60.56,-426.62C70.61,-457.25 97.72,-526.68 146,-561.5 193.96,-596.09 261.17,-607.85 310.37,-611.55"/>
<polygon fill="midnightblue" stroke="midnightblue" points="310.38,-615.05 320.58,-612.22 310.84,-608.07 310.38,-615.05"/>
</g>
<!-- Node12 -->
<g id="node12" class="node">
<title>Node12</title>
<g id="a_node12"><a xlink:href="classH4_1_1HermiteIntegrator.html#a58a59fd478331237bafbe42b0fbe9d4b" target="_top" xlink:title="break groups">
<polygon fill="white" stroke="black" points="146,-372.5 146,-402.5 256,-402.5 256,-372.5 146,-372.5"/>
<text text-anchor="start" x="154" y="-390.5" font-family="FreeSans" font-size="10.00">H4::HermiteIntegrator</text>
<text text-anchor="middle" x="201" y="-379.5" font-family="FreeSans" font-size="10.00">::breakGroups</text>
</a>
</g>
</g>
<!-- Node1&#45;&gt;Node12 -->
<g id="edge11" class="edge">
<title>Node1&#45;&gt;Node12</title>
<path fill="none" stroke="midnightblue" d="M110.03,-402.5C118.4,-401.1 127.13,-399.65 135.7,-398.22"/>
<polygon fill="midnightblue" stroke="midnightblue" points="136.38,-401.65 145.67,-396.56 135.23,-394.75 136.38,-401.65"/>
</g>
<!-- Node15 -->
<g id="node15" class="node">
<title>Node15</title>
<g id="a_node15"><a xlink:href="classH4_1_1HermiteIntegrator.html#aa2e53961f55ac16a239a07471cbe6110" target="_top" xlink:title="Check break condition.">
<polygon fill="white" stroke="black" points="146,-142.5 146,-172.5 256,-172.5 256,-142.5 146,-142.5"/>
<text text-anchor="start" x="154" y="-160.5" font-family="FreeSans" font-size="10.00">H4::HermiteIntegrator</text>
<text text-anchor="middle" x="201" y="-149.5" font-family="FreeSans" font-size="10.00">::checkBreak</text>
</a>
</g>
</g>
<!-- Node1&#45;&gt;Node15 -->
<g id="edge18" class="edge">
<title>Node1&#45;&gt;Node15</title>
<path fill="none" stroke="midnightblue" d="M64.58,-396.37C88.69,-353.84 157.21,-232.97 186.48,-181.35"/>
<polygon fill="midnightblue" stroke="midnightblue" points="189.58,-182.97 191.47,-172.55 183.49,-179.52 189.58,-182.97"/>
</g>
<!-- Node21 -->
<g id="node21" class="node">
<title>Node21</title>
<g id="a_node21"><a xlink:href="classH4_1_1HermiteIntegrator.html#a51b5efc55abeab0975009596cd5507bf" target="_top" xlink:title="check the pair with distance below r_crit for ptcl in adr_dt_sorted_">
<polygon fill="white" stroke="black" points="146,-71.5 146,-101.5 256,-101.5 256,-71.5 146,-71.5"/>
<text text-anchor="start" x="154" y="-89.5" font-family="FreeSans" font-size="10.00">H4::HermiteIntegrator</text>
<text text-anchor="middle" x="201" y="-78.5" font-family="FreeSans" font-size="10.00">::checkNewGroup</text>
</a>
</g>
</g>
<!-- Node1&#45;&gt;Node21 -->
<g id="edge25" class="edge">
<title>Node1&#45;&gt;Node21</title>
<path fill="none" stroke="midnightblue" d="M57.99,-396.41C64.33,-352.51 87.28,-222.39 146,-133.5 152.29,-123.97 161.03,-115.23 169.63,-107.94"/>
<polygon fill="midnightblue" stroke="midnightblue" points="171.83,-110.66 177.43,-101.66 167.45,-105.2 171.83,-110.66"/>
</g>
<!-- Node22 -->
<g id="node22" class="node">
<title>Node22</title>
<g id="a_node22"><a xlink:href="classH4_1_1HermiteIntegrator.html#aee9e179800b8e384c3c0807c22b9e6de" target="_top" xlink:title="Integration a list of particle to current time (ingore dt)">
<polygon fill="white" stroke="black" points="146,-521.5 146,-551.5 256,-551.5 256,-521.5 146,-521.5"/>
<text text-anchor="start" x="154" y="-539.5" font-family="FreeSans" font-size="10.00">H4::HermiteIntegrator</text>
<text text-anchor="middle" x="201" y="-528.5" font-family="FreeSans" font-size="10.00">::integrateToTimeList</text>
</a>
</g>
</g>
<!-- Node1&#45;&gt;Node22 -->
<g id="edge30" class="edge">
<title>Node1&#45;&gt;Node22</title>
<path fill="none" stroke="midnightblue" d="M73.37,-426.58C98.67,-448.54 145.8,-489.45 174.88,-514.69"/>
<polygon fill="midnightblue" stroke="midnightblue" points="172.72,-517.46 182.57,-521.37 177.31,-512.17 172.72,-517.46"/>
</g>
<!-- Node3 -->
<g id="node3" class="node">
<title>Node3</title>
<g id="a_node3"><a xlink:href="classCOMM_1_1List.html#adeefdc2865fe56e2413b2cada9772a5e" target="_top" xlink:title="copy one member and its address">
<polygon fill="white" stroke="black" points="314,-422 314,-441 438,-441 438,-422 314,-422"/>
<text text-anchor="middle" x="376" y="-429" font-family="FreeSans" font-size="10.00">COMM::List::addMember</text>
</a>
</g>
</g>
<!-- Node2&#45;&gt;Node3 -->
<g id="edge2" class="edge">
<title>Node2&#45;&gt;Node3</title>
<path fill="none" stroke="midnightblue" d="M256.26,-447.97C271.22,-445.9 287.68,-443.61 303.45,-441.43"/>
<polygon fill="midnightblue" stroke="midnightblue" points="304.27,-444.85 313.69,-440 303.31,-437.91 304.27,-444.85"/>
</g>
<!-- Node2&#45;&gt;Node4 -->
<g id="edge3" class="edge">
<title>Node2&#45;&gt;Node4</title>
<path fill="none" stroke="midnightblue" d="M219.07,-470.77C230.51,-481.63 245.37,-496.98 256,-512.5 277.12,-543.34 263.53,-564.28 292,-588.5 297.66,-593.31 304.23,-597.16 311.15,-600.24"/>
<polygon fill="midnightblue" stroke="midnightblue" points="310.16,-603.61 320.75,-603.97 312.7,-597.09 310.16,-603.61"/>
</g>
<!-- Node7 -->
<g id="node7" class="node">
<title>Node7</title>
<g id="a_node7"><a xlink:href="classCOMM_1_1List.html#a4de82aa7b73a5f74ae2917e4740e3cb8" target="_top" xlink:title="increase size without initialization">
<polygon fill="white" stroke="black" points="310.5,-548.5 310.5,-578.5 441.5,-578.5 441.5,-548.5 310.5,-548.5"/>
<text text-anchor="start" x="318.5" y="-566.5" font-family="FreeSans" font-size="10.00">COMM::List::decreaseSize</text>
<text text-anchor="middle" x="376" y="-555.5" font-family="FreeSans" font-size="10.00">NoInitialize</text>
</a>
</g>
</g>
<!-- Node2&#45;&gt;Node7 -->
<g id="edge6" class="edge">
<title>Node2&#45;&gt;Node7</title>
<path fill="none" stroke="midnightblue" d="M214.46,-470.59C230.54,-489.14 260.25,-520.37 292,-538.5 295.85,-540.7 299.92,-542.72 304.1,-544.59"/>
<polygon fill="midnightblue" stroke="midnightblue" points="302.81,-547.84 313.39,-548.4 305.47,-541.37 302.81,-547.84"/>
</g>
<!-- Node8 -->
<g id="node8" class="node">
<title>Node8</title>
<g id="a_node8"><a xlink:href="classCOMM_1_1List.html#abcdc25c6ecaf2d352583fa75f9fa1180" target="_top" xlink:title="return last member">
<polygon fill="white" stroke="black" points="305.5,-510 305.5,-529 446.5,-529 446.5,-510 305.5,-510"/>
<text text-anchor="middle" x="376" y="-517" font-family="FreeSans" font-size="10.00">COMM::List::getLastMember</text>
</a>
</g>
</g>
<!-- Node2&#45;&gt;Node8 -->
<g id="edge7" class="edge">
<title>Node2&#45;&gt;Node8</title>
<path fill="none" stroke="midnightblue" d="M228.05,-470.61C245.63,-480.28 269.64,-492.48 292,-500.5 299.24,-503.1 306.97,-505.42 314.68,-507.48"/>
<polygon fill="midnightblue" stroke="midnightblue" points="313.86,-510.88 324.41,-509.94 315.57,-504.1 313.86,-510.88"/>
</g>
<!-- Node9 -->
<g id="node9" class="node">
<title>Node9</title>
<g id="a_node9"><a xlink:href="classCOMM_1_1List.html#a929bb5bdaaa7ce70d872ae0c758c77ae" target="_top" xlink:title="get current member number">
<polygon fill="white" stroke="black" points="323.5,-334 323.5,-353 428.5,-353 428.5,-334 323.5,-334"/>
<text text-anchor="middle" x="376" y="-341" font-family="FreeSans" font-size="10.00">COMM::List::getSize</text>
</a>
</g>
</g>
<!-- Node2&#45;&gt;Node9 -->
<g id="edge8" class="edge">
<title>Node2&#45;&gt;Node9</title>
<path fill="none" stroke="midnightblue" d="M223.61,-440.37C233.96,-432.62 246.2,-422.69 256,-412.5 274.73,-393.02 269.5,-378.46 292,-363.5 298.51,-359.17 305.86,-355.78 313.43,-353.12"/>
<polygon fill="midnightblue" stroke="midnightblue" points="314.56,-356.43 323.08,-350.12 312.49,-349.74 314.56,-356.43"/>
</g>
<!-- Node10 -->
<g id="node10" class="node">
<title>Node10</title>
<g id="a_node10"><a xlink:href="classCOMM_1_1List.html#a610a134731844b13df4b22ef0d9ad603" target="_top" xlink:title="increase size without initialization">
<polygon fill="white" stroke="black" points="312,-372.5 312,-402.5 440,-402.5 440,-372.5 312,-372.5"/>
<text text-anchor="start" x="320" y="-390.5" font-family="FreeSans" font-size="10.00">COMM::List::increaseSize</text>
<text text-anchor="middle" x="376" y="-379.5" font-family="FreeSans" font-size="10.00">NoInitialize</text>
</a>
</g>
</g>
<!-- Node2&#45;&gt;Node10 -->
<g id="edge9" class="edge">
<title>Node2&#45;&gt;Node10</title>
<path fill="none" stroke="midnightblue" d="M230.69,-440.41C248.12,-431.58 271,-420.62 292,-412.5 297.99,-410.18 304.28,-407.95 310.62,-405.82"/>
<polygon fill="midnightblue" stroke="midnightblue" points="312.14,-409.01 320.57,-402.59 309.98,-402.35 312.14,-409.01"/>
</g>
<!-- Node11 -->
<g id="node11" class="node">
<title>Node11</title>
<g id="a_node11"><a xlink:href="classCOMM_1_1Binary.html#ad1447e83c38bd8604ad129877f860da5" target="_top" xlink:title="print titles of class members using column style">
<polygon fill="white" stroke="black" points="308.5,-460.5 308.5,-490.5 443.5,-490.5 443.5,-460.5 308.5,-460.5"/>
<text text-anchor="start" x="316.5" y="-478.5" font-family="FreeSans" font-size="10.00">COMM::Binary::printColumn</text>
<text text-anchor="middle" x="376" y="-467.5" font-family="FreeSans" font-size="10.00">Title</text>
</a>
</g>
</g>
<!-- Node2&#45;&gt;Node11 -->
<g id="edge10" class="edge">
<title>Node2&#45;&gt;Node11</title>
<path fill="none" stroke="midnightblue" d="M256.26,-461.77C269.58,-463.31 284.09,-464.99 298.24,-466.63"/>
<polygon fill="midnightblue" stroke="midnightblue" points="298.12,-470.14 308.46,-467.81 298.93,-463.18 298.12,-470.14"/>
</g>
<!-- Node5 -->
<g id="node5" class="node">
<title>Node5</title>
<g id="a_node5"><a xlink:href="classH4_1_1HermiteManager.html#ad5ab496b530db1dfab24bebc39fabe8e" target="_top" xlink:title="time step calculator">
<polygon fill="white" stroke="black" points="522.5,-621.5 522.5,-651.5 628.5,-651.5 628.5,-621.5 522.5,-621.5"/>
<text text-anchor="start" x="530.5" y="-639.5" font-family="FreeSans" font-size="10.00">H4::HermiteManager</text>
<text text-anchor="middle" x="575.5" y="-628.5" font-family="FreeSans" font-size="10.00">::checkParams</text>
</a>
</g>
</g>
<!-- Node4&#45;&gt;Node5 -->
<g id="edge4" class="edge">
<title>Node4&#45;&gt;Node5</title>
<path fill="none" stroke="midnightblue" d="M431.23,-619.09C456.33,-622.14 486.29,-625.78 512.3,-628.94"/>
<polygon fill="midnightblue" stroke="midnightblue" points="512.09,-632.44 522.44,-630.17 512.93,-625.49 512.09,-632.44"/>
</g>
<!-- Node6 -->
<g id="node6" class="node">
<title>Node6</title>
<g id="a_node6"><a xlink:href="classAR_1_1TimeTransformedSymplecticManager.html#a8921a86541d095de3a8685f4aad2da48" target="_top" xlink:title="check whether parameters values are correct">
<polygon fill="white" stroke="black" points="496,-572.5 496,-602.5 655,-602.5 655,-572.5 496,-572.5"/>
<text text-anchor="start" x="504" y="-590.5" font-family="FreeSans" font-size="10.00">AR::TimeTransformedSymplectic</text>
<text text-anchor="middle" x="575.5" y="-579.5" font-family="FreeSans" font-size="10.00">Manager::checkParams</text>
</a>
</g>
</g>
<!-- Node4&#45;&gt;Node6 -->
<g id="edge5" class="edge">
<title>Node4&#45;&gt;Node6</title>
<path fill="none" stroke="midnightblue" d="M431.23,-605.64C448.17,-603.49 467.32,-601.07 485.98,-598.71"/>
<polygon fill="midnightblue" stroke="midnightblue" points="486.49,-602.17 495.97,-597.44 485.61,-595.22 486.49,-602.17"/>
</g>
<!-- Node12&#45;&gt;Node3 -->
<g id="edge13" class="edge">
<title>Node12&#45;&gt;Node3</title>
<path fill="none" stroke="midnightblue" d="M254.72,-402.58C266.93,-405.95 279.9,-409.44 292,-412.5 301.47,-414.9 311.57,-417.32 321.36,-419.6"/>
<polygon fill="midnightblue" stroke="midnightblue" points="320.87,-423.08 331.4,-421.92 322.44,-416.26 320.87,-423.08"/>
</g>
<!-- Node12&#45;&gt;Node4 -->
<g id="edge14" class="edge">
<title>Node12&#45;&gt;Node4</title>
<path fill="none" stroke="midnightblue" d="M227.25,-402.69C237.62,-410.14 248.85,-420 256,-431.5 293.8,-492.3 242.82,-536.48 292,-588.5 297.43,-594.25 304.15,-598.65 311.39,-602.01"/>
<polygon fill="midnightblue" stroke="midnightblue" points="310.2,-605.3 320.79,-605.73 312.78,-598.79 310.2,-605.3"/>
</g>
<!-- Node12&#45;&gt;Node9 -->
<g id="edge16" class="edge">
<title>Node12&#45;&gt;Node9</title>
<path fill="none" stroke="midnightblue" d="M256.2,-372.82C267.99,-369.69 280.4,-366.44 292,-363.5 302.56,-360.82 313.9,-358.03 324.7,-355.42"/>
<polygon fill="midnightblue" stroke="midnightblue" points="325.52,-358.82 334.42,-353.07 323.88,-352.01 325.52,-358.82"/>
</g>
<!-- Node12&#45;&gt;Node10 -->
<g id="edge17" class="edge">
<title>Node12&#45;&gt;Node10</title>
<path fill="none" stroke="midnightblue" d="M256.26,-387.5C270.59,-387.5 286.3,-387.5 301.47,-387.5"/>
<polygon fill="midnightblue" stroke="midnightblue" points="301.86,-391 311.86,-387.5 301.86,-384 301.86,-391"/>
</g>
<!-- Node13 -->
<g id="node13" class="node">
<title>Node13</title>
<g id="a_node13"><a xlink:href="classH4_1_1HermiteIntegrator.html#a0ab6545fc47c14c3ea6e8de7b47b5679" target="_top" xlink:title="correct Etot slowdown reference due to the groups change">
<polygon fill="white" stroke="black" points="292,-274 292,-315 460,-315 460,-274 292,-274"/>
<text text-anchor="start" x="300" y="-303" font-family="FreeSans" font-size="10.00">H4::HermiteIntegrator</text>
<text text-anchor="start" x="300" y="-292" font-family="FreeSans" font-size="10.00">::accumDESlowDownChangeBreak</text>
<text text-anchor="middle" x="376" y="-281" font-family="FreeSans" font-size="10.00">Group</text>
</a>
</g>
</g>
<!-- Node12&#45;&gt;Node13 -->
<g id="edge12" class="edge">
<title>Node12&#45;&gt;Node13</title>
<path fill="none" stroke="midnightblue" d="M220.38,-372.45C237.95,-358.6 265.59,-338.21 292,-324.5 295.67,-322.59 299.49,-320.76 303.39,-318.99"/>
<polygon fill="midnightblue" stroke="midnightblue" points="304.8,-322.2 312.59,-315.02 302.02,-315.77 304.8,-322.2"/>
</g>
<!-- Node14 -->
<g id="node14" class="node">
<title>Node14</title>
<g id="a_node14"><a xlink:href="classCOMM_1_1List.html#aceaeddd10f8a05984f25a258a48c2620" target="_top" xlink:title="Clear function.">
<polygon fill="white" stroke="black" points="329,-236 329,-255 423,-255 423,-236 329,-236"/>
<text text-anchor="middle" x="376" y="-243" font-family="FreeSans" font-size="10.00">COMM::List::clear</text>
</a>
</g>
</g>
<!-- Node12&#45;&gt;Node14 -->
<g id="edge15" class="edge">
<title>Node12&#45;&gt;Node14</title>
<path fill="none" stroke="midnightblue" d="M208.68,-372.28C221.08,-345.93 250.23,-291.99 292,-264.5 300.06,-259.19 309.42,-255.36 318.87,-252.59"/>
<polygon fill="midnightblue" stroke="midnightblue" points="319.9,-255.94 328.72,-250.07 318.16,-249.16 319.9,-255.94"/>
</g>
<!-- Node15&#45;&gt;Node9 -->
<g id="edge21" class="edge">
<title>Node15&#45;&gt;Node9</title>
<path fill="none" stroke="midnightblue" d="M205.64,-172.75C214.4,-205.91 239.85,-284.8 292,-324.5 298.44,-329.4 305.92,-333.08 313.7,-335.82"/>
<polygon fill="midnightblue" stroke="midnightblue" points="312.71,-339.18 323.29,-338.74 314.74,-332.48 312.71,-339.18"/>
</g>
<!-- Node16 -->
<g id="node16" class="node">
<title>Node16</title>
<g id="a_node16"><a xlink:href="classAR_1_1SlowDown.html#a7cae8bcc039bb158497e2f9bb6efbd78" target="_top" xlink:title="calculate slowdown factor based on perturbation and inner acceleration">
<polygon fill="white" stroke="black" points="301,-98.5 301,-128.5 451,-128.5 451,-98.5 301,-98.5"/>
<text text-anchor="start" x="309" y="-116.5" font-family="FreeSans" font-size="10.00">AR::SlowDown::calcSlowDown</text>
<text text-anchor="middle" x="376" y="-105.5" font-family="FreeSans" font-size="10.00">Factor</text>
</a>
</g>
</g>
<!-- Node15&#45;&gt;Node16 -->
<g id="edge19" class="edge">
<title>Node15&#45;&gt;Node16</title>
<path fill="none" stroke="midnightblue" d="M256.26,-143.7C271.94,-139.71 289.26,-135.31 305.71,-131.12"/>
<polygon fill="midnightblue" stroke="midnightblue" points="307,-134.41 315.83,-128.55 305.27,-127.62 307,-134.41"/>
</g>
<!-- Node17 -->
<g id="node17" class="node">
<title>Node17</title>
<g id="a_node17"><a xlink:href="classH4_1_1HermiteIntegrator.html#a73a391b3a23556c20a7d7f6b7a2fbc7c" target="_top" xlink:title="get next time for intergration">
<polygon fill="white" stroke="black" points="321,-186.5 321,-216.5 431,-216.5 431,-186.5 321,-186.5"/>
<text text-anchor="start" x="329" y="-204.5" font-family="FreeSans" font-size="10.00">H4::HermiteIntegrator</text>
<text text-anchor="middle" x="376" y="-193.5" font-family="FreeSans" font-size="10.00">::getNextTime</text>
</a>
</g>
</g>
<!-- Node15&#45;&gt;Node17 -->
<g id="edge20" class="edge">
<title>Node15&#45;&gt;Node17</title>
<path fill="none" stroke="midnightblue" d="M256.26,-171.3C273.65,-175.72 293.07,-180.66 311.09,-185.24"/>
<polygon fill="midnightblue" stroke="midnightblue" points="310.37,-188.67 320.93,-187.75 312.1,-181.89 310.37,-188.67"/>
</g>
<!-- Node18 -->
<g id="node18" class="node">
<title>Node18</title>
<g id="a_node18"><a xlink:href="classAR_1_1SlowDown.html#a7d4f7bdbab34f9f8842e62c596023b75" target="_top" xlink:title="Get original slow&#45;down factor.">
<polygon fill="white" stroke="black" points="303,-49.5 303,-79.5 449,-79.5 449,-49.5 303,-49.5"/>
<text text-anchor="start" x="311" y="-67.5" font-family="FreeSans" font-size="10.00">AR::SlowDown::getSlowDown</text>
<text text-anchor="middle" x="376" y="-56.5" font-family="FreeSans" font-size="10.00">FactorOrigin</text>
</a>
</g>
</g>
<!-- Node15&#45;&gt;Node18 -->
<g id="edge22" class="edge">
<title>Node15&#45;&gt;Node18</title>
<path fill="none" stroke="midnightblue" d="M218.37,-142.25C235.54,-126.99 263.89,-103.77 292,-89.5 296.5,-87.22 301.24,-85.1 306.09,-83.15"/>
<polygon fill="midnightblue" stroke="midnightblue" points="307.37,-86.41 315.5,-79.6 304.9,-79.86 307.37,-86.41"/>
</g>
<!-- Node19 -->
<g id="node19" class="node">
<title>Node19</title>
<g id="a_node19"><a xlink:href="classAR_1_1SlowDown.html#ab9436a956d9925171387b0cfe4ffbb0f" target="_top" xlink:title="initialize slow&#45;down parameters">
<polygon fill="white" stroke="black" points="311,-0.5 311,-30.5 441,-30.5 441,-0.5 311,-0.5"/>
<text text-anchor="start" x="319" y="-18.5" font-family="FreeSans" font-size="10.00">AR::SlowDown::initialSlow</text>
<text text-anchor="middle" x="376" y="-7.5" font-family="FreeSans" font-size="10.00">DownReference</text>
</a>
</g>
</g>
<!-- Node15&#45;&gt;Node19 -->
<g id="edge23" class="edge">
<title>Node15&#45;&gt;Node19</title>
<path fill="none" stroke="midnightblue" d="M223.55,-142.4C234.25,-134.15 246.81,-123.23 256,-111.5 278.06,-83.33 264.51,-62.39 292,-39.5 294.94,-37.05 298.12,-34.85 301.46,-32.88"/>
<polygon fill="midnightblue" stroke="midnightblue" points="303.33,-35.85 310.62,-28.16 300.13,-29.63 303.33,-35.85"/>
</g>
<!-- Node20 -->
<g id="node20" class="node">
<title>Node20</title>
<g id="a_node20"><a xlink:href="classCOMM_1_1List.html#a0f3dd09ceff0ce9b3ffd15f48a9ea9c4" target="_top" xlink:title="increase size without initialization">
<polygon fill="white" stroke="black" points="303,-148 303,-167 449,-167 449,-148 303,-148"/>
<text text-anchor="middle" x="376" y="-155" font-family="FreeSans" font-size="10.00">COMM::List::resizeNoInitialize</text>
</a>
</g>
</g>
<!-- Node15&#45;&gt;Node20 -->
<g id="edge24" class="edge">
<title>Node15&#45;&gt;Node20</title>
<path fill="none" stroke="midnightblue" d="M256.26,-157.5C267.8,-157.5 280.23,-157.5 292.54,-157.5"/>
<polygon fill="midnightblue" stroke="midnightblue" points="292.84,-161 302.84,-157.5 292.84,-154 292.84,-161"/>
</g>
<!-- Node21&#45;&gt;Node16 -->
<g id="edge26" class="edge">
<title>Node21&#45;&gt;Node16</title>
<path fill="none" stroke="midnightblue" d="M256.26,-94.97C267.33,-96.7 279.23,-98.55 291.06,-100.4"/>
<polygon fill="midnightblue" stroke="midnightblue" points="290.54,-103.86 300.96,-101.94 291.62,-96.94 290.54,-103.86"/>
</g>
<!-- Node21&#45;&gt;Node18 -->
<g id="edge27" class="edge">
<title>Node21&#45;&gt;Node18</title>
<path fill="none" stroke="midnightblue" d="M256.26,-79.6C267.91,-78.12 280.47,-76.52 292.91,-74.94"/>
<polygon fill="midnightblue" stroke="midnightblue" points="293.36,-78.41 302.84,-73.68 292.48,-71.47 293.36,-78.41"/>
</g>
<!-- Node21&#45;&gt;Node19 -->
<g id="edge28" class="edge">
<title>Node21&#45;&gt;Node19</title>
<path fill="none" stroke="midnightblue" d="M227.73,-71.3C245.39,-61.32 269.59,-48.49 292,-39.5 297.05,-37.48 302.33,-35.54 307.68,-33.72"/>
<polygon fill="midnightblue" stroke="midnightblue" points="308.93,-36.99 317.34,-30.55 306.75,-30.34 308.93,-36.99"/>
</g>
<!-- Node22&#45;&gt;Node4 -->
<g id="edge31" class="edge">
<title>Node22&#45;&gt;Node4</title>
<path fill="none" stroke="midnightblue" d="M224.51,-551.57C242.25,-562.92 267.93,-578.25 292,-588.5 298.12,-591.11 304.61,-593.53 311.16,-595.76"/>
<polygon fill="midnightblue" stroke="midnightblue" points="310.16,-599.11 320.76,-598.87 312.33,-592.46 310.16,-599.11"/>
</g>
</g>
</svg>
