<?xml version="1.0" encoding="UTF-8" standalone="no"?>
<!DOCTYPE svg PUBLIC "-//W3C//DTD SVG 1.1//EN"
 "http://www.w3.org/Graphics/SVG/1.1/DTD/svg11.dtd">
<!-- Generated by graphviz version 2.43.0 (0)
 -->
<!-- Title: AR::Information::calcDsKeplerBinaryTree Pages: 1 -->
<svg width="322pt" height="50pt"
 viewBox="0.00 0.00 322.00 50.00" xmlns="http://www.w3.org/2000/svg" xmlns:xlink="http://www.w3.org/1999/xlink">
<g id="graph0" class="graph" transform="scale(1 1) rotate(0) translate(4 46)">
<title>AR::Information::calcDsKeplerBinaryTree</title>
<polygon fill="white" stroke="transparent" points="-4,4 -4,-46 318,-46 318,4 -4,4"/>
<!-- Node1 -->
<g id="node1" class="node">
<title>Node1</title>
<g id="a_node1"><a xlink:title="calculate average kepler ds iterately for a binary tree">
<polygon fill="#bfbfbf" stroke="black" points="168,-6 168,-36 314,-36 314,-6 168,-6"/>
<text text-anchor="start" x="176" y="-24" font-family="FreeSans" font-size="10.00">AR::Information::calcDsKepler</text>
<text text-anchor="middle" x="241" y="-13" font-family="FreeSans" font-size="10.00">BinaryTree</text>
</a>
</g>
</g>
<!-- Node2 -->
<g id="node2" class="node">
<title>Node2</title>
<g id="a_node2"><a xlink:href="classAR_1_1Information.html#a509084738a4a3c137490bc076fa703c5" target="_top" xlink:title="calculate ds from the inner most binary with minimum period, determine the fix step option">
<polygon fill="white" stroke="black" points="0,-0.5 0,-41.5 132,-41.5 132,-0.5 0,-0.5"/>
<text text-anchor="start" x="8" y="-29.5" font-family="FreeSans" font-size="10.00">AR::Information&lt; Tparticle,</text>
<text text-anchor="start" x="8" y="-18.5" font-family="FreeSans" font-size="10.00"> ParticleH4&lt; Tparticle &gt;</text>
<text text-anchor="middle" x="66" y="-7.5" font-family="FreeSans" font-size="10.00"> &gt;::calcDsAndStepOption</text>
</a>
</g>
</g>
<!-- Node1&#45;&gt;Node2 -->
<g id="edge1" class="edge">
<title>Node1&#45;&gt;Node2</title>
<path fill="none" stroke="midnightblue" d="M157.8,-21C149.18,-21 140.49,-21 132.1,-21"/>
<polygon fill="midnightblue" stroke="midnightblue" points="157.89,-24.5 167.89,-21 157.89,-17.5 157.89,-24.5"/>
</g>
</g>
</svg>
