<?xml version="1.0" encoding="UTF-8" standalone="no"?>
<!DOCTYPE svg PUBLIC "-//W3C//DTD SVG 1.1//EN"
 "http://www.w3.org/Graphics/SVG/1.1/DTD/svg11.dtd">
<!-- Generated by graphviz version 2.43.0 (0)
 -->
<!-- Title: AR::TimeTransformedSymplecticIntegrator::printColumnTitle Pages: 1 -->
<svg width="321pt" height="88pt"
 viewBox="0.00 0.00 321.00 88.00" xmlns="http://www.w3.org/2000/svg" xmlns:xlink="http://www.w3.org/1999/xlink">
<g id="graph0" class="graph" transform="scale(1 1) rotate(0) translate(4 84)">
<title>AR::TimeTransformedSymplecticIntegrator::printColumnTitle</title>
<polygon fill="white" stroke="transparent" points="-4,4 -4,-84 317,-84 317,4 -4,4"/>
<!-- Node1 -->
<g id="node1" class="node">
<title>Node1</title>
<g id="a_node1"><a xlink:title="print titles of class members using column style">
<polygon fill="#bfbfbf" stroke="black" points="0,-24.5 0,-54.5 159,-54.5 159,-24.5 0,-24.5"/>
<text text-anchor="start" x="8" y="-42.5" font-family="FreeSans" font-size="10.00">AR::TimeTransformedSymplectic</text>
<text text-anchor="middle" x="79.5" y="-31.5" font-family="FreeSans" font-size="10.00">Integrator::printColumnTitle</text>
</a>
</g>
</g>
<!-- Node2 -->
<g id="node2" class="node">
<title>Node2</title>
<g id="a_node2"><a xlink:href="classAR_1_1Profile.html#a1b5aebbb911d06727642ccf97eca9c31" target="_top" xlink:title="print titles of class members using column style">
<polygon fill="white" stroke="black" points="195,-49.5 195,-79.5 313,-79.5 313,-49.5 195,-49.5"/>
<text text-anchor="start" x="203" y="-67.5" font-family="FreeSans" font-size="10.00">AR::Profile::printColumn</text>
<text text-anchor="middle" x="254" y="-56.5" font-family="FreeSans" font-size="10.00">Title</text>
</a>
</g>
</g>
<!-- Node1&#45;&gt;Node2 -->
<g id="edge1" class="edge">
<title>Node1&#45;&gt;Node2</title>
<path fill="none" stroke="midnightblue" d="M159.18,-50.9C167.71,-52.14 176.33,-53.39 184.72,-54.6"/>
<polygon fill="midnightblue" stroke="midnightblue" points="184.42,-58.1 194.82,-56.07 185.42,-51.17 184.42,-58.1"/>
</g>
<!-- Node3 -->
<g id="node3" class="node">
<title>Node3</title>
<g id="a_node3"><a xlink:href="classCOMM_1_1ParticleGroup.html#a2d92a2c26818cf9820ea13026091fb81" target="_top" xlink:title="print titles of class members using column style">
<polygon fill="white" stroke="black" points="198.5,-0.5 198.5,-30.5 309.5,-30.5 309.5,-0.5 198.5,-0.5"/>
<text text-anchor="start" x="206.5" y="-18.5" font-family="FreeSans" font-size="10.00">COMM::ParticleGroup</text>
<text text-anchor="middle" x="254" y="-7.5" font-family="FreeSans" font-size="10.00">::printColumnTitle</text>
</a>
</g>
</g>
<!-- Node1&#45;&gt;Node3 -->
<g id="edge2" class="edge">
<title>Node1&#45;&gt;Node3</title>
<path fill="none" stroke="midnightblue" d="M159.18,-28.55C168.9,-27.2 178.75,-25.83 188.24,-24.51"/>
<polygon fill="midnightblue" stroke="midnightblue" points="188.93,-27.95 198.36,-23.1 187.97,-21.01 188.93,-27.95"/>
</g>
</g>
</svg>
