<?xml version="1.0" encoding="UTF-8" standalone="no"?>
<!DOCTYPE svg PUBLIC "-//W3C//DTD SVG 1.1//EN"
 "http://www.w3.org/Graphics/SVG/1.1/DTD/svg11.dtd">
<!-- Generated by graphviz version 2.43.0 (0)
 -->
<!-- Title: COMM::Binary::particleToSemiEccPeriod Pages: 1 -->
<svg width="313pt" height="78pt"
 viewBox="0.00 0.00 313.00 77.50" xmlns="http://www.w3.org/2000/svg" xmlns:xlink="http://www.w3.org/1999/xlink">
<g id="graph0" class="graph" transform="scale(1 1) rotate(0) translate(4 73.5)">
<title>COMM::Binary::particleToSemiEccPeriod</title>
<polygon fill="white" stroke="transparent" points="-4,4 -4,-73.5 309,-73.5 309,4 -4,4"/>
<!-- Node1 -->
<g id="node1" class="node">
<title>Node1</title>
<g id="a_node1"><a xlink:title="calcualte semi, ecc and period">
<polygon fill="#bfbfbf" stroke="black" points="0,-17 0,-47 126,-47 126,-17 0,-17"/>
<text text-anchor="start" x="8" y="-35" font-family="FreeSans" font-size="10.00">COMM::Binary::particleTo</text>
<text text-anchor="middle" x="63" y="-24" font-family="FreeSans" font-size="10.00">SemiEccPeriod</text>
</a>
</g>
</g>
<!-- Node2 -->
<g id="node2" class="node">
<title>Node2</title>
<g id="a_node2"><a xlink:href="classCOMM_1_1Binary.html#aa62b03710eadfe19836f1f5e5be57585" target="_top" xlink:title="position velocity to orbit semi&#45;major axis and eccentricity">
<polygon fill="white" stroke="black" points="170.5,-39 170.5,-69 296.5,-69 296.5,-39 170.5,-39"/>
<text text-anchor="start" x="178.5" y="-57" font-family="FreeSans" font-size="10.00">COMM::Binary::particleTo</text>
<text text-anchor="middle" x="233.5" y="-46" font-family="FreeSans" font-size="10.00">SemiEcc</text>
</a>
</g>
</g>
<!-- Node1&#45;&gt;Node2 -->
<g id="edge1" class="edge">
<title>Node1&#45;&gt;Node2</title>
<path fill="none" stroke="midnightblue" d="M126.26,-40.13C137.43,-41.59 149.15,-43.12 160.56,-44.61"/>
<polygon fill="midnightblue" stroke="midnightblue" points="160.12,-48.08 170.49,-45.9 161.03,-41.14 160.12,-48.08"/>
</g>
<!-- Node3 -->
<g id="node3" class="node">
<title>Node3</title>
<g id="a_node3"><a xlink:href="classCOMM_1_1Binary.html#a848fd22c8797e437e3be8d967259aea7" target="_top" xlink:title="from semi&#45;major axis calculate period;">
<polygon fill="white" stroke="black" points="162,-0.5 162,-19.5 305,-19.5 305,-0.5 162,-0.5"/>
<text text-anchor="middle" x="233.5" y="-7.5" font-family="FreeSans" font-size="10.00">COMM::Binary::semiToPeriod</text>
</a>
</g>
</g>
<!-- Node1&#45;&gt;Node3 -->
<g id="edge2" class="edge">
<title>Node1&#45;&gt;Node3</title>
<path fill="none" stroke="midnightblue" d="M126.26,-23.87C134.62,-22.78 143.29,-21.65 151.9,-20.52"/>
<polygon fill="midnightblue" stroke="midnightblue" points="152.5,-23.97 161.97,-19.21 151.6,-17.03 152.5,-23.97"/>
</g>
</g>
</svg>
