<?xml version="1.0" encoding="UTF-8" standalone="no"?>
<!DOCTYPE svg PUBLIC "-//W3C//DTD SVG 1.1//EN"
 "http://www.w3.org/Graphics/SVG/1.1/DTD/svg11.dtd">
<!-- Generated by graphviz version 2.43.0 (0)
 -->
<!-- Title: COMM::ParticleGroup::isOriginFrame Pages: 1 -->
<svg width="352pt" height="137pt"
 viewBox="0.00 0.00 352.00 137.00" xmlns="http://www.w3.org/2000/svg" xmlns:xlink="http://www.w3.org/1999/xlink">
<g id="graph0" class="graph" transform="scale(1 1) rotate(0) translate(4 133)">
<title>COMM::ParticleGroup::isOriginFrame</title>
<polygon fill="white" stroke="transparent" points="-4,4 -4,-133 348,-133 348,4 -4,4"/>
<!-- Node1 -->
<g id="node1" class="node">
<title>Node1</title>
<g id="a_node1"><a xlink:title="return true if the system is the in their origin frame">
<polygon fill="#bfbfbf" stroke="black" points="233,-49.5 233,-79.5 344,-79.5 344,-49.5 233,-49.5"/>
<text text-anchor="start" x="241" y="-67.5" font-family="FreeSans" font-size="10.00">COMM::ParticleGroup</text>
<text text-anchor="middle" x="288.5" y="-56.5" font-family="FreeSans" font-size="10.00">::isOriginFrame</text>
</a>
</g>
</g>
<!-- Node2 -->
<g id="node2" class="node">
<title>Node2</title>
<g id="a_node2"><a xlink:href="classAR_1_1TimeTransformedSymplecticIntegrator.html#ad9d82c4c1565d944c64a1a48961980e6" target="_top" xlink:title="correct CM drift">
<polygon fill="white" stroke="black" points="12,-98.5 12,-128.5 185,-128.5 185,-98.5 12,-98.5"/>
<text text-anchor="start" x="20" y="-116.5" font-family="FreeSans" font-size="10.00">AR::TimeTransformedSymplectic</text>
<text text-anchor="middle" x="98.5" y="-105.5" font-family="FreeSans" font-size="10.00">Integrator::correctCenterOfMassDrift</text>
</a>
</g>
</g>
<!-- Node1&#45;&gt;Node2 -->
<g id="edge1" class="edge">
<title>Node1&#45;&gt;Node2</title>
<path fill="none" stroke="midnightblue" d="M224.18,-82.24C215.07,-84.72 205.8,-87.2 197,-89.5 185.61,-92.47 173.46,-95.55 161.72,-98.46"/>
<polygon fill="midnightblue" stroke="midnightblue" points="225.25,-85.57 233.97,-79.56 223.4,-78.82 225.25,-85.57"/>
</g>
<!-- Node3 -->
<g id="node3" class="node">
<title>Node3</title>
<g id="a_node3"><a xlink:href="classAR_1_1TimeTransformedSymplecticIntegrator.html#adc635c0084f56558f2e87c86d1a80b00" target="_top" xlink:title="initialization for integration">
<polygon fill="white" stroke="black" points="19,-49.5 19,-79.5 178,-79.5 178,-49.5 19,-49.5"/>
<text text-anchor="start" x="27" y="-67.5" font-family="FreeSans" font-size="10.00">AR::TimeTransformedSymplectic</text>
<text text-anchor="middle" x="98.5" y="-56.5" font-family="FreeSans" font-size="10.00">Integrator::initialIntegration</text>
</a>
</g>
</g>
<!-- Node1&#45;&gt;Node3 -->
<g id="edge2" class="edge">
<title>Node1&#45;&gt;Node3</title>
<path fill="none" stroke="midnightblue" d="M222.61,-64.5C208.25,-64.5 192.88,-64.5 178.04,-64.5"/>
<polygon fill="midnightblue" stroke="midnightblue" points="222.87,-68 232.87,-64.5 222.87,-61 222.87,-68"/>
</g>
<!-- Node4 -->
<g id="node4" class="node">
<title>Node4</title>
<g id="a_node4"><a xlink:href="classAR_1_1TimeTransformedSymplecticIntegrator.html#a0f18041128f371f6c76d87b2684499cb" target="_top" xlink:title="write back particles to original address">
<polygon fill="white" stroke="black" points="0,-0.5 0,-30.5 197,-30.5 197,-0.5 0,-0.5"/>
<text text-anchor="start" x="8" y="-18.5" font-family="FreeSans" font-size="10.00">AR::TimeTransformedSymplectic</text>
<text text-anchor="middle" x="98.5" y="-7.5" font-family="FreeSans" font-size="10.00">Integrator::writeBackParticlesOriginFrame</text>
</a>
</g>
</g>
<!-- Node1&#45;&gt;Node4 -->
<g id="edge3" class="edge">
<title>Node1&#45;&gt;Node4</title>
<path fill="none" stroke="midnightblue" d="M223.13,-47.36C214.35,-45.04 205.46,-42.71 197,-40.5 184.57,-37.26 171.24,-33.82 158.56,-30.56"/>
<polygon fill="midnightblue" stroke="midnightblue" points="222.4,-50.79 232.96,-49.96 224.19,-44.02 222.4,-50.79"/>
</g>
</g>
</svg>
