<?xml version="1.0" encoding="UTF-8" standalone="no"?>
<!DOCTYPE svg PUBLIC "-//W3C//DTD SVG 1.1//EN"
 "http://www.w3.org/Graphics/SVG/1.1/DTD/svg11.dtd">
<!-- Generated by graphviz version 2.38.0 (20140413.2041)
 -->
<!-- Title: H4::ARInformation::addParticlesAndCopyBinaryTree Pages: 1 -->
<svg width="357pt" height="204pt"
 viewBox="0.00 0.00 357.00 203.50" xmlns="http://www.w3.org/2000/svg" xmlns:xlink="http://www.w3.org/1999/xlink">
<g id="graph0" class="graph" transform="scale(1 1) rotate(0) translate(4 199.5)">
<title>H4::ARInformation::addParticlesAndCopyBinaryTree</title>
<polygon fill="white" stroke="none" points="-4,4 -4,-199.5 353,-199.5 353,4 -4,4"/>
<!-- Node1 -->
<g id="node1" class="node"><title>Node1</title>
<polygon fill="#bfbfbf" stroke="black" points="0,-88.5 0,-118.5 155,-118.5 155,-88.5 0,-88.5"/>
<text text-anchor="start" x="8" y="-106.5" font-family="FreeSans" font-size="10.00">H4::ARInformation::</text>
<text text-anchor="middle" x="77.5" y="-95.5" font-family="FreeSans" font-size="10.00">addParticlesAndCopyBinaryTree</text>
</g>
<!-- Node2 -->
<g id="node2" class="node"><title>Node2</title>
<g id="a_node2"><a xlink:href="classCOMM_1_1BinaryTree.html#ae05cbd6fc87aebd60f87fa37db6ed2a2" target="_top" xlink:title="get total number of members ">
<polygon fill="white" stroke="black" points="191,-176 191,-195 349,-195 349,-176 191,-176"/>
<text text-anchor="middle" x="270" y="-183" font-family="FreeSans" font-size="10.00">COMM::BinaryTree::getMemberN</text>
</a>
</g>
</g>
<!-- Node1&#45;&gt;Node2 -->
<g id="edge1" class="edge"><title>Node1&#45;&gt;Node2</title>
<path fill="none" stroke="midnightblue" d="M101.287,-118.707C123.391,-132.856 158.294,-153.637 191,-166.5 197.362,-169.002 204.149,-171.243 210.965,-173.23"/>
<polygon fill="midnightblue" stroke="midnightblue" points="210.356,-176.693 220.926,-175.963 212.208,-169.942 210.356,-176.693"/>
</g>
<!-- Node3 -->
<g id="node3" class="node"><title>Node3</title>
<g id="a_node3"><a xlink:href="classCOMM_1_1List.html#a0f3dd09ceff0ce9b3ffd15f48a9ea9c4" target="_top" xlink:title="increase size without initialization ">
<polygon fill="white" stroke="black" points="198.5,-138 198.5,-157 341.5,-157 341.5,-138 198.5,-138"/>
<text text-anchor="middle" x="270" y="-145" font-family="FreeSans" font-size="10.00">COMM::List::resizeNoInitialize</text>
</a>
</g>
</g>
<!-- Node1&#45;&gt;Node3 -->
<g id="edge2" class="edge"><title>Node1&#45;&gt;Node3</title>
<path fill="none" stroke="midnightblue" d="M143.526,-118.519C167.844,-124.136 195.095,-130.43 217.971,-135.714"/>
<polygon fill="midnightblue" stroke="midnightblue" points="217.284,-139.147 227.816,-137.988 218.86,-132.327 217.284,-139.147"/>
</g>
<!-- Node4 -->
<g id="node4" class="node"><title>Node4</title>
<g id="a_node4"><a xlink:href="classCOMM_1_1BinaryTree.html#a9931d373087dd5a8fceae5f3f14020e2" target="_top" xlink:title="collect BinaryTree data iteratively and save to a BinaryTree array ">
<polygon fill="white" stroke="black" points="205,-88.5 205,-118.5 335,-118.5 335,-88.5 205,-88.5"/>
<text text-anchor="start" x="213" y="-106.5" font-family="FreeSans" font-size="10.00">COMM::BinaryTree::gether</text>
<text text-anchor="middle" x="270" y="-95.5" font-family="FreeSans" font-size="10.00">BinaryTreeIter</text>
</a>
</g>
</g>
<!-- Node1&#45;&gt;Node4 -->
<g id="edge3" class="edge"><title>Node1&#45;&gt;Node4</title>
<path fill="none" stroke="midnightblue" d="M155.16,-103.5C168.131,-103.5 181.581,-103.5 194.496,-103.5"/>
<polygon fill="midnightblue" stroke="midnightblue" points="194.72,-107 204.72,-103.5 194.72,-100 194.72,-107"/>
</g>
<!-- Node5 -->
<g id="node5" class="node"><title>Node5</title>
<g id="a_node5"><a xlink:href="classCOMM_1_1List.html#abcdc25c6ecaf2d352583fa75f9fa1180" target="_top" xlink:title="return last member ">
<polygon fill="white" stroke="black" points="201,-50 201,-69 339,-69 339,-50 201,-50"/>
<text text-anchor="middle" x="270" y="-57" font-family="FreeSans" font-size="10.00">COMM::List::getLastMember</text>
</a>
</g>
</g>
<!-- Node1&#45;&gt;Node5 -->
<g id="edge4" class="edge"><title>Node1&#45;&gt;Node5</title>
<path fill="none" stroke="midnightblue" d="M143.526,-88.4808C167.844,-82.864 195.095,-76.57 217.971,-71.2863"/>
<polygon fill="midnightblue" stroke="midnightblue" points="218.86,-74.6732 227.816,-69.0124 217.284,-67.8527 218.86,-74.6732"/>
</g>
<!-- Node6 -->
<g id="node6" class="node"><title>Node6</title>
<g id="a_node6"><a xlink:href="classCOMM_1_1BinaryTree.html#a9afa87b53ab8657e922afb707dda1e2f" target="_top" xlink:title="Process (bottom) leaf data with extra dat iteratively (from left to right) ">
<polygon fill="white" stroke="black" points="202,-0.5 202,-30.5 338,-30.5 338,-0.5 202,-0.5"/>
<text text-anchor="start" x="210" y="-18.5" font-family="FreeSans" font-size="10.00">COMM::BinaryTree::process</text>
<text text-anchor="middle" x="270" y="-7.5" font-family="FreeSans" font-size="10.00">LeafIter</text>
</a>
</g>
</g>
<!-- Node1&#45;&gt;Node6 -->
<g id="edge5" class="edge"><title>Node1&#45;&gt;Node6</title>
<path fill="none" stroke="midnightblue" d="M102.359,-88.2822C124.653,-74.5168 159.183,-54.341 191,-40.5 196.263,-38.2106 201.805,-36.0217 207.407,-33.9585"/>
<polygon fill="midnightblue" stroke="midnightblue" points="208.599,-37.2497 216.854,-30.6094 206.259,-30.652 208.599,-37.2497"/>
</g>
</g>
</svg>
