<?xml version="1.0" encoding="UTF-8" standalone="no"?>
<!DOCTYPE svg PUBLIC "-//W3C//DTD SVG 1.1//EN"
 "http://www.w3.org/Graphics/SVG/1.1/DTD/svg11.dtd">
<!-- Generated by graphviz version 2.43.0 (0)
 -->
<!-- Title: H4::HermiteManager::checkParams Pages: 1 -->
<svg width="599pt" height="372pt"
 viewBox="0.00 0.00 599.00 372.00" xmlns="http://www.w3.org/2000/svg" xmlns:xlink="http://www.w3.org/1999/xlink">
<g id="graph0" class="graph" transform="scale(1 1) rotate(0) translate(4 368)">
<title>H4::HermiteManager::checkParams</title>
<polygon fill="white" stroke="transparent" points="-4,4 -4,-368 595,-368 595,4 -4,4"/>
<!-- Node1 -->
<g id="node1" class="node">
<title>Node1</title>
<g id="a_node1"><a xlink:title="time step calculator">
<polygon fill="#bfbfbf" stroke="black" points="485,-171.5 485,-201.5 591,-201.5 591,-171.5 485,-171.5"/>
<text text-anchor="start" x="493" y="-189.5" font-family="FreeSans" font-size="10.00">H4::HermiteManager</text>
<text text-anchor="middle" x="538" y="-178.5" font-family="FreeSans" font-size="10.00">::checkParams</text>
</a>
</g>
</g>
<!-- Node2 -->
<g id="node2" class="node">
<title>Node2</title>
<g id="a_node2"><a xlink:href="classH4_1_1HermiteIntegrator.html#a5c92334f487ce31326f4469035b24ba7" target="_top" xlink:title="check whether parameters values are correct">
<polygon fill="white" stroke="black" points="339,-171.5 339,-201.5 449,-201.5 449,-171.5 339,-171.5"/>
<text text-anchor="start" x="347" y="-189.5" font-family="FreeSans" font-size="10.00">H4::HermiteIntegrator</text>
<text text-anchor="middle" x="394" y="-178.5" font-family="FreeSans" font-size="10.00">::checkParams</text>
</a>
</g>
</g>
<!-- Node1&#45;&gt;Node2 -->
<g id="edge1" class="edge">
<title>Node1&#45;&gt;Node2</title>
<path fill="none" stroke="midnightblue" d="M474.76,-186.5C466.33,-186.5 457.73,-186.5 449.45,-186.5"/>
<polygon fill="midnightblue" stroke="midnightblue" points="474.93,-190 484.93,-186.5 474.93,-183 474.93,-190"/>
</g>
<!-- Node3 -->
<g id="node3" class="node">
<title>Node3</title>
<g id="a_node3"><a xlink:href="classH4_1_1HermiteIntegrator.html#aefaac6ef510ac839a678081a80e69131" target="_top" xlink:title="add groups from lists of particle index">
<polygon fill="white" stroke="black" points="178.5,-333.5 178.5,-363.5 288.5,-363.5 288.5,-333.5 178.5,-333.5"/>
<text text-anchor="start" x="186.5" y="-351.5" font-family="FreeSans" font-size="10.00">H4::HermiteIntegrator</text>
<text text-anchor="middle" x="233.5" y="-340.5" font-family="FreeSans" font-size="10.00">::addGroups</text>
</a>
</g>
</g>
<!-- Node2&#45;&gt;Node3 -->
<g id="edge2" class="edge">
<title>Node2&#45;&gt;Node3</title>
<path fill="none" stroke="midnightblue" d="M381.82,-210.63C367.3,-239.66 339.44,-288.27 303,-318.5 295.91,-324.39 287.48,-329.31 279,-333.36"/>
<polygon fill="midnightblue" stroke="midnightblue" points="384.99,-212.11 386.23,-201.59 378.7,-209.04 384.99,-212.11"/>
</g>
<!-- Node4 -->
<g id="node4" class="node">
<title>Node4</title>
<g id="a_node4"><a xlink:href="classH4_1_1HermiteIntegrator.html#a4681b656dd42eae01d3d85e66ac55112" target="_top" xlink:title="adjust groups">
<polygon fill="white" stroke="black" points="9,-265.5 9,-295.5 119,-295.5 119,-265.5 9,-265.5"/>
<text text-anchor="start" x="17" y="-283.5" font-family="FreeSans" font-size="10.00">H4::HermiteIntegrator</text>
<text text-anchor="middle" x="64" y="-272.5" font-family="FreeSans" font-size="10.00">::adjustGroups</text>
</a>
</g>
</g>
<!-- Node2&#45;&gt;Node4 -->
<g id="edge5" class="edge">
<title>Node2&#45;&gt;Node4</title>
<path fill="none" stroke="midnightblue" d="M379.5,-210.46C364.4,-234.56 337.47,-270.25 303,-285.5 244.23,-311.5 169.04,-304.07 119.07,-294.23"/>
<polygon fill="midnightblue" stroke="midnightblue" points="382.52,-212.23 384.7,-201.86 376.53,-208.61 382.52,-212.23"/>
</g>
<!-- Node6 -->
<g id="node6" class="node">
<title>Node6</title>
<g id="a_node6"><a xlink:href="classH4_1_1HermiteIntegrator.html#a58a59fd478331237bafbe42b0fbe9d4b" target="_top" xlink:title="break groups">
<polygon fill="white" stroke="black" points="178.5,-245.5 178.5,-275.5 288.5,-275.5 288.5,-245.5 178.5,-245.5"/>
<text text-anchor="start" x="186.5" y="-263.5" font-family="FreeSans" font-size="10.00">H4::HermiteIntegrator</text>
<text text-anchor="middle" x="233.5" y="-252.5" font-family="FreeSans" font-size="10.00">::breakGroups</text>
</a>
</g>
</g>
<!-- Node2&#45;&gt;Node6 -->
<g id="edge6" class="edge">
<title>Node2&#45;&gt;Node6</title>
<path fill="none" stroke="midnightblue" d="M359.56,-206.86C342.91,-216.54 322.26,-227.85 303,-236.5 295.99,-239.65 288.43,-242.66 280.98,-245.42"/>
<polygon fill="midnightblue" stroke="midnightblue" points="361.53,-209.77 368.37,-201.68 357.98,-203.73 361.53,-209.77"/>
</g>
<!-- Node7 -->
<g id="node7" class="node">
<title>Node7</title>
<g id="a_node7"><a xlink:href="classH4_1_1HermiteIntegrator.html#a6e40f52b15e96a4d4e7f3cf89241e300" target="_top" xlink:title="Initial Hermite integrator.">
<polygon fill="white" stroke="black" points="178.5,-196.5 178.5,-226.5 288.5,-226.5 288.5,-196.5 178.5,-196.5"/>
<text text-anchor="start" x="186.5" y="-214.5" font-family="FreeSans" font-size="10.00">H4::HermiteIntegrator</text>
<text text-anchor="middle" x="233.5" y="-203.5" font-family="FreeSans" font-size="10.00">::initialIntegration</text>
</a>
</g>
</g>
<!-- Node2&#45;&gt;Node7 -->
<g id="edge8" class="edge">
<title>Node2&#45;&gt;Node7</title>
<path fill="none" stroke="midnightblue" d="M328.84,-196.62C315.5,-198.72 301.56,-200.92 288.63,-202.96"/>
<polygon fill="midnightblue" stroke="midnightblue" points="329.56,-200.05 338.9,-195.03 328.47,-193.13 329.56,-200.05"/>
</g>
<!-- Node8 -->
<g id="node8" class="node">
<title>Node8</title>
<g id="a_node8"><a xlink:href="classH4_1_1HermiteIntegrator.html#ae588ac618961f983b7c8710b2e6a65dc" target="_top" xlink:title="Initial system array.">
<polygon fill="white" stroke="black" points="178.5,-147.5 178.5,-177.5 288.5,-177.5 288.5,-147.5 178.5,-147.5"/>
<text text-anchor="start" x="186.5" y="-165.5" font-family="FreeSans" font-size="10.00">H4::HermiteIntegrator</text>
<text text-anchor="middle" x="233.5" y="-154.5" font-family="FreeSans" font-size="10.00">::initialSystemSingle</text>
</a>
</g>
</g>
<!-- Node2&#45;&gt;Node8 -->
<g id="edge9" class="edge">
<title>Node2&#45;&gt;Node8</title>
<path fill="none" stroke="midnightblue" d="M328.84,-176.78C315.5,-174.76 301.56,-172.65 288.63,-170.7"/>
<polygon fill="midnightblue" stroke="midnightblue" points="328.49,-180.27 338.9,-178.31 329.53,-173.35 328.49,-180.27"/>
</g>
<!-- Node9 -->
<g id="node9" class="node">
<title>Node9</title>
<g id="a_node9"><a xlink:href="classH4_1_1HermiteIntegrator.html#acaf43160d505e983bab7dff3f57150ce" target="_top" xlink:title="Integrate groups.">
<polygon fill="white" stroke="black" points="169.5,-98.5 169.5,-128.5 297.5,-128.5 297.5,-98.5 169.5,-98.5"/>
<text text-anchor="start" x="177.5" y="-116.5" font-family="FreeSans" font-size="10.00">H4::HermiteIntegrator</text>
<text text-anchor="middle" x="233.5" y="-105.5" font-family="FreeSans" font-size="10.00">::integrateGroupsOneStep</text>
</a>
</g>
</g>
<!-- Node2&#45;&gt;Node9 -->
<g id="edge10" class="edge">
<title>Node2&#45;&gt;Node9</title>
<path fill="none" stroke="midnightblue" d="M358.35,-166.55C341.85,-157.44 321.69,-146.85 303,-138.5 295.26,-135.04 286.87,-131.68 278.72,-128.6"/>
<polygon fill="midnightblue" stroke="midnightblue" points="356.66,-169.62 367.1,-171.44 360.07,-163.51 356.66,-169.62"/>
</g>
<!-- Node10 -->
<g id="node10" class="node">
<title>Node10</title>
<g id="a_node10"><a xlink:href="classH4_1_1HermiteIntegrator.html#a1aaef2826d6bb2c6cc4cafef39fbfaca" target="_top" xlink:title="Integration single active particles and update steps.">
<polygon fill="white" stroke="black" points="164,-49.5 164,-79.5 303,-79.5 303,-49.5 164,-49.5"/>
<text text-anchor="start" x="172" y="-67.5" font-family="FreeSans" font-size="10.00">H4::HermiteIntegrator</text>
<text text-anchor="middle" x="233.5" y="-56.5" font-family="FreeSans" font-size="10.00">::integrateSingleOneStepAct</text>
</a>
</g>
</g>
<!-- Node2&#45;&gt;Node10 -->
<g id="edge11" class="edge">
<title>Node2&#45;&gt;Node10</title>
<path fill="none" stroke="midnightblue" d="M376.55,-163.21C360.13,-141.48 333.07,-109.48 303,-89.5 297.31,-85.72 290.97,-82.42 284.51,-79.57"/>
<polygon fill="midnightblue" stroke="midnightblue" points="373.75,-165.31 382.51,-171.27 379.38,-161.15 373.75,-165.31"/>
</g>
<!-- Node11 -->
<g id="node11" class="node">
<title>Node11</title>
<g id="a_node11"><a xlink:href="classH4_1_1HermiteIntegrator.html#aee9e179800b8e384c3c0807c22b9e6de" target="_top" xlink:title="Integration a list of particle to current time (ingore dt)">
<polygon fill="white" stroke="black" points="178.5,-0.5 178.5,-30.5 288.5,-30.5 288.5,-0.5 178.5,-0.5"/>
<text text-anchor="start" x="186.5" y="-18.5" font-family="FreeSans" font-size="10.00">H4::HermiteIntegrator</text>
<text text-anchor="middle" x="233.5" y="-7.5" font-family="FreeSans" font-size="10.00">::integrateToTimeList</text>
</a>
</g>
</g>
<!-- Node2&#45;&gt;Node11 -->
<g id="edge12" class="edge">
<title>Node2&#45;&gt;Node11</title>
<path fill="none" stroke="midnightblue" d="M383.92,-161.57C370.86,-129.05 343.76,-72.41 303,-39.5 298.69,-36.02 293.83,-33.02 288.75,-30.45"/>
<polygon fill="midnightblue" stroke="midnightblue" points="380.79,-163.17 387.67,-171.23 387.31,-160.64 380.79,-163.17"/>
</g>
<!-- Node3&#45;&gt;Node4 -->
<g id="edge3" class="edge">
<title>Node3&#45;&gt;Node4</title>
<path fill="none" stroke="midnightblue" d="M185.89,-329.58C159.43,-318.83 126.77,-305.58 102.07,-295.55"/>
<polygon fill="midnightblue" stroke="midnightblue" points="184.74,-332.89 195.33,-333.41 187.38,-326.4 184.74,-332.89"/>
</g>
<!-- Node5 -->
<g id="node5" class="node">
<title>Node5</title>
<g id="a_node5"><a xlink:href="classH4_1_1HermiteIntegrator.html#aa1916dc7e970885940bd74ed52aa222c" target="_top" xlink:title="Add group based on a configure file.">
<polygon fill="white" stroke="black" points="0,-333.5 0,-363.5 128,-363.5 128,-333.5 0,-333.5"/>
<text text-anchor="start" x="8" y="-351.5" font-family="FreeSans" font-size="10.00">H4::HermiteIntegrator</text>
<text text-anchor="middle" x="64" y="-340.5" font-family="FreeSans" font-size="10.00">::readGroupConfigureAscii</text>
</a>
</g>
</g>
<!-- Node3&#45;&gt;Node5 -->
<g id="edge4" class="edge">
<title>Node3&#45;&gt;Node5</title>
<path fill="none" stroke="midnightblue" d="M167.83,-348.5C154.8,-348.5 141.11,-348.5 128.14,-348.5"/>
<polygon fill="midnightblue" stroke="midnightblue" points="168.12,-352 178.12,-348.5 168.12,-345 168.12,-352"/>
</g>
<!-- Node6&#45;&gt;Node4 -->
<g id="edge7" class="edge">
<title>Node6&#45;&gt;Node4</title>
<path fill="none" stroke="midnightblue" d="M168.19,-268.18C151.98,-270.11 134.75,-272.17 119.11,-274.04"/>
<polygon fill="midnightblue" stroke="midnightblue" points="168.6,-271.65 178.12,-266.99 167.77,-264.7 168.6,-271.65"/>
</g>
<!-- Node11&#45;&gt;Node4 -->
<g id="edge13" class="edge">
<title>Node11&#45;&gt;Node4</title>
<path fill="none" stroke="midnightblue" d="M169.45,-34.96C167.53,-36.37 165.71,-37.88 164,-39.5 95.58,-104.41 72.94,-223.45 66.89,-265.39"/>
<polygon fill="midnightblue" stroke="midnightblue" points="171.71,-37.67 178.33,-29.4 168,-31.74 171.71,-37.67"/>
</g>
</g>
</svg>
