<?xml version="1.0" encoding="UTF-8" standalone="no"?>
<!DOCTYPE svg PUBLIC "-//W3C//DTD SVG 1.1//EN"
 "http://www.w3.org/Graphics/SVG/1.1/DTD/svg11.dtd">
<!-- Generated by graphviz version 2.43.0 (0)
 -->
<!-- Title: COMM::BinaryTree::calcCenterOfMass Pages: 1 -->
<svg width="337pt" height="39pt"
 viewBox="0.00 0.00 337.00 39.00" xmlns="http://www.w3.org/2000/svg" xmlns:xlink="http://www.w3.org/1999/xlink">
<g id="graph0" class="graph" transform="scale(1 1) rotate(0) translate(4 35)">
<title>COMM::BinaryTree::calcCenterOfMass</title>
<polygon fill="white" stroke="transparent" points="-4,4 -4,-35 333,-35 333,4 -4,4"/>
<!-- Node1 -->
<g id="node1" class="node">
<title>Node1</title>
<g id="a_node1"><a xlink:title="calculate center&#45;of&#45;mass from members">
<polygon fill="#bfbfbf" stroke="black" points="180,-0.5 180,-30.5 329,-30.5 329,-0.5 180,-0.5"/>
<text text-anchor="start" x="188" y="-18.5" font-family="FreeSans" font-size="10.00">COMM::BinaryTree::calcCenter</text>
<text text-anchor="middle" x="254.5" y="-7.5" font-family="FreeSans" font-size="10.00">OfMass</text>
</a>
</g>
</g>
<!-- Node2 -->
<g id="node2" class="node">
<title>Node2</title>
<g id="a_node2"><a xlink:href="classCOMM_1_1BinaryTree.html#a81333bcbb82bb9ec8426b08743475291" target="_top" xlink:title="Generate kepler binary tree for a group of particles.">
<polygon fill="white" stroke="black" points="0,-0.5 0,-30.5 144,-30.5 144,-0.5 0,-0.5"/>
<text text-anchor="start" x="8" y="-18.5" font-family="FreeSans" font-size="10.00">COMM::BinaryTree&lt; Tparticle</text>
<text text-anchor="middle" x="72" y="-7.5" font-family="FreeSans" font-size="10.00"> &gt;::generateBinaryTree</text>
</a>
</g>
</g>
<!-- Node1&#45;&gt;Node2 -->
<g id="edge1" class="edge">
<title>Node1&#45;&gt;Node2</title>
<path fill="none" stroke="midnightblue" d="M169.8,-15.5C161.21,-15.5 152.54,-15.5 144.11,-15.5"/>
<polygon fill="midnightblue" stroke="midnightblue" points="169.82,-19 179.82,-15.5 169.82,-12 169.82,-19"/>
</g>
</g>
</svg>
