<?xml version="1.0" encoding="UTF-8" standalone="no"?>
<!DOCTYPE svg PUBLIC "-//W3C//DTD SVG 1.1//EN"
 "http://www.w3.org/Graphics/SVG/1.1/DTD/svg11.dtd">
<!-- Generated by graphviz version 2.43.0 (0)
 -->
<!-- Title: H4::HermiteIntegrator::getEtot Pages: 1 -->
<svg width="256pt" height="39pt"
 viewBox="0.00 0.00 256.00 39.00" xmlns="http://www.w3.org/2000/svg" xmlns:xlink="http://www.w3.org/1999/xlink">
<g id="graph0" class="graph" transform="scale(1 1) rotate(0) translate(4 35)">
<title>H4::HermiteIntegrator::getEtot</title>
<polygon fill="white" stroke="transparent" points="-4,4 -4,-35 252,-35 252,4 -4,4"/>
<!-- Node1 -->
<g id="node1" class="node">
<title>Node1</title>
<g id="a_node1"><a xlink:title="Get current total energy from ekin and epot.">
<polygon fill="#bfbfbf" stroke="black" points="0,-0.5 0,-30.5 110,-30.5 110,-0.5 0,-0.5"/>
<text text-anchor="start" x="8" y="-18.5" font-family="FreeSans" font-size="10.00">H4::HermiteIntegrator</text>
<text text-anchor="middle" x="55" y="-7.5" font-family="FreeSans" font-size="10.00">::getEtot</text>
</a>
</g>
</g>
<!-- Node2 -->
<g id="node2" class="node">
<title>Node2</title>
<g id="a_node2"><a xlink:href="structH4_1_1HermiteEnergy.html#a6bdafc9006735804870117f62e9431b9" target="_top" xlink:title="calc total energy">
<polygon fill="white" stroke="black" points="146,-0.5 146,-30.5 248,-30.5 248,-0.5 146,-0.5"/>
<text text-anchor="start" x="154" y="-18.5" font-family="FreeSans" font-size="10.00">H4::HermiteEnergy::</text>
<text text-anchor="middle" x="197" y="-7.5" font-family="FreeSans" font-size="10.00">getEtot</text>
</a>
</g>
</g>
<!-- Node1&#45;&gt;Node2 -->
<g id="edge1" class="edge">
<title>Node1&#45;&gt;Node2</title>
<path fill="none" stroke="midnightblue" d="M110.13,-15.5C118.44,-15.5 127.07,-15.5 135.52,-15.5"/>
<polygon fill="midnightblue" stroke="midnightblue" points="135.69,-19 145.69,-15.5 135.69,-12 135.69,-19"/>
</g>
</g>
</svg>
