<?xml version="1.0" encoding="UTF-8" standalone="no"?>
<!DOCTYPE svg PUBLIC "-//W3C//DTD SVG 1.1//EN"
 "http://www.w3.org/Graphics/SVG/1.1/DTD/svg11.dtd">
<!-- Generated by graphviz version 2.38.0 (20140413.2041)
 -->
<!-- Title: COMM::List::increaseSizeNoInitialize Pages: 1 -->
<svg width="328pt" height="186pt"
 viewBox="0.00 0.00 328.00 186.00" xmlns="http://www.w3.org/2000/svg" xmlns:xlink="http://www.w3.org/1999/xlink">
<g id="graph0" class="graph" transform="scale(1 1) rotate(0) translate(4 182)">
<title>COMM::List::increaseSizeNoInitialize</title>
<polygon fill="white" stroke="none" points="-4,4 -4,-182 324,-182 324,4 -4,4"/>
<!-- Node1 -->
<g id="node1" class="node"><title>Node1</title>
<polygon fill="#bfbfbf" stroke="black" points="0,-73.5 0,-103.5 126,-103.5 126,-73.5 0,-73.5"/>
<text text-anchor="start" x="8" y="-91.5" font-family="FreeSans" font-size="10.00">COMM::List::increaseSize</text>
<text text-anchor="middle" x="63" y="-80.5" font-family="FreeSans" font-size="10.00">NoInitialize</text>
</g>
<!-- Node2 -->
<g id="node2" class="node"><title>Node2</title>
<g id="a_node2"><a xlink:href="classH4_1_1HermiteIntegrator.html#ae588ac618961f983b7c8710b2e6a65dc" target="_top" xlink:title="Initial system array. ">
<polygon fill="white" stroke="black" points="187,-147.5 187,-177.5 295,-177.5 295,-147.5 187,-147.5"/>
<text text-anchor="start" x="195" y="-165.5" font-family="FreeSans" font-size="10.00">H4::HermiteIntegrator</text>
<text text-anchor="middle" x="241" y="-154.5" font-family="FreeSans" font-size="10.00">::initialSystemSingle</text>
</a>
</g>
</g>
<!-- Node1&#45;&gt;Node2 -->
<g id="edge1" class="edge"><title>Node1&#45;&gt;Node2</title>
<path fill="none" stroke="midnightblue" d="M99.3194,-108.398C117.661,-118.245 140.649,-129.845 162,-138.5 169.878,-141.694 178.348,-144.709 186.7,-147.453"/>
<polygon fill="midnightblue" stroke="midnightblue" points="100.909,-105.278 90.451,-103.579 97.5668,-111.429 100.909,-105.278"/>
</g>
<!-- Node3 -->
<g id="node3" class="node"><title>Node3</title>
<g id="a_node3"><a xlink:href="classH4_1_1HermiteIntegrator.html#aefaac6ef510ac839a678081a80e69131" target="_top" xlink:title="add groups from lists of particle index ">
<polygon fill="white" stroke="black" points="187,-98.5 187,-128.5 295,-128.5 295,-98.5 187,-98.5"/>
<text text-anchor="start" x="195" y="-116.5" font-family="FreeSans" font-size="10.00">H4::HermiteIntegrator</text>
<text text-anchor="middle" x="241" y="-105.5" font-family="FreeSans" font-size="10.00">::addGroups</text>
</a>
</g>
</g>
<!-- Node1&#45;&gt;Node3 -->
<g id="edge2" class="edge"><title>Node1&#45;&gt;Node3</title>
<path fill="none" stroke="midnightblue" d="M135.978,-98.7242C153.037,-101.147 170.927,-103.688 186.966,-105.967"/>
<polygon fill="midnightblue" stroke="midnightblue" points="136.444,-95.2553 126.051,-97.3141 135.459,-102.186 136.444,-95.2553"/>
</g>
<!-- Node4 -->
<g id="node4" class="node"><title>Node4</title>
<g id="a_node4"><a xlink:href="classH4_1_1HermiteIntegrator.html#a58a59fd478331237bafbe42b0fbe9d4b" target="_top" xlink:title="break groups ">
<polygon fill="white" stroke="black" points="187,-49.5 187,-79.5 295,-79.5 295,-49.5 187,-49.5"/>
<text text-anchor="start" x="195" y="-67.5" font-family="FreeSans" font-size="10.00">H4::HermiteIntegrator</text>
<text text-anchor="middle" x="241" y="-56.5" font-family="FreeSans" font-size="10.00">::breakGroups</text>
</a>
</g>
</g>
<!-- Node1&#45;&gt;Node4 -->
<g id="edge3" class="edge"><title>Node1&#45;&gt;Node4</title>
<path fill="none" stroke="midnightblue" d="M135.978,-78.6848C153.037,-76.3586 170.927,-73.9191 186.966,-71.7319"/>
<polygon fill="midnightblue" stroke="midnightblue" points="135.486,-75.2194 126.051,-80.0385 136.432,-82.1552 135.486,-75.2194"/>
</g>
<!-- Node5 -->
<g id="node5" class="node"><title>Node5</title>
<g id="a_node5"><a xlink:href="classAR_1_1TimeTransformedSymplecticIntegrator.html#aa655bbfc4e9f9af1ae7f7a09fc193443" target="_top" xlink:title="operator = ">
<polygon fill="white" stroke="black" points="162,-0.5 162,-30.5 320,-30.5 320,-0.5 162,-0.5"/>
<text text-anchor="start" x="170" y="-18.5" font-family="FreeSans" font-size="10.00">AR::TimeTransformedSymplectic</text>
<text text-anchor="middle" x="241" y="-7.5" font-family="FreeSans" font-size="10.00">Integrator::operator=</text>
</a>
</g>
</g>
<!-- Node1&#45;&gt;Node5 -->
<g id="edge4" class="edge"><title>Node1&#45;&gt;Node5</title>
<path fill="none" stroke="midnightblue" d="M101.271,-68.6572C119.329,-59.4555 141.498,-48.7558 162,-40.5 170.706,-36.9943 180.107,-33.6346 189.267,-30.5785"/>
<polygon fill="midnightblue" stroke="midnightblue" points="99.5213,-65.6215 92.2334,-73.3117 102.726,-71.8448 99.5213,-65.6215"/>
</g>
</g>
</svg>
