<?xml version="1.0" encoding="UTF-8" standalone="no"?>
<!DOCTYPE svg PUBLIC "-//W3C//DTD SVG 1.1//EN"
 "http://www.w3.org/Graphics/SVG/1.1/DTD/svg11.dtd">
<!-- Generated by graphviz version 2.38.0 (20140413.2041)
 -->
<!-- Title: COMM::List&lt; Ttype &gt; Pages: 1 -->
<svg width="115pt" height="106pt"
 viewBox="0.00 0.00 115.00 106.00" xmlns="http://www.w3.org/2000/svg" xmlns:xlink="http://www.w3.org/1999/xlink">
<g id="graph0" class="graph" transform="scale(1 1) rotate(0) translate(4 102)">
<title>COMM::List&lt; Ttype &gt;</title>
<polygon fill="white" stroke="none" points="-4,4 -4,-102 111,-102 111,4 -4,4"/>
<!-- Node1 -->
<g id="node1" class="node"><title>Node1</title>
<polygon fill="#bfbfbf" stroke="black" points="-7.10543e-15,-0.5 -7.10543e-15,-19.5 107,-19.5 107,-0.5 -7.10543e-15,-0.5"/>
<text text-anchor="middle" x="53.5" y="-7.5" font-family="FreeSans" font-size="10.00">COMM::List&lt; Ttype &gt;</text>
</g>
<!-- Node2 -->
<g id="node2" class="node"><title>Node2</title>
<polygon fill="white" stroke="#bfbfbf" points="33,-78.5 33,-97.5 74,-97.5 74,-78.5 33,-78.5"/>
<text text-anchor="middle" x="53.5" y="-85.5" font-family="FreeSans" font-size="10.00">Ttype</text>
</g>
<!-- Node2&#45;&gt;Node1 -->
<g id="edge1" class="edge"><title>Node2&#45;&gt;Node1</title>
<path fill="none" stroke="#9a32cd" stroke-dasharray="5,2" d="M53.5,-68.2239C53.5,-52.6974 53.5,-31.3582 53.5,-19.6165"/>
<polygon fill="#9a32cd" stroke="#9a32cd" points="50.0001,-68.2818 53.5,-78.2818 57.0001,-68.2819 50.0001,-68.2818"/>
<text text-anchor="middle" x="66" y="-52" font-family="FreeSans" font-size="10.00"> adr_</text>
<text text-anchor="middle" x="66" y="-41" font-family="FreeSans" font-size="10.00">data_</text>
</g>
</g>
</svg>
