<?xml version="1.0" encoding="UTF-8" standalone="no"?>
<!DOCTYPE svg PUBLIC "-//W3C//DTD SVG 1.1//EN"
 "http://www.w3.org/Graphics/SVG/1.1/DTD/svg11.dtd">
<!-- Generated by graphviz version 2.43.0 (0)
 -->
<!-- Title: AR::SymplecticStep::getOrder Pages: 1 -->
<svg width="317pt" height="88pt"
 viewBox="0.00 0.00 317.00 88.00" xmlns="http://www.w3.org/2000/svg" xmlns:xlink="http://www.w3.org/1999/xlink">
<g id="graph0" class="graph" transform="scale(1 1) rotate(0) translate(4 84)">
<title>AR::SymplecticStep::getOrder</title>
<polygon fill="white" stroke="transparent" points="-4,4 -4,-84 313,-84 313,4 -4,4"/>
<!-- Node1 -->
<g id="node1" class="node">
<title>Node1</title>
<g id="a_node1"><a xlink:title="get Symplectic order">
<polygon fill="#bfbfbf" stroke="black" points="206,-24.5 206,-54.5 309,-54.5 309,-24.5 206,-24.5"/>
<text text-anchor="start" x="214" y="-42.5" font-family="FreeSans" font-size="10.00">AR::SymplecticStep</text>
<text text-anchor="middle" x="257.5" y="-31.5" font-family="FreeSans" font-size="10.00">::getOrder</text>
</a>
</g>
</g>
<!-- Node2 -->
<g id="node2" class="node">
<title>Node2</title>
<g id="a_node2"><a xlink:href="classAR_1_1TimeTransformedSymplecticManager.html#a8921a86541d095de3a8685f4aad2da48" target="_top" xlink:title="check whether parameters values are correct">
<polygon fill="white" stroke="black" points="0,-49.5 0,-79.5 170,-79.5 170,-49.5 0,-49.5"/>
<text text-anchor="start" x="8" y="-67.5" font-family="FreeSans" font-size="10.00">AR::TimeTransformedSymplectic</text>
<text text-anchor="middle" x="85" y="-56.5" font-family="FreeSans" font-size="10.00">Manager&lt; TARacc &gt;::checkParams</text>
</a>
</g>
</g>
<!-- Node1&#45;&gt;Node2 -->
<g id="edge1" class="edge">
<title>Node1&#45;&gt;Node2</title>
<path fill="none" stroke="midnightblue" d="M195.8,-48.4C187.43,-49.63 178.72,-50.9 170.03,-52.18"/>
<polygon fill="midnightblue" stroke="midnightblue" points="196.42,-51.85 205.81,-46.93 195.4,-44.92 196.42,-51.85"/>
</g>
<!-- Node3 -->
<g id="node3" class="node">
<title>Node3</title>
<g id="a_node3"><a xlink:href="classH4_1_1HermiteIntegrator.html#acaf43160d505e983bab7dff3f57150ce" target="_top" xlink:title="Integrate groups.">
<polygon fill="white" stroke="black" points="21,-0.5 21,-30.5 149,-30.5 149,-0.5 21,-0.5"/>
<text text-anchor="start" x="29" y="-18.5" font-family="FreeSans" font-size="10.00">H4::HermiteIntegrator</text>
<text text-anchor="middle" x="85" y="-7.5" font-family="FreeSans" font-size="10.00">::integrateGroupsOneStep</text>
</a>
</g>
</g>
<!-- Node1&#45;&gt;Node3 -->
<g id="edge2" class="edge">
<title>Node1&#45;&gt;Node3</title>
<path fill="none" stroke="midnightblue" d="M195.58,-30.93C180.53,-28.81 164.36,-26.53 149.2,-24.4"/>
<polygon fill="midnightblue" stroke="midnightblue" points="195.42,-34.44 205.81,-32.36 196.39,-27.5 195.42,-34.44"/>
</g>
</g>
</svg>
