<?xml version="1.0" encoding="UTF-8" standalone="no"?>
<!DOCTYPE svg PUBLIC "-//W3C//DTD SVG 1.1//EN"
 "http://www.w3.org/Graphics/SVG/1.1/DTD/svg11.dtd">
<!-- Generated by graphviz version 2.38.0 (20140413.2041)
 -->
<!-- Title: COMM::Binary::evolve Pages: 1 -->
<svg width="478pt" height="28pt"
 viewBox="0.00 0.00 478.00 28.00" xmlns="http://www.w3.org/2000/svg" xmlns:xlink="http://www.w3.org/1999/xlink">
<g id="graph0" class="graph" transform="scale(1 1) rotate(0) translate(4 24)">
<title>COMM::Binary::evolve</title>
<polygon fill="white" stroke="none" points="-4,4 -4,-24 474,-24 474,4 -4,4"/>
<!-- Node1 -->
<g id="node1" class="node"><title>Node1</title>
<polygon fill="#bfbfbf" stroke="black" points="0,-0.5 0,-19.5 110,-19.5 110,-0.5 0,-0.5"/>
<text text-anchor="middle" x="55" y="-7.5" font-family="FreeSans" font-size="10.00">COMM::Binary::evolve</text>
</g>
<!-- Node2 -->
<g id="node2" class="node"><title>Node2</title>
<g id="a_node2"><a xlink:href="classCOMM_1_1Binary.html#a223000b97a96b3c97941d8ec6af32dbc" target="_top" xlink:title="solve kepler orbit after dt ">
<polygon fill="white" stroke="black" points="146,-0.5 146,-19.5 279,-19.5 279,-0.5 146,-0.5"/>
<text text-anchor="middle" x="212.5" y="-7.5" font-family="FreeSans" font-size="10.00">COMM::Binary::solveKepler</text>
</a>
</g>
</g>
<!-- Node1&#45;&gt;Node2 -->
<g id="edge1" class="edge"><title>Node1&#45;&gt;Node2</title>
<path fill="none" stroke="midnightblue" d="M110.386,-10C118.633,-10 127.266,-10 135.864,-10"/>
<polygon fill="midnightblue" stroke="midnightblue" points="135.917,-13.5001 145.917,-10 135.917,-6.5001 135.917,-13.5001"/>
</g>
<!-- Node3 -->
<g id="node3" class="node"><title>Node3</title>
<g id="a_node3"><a xlink:href="classCOMM_1_1Binary.html#ae8246518943ce101664139f52f11fac1" target="_top" xlink:title="calculate eccentricy anomaly from mean anomaly ">
<polygon fill="white" stroke="black" points="315,-0.5 315,-19.5 470,-19.5 470,-0.5 315,-0.5"/>
<text text-anchor="middle" x="392.5" y="-7.5" font-family="FreeSans" font-size="10.00">COMM::Binary::calcEccAnomaly</text>
</a>
</g>
</g>
<!-- Node2&#45;&gt;Node3 -->
<g id="edge2" class="edge"><title>Node2&#45;&gt;Node3</title>
<path fill="none" stroke="midnightblue" d="M279.022,-10C287.43,-10 296.138,-10 304.817,-10"/>
<polygon fill="midnightblue" stroke="midnightblue" points="304.972,-13.5001 314.972,-10 304.972,-6.5001 304.972,-13.5001"/>
</g>
</g>
</svg>
