<?xml version="1.0" encoding="UTF-8" standalone="no"?>
<!DOCTYPE svg PUBLIC "-//W3C//DTD SVG 1.1//EN"
 "http://www.w3.org/Graphics/SVG/1.1/DTD/svg11.dtd">
<!-- Generated by graphviz version 2.43.0 (0)
 -->
<!-- Title: H4::BlockTimeStep4th::readBinary Pages: 1 -->
<svg width="264pt" height="39pt"
 viewBox="0.00 0.00 264.00 39.00" xmlns="http://www.w3.org/2000/svg" xmlns:xlink="http://www.w3.org/1999/xlink">
<g id="graph0" class="graph" transform="scale(1 1) rotate(0) translate(4 35)">
<title>H4::BlockTimeStep4th::readBinary</title>
<polygon fill="white" stroke="transparent" points="-4,4 -4,-35 260,-35 260,4 -4,4"/>
<!-- Node1 -->
<g id="node1" class="node">
<title>Node1</title>
<g id="a_node1"><a xlink:title="read class data to file with binary format">
<polygon fill="#bfbfbf" stroke="black" points="142,-0.5 142,-30.5 256,-30.5 256,-0.5 142,-0.5"/>
<text text-anchor="start" x="150" y="-18.5" font-family="FreeSans" font-size="10.00">H4::BlockTimeStep4th</text>
<text text-anchor="middle" x="199" y="-7.5" font-family="FreeSans" font-size="10.00">::readBinary</text>
</a>
</g>
</g>
<!-- Node2 -->
<g id="node2" class="node">
<title>Node2</title>
<g id="a_node2"><a xlink:href="classH4_1_1HermiteManager.html#aeb6e02df7ef2e72e50d37866d59bba3f" target="_top" xlink:title="read class data to file with binary format">
<polygon fill="white" stroke="black" points="0,-0.5 0,-30.5 106,-30.5 106,-0.5 0,-0.5"/>
<text text-anchor="start" x="8" y="-18.5" font-family="FreeSans" font-size="10.00">H4::HermiteManager</text>
<text text-anchor="middle" x="53" y="-7.5" font-family="FreeSans" font-size="10.00">&lt; Tacc &gt;::readBinary</text>
</a>
</g>
</g>
<!-- Node1&#45;&gt;Node2 -->
<g id="edge1" class="edge">
<title>Node1&#45;&gt;Node2</title>
<path fill="none" stroke="midnightblue" d="M131.66,-15.5C123.19,-15.5 114.61,-15.5 106.4,-15.5"/>
<polygon fill="midnightblue" stroke="midnightblue" points="131.91,-19 141.91,-15.5 131.91,-12 131.91,-19"/>
</g>
</g>
</svg>
