<?xml version="1.0" encoding="UTF-8" standalone="no"?>
<!DOCTYPE svg PUBLIC "-//W3C//DTD SVG 1.1//EN"
 "http://www.w3.org/Graphics/SVG/1.1/DTD/svg11.dtd">
<!-- Generated by graphviz version 2.38.0 (20140413.2041)
 -->
<!-- Title: AR::SymplecticStep::readBinary Pages: 1 -->
<svg width="421pt" height="39pt"
 viewBox="0.00 0.00 421.00 39.00" xmlns="http://www.w3.org/2000/svg" xmlns:xlink="http://www.w3.org/1999/xlink">
<g id="graph0" class="graph" transform="scale(1 1) rotate(0) translate(4 35)">
<title>AR::SymplecticStep::readBinary</title>
<polygon fill="white" stroke="none" points="-4,4 -4,-35 417,-35 417,4 -4,4"/>
<!-- Node1 -->
<g id="node1" class="node"><title>Node1</title>
<polygon fill="#bfbfbf" stroke="black" points="0,-0.5 0,-30.5 103,-30.5 103,-0.5 0,-0.5"/>
<text text-anchor="start" x="8" y="-18.5" font-family="FreeSans" font-size="10.00">AR::SymplecticStep</text>
<text text-anchor="middle" x="51.5" y="-7.5" font-family="FreeSans" font-size="10.00">::readBinary</text>
</g>
<!-- Node2 -->
<g id="node2" class="node"><title>Node2</title>
<g id="a_node2"><a xlink:href="classAR_1_1SymplecticStep.html#a3783c763a55a3f197f2914c3c621f020" target="_top" xlink:title="Symplectic coefficients generation for input order. ">
<polygon fill="white" stroke="black" points="139,-0.5 139,-30.5 274,-30.5 274,-0.5 139,-0.5"/>
<text text-anchor="start" x="147" y="-18.5" font-family="FreeSans" font-size="10.00">AR::SymplecticStep</text>
<text text-anchor="middle" x="206.5" y="-7.5" font-family="FreeSans" font-size="10.00">::initialSymplecticCofficients</text>
</a>
</g>
</g>
<!-- Node1&#45;&gt;Node2 -->
<g id="edge1" class="edge"><title>Node1&#45;&gt;Node2</title>
<path fill="none" stroke="midnightblue" d="M103.022,-15.5C111.28,-15.5 119.996,-15.5 128.718,-15.5"/>
<polygon fill="midnightblue" stroke="midnightblue" points="128.931,-19.0001 138.931,-15.5 128.931,-12.0001 128.931,-19.0001"/>
</g>
<!-- Node3 -->
<g id="node3" class="node"><title>Node3</title>
<g id="a_node3"><a xlink:href="classAR_1_1SymplecticStep.html#adfbb534cea38813980c9d8bfdb7ca749" target="_top" xlink:title="clear function ">
<polygon fill="white" stroke="black" points="310,-0.5 310,-30.5 413,-30.5 413,-0.5 310,-0.5"/>
<text text-anchor="start" x="318" y="-18.5" font-family="FreeSans" font-size="10.00">AR::SymplecticStep</text>
<text text-anchor="middle" x="361.5" y="-7.5" font-family="FreeSans" font-size="10.00">::clear</text>
</a>
</g>
</g>
<!-- Node2&#45;&gt;Node3 -->
<g id="edge2" class="edge"><title>Node2&#45;&gt;Node3</title>
<path fill="none" stroke="midnightblue" d="M274.163,-15.5C282.636,-15.5 291.273,-15.5 299.648,-15.5"/>
<polygon fill="midnightblue" stroke="midnightblue" points="299.706,-19.0001 309.706,-15.5 299.706,-12.0001 299.706,-19.0001"/>
</g>
</g>
</svg>
