<?xml version="1.0" encoding="UTF-8" standalone="no"?>
<!DOCTYPE svg PUBLIC "-//W3C//DTD SVG 1.1//EN"
 "http://www.w3.org/Graphics/SVG/1.1/DTD/svg11.dtd">
<!-- Generated by graphviz version 2.43.0 (0)
 -->
<!-- Title: AR::TimeTransformedSymplecticIntegrator::clear Pages: 1 -->
<svg width="395pt" height="100pt"
 viewBox="0.00 0.00 395.00 99.50" xmlns="http://www.w3.org/2000/svg" xmlns:xlink="http://www.w3.org/1999/xlink">
<g id="graph0" class="graph" transform="scale(1 1) rotate(0) translate(4 95.5)">
<title>AR::TimeTransformedSymplecticIntegrator::clear</title>
<polygon fill="white" stroke="transparent" points="-4,4 -4,-95.5 391,-95.5 391,4 -4,4"/>
<!-- Node1 -->
<g id="node1" class="node">
<title>Node1</title>
<g id="a_node1"><a xlink:title="Clear function.">
<polygon fill="#bfbfbf" stroke="black" points="228,-33 228,-63 387,-63 387,-33 228,-33"/>
<text text-anchor="start" x="236" y="-51" font-family="FreeSans" font-size="10.00">AR::TimeTransformedSymplectic</text>
<text text-anchor="middle" x="307.5" y="-40" font-family="FreeSans" font-size="10.00">Integrator::clear</text>
</a>
</g>
</g>
<!-- Node2 -->
<g id="node2" class="node">
<title>Node2</title>
<g id="a_node2"><a xlink:href="classAR_1_1TimeTransformedSymplecticIntegrator.html#aa655bbfc4e9f9af1ae7f7a09fc193443" target="_top" xlink:title="operator =">
<polygon fill="white" stroke="black" points="16.5,-61 16.5,-91 175.5,-91 175.5,-61 16.5,-61"/>
<text text-anchor="start" x="24.5" y="-79" font-family="FreeSans" font-size="10.00">AR::TimeTransformedSymplectic</text>
<text text-anchor="middle" x="96" y="-68" font-family="FreeSans" font-size="10.00">Integrator::operator=</text>
</a>
</g>
</g>
<!-- Node1&#45;&gt;Node2 -->
<g id="edge1" class="edge">
<title>Node1&#45;&gt;Node2</title>
<path fill="none" stroke="midnightblue" d="M217.79,-59.86C203.81,-61.72 189.44,-63.65 175.7,-65.48"/>
<polygon fill="midnightblue" stroke="midnightblue" points="218.45,-63.3 227.89,-58.51 217.52,-56.36 218.45,-63.3"/>
</g>
<!-- Node3 -->
<g id="node3" class="node">
<title>Node3</title>
<g id="a_node3"><a xlink:href="classAR_1_1TimeTransformedSymplecticIntegrator.html#aab55b52156245634a8d78c7728b5c802" target="_top" xlink:title="destructor">
<polygon fill="white" stroke="black" points="0,-0.5 0,-41.5 192,-41.5 192,-0.5 0,-0.5"/>
<text text-anchor="start" x="8" y="-29.5" font-family="FreeSans" font-size="10.00">AR::TimeTransformedSymplectic</text>
<text text-anchor="start" x="8" y="-18.5" font-family="FreeSans" font-size="10.00">Integrator::~TimeTransformedSymplectic</text>
<text text-anchor="middle" x="96" y="-7.5" font-family="FreeSans" font-size="10.00">Integrator</text>
</a>
</g>
</g>
<!-- Node1&#45;&gt;Node3 -->
<g id="edge2" class="edge">
<title>Node1&#45;&gt;Node3</title>
<path fill="none" stroke="midnightblue" d="M217.73,-36.56C209.32,-35.48 200.77,-34.37 192.31,-33.28"/>
<polygon fill="midnightblue" stroke="midnightblue" points="217.53,-40.06 227.89,-37.87 218.42,-33.12 217.53,-40.06"/>
</g>
</g>
</svg>
