<?xml version="1.0" encoding="UTF-8" standalone="no"?>
<!DOCTYPE svg PUBLIC "-//W3C//DTD SVG 1.1//EN"
 "http://www.w3.org/Graphics/SVG/1.1/DTD/svg11.dtd">
<!-- Generated by graphviz version 2.43.0 (0)
 -->
<!-- Title: COMM::BinaryTree::getRightMember Pages: 1 -->
<svg width="339pt" height="50pt"
 viewBox="0.00 0.00 339.00 50.00" xmlns="http://www.w3.org/2000/svg" xmlns:xlink="http://www.w3.org/1999/xlink">
<g id="graph0" class="graph" transform="scale(1 1) rotate(0) translate(4 46)">
<title>COMM::BinaryTree::getRightMember</title>
<polygon fill="white" stroke="transparent" points="-4,4 -4,-46 335,-46 335,4 -4,4"/>
<!-- Node1 -->
<g id="node1" class="node">
<title>Node1</title>
<g id="a_node1"><a xlink:title="get right member">
<polygon fill="#bfbfbf" stroke="black" points="192,-6 192,-36 331,-36 331,-6 192,-6"/>
<text text-anchor="start" x="200" y="-24" font-family="FreeSans" font-size="10.00">COMM::BinaryTree::getRight</text>
<text text-anchor="middle" x="261.5" y="-13" font-family="FreeSans" font-size="10.00">Member</text>
</a>
</g>
</g>
<!-- Node2 -->
<g id="node2" class="node">
<title>Node2</title>
<g id="a_node2"><a xlink:href="classAR_1_1Information.html#afb941bde965b9a7e3ce80262a39492ec" target="_top" xlink:title="check binary tree member pair id, if consisent, return ture. otherwise set the member pair id">
<polygon fill="white" stroke="black" points="0,-0.5 0,-41.5 156,-41.5 156,-0.5 0,-0.5"/>
<text text-anchor="start" x="8" y="-29.5" font-family="FreeSans" font-size="10.00">AR::Information&lt; Tparticle,</text>
<text text-anchor="start" x="8" y="-18.5" font-family="FreeSans" font-size="10.00"> ParticleH4&lt; Tparticle &gt;</text>
<text text-anchor="middle" x="78" y="-7.5" font-family="FreeSans" font-size="10.00"> &gt;::checkAndSetBinaryPairIDIter</text>
</a>
</g>
</g>
<!-- Node1&#45;&gt;Node2 -->
<g id="edge1" class="edge">
<title>Node1&#45;&gt;Node2</title>
<path fill="none" stroke="midnightblue" d="M181.67,-21C173.23,-21 164.65,-21 156.23,-21"/>
<polygon fill="midnightblue" stroke="midnightblue" points="181.88,-24.5 191.88,-21 181.88,-17.5 181.88,-24.5"/>
</g>
</g>
</svg>
