<?xml version="1.0" encoding="UTF-8" standalone="no"?>
<!DOCTYPE svg PUBLIC "-//W3C//DTD SVG 1.1//EN"
 "http://www.w3.org/Graphics/SVG/1.1/DTD/svg11.dtd">
<!-- Generated by graphviz version 2.38.0 (20140413.2041)
 -->
<!-- Title: COMM::ParticleGroup::clear Pages: 1 -->
<svg width="313pt" height="147pt"
 viewBox="0.00 0.00 313.00 147.00" xmlns="http://www.w3.org/2000/svg" xmlns:xlink="http://www.w3.org/1999/xlink">
<g id="graph0" class="graph" transform="scale(1 1) rotate(0) translate(4 143)">
<title>COMM::ParticleGroup::clear</title>
<polygon fill="white" stroke="none" points="-4,4 -4,-143 309,-143 309,4 -4,4"/>
<!-- Node1 -->
<g id="node1" class="node"><title>Node1</title>
<polygon fill="#bfbfbf" stroke="black" points="0,-54.5 0,-84.5 111,-84.5 111,-54.5 0,-54.5"/>
<text text-anchor="start" x="8" y="-72.5" font-family="FreeSans" font-size="10.00">COMM::ParticleGroup</text>
<text text-anchor="middle" x="55.5" y="-61.5" font-family="FreeSans" font-size="10.00">::clear</text>
</g>
<!-- Node2 -->
<g id="node2" class="node"><title>Node2</title>
<g id="a_node2"><a xlink:href="classH4_1_1HermiteIntegrator.html#a7729add39ba30b96c19aa6337dd38293" target="_top" xlink:title="clear function ">
<polygon fill="white" stroke="black" points="172,-108.5 172,-138.5 280,-138.5 280,-108.5 172,-108.5"/>
<text text-anchor="start" x="180" y="-126.5" font-family="FreeSans" font-size="10.00">H4::HermiteIntegrator</text>
<text text-anchor="middle" x="226" y="-115.5" font-family="FreeSans" font-size="10.00">::clear</text>
</a>
</g>
</g>
<!-- Node1&#45;&gt;Node2 -->
<g id="edge1" class="edge"><title>Node1&#45;&gt;Node2</title>
<path fill="none" stroke="midnightblue" d="M111.265,-87.865C123.038,-91.7539 135.421,-95.7999 147,-99.5 156.177,-102.433 165.982,-105.501 175.435,-108.425"/>
<polygon fill="midnightblue" stroke="midnightblue" points="112.143,-84.469 101.55,-84.6463 109.942,-91.1138 112.143,-84.469"/>
</g>
<!-- Node3 -->
<g id="node3" class="node"><title>Node3</title>
<g id="a_node3"><a xlink:href="classCOMM_1_1ParticleGroup.html#ad24d34c19dcf7f18c085d9cc01c388b1" target="_top" xlink:title="destructor ">
<polygon fill="white" stroke="black" points="168,-49 168,-90 284,-90 284,-49 168,-49"/>
<text text-anchor="start" x="176" y="-78" font-family="FreeSans" font-size="10.00">COMM::ParticleGroup</text>
<text text-anchor="start" x="176" y="-67" font-family="FreeSans" font-size="10.00">&lt; H4::ParticleH4, Tpcm</text>
<text text-anchor="middle" x="226" y="-56" font-family="FreeSans" font-size="10.00"> &gt;::~ParticleGroup</text>
</a>
</g>
</g>
<!-- Node1&#45;&gt;Node3 -->
<g id="edge2" class="edge"><title>Node1&#45;&gt;Node3</title>
<path fill="none" stroke="midnightblue" d="M121.618,-69.5C136.899,-69.5 153.066,-69.5 167.962,-69.5"/>
<polygon fill="midnightblue" stroke="midnightblue" points="121.207,-66.0001 111.207,-69.5 121.207,-73.0001 121.207,-66.0001"/>
</g>
<!-- Node4 -->
<g id="node4" class="node"><title>Node4</title>
<g id="a_node4"><a xlink:href="classAR_1_1TimeTransformedSymplecticIntegrator.html#aaa3a79d58bda3139dc300f0f46bff536" target="_top" xlink:title="Clear function. ">
<polygon fill="white" stroke="black" points="147,-0.5 147,-30.5 305,-30.5 305,-0.5 147,-0.5"/>
<text text-anchor="start" x="155" y="-18.5" font-family="FreeSans" font-size="10.00">AR::TimeTransformedSymplectic</text>
<text text-anchor="middle" x="226" y="-7.5" font-family="FreeSans" font-size="10.00">Integrator::clear</text>
</a>
</g>
</g>
<!-- Node1&#45;&gt;Node4 -->
<g id="edge3" class="edge"><title>Node1&#45;&gt;Node4</title>
<path fill="none" stroke="midnightblue" d="M111.265,-51.135C123.038,-47.2461 135.421,-43.2001 147,-39.5 156.177,-36.5674 165.982,-33.4994 175.435,-30.5748"/>
<polygon fill="midnightblue" stroke="midnightblue" points="109.942,-47.8862 101.55,-54.3537 112.143,-54.531 109.942,-47.8862"/>
</g>
</g>
</svg>
