<?xml version="1.0" encoding="UTF-8" standalone="no"?>
<!DOCTYPE svg PUBLIC "-//W3C//DTD SVG 1.1//EN"
 "http://www.w3.org/Graphics/SVG/1.1/DTD/svg11.dtd">
<!-- Generated by graphviz version 2.38.0 (20140413.2041)
 -->
<!-- Title: H4::HermiteIntegrator::checkNewGroup Pages: 1 -->
<svg width="299pt" height="225pt"
 viewBox="0.00 0.00 299.00 224.50" xmlns="http://www.w3.org/2000/svg" xmlns:xlink="http://www.w3.org/1999/xlink">
<g id="graph0" class="graph" transform="scale(1 1) rotate(0) translate(4 220.5)">
<title>H4::HermiteIntegrator::checkNewGroup</title>
<polygon fill="white" stroke="none" points="-4,4 -4,-220.5 295,-220.5 295,4 -4,4"/>
<!-- Node1 -->
<g id="node1" class="node"><title>Node1</title>
<polygon fill="#bfbfbf" stroke="black" points="0,-112 0,-142 108,-142 108,-112 0,-112"/>
<text text-anchor="start" x="8" y="-130" font-family="FreeSans" font-size="10.00">H4::HermiteIntegrator</text>
<text text-anchor="middle" x="54" y="-119" font-family="FreeSans" font-size="10.00">::checkNewGroup</text>
</g>
<!-- Node2 -->
<g id="node2" class="node"><title>Node2</title>
<g id="a_node2"><a xlink:href="classCOMM_1_1List.html#af1c92acd831f62c52f3385a71d6403e7" target="_top" xlink:title="get current member number ">
<polygon fill="white" stroke="black" points="161,-186 161,-216 274,-216 274,-186 161,-186"/>
<text text-anchor="start" x="169" y="-204" font-family="FreeSans" font-size="10.00">COMM::List&lt; Tparticle</text>
<text text-anchor="middle" x="217.5" y="-193" font-family="FreeSans" font-size="10.00"> &gt;::getSize</text>
</a>
</g>
</g>
<!-- Node1&#45;&gt;Node2 -->
<g id="edge1" class="edge"><title>Node1&#45;&gt;Node2</title>
<path fill="none" stroke="midnightblue" d="M93.159,-142.206C108.602,-150.536 126.814,-160.412 144,-168 155.845,-173.23 169.203,-177.962 181.196,-182.315"/>
<polygon fill="midnightblue" stroke="midnightblue" points="180.293,-185.712 190.886,-185.884 182.712,-179.143 180.293,-185.712"/>
</g>
<!-- Node1&#45;&gt;Node2 -->
<g id="edge2" class="edge"><title>Node1&#45;&gt;Node2</title>
<path fill="none" stroke="midnightblue" d="M68.7504,-142.146C85.8792,-155.563 116.276,-173.76 144,-186 146.335,-187.031 148.728,-188.042 151.159,-189.028"/>
<polygon fill="midnightblue" stroke="midnightblue" points="150.079,-192.362 160.669,-192.685 152.591,-185.829 150.079,-192.362"/>
</g>
<!-- Node3 -->
<g id="node3" class="node"><title>Node3</title>
<g id="a_node3"><a xlink:href="classAR_1_1SlowDown.html#ab9436a956d9925171387b0cfe4ffbb0f" target="_top" xlink:title="initialize slow&#45;down parameters ">
<polygon fill="white" stroke="black" points="153.5,-137 153.5,-167 281.5,-167 281.5,-137 153.5,-137"/>
<text text-anchor="start" x="161.5" y="-155" font-family="FreeSans" font-size="10.00">AR::SlowDown::initialSlow</text>
<text text-anchor="middle" x="217.5" y="-144" font-family="FreeSans" font-size="10.00">DownReference</text>
</a>
</g>
</g>
<!-- Node1&#45;&gt;Node3 -->
<g id="edge3" class="edge"><title>Node1&#45;&gt;Node3</title>
<path fill="none" stroke="midnightblue" d="M108.329,-135.255C119.485,-136.982 131.435,-138.832 143.173,-140.649"/>
<polygon fill="midnightblue" stroke="midnightblue" points="142.991,-144.162 153.409,-142.234 144.062,-137.245 142.991,-144.162"/>
</g>
<!-- Node4 -->
<g id="node4" class="node"><title>Node4</title>
<g id="a_node4"><a xlink:href="classAR_1_1SlowDown.html#a7cae8bcc039bb158497e2f9bb6efbd78" target="_top" xlink:title="calculate slowdown factor based on perturbation and inner acceleration ">
<polygon fill="white" stroke="black" points="144,-88 144,-118 291,-118 291,-88 144,-88"/>
<text text-anchor="start" x="152" y="-106" font-family="FreeSans" font-size="10.00">AR::SlowDown::calcSlowDown</text>
<text text-anchor="middle" x="217.5" y="-95" font-family="FreeSans" font-size="10.00">Factor</text>
</a>
</g>
</g>
<!-- Node1&#45;&gt;Node4 -->
<g id="edge4" class="edge"><title>Node1&#45;&gt;Node4</title>
<path fill="none" stroke="midnightblue" d="M108.329,-119.075C116.517,-117.858 125.133,-116.578 133.778,-115.293"/>
<polygon fill="midnightblue" stroke="midnightblue" points="134.541,-118.718 143.918,-113.786 133.512,-111.794 134.541,-118.718"/>
</g>
<!-- Node5 -->
<g id="node5" class="node"><title>Node5</title>
<g id="a_node5"><a xlink:href="classAR_1_1SlowDown.html#a1f153e07b27376eb86bffb7756199b6a" target="_top" xlink:title="Get original slow&#45;down factor. ">
<polygon fill="white" stroke="black" points="146,-39 146,-69 289,-69 289,-39 146,-39"/>
<text text-anchor="start" x="154" y="-57" font-family="FreeSans" font-size="10.00">AR::SlowDown::getSlowDown</text>
<text text-anchor="middle" x="217.5" y="-46" font-family="FreeSans" font-size="10.00">FactorOrigin</text>
</a>
</g>
</g>
<!-- Node1&#45;&gt;Node5 -->
<g id="edge5" class="edge"><title>Node1&#45;&gt;Node5</title>
<path fill="none" stroke="midnightblue" d="M80.5366,-111.789C98.0344,-101.728 121.975,-88.6604 144,-79 149.03,-76.794 154.321,-74.6499 159.658,-72.6049"/>
<polygon fill="midnightblue" stroke="midnightblue" points="161.112,-75.7988 169.27,-69.0391 158.677,-69.2358 161.112,-75.7988"/>
</g>
<!-- Node6 -->
<g id="node6" class="node"><title>Node6</title>
<g id="a_node6"><a xlink:href="classCOMM_1_1List.html#abcdc25c6ecaf2d352583fa75f9fa1180" target="_top" xlink:title="return last member ">
<polygon fill="white" stroke="black" points="148.5,-0.5 148.5,-19.5 286.5,-19.5 286.5,-0.5 148.5,-0.5"/>
<text text-anchor="middle" x="217.5" y="-7.5" font-family="FreeSans" font-size="10.00">COMM::List::getLastMember</text>
</a>
</g>
</g>
<!-- Node1&#45;&gt;Node6 -->
<g id="edge6" class="edge"><title>Node1&#45;&gt;Node6</title>
<path fill="none" stroke="midnightblue" d="M64.8387,-111.744C79.491,-90.2616 109.097,-51.3404 144,-30 148.344,-27.3437 153.048,-25.0325 157.9,-23.0231"/>
<polygon fill="midnightblue" stroke="midnightblue" points="159.198,-26.2749 167.359,-19.5191 156.766,-19.7108 159.198,-26.2749"/>
</g>
</g>
</svg>
