<?xml version="1.0" encoding="UTF-8" standalone="no"?>
<!DOCTYPE svg PUBLIC "-//W3C//DTD SVG 1.1//EN"
 "http://www.w3.org/Graphics/SVG/1.1/DTD/svg11.dtd">
<!-- Generated by graphviz version 2.43.0 (0)
 -->
<!-- Title: COMM::BinaryTree::printColumn Pages: 1 -->
<svg width="343pt" height="88pt"
 viewBox="0.00 0.00 343.00 88.00" xmlns="http://www.w3.org/2000/svg" xmlns:xlink="http://www.w3.org/1999/xlink">
<g id="graph0" class="graph" transform="scale(1 1) rotate(0) translate(4 84)">
<title>COMM::BinaryTree::printColumn</title>
<polygon fill="white" stroke="transparent" points="-4,4 -4,-84 339,-84 339,4 -4,4"/>
<!-- Node1 -->
<g id="node1" class="node">
<title>Node1</title>
<g id="a_node1"><a xlink:title="print data of class members using column style">
<polygon fill="#bfbfbf" stroke="black" points="180,-30 180,-49 335,-49 335,-30 180,-30"/>
<text text-anchor="middle" x="257.5" y="-37" font-family="FreeSans" font-size="10.00">COMM::BinaryTree::printColumn</text>
</a>
</g>
</g>
<!-- Node2 -->
<g id="node2" class="node">
<title>Node2</title>
<g id="a_node2"><a xlink:href="classCOMM_1_1BinaryTree.html#a9db078b74c65c44e9dec560480bb8417" target="_top" xlink:title="print binary function">
<polygon fill="white" stroke="black" points="0,-49.5 0,-79.5 144,-79.5 144,-49.5 0,-49.5"/>
<text text-anchor="start" x="8" y="-67.5" font-family="FreeSans" font-size="10.00">COMM::BinaryTree&lt; Tparticle</text>
<text text-anchor="middle" x="72" y="-56.5" font-family="FreeSans" font-size="10.00"> &gt;::printBinaryIter</text>
</a>
</g>
</g>
<!-- Node1&#45;&gt;Node2 -->
<g id="edge1" class="edge">
<title>Node1&#45;&gt;Node2</title>
<path fill="none" stroke="midnightblue" d="M176.42,-50.41C165.7,-51.87 154.77,-53.36 144.22,-54.8"/>
<polygon fill="midnightblue" stroke="midnightblue" points="177.17,-53.84 186.6,-49.02 176.22,-46.9 177.17,-53.84"/>
</g>
<!-- Node3 -->
<g id="node3" class="node">
<title>Node3</title>
<g id="a_node3"><a xlink:href="classCOMM_1_1BinaryTree.html#ac69a42632a6aa451aa787ca5277d3c1c" target="_top" xlink:title="print binary and member information">
<polygon fill="white" stroke="black" points="0,-0.5 0,-30.5 144,-30.5 144,-0.5 0,-0.5"/>
<text text-anchor="start" x="8" y="-18.5" font-family="FreeSans" font-size="10.00">COMM::BinaryTree&lt; Tparticle</text>
<text text-anchor="middle" x="72" y="-7.5" font-family="FreeSans" font-size="10.00"> &gt;::printBinaryTreeIter</text>
</a>
</g>
</g>
<!-- Node1&#45;&gt;Node3 -->
<g id="edge2" class="edge">
<title>Node1&#45;&gt;Node3</title>
<path fill="none" stroke="midnightblue" d="M173.56,-28.65C163.76,-27.37 153.82,-26.07 144.2,-24.81"/>
<polygon fill="midnightblue" stroke="midnightblue" points="173.34,-32.15 183.71,-29.98 174.25,-25.21 173.34,-32.15"/>
</g>
</g>
</svg>
