<?xml version="1.0" encoding="UTF-8" standalone="no"?>
<!DOCTYPE svg PUBLIC "-//W3C//DTD SVG 1.1//EN"
 "http://www.w3.org/Graphics/SVG/1.1/DTD/svg11.dtd">
<!-- Generated by graphviz version 2.43.0 (0)
 -->
<!-- Title: COMM::BinaryTree::copyDataIter Pages: 1 -->
<svg width="346pt" height="52pt"
 viewBox="0.00 0.00 346.00 51.50" xmlns="http://www.w3.org/2000/svg" xmlns:xlink="http://www.w3.org/1999/xlink">
<g id="graph0" class="graph" transform="scale(1 1) rotate(0) translate(4 47.5)">
<title>COMM::BinaryTree::copyDataIter</title>
<polygon fill="white" stroke="transparent" points="-4,4 -4,-47.5 342,-47.5 342,4 -4,4"/>
<!-- Node1 -->
<g id="node1" class="node">
<title>Node1</title>
<g id="a_node1"><a xlink:title="copy a binary tree to a binaryTree array iteratively">
<polygon fill="#bfbfbf" stroke="black" points="180,-6 180,-25 338,-25 338,-6 180,-6"/>
<text text-anchor="middle" x="259" y="-13" font-family="FreeSans" font-size="10.00">COMM::BinaryTree::copyDataIter</text>
</a>
</g>
</g>
<!-- Node1&#45;&gt;Node1 -->
<g id="edge1" class="edge">
<title>Node1&#45;&gt;Node1</title>
<path fill="none" stroke="midnightblue" d="M293.86,-33.39C293.35,-39.04 281.73,-43.5 259,-43.5 225.94,-43.5 216.39,-34.07 230.33,-25.26"/>
<polygon fill="midnightblue" stroke="midnightblue" points="296.51,-31.1 287.67,-25.26 290.94,-35.33 296.51,-31.1"/>
</g>
<!-- Node2 -->
<g id="node2" class="node">
<title>Node2</title>
<g id="a_node2"><a xlink:href="classCOMM_1_1BinaryTree.html#a5f1c2ffc8671b88ada31015c546c0e67" target="_top" xlink:title="collect BinaryTree data iteratively and save to a BinaryTree array">
<polygon fill="white" stroke="black" points="0,-0.5 0,-30.5 144,-30.5 144,-0.5 0,-0.5"/>
<text text-anchor="start" x="8" y="-18.5" font-family="FreeSans" font-size="10.00">COMM::BinaryTree&lt; Tparticle</text>
<text text-anchor="middle" x="72" y="-7.5" font-family="FreeSans" font-size="10.00"> &gt;::getherBinaryTreeIter</text>
</a>
</g>
</g>
<!-- Node1&#45;&gt;Node2 -->
<g id="edge2" class="edge">
<title>Node1&#45;&gt;Node2</title>
<path fill="none" stroke="midnightblue" d="M169.77,-15.5C161.18,-15.5 152.54,-15.5 144.15,-15.5"/>
<polygon fill="midnightblue" stroke="midnightblue" points="169.81,-19 179.81,-15.5 169.81,-12 169.81,-19"/>
</g>
</g>
</svg>
