<?xml version="1.0" encoding="UTF-8" standalone="no"?>
<!DOCTYPE svg PUBLIC "-//W3C//DTD SVG 1.1//EN"
 "http://www.w3.org/Graphics/SVG/1.1/DTD/svg11.dtd">
<!-- Generated by graphviz version 2.38.0 (20140413.2041)
 -->
<!-- Title: COMM::List::addMember Pages: 1 -->
<svg width="454pt" height="214pt"
 viewBox="0.00 0.00 454.00 213.53" xmlns="http://www.w3.org/2000/svg" xmlns:xlink="http://www.w3.org/1999/xlink">
<g id="graph0" class="graph" transform="scale(1 1) rotate(0) translate(4 209.534)">
<title>COMM::List::addMember</title>
<polygon fill="white" stroke="none" points="-4,4 -4,-209.534 450,-209.534 450,4 -4,4"/>
<!-- Node1 -->
<g id="node1" class="node"><title>Node1</title>
<polygon fill="#bfbfbf" stroke="black" points="0,-104 0,-123 122,-123 122,-104 0,-104"/>
<text text-anchor="middle" x="61" y="-111" font-family="FreeSans" font-size="10.00">COMM::List::addMember</text>
</g>
<!-- Node2 -->
<g id="node2" class="node"><title>Node2</title>
<g id="a_node2"><a xlink:href="classH4_1_1HermiteIntegrator.html#ab37772f7b30dbb9cc6de51bf58a20fae" target="_top" xlink:title="reserve memory for system ">
<polygon fill="white" stroke="black" points="331,-49.5 331,-79.5 446,-79.5 446,-49.5 331,-49.5"/>
<text text-anchor="start" x="339" y="-67.5" font-family="FreeSans" font-size="10.00">H4::HermiteIntegrator</text>
<text text-anchor="middle" x="388.5" y="-56.5" font-family="FreeSans" font-size="10.00">::reserveIntegratorMem</text>
</a>
</g>
</g>
<!-- Node1&#45;&gt;Node2 -->
<g id="edge1" class="edge"><title>Node1&#45;&gt;Node2</title>
<path fill="none" stroke="midnightblue" d="M77.3827,-130.737C94.8397,-148.877 125.18,-176.319 158,-187.5 215.636,-207.136 240.522,-214.695 295,-187.5 340.66,-164.707 369.677,-107.457 381.469,-79.8538"/>
<polygon fill="midnightblue" stroke="midnightblue" points="79.6858,-128.075 70.3058,-123.149 74.5666,-132.849 79.6858,-128.075"/>
</g>
<!-- Node3 -->
<g id="node3" class="node"><title>Node3</title>
<g id="a_node3"><a xlink:href="classH4_1_1HermiteIntegrator.html#aefaac6ef510ac839a678081a80e69131" target="_top" xlink:title="add groups from lists of particle index ">
<polygon fill="white" stroke="black" points="172.5,-147.5 172.5,-177.5 280.5,-177.5 280.5,-147.5 172.5,-147.5"/>
<text text-anchor="start" x="180.5" y="-165.5" font-family="FreeSans" font-size="10.00">H4::HermiteIntegrator</text>
<text text-anchor="middle" x="226.5" y="-154.5" font-family="FreeSans" font-size="10.00">::addGroups</text>
</a>
</g>
</g>
<!-- Node1&#45;&gt;Node3 -->
<g id="edge2" class="edge"><title>Node1&#45;&gt;Node3</title>
<path fill="none" stroke="midnightblue" d="M103.556,-125.954C125.395,-132.499 152.33,-140.571 175.326,-147.463"/>
<polygon fill="midnightblue" stroke="midnightblue" points="104.496,-122.582 93.9126,-123.064 102.487,-129.288 104.496,-122.582"/>
</g>
<!-- Node4 -->
<g id="node4" class="node"><title>Node4</title>
<g id="a_node4"><a xlink:href="classH4_1_1HermiteIntegrator.html#a58a59fd478331237bafbe42b0fbe9d4b" target="_top" xlink:title="break groups ">
<polygon fill="white" stroke="black" points="172.5,-98.5 172.5,-128.5 280.5,-128.5 280.5,-98.5 172.5,-98.5"/>
<text text-anchor="start" x="180.5" y="-116.5" font-family="FreeSans" font-size="10.00">H4::HermiteIntegrator</text>
<text text-anchor="middle" x="226.5" y="-105.5" font-family="FreeSans" font-size="10.00">::breakGroups</text>
</a>
</g>
</g>
<!-- Node1&#45;&gt;Node4 -->
<g id="edge3" class="edge"><title>Node1&#45;&gt;Node4</title>
<path fill="none" stroke="midnightblue" d="M132.523,-113.5C145.873,-113.5 159.631,-113.5 172.335,-113.5"/>
<polygon fill="midnightblue" stroke="midnightblue" points="132.417,-110 122.417,-113.5 132.417,-117 132.417,-110"/>
</g>
<!-- Node5 -->
<g id="node5" class="node"><title>Node5</title>
<g id="a_node5"><a xlink:href="classH4_1_1Neighbor.html#afe801875b722e5c7e4f5768732a2198e" target="_top" xlink:title="check and add neighbor of single ">
<polygon fill="white" stroke="black" points="158,-49.5 158,-79.5 295,-79.5 295,-49.5 158,-49.5"/>
<text text-anchor="start" x="166" y="-67.5" font-family="FreeSans" font-size="10.00">H4::Neighbor::checkAndAdd</text>
<text text-anchor="middle" x="226.5" y="-56.5" font-family="FreeSans" font-size="10.00">NeighborSingle</text>
</a>
</g>
</g>
<!-- Node1&#45;&gt;Node5 -->
<g id="edge4" class="edge"><title>Node1&#45;&gt;Node5</title>
<path fill="none" stroke="midnightblue" d="M103.556,-101.046C125.395,-94.5008 152.33,-86.4287 175.326,-79.537"/>
<polygon fill="midnightblue" stroke="midnightblue" points="102.487,-97.7124 93.9126,-103.936 104.496,-104.418 102.487,-97.7124"/>
</g>
<!-- Node6 -->
<g id="node6" class="node"><title>Node6</title>
<g id="a_node6"><a xlink:href="classH4_1_1Neighbor.html#a40356c84992c14e25386c81af4fce181" target="_top" xlink:title="check and add neighbor of group ">
<polygon fill="white" stroke="black" points="158,-0.5 158,-30.5 295,-30.5 295,-0.5 158,-0.5"/>
<text text-anchor="start" x="166" y="-18.5" font-family="FreeSans" font-size="10.00">H4::Neighbor::checkAndAdd</text>
<text text-anchor="middle" x="226.5" y="-7.5" font-family="FreeSans" font-size="10.00">NeighborGroup</text>
</a>
</g>
</g>
<!-- Node1&#45;&gt;Node6 -->
<g id="edge6" class="edge"><title>Node1&#45;&gt;Node6</title>
<path fill="none" stroke="midnightblue" d="M80.1404,-97.0759C98.6444,-80.981 128.72,-56.5881 158,-40.5 164.681,-36.8292 172.01,-33.4883 179.3,-30.5285"/>
<polygon fill="midnightblue" stroke="midnightblue" points="77.6749,-94.5838 72.4972,-103.827 82.3091,-99.8302 77.6749,-94.5838"/>
</g>
<!-- Node5&#45;&gt;Node2 -->
<g id="edge5" class="edge"><title>Node5&#45;&gt;Node2</title>
<path fill="none" stroke="midnightblue" d="M305.612,-64.5C314.053,-64.5 322.522,-64.5 330.643,-64.5"/>
<polygon fill="midnightblue" stroke="midnightblue" points="305.354,-61.0001 295.354,-64.5 305.354,-68.0001 305.354,-61.0001"/>
</g>
<!-- Node6&#45;&gt;Node2 -->
<g id="edge7" class="edge"><title>Node6&#45;&gt;Node2</title>
<path fill="none" stroke="midnightblue" d="M286.644,-33.6129C303.654,-38.8222 322.016,-44.4457 338.352,-49.4484"/>
<polygon fill="midnightblue" stroke="midnightblue" points="287.397,-30.1832 276.811,-30.6014 285.348,-36.8763 287.397,-30.1832"/>
</g>
</g>
</svg>
