<?xml version="1.0" encoding="UTF-8" standalone="no"?>
<!DOCTYPE svg PUBLIC "-//W3C//DTD SVG 1.1//EN"
 "http://www.w3.org/Graphics/SVG/1.1/DTD/svg11.dtd">
<!-- Generated by graphviz version 2.38.0 (20140413.2041)
 -->
<!-- Title: H4::BlockTimeStep4th::getDtMax Pages: 1 -->
<svg width="265pt" height="39pt"
 viewBox="0.00 0.00 265.00 39.00" xmlns="http://www.w3.org/2000/svg" xmlns:xlink="http://www.w3.org/1999/xlink">
<g id="graph0" class="graph" transform="scale(1 1) rotate(0) translate(4 35)">
<title>H4::BlockTimeStep4th::getDtMax</title>
<polygon fill="white" stroke="none" points="-4,4 -4,-35 261,-35 261,4 -4,4"/>
<!-- Node1 -->
<g id="node1" class="node"><title>Node1</title>
<polygon fill="#bfbfbf" stroke="black" points="0,-0.5 0,-30.5 113,-30.5 113,-0.5 0,-0.5"/>
<text text-anchor="start" x="8" y="-18.5" font-family="FreeSans" font-size="10.00">H4::BlockTimeStep4th</text>
<text text-anchor="middle" x="56.5" y="-7.5" font-family="FreeSans" font-size="10.00">::getDtMax</text>
</g>
<!-- Node2 -->
<g id="node2" class="node"><title>Node2</title>
<g id="a_node2"><a xlink:href="classH4_1_1HermiteIntegrator.html#aefaac6ef510ac839a678081a80e69131" target="_top" xlink:title="add groups from lists of particle index ">
<polygon fill="white" stroke="black" points="149,-0.5 149,-30.5 257,-30.5 257,-0.5 149,-0.5"/>
<text text-anchor="start" x="157" y="-18.5" font-family="FreeSans" font-size="10.00">H4::HermiteIntegrator</text>
<text text-anchor="middle" x="203" y="-7.5" font-family="FreeSans" font-size="10.00">::addGroups</text>
</a>
</g>
</g>
<!-- Node1&#45;&gt;Node2 -->
<g id="edge1" class="edge"><title>Node1&#45;&gt;Node2</title>
<path fill="none" stroke="midnightblue" d="M123.541,-15.5C131.952,-15.5 140.477,-15.5 148.654,-15.5"/>
<polygon fill="midnightblue" stroke="midnightblue" points="123.368,-12.0001 113.367,-15.5 123.367,-19.0001 123.368,-12.0001"/>
</g>
</g>
</svg>
