<?xml version="1.0" encoding="UTF-8" standalone="no"?>
<!DOCTYPE svg PUBLIC "-//W3C//DTD SVG 1.1//EN"
 "http://www.w3.org/Graphics/SVG/1.1/DTD/svg11.dtd">
<!-- Generated by graphviz version 2.38.0 (20140413.2041)
 -->
<!-- Title: AR::SlowDown::calcSlowDownFactor Pages: 1 -->
<svg width="349pt" height="137pt"
 viewBox="0.00 0.00 349.00 137.00" xmlns="http://www.w3.org/2000/svg" xmlns:xlink="http://www.w3.org/1999/xlink">
<g id="graph0" class="graph" transform="scale(1 1) rotate(0) translate(4 133)">
<title>AR::SlowDown::calcSlowDownFactor</title>
<polygon fill="white" stroke="none" points="-4,4 -4,-133 345,-133 345,4 -4,4"/>
<!-- Node1 -->
<g id="node1" class="node"><title>Node1</title>
<polygon fill="#bfbfbf" stroke="black" points="0,-49.5 0,-79.5 147,-79.5 147,-49.5 0,-49.5"/>
<text text-anchor="start" x="8" y="-67.5" font-family="FreeSans" font-size="10.00">AR::SlowDown::calcSlowDown</text>
<text text-anchor="middle" x="73.5" y="-56.5" font-family="FreeSans" font-size="10.00">Factor</text>
</g>
<!-- Node2 -->
<g id="node2" class="node"><title>Node2</title>
<g id="a_node2"><a xlink:href="classH4_1_1HermiteIntegrator.html#aa2e53961f55ac16a239a07471cbe6110" target="_top" xlink:title="Check break condition. ">
<polygon fill="white" stroke="black" points="208,-98.5 208,-128.5 316,-128.5 316,-98.5 208,-98.5"/>
<text text-anchor="start" x="216" y="-116.5" font-family="FreeSans" font-size="10.00">H4::HermiteIntegrator</text>
<text text-anchor="middle" x="262" y="-105.5" font-family="FreeSans" font-size="10.00">::checkBreak</text>
</a>
</g>
</g>
<!-- Node1&#45;&gt;Node2 -->
<g id="edge1" class="edge"><title>Node1&#45;&gt;Node2</title>
<path fill="none" stroke="midnightblue" d="M141.549,-82.116C163.291,-87.8285 187.102,-94.0844 207.704,-99.4973"/>
<polygon fill="midnightblue" stroke="midnightblue" points="142.285,-78.6907 131.724,-79.5346 140.506,-85.4609 142.285,-78.6907"/>
</g>
<!-- Node3 -->
<g id="node3" class="node"><title>Node3</title>
<g id="a_node3"><a xlink:href="classH4_1_1HermiteIntegrator.html#a51b5efc55abeab0975009596cd5507bf" target="_top" xlink:title="check the pair with distance below r_crit for ptcl in adr_dt_sorted_ ">
<polygon fill="white" stroke="black" points="208,-49.5 208,-79.5 316,-79.5 316,-49.5 208,-49.5"/>
<text text-anchor="start" x="216" y="-67.5" font-family="FreeSans" font-size="10.00">H4::HermiteIntegrator</text>
<text text-anchor="middle" x="262" y="-56.5" font-family="FreeSans" font-size="10.00">::checkNewGroup</text>
</a>
</g>
</g>
<!-- Node1&#45;&gt;Node3 -->
<g id="edge2" class="edge"><title>Node1&#45;&gt;Node3</title>
<path fill="none" stroke="midnightblue" d="M157.199,-64.5C174.41,-64.5 192.107,-64.5 207.904,-64.5"/>
<polygon fill="midnightblue" stroke="midnightblue" points="157.14,-61.0001 147.14,-64.5 157.14,-68.0001 157.14,-61.0001"/>
</g>
<!-- Node4 -->
<g id="node4" class="node"><title>Node4</title>
<g id="a_node4"><a xlink:href="classAR_1_1TimeTransformedSymplecticIntegrator.html#aa9bc3285b782123da733df7d123a4ad6" target="_top" xlink:title="integration for two body one step ">
<polygon fill="white" stroke="black" points="183,-0.5 183,-30.5 341,-30.5 341,-0.5 183,-0.5"/>
<text text-anchor="start" x="191" y="-18.5" font-family="FreeSans" font-size="10.00">AR::TimeTransformedSymplectic</text>
<text text-anchor="middle" x="262" y="-7.5" font-family="FreeSans" font-size="10.00">Integrator::integrateTwoOneStep</text>
</a>
</g>
</g>
<!-- Node1&#45;&gt;Node4 -->
<g id="edge3" class="edge"><title>Node1&#45;&gt;Node4</title>
<path fill="none" stroke="midnightblue" d="M141.575,-46.8771C161.979,-41.5163 184.202,-35.6775 203.885,-30.5062"/>
<polygon fill="midnightblue" stroke="midnightblue" points="140.506,-43.5391 131.724,-49.4654 142.285,-50.3093 140.506,-43.5391"/>
</g>
</g>
</svg>
