<?xml version="1.0" encoding="UTF-8" standalone="no"?>
<!DOCTYPE svg PUBLIC "-//W3C//DTD SVG 1.1//EN"
 "http://www.w3.org/Graphics/SVG/1.1/DTD/svg11.dtd">
<!-- Generated by graphviz version 2.43.0 (0)
 -->
<!-- Title: AR::Information::calcDsMinKeplerIter Pages: 1 -->
<svg width="312pt" height="63pt"
 viewBox="0.00 0.00 312.00 62.50" xmlns="http://www.w3.org/2000/svg" xmlns:xlink="http://www.w3.org/1999/xlink">
<g id="graph0" class="graph" transform="scale(1 1) rotate(0) translate(4 58.5)">
<title>AR::Information::calcDsMinKeplerIter</title>
<polygon fill="white" stroke="transparent" points="-4,4 -4,-58.5 308,-58.5 308,4 -4,4"/>
<!-- Node1 -->
<g id="node1" class="node">
<title>Node1</title>
<g id="a_node1"><a xlink:title="iteration function to calculate average kepler ds for a binary tree">
<polygon fill="#bfbfbf" stroke="black" points="170,-6 170,-36 304,-36 304,-6 170,-6"/>
<text text-anchor="start" x="178" y="-24" font-family="FreeSans" font-size="10.00">AR::Information::calcDsMin</text>
<text text-anchor="middle" x="237" y="-13" font-family="FreeSans" font-size="10.00">KeplerIter</text>
</a>
</g>
</g>
<!-- Node1&#45;&gt;Node1 -->
<g id="edge2" class="edge">
<title>Node1&#45;&gt;Node1</title>
<path fill="none" stroke="midnightblue" d="M267.21,-46.46C263.46,-51.18 253.39,-54.5 237,-54.5 210.11,-54.5 200.23,-45.56 207.37,-36.16"/>
<polygon fill="midnightblue" stroke="midnightblue" points="270.68,-45.95 266.63,-36.16 263.69,-46.34 270.68,-45.95"/>
</g>
<!-- Node2 -->
<g id="node2" class="node">
<title>Node2</title>
<g id="a_node2"><a xlink:href="classAR_1_1Information.html#a18dff8c7324c0af34c06782106486d6e" target="_top" xlink:title="calculate average kepler ds iterately for a binary tree">
<polygon fill="white" stroke="black" points="0,-0.5 0,-41.5 134,-41.5 134,-0.5 0,-0.5"/>
<text text-anchor="start" x="8" y="-29.5" font-family="FreeSans" font-size="10.00">AR::Information&lt; Tparticle,</text>
<text text-anchor="start" x="8" y="-18.5" font-family="FreeSans" font-size="10.00"> ParticleH4&lt; Tparticle &gt;</text>
<text text-anchor="middle" x="67" y="-7.5" font-family="FreeSans" font-size="10.00"> &gt;::calcDsKeplerBinaryTree</text>
</a>
</g>
</g>
<!-- Node1&#45;&gt;Node2 -->
<g id="edge1" class="edge">
<title>Node1&#45;&gt;Node2</title>
<path fill="none" stroke="midnightblue" d="M159.41,-21C150.99,-21 142.47,-21 134.19,-21"/>
<polygon fill="midnightblue" stroke="midnightblue" points="159.6,-24.5 169.6,-21 159.6,-17.5 159.6,-24.5"/>
</g>
</g>
</svg>
