<?xml version="1.0" encoding="UTF-8" standalone="no"?>
<!DOCTYPE svg PUBLIC "-//W3C//DTD SVG 1.1//EN"
 "http://www.w3.org/Graphics/SVG/1.1/DTD/svg11.dtd">
<!-- Generated by graphviz version 2.38.0 (20140413.2041)
 -->
<!-- Title: H4::HermiteIntegrator::clear Pages: 1 -->
<svg width="263pt" height="165pt"
 viewBox="0.00 0.00 263.00 164.50" xmlns="http://www.w3.org/2000/svg" xmlns:xlink="http://www.w3.org/1999/xlink">
<g id="graph0" class="graph" transform="scale(1 1) rotate(0) translate(4 160.5)">
<title>H4::HermiteIntegrator::clear</title>
<polygon fill="white" stroke="none" points="-4,4 -4,-160.5 259,-160.5 259,4 -4,4"/>
<!-- Node1 -->
<g id="node1" class="node"><title>Node1</title>
<polygon fill="#bfbfbf" stroke="black" points="0,-55 0,-85 108,-85 108,-55 0,-55"/>
<text text-anchor="start" x="8" y="-73" font-family="FreeSans" font-size="10.00">H4::HermiteIntegrator</text>
<text text-anchor="middle" x="54" y="-62" font-family="FreeSans" font-size="10.00">::clear</text>
</g>
<!-- Node2 -->
<g id="node2" class="node"><title>Node2</title>
<g id="a_node2"><a xlink:href="structH4_1_1HermiteEnergy.html#a716caf752e5366863b7b8abfbc1e269d" target="_top" xlink:title="clear function ">
<polygon fill="white" stroke="black" points="149,-126 149,-156 250,-156 250,-126 149,-126"/>
<text text-anchor="start" x="157" y="-144" font-family="FreeSans" font-size="10.00">H4::HermiteEnergy::</text>
<text text-anchor="middle" x="199.5" y="-133" font-family="FreeSans" font-size="10.00">clear</text>
</a>
</g>
</g>
<!-- Node1&#45;&gt;Node2 -->
<g id="edge1" class="edge"><title>Node1&#45;&gt;Node2</title>
<path fill="none" stroke="midnightblue" d="M82.4038,-85.1181C99.8722,-94.5936 123.077,-106.884 144,-117 147.168,-118.531 150.456,-120.08 153.777,-121.614"/>
<polygon fill="midnightblue" stroke="midnightblue" points="152.599,-124.922 163.151,-125.871 155.494,-118.549 152.599,-124.922"/>
</g>
<!-- Node3 -->
<g id="node3" class="node"><title>Node3</title>
<g id="a_node3"><a xlink:href="classCOMM_1_1ParticleGroup.html#affe5e5681cc87ff9c695059f68106c8c" target="_top" xlink:title="Clear function. ">
<polygon fill="white" stroke="black" points="144,-77 144,-107 255,-107 255,-77 144,-77"/>
<text text-anchor="start" x="152" y="-95" font-family="FreeSans" font-size="10.00">COMM::ParticleGroup</text>
<text text-anchor="middle" x="199.5" y="-84" font-family="FreeSans" font-size="10.00">::clear</text>
</a>
</g>
</g>
<!-- Node1&#45;&gt;Node3 -->
<g id="edge2" class="edge"><title>Node1&#45;&gt;Node3</title>
<path fill="none" stroke="midnightblue" d="M108.026,-78.1295C116.405,-79.4139 125.149,-80.7545 133.757,-82.0743"/>
<polygon fill="midnightblue" stroke="midnightblue" points="133.356,-85.5535 143.771,-83.6094 134.417,-78.6344 133.356,-85.5535"/>
</g>
<!-- Node4 -->
<g id="node4" class="node"><title>Node4</title>
<g id="a_node4"><a xlink:href="classCOMM_1_1List.html#aceaeddd10f8a05984f25a258a48c2620" target="_top" xlink:title="Clear function. ">
<polygon fill="white" stroke="black" points="153.5,-38.5 153.5,-57.5 245.5,-57.5 245.5,-38.5 153.5,-38.5"/>
<text text-anchor="middle" x="199.5" y="-45.5" font-family="FreeSans" font-size="10.00">COMM::List::clear</text>
</a>
</g>
</g>
<!-- Node1&#45;&gt;Node4 -->
<g id="edge3" class="edge"><title>Node1&#45;&gt;Node4</title>
<path fill="none" stroke="midnightblue" d="M108.026,-61.8705C119.512,-60.1097 131.686,-58.2433 143.255,-56.4697"/>
<polygon fill="midnightblue" stroke="midnightblue" points="143.879,-59.915 153.233,-54.9399 142.818,-52.9958 143.879,-59.915"/>
</g>
<!-- Node5 -->
<g id="node5" class="node"><title>Node5</title>
<g id="a_node5"><a xlink:href="classH4_1_1Profile.html#acddb468fc57a003b653b6d2181e0e1f0" target="_top" xlink:title="H4::Profile::clear">
<polygon fill="white" stroke="black" points="156.5,-0.5 156.5,-19.5 242.5,-19.5 242.5,-0.5 156.5,-0.5"/>
<text text-anchor="middle" x="199.5" y="-7.5" font-family="FreeSans" font-size="10.00">H4::Profile::clear</text>
</a>
</g>
</g>
<!-- Node1&#45;&gt;Node5 -->
<g id="edge4" class="edge"><title>Node1&#45;&gt;Node5</title>
<path fill="none" stroke="midnightblue" d="M85.9824,-54.8361C102.945,-46.7606 124.438,-36.8945 144,-29 149.111,-26.9375 154.541,-24.8843 159.918,-22.9315"/>
<polygon fill="midnightblue" stroke="midnightblue" points="161.204,-26.1887 169.457,-19.5446 158.862,-19.5921 161.204,-26.1887"/>
</g>
</g>
</svg>
