<?xml version="1.0" encoding="UTF-8" standalone="no"?>
<!DOCTYPE svg PUBLIC "-//W3C//DTD SVG 1.1//EN"
 "http://www.w3.org/Graphics/SVG/1.1/DTD/svg11.dtd">
<!-- Generated by graphviz version 2.38.0 (20140413.2041)
 -->
<!-- Title: AR::TimeTransformedSymplecticIntegrator::integrateOneStep Pages: 1 -->
<svg width="360pt" height="127pt"
 viewBox="0.00 0.00 360.00 126.50" xmlns="http://www.w3.org/2000/svg" xmlns:xlink="http://www.w3.org/1999/xlink">
<g id="graph0" class="graph" transform="scale(1 1) rotate(0) translate(4 122.5)">
<title>AR::TimeTransformedSymplecticIntegrator::integrateOneStep</title>
<polygon fill="white" stroke="none" points="-4,4 -4,-122.5 356,-122.5 356,4 -4,4"/>
<!-- Node1 -->
<g id="node1" class="node"><title>Node1</title>
<polygon fill="#bfbfbf" stroke="black" points="0,-39 0,-69 158,-69 158,-39 0,-39"/>
<text text-anchor="start" x="8" y="-57" font-family="FreeSans" font-size="10.00">AR::TimeTransformedSymplectic</text>
<text text-anchor="middle" x="79" y="-46" font-family="FreeSans" font-size="10.00">Integrator::integrateOneStep</text>
</g>
<!-- Node2 -->
<g id="node2" class="node"><title>Node2</title>
<g id="a_node2"><a xlink:href="classAR_1_1TimeTransformedSymplecticManager.html#a8921a86541d095de3a8685f4aad2da48" target="_top" xlink:title="check whether parameters values are correct ">
<polygon fill="white" stroke="black" points="194,-88 194,-118 352,-118 352,-88 194,-88"/>
<text text-anchor="start" x="202" y="-106" font-family="FreeSans" font-size="10.00">AR::TimeTransformedSymplectic</text>
<text text-anchor="middle" x="273" y="-95" font-family="FreeSans" font-size="10.00">Manager::checkParams</text>
</a>
</g>
</g>
<!-- Node1&#45;&gt;Node2 -->
<g id="edge1" class="edge"><title>Node1&#45;&gt;Node2</title>
<path fill="none" stroke="midnightblue" d="M138.911,-69.0346C159.276,-74.2318 182.272,-80.1006 203.349,-85.4796"/>
<polygon fill="midnightblue" stroke="midnightblue" points="202.645,-88.9122 213.2,-87.9938 204.376,-82.1296 202.645,-88.9122"/>
</g>
<!-- Node3 -->
<g id="node3" class="node"><title>Node3</title>
<g id="a_node3"><a xlink:href="classCOMM_1_1List.html#aaddc8ba775e2a6504eb393d7d0c2235b" target="_top" xlink:title="Get modified status. ">
<polygon fill="white" stroke="black" points="216.5,-39 216.5,-69 329.5,-69 329.5,-39 216.5,-39"/>
<text text-anchor="start" x="224.5" y="-57" font-family="FreeSans" font-size="10.00">COMM::List&lt; Tparticle</text>
<text text-anchor="middle" x="273" y="-46" font-family="FreeSans" font-size="10.00"> &gt;::isModified</text>
</a>
</g>
</g>
<!-- Node1&#45;&gt;Node3 -->
<g id="edge2" class="edge"><title>Node1&#45;&gt;Node3</title>
<path fill="none" stroke="midnightblue" d="M158.094,-54C174.105,-54 190.805,-54 206.326,-54"/>
<polygon fill="midnightblue" stroke="midnightblue" points="206.337,-57.5001 216.337,-54 206.337,-50.5001 206.337,-57.5001"/>
</g>
<!-- Node4 -->
<g id="node4" class="node"><title>Node4</title>
<g id="a_node4"><a xlink:href="classAR_1_1SlowDown.html#ad5c3d75646774b843eb1eefc86f10b52" target="_top" xlink:title="get real time value ">
<polygon fill="white" stroke="black" points="203.5,-0.5 203.5,-19.5 342.5,-19.5 342.5,-0.5 203.5,-0.5"/>
<text text-anchor="middle" x="273" y="-7.5" font-family="FreeSans" font-size="10.00">AR::SlowDown::getRealTime</text>
</a>
</g>
</g>
<!-- Node1&#45;&gt;Node4 -->
<g id="edge3" class="edge"><title>Node1&#45;&gt;Node4</title>
<path fill="none" stroke="midnightblue" d="M145.539,-38.9808C170.048,-33.364 197.513,-27.07 220.569,-21.7863"/>
<polygon fill="midnightblue" stroke="midnightblue" points="221.526,-25.1578 230.491,-19.5124 219.962,-18.3347 221.526,-25.1578"/>
</g>
</g>
</svg>
