<?xml version="1.0" encoding="UTF-8" standalone="no"?>
<!DOCTYPE svg PUBLIC "-//W3C//DTD SVG 1.1//EN"
 "http://www.w3.org/Graphics/SVG/1.1/DTD/svg11.dtd">
<!-- Generated by graphviz version 2.38.0 (20140413.2041)
 -->
<!-- Title: COMM::List::getSize Pages: 1 -->
<!--zoomable 1187 -->
<svg id="main" version="1.1" xmlns="http://www.w3.org/2000/svg" xmlns:xlink="http://www.w3.org/1999/xlink" xml:space="preserve" onload="init(evt)">
<style type="text/css"><![CDATA[
.edge:hover path { stroke: red; }
.edge:hover polygon { stroke: red; fill: red; }
]]></style>
<script type="text/javascript"><![CDATA[
var edges = document.getElementsByTagName('g');
if (edges && edges.length) {
  for (var i=0;i<edges.length;i++) {
    if (edges[i].id.substr(0,4)=='edge') {
      edges[i].setAttribute('class','edge');
    }
  }
}
]]></script>
        <defs>
                <circle id="rim" cx="0" cy="0" r="7"/>
                <circle id="rim2" cx="0" cy="0" r="3.5"/>
                <g id="zoomPlus">
                        <use xlink:href="#rim" fill="#404040">
                                <set attributeName="fill" to="#808080" begin="zoomplus.mouseover" end="zoomplus.mouseout"/>
                        </use>
                        <path d="M-4,0h8M0,-4v8" fill="none" stroke="white" stroke-width="1.5" pointer-events="none"/>
                </g>
                <g id="zoomMin">
                        <use xlink:href="#rim" fill="#404040">
                                <set attributeName="fill" to="#808080" begin="zoomminus.mouseover" end="zoomminus.mouseout"/>
                        </use>
                        <path d="M-4,0h8" fill="none" stroke="white" stroke-width="1.5" pointer-events="none"/>
                </g>
                <g id="dirArrow">
                        <path fill="none" stroke="white" stroke-width="1.5" d="M0,-3.0v7 M-2.5,-0.5L0,-3.0L2.5,-0.5"/>
                </g>
               <g id="resetDef">
                       <use xlink:href="#rim2" fill="#404040">
                               <set attributeName="fill" to="#808080" begin="reset.mouseover" end="reset.mouseout"/>
                       </use>
               </g>
        </defs>

<script type="text/javascript">
var viewWidth = 312;
var viewHeight = 1187;
var sectionId = 'dynsection-6';
</script>
<script xlink:href="svgpan.js"/>
<svg id="graph" class="graph">
<g id="viewport">
<title>COMM::List::getSize</title>
<polygon fill="white" stroke="none" points="-4,4 -4,-1183 308,-1183 308,4 -4,4"/>
<!-- Node1 -->
<g id="node1" class="node"><title>Node1</title>
<polygon fill="#bfbfbf" stroke="black" points="0,-590 0,-609 104,-609 104,-590 0,-590"/>
<text text-anchor="middle" x="52" y="-597" font-family="FreeSans" font-size="10.00">COMM::List::getSize</text>
</g>
<!-- Node2 -->
<g id="node2" class="node"><title>Node2</title>
<g id="a_node2"><a xlink:href="classH4_1_1HermiteIntegrator.html#ab37772f7b30dbb9cc6de51bf58a20fae" target="_top" xlink:title="reserve memory for system ">
<polygon fill="white" stroke="black" points="164.5,-1148.5 164.5,-1178.5 279.5,-1178.5 279.5,-1148.5 164.5,-1148.5"/>
<text text-anchor="start" x="172.5" y="-1166.5" font-family="FreeSans" font-size="10.00">H4::HermiteIntegrator</text>
<text text-anchor="middle" x="222" y="-1155.5" font-family="FreeSans" font-size="10.00">::reserveIntegratorMem</text>
</a>
</g>
</g>
<!-- Node1&#45;&gt;Node2 -->
<g id="edge1" class="edge"><title>Node1&#45;&gt;Node2</title>
<path fill="none" stroke="midnightblue" d="M53.4636,-619.586C55.9005,-707.776 69.9399,-1059.82 140,-1139.5 146.489,-1146.88 155.129,-1152.04 164.351,-1155.64"/>
<polygon fill="midnightblue" stroke="midnightblue" points="56.9565,-619.259 53.2015,-609.351 49.9588,-619.438 56.9565,-619.259"/>
</g>
<!-- Node3 -->
<g id="node3" class="node"><title>Node3</title>
<g id="a_node3"><a xlink:href="classH4_1_1HermiteIntegrator.html#ae588ac618961f983b7c8710b2e6a65dc" target="_top" xlink:title="Initial system array. ">
<polygon fill="white" stroke="black" points="168,-1099.5 168,-1129.5 276,-1129.5 276,-1099.5 168,-1099.5"/>
<text text-anchor="start" x="176" y="-1117.5" font-family="FreeSans" font-size="10.00">H4::HermiteIntegrator</text>
<text text-anchor="middle" x="222" y="-1106.5" font-family="FreeSans" font-size="10.00">::initialSystemSingle</text>
</a>
</g>
</g>
<!-- Node1&#45;&gt;Node3 -->
<g id="edge2" class="edge"><title>Node1&#45;&gt;Node3</title>
<path fill="none" stroke="midnightblue" d="M53.8059,-619.327C57.5618,-702.066 75.9697,-1018.81 140,-1090.5 147.328,-1098.7 157.314,-1104.16 167.773,-1107.78"/>
<polygon fill="midnightblue" stroke="midnightblue" points="57.2992,-619.095 53.3699,-609.255 50.3057,-619.397 57.2992,-619.095"/>
</g>
<!-- Node4 -->
<g id="node4" class="node"><title>Node4</title>
<g id="a_node4"><a xlink:href="classH4_1_1HermiteIntegrator.html#aefaac6ef510ac839a678081a80e69131" target="_top" xlink:title="add groups from lists of particle index ">
<polygon fill="white" stroke="black" points="168,-1050.5 168,-1080.5 276,-1080.5 276,-1050.5 168,-1050.5"/>
<text text-anchor="start" x="176" y="-1068.5" font-family="FreeSans" font-size="10.00">H4::HermiteIntegrator</text>
<text text-anchor="middle" x="222" y="-1057.5" font-family="FreeSans" font-size="10.00">::addGroups</text>
</a>
</g>
</g>
<!-- Node1&#45;&gt;Node4 -->
<g id="edge3" class="edge"><title>Node1&#45;&gt;Node4</title>
<path fill="none" stroke="midnightblue" d="M54.2276,-619.282C59.4191,-696.679 82.0323,-977.829 140,-1041.5 147.405,-1049.63 157.424,-1055.06 167.889,-1058.67"/>
<polygon fill="midnightblue" stroke="midnightblue" points="57.7027,-618.784 53.5634,-609.031 50.7174,-619.236 57.7027,-618.784"/>
</g>
<!-- Node5 -->
<g id="node5" class="node"><title>Node5</title>
<g id="a_node5"><a xlink:href="classH4_1_1HermiteIntegrator.html#a58a59fd478331237bafbe42b0fbe9d4b" target="_top" xlink:title="break groups ">
<polygon fill="white" stroke="black" points="168,-1001.5 168,-1031.5 276,-1031.5 276,-1001.5 168,-1001.5"/>
<text text-anchor="start" x="176" y="-1019.5" font-family="FreeSans" font-size="10.00">H4::HermiteIntegrator</text>
<text text-anchor="middle" x="222" y="-1008.5" font-family="FreeSans" font-size="10.00">::breakGroups</text>
</a>
</g>
</g>
<!-- Node1&#45;&gt;Node5 -->
<g id="edge4" class="edge"><title>Node1&#45;&gt;Node5</title>
<path fill="none" stroke="midnightblue" d="M54.7606,-619.351C61.5237,-691.262 88.0933,-936.816 140,-992.5 147.401,-1000.44 157.291,-1005.79 167.613,-1009.39"/>
<polygon fill="midnightblue" stroke="midnightblue" points="58.2118,-618.658 53.8143,-609.019 51.241,-619.296 58.2118,-618.658"/>
</g>
<!-- Node6 -->
<g id="node6" class="node"><title>Node6</title>
<g id="a_node6"><a xlink:href="classH4_1_1HermiteIntegrator.html#aa2e53961f55ac16a239a07471cbe6110" target="_top" xlink:title="Check break condition. ">
<polygon fill="white" stroke="black" points="168,-952.5 168,-982.5 276,-982.5 276,-952.5 168,-952.5"/>
<text text-anchor="start" x="176" y="-970.5" font-family="FreeSans" font-size="10.00">H4::HermiteIntegrator</text>
<text text-anchor="middle" x="222" y="-959.5" font-family="FreeSans" font-size="10.00">::checkBreak</text>
</a>
</g>
</g>
<!-- Node1&#45;&gt;Node6 -->
<g id="edge5" class="edge"><title>Node1&#45;&gt;Node6</title>
<path fill="none" stroke="midnightblue" d="M55.4398,-619.39C63.918,-685.397 94.1091,-895.719 140,-943.5 147.518,-951.328 157.458,-956.635 167.791,-960.226"/>
<polygon fill="midnightblue" stroke="midnightblue" points="58.8697,-618.613 54.1488,-609.128 51.9244,-619.486 58.8697,-618.613"/>
</g>
<!-- Node7 -->
<g id="node7" class="node"><title>Node7</title>
<g id="a_node7"><a xlink:href="classH4_1_1HermiteIntegrator.html#a51b5efc55abeab0975009596cd5507bf" target="_top" xlink:title="check the pair with distance below r_crit for ptcl in adr_dt_sorted_ ">
<polygon fill="white" stroke="black" points="168,-903.5 168,-933.5 276,-933.5 276,-903.5 168,-903.5"/>
<text text-anchor="start" x="176" y="-921.5" font-family="FreeSans" font-size="10.00">H4::HermiteIntegrator</text>
<text text-anchor="middle" x="222" y="-910.5" font-family="FreeSans" font-size="10.00">::checkNewGroup</text>
</a>
</g>
</g>
<!-- Node1&#45;&gt;Node7 -->
<g id="edge6" class="edge"><title>Node1&#45;&gt;Node7</title>
<path fill="none" stroke="midnightblue" d="M52.7583,-619.3C53.2292,-671.886 61.9478,-816.349 140,-894.5 147.566,-902.076 157.403,-907.282 167.602,-910.855"/>
<polygon fill="midnightblue" stroke="midnightblue" points="56.2584,-619.017 52.7665,-609.014 49.2584,-619.011 56.2584,-619.017"/>
</g>
<!-- Node8 -->
<g id="node8" class="node"><title>Node8</title>
<g id="a_node8"><a xlink:href="classH4_1_1HermiteIntegrator.html#a4681b656dd42eae01d3d85e66ac55112" target="_top" xlink:title="adjust groups ">
<polygon fill="white" stroke="black" points="168,-854.5 168,-884.5 276,-884.5 276,-854.5 168,-854.5"/>
<text text-anchor="start" x="176" y="-872.5" font-family="FreeSans" font-size="10.00">H4::HermiteIntegrator</text>
<text text-anchor="middle" x="222" y="-861.5" font-family="FreeSans" font-size="10.00">::adjustGroups</text>
</a>
</g>
</g>
<!-- Node1&#45;&gt;Node8 -->
<g id="edge7" class="edge"><title>Node1&#45;&gt;Node8</title>
<path fill="none" stroke="midnightblue" d="M54.1278,-619.385C57.8529,-665.882 73.6743,-782.529 140,-845.5 147.765,-852.872 157.687,-857.991 167.906,-861.543"/>
<polygon fill="midnightblue" stroke="midnightblue" points="57.6016,-618.884 53.418,-609.15 50.6184,-619.368 57.6016,-618.884"/>
</g>
<!-- Node9 -->
<g id="node9" class="node"><title>Node9</title>
<g id="a_node9"><a xlink:href="classH4_1_1HermiteIntegrator.html#a6e40f52b15e96a4d4e7f3cf89241e300" target="_top" xlink:title="Initial Hermite integrator. ">
<polygon fill="white" stroke="black" points="168,-805.5 168,-835.5 276,-835.5 276,-805.5 168,-805.5"/>
<text text-anchor="start" x="176" y="-823.5" font-family="FreeSans" font-size="10.00">H4::HermiteIntegrator</text>
<text text-anchor="middle" x="222" y="-812.5" font-family="FreeSans" font-size="10.00">::initialIntegration</text>
</a>
</g>
</g>
<!-- Node1&#45;&gt;Node9 -->
<g id="edge8" class="edge"><title>Node1&#45;&gt;Node9</title>
<path fill="none" stroke="midnightblue" d="M56.1195,-619.406C63.3914,-659.074 85.2063,-748.297 140,-796.5 147.929,-803.475 157.805,-808.425 167.906,-811.937"/>
<polygon fill="midnightblue" stroke="midnightblue" points="59.5438,-618.666 54.4059,-609.4 52.6442,-619.848 59.5438,-618.666"/>
</g>
<!-- Node10 -->
<g id="node10" class="node"><title>Node10</title>
<g id="a_node10"><a xlink:href="classH4_1_1HermiteIntegrator.html#a8b104c2fbf143829c88cd64c06fb1098" target="_top" xlink:title="Integrate groups. ">
<polygon fill="white" stroke="black" points="158,-756.5 158,-786.5 286,-786.5 286,-756.5 158,-756.5"/>
<text text-anchor="start" x="166" y="-774.5" font-family="FreeSans" font-size="10.00">H4::HermiteIntegrator</text>
<text text-anchor="middle" x="222" y="-763.5" font-family="FreeSans" font-size="10.00">::integrateGroupsOneStep</text>
</a>
</g>
</g>
<!-- Node1&#45;&gt;Node10 -->
<g id="edge9" class="edge"><title>Node1&#45;&gt;Node10</title>
<path fill="none" stroke="midnightblue" d="M59.151,-618.953C70.1745,-650.653 96.3167,-713.337 140,-747.5 145.314,-751.656 151.334,-755.094 157.635,-757.937"/>
<polygon fill="midnightblue" stroke="midnightblue" points="62.3598,-617.511 55.8784,-609.13 55.7187,-619.724 62.3598,-617.511"/>
</g>
<!-- Node11 -->
<g id="node11" class="node"><title>Node11</title>
<g id="a_node11"><a xlink:href="classH4_1_1HermiteIntegrator.html#aee9e179800b8e384c3c0807c22b9e6de" target="_top" xlink:title="Integration a list of particle to current time (ingore dt) ">
<polygon fill="white" stroke="black" points="168,-707.5 168,-737.5 276,-737.5 276,-707.5 168,-707.5"/>
<text text-anchor="start" x="176" y="-725.5" font-family="FreeSans" font-size="10.00">H4::HermiteIntegrator</text>
<text text-anchor="middle" x="222" y="-714.5" font-family="FreeSans" font-size="10.00">::integrateToTimeList</text>
</a>
</g>
</g>
<!-- Node1&#45;&gt;Node11 -->
<g id="edge10" class="edge"><title>Node1&#45;&gt;Node11</title>
<path fill="none" stroke="midnightblue" d="M64.3732,-617.828C79.1303,-640.113 106.94,-677.359 140,-698.5 148.402,-703.873 158.056,-708.085 167.703,-711.374"/>
<polygon fill="midnightblue" stroke="midnightblue" points="67.2277,-615.796 58.8706,-609.284 61.3426,-619.586 67.2277,-615.796"/>
</g>
<!-- Node12 -->
<g id="node12" class="node"><title>Node12</title>
<g id="a_node12"><a xlink:href="classH4_1_1HermiteIntegrator.html#ac1d71ee127f38f68e0d767edde2fc7de" target="_top" xlink:title="sort time step array and select active particles ">
<polygon fill="white" stroke="black" points="152,-658.5 152,-688.5 292,-688.5 292,-658.5 152,-658.5"/>
<text text-anchor="start" x="160" y="-676.5" font-family="FreeSans" font-size="10.00">H4::HermiteIntegrator</text>
<text text-anchor="middle" x="222" y="-665.5" font-family="FreeSans" font-size="10.00">::sortDtAndSelectActParticle</text>
</a>
</g>
</g>
<!-- Node1&#45;&gt;Node12 -->
<g id="edge11" class="edge"><title>Node1&#45;&gt;Node12</title>
<path fill="none" stroke="midnightblue" d="M75.9551,-614.676C93.0664,-625.489 117.302,-639.774 140,-649.5 147.549,-652.735 155.672,-655.703 163.756,-658.366"/>
<polygon fill="midnightblue" stroke="midnightblue" points="77.5424,-611.535 67.2368,-609.076 73.7596,-617.425 77.5424,-611.535"/>
</g>
<!-- Node13 -->
<g id="node13" class="node"><title>Node13</title>
<g id="a_node13"><a xlink:href="classH4_1_1HermiteIntegrator.html#a332dd3e31b1a67d014b8be0fb16363e2" target="_top" xlink:title="write back group members to particles ">
<polygon fill="white" stroke="black" points="157,-609.5 157,-639.5 287,-639.5 287,-609.5 157,-609.5"/>
<text text-anchor="start" x="165" y="-627.5" font-family="FreeSans" font-size="10.00">H4::HermiteIntegrator</text>
<text text-anchor="middle" x="222" y="-616.5" font-family="FreeSans" font-size="10.00">::writeBackGroupMembers</text>
</a>
</g>
</g>
<!-- Node1&#45;&gt;Node13 -->
<g id="edge12" class="edge"><title>Node1&#45;&gt;Node13</title>
<path fill="none" stroke="midnightblue" d="M114.25,-608.615C128.14,-610.682 142.929,-612.882 156.932,-614.966"/>
<polygon fill="midnightblue" stroke="midnightblue" points="114.725,-605.147 104.318,-607.137 113.694,-612.071 114.725,-605.147"/>
</g>
<!-- Node14 -->
<g id="node14" class="node"><title>Node14</title>
<g id="a_node14"><a xlink:href="classH4_1_1HermiteIntegrator.html#a410704caed145bb7191651ce059ee8c0" target="_top" xlink:title="correct Etot slowdown reference due to the groups change ">
<polygon fill="white" stroke="black" points="151.5,-560.5 151.5,-590.5 292.5,-590.5 292.5,-560.5 151.5,-560.5"/>
<text text-anchor="start" x="159.5" y="-578.5" font-family="FreeSans" font-size="10.00">H4::HermiteIntegrator</text>
<text text-anchor="middle" x="222" y="-567.5" font-family="FreeSans" font-size="10.00">::accumDESlowDownChange</text>
</a>
</g>
</g>
<!-- Node1&#45;&gt;Node14 -->
<g id="edge13" class="edge"><title>Node1&#45;&gt;Node14</title>
<path fill="none" stroke="midnightblue" d="M114.278,-590.746C126.354,-589.021 139.107,-587.199 151.432,-585.438"/>
<polygon fill="midnightblue" stroke="midnightblue" points="113.723,-587.29 104.318,-592.169 114.713,-594.219 113.723,-587.29"/>
</g>
<!-- Node15 -->
<g id="node15" class="node"><title>Node15</title>
<g id="a_node15"><a xlink:href="classH4_1_1HermiteIntegrator.html#aafda8d20755ddd59875994844de3f0c3" target="_top" xlink:title="calculate slowdown energy ">
<polygon fill="white" stroke="black" points="165.5,-511.5 165.5,-541.5 278.5,-541.5 278.5,-511.5 165.5,-511.5"/>
<text text-anchor="start" x="173.5" y="-529.5" font-family="FreeSans" font-size="10.00">H4::HermiteIntegrator</text>
<text text-anchor="middle" x="222" y="-518.5" font-family="FreeSans" font-size="10.00">::calcEnergySlowDown</text>
</a>
</g>
</g>
<!-- Node1&#45;&gt;Node15 -->
<g id="edge14" class="edge"><title>Node1&#45;&gt;Node15</title>
<path fill="none" stroke="midnightblue" d="M76.9966,-584.51C94.104,-574.264 117.896,-560.891 140,-551.5 148.533,-547.874 157.772,-544.519 166.853,-541.521"/>
<polygon fill="midnightblue" stroke="midnightblue" points="74.9614,-581.651 68.2335,-589.836 78.5969,-587.633 74.9614,-581.651"/>
</g>
<!-- Node16 -->
<g id="node16" class="node"><title>Node16</title>
<g id="a_node16"><a xlink:href="classH4_1_1HermiteIntegrator.html#a39a896c7071fba5f6e4470fd5fa8129f" target="_top" xlink:title="get N groups ">
<polygon fill="white" stroke="black" points="168,-462.5 168,-492.5 276,-492.5 276,-462.5 168,-462.5"/>
<text text-anchor="start" x="176" y="-480.5" font-family="FreeSans" font-size="10.00">H4::HermiteIntegrator</text>
<text text-anchor="middle" x="222" y="-469.5" font-family="FreeSans" font-size="10.00">::getNGroup</text>
</a>
</g>
</g>
<!-- Node1&#45;&gt;Node16 -->
<g id="edge15" class="edge"><title>Node1&#45;&gt;Node16</title>
<path fill="none" stroke="midnightblue" d="M64.4999,-581.61C79.3861,-559.844 107.328,-523.42 140,-502.5 148.428,-497.104 158.094,-492.81 167.745,-489.414"/>
<polygon fill="midnightblue" stroke="midnightblue" points="61.5736,-579.689 58.9436,-589.953 67.3998,-583.57 61.5736,-579.689"/>
</g>
<!-- Node17 -->
<g id="node17" class="node"><title>Node17</title>
<g id="a_node17"><a xlink:href="classH4_1_1HermiteIntegrator.html#ad7c643dc8b80856f2861ceb3b8b3fdcd" target="_top" xlink:title="get N single ">
<polygon fill="white" stroke="black" points="168,-413.5 168,-443.5 276,-443.5 276,-413.5 168,-413.5"/>
<text text-anchor="start" x="176" y="-431.5" font-family="FreeSans" font-size="10.00">H4::HermiteIntegrator</text>
<text text-anchor="middle" x="222" y="-420.5" font-family="FreeSans" font-size="10.00">::getNSingle</text>
</a>
</g>
</g>
<!-- Node1&#45;&gt;Node17 -->
<g id="edge16" class="edge"><title>Node1&#45;&gt;Node17</title>
<path fill="none" stroke="midnightblue" d="M59.4318,-579.91C70.7173,-548.574 97.0527,-487.273 140,-453.5 148.098,-447.132 157.824,-442.377 167.681,-438.83"/>
<polygon fill="midnightblue" stroke="midnightblue" points="56.024,-579.056 56.0651,-589.651 62.64,-581.343 56.024,-579.056"/>
</g>
<!-- Node18 -->
<g id="node18" class="node"><title>Node18</title>
<g id="a_node18"><a xlink:href="classH4_1_1HermiteIntegrator.html#ade66bdfa99fd6fb866ca64bf8abbc41b" target="_top" xlink:title="print data of class members using column style ">
<polygon fill="white" stroke="black" points="168,-364.5 168,-394.5 276,-394.5 276,-364.5 168,-364.5"/>
<text text-anchor="start" x="176" y="-382.5" font-family="FreeSans" font-size="10.00">H4::HermiteIntegrator</text>
<text text-anchor="middle" x="222" y="-371.5" font-family="FreeSans" font-size="10.00">::printColumn</text>
</a>
</g>
</g>
<!-- Node1&#45;&gt;Node18 -->
<g id="edge17" class="edge"><title>Node1&#45;&gt;Node18</title>
<path fill="none" stroke="midnightblue" d="M56.2287,-579.844C63.698,-540.666 85.8517,-452.498 140,-404.5 147.93,-397.471 157.806,-392.419 167.907,-388.786"/>
<polygon fill="midnightblue" stroke="midnightblue" points="52.7768,-579.266 54.463,-589.725 59.6676,-580.497 52.7768,-579.266"/>
</g>
<!-- Node19 -->
<g id="node19" class="node"><title>Node19</title>
<g id="a_node19"><a xlink:href="classH4_1_1HermiteIntegrator.html#ad9f08dd653c39dbaf4b71322e52bce8a" target="_top" xlink:title="print step histogram ">
<polygon fill="white" stroke="black" points="168,-315.5 168,-345.5 276,-345.5 276,-315.5 168,-315.5"/>
<text text-anchor="start" x="176" y="-333.5" font-family="FreeSans" font-size="10.00">H4::HermiteIntegrator</text>
<text text-anchor="middle" x="222" y="-322.5" font-family="FreeSans" font-size="10.00">::printStepHist</text>
</a>
</g>
</g>
<!-- Node1&#45;&gt;Node19 -->
<g id="edge18" class="edge"><title>Node1&#45;&gt;Node19</title>
<path fill="none" stroke="midnightblue" d="M54.2287,-579.823C58.1711,-533.804 74.4271,-418.303 140,-355.5 147.759,-348.069 157.679,-342.843 167.897,-339.169"/>
<polygon fill="midnightblue" stroke="midnightblue" points="50.7269,-579.718 53.4692,-589.952 57.7073,-580.241 50.7269,-579.718"/>
</g>
<!-- Node20 -->
<g id="node20" class="node"><title>Node20</title>
<g id="a_node20"><a xlink:href="classAR_1_1Information.html#ad3e1137cbc5e5cfbb00b1c73f625639a" target="_top" xlink:title="check whether parameters values are correct initialized ">
<polygon fill="white" stroke="black" points="150.5,-256 150.5,-297 293.5,-297 293.5,-256 150.5,-256"/>
<text text-anchor="start" x="158.5" y="-285" font-family="FreeSans" font-size="10.00">AR::Information&lt; Particle</text>
<text text-anchor="start" x="158.5" y="-274" font-family="FreeSans" font-size="10.00">AR&lt; Tparticle &gt;, ParticleH4</text>
<text text-anchor="middle" x="222" y="-263" font-family="FreeSans" font-size="10.00">&lt; Tparticle &gt; &gt;::checkParams</text>
</a>
</g>
</g>
<!-- Node1&#45;&gt;Node20 -->
<g id="edge19" class="edge"><title>Node1&#45;&gt;Node20</title>
<path fill="none" stroke="midnightblue" d="M53.1036,-579.763C54.4456,-527.933 65.1596,-386.456 140,-306.5 143.279,-302.997 147.004,-299.9 151.013,-297.164"/>
<polygon fill="midnightblue" stroke="midnightblue" points="49.6016,-579.863 52.9363,-589.919 56.6007,-579.978 49.6016,-579.863"/>
</g>
<!-- Node21 -->
<g id="node21" class="node"><title>Node21</title>
<g id="a_node21"><a xlink:href="classAR_1_1Information.html#a92e853c09d2b4260a0c260f478f312df" target="_top" xlink:title="get the root of binary tree ">
<polygon fill="white" stroke="black" points="140,-196 140,-237 304,-237 304,-196 140,-196"/>
<text text-anchor="start" x="148" y="-225" font-family="FreeSans" font-size="10.00">AR::Information&lt; Particle</text>
<text text-anchor="start" x="148" y="-214" font-family="FreeSans" font-size="10.00">AR&lt; Tparticle &gt;, ParticleH4</text>
<text text-anchor="middle" x="222" y="-203" font-family="FreeSans" font-size="10.00">&lt; Tparticle &gt; &gt;::getBinaryTreeRoot</text>
</a>
</g>
</g>
<!-- Node1&#45;&gt;Node21 -->
<g id="edge20" class="edge"><title>Node1&#45;&gt;Node21</title>
<path fill="none" stroke="midnightblue" d="M55.4386,-579.629C64.0089,-512.758 94.6969,-297.238 140,-246.5 143.096,-243.032 146.63,-239.965 150.451,-237.251"/>
<polygon fill="midnightblue" stroke="midnightblue" points="51.9496,-579.323 54.1747,-589.681 58.8949,-580.196 51.9496,-579.323"/>
</g>
<!-- Node22 -->
<g id="node22" class="node"><title>Node22</title>
<g id="a_node22"><a xlink:href="classAR_1_1TimeTransformedSymplecticIntegrator.html#aa655bbfc4e9f9af1ae7f7a09fc193443" target="_top" xlink:title="operator = ">
<polygon fill="white" stroke="black" points="143,-147.5 143,-177.5 301,-177.5 301,-147.5 143,-147.5"/>
<text text-anchor="start" x="151" y="-165.5" font-family="FreeSans" font-size="10.00">AR::TimeTransformedSymplectic</text>
<text text-anchor="middle" x="222" y="-154.5" font-family="FreeSans" font-size="10.00">Integrator::operator=</text>
</a>
</g>
</g>
<!-- Node1&#45;&gt;Node22 -->
<g id="edge21" class="edge"><title>Node1&#45;&gt;Node22</title>
<path fill="none" stroke="midnightblue" d="M54.5343,-579.599C60.6505,-505.303 85.6425,-245.416 140,-186.5 143.183,-183.051 146.835,-180.088 150.79,-177.546"/>
<polygon fill="midnightblue" stroke="midnightblue" points="51.0212,-579.623 53.7131,-589.87 57.999,-580.181 51.0212,-579.623"/>
</g>
<!-- Node23 -->
<g id="node23" class="node"><title>Node23</title>
<g id="a_node23"><a xlink:href="classAR_1_1TimeTransformedSymplecticIntegrator.html#a24f338caf7308ceda28fcd7f8a223165" target="_top" xlink:title="AR::TimeTransformedSymplectic\lIntegrator::integrateToTime">
<polygon fill="white" stroke="black" points="143,-98.5 143,-128.5 301,-128.5 301,-98.5 143,-98.5"/>
<text text-anchor="start" x="151" y="-116.5" font-family="FreeSans" font-size="10.00">AR::TimeTransformedSymplectic</text>
<text text-anchor="middle" x="222" y="-105.5" font-family="FreeSans" font-size="10.00">Integrator::integrateToTime</text>
</a>
</g>
</g>
<!-- Node1&#45;&gt;Node23 -->
<g id="edge22" class="edge"><title>Node1&#45;&gt;Node23</title>
<path fill="none" stroke="midnightblue" d="M54.0643,-579.904C58.7464,-500.751 80.0167,-205.665 140,-138.5 143.431,-134.658 147.438,-131.399 151.799,-128.636"/>
<polygon fill="midnightblue" stroke="midnightblue" points="50.5658,-579.78 53.4912,-589.962 57.5544,-580.178 50.5658,-579.78"/>
</g>
<!-- Node24 -->
<g id="node24" class="node"><title>Node24</title>
<g id="a_node24"><a xlink:href="classAR_1_1TimeTransformedSymplecticIntegrator.html#a73d3b8fc6bae672f8f935a8c44545730" target="_top" xlink:title="print data of class members using column style ">
<polygon fill="white" stroke="black" points="143,-49.5 143,-79.5 301,-79.5 301,-49.5 143,-49.5"/>
<text text-anchor="start" x="151" y="-67.5" font-family="FreeSans" font-size="10.00">AR::TimeTransformedSymplectic</text>
<text text-anchor="middle" x="222" y="-56.5" font-family="FreeSans" font-size="10.00">Integrator::printColumn</text>
</a>
</g>
</g>
<!-- Node1&#45;&gt;Node24 -->
<g id="edge23" class="edge"><title>Node1&#45;&gt;Node24</title>
<path fill="none" stroke="midnightblue" d="M53.6822,-579.742C56.9915,-495.188 74.0187,-164.7 140,-89.5 143.397,-85.6281 147.38,-82.3477 151.724,-79.5693"/>
<polygon fill="midnightblue" stroke="midnightblue" points="50.1825,-579.672 53.3094,-589.794 57.1777,-579.931 50.1825,-579.672"/>
</g>
<!-- Node25 -->
<g id="node25" class="node"><title>Node25</title>
<g id="a_node25"><a xlink:href="classAR_1_1TimeTransformedSymplecticIntegrator.html#a72cd3195cd03b8e4b516e8b574e6defb" target="_top" xlink:title="write class data with BINARY format ">
<polygon fill="white" stroke="black" points="143,-0.5 143,-30.5 301,-30.5 301,-0.5 143,-0.5"/>
<text text-anchor="start" x="151" y="-18.5" font-family="FreeSans" font-size="10.00">AR::TimeTransformedSymplectic</text>
<text text-anchor="middle" x="222" y="-7.5" font-family="FreeSans" font-size="10.00">Integrator::writeBinary</text>
</a>
</g>
</g>
<!-- Node1&#45;&gt;Node25 -->
<g id="edge24" class="edge"><title>Node1&#45;&gt;Node25</title>
<path fill="none" stroke="midnightblue" d="M53.3611,-579.59C55.3844,-489.855 67.9978,-123.777 140,-40.5 143.369,-36.6035 147.331,-33.3051 151.66,-30.5142"/>
<polygon fill="midnightblue" stroke="midnightblue" points="49.8586,-579.68 53.1519,-589.75 56.8571,-579.825 49.8586,-579.68"/>
</g>
</g>
</svg>
        <g id="navigator" transform="translate(0 0)" fill="#404254">
                <rect fill="#f2f5e9" fill-opacity="0.5" stroke="#606060" stroke-width=".5" x="0" y="0" width="60" height="60"/>
                <use id="zoomplus" xlink:href="#zoomPlus" x="17" y="9" onmousedown="handleZoom(evt,'in')"/>
                <use id="zoomminus" xlink:href="#zoomMin" x="42" y="9" onmousedown="handleZoom(evt,'out')"/>
                <use id="reset" xlink:href="#resetDef" x="30" y="36" onmousedown="handleReset()"/>
                <g id="arrowUp" xlink:href="#dirArrow" transform="translate(30 24)" onmousedown="handlePan(0,-1)">
                  <use xlink:href="#rim" fill="#404040">
                        <set attributeName="fill" to="#808080" begin="arrowUp.mouseover" end="arrowUp.mouseout"/>
                  </use>
                  <path fill="none" stroke="white" stroke-width="1.5" d="M0,-3.0v7 M-2.5,-0.5L0,-3.0L2.5,-0.5"/>
                </g>
                <g id="arrowRight" xlink:href="#dirArrow" transform="rotate(90) translate(36 -43)" onmousedown="handlePan(1,0)">
                  <use xlink:href="#rim" fill="#404040">
                        <set attributeName="fill" to="#808080" begin="arrowRight.mouseover" end="arrowRight.mouseout"/>
                  </use>
                  <path fill="none" stroke="white" stroke-width="1.5" d="M0,-3.0v7 M-2.5,-0.5L0,-3.0L2.5,-0.5"/>
                </g>
                <g id="arrowDown" xlink:href="#dirArrow" transform="rotate(180) translate(-30 -48)" onmousedown="handlePan(0,1)">
                  <use xlink:href="#rim" fill="#404040">
                        <set attributeName="fill" to="#808080" begin="arrowDown.mouseover" end="arrowDown.mouseout"/>
                  </use>
                  <path fill="none" stroke="white" stroke-width="1.5" d="M0,-3.0v7 M-2.5,-0.5L0,-3.0L2.5,-0.5"/>
                </g>
                <g id="arrowLeft" xlink:href="#dirArrow" transform="rotate(270) translate(-36 17)" onmousedown="handlePan(-1,0)">
                  <use xlink:href="#rim" fill="#404040">
                        <set attributeName="fill" to="#808080" begin="arrowLeft.mouseover" end="arrowLeft.mouseout"/>
                  </use>
                  <path fill="none" stroke="white" stroke-width="1.5" d="M0,-3.0v7 M-2.5,-0.5L0,-3.0L2.5,-0.5"/>
                </g>
        </g>
        <svg viewBox="0 0 15 15" width="100%" height="30px" preserveAspectRatio="xMaxYMin meet">
         <g id="arrow_out" transform="scale(0.3 0.3)">
          <a xlink:href="classCOMM_1_1List_af1c92acd831f62c52f3385a71d6403e7_icgraph_org.svg" target="_base">
           <rect id="button" ry="5" rx="5" y="6" x="6" height="38" width="38"
                fill="#f2f5e9" fill-opacity="0.5" stroke="#606060" stroke-width="1.0"/>
           <path id="arrow"
             d="M 11.500037,31.436501 C 11.940474,20.09759 22.043105,11.32322 32.158766,21.979434 L 37.068811,17.246167 C 37.068811,17.246167 37.088388,32 37.088388,32 L 22.160133,31.978069 C 22.160133,31.978069 26.997745,27.140456 26.997745,27.140456 C 18.528582,18.264221 13.291696,25.230495 11.500037,31.436501 z"
             style="fill:#404040;"/>
          </a>
         </g>
        </svg>
</svg>
