<?xml version="1.0" encoding="UTF-8" standalone="no"?>
<!DOCTYPE svg PUBLIC "-//W3C//DTD SVG 1.1//EN"
 "http://www.w3.org/Graphics/SVG/1.1/DTD/svg11.dtd">
<!-- Generated by graphviz version 2.38.0 (20140413.2041)
 -->
<!-- Title: AR::TimeTransformedSymplecticIntegrator::writeBinary Pages: 1 -->
<svg width="360pt" height="203pt"
 viewBox="0.00 0.00 360.00 203.00" xmlns="http://www.w3.org/2000/svg" xmlns:xlink="http://www.w3.org/1999/xlink">
<g id="graph0" class="graph" transform="scale(1 1) rotate(0) translate(4 199)">
<title>AR::TimeTransformedSymplecticIntegrator::writeBinary</title>
<polygon fill="white" stroke="none" points="-4,4 -4,-199 356,-199 356,4 -4,4"/>
<!-- Node1 -->
<g id="node1" class="node"><title>Node1</title>
<polygon fill="#bfbfbf" stroke="black" points="0,-77 0,-107 158,-107 158,-77 0,-77"/>
<text text-anchor="start" x="8" y="-95" font-family="FreeSans" font-size="10.00">AR::TimeTransformedSymplectic</text>
<text text-anchor="middle" x="79" y="-84" font-family="FreeSans" font-size="10.00">Integrator::writeBinary</text>
</g>
<!-- Node2 -->
<g id="node2" class="node"><title>Node2</title>
<g id="a_node2"><a xlink:href="classCOMM_1_1List.html#af1c92acd831f62c52f3385a71d6403e7" target="_top" xlink:title="get current member number ">
<polygon fill="white" stroke="black" points="221,-175.5 221,-194.5 325,-194.5 325,-175.5 221,-175.5"/>
<text text-anchor="middle" x="273" y="-182.5" font-family="FreeSans" font-size="10.00">COMM::List::getSize</text>
</a>
</g>
</g>
<!-- Node1&#45;&gt;Node2 -->
<g id="edge1" class="edge"><title>Node1&#45;&gt;Node2</title>
<path fill="none" stroke="midnightblue" d="M99.0278,-107.254C120.779,-123.974 158.036,-150.482 194,-166 199.795,-168.5 205.98,-170.711 212.236,-172.655"/>
<polygon fill="midnightblue" stroke="midnightblue" points="211.501,-176.086 222.08,-175.496 213.442,-169.36 211.501,-176.086"/>
</g>
<!-- Node3 -->
<g id="node3" class="node"><title>Node3</title>
<g id="a_node3"><a xlink:href="classAR_1_1TimeTransformedSymplecticManager.html#ab360e8472572d3df9e5dcc5dcfa2a548" target="_top" xlink:title="write class data with BINARY format ">
<polygon fill="white" stroke="black" points="194,-126 194,-156 352,-156 352,-126 194,-126"/>
<text text-anchor="start" x="202" y="-144" font-family="FreeSans" font-size="10.00">AR::TimeTransformedSymplectic</text>
<text text-anchor="middle" x="273" y="-133" font-family="FreeSans" font-size="10.00">Manager::writeBinary</text>
</a>
</g>
</g>
<!-- Node1&#45;&gt;Node3 -->
<g id="edge2" class="edge"><title>Node1&#45;&gt;Node3</title>
<path fill="none" stroke="midnightblue" d="M138.911,-107.035C159.276,-112.232 182.272,-118.101 203.349,-123.48"/>
<polygon fill="midnightblue" stroke="midnightblue" points="202.645,-126.912 213.2,-125.994 204.376,-120.13 202.645,-126.912"/>
</g>
<!-- Node4 -->
<g id="node4" class="node"><title>Node4</title>
<g id="a_node4"><a xlink:href="classCOMM_1_1ParticleGroup.html#a9841046fae8fbbd01ddfa4c549aaa23d" target="_top" xlink:title="write particle data to files (notice original address is lost) ">
<polygon fill="white" stroke="black" points="217.5,-77 217.5,-107 328.5,-107 328.5,-77 217.5,-77"/>
<text text-anchor="start" x="225.5" y="-95" font-family="FreeSans" font-size="10.00">COMM::ParticleGroup</text>
<text text-anchor="middle" x="273" y="-84" font-family="FreeSans" font-size="10.00">::writeBinary</text>
</a>
</g>
</g>
<!-- Node1&#45;&gt;Node4 -->
<g id="edge3" class="edge"><title>Node1&#45;&gt;Node4</title>
<path fill="none" stroke="midnightblue" d="M158.094,-92C174.446,-92 191.516,-92 207.315,-92"/>
<polygon fill="midnightblue" stroke="midnightblue" points="207.494,-95.5001 217.494,-92 207.494,-88.5001 207.494,-95.5001"/>
</g>
<!-- Node5 -->
<g id="node5" class="node"><title>Node5</title>
<g id="a_node5"><a xlink:href="classAR_1_1SlowDown.html#a3ba67fc16c6ca3c9e240350c43a52fd2" target="_top" xlink:title="write class data with BINARY format ">
<polygon fill="white" stroke="black" points="207.5,-38.5 207.5,-57.5 338.5,-57.5 338.5,-38.5 207.5,-38.5"/>
<text text-anchor="middle" x="273" y="-45.5" font-family="FreeSans" font-size="10.00">AR::SlowDown::writeBinary</text>
</a>
</g>
</g>
<!-- Node1&#45;&gt;Node5 -->
<g id="edge4" class="edge"><title>Node1&#45;&gt;Node5</title>
<path fill="none" stroke="midnightblue" d="M145.539,-76.9808C170.048,-71.364 197.513,-65.07 220.569,-59.7863"/>
<polygon fill="midnightblue" stroke="midnightblue" points="221.526,-63.1578 230.491,-57.5124 219.962,-56.3347 221.526,-63.1578"/>
</g>
<!-- Node6 -->
<g id="node6" class="node"><title>Node6</title>
<g id="a_node6"><a xlink:href="classAR_1_1Profile.html#ae3afe50f02c55bb640ec60569d9a359a" target="_top" xlink:title="write class data with BINARY format ">
<polygon fill="white" stroke="black" points="216.5,-0.5 216.5,-19.5 329.5,-19.5 329.5,-0.5 216.5,-0.5"/>
<text text-anchor="middle" x="273" y="-7.5" font-family="FreeSans" font-size="10.00">AR::Profile::writeBinary</text>
</a>
</g>
</g>
<!-- Node1&#45;&gt;Node6 -->
<g id="edge5" class="edge"><title>Node1&#45;&gt;Node6</title>
<path fill="none" stroke="midnightblue" d="M103.121,-76.81C125.541,-62.6732 160.925,-41.9009 194,-29 200.369,-26.5159 207.16,-24.2862 213.979,-22.3047"/>
<polygon fill="midnightblue" stroke="midnightblue" points="215.22,-25.5937 223.942,-19.5783 213.372,-18.842 215.22,-25.5937"/>
</g>
</g>
</svg>
