<?xml version="1.0" encoding="UTF-8" standalone="no"?>
<!DOCTYPE svg PUBLIC "-//W3C//DTD SVG 1.1//EN"
 "http://www.w3.org/Graphics/SVG/1.1/DTD/svg11.dtd">
<!-- Generated by graphviz version 2.43.0 (0)
 -->
<!-- Title: H4::BlockTimeStep4th::calcNextDtLimit Pages: 1 -->
<svg width="297pt" height="88pt"
 viewBox="0.00 0.00 297.00 88.00" xmlns="http://www.w3.org/2000/svg" xmlns:xlink="http://www.w3.org/1999/xlink">
<g id="graph0" class="graph" transform="scale(1 1) rotate(0) translate(4 84)">
<title>H4::BlockTimeStep4th::calcNextDtLimit</title>
<polygon fill="white" stroke="transparent" points="-4,4 -4,-84 293,-84 293,4 -4,4"/>
<!-- Node1 -->
<g id="node1" class="node">
<title>Node1</title>
<g id="a_node1"><a xlink:title="calculate the maximum time step limit for next block step based on the input (current) time">
<polygon fill="#bfbfbf" stroke="black" points="175,-24.5 175,-54.5 289,-54.5 289,-24.5 175,-24.5"/>
<text text-anchor="start" x="183" y="-42.5" font-family="FreeSans" font-size="10.00">H4::BlockTimeStep4th</text>
<text text-anchor="middle" x="232" y="-31.5" font-family="FreeSans" font-size="10.00">::calcNextDtLimit</text>
</a>
</g>
</g>
<!-- Node2 -->
<g id="node2" class="node">
<title>Node2</title>
<g id="a_node2"><a xlink:href="classH4_1_1HermiteIntegrator.html#a6e40f52b15e96a4d4e7f3cf89241e300" target="_top" xlink:title="Initial Hermite integrator.">
<polygon fill="white" stroke="black" points="14.5,-49.5 14.5,-79.5 124.5,-79.5 124.5,-49.5 14.5,-49.5"/>
<text text-anchor="start" x="22.5" y="-67.5" font-family="FreeSans" font-size="10.00">H4::HermiteIntegrator</text>
<text text-anchor="middle" x="69.5" y="-56.5" font-family="FreeSans" font-size="10.00">::initialIntegration</text>
</a>
</g>
</g>
<!-- Node1&#45;&gt;Node2 -->
<g id="edge1" class="edge">
<title>Node1&#45;&gt;Node2</title>
<path fill="none" stroke="midnightblue" d="M164.79,-49.81C151.46,-51.89 137.58,-54.05 124.71,-56.06"/>
<polygon fill="midnightblue" stroke="midnightblue" points="165.52,-53.24 174.86,-48.24 164.45,-46.32 165.52,-53.24"/>
</g>
<!-- Node3 -->
<g id="node3" class="node">
<title>Node3</title>
<g id="a_node3"><a xlink:href="classH4_1_1HermiteIntegrator.html#a1aaef2826d6bb2c6cc4cafef39fbfaca" target="_top" xlink:title="Integration single active particles and update steps.">
<polygon fill="white" stroke="black" points="0,-0.5 0,-30.5 139,-30.5 139,-0.5 0,-0.5"/>
<text text-anchor="start" x="8" y="-18.5" font-family="FreeSans" font-size="10.00">H4::HermiteIntegrator</text>
<text text-anchor="middle" x="69.5" y="-7.5" font-family="FreeSans" font-size="10.00">::integrateSingleOneStepAct</text>
</a>
</g>
</g>
<!-- Node1&#45;&gt;Node3 -->
<g id="edge2" class="edge">
<title>Node1&#45;&gt;Node3</title>
<path fill="none" stroke="midnightblue" d="M164.95,-29.62C156.4,-28.34 147.62,-27.03 139.03,-25.75"/>
<polygon fill="midnightblue" stroke="midnightblue" points="164.46,-33.09 174.86,-31.11 165.49,-26.17 164.46,-33.09"/>
</g>
</g>
</svg>
