<?xml version="1.0" encoding="UTF-8" standalone="no"?>
<!DOCTYPE svg PUBLIC "-//W3C//DTD SVG 1.1//EN"
 "http://www.w3.org/Graphics/SVG/1.1/DTD/svg11.dtd">
<!-- Generated by graphviz version 2.38.0 (20140413.2041)
 -->
<!-- Title: H4::Profile::clear Pages: 1 -->
<svg width="238pt" height="78pt"
 viewBox="0.00 0.00 238.00 77.50" xmlns="http://www.w3.org/2000/svg" xmlns:xlink="http://www.w3.org/1999/xlink">
<g id="graph0" class="graph" transform="scale(1 1) rotate(0) translate(4 73.5)">
<title>H4::Profile::clear</title>
<polygon fill="white" stroke="none" points="-4,4 -4,-73.5 234,-73.5 234,4 -4,4"/>
<!-- Node1 -->
<g id="node1" class="node"><title>Node1</title>
<polygon fill="#bfbfbf" stroke="black" points="0,-22.5 0,-41.5 86,-41.5 86,-22.5 0,-22.5"/>
<text text-anchor="middle" x="43" y="-29.5" font-family="FreeSans" font-size="10.00">H4::Profile::clear</text>
</g>
<!-- Node2 -->
<g id="node2" class="node"><title>Node2</title>
<g id="a_node2"><a xlink:href="classH4_1_1HermiteIntegrator.html#a7729add39ba30b96c19aa6337dd38293" target="_top" xlink:title="clear function ">
<polygon fill="white" stroke="black" points="122,-39 122,-69 230,-69 230,-39 122,-39"/>
<text text-anchor="start" x="130" y="-57" font-family="FreeSans" font-size="10.00">H4::HermiteIntegrator</text>
<text text-anchor="middle" x="176" y="-46" font-family="FreeSans" font-size="10.00">::clear</text>
</a>
</g>
</g>
<!-- Node1&#45;&gt;Node2 -->
<g id="edge1" class="edge"><title>Node1&#45;&gt;Node2</title>
<path fill="none" stroke="midnightblue" d="M96.2601,-40.7765C104.688,-42.192 113.422,-43.6587 121.871,-45.0775"/>
<polygon fill="midnightblue" stroke="midnightblue" points="96.6119,-37.2866 86.1703,-39.082 95.4525,-44.19 96.6119,-37.2866"/>
</g>
<!-- Node3 -->
<g id="node3" class="node"><title>Node3</title>
<g id="a_node3"><a xlink:href="classH4_1_1Profile.html#a170a156f69c2ed5dad9fbd0248806023" target="_top" xlink:title="H4::Profile::Profile">
<polygon fill="white" stroke="black" points="130,-0.5 130,-19.5 222,-19.5 222,-0.5 130,-0.5"/>
<text text-anchor="middle" x="176" y="-7.5" font-family="FreeSans" font-size="10.00">H4::Profile::Profile</text>
</a>
</g>
</g>
<!-- Node1&#45;&gt;Node3 -->
<g id="edge2" class="edge"><title>Node1&#45;&gt;Node3</title>
<path fill="none" stroke="midnightblue" d="M96.1796,-23.237C107.284,-21.3721 118.922,-19.4177 129.742,-17.6005"/>
<polygon fill="midnightblue" stroke="midnightblue" points="95.4525,-19.81 86.1703,-24.918 96.6119,-26.7133 95.4525,-19.81"/>
</g>
</g>
</svg>
