<?xml version="1.0" encoding="UTF-8" standalone="no"?>
<!DOCTYPE svg PUBLIC "-//W3C//DTD SVG 1.1//EN"
 "http://www.w3.org/Graphics/SVG/1.1/DTD/svg11.dtd">
<!-- Generated by graphviz version 2.38.0 (20140413.2041)
 -->
<!-- Title: H4::ARInformation::clear Pages: 1 -->
<svg width="278pt" height="88pt"
 viewBox="0.00 0.00 278.00 88.00" xmlns="http://www.w3.org/2000/svg" xmlns:xlink="http://www.w3.org/1999/xlink">
<g id="graph0" class="graph" transform="scale(1 1) rotate(0) translate(4 84)">
<title>H4::ARInformation::clear</title>
<polygon fill="white" stroke="none" points="-4,4 -4,-84 274,-84 274,4 -4,4"/>
<!-- Node1 -->
<g id="node1" class="node"><title>Node1</title>
<polygon fill="#bfbfbf" stroke="black" points="0,-19 0,-49 100,-49 100,-19 0,-19"/>
<text text-anchor="start" x="8" y="-37" font-family="FreeSans" font-size="10.00">H4::ARInformation::</text>
<text text-anchor="middle" x="50" y="-26" font-family="FreeSans" font-size="10.00">clear</text>
</g>
<!-- Node2 -->
<g id="node2" class="node"><title>Node2</title>
<g id="a_node2"><a xlink:href="classAR_1_1Information.html#ab8e8198bc43281784e7f84e988ecf7bc" target="_top" xlink:title="clear function ">
<polygon fill="white" stroke="black" points="136,-38.5 136,-79.5 270,-79.5 270,-38.5 136,-38.5"/>
<text text-anchor="start" x="144" y="-67.5" font-family="FreeSans" font-size="10.00">AR::Information&lt; Particle</text>
<text text-anchor="start" x="144" y="-56.5" font-family="FreeSans" font-size="10.00">AR&lt; Tparticle &gt;, ParticleH4</text>
<text text-anchor="middle" x="203" y="-45.5" font-family="FreeSans" font-size="10.00">&lt; Tparticle &gt; &gt;::clear</text>
</a>
</g>
</g>
<!-- Node1&#45;&gt;Node2 -->
<g id="edge1" class="edge"><title>Node1&#45;&gt;Node2</title>
<path fill="none" stroke="midnightblue" d="M100.025,-42.1168C108.347,-43.4945 117.16,-44.9536 125.982,-46.4143"/>
<polygon fill="midnightblue" stroke="midnightblue" points="125.484,-49.8793 135.921,-48.0598 126.627,-42.9733 125.484,-49.8793"/>
</g>
<!-- Node3 -->
<g id="node3" class="node"><title>Node3</title>
<g id="a_node3"><a xlink:href="classCOMM_1_1List.html#aceaeddd10f8a05984f25a258a48c2620" target="_top" xlink:title="Clear function. ">
<polygon fill="white" stroke="black" points="157,-0.5 157,-19.5 249,-19.5 249,-0.5 157,-0.5"/>
<text text-anchor="middle" x="203" y="-7.5" font-family="FreeSans" font-size="10.00">COMM::List::clear</text>
</a>
</g>
</g>
<!-- Node1&#45;&gt;Node3 -->
<g id="edge2" class="edge"><title>Node1&#45;&gt;Node3</title>
<path fill="none" stroke="midnightblue" d="M100.025,-26.2079C115.001,-23.8276 131.569,-21.1944 146.918,-18.7547"/>
<polygon fill="midnightblue" stroke="midnightblue" points="147.474,-22.2104 156.801,-17.184 146.375,-15.2972 147.474,-22.2104"/>
</g>
</g>
</svg>
