<?xml version="1.0" encoding="UTF-8" standalone="no"?>
<!DOCTYPE svg PUBLIC "-//W3C//DTD SVG 1.1//EN"
 "http://www.w3.org/Graphics/SVG/1.1/DTD/svg11.dtd">
<!-- Generated by graphviz version 2.38.0 (20140413.2041)
 -->
<!-- Title: COMM::Binary::particleToOrbit Pages: 1 -->
<svg width="472pt" height="39pt"
 viewBox="0.00 0.00 472.00 39.00" xmlns="http://www.w3.org/2000/svg" xmlns:xlink="http://www.w3.org/1999/xlink">
<g id="graph0" class="graph" transform="scale(1 1) rotate(0) translate(4 35)">
<title>COMM::Binary::particleToOrbit</title>
<polygon fill="white" stroke="none" points="-4,4 -4,-35 468,-35 468,4 -4,4"/>
<!-- Node1 -->
<g id="node1" class="node"><title>Node1</title>
<polygon fill="#bfbfbf" stroke="black" points="0,-0.5 0,-30.5 126,-30.5 126,-0.5 0,-0.5"/>
<text text-anchor="start" x="8" y="-18.5" font-family="FreeSans" font-size="10.00">COMM::Binary::particleTo</text>
<text text-anchor="middle" x="63" y="-7.5" font-family="FreeSans" font-size="10.00">Orbit</text>
</g>
<!-- Node2 -->
<g id="node2" class="node"><title>Node2</title>
<g id="a_node2"><a xlink:href="classCOMM_1_1Binary.html#af470a21c7b0c16d1802643d3d1b9154f" target="_top" xlink:title="calculate kepler Orbit from particles ">
<polygon fill="white" stroke="black" points="162,-6 162,-25 284,-25 284,-6 162,-6"/>
<text text-anchor="middle" x="223" y="-13" font-family="FreeSans" font-size="10.00">COMM::Binary::calcOrbit</text>
</a>
</g>
</g>
<!-- Node1&#45;&gt;Node2 -->
<g id="edge1" class="edge"><title>Node1&#45;&gt;Node2</title>
<path fill="none" stroke="midnightblue" d="M136.644,-15.5C145.065,-15.5 153.584,-15.5 161.813,-15.5"/>
<polygon fill="midnightblue" stroke="midnightblue" points="136.446,-12.0001 126.446,-15.5 136.446,-19.0001 136.446,-12.0001"/>
</g>
<!-- Node3 -->
<g id="node3" class="node"><title>Node3</title>
<g id="a_node3"><a xlink:href="classCOMM_1_1BinaryTree.html#a7baa2d25f5695ce8271ee24c80b350db" target="_top" xlink:title="calculate Kepler orbit from members ">
<polygon fill="white" stroke="black" points="320,-0.5 320,-30.5 464,-30.5 464,-0.5 320,-0.5"/>
<text text-anchor="start" x="328" y="-18.5" font-family="FreeSans" font-size="10.00">COMM::BinaryTree&lt; Tparticle</text>
<text text-anchor="middle" x="392" y="-7.5" font-family="FreeSans" font-size="10.00"> &gt;::calcOrbit</text>
</a>
</g>
</g>
<!-- Node2&#45;&gt;Node3 -->
<g id="edge2" class="edge"><title>Node2&#45;&gt;Node3</title>
<path fill="none" stroke="midnightblue" d="M294.476,-15.5C302.919,-15.5 311.545,-15.5 319.995,-15.5"/>
<polygon fill="midnightblue" stroke="midnightblue" points="294.291,-12.0001 284.291,-15.5 294.291,-19.0001 294.291,-12.0001"/>
</g>
</g>
</svg>
