<?xml version="1.0" encoding="UTF-8" standalone="no"?>
<!DOCTYPE svg PUBLIC "-//W3C//DTD SVG 1.1//EN"
 "http://www.w3.org/Graphics/SVG/1.1/DTD/svg11.dtd">
<!-- Generated by graphviz version 2.38.0 (20140413.2041)
 -->
<!-- Title: H4::HermiteManager::checkParams Pages: 1 -->
<svg width="287pt" height="431pt"
 viewBox="0.00 0.00 287.00 431.00" xmlns="http://www.w3.org/2000/svg" xmlns:xlink="http://www.w3.org/1999/xlink">
<g id="graph0" class="graph" transform="scale(1 1) rotate(0) translate(4 427)">
<title>H4::HermiteManager::checkParams</title>
<polygon fill="white" stroke="none" points="-4,4 -4,-427 283,-427 283,4 -4,4"/>
<!-- Node1 -->
<g id="node1" class="node"><title>Node1</title>
<polygon fill="#bfbfbf" stroke="black" points="0,-196.5 0,-226.5 104,-226.5 104,-196.5 0,-196.5"/>
<text text-anchor="start" x="8" y="-214.5" font-family="FreeSans" font-size="10.00">H4::HermiteManager</text>
<text text-anchor="middle" x="52" y="-203.5" font-family="FreeSans" font-size="10.00">::checkParams</text>
</g>
<!-- Node2 -->
<g id="node2" class="node"><title>Node2</title>
<g id="a_node2"><a xlink:href="classH4_1_1HermiteIntegrator.html#a5c92334f487ce31326f4469035b24ba7" target="_top" xlink:title="check whether parameters values are correct ">
<polygon fill="white" stroke="black" points="155.5,-392.5 155.5,-422.5 263.5,-422.5 263.5,-392.5 155.5,-392.5"/>
<text text-anchor="start" x="163.5" y="-410.5" font-family="FreeSans" font-size="10.00">H4::HermiteIntegrator</text>
<text text-anchor="middle" x="209.5" y="-399.5" font-family="FreeSans" font-size="10.00">::checkParams</text>
</a>
</g>
</g>
<!-- Node1&#45;&gt;Node2 -->
<g id="edge1" class="edge"><title>Node1&#45;&gt;Node2</title>
<path fill="none" stroke="midnightblue" d="M59.1986,-236.503C69.6655,-273.681 94.3088,-343.446 140,-383.5 144.548,-387.487 149.799,-390.823 155.329,-393.611"/>
<polygon fill="midnightblue" stroke="midnightblue" points="62.4864,-235.251 56.5068,-226.505 55.7271,-237.071 62.4864,-235.251"/>
</g>
<!-- Node3 -->
<g id="node3" class="node"><title>Node3</title>
<g id="a_node3"><a xlink:href="classH4_1_1HermiteIntegrator.html#ae588ac618961f983b7c8710b2e6a65dc" target="_top" xlink:title="Initial system array. ">
<polygon fill="white" stroke="black" points="155.5,-343.5 155.5,-373.5 263.5,-373.5 263.5,-343.5 155.5,-343.5"/>
<text text-anchor="start" x="163.5" y="-361.5" font-family="FreeSans" font-size="10.00">H4::HermiteIntegrator</text>
<text text-anchor="middle" x="209.5" y="-350.5" font-family="FreeSans" font-size="10.00">::initialSystemSingle</text>
</a>
</g>
</g>
<!-- Node1&#45;&gt;Node3 -->
<g id="edge2" class="edge"><title>Node1&#45;&gt;Node3</title>
<path fill="none" stroke="midnightblue" d="M64.2925,-235.647C78.3568,-263.248 104.879,-308.017 140,-334.5 144.628,-337.99 149.805,-341.001 155.183,-343.591"/>
<polygon fill="midnightblue" stroke="midnightblue" points="67.4163,-234.068 59.8436,-226.658 61.1426,-237.173 67.4163,-234.068"/>
</g>
<!-- Node4 -->
<g id="node4" class="node"><title>Node4</title>
<g id="a_node4"><a xlink:href="classH4_1_1HermiteIntegrator.html#aefaac6ef510ac839a678081a80e69131" target="_top" xlink:title="add groups from lists of particle index ">
<polygon fill="white" stroke="black" points="155.5,-294.5 155.5,-324.5 263.5,-324.5 263.5,-294.5 155.5,-294.5"/>
<text text-anchor="start" x="163.5" y="-312.5" font-family="FreeSans" font-size="10.00">H4::HermiteIntegrator</text>
<text text-anchor="middle" x="209.5" y="-301.5" font-family="FreeSans" font-size="10.00">::addGroups</text>
</a>
</g>
</g>
<!-- Node1&#45;&gt;Node4 -->
<g id="edge3" class="edge"><title>Node1&#45;&gt;Node4</title>
<path fill="none" stroke="midnightblue" d="M74.9339,-234.187C91.5497,-250.312 115.612,-271.507 140,-285.5 145.793,-288.824 152.123,-291.8 158.52,-294.43"/>
<polygon fill="midnightblue" stroke="midnightblue" points="76.9746,-231.282 67.4066,-226.732 72.0487,-236.255 76.9746,-231.282"/>
</g>
<!-- Node5 -->
<g id="node5" class="node"><title>Node5</title>
<g id="a_node5"><a xlink:href="classH4_1_1HermiteIntegrator.html#a58a59fd478331237bafbe42b0fbe9d4b" target="_top" xlink:title="break groups ">
<polygon fill="white" stroke="black" points="155.5,-245.5 155.5,-275.5 263.5,-275.5 263.5,-245.5 155.5,-245.5"/>
<text text-anchor="start" x="163.5" y="-263.5" font-family="FreeSans" font-size="10.00">H4::HermiteIntegrator</text>
<text text-anchor="middle" x="209.5" y="-252.5" font-family="FreeSans" font-size="10.00">::breakGroups</text>
</a>
</g>
</g>
<!-- Node1&#45;&gt;Node5 -->
<g id="edge4" class="edge"><title>Node1&#45;&gt;Node5</title>
<path fill="none" stroke="midnightblue" d="M110.481,-229.613C127.012,-234.822 144.858,-240.446 160.734,-245.448"/>
<polygon fill="midnightblue" stroke="midnightblue" points="111.514,-226.269 100.924,-226.601 109.41,-232.945 111.514,-226.269"/>
</g>
<!-- Node6 -->
<g id="node6" class="node"><title>Node6</title>
<g id="a_node6"><a xlink:href="classH4_1_1HermiteIntegrator.html#a4681b656dd42eae01d3d85e66ac55112" target="_top" xlink:title="adjust groups ">
<polygon fill="white" stroke="black" points="155.5,-196.5 155.5,-226.5 263.5,-226.5 263.5,-196.5 155.5,-196.5"/>
<text text-anchor="start" x="163.5" y="-214.5" font-family="FreeSans" font-size="10.00">H4::HermiteIntegrator</text>
<text text-anchor="middle" x="209.5" y="-203.5" font-family="FreeSans" font-size="10.00">::adjustGroups</text>
</a>
</g>
</g>
<!-- Node1&#45;&gt;Node6 -->
<g id="edge5" class="edge"><title>Node1&#45;&gt;Node6</title>
<path fill="none" stroke="midnightblue" d="M114.511,-211.5C128.014,-211.5 142.2,-211.5 155.342,-211.5"/>
<polygon fill="midnightblue" stroke="midnightblue" points="114.348,-208 104.347,-211.5 114.347,-215 114.348,-208"/>
</g>
<!-- Node7 -->
<g id="node7" class="node"><title>Node7</title>
<g id="a_node7"><a xlink:href="classH4_1_1HermiteIntegrator.html#a6e40f52b15e96a4d4e7f3cf89241e300" target="_top" xlink:title="Initial Hermite integrator. ">
<polygon fill="white" stroke="black" points="155.5,-147.5 155.5,-177.5 263.5,-177.5 263.5,-147.5 155.5,-147.5"/>
<text text-anchor="start" x="163.5" y="-165.5" font-family="FreeSans" font-size="10.00">H4::HermiteIntegrator</text>
<text text-anchor="middle" x="209.5" y="-154.5" font-family="FreeSans" font-size="10.00">::initialIntegration</text>
</a>
</g>
</g>
<!-- Node1&#45;&gt;Node7 -->
<g id="edge6" class="edge"><title>Node1&#45;&gt;Node7</title>
<path fill="none" stroke="midnightblue" d="M110.481,-193.387C127.012,-188.178 144.858,-182.554 160.734,-177.552"/>
<polygon fill="midnightblue" stroke="midnightblue" points="109.41,-190.055 100.924,-196.399 111.514,-196.731 109.41,-190.055"/>
</g>
<!-- Node8 -->
<g id="node8" class="node"><title>Node8</title>
<g id="a_node8"><a xlink:href="classH4_1_1HermiteIntegrator.html#a8b104c2fbf143829c88cd64c06fb1098" target="_top" xlink:title="Integrate groups. ">
<polygon fill="white" stroke="black" points="145.5,-98.5 145.5,-128.5 273.5,-128.5 273.5,-98.5 145.5,-98.5"/>
<text text-anchor="start" x="153.5" y="-116.5" font-family="FreeSans" font-size="10.00">H4::HermiteIntegrator</text>
<text text-anchor="middle" x="209.5" y="-105.5" font-family="FreeSans" font-size="10.00">::integrateGroupsOneStep</text>
</a>
</g>
</g>
<!-- Node1&#45;&gt;Node8 -->
<g id="edge7" class="edge"><title>Node1&#45;&gt;Node8</title>
<path fill="none" stroke="midnightblue" d="M75.3461,-188.942C92.0033,-173.125 115.94,-152.405 140,-138.5 146.357,-134.826 153.35,-131.533 160.364,-128.638"/>
<polygon fill="midnightblue" stroke="midnightblue" points="72.5356,-186.791 67.785,-196.261 77.4043,-191.821 72.5356,-186.791"/>
</g>
<!-- Node9 -->
<g id="node9" class="node"><title>Node9</title>
<g id="a_node9"><a xlink:href="classH4_1_1HermiteIntegrator.html#a1aaef2826d6bb2c6cc4cafef39fbfaca" target="_top" xlink:title="Integration single active particles and update steps. ">
<polygon fill="white" stroke="black" points="140,-49.5 140,-79.5 279,-79.5 279,-49.5 140,-49.5"/>
<text text-anchor="start" x="148" y="-67.5" font-family="FreeSans" font-size="10.00">H4::HermiteIntegrator</text>
<text text-anchor="middle" x="209.5" y="-56.5" font-family="FreeSans" font-size="10.00">::integrateSingleOneStepAct</text>
</a>
</g>
</g>
<!-- Node1&#45;&gt;Node9 -->
<g id="edge8" class="edge"><title>Node1&#45;&gt;Node9</title>
<path fill="none" stroke="midnightblue" d="M64.8162,-186.834C79.0848,-159.476 105.525,-115.742 140,-89.5 145.037,-85.6661 150.719,-82.3761 156.602,-79.5639"/>
<polygon fill="midnightblue" stroke="midnightblue" points="61.514,-185.608 60.1177,-196.11 67.7587,-188.771 61.514,-185.608"/>
</g>
<!-- Node10 -->
<g id="node10" class="node"><title>Node10</title>
<g id="a_node10"><a xlink:href="classH4_1_1HermiteIntegrator.html#aee9e179800b8e384c3c0807c22b9e6de" target="_top" xlink:title="Integration a list of particle to current time (ingore dt) ">
<polygon fill="white" stroke="black" points="155.5,-0.5 155.5,-30.5 263.5,-30.5 263.5,-0.5 155.5,-0.5"/>
<text text-anchor="start" x="163.5" y="-18.5" font-family="FreeSans" font-size="10.00">H4::HermiteIntegrator</text>
<text text-anchor="middle" x="209.5" y="-7.5" font-family="FreeSans" font-size="10.00">::integrateToTimeList</text>
</a>
</g>
</g>
<!-- Node1&#45;&gt;Node10 -->
<g id="edge9" class="edge"><title>Node1&#45;&gt;Node10</title>
<path fill="none" stroke="midnightblue" d="M59.3859,-186.438C70.036,-149.501 94.8454,-80.5088 140,-40.5 144.548,-36.4702 149.799,-33.0726 155.329,-30.2119"/>
<polygon fill="midnightblue" stroke="midnightblue" points="55.9285,-185.81 56.64,-196.381 62.6759,-187.673 55.9285,-185.81"/>
</g>
</g>
</svg>
