<?xml version="1.0" encoding="UTF-8" standalone="no"?>
<!DOCTYPE svg PUBLIC "-//W3C//DTD SVG 1.1//EN"
 "http://www.w3.org/Graphics/SVG/1.1/DTD/svg11.dtd">
<!-- Generated by graphviz version 2.43.0 (0)
 -->
<!-- Title: AR::BinarySlowDown::printColumnTitle Pages: 1 -->
<svg width="289pt" height="39pt"
 viewBox="0.00 0.00 289.00 39.00" xmlns="http://www.w3.org/2000/svg" xmlns:xlink="http://www.w3.org/1999/xlink">
<g id="graph0" class="graph" transform="scale(1 1) rotate(0) translate(4 35)">
<title>AR::BinarySlowDown::printColumnTitle</title>
<polygon fill="white" stroke="transparent" points="-4,4 -4,-35 285,-35 285,4 -4,4"/>
<!-- Node1 -->
<g id="node1" class="node">
<title>Node1</title>
<g id="a_node1"><a xlink:title="print titles of class members using column style">
<polygon fill="#bfbfbf" stroke="black" points="0,-0.5 0,-30.5 108,-30.5 108,-0.5 0,-0.5"/>
<text text-anchor="start" x="8" y="-18.5" font-family="FreeSans" font-size="10.00">AR::BinarySlowDown</text>
<text text-anchor="middle" x="54" y="-7.5" font-family="FreeSans" font-size="10.00">::printColumnTitle</text>
</a>
</g>
</g>
<!-- Node2 -->
<g id="node2" class="node">
<title>Node2</title>
<g id="a_node2"><a xlink:href="classAR_1_1SlowDown.html#aabda0e13486505032234934132a127a9" target="_top" xlink:title="print titles of class members using column style">
<polygon fill="white" stroke="black" points="144,-0.5 144,-30.5 281,-30.5 281,-0.5 144,-0.5"/>
<text text-anchor="start" x="152" y="-18.5" font-family="FreeSans" font-size="10.00">AR::SlowDown::printColumn</text>
<text text-anchor="middle" x="212.5" y="-7.5" font-family="FreeSans" font-size="10.00">Title</text>
</a>
</g>
</g>
<!-- Node1&#45;&gt;Node2 -->
<g id="edge1" class="edge">
<title>Node1&#45;&gt;Node2</title>
<path fill="none" stroke="midnightblue" d="M108.42,-15.5C116.63,-15.5 125.25,-15.5 133.85,-15.5"/>
<polygon fill="midnightblue" stroke="midnightblue" points="133.93,-19 143.93,-15.5 133.93,-12 133.93,-19"/>
</g>
</g>
</svg>
