<?xml version="1.0" encoding="UTF-8" standalone="no"?>
<!DOCTYPE svg PUBLIC "-//W3C//DTD SVG 1.1//EN"
 "http://www.w3.org/Graphics/SVG/1.1/DTD/svg11.dtd">
<!-- Generated by graphviz version 2.38.0 (20140413.2041)
 -->
<!-- Title: AR::TimeTransformedSymplecticIntegrator::printColumn Pages: 1 -->
<svg width="338pt" height="154pt"
 viewBox="0.00 0.00 338.00 153.50" xmlns="http://www.w3.org/2000/svg" xmlns:xlink="http://www.w3.org/1999/xlink">
<g id="graph0" class="graph" transform="scale(1 1) rotate(0) translate(4 149.5)">
<title>AR::TimeTransformedSymplecticIntegrator::printColumn</title>
<polygon fill="white" stroke="none" points="-4,4 -4,-149.5 334,-149.5 334,4 -4,4"/>
<!-- Node1 -->
<g id="node1" class="node"><title>Node1</title>
<polygon fill="#bfbfbf" stroke="black" points="0,-63.5 0,-93.5 158,-93.5 158,-63.5 0,-63.5"/>
<text text-anchor="start" x="8" y="-81.5" font-family="FreeSans" font-size="10.00">AR::TimeTransformedSymplectic</text>
<text text-anchor="middle" x="79" y="-70.5" font-family="FreeSans" font-size="10.00">Integrator::printColumn</text>
</g>
<!-- Node2 -->
<g id="node2" class="node"><title>Node2</title>
<g id="a_node2"><a xlink:href="classCOMM_1_1List.html#af1c92acd831f62c52f3385a71d6403e7" target="_top" xlink:title="get current member number ">
<polygon fill="white" stroke="black" points="210,-126 210,-145 314,-145 314,-126 210,-126"/>
<text text-anchor="middle" x="262" y="-133" font-family="FreeSans" font-size="10.00">COMM::List::getSize</text>
</a>
</g>
</g>
<!-- Node1&#45;&gt;Node2 -->
<g id="edge1" class="edge"><title>Node1&#45;&gt;Node2</title>
<path fill="none" stroke="midnightblue" d="M123.699,-93.5832C144.858,-100.754 170.674,-109.309 194,-116.5 201.23,-118.729 208.929,-121.004 216.436,-123.168"/>
<polygon fill="midnightblue" stroke="midnightblue" points="215.561,-126.558 226.137,-125.938 217.482,-119.827 215.561,-126.558"/>
</g>
<!-- Node3 -->
<g id="node3" class="node"><title>Node3</title>
<g id="a_node3"><a xlink:href="classAR_1_1SlowDown.html#aad85683de34ff2da23215cf26ff94f9b" target="_top" xlink:title="print data of class members using column style ">
<polygon fill="white" stroke="black" points="194,-88 194,-107 330,-107 330,-88 194,-88"/>
<text text-anchor="middle" x="262" y="-95" font-family="FreeSans" font-size="10.00">AR::SlowDown::printColumn</text>
</a>
</g>
</g>
<!-- Node1&#45;&gt;Node3 -->
<g id="edge2" class="edge"><title>Node1&#45;&gt;Node3</title>
<path fill="none" stroke="midnightblue" d="M158.074,-86.6956C166.67,-87.5979 175.418,-88.5163 184.001,-89.4173"/>
<polygon fill="midnightblue" stroke="midnightblue" points="183.671,-92.9017 193.982,-90.4649 184.402,-85.94 183.671,-92.9017"/>
</g>
<!-- Node4 -->
<g id="node4" class="node"><title>Node4</title>
<g id="a_node4"><a xlink:href="classAR_1_1Profile.html#a40692f5fa715489d67346f2a3942f1b4" target="_top" xlink:title="print data of class members using column style ">
<polygon fill="white" stroke="black" points="203,-50 203,-69 321,-69 321,-50 203,-50"/>
<text text-anchor="middle" x="262" y="-57" font-family="FreeSans" font-size="10.00">AR::Profile::printColumn</text>
</a>
</g>
</g>
<!-- Node1&#45;&gt;Node4 -->
<g id="edge3" class="edge"><title>Node1&#45;&gt;Node4</title>
<path fill="none" stroke="midnightblue" d="M158.074,-70.3044C169.574,-69.0972 181.348,-67.8612 192.633,-66.6767"/>
<polygon fill="midnightblue" stroke="midnightblue" points="193.257,-70.1305 202.837,-65.6055 192.526,-63.1687 193.257,-70.1305"/>
</g>
<!-- Node5 -->
<g id="node5" class="node"><title>Node5</title>
<g id="a_node5"><a xlink:href="classCOMM_1_1ParticleGroup.html#a785c959cd78824f9b7801a6529f96ac6" target="_top" xlink:title="print data of class members using column style ">
<polygon fill="white" stroke="black" points="206.5,-0.5 206.5,-30.5 317.5,-30.5 317.5,-0.5 206.5,-0.5"/>
<text text-anchor="start" x="214.5" y="-18.5" font-family="FreeSans" font-size="10.00">COMM::ParticleGroup</text>
<text text-anchor="middle" x="262" y="-7.5" font-family="FreeSans" font-size="10.00">::printColumn</text>
</a>
</g>
</g>
<!-- Node1&#45;&gt;Node5 -->
<g id="edge4" class="edge"><title>Node1&#45;&gt;Node5</title>
<path fill="none" stroke="midnightblue" d="M123.354,-63.4099C148.783,-54.559 181.101,-43.31 208.031,-33.9366"/>
<polygon fill="midnightblue" stroke="midnightblue" points="209.393,-37.1688 217.686,-30.576 207.092,-30.5578 209.393,-37.1688"/>
</g>
</g>
</svg>
