<?xml version="1.0" encoding="UTF-8" standalone="no"?>
<!DOCTYPE svg PUBLIC "-//W3C//DTD SVG 1.1//EN"
 "http://www.w3.org/Graphics/SVG/1.1/DTD/svg11.dtd">
<!-- Generated by graphviz version 2.43.0 (0)
 -->
<!-- Title: COMM::BinaryTree::getMemberAsTree Pages: 1 -->
<svg width="352pt" height="209pt"
 viewBox="0.00 0.00 352.00 208.50" xmlns="http://www.w3.org/2000/svg" xmlns:xlink="http://www.w3.org/1999/xlink">
<g id="graph0" class="graph" transform="scale(1 1) rotate(0) translate(4 204.5)">
<title>COMM::BinaryTree::getMemberAsTree</title>
<polygon fill="white" stroke="transparent" points="-4,4 -4,-204.5 348,-204.5 348,4 -4,4"/>
<!-- Node1 -->
<g id="node1" class="node">
<title>Node1</title>
<g id="a_node1"><a xlink:title="get member as tree">
<polygon fill="#bfbfbf" stroke="black" points="192,-76.5 192,-106.5 344,-106.5 344,-76.5 192,-76.5"/>
<text text-anchor="start" x="200" y="-94.5" font-family="FreeSans" font-size="10.00">COMM::BinaryTree::getMember</text>
<text text-anchor="middle" x="268" y="-83.5" font-family="FreeSans" font-size="10.00">AsTree</text>
</a>
</g>
</g>
<!-- Node2 -->
<g id="node2" class="node">
<title>Node2</title>
<g id="a_node2"><a xlink:href="classAR_1_1Information.html#a5304f20549e38ce6932834ff5a3e9001" target="_top" xlink:title="iteration function to calculate average kepler ds for a binary tree">
<polygon fill="white" stroke="black" points="12,-159 12,-200 144,-200 144,-159 12,-159"/>
<text text-anchor="start" x="20" y="-188" font-family="FreeSans" font-size="10.00">AR::Information&lt; Tparticle,</text>
<text text-anchor="start" x="20" y="-177" font-family="FreeSans" font-size="10.00"> ParticleH4&lt; Tparticle &gt;</text>
<text text-anchor="middle" x="78" y="-166" font-family="FreeSans" font-size="10.00"> &gt;::calcDsMinKeplerIter</text>
</a>
</g>
</g>
<!-- Node1&#45;&gt;Node2 -->
<g id="edge1" class="edge">
<title>Node1&#45;&gt;Node2</title>
<path fill="none" stroke="midnightblue" d="M231.25,-111.46C209.74,-123.15 181.63,-137.85 156,-149.5 148.95,-152.71 141.44,-155.89 133.99,-158.93"/>
<polygon fill="midnightblue" stroke="midnightblue" points="232.95,-114.52 240.04,-106.65 229.59,-108.38 232.95,-114.52"/>
</g>
<!-- Node3 -->
<g id="node3" class="node">
<title>Node3</title>
<g id="a_node3"><a xlink:href="classAR_1_1Information.html#afb941bde965b9a7e3ce80262a39492ec" target="_top" xlink:title="check binary tree member pair id, if consisent, return ture. otherwise set the member pair id">
<polygon fill="white" stroke="black" points="0,-99 0,-140 156,-140 156,-99 0,-99"/>
<text text-anchor="start" x="8" y="-128" font-family="FreeSans" font-size="10.00">AR::Information&lt; Tparticle,</text>
<text text-anchor="start" x="8" y="-117" font-family="FreeSans" font-size="10.00"> ParticleH4&lt; Tparticle &gt;</text>
<text text-anchor="middle" x="78" y="-106" font-family="FreeSans" font-size="10.00"> &gt;::checkAndSetBinaryPairIDIter</text>
</a>
</g>
</g>
<!-- Node1&#45;&gt;Node3 -->
<g id="edge2" class="edge">
<title>Node1&#45;&gt;Node3</title>
<path fill="none" stroke="midnightblue" d="M181.88,-104.18C173.31,-105.45 164.63,-106.75 156.15,-108.01"/>
<polygon fill="midnightblue" stroke="midnightblue" points="182.51,-107.62 191.89,-102.69 181.48,-100.7 182.51,-107.62"/>
</g>
<!-- Node4 -->
<g id="node4" class="node">
<title>Node4</title>
<g id="a_node4"><a xlink:href="classCOMM_1_1BinaryTree.html#ab67b69974a164388407378ccf17da6bb" target="_top" xlink:title="generate level and branch">
<polygon fill="white" stroke="black" points="6,-49.5 6,-79.5 150,-79.5 150,-49.5 6,-49.5"/>
<text text-anchor="start" x="14" y="-67.5" font-family="FreeSans" font-size="10.00">COMM::BinaryTree&lt; Tparticle</text>
<text text-anchor="middle" x="78" y="-56.5" font-family="FreeSans" font-size="10.00"> &gt;::generateLevelBranch</text>
</a>
</g>
</g>
<!-- Node1&#45;&gt;Node4 -->
<g id="edge3" class="edge">
<title>Node1&#45;&gt;Node4</title>
<path fill="none" stroke="midnightblue" d="M181.77,-79.26C171.16,-77.74 160.39,-76.19 150.02,-74.7"/>
<polygon fill="midnightblue" stroke="midnightblue" points="181.49,-82.76 191.89,-80.71 182.49,-75.83 181.49,-82.76"/>
</g>
<!-- Node5 -->
<g id="node5" class="node">
<title>Node5</title>
<g id="a_node5"><a xlink:href="classCOMM_1_1BinaryTree.html#a9de77fc6cdbb031ef025318e4682dbc1" target="_top" xlink:title="Three&#45;body stability function for hierarchical binary tree.">
<polygon fill="white" stroke="black" points="6,-0.5 6,-30.5 150,-30.5 150,-0.5 6,-0.5"/>
<text text-anchor="start" x="14" y="-18.5" font-family="FreeSans" font-size="10.00">COMM::BinaryTree&lt; Tparticle</text>
<text text-anchor="middle" x="78" y="-7.5" font-family="FreeSans" font-size="10.00"> &gt;::stableCheckIter</text>
</a>
</g>
</g>
<!-- Node1&#45;&gt;Node5 -->
<g id="edge4" class="edge">
<title>Node1&#45;&gt;Node5</title>
<path fill="none" stroke="midnightblue" d="M227.55,-72.01C206.56,-61.99 180.15,-49.93 156,-40.5 147.1,-37.02 137.49,-33.63 128.18,-30.52"/>
<polygon fill="midnightblue" stroke="midnightblue" points="226.26,-75.27 236.79,-76.46 229.3,-68.97 226.26,-75.27"/>
</g>
</g>
</svg>
