<?xml version="1.0" encoding="UTF-8" standalone="no"?>
<!DOCTYPE svg PUBLIC "-//W3C//DTD SVG 1.1//EN"
 "http://www.w3.org/Graphics/SVG/1.1/DTD/svg11.dtd">
<!-- Generated by graphviz version 2.38.0 (20140413.2041)
 -->
<!-- Title: AR::SlowDown::getSlowDownFactor Pages: 1 -->
<svg width="375pt" height="196pt"
 viewBox="0.00 0.00 375.00 196.00" xmlns="http://www.w3.org/2000/svg" xmlns:xlink="http://www.w3.org/1999/xlink">
<g id="graph0" class="graph" transform="scale(1 1) rotate(0) translate(4 192)">
<title>AR::SlowDown::getSlowDownFactor</title>
<polygon fill="white" stroke="none" points="-4,4 -4,-192 371,-192 371,4 -4,4"/>
<!-- Node1 -->
<g id="node1" class="node"><title>Node1</title>
<polygon fill="#bfbfbf" stroke="black" points="0,-81.5 0,-111.5 143,-111.5 143,-81.5 0,-81.5"/>
<text text-anchor="start" x="8" y="-99.5" font-family="FreeSans" font-size="10.00">AR::SlowDown::getSlowDown</text>
<text text-anchor="middle" x="71.5" y="-88.5" font-family="FreeSans" font-size="10.00">Factor</text>
</g>
<!-- Node2 -->
<g id="node2" class="node"><title>Node2</title>
<g id="a_node2"><a xlink:href="classAR_1_1TimeTransformedSymplecticIntegrator.html#aa655bbfc4e9f9af1ae7f7a09fc193443" target="_top" xlink:title="operator = ">
<polygon fill="white" stroke="black" points="194,-157.5 194,-187.5 352,-187.5 352,-157.5 194,-157.5"/>
<text text-anchor="start" x="202" y="-175.5" font-family="FreeSans" font-size="10.00">AR::TimeTransformedSymplectic</text>
<text text-anchor="middle" x="273" y="-164.5" font-family="FreeSans" font-size="10.00">Integrator::operator=</text>
</a>
</g>
</g>
<!-- Node1&#45;&gt;Node2 -->
<g id="edge1" class="edge"><title>Node1&#45;&gt;Node2</title>
<path fill="none" stroke="midnightblue" d="M108.306,-116.233C128.604,-126.843 154.726,-139.546 179,-148.5 187.761,-151.732 197.139,-154.698 206.445,-157.36"/>
<polygon fill="midnightblue" stroke="midnightblue" points="109.892,-113.113 99.4165,-111.527 106.617,-119.3 109.892,-113.113"/>
</g>
<!-- Node3 -->
<g id="node3" class="node"><title>Node3</title>
<g id="a_node3"><a xlink:href="classAR_1_1TimeTransformedSymplecticIntegrator.html#a4db984abe326fd1a30b3d52f6537e5eb" target="_top" xlink:title="initialization for integration ">
<polygon fill="white" stroke="black" points="194,-108.5 194,-138.5 352,-138.5 352,-108.5 194,-108.5"/>
<text text-anchor="start" x="202" y="-126.5" font-family="FreeSans" font-size="10.00">AR::TimeTransformedSymplectic</text>
<text text-anchor="middle" x="273" y="-115.5" font-family="FreeSans" font-size="10.00">Integrator::initialIntegration</text>
</a>
</g>
</g>
<!-- Node1&#45;&gt;Node3 -->
<g id="edge2" class="edge"><title>Node1&#45;&gt;Node3</title>
<path fill="none" stroke="midnightblue" d="M153.215,-107.424C166.562,-109.23 180.381,-111.1 193.668,-112.899"/>
<polygon fill="midnightblue" stroke="midnightblue" points="153.496,-103.93 143.117,-106.057 152.557,-110.867 153.496,-103.93"/>
</g>
<!-- Node4 -->
<g id="node4" class="node"><title>Node4</title>
<g id="a_node4"><a xlink:href="classAR_1_1TimeTransformedSymplecticIntegrator.html#aef58e7b1ec25846a506b9b0281522a1f" target="_top" xlink:title="update slowdown factor based on perturbation and record slowdown energy change ">
<polygon fill="white" stroke="black" points="180.5,-49 180.5,-90 365.5,-90 365.5,-49 180.5,-49"/>
<text text-anchor="start" x="188.5" y="-78" font-family="FreeSans" font-size="10.00">AR::TimeTransformedSymplectic</text>
<text text-anchor="start" x="188.5" y="-67" font-family="FreeSans" font-size="10.00">Integrator::updateSlowDownAndCorrect</text>
<text text-anchor="middle" x="273" y="-56" font-family="FreeSans" font-size="10.00">Energy</text>
</a>
</g>
</g>
<!-- Node1&#45;&gt;Node4 -->
<g id="edge3" class="edge"><title>Node1&#45;&gt;Node4</title>
<path fill="none" stroke="midnightblue" d="M153.078,-85.5948C161.994,-84.388 171.123,-83.1525 180.164,-81.9289"/>
<polygon fill="midnightblue" stroke="midnightblue" points="152.557,-82.1332 143.117,-86.9428 153.496,-89.07 152.557,-82.1332"/>
</g>
<!-- Node5 -->
<g id="node5" class="node"><title>Node5</title>
<g id="a_node5"><a xlink:href="classAR_1_1TimeTransformedSymplecticIntegrator.html#ad24173534adac2b1e58a40de5e525baf" target="_top" xlink:title="write back particles with slowdown velocity ">
<polygon fill="white" stroke="black" points="179,-0.5 179,-30.5 367,-30.5 367,-0.5 179,-0.5"/>
<text text-anchor="start" x="187" y="-18.5" font-family="FreeSans" font-size="10.00">AR::TimeTransformedSymplectic</text>
<text text-anchor="middle" x="273" y="-7.5" font-family="FreeSans" font-size="10.00">Integrator::writeBackSlowDownParticles</text>
</a>
</g>
</g>
<!-- Node1&#45;&gt;Node5 -->
<g id="edge4" class="edge"><title>Node1&#45;&gt;Node5</title>
<path fill="none" stroke="midnightblue" d="M105.321,-76.2903C125.896,-64.2971 153.302,-49.5261 179,-39.5 187.389,-36.2272 196.376,-33.2672 205.337,-30.6338"/>
<polygon fill="midnightblue" stroke="midnightblue" points="103.491,-73.3062 96.6633,-81.4077 107.053,-79.3323 103.491,-73.3062"/>
</g>
</g>
</svg>
