<?xml version="1.0" encoding="UTF-8" standalone="no"?>
<!DOCTYPE svg PUBLIC "-//W3C//DTD SVG 1.1//EN"
 "http://www.w3.org/Graphics/SVG/1.1/DTD/svg11.dtd">
<!-- Generated by graphviz version 2.38.0 (20140413.2041)
 -->
<!-- Title: AR::TimeTransformedSymplecticIntegrator::operator= Pages: 1 -->
<svg width="360pt" height="379pt"
 viewBox="0.00 0.00 360.00 378.50" xmlns="http://www.w3.org/2000/svg" xmlns:xlink="http://www.w3.org/1999/xlink">
<g id="graph0" class="graph" transform="scale(1 1) rotate(0) translate(4 374.5)">
<title>AR::TimeTransformedSymplecticIntegrator::operator=</title>
<polygon fill="white" stroke="none" points="-4,4 -4,-374.5 356,-374.5 356,4 -4,4"/>
<!-- Node1 -->
<g id="node1" class="node"><title>Node1</title>
<polygon fill="#bfbfbf" stroke="black" points="0,-203 0,-233 158,-233 158,-203 0,-203"/>
<text text-anchor="start" x="8" y="-221" font-family="FreeSans" font-size="10.00">AR::TimeTransformedSymplectic</text>
<text text-anchor="middle" x="79" y="-210" font-family="FreeSans" font-size="10.00">Integrator::operator=</text>
</g>
<!-- Node2 -->
<g id="node2" class="node"><title>Node2</title>
<g id="a_node2"><a xlink:href="classCOMM_1_1List.html#af1c92acd831f62c52f3385a71d6403e7" target="_top" xlink:title="get current member number ">
<polygon fill="white" stroke="black" points="216.5,-340 216.5,-370 329.5,-370 329.5,-340 216.5,-340"/>
<text text-anchor="start" x="224.5" y="-358" font-family="FreeSans" font-size="10.00">COMM::List&lt; Tparticle</text>
<text text-anchor="middle" x="273" y="-347" font-family="FreeSans" font-size="10.00"> &gt;::getSize</text>
</a>
</g>
</g>
<!-- Node1&#45;&gt;Node2 -->
<g id="edge1" class="edge"><title>Node1&#45;&gt;Node2</title>
<path fill="none" stroke="midnightblue" d="M96.1932,-233.082C116.424,-255.812 153.361,-297.654 194,-322 204.246,-328.138 216.203,-332.837 227.633,-336.699"/>
<polygon fill="midnightblue" stroke="midnightblue" points="226.893,-340.138 237.485,-339.893 229.052,-333.48 226.893,-340.138"/>
</g>
<!-- Node1&#45;&gt;Node2 -->
<g id="edge3" class="edge"><title>Node1&#45;&gt;Node2</title>
<path fill="none" stroke="midnightblue" d="M87.6146,-233.242C104.357,-259.554 146.667,-311.644 194,-340 198.113,-342.464 202.502,-344.696 207.022,-346.694"/>
<polygon fill="midnightblue" stroke="midnightblue" points="205.853,-349.996 216.437,-350.464 208.455,-343.497 205.853,-349.996"/>
</g>
<!-- Node3 -->
<g id="node3" class="node"><title>Node3</title>
<g id="a_node3"><a xlink:href="classCOMM_1_1List.html#a125e4f93ee02b677f8377bd541f2105d" target="_top" xlink:title="return member data array address ">
<polygon fill="white" stroke="black" points="216.5,-291 216.5,-321 329.5,-321 329.5,-291 216.5,-291"/>
<text text-anchor="start" x="224.5" y="-309" font-family="FreeSans" font-size="10.00">COMM::List&lt; Tparticle</text>
<text text-anchor="middle" x="273" y="-298" font-family="FreeSans" font-size="10.00"> &gt;::getDataAddress</text>
</a>
</g>
</g>
<!-- Node1&#45;&gt;Node3 -->
<g id="edge2" class="edge"><title>Node1&#45;&gt;Node3</title>
<path fill="none" stroke="midnightblue" d="M117.069,-233.021C138.926,-244.779 167.426,-260.529 194,-272 207.213,-277.704 222.169,-282.805 235.425,-287.444"/>
<polygon fill="midnightblue" stroke="midnightblue" points="234.579,-290.858 245.174,-290.905 236.92,-284.261 234.579,-290.858"/>
</g>
<!-- Node1&#45;&gt;Node3 -->
<g id="edge8" class="edge"><title>Node1&#45;&gt;Node3</title>
<path fill="none" stroke="midnightblue" d="M94.6502,-233.239C115.909,-249.549 156.838,-273.958 194,-290 198.076,-291.759 202.318,-293.462 206.624,-295.078"/>
<polygon fill="midnightblue" stroke="midnightblue" points="205.522,-298.401 216.116,-298.468 207.876,-291.808 205.522,-298.401"/>
</g>
<!-- Node4 -->
<g id="node4" class="node"><title>Node4</title>
<g id="a_node4"><a xlink:href="classCOMM_1_1BinaryTree.html#ae05cbd6fc87aebd60f87fa37db6ed2a2" target="_top" xlink:title="get total number of members ">
<polygon fill="white" stroke="black" points="194,-252.5 194,-271.5 352,-271.5 352,-252.5 194,-252.5"/>
<text text-anchor="middle" x="273" y="-259.5" font-family="FreeSans" font-size="10.00">COMM::BinaryTree::getMemberN</text>
</a>
</g>
</g>
<!-- Node1&#45;&gt;Node4 -->
<g id="edge4" class="edge"><title>Node1&#45;&gt;Node4</title>
<path fill="none" stroke="midnightblue" d="M145.539,-233.019C170.048,-238.636 197.513,-244.93 220.569,-250.214"/>
<polygon fill="midnightblue" stroke="midnightblue" points="219.962,-253.665 230.491,-252.488 221.526,-246.842 219.962,-253.665"/>
</g>
<!-- Node5 -->
<g id="node5" class="node"><title>Node5</title>
<g id="a_node5"><a xlink:href="classCOMM_1_1List.html#a610a134731844b13df4b22ef0d9ad603" target="_top" xlink:title="increase size without initialization ">
<polygon fill="white" stroke="black" points="210,-203 210,-233 336,-233 336,-203 210,-203"/>
<text text-anchor="start" x="218" y="-221" font-family="FreeSans" font-size="10.00">COMM::List::increaseSize</text>
<text text-anchor="middle" x="273" y="-210" font-family="FreeSans" font-size="10.00">NoInitialize</text>
</a>
</g>
</g>
<!-- Node1&#45;&gt;Node5 -->
<g id="edge5" class="edge"><title>Node1&#45;&gt;Node5</title>
<path fill="none" stroke="midnightblue" d="M158.094,-218C171.827,-218 186.068,-218 199.636,-218"/>
<polygon fill="midnightblue" stroke="midnightblue" points="199.862,-221.5 209.862,-218 199.862,-214.5 199.862,-221.5"/>
</g>
<!-- Node6 -->
<g id="node6" class="node"><title>Node6</title>
<g id="a_node6"><a xlink:href="classCOMM_1_1List.html#abcdc25c6ecaf2d352583fa75f9fa1180" target="_top" xlink:title="return last member ">
<polygon fill="white" stroke="black" points="204,-164.5 204,-183.5 342,-183.5 342,-164.5 204,-164.5"/>
<text text-anchor="middle" x="273" y="-171.5" font-family="FreeSans" font-size="10.00">COMM::List::getLastMember</text>
</a>
</g>
</g>
<!-- Node1&#45;&gt;Node6 -->
<g id="edge6" class="edge"><title>Node1&#45;&gt;Node6</title>
<path fill="none" stroke="midnightblue" d="M145.539,-202.981C170.048,-197.364 197.513,-191.07 220.569,-185.786"/>
<polygon fill="midnightblue" stroke="midnightblue" points="221.526,-189.158 230.491,-183.512 219.962,-182.335 221.526,-189.158"/>
</g>
<!-- Node7 -->
<g id="node7" class="node"><title>Node7</title>
<g id="a_node7"><a xlink:href="classCOMM_1_1List.html#a0f3dd09ceff0ce9b3ffd15f48a9ea9c4" target="_top" xlink:title="increase size without initialization ">
<polygon fill="white" stroke="black" points="201.5,-126.5 201.5,-145.5 344.5,-145.5 344.5,-126.5 201.5,-126.5"/>
<text text-anchor="middle" x="273" y="-133.5" font-family="FreeSans" font-size="10.00">COMM::List::resizeNoInitialize</text>
</a>
</g>
</g>
<!-- Node1&#45;&gt;Node7 -->
<g id="edge7" class="edge"><title>Node1&#45;&gt;Node7</title>
<path fill="none" stroke="midnightblue" d="M103.121,-202.81C125.541,-188.673 160.925,-167.901 194,-155 200.369,-152.516 207.16,-150.286 213.979,-148.305"/>
<polygon fill="midnightblue" stroke="midnightblue" points="215.22,-151.594 223.942,-145.578 213.372,-144.842 215.22,-151.594"/>
</g>
<!-- Node8 -->
<g id="node8" class="node"><title>Node8</title>
<g id="a_node8"><a xlink:href="classAR_1_1SlowDown.html#ad5c3d75646774b843eb1eefc86f10b52" target="_top" xlink:title="get real time value ">
<polygon fill="white" stroke="black" points="203.5,-88.5 203.5,-107.5 342.5,-107.5 342.5,-88.5 203.5,-88.5"/>
<text text-anchor="middle" x="273" y="-95.5" font-family="FreeSans" font-size="10.00">AR::SlowDown::getRealTime</text>
</a>
</g>
</g>
<!-- Node1&#45;&gt;Node8 -->
<g id="edge9" class="edge"><title>Node1&#45;&gt;Node8</title>
<path fill="none" stroke="midnightblue" d="M92.7012,-202.785C112.164,-180.488 151.592,-139.184 194,-117 198.515,-114.638 203.332,-112.563 208.272,-110.741"/>
<polygon fill="midnightblue" stroke="midnightblue" points="209.495,-114.023 217.876,-107.542 207.283,-107.382 209.495,-114.023"/>
</g>
<!-- Node9 -->
<g id="node9" class="node"><title>Node9</title>
<g id="a_node9"><a xlink:href="classAR_1_1SlowDown.html#acdbeeada2bb4f8ef82aee8e5574f3beb" target="_top" xlink:title="Get slow&#45;down factor. ">
<polygon fill="white" stroke="black" points="201.5,-39 201.5,-69 344.5,-69 344.5,-39 201.5,-39"/>
<text text-anchor="start" x="209.5" y="-57" font-family="FreeSans" font-size="10.00">AR::SlowDown::getSlowDown</text>
<text text-anchor="middle" x="273" y="-46" font-family="FreeSans" font-size="10.00">Factor</text>
</a>
</g>
</g>
<!-- Node1&#45;&gt;Node9 -->
<g id="edge10" class="edge"><title>Node1&#45;&gt;Node9</title>
<path fill="none" stroke="midnightblue" d="M88.5206,-202.598C105.097,-174.032 144.443,-112.688 194,-79 196.911,-77.0214 199.988,-75.1917 203.171,-73.5006"/>
<polygon fill="midnightblue" stroke="midnightblue" points="204.869,-76.5681 212.378,-69.0931 201.847,-70.2543 204.869,-76.5681"/>
</g>
<!-- Node10 -->
<g id="node10" class="node"><title>Node10</title>
<g id="a_node10"><a xlink:href="classAR_1_1SlowDown.html#a05cb058656662b84f4a2af3600916363" target="_top" xlink:title="drift real time ">
<polygon fill="white" stroke="black" points="202,-0.5 202,-19.5 344,-19.5 344,-0.5 202,-0.5"/>
<text text-anchor="middle" x="273" y="-7.5" font-family="FreeSans" font-size="10.00">AR::SlowDown::driftRealTime</text>
</a>
</g>
</g>
<!-- Node1&#45;&gt;Node10 -->
<g id="edge11" class="edge"><title>Node1&#45;&gt;Node10</title>
<path fill="none" stroke="midnightblue" d="M84.7224,-202.834C96.7243,-166.884 131.925,-76.0583 194,-30 197.193,-27.6311 200.638,-25.5417 204.242,-23.699"/>
<polygon fill="midnightblue" stroke="midnightblue" points="205.746,-26.8608 213.469,-19.6077 202.908,-20.4616 205.746,-26.8608"/>
</g>
</g>
</svg>
