<?xml version="1.0" encoding="UTF-8" standalone="no"?>
<!DOCTYPE svg PUBLIC "-//W3C//DTD SVG 1.1//EN"
 "http://www.w3.org/Graphics/SVG/1.1/DTD/svg11.dtd">
<!-- Generated by graphviz version 2.43.0 (0)
 -->
<!-- Title: H4::ARInformation::reserveMem Pages: 1 -->
<svg width="277pt" height="126pt"
 viewBox="0.00 0.00 277.00 126.00" xmlns="http://www.w3.org/2000/svg" xmlns:xlink="http://www.w3.org/1999/xlink">
<g id="graph0" class="graph" transform="scale(1 1) rotate(0) translate(4 122)">
<title>H4::ARInformation::reserveMem</title>
<polygon fill="white" stroke="transparent" points="-4,4 -4,-122 273,-122 273,4 -4,4"/>
<!-- Node1 -->
<g id="node1" class="node">
<title>Node1</title>
<g id="a_node1"><a xlink:title="reserve memory">
<polygon fill="#bfbfbf" stroke="black" points="0,-44 0,-74 101,-74 101,-44 0,-44"/>
<text text-anchor="start" x="8" y="-62" font-family="FreeSans" font-size="10.00">H4::ARInformation::</text>
<text text-anchor="middle" x="50.5" y="-51" font-family="FreeSans" font-size="10.00">reserveMem</text>
</a>
</g>
</g>
<!-- Node2 -->
<g id="node2" class="node">
<title>Node2</title>
<g id="a_node2"><a xlink:href="classCOMM_1_1List.html#a7f125554959409d40217deb7402c0de9" target="_top" xlink:title="Memory allocation for storing members.">
<polygon fill="white" stroke="black" points="139.5,-98.5 139.5,-117.5 266.5,-117.5 266.5,-98.5 139.5,-98.5"/>
<text text-anchor="middle" x="203" y="-105.5" font-family="FreeSans" font-size="10.00">COMM::List::reserveMem</text>
</a>
</g>
</g>
<!-- Node1&#45;&gt;Node2 -->
<g id="edge1" class="edge">
<title>Node1&#45;&gt;Node2</title>
<path fill="none" stroke="midnightblue" d="M93.1,-74.09C107,-79.01 122.62,-84.38 137,-89 143.93,-91.23 151.3,-93.49 158.5,-95.63"/>
<polygon fill="midnightblue" stroke="midnightblue" points="157.58,-99.01 168.16,-98.48 159.56,-92.29 157.58,-99.01"/>
</g>
<!-- Node3 -->
<g id="node3" class="node">
<title>Node3</title>
<g id="a_node3"><a xlink:href="classAR_1_1Information.html#a989cdd6a1b4bf633d8361946ca1c87f9" target="_top" xlink:title="reserve memory of binarytree list">
<polygon fill="white" stroke="black" points="137,-38.5 137,-79.5 269,-79.5 269,-38.5 137,-38.5"/>
<text text-anchor="start" x="145" y="-67.5" font-family="FreeSans" font-size="10.00">AR::Information&lt; Tparticle,</text>
<text text-anchor="start" x="145" y="-56.5" font-family="FreeSans" font-size="10.00"> ParticleH4&lt; Tparticle &gt;</text>
<text text-anchor="middle" x="203" y="-45.5" font-family="FreeSans" font-size="10.00"> &gt;::reserveMem</text>
</a>
</g>
</g>
<!-- Node1&#45;&gt;Node3 -->
<g id="edge2" class="edge">
<title>Node1&#45;&gt;Node3</title>
<path fill="none" stroke="midnightblue" d="M101.2,-59C109.38,-59 118.02,-59 126.67,-59"/>
<polygon fill="midnightblue" stroke="midnightblue" points="126.79,-62.5 136.79,-59 126.79,-55.5 126.79,-62.5"/>
</g>
<!-- Node4 -->
<g id="node4" class="node">
<title>Node4</title>
<g id="a_node4"><a xlink:href="classCOMM_1_1List.html#a10c70f9a45d06c2589898cbaf1e4fbf8" target="_top" xlink:title="set mode">
<polygon fill="white" stroke="black" points="148,-0.5 148,-19.5 258,-19.5 258,-0.5 148,-0.5"/>
<text text-anchor="middle" x="203" y="-7.5" font-family="FreeSans" font-size="10.00">COMM::List::setMode</text>
</a>
</g>
</g>
<!-- Node1&#45;&gt;Node4 -->
<g id="edge3" class="edge">
<title>Node1&#45;&gt;Node4</title>
<path fill="none" stroke="midnightblue" d="M93.1,-43.91C107,-38.99 122.62,-33.62 137,-29 143.93,-26.77 151.3,-24.51 158.5,-22.37"/>
<polygon fill="midnightblue" stroke="midnightblue" points="159.56,-25.71 168.16,-19.52 157.58,-18.99 159.56,-25.71"/>
</g>
</g>
</svg>
