<?xml version="1.0" encoding="UTF-8" standalone="no"?>
<!DOCTYPE svg PUBLIC "-//W3C//DTD SVG 1.1//EN"
 "http://www.w3.org/Graphics/SVG/1.1/DTD/svg11.dtd">
<!-- Generated by graphviz version 2.43.0 (0)
 -->
<!-- Title: H4::HermiteIntegrator::printColumn Pages: 1 -->
<svg width="429pt" height="116pt"
 viewBox="0.00 0.00 429.00 116.00" xmlns="http://www.w3.org/2000/svg" xmlns:xlink="http://www.w3.org/1999/xlink">
<g id="graph0" class="graph" transform="scale(1 1) rotate(0) translate(4 112)">
<title>H4::HermiteIntegrator::printColumn</title>
<polygon fill="white" stroke="transparent" points="-4,4 -4,-112 425,-112 425,4 -4,4"/>
<!-- Node1 -->
<g id="node1" class="node">
<title>Node1</title>
<g id="a_node1"><a xlink:title="print data of class members using column style">
<polygon fill="#bfbfbf" stroke="black" points="0,-39 0,-69 110,-69 110,-39 0,-39"/>
<text text-anchor="start" x="8" y="-57" font-family="FreeSans" font-size="10.00">H4::HermiteIntegrator</text>
<text text-anchor="middle" x="55" y="-46" font-family="FreeSans" font-size="10.00">::printColumn</text>
</a>
</g>
</g>
<!-- Node2 -->
<g id="node2" class="node">
<title>Node2</title>
<g id="a_node2"><a xlink:href="classH4_1_1Profile.html#ab30b19795f511f6d76628649bb32959e" target="_top" xlink:title="print data of class members using column style">
<polygon fill="white" stroke="black" points="156,-88.5 156,-107.5 273,-107.5 273,-88.5 156,-88.5"/>
<text text-anchor="middle" x="214.5" y="-95.5" font-family="FreeSans" font-size="10.00">H4::Profile::printColumn</text>
</a>
</g>
</g>
<!-- Node1&#45;&gt;Node2 -->
<g id="edge1" class="edge">
<title>Node1&#45;&gt;Node2</title>
<path fill="none" stroke="midnightblue" d="M109.76,-69.02C129.25,-74.46 151.02,-80.54 169.56,-85.72"/>
<polygon fill="midnightblue" stroke="midnightblue" points="168.64,-89.1 179.21,-88.42 170.52,-82.36 168.64,-89.1"/>
</g>
<!-- Node3 -->
<g id="node3" class="node">
<title>Node3</title>
<g id="a_node3"><a xlink:href="structH4_1_1HermiteEnergy.html#a23fb5809bab0975984e73254f46090b2" target="_top" xlink:title="print data of class members using column style">
<polygon fill="white" stroke="black" points="163.5,-39 163.5,-69 265.5,-69 265.5,-39 163.5,-39"/>
<text text-anchor="start" x="171.5" y="-57" font-family="FreeSans" font-size="10.00">H4::HermiteEnergy::</text>
<text text-anchor="middle" x="214.5" y="-46" font-family="FreeSans" font-size="10.00">printColumn</text>
</a>
</g>
</g>
<!-- Node1&#45;&gt;Node3 -->
<g id="edge2" class="edge">
<title>Node1&#45;&gt;Node3</title>
<path fill="none" stroke="midnightblue" d="M110.2,-54C124.09,-54 139.12,-54 153.29,-54"/>
<polygon fill="midnightblue" stroke="midnightblue" points="153.43,-57.5 163.43,-54 153.43,-50.5 153.43,-57.5"/>
</g>
<!-- Node5 -->
<g id="node5" class="node">
<title>Node5</title>
<g id="a_node5"><a xlink:href="classAR_1_1SlowDown.html#aad85683de34ff2da23215cf26ff94f9b" target="_top" xlink:title="print data of class members using column style">
<polygon fill="white" stroke="black" points="146,-0.5 146,-19.5 283,-19.5 283,-0.5 146,-0.5"/>
<text text-anchor="middle" x="214.5" y="-7.5" font-family="FreeSans" font-size="10.00">AR::SlowDown::printColumn</text>
</a>
</g>
</g>
<!-- Node1&#45;&gt;Node5 -->
<g id="edge4" class="edge">
<title>Node1&#45;&gt;Node5</title>
<path fill="none" stroke="midnightblue" d="M109.76,-38.98C129.25,-33.54 151.02,-27.46 169.56,-22.28"/>
<polygon fill="midnightblue" stroke="midnightblue" points="170.52,-25.64 179.21,-19.58 168.64,-18.9 170.52,-25.64"/>
</g>
<!-- Node4 -->
<g id="node4" class="node">
<title>Node4</title>
<g id="a_node4"><a xlink:href="structH4_1_1HermiteEnergy.html#a19211bc7c7d783e741cace2b14c48f05" target="_top" xlink:title="calc energy error">
<polygon fill="white" stroke="black" points="319,-39 319,-69 421,-69 421,-39 319,-39"/>
<text text-anchor="start" x="327" y="-57" font-family="FreeSans" font-size="10.00">H4::HermiteEnergy::</text>
<text text-anchor="middle" x="370" y="-46" font-family="FreeSans" font-size="10.00">getEnergyError</text>
</a>
</g>
</g>
<!-- Node3&#45;&gt;Node4 -->
<g id="edge3" class="edge">
<title>Node3&#45;&gt;Node4</title>
<path fill="none" stroke="midnightblue" d="M265.76,-54C279.48,-54 294.49,-54 308.71,-54"/>
<polygon fill="midnightblue" stroke="midnightblue" points="308.89,-57.5 318.89,-54 308.89,-50.5 308.89,-57.5"/>
</g>
</g>
</svg>
