<?xml version="1.0" encoding="UTF-8" standalone="no"?>
<!DOCTYPE svg PUBLIC "-//W3C//DTD SVG 1.1//EN"
 "http://www.w3.org/Graphics/SVG/1.1/DTD/svg11.dtd">
<!-- Generated by graphviz version 2.38.0 (20140413.2041)
 -->
<!-- Title: AR::SlowDown::getRealTime Pages: 1 -->
<svg width="341pt" height="235pt"
 viewBox="0.00 0.00 341.00 235.00" xmlns="http://www.w3.org/2000/svg" xmlns:xlink="http://www.w3.org/1999/xlink">
<g id="graph0" class="graph" transform="scale(1 1) rotate(0) translate(4 231)">
<title>AR::SlowDown::getRealTime</title>
<polygon fill="white" stroke="none" points="-4,4 -4,-231 337,-231 337,4 -4,4"/>
<!-- Node1 -->
<g id="node1" class="node"><title>Node1</title>
<polygon fill="#bfbfbf" stroke="black" points="0,-104 0,-123 139,-123 139,-104 0,-104"/>
<text text-anchor="middle" x="69.5" y="-111" font-family="FreeSans" font-size="10.00">AR::SlowDown::getRealTime</text>
</g>
<!-- Node2 -->
<g id="node2" class="node"><title>Node2</title>
<g id="a_node2"><a xlink:href="classAR_1_1TimeTransformedSymplecticIntegrator.html#aa655bbfc4e9f9af1ae7f7a09fc193443" target="_top" xlink:title="operator = ">
<polygon fill="white" stroke="black" points="175,-196.5 175,-226.5 333,-226.5 333,-196.5 175,-196.5"/>
<text text-anchor="start" x="183" y="-214.5" font-family="FreeSans" font-size="10.00">AR::TimeTransformedSymplectic</text>
<text text-anchor="middle" x="254" y="-203.5" font-family="FreeSans" font-size="10.00">Integrator::operator=</text>
</a>
</g>
</g>
<!-- Node1&#45;&gt;Node2 -->
<g id="edge1" class="edge"><title>Node1&#45;&gt;Node2</title>
<path fill="none" stroke="midnightblue" d="M89.398,-129.711C109.475,-146.228 142.712,-171.61 175,-187.5 181.737,-190.816 189.028,-193.787 196.355,-196.415"/>
<polygon fill="midnightblue" stroke="midnightblue" points="91.5585,-126.955 81.6406,-123.228 87.0698,-132.326 91.5585,-126.955"/>
</g>
<!-- Node3 -->
<g id="node3" class="node"><title>Node3</title>
<g id="a_node3"><a xlink:href="classAR_1_1TimeTransformedSymplecticIntegrator.html#acb82fbf04578955d8dcf8035c0f97ee3" target="_top" xlink:title="integration for one step ">
<polygon fill="white" stroke="black" points="175,-147.5 175,-177.5 333,-177.5 333,-147.5 175,-147.5"/>
<text text-anchor="start" x="183" y="-165.5" font-family="FreeSans" font-size="10.00">AR::TimeTransformedSymplectic</text>
<text text-anchor="middle" x="254" y="-154.5" font-family="FreeSans" font-size="10.00">Integrator::integrateOneStep</text>
</a>
</g>
</g>
<!-- Node1&#45;&gt;Node3 -->
<g id="edge2" class="edge"><title>Node1&#45;&gt;Node3</title>
<path fill="none" stroke="midnightblue" d="M115.9,-125.69C140.449,-132.281 170.98,-140.478 196.995,-147.463"/>
<polygon fill="midnightblue" stroke="midnightblue" points="116.687,-122.277 106.121,-123.064 114.871,-129.037 116.687,-122.277"/>
</g>
<!-- Node4 -->
<g id="node4" class="node"><title>Node4</title>
<g id="a_node4"><a xlink:href="classAR_1_1TimeTransformedSymplecticIntegrator.html#aa9bc3285b782123da733df7d123a4ad6" target="_top" xlink:title="integration for two body one step ">
<polygon fill="white" stroke="black" points="175,-98.5 175,-128.5 333,-128.5 333,-98.5 175,-98.5"/>
<text text-anchor="start" x="183" y="-116.5" font-family="FreeSans" font-size="10.00">AR::TimeTransformedSymplectic</text>
<text text-anchor="middle" x="254" y="-105.5" font-family="FreeSans" font-size="10.00">Integrator::integrateTwoOneStep</text>
</a>
</g>
</g>
<!-- Node1&#45;&gt;Node4 -->
<g id="edge3" class="edge"><title>Node1&#45;&gt;Node4</title>
<path fill="none" stroke="midnightblue" d="M149.422,-113.5C157.848,-113.5 166.417,-113.5 174.834,-113.5"/>
<polygon fill="midnightblue" stroke="midnightblue" points="149.235,-110 139.235,-113.5 149.235,-117 149.235,-110"/>
</g>
<!-- Node5 -->
<g id="node5" class="node"><title>Node5</title>
<g id="a_node5"><a xlink:href="classAR_1_1TimeTransformedSymplecticIntegrator.html#a24f338caf7308ceda28fcd7f8a223165" target="_top" xlink:title="AR::TimeTransformedSymplectic\lIntegrator::integrateToTime">
<polygon fill="white" stroke="black" points="175,-49.5 175,-79.5 333,-79.5 333,-49.5 175,-49.5"/>
<text text-anchor="start" x="183" y="-67.5" font-family="FreeSans" font-size="10.00">AR::TimeTransformedSymplectic</text>
<text text-anchor="middle" x="254" y="-56.5" font-family="FreeSans" font-size="10.00">Integrator::integrateToTime</text>
</a>
</g>
</g>
<!-- Node1&#45;&gt;Node5 -->
<g id="edge4" class="edge"><title>Node1&#45;&gt;Node5</title>
<path fill="none" stroke="midnightblue" d="M115.9,-101.31C140.449,-94.7192 170.98,-86.5218 196.995,-79.537"/>
<polygon fill="midnightblue" stroke="midnightblue" points="114.871,-97.9625 106.121,-103.936 116.687,-104.723 114.871,-97.9625"/>
</g>
<!-- Node6 -->
<g id="node6" class="node"><title>Node6</title>
<g id="a_node6"><a xlink:href="classAR_1_1TimeTransformedSymplecticIntegrator.html#a45a6ec5453cd66ed15af6d0612d6d1a8" target="_top" xlink:title="Get current physical time. ">
<polygon fill="white" stroke="black" points="175,-0.5 175,-30.5 333,-30.5 333,-0.5 175,-0.5"/>
<text text-anchor="start" x="183" y="-18.5" font-family="FreeSans" font-size="10.00">AR::TimeTransformedSymplectic</text>
<text text-anchor="middle" x="254" y="-7.5" font-family="FreeSans" font-size="10.00">Integrator::getTime</text>
</a>
</g>
</g>
<!-- Node1&#45;&gt;Node6 -->
<g id="edge5" class="edge"><title>Node1&#45;&gt;Node6</title>
<path fill="none" stroke="midnightblue" d="M89.4738,-97.6007C109.612,-81.3821 142.899,-56.4029 175,-40.5 182.518,-36.7756 190.714,-33.44 198.875,-30.5118"/>
<polygon fill="midnightblue" stroke="midnightblue" points="87.2174,-94.9246 81.6899,-103.963 91.6476,-100.344 87.2174,-94.9246"/>
</g>
</g>
</svg>
