<?xml version="1.0" encoding="UTF-8" standalone="no"?>
<!DOCTYPE svg PUBLIC "-//W3C//DTD SVG 1.1//EN"
 "http://www.w3.org/Graphics/SVG/1.1/DTD/svg11.dtd">
<!-- Generated by graphviz version 2.38.0 (20140413.2041)
 -->
<!-- Title: H4::HermiteIntegrator::initialSystemSingle Pages: 1 -->
<svg width="295pt" height="225pt"
 viewBox="0.00 0.00 295.00 224.50" xmlns="http://www.w3.org/2000/svg" xmlns:xlink="http://www.w3.org/1999/xlink">
<g id="graph0" class="graph" transform="scale(1 1) rotate(0) translate(4 220.5)">
<title>H4::HermiteIntegrator::initialSystemSingle</title>
<polygon fill="white" stroke="none" points="-4,4 -4,-220.5 291,-220.5 291,4 -4,4"/>
<!-- Node1 -->
<g id="node1" class="node"><title>Node1</title>
<polygon fill="#bfbfbf" stroke="black" points="0,-88 0,-118 108,-118 108,-88 0,-88"/>
<text text-anchor="start" x="8" y="-106" font-family="FreeSans" font-size="10.00">H4::HermiteIntegrator</text>
<text text-anchor="middle" x="54" y="-95" font-family="FreeSans" font-size="10.00">::initialSystemSingle</text>
</g>
<!-- Node2 -->
<g id="node2" class="node"><title>Node2</title>
<g id="a_node2"><a xlink:href="classH4_1_1HermiteManager.html#ad5ab496b530db1dfab24bebc39fabe8e" target="_top" xlink:title="time step calculator ">
<polygon fill="white" stroke="black" points="163.5,-186 163.5,-216 267.5,-216 267.5,-186 163.5,-186"/>
<text text-anchor="start" x="171.5" y="-204" font-family="FreeSans" font-size="10.00">H4::HermiteManager</text>
<text text-anchor="middle" x="215.5" y="-193" font-family="FreeSans" font-size="10.00">::checkParams</text>
</a>
</g>
</g>
<!-- Node1&#45;&gt;Node2 -->
<g id="edge1" class="edge"><title>Node1&#45;&gt;Node2</title>
<path fill="none" stroke="midnightblue" d="M69.7786,-118.259C86.4653,-134.734 115.077,-160.789 144,-177 147.236,-178.814 150.631,-180.522 154.111,-182.126"/>
<polygon fill="midnightblue" stroke="midnightblue" points="152.893,-185.412 163.463,-186.129 155.647,-178.977 152.893,-185.412"/>
</g>
<!-- Node3 -->
<g id="node3" class="node"><title>Node3</title>
<g id="a_node3"><a xlink:href="classCOMM_1_1List.html#afe063c29e3ae8df95f65db67d7d8ba81" target="_top" xlink:title="Reset modified status to false. ">
<polygon fill="white" stroke="black" points="159,-137 159,-167 272,-167 272,-137 159,-137"/>
<text text-anchor="start" x="167" y="-155" font-family="FreeSans" font-size="10.00">COMM::List&lt; Tparticle</text>
<text text-anchor="middle" x="215.5" y="-144" font-family="FreeSans" font-size="10.00"> &gt;::setModifiedFalse</text>
</a>
</g>
</g>
<!-- Node1&#45;&gt;Node3 -->
<g id="edge2" class="edge"><title>Node1&#45;&gt;Node3</title>
<path fill="none" stroke="midnightblue" d="M104.157,-118.101C120.455,-123.108 138.762,-128.732 155.71,-133.939"/>
<polygon fill="midnightblue" stroke="midnightblue" points="154.919,-137.357 165.506,-136.948 156.974,-130.666 154.919,-137.357"/>
</g>
<!-- Node4 -->
<g id="node4" class="node"><title>Node4</title>
<g id="a_node4"><a xlink:href="classCOMM_1_1List.html#af1c92acd831f62c52f3385a71d6403e7" target="_top" xlink:title="get current member number ">
<polygon fill="white" stroke="black" points="159,-88 159,-118 272,-118 272,-88 159,-88"/>
<text text-anchor="start" x="167" y="-106" font-family="FreeSans" font-size="10.00">COMM::List&lt; Tparticle</text>
<text text-anchor="middle" x="215.5" y="-95" font-family="FreeSans" font-size="10.00"> &gt;::getSize</text>
</a>
</g>
</g>
<!-- Node1&#45;&gt;Node4 -->
<g id="edge3" class="edge"><title>Node1&#45;&gt;Node4</title>
<path fill="none" stroke="midnightblue" d="M108.111,-96.5965C121.11,-96.2461 135.175,-96.1615 148.689,-96.3425"/>
<polygon fill="midnightblue" stroke="midnightblue" points="148.826,-99.8456 158.89,-96.5327 148.957,-92.8468 148.826,-99.8456"/>
</g>
<!-- Node1&#45;&gt;Node4 -->
<g id="edge6" class="edge"><title>Node1&#45;&gt;Node4</title>
<path fill="none" stroke="midnightblue" d="M108.111,-109.404C121.11,-109.754 135.175,-109.839 148.689,-109.658"/>
<polygon fill="midnightblue" stroke="midnightblue" points="148.957,-113.153 158.89,-109.467 148.826,-106.154 148.957,-113.153"/>
</g>
<!-- Node5 -->
<g id="node5" class="node"><title>Node5</title>
<g id="a_node5"><a xlink:href="classCOMM_1_1List.html#a610a134731844b13df4b22ef0d9ad603" target="_top" xlink:title="increase size without initialization ">
<polygon fill="white" stroke="black" points="152.5,-39 152.5,-69 278.5,-69 278.5,-39 152.5,-39"/>
<text text-anchor="start" x="160.5" y="-57" font-family="FreeSans" font-size="10.00">COMM::List::increaseSize</text>
<text text-anchor="middle" x="215.5" y="-46" font-family="FreeSans" font-size="10.00">NoInitialize</text>
</a>
</g>
</g>
<!-- Node1&#45;&gt;Node5 -->
<g id="edge4" class="edge"><title>Node1&#45;&gt;Node5</title>
<path fill="none" stroke="midnightblue" d="M104.157,-87.8986C120.455,-82.8917 138.762,-77.2676 155.71,-72.061"/>
<polygon fill="midnightblue" stroke="midnightblue" points="156.974,-75.334 165.506,-69.0516 154.919,-68.6426 156.974,-75.334"/>
</g>
<!-- Node6 -->
<g id="node6" class="node"><title>Node6</title>
<g id="a_node6"><a xlink:href="classCOMM_1_1List.html#a0f3dd09ceff0ce9b3ffd15f48a9ea9c4" target="_top" xlink:title="increase size without initialization ">
<polygon fill="white" stroke="black" points="144,-0.5 144,-19.5 287,-19.5 287,-0.5 144,-0.5"/>
<text text-anchor="middle" x="215.5" y="-7.5" font-family="FreeSans" font-size="10.00">COMM::List::resizeNoInitialize</text>
</a>
</g>
</g>
<!-- Node1&#45;&gt;Node6 -->
<g id="edge5" class="edge"><title>Node1&#45;&gt;Node6</title>
<path fill="none" stroke="midnightblue" d="M69.365,-87.9749C85.9069,-71.5004 114.601,-45.3686 144,-30 149.201,-27.2814 154.816,-24.8931 160.527,-22.8045"/>
<polygon fill="midnightblue" stroke="midnightblue" points="161.808,-26.0667 170.174,-19.5669 159.58,-19.4305 161.808,-26.0667"/>
</g>
</g>
</svg>
