<?xml version="1.0" encoding="UTF-8" standalone="no"?>
<!DOCTYPE svg PUBLIC "-//W3C//DTD SVG 1.1//EN"
 "http://www.w3.org/Graphics/SVG/1.1/DTD/svg11.dtd">
<!-- Generated by graphviz version 2.38.0 (20140413.2041)
 -->
<!-- Title: AR::SymplecticStep::initialSymplecticCofficients Pages: 1 -->
<svg width="476pt" height="39pt"
 viewBox="0.00 0.00 476.00 39.00" xmlns="http://www.w3.org/2000/svg" xmlns:xlink="http://www.w3.org/1999/xlink">
<g id="graph0" class="graph" transform="scale(1 1) rotate(0) translate(4 35)">
<title>AR::SymplecticStep::initialSymplecticCofficients</title>
<polygon fill="white" stroke="none" points="-4,4 -4,-35 472,-35 472,4 -4,4"/>
<!-- Node1 -->
<g id="node1" class="node"><title>Node1</title>
<polygon fill="#bfbfbf" stroke="black" points="0,-0.5 0,-30.5 135,-30.5 135,-0.5 0,-0.5"/>
<text text-anchor="start" x="8" y="-18.5" font-family="FreeSans" font-size="10.00">AR::SymplecticStep</text>
<text text-anchor="middle" x="67.5" y="-7.5" font-family="FreeSans" font-size="10.00">::initialSymplecticCofficients</text>
</g>
<!-- Node2 -->
<g id="node2" class="node"><title>Node2</title>
<g id="a_node2"><a xlink:href="classAR_1_1SymplecticStep.html#a7bd554fb4782da4c8a5b56be01877273" target="_top" xlink:title="read class data with BINARY format and initial the array ">
<polygon fill="white" stroke="black" points="171,-0.5 171,-30.5 274,-30.5 274,-0.5 171,-0.5"/>
<text text-anchor="start" x="179" y="-18.5" font-family="FreeSans" font-size="10.00">AR::SymplecticStep</text>
<text text-anchor="middle" x="222.5" y="-7.5" font-family="FreeSans" font-size="10.00">::readBinary</text>
</a>
</g>
</g>
<!-- Node1&#45;&gt;Node2 -->
<g id="edge1" class="edge"><title>Node1&#45;&gt;Node2</title>
<path fill="none" stroke="midnightblue" d="M145.269,-15.5C153.899,-15.5 162.525,-15.5 170.706,-15.5"/>
<polygon fill="midnightblue" stroke="midnightblue" points="145.163,-12.0001 135.163,-15.5 145.163,-19.0001 145.163,-12.0001"/>
</g>
<!-- Node3 -->
<g id="node3" class="node"><title>Node3</title>
<g id="a_node3"><a xlink:href="classAR_1_1TimeTransformedSymplecticManager.html#a468331841b3d06894c4fb450891c7c2e" target="_top" xlink:title="read class data with BINARY format and initial the array ">
<polygon fill="white" stroke="black" points="310,-0.5 310,-30.5 468,-30.5 468,-0.5 310,-0.5"/>
<text text-anchor="start" x="318" y="-18.5" font-family="FreeSans" font-size="10.00">AR::TimeTransformedSymplectic</text>
<text text-anchor="middle" x="389" y="-7.5" font-family="FreeSans" font-size="10.00">Manager&lt; TARacc &gt;::readBinary</text>
</a>
</g>
</g>
<!-- Node2&#45;&gt;Node3 -->
<g id="edge2" class="edge"><title>Node2&#45;&gt;Node3</title>
<path fill="none" stroke="midnightblue" d="M284.232,-15.5C292.609,-15.5 301.307,-15.5 309.943,-15.5"/>
<polygon fill="midnightblue" stroke="midnightblue" points="284.198,-12.0001 274.198,-15.5 284.198,-19.0001 284.198,-12.0001"/>
</g>
</g>
</svg>
