<?xml version="1.0" encoding="UTF-8" standalone="no"?>
<!DOCTYPE svg PUBLIC "-//W3C//DTD SVG 1.1//EN"
 "http://www.w3.org/Graphics/SVG/1.1/DTD/svg11.dtd">
<!-- Generated by graphviz version 2.43.0 (0)
 -->
<!-- Title: COMM::BinaryTree::isMemberTree Pages: 1 -->
<svg width="365pt" height="209pt"
 viewBox="0.00 0.00 365.00 208.50" xmlns="http://www.w3.org/2000/svg" xmlns:xlink="http://www.w3.org/1999/xlink">
<g id="graph0" class="graph" transform="scale(1 1) rotate(0) translate(4 204.5)">
<title>COMM::BinaryTree::isMemberTree</title>
<polygon fill="white" stroke="transparent" points="-4,4 -4,-204.5 361,-204.5 361,4 -4,4"/>
<!-- Node1 -->
<g id="node1" class="node">
<title>Node1</title>
<g id="a_node1"><a xlink:title=" ">
<polygon fill="#bfbfbf" stroke="black" points="192,-82 192,-101 357,-101 357,-82 192,-82"/>
<text text-anchor="middle" x="274.5" y="-89" font-family="FreeSans" font-size="10.00">COMM::BinaryTree::isMemberTree</text>
</a>
</g>
</g>
<!-- Node2 -->
<g id="node2" class="node">
<title>Node2</title>
<g id="a_node2"><a xlink:href="classAR_1_1Information.html#a5304f20549e38ce6932834ff5a3e9001" target="_top" xlink:title="iteration function to calculate average kepler ds for a binary tree">
<polygon fill="white" stroke="black" points="12,-159 12,-200 144,-200 144,-159 12,-159"/>
<text text-anchor="start" x="20" y="-188" font-family="FreeSans" font-size="10.00">AR::Information&lt; Tparticle,</text>
<text text-anchor="start" x="20" y="-177" font-family="FreeSans" font-size="10.00"> ParticleH4&lt; Tparticle &gt;</text>
<text text-anchor="middle" x="78" y="-166" font-family="FreeSans" font-size="10.00"> &gt;::calcDsMinKeplerIter</text>
</a>
</g>
</g>
<!-- Node1&#45;&gt;Node2 -->
<g id="edge1" class="edge">
<title>Node1&#45;&gt;Node2</title>
<path fill="none" stroke="midnightblue" d="M246.36,-105.74C222.75,-117.92 187.47,-135.63 156,-149.5 148.78,-152.68 141.11,-155.88 133.51,-158.94"/>
<polygon fill="midnightblue" stroke="midnightblue" points="248.15,-108.75 255.42,-101.04 244.93,-102.54 248.15,-108.75"/>
</g>
<!-- Node3 -->
<g id="node3" class="node">
<title>Node3</title>
<g id="a_node3"><a xlink:href="classAR_1_1Information.html#afb941bde965b9a7e3ce80262a39492ec" target="_top" xlink:title="check binary tree member pair id, if consisent, return ture. otherwise set the member pair id">
<polygon fill="white" stroke="black" points="0,-99 0,-140 156,-140 156,-99 0,-99"/>
<text text-anchor="start" x="8" y="-128" font-family="FreeSans" font-size="10.00">AR::Information&lt; Tparticle,</text>
<text text-anchor="start" x="8" y="-117" font-family="FreeSans" font-size="10.00"> ParticleH4&lt; Tparticle &gt;</text>
<text text-anchor="middle" x="78" y="-106" font-family="FreeSans" font-size="10.00"> &gt;::checkAndSetBinaryPairIDIter</text>
</a>
</g>
</g>
<!-- Node1&#45;&gt;Node3 -->
<g id="edge2" class="edge">
<title>Node1&#45;&gt;Node3</title>
<path fill="none" stroke="midnightblue" d="M197.17,-102.49C183.64,-104.44 169.55,-106.46 156.01,-108.41"/>
<polygon fill="midnightblue" stroke="midnightblue" points="197.98,-105.91 207.38,-101.02 196.98,-98.98 197.98,-105.91"/>
</g>
<!-- Node4 -->
<g id="node4" class="node">
<title>Node4</title>
<g id="a_node4"><a xlink:href="classCOMM_1_1BinaryTree.html#ab67b69974a164388407378ccf17da6bb" target="_top" xlink:title="generate level and branch">
<polygon fill="white" stroke="black" points="6,-49.5 6,-79.5 150,-79.5 150,-49.5 6,-49.5"/>
<text text-anchor="start" x="14" y="-67.5" font-family="FreeSans" font-size="10.00">COMM::BinaryTree&lt; Tparticle</text>
<text text-anchor="middle" x="78" y="-56.5" font-family="FreeSans" font-size="10.00"> &gt;::generateLevelBranch</text>
</a>
</g>
</g>
<!-- Node1&#45;&gt;Node4 -->
<g id="edge3" class="edge">
<title>Node1&#45;&gt;Node4</title>
<path fill="none" stroke="midnightblue" d="M194.83,-80.58C180.09,-78.53 164.75,-76.4 150.24,-74.39"/>
<polygon fill="midnightblue" stroke="midnightblue" points="194.54,-84.07 204.93,-81.98 195.5,-77.14 194.54,-84.07"/>
</g>
<!-- Node5 -->
<g id="node5" class="node">
<title>Node5</title>
<g id="a_node5"><a xlink:href="classCOMM_1_1BinaryTree.html#a9de77fc6cdbb031ef025318e4682dbc1" target="_top" xlink:title="Three&#45;body stability function for hierarchical binary tree.">
<polygon fill="white" stroke="black" points="6,-0.5 6,-30.5 150,-30.5 150,-0.5 6,-0.5"/>
<text text-anchor="start" x="14" y="-18.5" font-family="FreeSans" font-size="10.00">COMM::BinaryTree&lt; Tparticle</text>
<text text-anchor="middle" x="78" y="-7.5" font-family="FreeSans" font-size="10.00"> &gt;::stableCheckIter</text>
</a>
</g>
</g>
<!-- Node1&#45;&gt;Node5 -->
<g id="edge4" class="edge">
<title>Node1&#45;&gt;Node5</title>
<path fill="none" stroke="midnightblue" d="M243.83,-77.69C220.27,-66.94 186.35,-51.98 156,-40.5 146.93,-37.07 137.15,-33.67 127.71,-30.54"/>
<polygon fill="midnightblue" stroke="midnightblue" points="242.4,-80.88 252.95,-81.87 245.32,-74.52 242.4,-80.88"/>
</g>
</g>
</svg>
