<?xml version="1.0" encoding="UTF-8" standalone="no"?>
<!DOCTYPE svg PUBLIC "-//W3C//DTD SVG 1.1//EN"
 "http://www.w3.org/Graphics/SVG/1.1/DTD/svg11.dtd">
<!-- Generated by graphviz version 2.43.0 (0)
 -->
<!-- Title: AR::SymplecticStep::readBinary Pages: 1 -->
<svg width="423pt" height="39pt"
 viewBox="0.00 0.00 423.00 39.00" xmlns="http://www.w3.org/2000/svg" xmlns:xlink="http://www.w3.org/1999/xlink">
<g id="graph0" class="graph" transform="scale(1 1) rotate(0) translate(4 35)">
<title>AR::SymplecticStep::readBinary</title>
<polygon fill="white" stroke="transparent" points="-4,4 -4,-35 419,-35 419,4 -4,4"/>
<!-- Node1 -->
<g id="node1" class="node">
<title>Node1</title>
<g id="a_node1"><a xlink:title="read class data with BINARY format and initial the array">
<polygon fill="#bfbfbf" stroke="black" points="0,-0.5 0,-30.5 103,-30.5 103,-0.5 0,-0.5"/>
<text text-anchor="start" x="8" y="-18.5" font-family="FreeSans" font-size="10.00">AR::SymplecticStep</text>
<text text-anchor="middle" x="51.5" y="-7.5" font-family="FreeSans" font-size="10.00">::readBinary</text>
</a>
</g>
</g>
<!-- Node2 -->
<g id="node2" class="node">
<title>Node2</title>
<g id="a_node2"><a xlink:href="classAR_1_1SymplecticStep.html#a3783c763a55a3f197f2914c3c621f020" target="_top" xlink:title="Symplectic coefficients generation for input order.">
<polygon fill="white" stroke="black" points="139,-0.5 139,-30.5 276,-30.5 276,-0.5 139,-0.5"/>
<text text-anchor="start" x="147" y="-18.5" font-family="FreeSans" font-size="10.00">AR::SymplecticStep</text>
<text text-anchor="middle" x="207.5" y="-7.5" font-family="FreeSans" font-size="10.00">::initialSymplecticCofficients</text>
</a>
</g>
</g>
<!-- Node1&#45;&gt;Node2 -->
<g id="edge1" class="edge">
<title>Node1&#45;&gt;Node2</title>
<path fill="none" stroke="midnightblue" d="M103.35,-15.5C111.54,-15.5 120.17,-15.5 128.82,-15.5"/>
<polygon fill="midnightblue" stroke="midnightblue" points="128.94,-19 138.94,-15.5 128.94,-12 128.94,-19"/>
</g>
<!-- Node3 -->
<g id="node3" class="node">
<title>Node3</title>
<g id="a_node3"><a xlink:href="classAR_1_1SymplecticStep.html#adfbb534cea38813980c9d8bfdb7ca749" target="_top" xlink:title="clear function">
<polygon fill="white" stroke="black" points="312,-0.5 312,-30.5 415,-30.5 415,-0.5 312,-0.5"/>
<text text-anchor="start" x="320" y="-18.5" font-family="FreeSans" font-size="10.00">AR::SymplecticStep</text>
<text text-anchor="middle" x="363.5" y="-7.5" font-family="FreeSans" font-size="10.00">::clear</text>
</a>
</g>
</g>
<!-- Node2&#45;&gt;Node3 -->
<g id="edge2" class="edge">
<title>Node2&#45;&gt;Node3</title>
<path fill="none" stroke="midnightblue" d="M276.05,-15.5C284.55,-15.5 293.21,-15.5 301.6,-15.5"/>
<polygon fill="midnightblue" stroke="midnightblue" points="301.68,-19 311.68,-15.5 301.68,-12 301.68,-19"/>
</g>
</g>
</svg>
