<?xml version="1.0" encoding="UTF-8" standalone="no"?>
<!DOCTYPE svg PUBLIC "-//W3C//DTD SVG 1.1//EN"
 "http://www.w3.org/Graphics/SVG/1.1/DTD/svg11.dtd">
<!-- Generated by graphviz version 2.38.0 (20140413.2041)
 -->
<!-- Title: src Pages: 1 -->
<svg width="166pt" height="220pt"
 viewBox="0.00 0.00 166.00 220.00" xmlns="http://www.w3.org/2000/svg" xmlns:xlink="http://www.w3.org/1999/xlink">
<g id="graph0" class="graph" transform="scale(1 1) rotate(0) translate(4 216)">
<title>src</title>
<polygon fill="white" stroke="none" points="-4,4 -4,-216 162,-216 162,4 -4,4"/>
<g id="clust1" class="cluster"><title>clusterdir_68267d1309a1af8e8297ef4c3efbcdba</title>
<g id="a_clust1"><a xlink:href="dir_68267d1309a1af8e8297ef4c3efbcdba.html" target="_top">
<polygon fill="#eeeeff" stroke="black" points="8,-8 8,-204 150,-204 150,-8 8,-8"/>
</a>
</g>
</g>
<!-- dir_68267d1309a1af8e8297ef4c3efbcdba -->
<g id="node1" class="node"><title>dir_68267d1309a1af8e8297ef4c3efbcdba</title>
<text text-anchor="middle" x="115" y="-175.5" font-family="FreeSans" font-size="10.00">src</text>
</g>
<!-- dir_aadd25e79ec57c264f03493d9fa9fb54 -->
<g id="node2" class="node"><title>dir_aadd25e79ec57c264f03493d9fa9fb54</title>
<g id="a_node2"><a xlink:href="dir_aadd25e79ec57c264f03493d9fa9fb54.html" target="_top" xlink:title="AR">
<polygon fill="white" stroke="black" points="70,-124 16,-124 16,-88 70,-88 70,-124"/>
<text text-anchor="middle" x="43" y="-103.5" font-family="FreeSans" font-size="10.00">AR</text>
</a>
</g>
</g>
<!-- dir_ba210d1fa67db7bee1bb22e0a3c11d9f -->
<g id="node3" class="node"><title>dir_ba210d1fa67db7bee1bb22e0a3c11d9f</title>
<g id="a_node3"><a xlink:href="dir_ba210d1fa67db7bee1bb22e0a3c11d9f.html" target="_top" xlink:title="Common">
<polygon fill="white" stroke="black" points="94,-52 38,-52 38,-16 94,-16 94,-52"/>
<text text-anchor="middle" x="66" y="-31.5" font-family="FreeSans" font-size="10.00">Common</text>
</a>
</g>
</g>
<!-- dir_aadd25e79ec57c264f03493d9fa9fb54&#45;&gt;dir_ba210d1fa67db7bee1bb22e0a3c11d9f -->
<g id="edge3" class="edge"><title>dir_aadd25e79ec57c264f03493d9fa9fb54&#45;&gt;dir_ba210d1fa67db7bee1bb22e0a3c11d9f</title>
<path fill="none" stroke="black" d="M48.6854,-87.6966C51.2478,-79.8979 54.3329,-70.5085 57.1847,-61.8292"/>
<polygon fill="black" stroke="black" points="60.5835,-62.6972 60.38,-52.1043 53.9333,-60.5121 60.5835,-62.6972"/>
<g id="a_edge3&#45;headlabel"><a xlink:href="dir_000003_000002.html" target="_top" xlink:title="7">
<text text-anchor="middle" x="62.1589" y="-64.4985" font-family="FreeSans" font-size="10.00">7</text>
</a>
</g>
</g>
<!-- dir_50b2405a6b6f76b94286e6f10a2716af -->
<g id="node4" class="node"><title>dir_50b2405a6b6f76b94286e6f10a2716af</title>
<g id="a_node4"><a xlink:href="dir_50b2405a6b6f76b94286e6f10a2716af.html" target="_top" xlink:title="Hermite">
<polygon fill="white" stroke="black" points="70,-196 16,-196 16,-160 70,-160 70,-196"/>
<text text-anchor="middle" x="43" y="-175.5" font-family="FreeSans" font-size="10.00">Hermite</text>
</a>
</g>
</g>
<!-- dir_50b2405a6b6f76b94286e6f10a2716af&#45;&gt;dir_aadd25e79ec57c264f03493d9fa9fb54 -->
<g id="edge2" class="edge"><title>dir_50b2405a6b6f76b94286e6f10a2716af&#45;&gt;dir_aadd25e79ec57c264f03493d9fa9fb54</title>
<path fill="none" stroke="black" d="M43,-159.697C43,-151.983 43,-142.712 43,-134.112"/>
<polygon fill="black" stroke="black" points="46.5001,-134.104 43,-124.104 39.5001,-134.104 46.5001,-134.104"/>
<g id="a_edge2&#45;headlabel"><a xlink:href="dir_000001_000003.html" target="_top" xlink:title="2">
<text text-anchor="middle" x="49.3393" y="-135.199" font-family="FreeSans" font-size="10.00">2</text>
</a>
</g>
</g>
<!-- dir_50b2405a6b6f76b94286e6f10a2716af&#45;&gt;dir_ba210d1fa67db7bee1bb22e0a3c11d9f -->
<g id="edge1" class="edge"><title>dir_50b2405a6b6f76b94286e6f10a2716af&#45;&gt;dir_ba210d1fa67db7bee1bb22e0a3c11d9f</title>
<path fill="none" stroke="black" d="M58.6099,-159.774C66.3729,-150.03 74.9459,-137.184 79,-124 85.2831,-103.568 81.1291,-79.5378 75.9037,-61.6006"/>
<polygon fill="black" stroke="black" points="79.2371,-60.5332 72.8624,-52.0707 72.5685,-62.6615 79.2371,-60.5332"/>
<g id="a_edge1&#45;headlabel"><a xlink:href="dir_000001_000002.html" target="_top" xlink:title="9">
<text text-anchor="middle" x="83.0348" y="-60.5945" font-family="FreeSans" font-size="10.00">9</text>
</a>
</g>
</g>
</g>
</svg>
