<?xml version="1.0" encoding="UTF-8" standalone="no"?>
<!DOCTYPE svg PUBLIC "-//W3C//DTD SVG 1.1//EN"
 "http://www.w3.org/Graphics/SVG/1.1/DTD/svg11.dtd">
<!-- Generated by graphviz version 2.38.0 (20140413.2041)
 -->
<!-- Title: Float.h Pages: 1 -->
<svg width="594pt" height="252pt"
 viewBox="0.00 0.00 593.86 252.00" xmlns="http://www.w3.org/2000/svg" xmlns:xlink="http://www.w3.org/1999/xlink">
<g id="graph0" class="graph" transform="scale(1 1) rotate(0) translate(4 248)">
<title>Float.h</title>
<polygon fill="white" stroke="none" points="-4,4 -4,-248 589.864,-248 589.864,4 -4,4"/>
<!-- Node1 -->
<g id="node1" class="node"><title>Node1</title>
<polygon fill="#bfbfbf" stroke="black" points="267.285,-224.5 267.285,-243.5 313.285,-243.5 313.285,-224.5 267.285,-224.5"/>
<text text-anchor="middle" x="290.285" y="-231.5" font-family="FreeSans" font-size="10.00">Float.h</text>
</g>
<!-- Node2 -->
<g id="node2" class="node"><title>Node2</title>
<g id="a_node2"><a xlink:href="force_8h.html" target="_top" xlink:title="force.h">
<polygon fill="white" stroke="black" points="34.285,-112.5 34.285,-131.5 80.285,-131.5 80.285,-112.5 34.285,-112.5"/>
<text text-anchor="middle" x="57.285" y="-119.5" font-family="FreeSans" font-size="10.00">force.h</text>
</a>
</g>
</g>
<!-- Node1&#45;&gt;Node2 -->
<g id="edge1" class="edge"><title>Node1&#45;&gt;Node2</title>
<path fill="none" stroke="midnightblue" d="M256.837,-229.253C221.45,-224.14 164.943,-212.626 122.285,-188 96.5775,-173.159 73.9132,-145.571 63.4407,-131.593"/>
<polygon fill="midnightblue" stroke="midnightblue" points="256.723,-232.769 267.102,-230.641 257.662,-225.832 256.723,-232.769"/>
</g>
<!-- Node4 -->
<g id="node4" class="node"><title>Node4</title>
<g id="a_node4"><a xlink:href="hermite__integrator_8h.html" target="_top" xlink:title="hermite_integrator.h">
<polygon fill="white" stroke="black" points="294.285,-0.5 294.285,-19.5 396.285,-19.5 396.285,-0.5 294.285,-0.5"/>
<text text-anchor="middle" x="345.285" y="-7.5" font-family="FreeSans" font-size="10.00">hermite_integrator.h</text>
</a>
</g>
</g>
<!-- Node1&#45;&gt;Node4 -->
<g id="edge15" class="edge"><title>Node1&#45;&gt;Node4</title>
<path fill="none" stroke="midnightblue" d="M257.055,-230.183C199.409,-224.742 83.9039,-211.232 51.285,-188 2.28069,-153.098 -19.0256,-100.661 21.285,-56 56.7198,-16.741 212.092,-10.7878 294.127,-10.4582"/>
<polygon fill="midnightblue" stroke="midnightblue" points="256.834,-233.677 267.112,-231.105 257.474,-226.706 256.834,-233.677"/>
</g>
<!-- Node5 -->
<g id="node5" class="node"><title>Node5</title>
<g id="a_node5"><a xlink:href="information_8h.html" target="_top" xlink:title="information.h">
<polygon fill="white" stroke="black" points="254.285,-168.5 254.285,-187.5 326.285,-187.5 326.285,-168.5 254.285,-168.5"/>
<text text-anchor="middle" x="290.285" y="-175.5" font-family="FreeSans" font-size="10.00">information.h</text>
</a>
</g>
</g>
<!-- Node1&#45;&gt;Node5 -->
<g id="edge4" class="edge"><title>Node1&#45;&gt;Node5</title>
<path fill="none" stroke="midnightblue" d="M290.285,-213.805C290.285,-204.91 290.285,-194.78 290.285,-187.751"/>
<polygon fill="midnightblue" stroke="midnightblue" points="286.785,-214.083 290.285,-224.083 293.785,-214.083 286.785,-214.083"/>
</g>
<!-- Node6 -->
<g id="node6" class="node"><title>Node6</title>
<g id="a_node6"><a xlink:href="ar__information_8h.html" target="_top" xlink:title="ar_information.h">
<polygon fill="white" stroke="black" points="302.285,-112.5 302.285,-131.5 388.285,-131.5 388.285,-112.5 302.285,-112.5"/>
<text text-anchor="middle" x="345.285" y="-119.5" font-family="FreeSans" font-size="10.00">ar_information.h</text>
</a>
</g>
</g>
<!-- Node1&#45;&gt;Node6 -->
<g id="edge12" class="edge"><title>Node1&#45;&gt;Node6</title>
<path fill="none" stroke="midnightblue" d="M310.301,-217.988C319.387,-210.082 329.397,-199.62 335.285,-188 344.678,-169.464 345.77,-144.431 345.616,-131.507"/>
<polygon fill="midnightblue" stroke="midnightblue" points="307.881,-215.446 302.361,-224.489 312.315,-220.862 307.881,-215.446"/>
</g>
<!-- Node7 -->
<g id="node7" class="node"><title>Node7</title>
<g id="a_node7"><a xlink:href="slow__down_8h.html" target="_top" xlink:title="slow_down.h">
<polygon fill="white" stroke="black" points="98.785,-112.5 98.785,-131.5 169.785,-131.5 169.785,-112.5 98.785,-112.5"/>
<text text-anchor="middle" x="134.285" y="-119.5" font-family="FreeSans" font-size="10.00">slow_down.h</text>
</a>
</g>
</g>
<!-- Node1&#45;&gt;Node7 -->
<g id="edge8" class="edge"><title>Node1&#45;&gt;Node7</title>
<path fill="none" stroke="midnightblue" d="M257.346,-228.251C215.864,-221.519 148.191,-207.779 133.285,-188 120.787,-171.416 126.771,-145.092 131.126,-131.597"/>
<polygon fill="midnightblue" stroke="midnightblue" points="256.858,-231.717 267.28,-229.811 257.944,-224.802 256.858,-231.717"/>
</g>
<!-- Node8 -->
<g id="node8" class="node"><title>Node8</title>
<g id="a_node8"><a xlink:href="symplectic__step_8h.html" target="_top" xlink:title="symplectic_step.h">
<polygon fill="white" stroke="black" points="142.785,-168.5 142.785,-187.5 235.785,-187.5 235.785,-168.5 142.785,-168.5"/>
<text text-anchor="middle" x="189.285" y="-175.5" font-family="FreeSans" font-size="10.00">symplectic_step.h</text>
</a>
</g>
</g>
<!-- Node1&#45;&gt;Node8 -->
<g id="edge10" class="edge"><title>Node1&#45;&gt;Node8</title>
<path fill="none" stroke="midnightblue" d="M265.203,-219.59C246.528,-209.605 221.581,-196.267 205.472,-187.655"/>
<polygon fill="midnightblue" stroke="midnightblue" points="263.589,-222.696 274.058,-224.324 266.889,-216.522 263.589,-222.696"/>
</g>
<!-- Node9 -->
<g id="node9" class="node"><title>Node9</title>
<g id="a_node9"><a xlink:href="block__time__step_8h.html" target="_top" xlink:title="block_time_step.h">
<polygon fill="white" stroke="black" points="30.785,-56.5 30.785,-75.5 125.785,-75.5 125.785,-56.5 30.785,-56.5"/>
<text text-anchor="middle" x="78.285" y="-63.5" font-family="FreeSans" font-size="10.00">block_time_step.h</text>
</a>
</g>
</g>
<!-- Node1&#45;&gt;Node9 -->
<g id="edge13" class="edge"><title>Node1&#45;&gt;Node9</title>
<path fill="none" stroke="midnightblue" d="M256.977,-230.239C216.289,-225.81 146.222,-214.712 92.285,-188 57.507,-170.776 41.7205,-167.157 25.285,-132 14.5557,-109.049 42.8963,-87.2684 62.1527,-75.6703"/>
<polygon fill="midnightblue" stroke="midnightblue" points="256.845,-233.744 267.148,-231.273 257.554,-226.78 256.845,-233.744"/>
</g>
<!-- Node10 -->
<g id="node10" class="node"><title>Node10</title>
<g id="a_node10"><a xlink:href="hermite__particle_8h.html" target="_top" xlink:title="hermite_particle.h">
<polygon fill="white" stroke="black" points="474.785,-168.5 474.785,-187.5 567.785,-187.5 567.785,-168.5 474.785,-168.5"/>
<text text-anchor="middle" x="521.285" y="-175.5" font-family="FreeSans" font-size="10.00">hermite_particle.h</text>
</a>
</g>
</g>
<!-- Node1&#45;&gt;Node10 -->
<g id="edge16" class="edge"><title>Node1&#45;&gt;Node10</title>
<path fill="none" stroke="midnightblue" d="M323.609,-225.21C366.351,-215.218 440.237,-197.946 484.56,-187.585"/>
<polygon fill="midnightblue" stroke="midnightblue" points="322.647,-221.841 313.706,-227.525 324.24,-228.657 322.647,-221.841"/>
</g>
<!-- Node11 -->
<g id="node11" class="node"><title>Node11</title>
<g id="a_node11"><a xlink:href="neighbor_8h.html" target="_top" xlink:title="neighbor.h">
<polygon fill="white" stroke="black" points="491.785,-56.5 491.785,-75.5 552.785,-75.5 552.785,-56.5 491.785,-56.5"/>
<text text-anchor="middle" x="522.285" y="-63.5" font-family="FreeSans" font-size="10.00">neighbor.h</text>
</a>
</g>
</g>
<!-- Node1&#45;&gt;Node11 -->
<g id="edge21" class="edge"><title>Node1&#45;&gt;Node11</title>
<path fill="none" stroke="midnightblue" d="M323.768,-232.927C392.15,-231.991 544.118,-225.624 576.285,-188 606.781,-152.331 554.383,-96.6733 531.839,-75.534"/>
<polygon fill="midnightblue" stroke="midnightblue" points="323.505,-229.429 313.542,-233.035 323.579,-236.429 323.505,-229.429"/>
</g>
<!-- Node12 -->
<g id="node12" class="node"><title>Node12</title>
<g id="a_node12"><a xlink:href="list_8h.html" target="_top" xlink:title="list.h">
<polygon fill="white" stroke="black" points="382.285,-168.5 382.285,-187.5 418.285,-187.5 418.285,-168.5 382.285,-168.5"/>
<text text-anchor="middle" x="400.285" y="-175.5" font-family="FreeSans" font-size="10.00">list.h</text>
</a>
</g>
</g>
<!-- Node1&#45;&gt;Node12 -->
<g id="edge22" class="edge"><title>Node1&#45;&gt;Node12</title>
<path fill="none" stroke="midnightblue" d="M317.047,-219.862C337.444,-209.849 364.951,-196.346 382.656,-187.655"/>
<polygon fill="midnightblue" stroke="midnightblue" points="315.393,-216.775 307.958,-224.324 318.478,-223.059 315.393,-216.775"/>
</g>
<!-- Node13 -->
<g id="node13" class="node"><title>Node13</title>
<g id="a_node13"><a xlink:href="particle__group_8h.html" target="_top" xlink:title="particle_group.h">
<polygon fill="white" stroke="black" points="444.785,-112.5 444.785,-131.5 529.785,-131.5 529.785,-112.5 444.785,-112.5"/>
<text text-anchor="middle" x="487.285" y="-119.5" font-family="FreeSans" font-size="10.00">particle_group.h</text>
</a>
</g>
</g>
<!-- Node1&#45;&gt;Node13 -->
<g id="edge29" class="edge"><title>Node1&#45;&gt;Node13</title>
<path fill="none" stroke="midnightblue" d="M323.472,-227.036C352.567,-220.701 395.12,-208.679 427.285,-188 451.054,-172.719 471.651,-145.825 481.357,-131.906"/>
<polygon fill="midnightblue" stroke="midnightblue" points="322.49,-223.664 313.406,-229.117 323.908,-230.519 322.49,-223.664"/>
</g>
<!-- Node3 -->
<g id="node3" class="node"><title>Node3</title>
<g id="a_node3"><a xlink:href="symplectic__integrator_8h.html" target="_top" xlink:title="symplectic_integrator.h">
<polygon fill="white" stroke="black" points="178.285,-56.5 178.285,-75.5 294.285,-75.5 294.285,-56.5 178.285,-56.5"/>
<text text-anchor="middle" x="236.285" y="-63.5" font-family="FreeSans" font-size="10.00">symplectic_integrator.h</text>
</a>
</g>
</g>
<!-- Node2&#45;&gt;Node3 -->
<g id="edge2" class="edge"><title>Node2&#45;&gt;Node3</title>
<path fill="none" stroke="midnightblue" d="M90.1797,-111.076C123.977,-100.881 176.041,-85.1743 208.035,-75.5225"/>
<polygon fill="midnightblue" stroke="midnightblue" points="88.8827,-107.812 80.3197,-114.051 90.9044,-114.514 88.8827,-107.812"/>
</g>
<!-- Node3&#45;&gt;Node4 -->
<g id="edge3" class="edge"><title>Node3&#45;&gt;Node4</title>
<path fill="none" stroke="midnightblue" d="M262.804,-51.8622C283.015,-41.8492 310.272,-28.3458 327.816,-19.6545"/>
<polygon fill="midnightblue" stroke="midnightblue" points="261.205,-48.7485 253.798,-56.324 264.312,-55.0209 261.205,-48.7485"/>
</g>
<!-- Node5&#45;&gt;Node3 -->
<g id="edge5" class="edge"><title>Node5&#45;&gt;Node3</title>
<path fill="none" stroke="midnightblue" d="M277.652,-160.107C271.878,-151.9 265.237,-141.727 260.285,-132 250.462,-112.703 242.588,-88.4076 238.778,-75.6827"/>
<polygon fill="midnightblue" stroke="midnightblue" points="274.966,-162.366 283.668,-168.41 280.635,-158.258 274.966,-162.366"/>
</g>
<!-- Node5&#45;&gt;Node6 -->
<g id="edge6" class="edge"><title>Node5&#45;&gt;Node6</title>
<path fill="none" stroke="midnightblue" d="M306.579,-161.002C316.326,-151.433 328.338,-139.639 336.372,-131.751"/>
<polygon fill="midnightblue" stroke="midnightblue" points="304.051,-158.58 299.367,-168.083 308.955,-163.575 304.051,-158.58"/>
</g>
<!-- Node6&#45;&gt;Node4 -->
<g id="edge7" class="edge"><title>Node6&#45;&gt;Node4</title>
<path fill="none" stroke="midnightblue" d="M345.285,-102.348C345.285,-78.2538 345.285,-37.3079 345.285,-19.5914"/>
<polygon fill="midnightblue" stroke="midnightblue" points="341.785,-102.368 345.285,-112.368 348.785,-102.369 341.785,-102.368"/>
</g>
<!-- Node7&#45;&gt;Node3 -->
<g id="edge9" class="edge"><title>Node7&#45;&gt;Node3</title>
<path fill="none" stroke="midnightblue" d="M159.616,-107.59C178.475,-97.6052 203.669,-84.2672 219.938,-75.6545"/>
<polygon fill="midnightblue" stroke="midnightblue" points="157.873,-104.552 150.673,-112.324 161.149,-110.738 157.873,-104.552"/>
</g>
<!-- Node8&#45;&gt;Node3 -->
<g id="edge11" class="edge"><title>Node8&#45;&gt;Node3</title>
<path fill="none" stroke="midnightblue" d="M196.977,-158.998C207.232,-134.997 224.976,-93.4683 232.614,-75.5914"/>
<polygon fill="midnightblue" stroke="midnightblue" points="193.684,-157.798 192.973,-168.368 200.121,-160.548 193.684,-157.798"/>
</g>
<!-- Node9&#45;&gt;Node4 -->
<g id="edge14" class="edge"><title>Node9&#45;&gt;Node4</title>
<path fill="none" stroke="midnightblue" d="M130.649,-54.4096C181.109,-44.2042 256.484,-28.9597 303.176,-19.5164"/>
<polygon fill="midnightblue" stroke="midnightblue" points="129.7,-51.0306 120.592,-56.4435 131.087,-57.8917 129.7,-51.0306"/>
</g>
<!-- Node10&#45;&gt;Node4 -->
<g id="edge18" class="edge"><title>Node10&#45;&gt;Node4</title>
<path fill="none" stroke="midnightblue" d="M535.588,-160.546C555.59,-135.475 586.757,-87.3256 561.285,-56 540.895,-30.9238 453.53,-19.3538 396.348,-14.3799"/>
<polygon fill="midnightblue" stroke="midnightblue" points="532.777,-158.453 529.09,-168.386 538.166,-162.92 532.777,-158.453"/>
</g>
<!-- Node10&#45;&gt;Node6 -->
<g id="edge17" class="edge"><title>Node10&#45;&gt;Node6</title>
<path fill="none" stroke="midnightblue" d="M483.596,-165.436C450.413,-155.255 402.857,-140.664 373.042,-131.516"/>
<polygon fill="midnightblue" stroke="midnightblue" points="482.811,-168.856 493.397,-168.444 484.864,-162.164 482.811,-168.856"/>
</g>
<!-- Node10&#45;&gt;Node11 -->
<g id="edge19" class="edge"><title>Node10&#45;&gt;Node11</title>
<path fill="none" stroke="midnightblue" d="M529.731,-159.145C533.11,-151.052 536.597,-141.243 538.285,-132 542.001,-111.65 532.814,-88.1744 526.871,-75.7581"/>
<polygon fill="midnightblue" stroke="midnightblue" points="526.522,-157.748 525.651,-168.307 532.916,-160.595 526.522,-157.748"/>
</g>
<!-- Node11&#45;&gt;Node4 -->
<g id="edge20" class="edge"><title>Node11&#45;&gt;Node4</title>
<path fill="none" stroke="midnightblue" d="M484.382,-53.4363C451.01,-43.2551 403.184,-28.664 373.2,-19.5164"/>
<polygon fill="midnightblue" stroke="midnightblue" points="483.653,-56.8731 494.239,-56.4435 485.695,-50.1777 483.653,-56.8731"/>
</g>
<!-- Node12&#45;&gt;Node3 -->
<g id="edge23" class="edge"><title>Node12&#45;&gt;Node3</title>
<path fill="none" stroke="midnightblue" d="M372.274,-169.084C349.588,-161.802 317.529,-149.473 293.285,-132 270.881,-115.853 251.236,-89.3382 241.959,-75.7009"/>
<polygon fill="midnightblue" stroke="midnightblue" points="371.389,-172.474 381.976,-172.075 373.451,-165.784 371.389,-172.474"/>
</g>
<!-- Node12&#45;&gt;Node4 -->
<g id="edge25" class="edge"><title>Node12&#45;&gt;Node4</title>
<path fill="none" stroke="midnightblue" d="M401.513,-158.248C401.872,-145.087 401.34,-127.195 397.285,-112 387.471,-75.2231 362.899,-36.493 351.4,-19.6579"/>
<polygon fill="midnightblue" stroke="midnightblue" points="398.009,-158.256 401.035,-168.41 405.001,-158.585 398.009,-158.256"/>
</g>
<!-- Node12&#45;&gt;Node6 -->
<g id="edge24" class="edge"><title>Node12&#45;&gt;Node6</title>
<path fill="none" stroke="midnightblue" d="M383.991,-161.002C374.244,-151.433 362.232,-139.639 354.198,-131.751"/>
<polygon fill="midnightblue" stroke="midnightblue" points="381.615,-163.575 391.203,-168.083 386.519,-158.58 381.615,-163.575"/>
</g>
<!-- Node12&#45;&gt;Node13 -->
<g id="edge26" class="edge"><title>Node12&#45;&gt;Node13</title>
<path fill="none" stroke="midnightblue" d="M423.001,-162.901C438.954,-152.999 459.782,-140.071 473.342,-131.655"/>
<polygon fill="midnightblue" stroke="midnightblue" points="420.914,-160.077 414.263,-168.324 424.605,-166.024 420.914,-160.077"/>
</g>
<!-- Node13&#45;&gt;Node3 -->
<g id="edge27" class="edge"><title>Node13&#45;&gt;Node3</title>
<path fill="none" stroke="midnightblue" d="M437.464,-110.281C390.032,-100.077 319.581,-84.9203 275.871,-75.5164"/>
<polygon fill="midnightblue" stroke="midnightblue" points="437.001,-113.762 447.513,-112.444 438.473,-106.918 437.001,-113.762"/>
</g>
<!-- Node13&#45;&gt;Node11 -->
<g id="edge28" class="edge"><title>Node13&#45;&gt;Node11</title>
<path fill="none" stroke="midnightblue" d="M498.585,-103.566C504.607,-94.2747 511.754,-83.2484 516.613,-75.7511"/>
<polygon fill="midnightblue" stroke="midnightblue" points="495.567,-101.788 493.065,-112.083 501.441,-105.595 495.567,-101.788"/>
</g>
</g>
</svg>
