<?xml version="1.0" encoding="UTF-8" standalone="no"?>
<!DOCTYPE svg PUBLIC "-//W3C//DTD SVG 1.1//EN"
 "http://www.w3.org/Graphics/SVG/1.1/DTD/svg11.dtd">
<!-- Generated by graphviz version 2.43.0 (0)
 -->
<!-- Title: Float.h Pages: 1 -->
<!--zoomable 308 -->
<svg id="main" version="1.1" xmlns="http://www.w3.org/2000/svg" xmlns:xlink="http://www.w3.org/1999/xlink" xml:space="preserve" onload="init(evt)">
<style type="text/css"><![CDATA[
.edge:hover path { stroke: red; }
.edge:hover polygon { stroke: red; fill: red; }
]]></style>
<script type="text/javascript"><![CDATA[
var edges = document.getElementsByTagName('g');
if (edges && edges.length) {
  for (var i=0;i<edges.length;i++) {
    if (edges[i].id.substr(0,4)=='edge') {
      edges[i].setAttribute('class','edge');
    }
  }
}
]]></script>
        <defs>
                <circle id="rim" cx="0" cy="0" r="7"/>
                <circle id="rim2" cx="0" cy="0" r="3.5"/>
                <g id="zoomPlus">
                        <use xlink:href="#rim" fill="#404040">
                                <set attributeName="fill" to="#808080" begin="zoomplus.mouseover" end="zoomplus.mouseout"/>
                        </use>
                        <path d="M-4,0h8M0,-4v8" fill="none" stroke="white" stroke-width="1.5" pointer-events="none"/>
                </g>
                <g id="zoomMin">
                        <use xlink:href="#rim" fill="#404040">
                                <set attributeName="fill" to="#808080" begin="zoomminus.mouseover" end="zoomminus.mouseout"/>
                        </use>
                        <path d="M-4,0h8" fill="none" stroke="white" stroke-width="1.5" pointer-events="none"/>
                </g>
                <g id="dirArrow">
                        <path fill="none" stroke="white" stroke-width="1.5" d="M0,-3.0v7 M-2.5,-0.5L0,-3.0L2.5,-0.5"/>
                </g>
               <g id="resetDef">
                       <use xlink:href="#rim2" fill="#404040">
                               <set attributeName="fill" to="#808080" begin="reset.mouseover" end="reset.mouseout"/>
                       </use>
               </g>
        </defs>

<script type="text/javascript">
var viewWidth = 789;
var viewHeight = 308;
var sectionId = 'dynsection-1';
</script>
<script xlink:href="svgpan.js"/>
<svg id="graph" class="graph">
<g id="viewport">
<title>Float.h</title>
<polygon fill="white" stroke="transparent" points="-4,4 -4,-304 785.48,-304 785.48,4 -4,4"/>
<!-- Node1 -->
<g id="node1" class="node">
<title>Node1</title>
<g id="a_node1"><a xlink:title=" ">
<polygon fill="#bfbfbf" stroke="black" points="355.98,-280.5 355.98,-299.5 401.98,-299.5 401.98,-280.5 355.98,-280.5"/>
<text text-anchor="middle" x="378.98" y="-287.5" font-family="FreeSans" font-size="10.00">Float.h</text>
</a>
</g>
</g>
<!-- Node2 -->
<g id="node2" class="node">
<title>Node2</title>
<g id="a_node2"><a xlink:href="force_8h.html" target="_top" xlink:title=" ">
<polygon fill="white" stroke="black" points="100.98,-168.5 100.98,-187.5 146.98,-187.5 146.98,-168.5 100.98,-168.5"/>
<text text-anchor="middle" x="123.98" y="-175.5" font-family="FreeSans" font-size="10.00">force.h</text>
</a>
</g>
</g>
<!-- Node1&#45;&gt;Node2 -->
<g id="edge1" class="edge">
<title>Node1&#45;&gt;Node2</title>
<path fill="none" stroke="midnightblue" d="M345.45,-288.68C302.3,-286.79 226.54,-278.33 172.98,-244 150.85,-229.82 135.01,-201.93 128,-187.74"/>
<polygon fill="midnightblue" stroke="midnightblue" points="345.57,-292.18 355.68,-289.03 345.81,-285.19 345.57,-292.18"/>
</g>
<!-- Node4 -->
<g id="node4" class="node">
<title>Node4</title>
<g id="a_node4"><a xlink:href="hermite__integrator_8h.html" target="_top" xlink:title=" ">
<polygon fill="white" stroke="black" points="406.98,-0.5 406.98,-19.5 508.98,-19.5 508.98,-0.5 406.98,-0.5"/>
<text text-anchor="middle" x="457.98" y="-7.5" font-family="FreeSans" font-size="10.00">hermite_integrator.h</text>
</a>
</g>
</g>
<!-- Node1&#45;&gt;Node4 -->
<g id="edge18" class="edge">
<title>Node1&#45;&gt;Node4</title>
<path fill="none" stroke="midnightblue" d="M345.37,-289.33C265.72,-289.41 68.5,-285.33 19.98,-244 -2.93,-224.48 0.98,-209.1 0.98,-179 0.98,-179 0.98,-179 0.98,-121 0.98,-38.27 287.63,-17.59 406.88,-12.56"/>
<polygon fill="midnightblue" stroke="midnightblue" points="345.82,-292.83 355.8,-289.29 345.79,-285.83 345.82,-292.83"/>
</g>
<!-- Node5 -->
<g id="node5" class="node">
<title>Node5</title>
<g id="a_node5"><a xlink:href="information_8h.html" target="_top" xlink:title=" ">
<polygon fill="white" stroke="black" points="233.98,-168.5 233.98,-187.5 305.98,-187.5 305.98,-168.5 233.98,-168.5"/>
<text text-anchor="middle" x="269.98" y="-175.5" font-family="FreeSans" font-size="10.00">information.h</text>
</a>
</g>
</g>
<!-- Node1&#45;&gt;Node5 -->
<g id="edge4" class="edge">
<title>Node1&#45;&gt;Node5</title>
<path fill="none" stroke="midnightblue" d="M348.72,-276.09C333.55,-268.46 315.74,-257.62 302.98,-244 287.05,-227.01 276.97,-200.86 272.56,-187.5"/>
<polygon fill="midnightblue" stroke="midnightblue" points="347.23,-279.25 357.76,-280.42 350.25,-272.94 347.23,-279.25"/>
</g>
<!-- Node7 -->
<g id="node7" class="node">
<title>Node7</title>
<g id="a_node7"><a xlink:href="ar__information_8h.html" target="_top" xlink:title=" ">
<polygon fill="white" stroke="black" points="305.98,-112.5 305.98,-131.5 391.98,-131.5 391.98,-112.5 305.98,-112.5"/>
<text text-anchor="middle" x="348.98" y="-119.5" font-family="FreeSans" font-size="10.00">ar_information.h</text>
</a>
</g>
</g>
<!-- Node1&#45;&gt;Node7 -->
<g id="edge15" class="edge">
<title>Node1&#45;&gt;Node7</title>
<path fill="none" stroke="midnightblue" d="M386.64,-270.52C391.06,-257.51 395.18,-239.68 391.98,-224 384.59,-187.77 363.7,-148.45 354.02,-131.53"/>
<polygon fill="midnightblue" stroke="midnightblue" points="383.26,-269.57 383,-280.16 389.81,-272.04 383.26,-269.57"/>
</g>
<!-- Node8 -->
<g id="node8" class="node">
<title>Node8</title>
<g id="a_node8"><a xlink:href="slow__down_8h.html" target="_top" xlink:title=" ">
<polygon fill="white" stroke="black" points="181.48,-224.5 181.48,-243.5 254.48,-243.5 254.48,-224.5 181.48,-224.5"/>
<text text-anchor="middle" x="217.98" y="-231.5" font-family="FreeSans" font-size="10.00">slow_down.h</text>
</a>
</g>
</g>
<!-- Node1&#45;&gt;Node8 -->
<g id="edge10" class="edge">
<title>Node1&#45;&gt;Node8</title>
<path fill="none" stroke="midnightblue" d="M346.19,-278C315.79,-267.81 271.18,-252.84 243.39,-243.52"/>
<polygon fill="midnightblue" stroke="midnightblue" points="345.32,-281.4 355.91,-281.26 347.54,-274.76 345.32,-281.4"/>
</g>
<!-- Node9 -->
<g id="node9" class="node">
<title>Node9</title>
<g id="a_node9"><a xlink:href="symplectic__step_8h.html" target="_top" xlink:title=" ">
<polygon fill="white" stroke="black" points="29.48,-224.5 29.48,-243.5 124.48,-243.5 124.48,-224.5 29.48,-224.5"/>
<text text-anchor="middle" x="76.98" y="-231.5" font-family="FreeSans" font-size="10.00">symplectic_step.h</text>
</a>
</g>
</g>
<!-- Node1&#45;&gt;Node9 -->
<g id="edge13" class="edge">
<title>Node1&#45;&gt;Node9</title>
<path fill="none" stroke="midnightblue" d="M345.78,-283.06C292.16,-273.48 186.27,-254.54 124.61,-243.52"/>
<polygon fill="midnightblue" stroke="midnightblue" points="345.32,-286.54 355.78,-284.85 346.55,-279.65 345.32,-286.54"/>
</g>
<!-- Node10 -->
<g id="node10" class="node">
<title>Node10</title>
<g id="a_node10"><a xlink:href="block__time__step_8h.html" target="_top" xlink:title=" ">
<polygon fill="white" stroke="black" points="686.48,-56.5 686.48,-75.5 781.48,-75.5 781.48,-56.5 686.48,-56.5"/>
<text text-anchor="middle" x="733.98" y="-63.5" font-family="FreeSans" font-size="10.00">block_time_step.h</text>
</a>
</g>
</g>
<!-- Node1&#45;&gt;Node10 -->
<g id="edge16" class="edge">
<title>Node1&#45;&gt;Node10</title>
<path fill="none" stroke="midnightblue" d="M412.32,-289.58C461.15,-289 553.52,-282.35 619.98,-244 688.36,-204.54 722.51,-105.66 731.51,-75.72"/>
<polygon fill="midnightblue" stroke="midnightblue" points="412.29,-286.08 402.3,-289.62 412.32,-293.08 412.29,-286.08"/>
</g>
<!-- Node11 -->
<g id="node11" class="node">
<title>Node11</title>
<g id="a_node11"><a xlink:href="hermite__particle_8h.html" target="_top" xlink:title=" ">
<polygon fill="white" stroke="black" points="548.48,-168.5 548.48,-187.5 641.48,-187.5 641.48,-168.5 548.48,-168.5"/>
<text text-anchor="middle" x="594.98" y="-175.5" font-family="FreeSans" font-size="10.00">hermite_particle.h</text>
</a>
</g>
</g>
<!-- Node1&#45;&gt;Node11 -->
<g id="edge19" class="edge">
<title>Node1&#45;&gt;Node11</title>
<path fill="none" stroke="midnightblue" d="M412.21,-283.04C442.75,-276.58 488.5,-264.37 523.98,-244 550.65,-228.69 575.66,-201.81 587.62,-187.9"/>
<polygon fill="midnightblue" stroke="midnightblue" points="411.2,-279.67 402.09,-285.09 412.59,-286.53 411.2,-279.67"/>
</g>
<!-- Node12 -->
<g id="node12" class="node">
<title>Node12</title>
<g id="a_node12"><a xlink:href="neighbor_8h.html" target="_top" xlink:title=" ">
<polygon fill="white" stroke="black" points="607.48,-56.5 607.48,-75.5 668.48,-75.5 668.48,-56.5 607.48,-56.5"/>
<text text-anchor="middle" x="637.98" y="-63.5" font-family="FreeSans" font-size="10.00">neighbor.h</text>
</a>
</g>
</g>
<!-- Node1&#45;&gt;Node12 -->
<g id="edge24" class="edge">
<title>Node1&#45;&gt;Node12</title>
<path fill="none" stroke="midnightblue" d="M412.33,-288.86C473.56,-286.53 602.08,-271.43 650.98,-188 672.67,-151 651.78,-96.59 642.21,-75.65"/>
<polygon fill="midnightblue" stroke="midnightblue" points="411.96,-285.37 402.06,-289.16 412.16,-292.37 411.96,-285.37"/>
</g>
<!-- Node13 -->
<g id="node13" class="node">
<title>Node13</title>
<g id="a_node13"><a xlink:href="binary__tree_8h.html" target="_top" xlink:title=" ">
<polygon fill="white" stroke="black" points="311.48,-224.5 311.48,-243.5 382.48,-243.5 382.48,-224.5 311.48,-224.5"/>
<text text-anchor="middle" x="346.98" y="-231.5" font-family="FreeSans" font-size="10.00">binary_tree.h</text>
</a>
</g>
</g>
<!-- Node1&#45;&gt;Node13 -->
<g id="edge25" class="edge">
<title>Node1&#45;&gt;Node13</title>
<path fill="none" stroke="midnightblue" d="M368.47,-271.27C363,-262.05 356.56,-251.17 352.16,-243.75"/>
<polygon fill="midnightblue" stroke="midnightblue" points="365.58,-273.26 373.69,-280.08 371.61,-269.7 365.58,-273.26"/>
</g>
<!-- Node14 -->
<g id="node14" class="node">
<title>Node14</title>
<g id="a_node14"><a xlink:href="list_8h.html" target="_top" xlink:title=" ">
<polygon fill="white" stroke="black" points="439.48,-168.5 439.48,-187.5 476.48,-187.5 476.48,-168.5 439.48,-168.5"/>
<text text-anchor="middle" x="457.98" y="-175.5" font-family="FreeSans" font-size="10.00">list.h</text>
</a>
</g>
</g>
<!-- Node1&#45;&gt;Node14 -->
<g id="edge28" class="edge">
<title>Node1&#45;&gt;Node14</title>
<path fill="none" stroke="midnightblue" d="M397.54,-273.43C406.54,-265.27 417.08,-254.76 424.98,-244 438.46,-225.63 449.3,-200.96 454.54,-187.93"/>
<polygon fill="midnightblue" stroke="midnightblue" points="395.04,-270.97 389.83,-280.2 399.66,-276.23 395.04,-270.97"/>
</g>
<!-- Node15 -->
<g id="node15" class="node">
<title>Node15</title>
<g id="a_node15"><a xlink:href="particle__group_8h.html" target="_top" xlink:title=" ">
<polygon fill="white" stroke="black" points="486.48,-112.5 486.48,-131.5 571.48,-131.5 571.48,-112.5 486.48,-112.5"/>
<text text-anchor="middle" x="528.98" y="-119.5" font-family="FreeSans" font-size="10.00">particle_group.h</text>
</a>
</g>
</g>
<!-- Node1&#45;&gt;Node15 -->
<g id="edge35" class="edge">
<title>Node1&#45;&gt;Node15</title>
<path fill="none" stroke="midnightblue" d="M403,-275C415.9,-266.86 431.65,-255.87 443.98,-244 481.52,-207.86 512.97,-152.95 524.38,-131.76"/>
<polygon fill="midnightblue" stroke="midnightblue" points="400.89,-272.19 394.19,-280.4 404.55,-278.16 400.89,-272.19"/>
</g>
<!-- Node3 -->
<g id="node3" class="node">
<title>Node3</title>
<g id="a_node3"><a xlink:href="symplectic__integrator_8h.html" target="_top" xlink:title=" ">
<polygon fill="white" stroke="black" points="170.98,-56.5 170.98,-75.5 286.98,-75.5 286.98,-56.5 170.98,-56.5"/>
<text text-anchor="middle" x="228.98" y="-63.5" font-family="FreeSans" font-size="10.00">symplectic_integrator.h</text>
</a>
</g>
</g>
<!-- Node2&#45;&gt;Node3 -->
<g id="edge2" class="edge">
<title>Node2&#45;&gt;Node3</title>
<path fill="none" stroke="midnightblue" d="M127.19,-158.46C130.42,-144.39 136.61,-125.26 147.98,-112 162.85,-94.66 186.14,-82.71 203.94,-75.51"/>
<polygon fill="midnightblue" stroke="midnightblue" points="123.72,-157.96 125.19,-168.46 130.58,-159.34 123.72,-157.96"/>
</g>
<!-- Node3&#45;&gt;Node4 -->
<g id="edge3" class="edge">
<title>Node3&#45;&gt;Node4</title>
<path fill="none" stroke="midnightblue" d="M275.25,-54.09C318.51,-43.89 382.23,-28.86 421.86,-19.52"/>
<polygon fill="midnightblue" stroke="midnightblue" points="274.19,-50.74 265.26,-56.44 275.8,-57.55 274.19,-50.74"/>
</g>
<!-- Node5&#45;&gt;Node3 -->
<g id="edge7" class="edge">
<title>Node5&#45;&gt;Node3</title>
<path fill="none" stroke="midnightblue" d="M246.73,-162.68C236.49,-154.99 225.55,-144.5 219.98,-132 211.64,-113.27 219.47,-88.74 224.86,-75.83"/>
<polygon fill="midnightblue" stroke="midnightblue" points="244.82,-165.62 255.03,-168.47 248.83,-159.88 244.82,-165.62"/>
</g>
<!-- Node6 -->
<g id="node6" class="node">
<title>Node6</title>
<g id="a_node6"><a xlink:href="interrupt_8h.html" target="_top" xlink:title=" ">
<polygon fill="white" stroke="black" points="228.48,-112.5 228.48,-131.5 287.48,-131.5 287.48,-112.5 228.48,-112.5"/>
<text text-anchor="middle" x="257.98" y="-119.5" font-family="FreeSans" font-size="10.00">interrupt.h</text>
</a>
</g>
</g>
<!-- Node5&#45;&gt;Node6 -->
<g id="edge5" class="edge">
<title>Node5&#45;&gt;Node6</title>
<path fill="none" stroke="midnightblue" d="M265.78,-158.1C263.79,-149.14 261.5,-138.86 259.92,-131.75"/>
<polygon fill="midnightblue" stroke="midnightblue" points="262.41,-159.08 268,-168.08 269.24,-157.56 262.41,-159.08"/>
</g>
<!-- Node5&#45;&gt;Node7 -->
<g id="edge8" class="edge">
<title>Node5&#45;&gt;Node7</title>
<path fill="none" stroke="midnightblue" d="M291.01,-162.62C305.44,-152.76 324.12,-139.99 336.32,-131.65"/>
<polygon fill="midnightblue" stroke="midnightblue" points="288.95,-159.79 282.67,-168.32 292.9,-165.57 288.95,-159.79"/>
</g>
<!-- Node6&#45;&gt;Node3 -->
<g id="edge6" class="edge">
<title>Node6&#45;&gt;Node3</title>
<path fill="none" stroke="midnightblue" d="M248.3,-102.98C243.38,-93.82 237.62,-83.09 233.68,-75.75"/>
<polygon fill="midnightblue" stroke="midnightblue" points="245.37,-104.93 253.19,-112.08 251.54,-101.62 245.37,-104.93"/>
</g>
<!-- Node7&#45;&gt;Node4 -->
<g id="edge9" class="edge">
<title>Node7&#45;&gt;Node4</title>
<path fill="none" stroke="midnightblue" d="M364.63,-105.21C387.99,-81.63 431.19,-38.03 449.46,-19.59"/>
<polygon fill="midnightblue" stroke="midnightblue" points="362.08,-102.8 357.53,-112.37 367.06,-107.73 362.08,-102.8"/>
</g>
<!-- Node8&#45;&gt;Node3 -->
<g id="edge12" class="edge">
<title>Node8&#45;&gt;Node3</title>
<path fill="none" stroke="midnightblue" d="M214.42,-214.27C210.46,-190.34 205.45,-147.74 211.98,-112 214.38,-98.86 220.42,-84.56 224.61,-75.69"/>
<polygon fill="midnightblue" stroke="midnightblue" points="211.02,-215.17 216.21,-224.4 217.91,-213.95 211.02,-215.17"/>
</g>
<!-- Node8&#45;&gt;Node5 -->
<g id="edge11" class="edge">
<title>Node8&#45;&gt;Node5</title>
<path fill="none" stroke="midnightblue" d="M233.66,-216.72C242.82,-207.2 254.03,-195.56 261.55,-187.75"/>
<polygon fill="midnightblue" stroke="midnightblue" points="230.98,-214.45 226.56,-224.08 236.02,-219.31 230.98,-214.45"/>
</g>
<!-- Node9&#45;&gt;Node3 -->
<g id="edge14" class="edge">
<title>Node9&#45;&gt;Node3</title>
<path fill="none" stroke="midnightblue" d="M79.36,-213.94C81.5,-200.63 85.35,-182.7 91.98,-168 104.55,-140.12 108.44,-131.53 131.98,-112 152.55,-94.93 180.67,-82.83 201.34,-75.5"/>
<polygon fill="midnightblue" stroke="midnightblue" points="75.84,-213.85 77.89,-224.24 82.77,-214.83 75.84,-213.85"/>
</g>
<!-- Node10&#45;&gt;Node4 -->
<g id="edge17" class="edge">
<title>Node10&#45;&gt;Node4</title>
<path fill="none" stroke="midnightblue" d="M680.18,-54.47C628.01,-44.27 549.87,-28.98 501.51,-19.52"/>
<polygon fill="midnightblue" stroke="midnightblue" points="679.76,-57.96 690.24,-56.44 681.1,-51.09 679.76,-57.96"/>
</g>
<!-- Node11&#45;&gt;Node4 -->
<g id="edge21" class="edge">
<title>Node11&#45;&gt;Node4</title>
<path fill="none" stroke="midnightblue" d="M594.21,-158.19C592.9,-144.51 589.53,-126.01 580.98,-112 554.22,-68.12 501.41,-34.69 474.54,-19.68"/>
<polygon fill="midnightblue" stroke="midnightblue" points="590.72,-158.6 594.89,-168.34 597.71,-158.13 590.72,-158.6"/>
</g>
<!-- Node11&#45;&gt;Node7 -->
<g id="edge20" class="edge">
<title>Node11&#45;&gt;Node7</title>
<path fill="none" stroke="midnightblue" d="M546.15,-166.28C499.66,-156.08 430.61,-140.92 387.78,-131.52"/>
<polygon fill="midnightblue" stroke="midnightblue" points="545.48,-169.72 556,-168.44 546.98,-162.88 545.48,-169.72"/>
</g>
<!-- Node11&#45;&gt;Node12 -->
<g id="edge22" class="edge">
<title>Node11&#45;&gt;Node12</title>
<path fill="none" stroke="midnightblue" d="M602.76,-159.1C606.27,-150.88 610.43,-140.98 613.98,-132 621.85,-112.09 630.38,-88.44 634.84,-75.88"/>
<polygon fill="midnightblue" stroke="midnightblue" points="599.48,-157.85 598.74,-168.42 605.91,-160.62 599.48,-157.85"/>
</g>
<!-- Node12&#45;&gt;Node4 -->
<g id="edge23" class="edge">
<title>Node12&#45;&gt;Node4</title>
<path fill="none" stroke="midnightblue" d="M599.87,-53.57C565.91,-43.38 516.99,-28.7 486.37,-19.52"/>
<polygon fill="midnightblue" stroke="midnightblue" points="598.87,-56.92 609.46,-56.44 600.88,-50.22 598.87,-56.92"/>
</g>
<!-- Node13&#45;&gt;Node5 -->
<g id="edge26" class="edge">
<title>Node13&#45;&gt;Node5</title>
<path fill="none" stroke="midnightblue" d="M326.08,-218.34C312.07,-208.52 294.1,-195.91 282.32,-187.65"/>
<polygon fill="midnightblue" stroke="midnightblue" points="324.41,-221.45 334.61,-224.32 328.43,-215.72 324.41,-221.45"/>
</g>
<!-- Node13&#45;&gt;Node7 -->
<g id="edge27" class="edge">
<title>Node13&#45;&gt;Node7</title>
<path fill="none" stroke="midnightblue" d="M347.32,-214.35C347.76,-190.25 348.5,-149.31 348.82,-131.59"/>
<polygon fill="midnightblue" stroke="midnightblue" points="343.82,-214.31 347.13,-224.37 350.82,-214.43 343.82,-214.31"/>
</g>
<!-- Node14&#45;&gt;Node3 -->
<g id="edge29" class="edge">
<title>Node14&#45;&gt;Node3</title>
<path fill="none" stroke="midnightblue" d="M447.13,-159.64C436.97,-144.81 420.46,-124.04 400.98,-112 366.58,-90.75 322.35,-79.46 287.35,-73.51"/>
<polygon fill="midnightblue" stroke="midnightblue" points="444.44,-161.93 452.85,-168.37 450.29,-158.09 444.44,-161.93"/>
</g>
<!-- Node14&#45;&gt;Node4 -->
<g id="edge31" class="edge">
<title>Node14&#45;&gt;Node4</title>
<path fill="none" stroke="midnightblue" d="M457.98,-157.93C457.98,-121.92 457.98,-45.23 457.98,-19.57"/>
<polygon fill="midnightblue" stroke="midnightblue" points="454.48,-158.08 457.98,-168.08 461.48,-158.08 454.48,-158.08"/>
</g>
<!-- Node14&#45;&gt;Node7 -->
<g id="edge30" class="edge">
<title>Node14&#45;&gt;Node7</title>
<path fill="none" stroke="midnightblue" d="M431.46,-163.86C411.25,-153.85 383.99,-140.35 366.45,-131.65"/>
<polygon fill="midnightblue" stroke="midnightblue" points="429.95,-167.02 440.47,-168.32 433.06,-160.75 429.95,-167.02"/>
</g>
<!-- Node14&#45;&gt;Node15 -->
<g id="edge32" class="edge">
<title>Node14&#45;&gt;Node15</title>
<path fill="none" stroke="midnightblue" d="M477.57,-162.1C490.35,-152.38 506.59,-140.03 517.36,-131.83"/>
<polygon fill="midnightblue" stroke="midnightblue" points="475.23,-159.48 469.39,-168.32 479.46,-165.06 475.23,-159.48"/>
</g>
<!-- Node15&#45;&gt;Node3 -->
<g id="edge33" class="edge">
<title>Node15&#45;&gt;Node3</title>
<path fill="none" stroke="midnightblue" d="M476.15,-111.49C419.64,-101.32 330.81,-85.33 276.44,-75.54"/>
<polygon fill="midnightblue" stroke="midnightblue" points="475.85,-114.99 486.31,-113.32 477.09,-108.1 475.85,-114.99"/>
</g>
<!-- Node15&#45;&gt;Node12 -->
<g id="edge34" class="edge">
<title>Node15&#45;&gt;Node12</title>
<path fill="none" stroke="midnightblue" d="M555.5,-107.86C575.71,-97.85 602.97,-84.35 620.51,-75.65"/>
<polygon fill="midnightblue" stroke="midnightblue" points="553.9,-104.75 546.49,-112.32 557.01,-111.02 553.9,-104.75"/>
</g>
</g>
</svg>
        <g id="navigator" transform="translate(0 0)" fill="#404254">
                <rect fill="#f2f5e9" fill-opacity="0.5" stroke="#606060" stroke-width=".5" x="0" y="0" width="60" height="60"/>
                <use id="zoomplus" xlink:href="#zoomPlus" x="17" y="9" onmousedown="handleZoom(evt,'in')"/>
                <use id="zoomminus" xlink:href="#zoomMin" x="42" y="9" onmousedown="handleZoom(evt,'out')"/>
                <use id="reset" xlink:href="#resetDef" x="30" y="36" onmousedown="handleReset()"/>
                <g id="arrowUp" xlink:href="#dirArrow" transform="translate(30 24)" onmousedown="handlePan(0,-1)">
                  <use xlink:href="#rim" fill="#404040">
                        <set attributeName="fill" to="#808080" begin="arrowUp.mouseover" end="arrowUp.mouseout"/>
                  </use>
                  <path fill="none" stroke="white" stroke-width="1.5" d="M0,-3.0v7 M-2.5,-0.5L0,-3.0L2.5,-0.5"/>
                </g>
                <g id="arrowRight" xlink:href="#dirArrow" transform="rotate(90) translate(36 -43)" onmousedown="handlePan(1,0)">
                  <use xlink:href="#rim" fill="#404040">
                        <set attributeName="fill" to="#808080" begin="arrowRight.mouseover" end="arrowRight.mouseout"/>
                  </use>
                  <path fill="none" stroke="white" stroke-width="1.5" d="M0,-3.0v7 M-2.5,-0.5L0,-3.0L2.5,-0.5"/>
                </g>
                <g id="arrowDown" xlink:href="#dirArrow" transform="rotate(180) translate(-30 -48)" onmousedown="handlePan(0,1)">
                  <use xlink:href="#rim" fill="#404040">
                        <set attributeName="fill" to="#808080" begin="arrowDown.mouseover" end="arrowDown.mouseout"/>
                  </use>
                  <path fill="none" stroke="white" stroke-width="1.5" d="M0,-3.0v7 M-2.5,-0.5L0,-3.0L2.5,-0.5"/>
                </g>
                <g id="arrowLeft" xlink:href="#dirArrow" transform="rotate(270) translate(-36 17)" onmousedown="handlePan(-1,0)">
                  <use xlink:href="#rim" fill="#404040">
                        <set attributeName="fill" to="#808080" begin="arrowLeft.mouseover" end="arrowLeft.mouseout"/>
                  </use>
                  <path fill="none" stroke="white" stroke-width="1.5" d="M0,-3.0v7 M-2.5,-0.5L0,-3.0L2.5,-0.5"/>
                </g>
        </g>
        <svg viewBox="0 0 15 15" width="100%" height="30px" preserveAspectRatio="xMaxYMin meet">
         <g id="arrow_out" transform="scale(0.3 0.3)">
          <a xlink:href="Float_8h__dep__incl_org.svg" target="_base">
           <rect id="button" ry="5" rx="5" y="6" x="6" height="38" width="38"
                fill="#f2f5e9" fill-opacity="0.5" stroke="#606060" stroke-width="1.0"/>
           <path id="arrow"
             d="M 11.500037,31.436501 C 11.940474,20.09759 22.043105,11.32322 32.158766,21.979434 L 37.068811,17.246167 C 37.068811,17.246167 37.088388,32 37.088388,32 L 22.160133,31.978069 C 22.160133,31.978069 26.997745,27.140456 26.997745,27.140456 C 18.528582,18.264221 13.291696,25.230495 11.500037,31.436501 z"
             style="fill:#404040;"/>
          </a>
         </g>
        </svg>
</svg>
