<?xml version="1.0" encoding="UTF-8" standalone="no"?>
<!DOCTYPE svg PUBLIC "-//W3C//DTD SVG 1.1//EN"
 "http://www.w3.org/Graphics/SVG/1.1/DTD/svg11.dtd">
<!-- Generated by graphviz version 2.38.0 (20140413.2041)
 -->
<!-- Title: force.h Pages: 1 -->
<svg width="96pt" height="140pt"
 viewBox="0.00 0.00 96.00 140.00" xmlns="http://www.w3.org/2000/svg" xmlns:xlink="http://www.w3.org/1999/xlink">
<g id="graph0" class="graph" transform="scale(1 1) rotate(0) translate(4 136)">
<title>force.h</title>
<polygon fill="white" stroke="none" points="-4,4 -4,-136 92,-136 92,4 -4,4"/>
<!-- Node1 -->
<g id="node1" class="node"><title>Node1</title>
<polygon fill="#bfbfbf" stroke="black" points="21,-112.5 21,-131.5 67,-131.5 67,-112.5 21,-112.5"/>
<text text-anchor="middle" x="44" y="-119.5" font-family="FreeSans" font-size="10.00">force.h</text>
</g>
<!-- Node2 -->
<g id="node2" class="node"><title>Node2</title>
<g id="a_node2"><a xlink:href="Float_8h.html" target="_top" xlink:title="Common/Float.h">
<polygon fill="white" stroke="black" points="-7.10543e-15,-56.5 -7.10543e-15,-75.5 88,-75.5 88,-56.5 -7.10543e-15,-56.5"/>
<text text-anchor="middle" x="44" y="-63.5" font-family="FreeSans" font-size="10.00">Common/Float.h</text>
</a>
</g>
</g>
<!-- Node1&#45;&gt;Node2 -->
<g id="edge1" class="edge"><title>Node1&#45;&gt;Node2</title>
<path fill="none" stroke="midnightblue" d="M44,-112.083C44,-105.006 44,-94.8611 44,-85.9865"/>
<polygon fill="midnightblue" stroke="midnightblue" points="47.5001,-85.751 44,-75.7511 40.5001,-85.7511 47.5001,-85.751"/>
</g>
<!-- Node3 -->
<g id="node3" class="node"><title>Node3</title>
<polygon fill="white" stroke="#bfbfbf" points="24.5,-0.5 24.5,-19.5 63.5,-19.5 63.5,-0.5 24.5,-0.5"/>
<text text-anchor="middle" x="44" y="-7.5" font-family="FreeSans" font-size="10.00">limits</text>
</g>
<!-- Node2&#45;&gt;Node3 -->
<g id="edge2" class="edge"><title>Node2&#45;&gt;Node3</title>
<path fill="none" stroke="midnightblue" d="M44,-56.083C44,-49.0059 44,-38.8611 44,-29.9865"/>
<polygon fill="midnightblue" stroke="midnightblue" points="47.5001,-29.751 44,-19.7511 40.5001,-29.7511 47.5001,-29.751"/>
</g>
</g>
</svg>
