<?xml version="1.0" encoding="UTF-8" standalone="no"?>
<!DOCTYPE svg PUBLIC "-//W3C//DTD SVG 1.1//EN"
 "http://www.w3.org/Graphics/SVG/1.1/DTD/svg11.dtd">
<!-- Generated by graphviz version 2.43.0 (0)
 -->
<!-- Title: hermite_integrator.h Pages: 1 -->
<!--zoomable 375 -->
<svg id="main" version="1.1" xmlns="http://www.w3.org/2000/svg" xmlns:xlink="http://www.w3.org/1999/xlink" xml:space="preserve" onload="init(evt)">
<style type="text/css"><![CDATA[
.edge:hover path { stroke: red; }
.edge:hover polygon { stroke: red; fill: red; }
]]></style>
<script type="text/javascript"><![CDATA[
var edges = document.getElementsByTagName('g');
if (edges && edges.length) {
  for (var i=0;i<edges.length;i++) {
    if (edges[i].id.substr(0,4)=='edge') {
      edges[i].setAttribute('class','edge');
    }
  }
}
]]></script>
        <defs>
                <circle id="rim" cx="0" cy="0" r="7"/>
                <circle id="rim2" cx="0" cy="0" r="3.5"/>
                <g id="zoomPlus">
                        <use xlink:href="#rim" fill="#404040">
                                <set attributeName="fill" to="#808080" begin="zoomplus.mouseover" end="zoomplus.mouseout"/>
                        </use>
                        <path d="M-4,0h8M0,-4v8" fill="none" stroke="white" stroke-width="1.5" pointer-events="none"/>
                </g>
                <g id="zoomMin">
                        <use xlink:href="#rim" fill="#404040">
                                <set attributeName="fill" to="#808080" begin="zoomminus.mouseover" end="zoomminus.mouseout"/>
                        </use>
                        <path d="M-4,0h8" fill="none" stroke="white" stroke-width="1.5" pointer-events="none"/>
                </g>
                <g id="dirArrow">
                        <path fill="none" stroke="white" stroke-width="1.5" d="M0,-3.0v7 M-2.5,-0.5L0,-3.0L2.5,-0.5"/>
                </g>
               <g id="resetDef">
                       <use xlink:href="#rim2" fill="#404040">
                               <set attributeName="fill" to="#808080" begin="reset.mouseover" end="reset.mouseout"/>
                       </use>
               </g>
        </defs>

<script type="text/javascript">
var viewWidth = 1107;
var viewHeight = 375;
var sectionId = 'dynsection-0';
</script>
<script xlink:href="svgpan.js"/>
<svg id="graph" class="graph">
<g id="viewport">
<title>hermite_integrator.h</title>
<polygon fill="white" stroke="transparent" points="-4,4 -4,-371 1103,-371 1103,4 -4,4"/>
<!-- Node1 -->
<g id="node1" class="node">
<title>Node1</title>
<g id="a_node1"><a xlink:title=" ">
<polygon fill="#bfbfbf" stroke="black" points="714.5,-347.5 714.5,-366.5 816.5,-366.5 816.5,-347.5 714.5,-347.5"/>
<text text-anchor="middle" x="765.5" y="-354.5" font-family="FreeSans" font-size="10.00">hermite_integrator.h</text>
</a>
</g>
</g>
<!-- Node2 -->
<g id="node2" class="node">
<title>Node2</title>
<g id="a_node2"><a xlink:href="Float_8h.html" target="_top" xlink:title=" ">
<polygon fill="white" stroke="black" points="494.5,-56.5 494.5,-75.5 582.5,-75.5 582.5,-56.5 494.5,-56.5"/>
<text text-anchor="middle" x="538.5" y="-63.5" font-family="FreeSans" font-size="10.00">Common/Float.h</text>
</a>
</g>
</g>
<!-- Node1&#45;&gt;Node2 -->
<g id="edge1" class="edge">
<title>Node1&#45;&gt;Node2</title>
<path fill="none" stroke="midnightblue" d="M816.64,-351.6C846.8,-346.41 883.61,-335.2 907.5,-311 932.29,-285.88 930.5,-270.29 930.5,-235 930.5,-235 930.5,-235 930.5,-177 930.5,-107.67 700.31,-80 592.72,-70.86"/>
<polygon fill="midnightblue" stroke="midnightblue" points="592.96,-67.36 582.71,-70.03 592.38,-74.34 592.96,-67.36"/>
</g>
<!-- Node4 -->
<g id="node4" class="node">
<title>Node4</title>
<g id="a_node4"><a xlink:href="list_8h.html" target="_top" xlink:title=" ">
<polygon fill="white" stroke="black" points="593,-112.5 593,-131.5 672,-131.5 672,-112.5 593,-112.5"/>
<text text-anchor="middle" x="632.5" y="-119.5" font-family="FreeSans" font-size="10.00">Common/list.h</text>
</a>
</g>
</g>
<!-- Node1&#45;&gt;Node4 -->
<g id="edge3" class="edge">
<title>Node1&#45;&gt;Node4</title>
<path fill="none" stroke="midnightblue" d="M760.61,-347.43C741.18,-313.4 669.24,-187.37 642.55,-140.61"/>
<polygon fill="midnightblue" stroke="midnightblue" points="645.57,-138.85 637.58,-131.9 639.5,-142.32 645.57,-138.85"/>
</g>
<!-- Node5 -->
<g id="node5" class="node">
<title>Node5</title>
<g id="a_node5"><a xlink:href="symplectic__integrator_8h.html" target="_top" xlink:title=" ">
<polygon fill="white" stroke="black" points="226,-286 226,-305 359,-305 359,-286 226,-286"/>
<text text-anchor="middle" x="292.5" y="-293" font-family="FreeSans" font-size="10.00">AR/symplectic_integrator.h</text>
</a>
</g>
</g>
<!-- Node1&#45;&gt;Node5 -->
<g id="edge5" class="edge">
<title>Node1&#45;&gt;Node5</title>
<path fill="none" stroke="midnightblue" d="M714.43,-349.58C631.37,-339.13 466.54,-318.39 369.31,-306.16"/>
<polygon fill="midnightblue" stroke="midnightblue" points="369.6,-302.67 359.24,-304.9 368.73,-309.62 369.6,-302.67"/>
</g>
<!-- Node21 -->
<g id="node21" class="node">
<title>Node21</title>
<g id="a_node21"><a xlink:href="ar__information_8h.html" target="_top" xlink:title=" ">
<polygon fill="white" stroke="black" points="420,-224.5 420,-243.5 543,-243.5 543,-224.5 420,-224.5"/>
<text text-anchor="middle" x="481.5" y="-231.5" font-family="FreeSans" font-size="10.00">Hermite/ar_information.h</text>
</a>
</g>
</g>
<!-- Node1&#45;&gt;Node21 -->
<g id="edge34" class="edge">
<title>Node1&#45;&gt;Node21</title>
<path fill="none" stroke="midnightblue" d="M714.1,-352.67C670.68,-348.07 608.01,-337.11 559.5,-311 532.28,-296.35 508.01,-269.41 494.03,-251.86"/>
<polygon fill="midnightblue" stroke="midnightblue" points="496.57,-249.43 487.69,-243.65 491.03,-253.7 496.57,-249.43"/>
</g>
<!-- Node22 -->
<g id="node22" class="node">
<title>Node22</title>
<g id="a_node22"><a xlink:href="hermite__particle_8h.html" target="_top" xlink:title=" ">
<polygon fill="white" stroke="black" points="473,-168.5 473,-187.5 604,-187.5 604,-168.5 473,-168.5"/>
<text text-anchor="middle" x="538.5" y="-175.5" font-family="FreeSans" font-size="10.00">Hermite/hermite_particle.h</text>
</a>
</g>
</g>
<!-- Node1&#45;&gt;Node22 -->
<g id="edge41" class="edge">
<title>Node1&#45;&gt;Node22</title>
<path fill="none" stroke="midnightblue" d="M743.48,-347.41C724.36,-339.42 696.38,-326.45 674.5,-311 624.54,-275.72 575.43,-222.08 552.27,-195.34"/>
<polygon fill="midnightblue" stroke="midnightblue" points="554.86,-192.98 545.7,-187.66 549.55,-197.54 554.86,-192.98"/>
</g>
<!-- Node23 -->
<g id="node23" class="node">
<title>Node23</title>
<g id="a_node23"><a xlink:href="block__time__step_8h.html" target="_top" xlink:title=" ">
<polygon fill="white" stroke="black" points="798,-280.5 798,-310.5 899,-310.5 899,-280.5 798,-280.5"/>
<text text-anchor="start" x="806" y="-298.5" font-family="FreeSans" font-size="10.00">Hermite/block_time</text>
<text text-anchor="middle" x="848.5" y="-287.5" font-family="FreeSans" font-size="10.00">_step.h</text>
</a>
</g>
</g>
<!-- Node1&#45;&gt;Node23 -->
<g id="edge42" class="edge">
<title>Node1&#45;&gt;Node23</title>
<path fill="none" stroke="midnightblue" d="M777.39,-347.48C788.63,-339.42 805.92,-327.02 820.64,-316.47"/>
<polygon fill="midnightblue" stroke="midnightblue" points="822.85,-319.19 828.94,-310.52 818.77,-313.5 822.85,-319.19"/>
</g>
<!-- Node24 -->
<g id="node24" class="node">
<title>Node24</title>
<g id="a_node24"><a xlink:href="neighbor_8h.html" target="_top" xlink:title=" ">
<polygon fill="white" stroke="black" points="716.5,-224.5 716.5,-243.5 814.5,-243.5 814.5,-224.5 716.5,-224.5"/>
<text text-anchor="middle" x="765.5" y="-231.5" font-family="FreeSans" font-size="10.00">Hermite/neighbor.h</text>
</a>
</g>
</g>
<!-- Node1&#45;&gt;Node24 -->
<g id="edge44" class="edge">
<title>Node1&#45;&gt;Node24</title>
<path fill="none" stroke="midnightblue" d="M765.5,-347.3C765.5,-327.85 765.5,-280.49 765.5,-253.9"/>
<polygon fill="midnightblue" stroke="midnightblue" points="769,-253.62 765.5,-243.62 762,-253.62 769,-253.62"/>
</g>
<!-- Node25 -->
<g id="node25" class="node">
<title>Node25</title>
<g id="a_node25"><a xlink:href="Hermite_2profile_8h.html" target="_top" xlink:title=" ">
<polygon fill="white" stroke="black" points="959,-286 959,-305 1046,-305 1046,-286 959,-286"/>
<text text-anchor="middle" x="1002.5" y="-293" font-family="FreeSans" font-size="10.00">Hermite/profile.h</text>
</a>
</g>
</g>
<!-- Node1&#45;&gt;Node25 -->
<g id="edge49" class="edge">
<title>Node1&#45;&gt;Node25</title>
<path fill="none" stroke="midnightblue" d="M799.46,-347.48C841.34,-336.96 912.63,-319.06 958.63,-307.51"/>
<polygon fill="midnightblue" stroke="midnightblue" points="959.76,-310.84 968.61,-305.01 958.06,-304.05 959.76,-310.84"/>
</g>
<!-- Node26 -->
<g id="node26" class="node">
<title>Node26</title>
<g id="a_node26"><a xlink:title=" ">
<polygon fill="white" stroke="#bfbfbf" points="1064,-286 1064,-305 1099,-305 1099,-286 1064,-286"/>
<text text-anchor="middle" x="1081.5" y="-293" font-family="FreeSans" font-size="10.00">map</text>
</a>
</g>
</g>
<!-- Node1&#45;&gt;Node26 -->
<g id="edge50" class="edge">
<title>Node1&#45;&gt;Node26</title>
<path fill="none" stroke="midnightblue" d="M816.59,-353.26C875.32,-348.93 973.98,-338.01 1054.5,-311 1055.75,-310.58 1057.01,-310.11 1058.26,-309.59"/>
<polygon fill="midnightblue" stroke="midnightblue" points="1060.11,-312.59 1067.61,-305.11 1057.08,-306.28 1060.11,-312.59"/>
</g>
<!-- Node3 -->
<g id="node3" class="node">
<title>Node3</title>
<g id="a_node3"><a xlink:title=" ">
<polygon fill="white" stroke="#bfbfbf" points="733.5,-0.5 733.5,-19.5 773.5,-19.5 773.5,-0.5 733.5,-0.5"/>
<text text-anchor="middle" x="753.5" y="-7.5" font-family="FreeSans" font-size="10.00">limits</text>
</a>
</g>
</g>
<!-- Node2&#45;&gt;Node3 -->
<g id="edge2" class="edge">
<title>Node2&#45;&gt;Node3</title>
<path fill="none" stroke="midnightblue" d="M572.57,-56.44C614.2,-45.99 683.97,-28.46 723.61,-18.51"/>
<polygon fill="midnightblue" stroke="midnightblue" points="724.62,-21.86 733.47,-16.03 722.92,-15.07 724.62,-21.86"/>
</g>
<!-- Node4&#45;&gt;Node2 -->
<g id="edge4" class="edge">
<title>Node4&#45;&gt;Node2</title>
<path fill="none" stroke="midnightblue" d="M617.4,-112.32C602.6,-103.82 579.81,-90.73 562.52,-80.8"/>
<polygon fill="midnightblue" stroke="midnightblue" points="563.98,-77.6 553.57,-75.65 560.49,-83.67 563.98,-77.6"/>
</g>
<!-- Node5&#45;&gt;Node4 -->
<g id="edge7" class="edge">
<title>Node5&#45;&gt;Node4</title>
<path fill="none" stroke="midnightblue" d="M359.03,-291.49C413.35,-286.75 490.77,-274.67 551.5,-244 584.35,-227.41 592.85,-219.12 612.5,-188 621.46,-173.81 626.64,-155.33 629.47,-141.7"/>
<polygon fill="midnightblue" stroke="midnightblue" points="632.96,-142.07 631.33,-131.6 626.08,-140.8 632.96,-142.07"/>
</g>
<!-- Node6 -->
<g id="node6" class="node">
<title>Node6</title>
<g id="a_node6"><a xlink:title=" ">
<polygon fill="white" stroke="#bfbfbf" points="172,-224.5 172,-243.5 231,-243.5 231,-224.5 172,-224.5"/>
<text text-anchor="middle" x="201.5" y="-231.5" font-family="FreeSans" font-size="10.00">functional</text>
</a>
</g>
</g>
<!-- Node5&#45;&gt;Node6 -->
<g id="edge6" class="edge">
<title>Node5&#45;&gt;Node6</title>
<path fill="none" stroke="midnightblue" d="M279.46,-285.98C264.73,-276.34 240.53,-260.52 222.99,-249.05"/>
<polygon fill="midnightblue" stroke="midnightblue" points="224.8,-246.05 214.51,-243.51 220.97,-251.91 224.8,-246.05"/>
</g>
<!-- Node7 -->
<g id="node7" class="node">
<title>Node7</title>
<g id="a_node7"><a xlink:href="particle__group_8h.html" target="_top" xlink:title=" ">
<polygon fill="white" stroke="black" points="699,-168.5 699,-187.5 826,-187.5 826,-168.5 699,-168.5"/>
<text text-anchor="middle" x="762.5" y="-175.5" font-family="FreeSans" font-size="10.00">Common/particle_group.h</text>
</a>
</g>
</g>
<!-- Node5&#45;&gt;Node7 -->
<g id="edge8" class="edge">
<title>Node5&#45;&gt;Node7</title>
<path fill="none" stroke="midnightblue" d="M359.06,-290.25C427.41,-284.55 536.24,-271.72 626.5,-244 667.94,-231.27 712.7,-207.8 739.13,-192.82"/>
<polygon fill="midnightblue" stroke="midnightblue" points="741.07,-195.74 747.99,-187.72 737.58,-189.67 741.07,-195.74"/>
</g>
<!-- Node9 -->
<g id="node9" class="node">
<title>Node9</title>
<g id="a_node9"><a xlink:href="symplectic__step_8h.html" target="_top" xlink:title=" ">
<polygon fill="white" stroke="black" points="0,-112.5 0,-131.5 111,-131.5 111,-112.5 0,-112.5"/>
<text text-anchor="middle" x="55.5" y="-119.5" font-family="FreeSans" font-size="10.00">AR/symplectic_step.h</text>
</a>
</g>
</g>
<!-- Node5&#45;&gt;Node9 -->
<g id="edge12" class="edge">
<title>Node5&#45;&gt;Node9</title>
<path fill="none" stroke="midnightblue" d="M225.97,-288.37C166.73,-281.42 86.3,-267.85 65.5,-244 40.76,-215.63 45.67,-167.96 50.9,-141.72"/>
<polygon fill="midnightblue" stroke="midnightblue" points="54.4,-142.14 53.15,-131.62 47.56,-140.62 54.4,-142.14"/>
</g>
<!-- Node12 -->
<g id="node12" class="node">
<title>Node12</title>
<g id="a_node12"><a xlink:href="force_8h.html" target="_top" xlink:title=" ">
<polygon fill="white" stroke="black" points="278.5,-168.5 278.5,-187.5 340.5,-187.5 340.5,-168.5 278.5,-168.5"/>
<text text-anchor="middle" x="309.5" y="-175.5" font-family="FreeSans" font-size="10.00">AR/force.h</text>
</a>
</g>
</g>
<!-- Node5&#45;&gt;Node12 -->
<g id="edge16" class="edge">
<title>Node5&#45;&gt;Node12</title>
<path fill="none" stroke="midnightblue" d="M318.48,-285.85C337.2,-278.1 361.08,-264.71 372.5,-244 383.99,-223.17 359.86,-204.24 338.22,-192.26"/>
<polygon fill="midnightblue" stroke="midnightblue" points="339.7,-189.08 329.21,-187.56 336.46,-195.29 339.7,-189.08"/>
</g>
<!-- Node13 -->
<g id="node13" class="node">
<title>Node13</title>
<g id="a_node13"><a xlink:href="slow__down_8h.html" target="_top" xlink:title=" ">
<polygon fill="white" stroke="black" points="260,-112.5 260,-131.5 349,-131.5 349,-112.5 260,-112.5"/>
<text text-anchor="middle" x="304.5" y="-119.5" font-family="FreeSans" font-size="10.00">AR/slow_down.h</text>
</a>
</g>
</g>
<!-- Node5&#45;&gt;Node13 -->
<g id="edge18" class="edge">
<title>Node5&#45;&gt;Node13</title>
<path fill="none" stroke="midnightblue" d="M225.8,-287.74C170,-280.55 96.68,-266.97 78.5,-244 69.07,-232.09 57.08,-195.58 80.5,-168 86.02,-161.5 185.29,-143.41 249.81,-132.25"/>
<polygon fill="midnightblue" stroke="midnightblue" points="250.59,-135.66 259.85,-130.52 249.4,-128.77 250.59,-135.66"/>
</g>
<!-- Node14 -->
<g id="node14" class="node">
<title>Node14</title>
<g id="a_node14"><a xlink:href="AR_2profile_8h.html" target="_top" xlink:title=" ">
<polygon fill="white" stroke="black" points="87.5,-224.5 87.5,-243.5 153.5,-243.5 153.5,-224.5 87.5,-224.5"/>
<text text-anchor="middle" x="120.5" y="-231.5" font-family="FreeSans" font-size="10.00">AR/profile.h</text>
</a>
</g>
</g>
<!-- Node5&#45;&gt;Node14 -->
<g id="edge20" class="edge">
<title>Node5&#45;&gt;Node14</title>
<path fill="none" stroke="midnightblue" d="M267.86,-285.98C238.22,-275.72 188.32,-258.46 154.9,-246.9"/>
<polygon fill="midnightblue" stroke="midnightblue" points="155.69,-243.47 145.1,-243.51 153.4,-250.09 155.69,-243.47"/>
</g>
<!-- Node16 -->
<g id="node16" class="node">
<title>Node16</title>
<g id="a_node16"><a xlink:href="information_8h.html" target="_top" xlink:title=" ">
<polygon fill="white" stroke="black" points="172,-168.5 172,-187.5 261,-187.5 261,-168.5 172,-168.5"/>
<text text-anchor="middle" x="216.5" y="-175.5" font-family="FreeSans" font-size="10.00">AR/information.h</text>
</a>
</g>
</g>
<!-- Node5&#45;&gt;Node16 -->
<g id="edge22" class="edge">
<title>Node5&#45;&gt;Node16</title>
<path fill="none" stroke="midnightblue" d="M286.79,-285.82C274.3,-266.84 244.37,-221.35 227.88,-196.29"/>
<polygon fill="midnightblue" stroke="midnightblue" points="230.7,-194.21 222.28,-187.78 224.85,-198.06 230.7,-194.21"/>
</g>
<!-- Node20 -->
<g id="node20" class="node">
<title>Node20</title>
<g id="a_node20"><a xlink:href="interrupt_8h.html" target="_top" xlink:title=" ">
<polygon fill="white" stroke="black" points="287.5,-224.5 287.5,-243.5 363.5,-243.5 363.5,-224.5 287.5,-224.5"/>
<text text-anchor="middle" x="325.5" y="-231.5" font-family="FreeSans" font-size="10.00">AR/interrupt.h</text>
</a>
</g>
</g>
<!-- Node5&#45;&gt;Node20 -->
<g id="edge32" class="edge">
<title>Node5&#45;&gt;Node20</title>
<path fill="none" stroke="midnightblue" d="M297.23,-285.98C302.08,-277.23 309.77,-263.37 315.9,-252.31"/>
<polygon fill="midnightblue" stroke="midnightblue" points="318.99,-253.95 320.78,-243.51 312.87,-250.56 318.99,-253.95"/>
</g>
<!-- Node7&#45;&gt;Node2 -->
<g id="edge10" class="edge">
<title>Node7&#45;&gt;Node2</title>
<path fill="none" stroke="midnightblue" d="M753.69,-168.19C739.46,-154.4 710.02,-127.69 680.5,-112 651.62,-96.65 616.62,-85.48 588.59,-78.11"/>
<polygon fill="midnightblue" stroke="midnightblue" points="589.16,-74.65 578.61,-75.57 587.43,-81.43 589.16,-74.65"/>
</g>
<!-- Node7&#45;&gt;Node4 -->
<g id="edge11" class="edge">
<title>Node7&#45;&gt;Node4</title>
<path fill="none" stroke="midnightblue" d="M741.9,-168.44C720.51,-159.56 686.82,-145.56 662.48,-135.45"/>
<polygon fill="midnightblue" stroke="midnightblue" points="663.58,-132.12 653,-131.52 660.89,-138.58 663.58,-132.12"/>
</g>
<!-- Node8 -->
<g id="node8" class="node">
<title>Node8</title>
<g id="a_node8"><a xlink:title=" ">
<polygon fill="white" stroke="#bfbfbf" points="605.5,-0.5 605.5,-19.5 655.5,-19.5 655.5,-0.5 605.5,-0.5"/>
<text text-anchor="middle" x="630.5" y="-7.5" font-family="FreeSans" font-size="10.00">iomanip</text>
</a>
</g>
</g>
<!-- Node7&#45;&gt;Node8 -->
<g id="edge9" class="edge">
<title>Node7&#45;&gt;Node8</title>
<path fill="none" stroke="midnightblue" d="M755.4,-168.08C734.27,-141.49 671.48,-62.54 643.83,-27.76"/>
<polygon fill="midnightblue" stroke="midnightblue" points="646.28,-25.22 637.31,-19.57 640.8,-29.57 646.28,-25.22"/>
</g>
<!-- Node9&#45;&gt;Node2 -->
<g id="edge15" class="edge">
<title>Node9&#45;&gt;Node2</title>
<path fill="none" stroke="midnightblue" d="M111.33,-113.04C114.09,-112.68 116.83,-112.33 119.5,-112 250.13,-95.8 404.11,-80.15 484.09,-72.27"/>
<polygon fill="midnightblue" stroke="midnightblue" points="484.8,-75.72 494.41,-71.26 484.11,-68.75 484.8,-75.72"/>
</g>
<!-- Node10 -->
<g id="node10" class="node">
<title>Node10</title>
<g id="a_node10"><a xlink:title=" ">
<polygon fill="white" stroke="#bfbfbf" points="97.5,-56.5 97.5,-75.5 153.5,-75.5 153.5,-56.5 97.5,-56.5"/>
<text text-anchor="middle" x="125.5" y="-63.5" font-family="FreeSans" font-size="10.00">algorithm</text>
</a>
</g>
</g>
<!-- Node9&#45;&gt;Node10 -->
<g id="edge13" class="edge">
<title>Node9&#45;&gt;Node10</title>
<path fill="none" stroke="midnightblue" d="M66.75,-112.32C77.3,-104.18 93.3,-91.84 105.94,-82.09"/>
<polygon fill="midnightblue" stroke="midnightblue" points="108.27,-84.71 114.05,-75.83 103.99,-79.17 108.27,-84.71"/>
</g>
<!-- Node11 -->
<g id="node11" class="node">
<title>Node11</title>
<g id="a_node11"><a xlink:title=" ">
<polygon fill="white" stroke="#bfbfbf" points="36.5,-56.5 36.5,-75.5 74.5,-75.5 74.5,-56.5 36.5,-56.5"/>
<text text-anchor="middle" x="55.5" y="-63.5" font-family="FreeSans" font-size="10.00">array</text>
</a>
</g>
</g>
<!-- Node9&#45;&gt;Node11 -->
<g id="edge14" class="edge">
<title>Node9&#45;&gt;Node11</title>
<path fill="none" stroke="midnightblue" d="M55.5,-112.08C55.5,-105.01 55.5,-94.86 55.5,-85.99"/>
<polygon fill="midnightblue" stroke="midnightblue" points="59,-85.75 55.5,-75.75 52,-85.75 59,-85.75"/>
</g>
<!-- Node12&#45;&gt;Node2 -->
<g id="edge17" class="edge">
<title>Node12&#45;&gt;Node2</title>
<path fill="none" stroke="midnightblue" d="M326.23,-168.39C350.89,-155.75 398.51,-131.56 439.5,-112 462.97,-100.8 489.84,-88.63 509.66,-79.77"/>
<polygon fill="midnightblue" stroke="midnightblue" points="511.34,-82.85 519.05,-75.58 508.49,-76.46 511.34,-82.85"/>
</g>
<!-- Node13&#45;&gt;Node2 -->
<g id="edge19" class="edge">
<title>Node13&#45;&gt;Node2</title>
<path fill="none" stroke="midnightblue" d="M341.58,-112.44C382.23,-103.06 447.53,-87.99 491.68,-77.8"/>
<polygon fill="midnightblue" stroke="midnightblue" points="492.64,-81.18 501.6,-75.52 491.06,-74.35 492.64,-81.18"/>
</g>
<!-- Node15 -->
<g id="node15" class="node">
<title>Node15</title>
<g id="a_node15"><a xlink:title=" ">
<polygon fill="white" stroke="#bfbfbf" points="90,-168.5 90,-187.5 151,-187.5 151,-168.5 90,-168.5"/>
<text text-anchor="middle" x="120.5" y="-175.5" font-family="FreeSans" font-size="10.00">sys/time.h</text>
</a>
</g>
</g>
<!-- Node14&#45;&gt;Node15 -->
<g id="edge21" class="edge">
<title>Node14&#45;&gt;Node15</title>
<path fill="none" stroke="midnightblue" d="M120.5,-224.08C120.5,-217.01 120.5,-206.86 120.5,-197.99"/>
<polygon fill="midnightblue" stroke="midnightblue" points="124,-197.75 120.5,-187.75 117,-197.75 124,-197.75"/>
</g>
<!-- Node16&#45;&gt;Node2 -->
<g id="edge23" class="edge">
<title>Node16&#45;&gt;Node2</title>
<path fill="none" stroke="midnightblue" d="M248.39,-168.45C277.33,-160.31 320.92,-147.1 357.5,-132 375.51,-124.57 378.49,-119.41 396.5,-112 429.45,-98.44 468.05,-86.45 496.69,-78.26"/>
<polygon fill="midnightblue" stroke="midnightblue" points="497.7,-81.61 506.38,-75.52 495.8,-74.87 497.7,-81.61"/>
</g>
<!-- Node16&#45;&gt;Node13 -->
<g id="edge31" class="edge">
<title>Node16&#45;&gt;Node13</title>
<path fill="none" stroke="midnightblue" d="M230.64,-168.32C244.37,-159.9 265.44,-146.97 281.56,-137.07"/>
<polygon fill="midnightblue" stroke="midnightblue" points="283.7,-139.87 290.4,-131.65 280.04,-133.9 283.7,-139.87"/>
</g>
<!-- Node17 -->
<g id="node17" class="node">
<title>Node17</title>
<g id="a_node17"><a xlink:href="binary__tree_8h.html" target="_top" xlink:title=" ">
<polygon fill="white" stroke="black" points="129,-112.5 129,-131.5 242,-131.5 242,-112.5 129,-112.5"/>
<text text-anchor="middle" x="185.5" y="-119.5" font-family="FreeSans" font-size="10.00">Common/binary_tree.h</text>
</a>
</g>
</g>
<!-- Node16&#45;&gt;Node17 -->
<g id="edge24" class="edge">
<title>Node16&#45;&gt;Node17</title>
<path fill="none" stroke="midnightblue" d="M211.38,-168.08C207.09,-160.61 200.84,-149.72 195.56,-140.52"/>
<polygon fill="midnightblue" stroke="midnightblue" points="198.54,-138.68 190.52,-131.75 192.47,-142.17 198.54,-138.68"/>
</g>
<!-- Node17&#45;&gt;Node2 -->
<g id="edge27" class="edge">
<title>Node17&#45;&gt;Node2</title>
<path fill="none" stroke="midnightblue" d="M241.43,-112.44C307.96,-102.27 418.26,-85.39 484.1,-75.32"/>
<polygon fill="midnightblue" stroke="midnightblue" points="484.92,-78.74 494.27,-73.77 483.86,-71.82 484.92,-78.74"/>
</g>
<!-- Node17&#45;&gt;Node10 -->
<g id="edge26" class="edge">
<title>Node17&#45;&gt;Node10</title>
<path fill="none" stroke="midnightblue" d="M175.86,-112.32C166.99,-104.34 153.63,-92.31 142.89,-82.65"/>
<polygon fill="midnightblue" stroke="midnightblue" points="145.09,-79.92 135.32,-75.83 140.41,-85.13 145.09,-79.92"/>
</g>
<!-- Node18 -->
<g id="node18" class="node">
<title>Node18</title>
<g id="a_node18"><a xlink:title=" ">
<polygon fill="white" stroke="#bfbfbf" points="200.5,-0.5 200.5,-19.5 244.5,-19.5 244.5,-0.5 200.5,-0.5"/>
<text text-anchor="middle" x="222.5" y="-7.5" font-family="FreeSans" font-size="10.00">cmath</text>
</a>
</g>
</g>
<!-- Node17&#45;&gt;Node18 -->
<g id="edge25" class="edge">
<title>Node17&#45;&gt;Node18</title>
<path fill="none" stroke="midnightblue" d="M187.81,-112.08C191.15,-99.48 197.67,-75.78 204.5,-56 207.63,-46.94 211.54,-37.03 214.91,-28.83"/>
<polygon fill="midnightblue" stroke="midnightblue" points="218.17,-30.11 218.8,-19.53 211.71,-27.41 218.17,-30.11"/>
</g>
<!-- Node19 -->
<g id="node19" class="node">
<title>Node19</title>
<g id="a_node19"><a xlink:href="matrix_8h.html" target="_top" xlink:title=" ">
<polygon fill="white" stroke="black" points="213.5,-56.5 213.5,-75.5 305.5,-75.5 305.5,-56.5 213.5,-56.5"/>
<text text-anchor="middle" x="259.5" y="-63.5" font-family="FreeSans" font-size="10.00">Common/matrix.h</text>
</a>
</g>
</g>
<!-- Node17&#45;&gt;Node19 -->
<g id="edge28" class="edge">
<title>Node17&#45;&gt;Node19</title>
<path fill="none" stroke="midnightblue" d="M197.39,-112.32C208.65,-104.11 225.79,-91.6 239.21,-81.81"/>
<polygon fill="midnightblue" stroke="midnightblue" points="241.38,-84.56 247.39,-75.83 237.25,-78.9 241.38,-84.56"/>
</g>
<!-- Node19&#45;&gt;Node8 -->
<g id="edge30" class="edge">
<title>Node19&#45;&gt;Node8</title>
<path fill="none" stroke="midnightblue" d="M305.74,-58.27C380.78,-47.35 527.48,-25.99 594.97,-16.17"/>
<polygon fill="midnightblue" stroke="midnightblue" points="595.71,-19.6 605.1,-14.7 594.7,-12.67 595.71,-19.6"/>
</g>
<!-- Node19&#45;&gt;Node18 -->
<g id="edge29" class="edge">
<title>Node19&#45;&gt;Node18</title>
<path fill="none" stroke="midnightblue" d="M253.39,-56.08C248.22,-48.53 240.65,-37.49 234.31,-28.23"/>
<polygon fill="midnightblue" stroke="midnightblue" points="237.04,-26.02 228.5,-19.75 231.26,-29.98 237.04,-26.02"/>
</g>
<!-- Node20&#45;&gt;Node16 -->
<g id="edge33" class="edge">
<title>Node20&#45;&gt;Node16</title>
<path fill="none" stroke="midnightblue" d="M307.99,-224.32C290.43,-215.62 263.17,-202.12 242.97,-192.11"/>
<polygon fill="midnightblue" stroke="midnightblue" points="244.48,-188.96 233.97,-187.65 241.38,-195.23 244.48,-188.96"/>
</g>
<!-- Node21&#45;&gt;Node2 -->
<g id="edge35" class="edge">
<title>Node21&#45;&gt;Node2</title>
<path fill="none" stroke="midnightblue" d="M473.45,-224.27C463.05,-211.89 447.11,-188.46 454.5,-168 467.45,-132.18 499.25,-100.12 519.79,-82.15"/>
<polygon fill="midnightblue" stroke="midnightblue" points="522.21,-84.69 527.57,-75.55 517.68,-79.35 522.21,-84.69"/>
</g>
<!-- Node21&#45;&gt;Node4 -->
<g id="edge36" class="edge">
<title>Node21&#45;&gt;Node4</title>
<path fill="none" stroke="midnightblue" d="M474.6,-224.08C465.09,-210.62 450.51,-184.9 463.5,-168 478,-149.13 538.13,-136.49 582.56,-129.53"/>
<polygon fill="midnightblue" stroke="midnightblue" points="583.26,-132.97 592.63,-128.01 582.22,-126.05 583.26,-132.97"/>
</g>
<!-- Node21&#45;&gt;Node16 -->
<g id="edge40" class="edge">
<title>Node21&#45;&gt;Node16</title>
<path fill="none" stroke="midnightblue" d="M439.51,-224.44C393.09,-214.98 318.27,-199.74 268.26,-189.55"/>
<polygon fill="midnightblue" stroke="midnightblue" points="268.79,-186.08 258.29,-187.52 267.39,-192.94 268.79,-186.08"/>
</g>
<!-- Node21&#45;&gt;Node17 -->
<g id="edge37" class="edge">
<title>Node21&#45;&gt;Node17</title>
<path fill="none" stroke="midnightblue" d="M464.57,-224.44C431.64,-207.82 361.14,-172.42 349.5,-168 311.73,-153.67 267.47,-141.8 234.46,-133.86"/>
<polygon fill="midnightblue" stroke="midnightblue" points="235.14,-130.42 224.6,-131.52 233.52,-137.23 235.14,-130.42"/>
</g>
<!-- Node21&#45;&gt;Node22 -->
<g id="edge38" class="edge">
<title>Node21&#45;&gt;Node22</title>
<path fill="none" stroke="midnightblue" d="M490.66,-224.32C499,-216.42 511.53,-204.55 521.68,-194.94"/>
<polygon fill="midnightblue" stroke="midnightblue" points="524.32,-197.25 529.18,-187.83 519.51,-192.17 524.32,-197.25"/>
</g>
<!-- Node22&#45;&gt;Node2 -->
<g id="edge39" class="edge">
<title>Node22&#45;&gt;Node2</title>
<path fill="none" stroke="midnightblue" d="M538.5,-168.37C538.5,-150.62 538.5,-109.67 538.5,-85.6"/>
<polygon fill="midnightblue" stroke="midnightblue" points="542,-85.59 538.5,-75.59 535,-85.59 542,-85.59"/>
</g>
<!-- Node23&#45;&gt;Node2 -->
<g id="edge43" class="edge">
<title>Node23&#45;&gt;Node2</title>
<path fill="none" stroke="midnightblue" d="M852.01,-280.26C857.22,-256.22 864.95,-206.45 850.5,-168 838.87,-137.04 830.35,-128.17 801.5,-112 766.59,-92.44 659.03,-78.79 592.77,-71.98"/>
<polygon fill="midnightblue" stroke="midnightblue" points="592.8,-68.46 582.5,-70.94 592.1,-75.43 592.8,-68.46"/>
</g>
<!-- Node24&#45;&gt;Node2 -->
<g id="edge45" class="edge">
<title>Node24&#45;&gt;Node2</title>
<path fill="none" stroke="midnightblue" d="M787.44,-224.47C813.03,-213.18 849.98,-191.9 834.5,-168 782.73,-88.08 662.98,-70.26 592.68,-66.96"/>
<polygon fill="midnightblue" stroke="midnightblue" points="592.81,-63.46 582.68,-66.58 592.54,-70.46 592.81,-63.46"/>
</g>
<!-- Node24&#45;&gt;Node3 -->
<g id="edge48" class="edge">
<title>Node24&#45;&gt;Node3</title>
<path fill="none" stroke="midnightblue" d="M799.3,-224.39C817.89,-217.74 839.39,-206.45 850.5,-188 855.08,-180.38 852.93,-176.55 850.5,-168 834.31,-110.99 790.87,-54.39 768.02,-27.38"/>
<polygon fill="midnightblue" stroke="midnightblue" points="770.56,-24.97 761.38,-19.69 765.26,-29.55 770.56,-24.97"/>
</g>
<!-- Node24&#45;&gt;Node7 -->
<g id="edge46" class="edge">
<title>Node24&#45;&gt;Node7</title>
<path fill="none" stroke="midnightblue" d="M765,-224.08C764.61,-217.01 764.05,-206.86 763.55,-197.99"/>
<polygon fill="midnightblue" stroke="midnightblue" points="767.04,-197.54 762.99,-187.75 760.05,-197.93 767.04,-197.54"/>
</g>
<!-- Node24&#45;&gt;Node22 -->
<g id="edge47" class="edge">
<title>Node24&#45;&gt;Node22</title>
<path fill="none" stroke="midnightblue" d="M729.53,-224.44C690.18,-215.08 627.01,-200.06 584.19,-189.87"/>
<polygon fill="midnightblue" stroke="midnightblue" points="584.84,-186.43 574.3,-187.52 583.22,-193.24 584.84,-186.43"/>
</g>
</g>
</svg>
        <g id="navigator" transform="translate(0 0)" fill="#404254">
                <rect fill="#f2f5e9" fill-opacity="0.5" stroke="#606060" stroke-width=".5" x="0" y="0" width="60" height="60"/>
                <use id="zoomplus" xlink:href="#zoomPlus" x="17" y="9" onmousedown="handleZoom(evt,'in')"/>
                <use id="zoomminus" xlink:href="#zoomMin" x="42" y="9" onmousedown="handleZoom(evt,'out')"/>
                <use id="reset" xlink:href="#resetDef" x="30" y="36" onmousedown="handleReset()"/>
                <g id="arrowUp" xlink:href="#dirArrow" transform="translate(30 24)" onmousedown="handlePan(0,-1)">
                  <use xlink:href="#rim" fill="#404040">
                        <set attributeName="fill" to="#808080" begin="arrowUp.mouseover" end="arrowUp.mouseout"/>
                  </use>
                  <path fill="none" stroke="white" stroke-width="1.5" d="M0,-3.0v7 M-2.5,-0.5L0,-3.0L2.5,-0.5"/>
                </g>
                <g id="arrowRight" xlink:href="#dirArrow" transform="rotate(90) translate(36 -43)" onmousedown="handlePan(1,0)">
                  <use xlink:href="#rim" fill="#404040">
                        <set attributeName="fill" to="#808080" begin="arrowRight.mouseover" end="arrowRight.mouseout"/>
                  </use>
                  <path fill="none" stroke="white" stroke-width="1.5" d="M0,-3.0v7 M-2.5,-0.5L0,-3.0L2.5,-0.5"/>
                </g>
                <g id="arrowDown" xlink:href="#dirArrow" transform="rotate(180) translate(-30 -48)" onmousedown="handlePan(0,1)">
                  <use xlink:href="#rim" fill="#404040">
                        <set attributeName="fill" to="#808080" begin="arrowDown.mouseover" end="arrowDown.mouseout"/>
                  </use>
                  <path fill="none" stroke="white" stroke-width="1.5" d="M0,-3.0v7 M-2.5,-0.5L0,-3.0L2.5,-0.5"/>
                </g>
                <g id="arrowLeft" xlink:href="#dirArrow" transform="rotate(270) translate(-36 17)" onmousedown="handlePan(-1,0)">
                  <use xlink:href="#rim" fill="#404040">
                        <set attributeName="fill" to="#808080" begin="arrowLeft.mouseover" end="arrowLeft.mouseout"/>
                  </use>
                  <path fill="none" stroke="white" stroke-width="1.5" d="M0,-3.0v7 M-2.5,-0.5L0,-3.0L2.5,-0.5"/>
                </g>
        </g>
        <svg viewBox="0 0 15 15" width="100%" height="30px" preserveAspectRatio="xMaxYMin meet">
         <g id="arrow_out" transform="scale(0.3 0.3)">
          <a xlink:href="hermite__integrator_8h__incl_org.svg" target="_base">
           <rect id="button" ry="5" rx="5" y="6" x="6" height="38" width="38"
                fill="#f2f5e9" fill-opacity="0.5" stroke="#606060" stroke-width="1.0"/>
           <path id="arrow"
             d="M 11.500037,31.436501 C 11.940474,20.09759 22.043105,11.32322 32.158766,21.979434 L 37.068811,17.246167 C 37.068811,17.246167 37.088388,32 37.088388,32 L 22.160133,31.978069 C 22.160133,31.978069 26.997745,27.140456 26.997745,27.140456 C 18.528582,18.264221 13.291696,25.230495 11.500037,31.436501 z"
             style="fill:#404040;"/>
          </a>
         </g>
        </svg>
</svg>
