<?xml version="1.0" encoding="UTF-8" standalone="no"?>
<!DOCTYPE svg PUBLIC "-//W3C//DTD SVG 1.1//EN"
 "http://www.w3.org/Graphics/SVG/1.1/DTD/svg11.dtd">
<!-- Generated by graphviz version 2.43.0 (0)
 -->
<!-- Title: hermite_particle.h Pages: 1 -->
<svg width="212pt" height="140pt"
 viewBox="0.00 0.00 211.50 140.00" xmlns="http://www.w3.org/2000/svg" xmlns:xlink="http://www.w3.org/1999/xlink">
<g id="graph0" class="graph" transform="scale(1 1) rotate(0) translate(4 136)">
<title>hermite_particle.h</title>
<polygon fill="white" stroke="transparent" points="-4,4 -4,-136 207.5,-136 207.5,4 -4,4"/>
<!-- Node1 -->
<g id="node1" class="node">
<title>Node1</title>
<g id="a_node1"><a xlink:title=" ">
<polygon fill="#bfbfbf" stroke="black" points="67.5,-112.5 67.5,-131.5 160.5,-131.5 160.5,-112.5 67.5,-112.5"/>
<text text-anchor="middle" x="114" y="-119.5" font-family="FreeSans" font-size="10.00">hermite_particle.h</text>
</a>
</g>
</g>
<!-- Node2 -->
<g id="node2" class="node">
<title>Node2</title>
<g id="a_node2"><a xlink:href="ar__information_8h.html" target="_top" xlink:title=" ">
<polygon fill="white" stroke="black" points="0,-56.5 0,-75.5 86,-75.5 86,-56.5 0,-56.5"/>
<text text-anchor="middle" x="43" y="-63.5" font-family="FreeSans" font-size="10.00">ar_information.h</text>
</a>
</g>
</g>
<!-- Node1&#45;&gt;Node2 -->
<g id="edge1" class="edge">
<title>Node1&#45;&gt;Node2</title>
<path fill="none" stroke="midnightblue" d="M94.41,-106.1C81.63,-96.38 65.39,-84.03 54.61,-75.83"/>
<polygon fill="midnightblue" stroke="midnightblue" points="92.51,-109.06 102.59,-112.32 96.75,-103.48 92.51,-109.06"/>
</g>
<!-- Node3 -->
<g id="node3" class="node">
<title>Node3</title>
<g id="a_node3"><a xlink:href="hermite__integrator_8h.html" target="_top" xlink:title=" ">
<polygon fill="white" stroke="black" points="63,-0.5 63,-19.5 165,-19.5 165,-0.5 63,-0.5"/>
<text text-anchor="middle" x="114" y="-7.5" font-family="FreeSans" font-size="10.00">hermite_integrator.h</text>
</a>
</g>
</g>
<!-- Node1&#45;&gt;Node3 -->
<g id="edge3" class="edge">
<title>Node1&#45;&gt;Node3</title>
<path fill="none" stroke="midnightblue" d="M114,-102.35C114,-78.25 114,-37.31 114,-19.59"/>
<polygon fill="midnightblue" stroke="midnightblue" points="110.5,-102.37 114,-112.37 117.5,-102.37 110.5,-102.37"/>
</g>
<!-- Node4 -->
<g id="node4" class="node">
<title>Node4</title>
<g id="a_node4"><a xlink:href="neighbor_8h.html" target="_top" xlink:title=" ">
<polygon fill="white" stroke="black" points="142.5,-56.5 142.5,-75.5 203.5,-75.5 203.5,-56.5 142.5,-56.5"/>
<text text-anchor="middle" x="173" y="-63.5" font-family="FreeSans" font-size="10.00">neighbor.h</text>
</a>
</g>
</g>
<!-- Node1&#45;&gt;Node4 -->
<g id="edge4" class="edge">
<title>Node1&#45;&gt;Node4</title>
<path fill="none" stroke="midnightblue" d="M130.89,-105.54C141.41,-95.91 154.57,-83.87 163.35,-75.83"/>
<polygon fill="midnightblue" stroke="midnightblue" points="128.49,-102.99 123.48,-112.32 133.22,-108.15 128.49,-102.99"/>
</g>
<!-- Node2&#45;&gt;Node3 -->
<g id="edge2" class="edge">
<title>Node2&#45;&gt;Node3</title>
<path fill="none" stroke="midnightblue" d="M62.59,-50.1C75.37,-40.38 91.61,-28.03 102.39,-19.83"/>
<polygon fill="midnightblue" stroke="midnightblue" points="60.25,-47.48 54.41,-56.32 64.49,-53.06 60.25,-47.48"/>
</g>
<!-- Node4&#45;&gt;Node3 -->
<g id="edge5" class="edge">
<title>Node4&#45;&gt;Node3</title>
<path fill="none" stroke="midnightblue" d="M156.11,-49.54C145.59,-39.91 132.43,-27.87 123.65,-19.83"/>
<polygon fill="midnightblue" stroke="midnightblue" points="153.78,-52.15 163.52,-56.32 158.51,-46.99 153.78,-52.15"/>
</g>
</g>
</svg>
