<?xml version="1.0" encoding="UTF-8" standalone="no"?>
<!DOCTYPE svg PUBLIC "-//W3C//DTD SVG 1.1//EN"
 "http://www.w3.org/Graphics/SVG/1.1/DTD/svg11.dtd">
<!-- Generated by graphviz version 2.38.0 (20140413.2041)
 -->
<!-- Title: hermite_integrator.h Pages: 1 -->
<!--zoomable 319 -->
<svg id="main" version="1.1" xmlns="http://www.w3.org/2000/svg" xmlns:xlink="http://www.w3.org/1999/xlink" xml:space="preserve" onload="init(evt)">
<style type="text/css"><![CDATA[
.edge:hover path { stroke: red; }
.edge:hover polygon { stroke: red; fill: red; }
]]></style>
<script type="text/javascript"><![CDATA[
var edges = document.getElementsByTagName('g');
if (edges && edges.length) {
  for (var i=0;i<edges.length;i++) {
    if (edges[i].id.substr(0,4)=='edge') {
      edges[i].setAttribute('class','edge');
    }
  }
}
]]></script>
        <defs>
                <circle id="rim" cx="0" cy="0" r="7"/>
                <circle id="rim2" cx="0" cy="0" r="3.5"/>
                <g id="zoomPlus">
                        <use xlink:href="#rim" fill="#404040">
                                <set attributeName="fill" to="#808080" begin="zoomplus.mouseover" end="zoomplus.mouseout"/>
                        </use>
                        <path d="M-4,0h8M0,-4v8" fill="none" stroke="white" stroke-width="1.5" pointer-events="none"/>
                </g>
                <g id="zoomMin">
                        <use xlink:href="#rim" fill="#404040">
                                <set attributeName="fill" to="#808080" begin="zoomminus.mouseover" end="zoomminus.mouseout"/>
                        </use>
                        <path d="M-4,0h8" fill="none" stroke="white" stroke-width="1.5" pointer-events="none"/>
                </g>
                <g id="dirArrow">
                        <path fill="none" stroke="white" stroke-width="1.5" d="M0,-3.0v7 M-2.5,-0.5L0,-3.0L2.5,-0.5"/>
                </g>
               <g id="resetDef">
                       <use xlink:href="#rim2" fill="#404040">
                               <set attributeName="fill" to="#808080" begin="reset.mouseover" end="reset.mouseout"/>
                       </use>
               </g>
        </defs>

<script type="text/javascript">
var viewWidth = 1069;
var viewHeight = 319;
var sectionId = 'dynsection-0';
</script>
<script xlink:href="svgpan.js"/>
<svg id="graph" class="graph">
<g id="viewport">
<title>hermite_integrator.h</title>
<polygon fill="white" stroke="none" points="-4,4 -4,-315 1065.33,-315 1065.33,4 -4,4"/>
<!-- Node1 -->
<g id="node1" class="node"><title>Node1</title>
<polygon fill="#bfbfbf" stroke="black" points="349.829,-291.5 349.829,-310.5 451.829,-310.5 451.829,-291.5 349.829,-291.5"/>
<text text-anchor="middle" x="400.829" y="-298.5" font-family="FreeSans" font-size="10.00">hermite_integrator.h</text>
</g>
<!-- Node2 -->
<g id="node2" class="node"><title>Node2</title>
<g id="a_node2"><a xlink:href="Float_8h.html" target="_top" xlink:title="Common/Float.h">
<polygon fill="white" stroke="black" points="308.829,-56.5 308.829,-75.5 396.829,-75.5 396.829,-56.5 308.829,-56.5"/>
<text text-anchor="middle" x="352.829" y="-63.5" font-family="FreeSans" font-size="10.00">Common/Float.h</text>
</a>
</g>
</g>
<!-- Node1&#45;&gt;Node2 -->
<g id="edge1" class="edge"><title>Node1&#45;&gt;Node2</title>
<path fill="none" stroke="midnightblue" d="M349.572,-300.583C286.903,-299.504 178.823,-291.763 94.8292,-255 51.3992,-235.991 32.2719,-230.774 11.8292,-188 -21.8336,-117.565 76.1753,-130.107 130.829,-112 186.705,-93.4885 253.134,-81.2402 298.673,-74.2594"/>
<polygon fill="midnightblue" stroke="midnightblue" points="299.264,-77.7101 308.634,-72.7655 298.225,-70.7876 299.264,-77.7101"/>
</g>
<!-- Node4 -->
<g id="node4" class="node"><title>Node4</title>
<g id="a_node4"><a xlink:href="list_8h.html" target="_top" xlink:title="Common/list.h">
<polygon fill="white" stroke="black" points="380.829,-112.5 380.829,-131.5 458.829,-131.5 458.829,-112.5 380.829,-112.5"/>
<text text-anchor="middle" x="419.829" y="-119.5" font-family="FreeSans" font-size="10.00">Common/list.h</text>
</a>
</g>
</g>
<!-- Node1&#45;&gt;Node4 -->
<g id="edge3" class="edge"><title>Node1&#45;&gt;Node4</title>
<path fill="none" stroke="midnightblue" d="M401.746,-291.463C404.648,-264.428 413.685,-180.239 417.778,-142.109"/>
<polygon fill="midnightblue" stroke="midnightblue" points="421.29,-142.185 418.877,-131.868 414.33,-141.438 421.29,-142.185"/>
</g>
<!-- Node5 -->
<g id="node5" class="node"><title>Node5</title>
<g id="a_node5"><a xlink:href="symplectic__integrator_8h.html" target="_top" xlink:title="AR/symplectic_integrator.h">
<polygon fill="white" stroke="black" points="430.829,-230 430.829,-249 562.829,-249 562.829,-230 430.829,-230"/>
<text text-anchor="middle" x="496.829" y="-237" font-family="FreeSans" font-size="10.00">AR/symplectic_integrator.h</text>
</a>
</g>
</g>
<!-- Node1&#45;&gt;Node5 -->
<g id="edge5" class="edge"><title>Node1&#45;&gt;Node5</title>
<path fill="none" stroke="midnightblue" d="M414.584,-291.475C430.196,-281.799 455.893,-265.872 474.412,-254.394"/>
<polygon fill="midnightblue" stroke="midnightblue" points="476.444,-257.252 483.1,-249.009 472.757,-251.302 476.444,-257.252"/>
</g>
<!-- Node19 -->
<g id="node19" class="node"><title>Node19</title>
<g id="a_node19"><a xlink:href="ar__information_8h.html" target="_top" xlink:title="Hermite/ar_information.h">
<polygon fill="white" stroke="black" points="580.829,-230 580.829,-249 702.829,-249 702.829,-230 580.829,-230"/>
<text text-anchor="middle" x="641.829" y="-237" font-family="FreeSans" font-size="10.00">Hermite/ar_information.h</text>
</a>
</g>
</g>
<!-- Node1&#45;&gt;Node19 -->
<g id="edge28" class="edge"><title>Node1&#45;&gt;Node19</title>
<path fill="none" stroke="midnightblue" d="M435.359,-291.475C478.041,-280.937 550.75,-262.986 597.512,-251.441"/>
<polygon fill="midnightblue" stroke="midnightblue" points="598.494,-254.804 607.364,-249.009 596.816,-248.008 598.494,-254.804"/>
</g>
<!-- Node20 -->
<g id="node20" class="node"><title>Node20</title>
<g id="a_node20"><a xlink:href="hermite__particle_8h.html" target="_top" xlink:title="Hermite/hermite_particle.h">
<polygon fill="white" stroke="black" points="20.8292,-168.5 20.8292,-187.5 150.829,-187.5 150.829,-168.5 20.8292,-168.5"/>
<text text-anchor="middle" x="85.8292" y="-175.5" font-family="FreeSans" font-size="10.00">Hermite/hermite_particle.h</text>
</a>
</g>
</g>
<!-- Node1&#45;&gt;Node20 -->
<g id="edge35" class="edge"><title>Node1&#45;&gt;Node20</title>
<path fill="none" stroke="midnightblue" d="M349.599,-297.467C278.837,-293.028 155.928,-281.643 120.829,-255 102.519,-241.101 93.4717,-215.344 89.2323,-197.701"/>
<polygon fill="midnightblue" stroke="midnightblue" points="92.6151,-196.779 87.1326,-187.713 85.7648,-198.219 92.6151,-196.779"/>
</g>
<!-- Node21 -->
<g id="node21" class="node"><title>Node21</title>
<g id="a_node21"><a xlink:href="block__time__step_8h.html" target="_top" xlink:title="Hermite/block_time\l_step.h">
<polygon fill="white" stroke="black" points="259.329,-224.5 259.329,-254.5 360.329,-254.5 360.329,-224.5 259.329,-224.5"/>
<text text-anchor="start" x="267.329" y="-242.5" font-family="FreeSans" font-size="10.00">Hermite/block_time</text>
<text text-anchor="middle" x="309.829" y="-231.5" font-family="FreeSans" font-size="10.00">_step.h</text>
</a>
</g>
</g>
<!-- Node1&#45;&gt;Node21 -->
<g id="edge36" class="edge"><title>Node1&#45;&gt;Node21</title>
<path fill="none" stroke="midnightblue" d="M387.791,-291.475C375.351,-283.341 356.156,-270.791 339.926,-260.179"/>
<polygon fill="midnightblue" stroke="midnightblue" points="341.561,-257.066 331.276,-254.523 337.73,-262.925 341.561,-257.066"/>
</g>
<!-- Node22 -->
<g id="node22" class="node"><title>Node22</title>
<g id="a_node22"><a xlink:href="neighbor_8h.html" target="_top" xlink:title="Hermite/neighbor.h">
<polygon fill="white" stroke="black" points="129.829,-230 129.829,-249 227.829,-249 227.829,-230 129.829,-230"/>
<text text-anchor="middle" x="178.829" y="-237" font-family="FreeSans" font-size="10.00">Hermite/neighbor.h</text>
</a>
</g>
</g>
<!-- Node1&#45;&gt;Node22 -->
<g id="edge38" class="edge"><title>Node1&#45;&gt;Node22</title>
<path fill="none" stroke="midnightblue" d="M369.022,-291.475C329.952,-281.004 263.569,-263.212 220.468,-251.66"/>
<polygon fill="midnightblue" stroke="midnightblue" points="221.143,-248.217 210.577,-249.009 219.33,-254.979 221.143,-248.217"/>
</g>
<!-- Node23 -->
<g id="node23" class="node"><title>Node23</title>
<g id="a_node23"><a xlink:href="Hermite_2profile_8h.html" target="_top" xlink:title="Hermite/profile.h">
<polygon fill="white" stroke="black" points="720.829,-230 720.829,-249 806.829,-249 806.829,-230 720.829,-230"/>
<text text-anchor="middle" x="763.829" y="-237" font-family="FreeSans" font-size="10.00">Hermite/profile.h</text>
</a>
</g>
</g>
<!-- Node1&#45;&gt;Node23 -->
<g id="edge43" class="edge"><title>Node1&#45;&gt;Node23</title>
<path fill="none" stroke="midnightblue" d="M452.09,-294.625C514.029,-287.661 621.214,-274.107 711.829,-255 716.336,-254.05 721.028,-252.93 725.669,-251.741"/>
<polygon fill="midnightblue" stroke="midnightblue" points="726.901,-255.034 735.654,-249.066 725.089,-248.273 726.901,-255.034"/>
</g>
<!-- Node24 -->
<g id="node24" class="node"><title>Node24</title>
<polygon fill="white" stroke="#bfbfbf" points="825.329,-230 825.329,-249 860.329,-249 860.329,-230 825.329,-230"/>
<text text-anchor="middle" x="842.829" y="-237" font-family="FreeSans" font-size="10.00">map</text>
</g>
<!-- Node1&#45;&gt;Node24 -->
<g id="edge44" class="edge"><title>Node1&#45;&gt;Node24</title>
<path fill="none" stroke="midnightblue" d="M451.917,-300.683C531.515,-300.378 689.147,-294.246 815.829,-255 817.259,-254.557 818.7,-254.037 820.133,-253.461"/>
<polygon fill="midnightblue" stroke="midnightblue" points="821.751,-256.567 829.264,-249.096 818.732,-250.251 821.751,-256.567"/>
</g>
<!-- Node3 -->
<g id="node3" class="node"><title>Node3</title>
<polygon fill="white" stroke="#bfbfbf" points="134.329,-0.5 134.329,-19.5 173.329,-19.5 173.329,-0.5 134.329,-0.5"/>
<text text-anchor="middle" x="153.829" y="-7.5" font-family="FreeSans" font-size="10.00">limits</text>
</g>
<!-- Node2&#45;&gt;Node3 -->
<g id="edge2" class="edge"><title>Node2&#45;&gt;Node3</title>
<path fill="none" stroke="midnightblue" d="M321.297,-56.4435C283.33,-46.141 220.072,-28.9755 183.13,-18.951"/>
<polygon fill="midnightblue" stroke="midnightblue" points="184.019,-15.5656 173.451,-16.3245 182.186,-22.3213 184.019,-15.5656"/>
</g>
<!-- Node4&#45;&gt;Node2 -->
<g id="edge4" class="edge"><title>Node4&#45;&gt;Node2</title>
<path fill="none" stroke="midnightblue" d="M409.065,-112.324C399.063,-104.263 383.943,-92.0765 371.899,-82.3695"/>
<polygon fill="midnightblue" stroke="midnightblue" points="373.772,-79.3841 363.79,-75.8339 369.379,-84.8343 373.772,-79.3841"/>
</g>
<!-- Node5&#45;&gt;Node4 -->
<g id="edge7" class="edge"><title>Node5&#45;&gt;Node4</title>
<path fill="none" stroke="midnightblue" d="M489.57,-229.817C481.457,-219.954 468.111,-203.246 457.829,-188 447.346,-172.455 436.681,-153.924 429.328,-140.633"/>
<polygon fill="midnightblue" stroke="midnightblue" points="432.275,-138.726 424.41,-131.627 426.131,-142.081 432.275,-138.726"/>
</g>
<!-- Node6 -->
<g id="node6" class="node"><title>Node6</title>
<polygon fill="white" stroke="#bfbfbf" points="467.329,-168.5 467.329,-187.5 526.329,-187.5 526.329,-168.5 467.329,-168.5"/>
<text text-anchor="middle" x="496.829" y="-175.5" font-family="FreeSans" font-size="10.00">functional</text>
</g>
<!-- Node5&#45;&gt;Node6 -->
<g id="edge6" class="edge"><title>Node5&#45;&gt;Node6</title>
<path fill="none" stroke="midnightblue" d="M496.829,-229.975C496.829,-221.58 496.829,-208.481 496.829,-197.663"/>
<polygon fill="midnightblue" stroke="midnightblue" points="500.329,-197.509 496.829,-187.509 493.329,-197.509 500.329,-197.509"/>
</g>
<!-- Node7 -->
<g id="node7" class="node"><title>Node7</title>
<g id="a_node7"><a xlink:href="particle__group_8h.html" target="_top" xlink:title="Common/particle_group.h">
<polygon fill="white" stroke="black" points="245.329,-168.5 245.329,-187.5 372.329,-187.5 372.329,-168.5 245.329,-168.5"/>
<text text-anchor="middle" x="308.829" y="-175.5" font-family="FreeSans" font-size="10.00">Common/particle_group.h</text>
</a>
</g>
</g>
<!-- Node5&#45;&gt;Node7 -->
<g id="edge8" class="edge"><title>Node5&#45;&gt;Node7</title>
<path fill="none" stroke="midnightblue" d="M469.893,-229.975C437.226,-219.636 382.01,-202.161 345.487,-190.602"/>
<polygon fill="midnightblue" stroke="midnightblue" points="346.305,-187.19 335.715,-187.509 344.193,-193.863 346.305,-187.19"/>
</g>
<!-- Node9 -->
<g id="node9" class="node"><title>Node9</title>
<g id="a_node9"><a xlink:href="symplectic__step_8h.html" target="_top" xlink:title="AR/symplectic_step.h">
<polygon fill="white" stroke="black" points="819.829,-112.5 819.829,-131.5 929.829,-131.5 929.829,-112.5 819.829,-112.5"/>
<text text-anchor="middle" x="874.829" y="-119.5" font-family="FreeSans" font-size="10.00">AR/symplectic_step.h</text>
</a>
</g>
</g>
<!-- Node5&#45;&gt;Node9 -->
<g id="edge12" class="edge"><title>Node5&#45;&gt;Node9</title>
<path fill="none" stroke="midnightblue" d="M539.615,-229.954C550.135,-227.929 561.378,-225.828 571.829,-224 673.749,-206.177 708.278,-232.199 801.829,-188 825.909,-176.623 847.899,-154.767 861.313,-139.556"/>
<polygon fill="midnightblue" stroke="midnightblue" points="864.017,-141.778 867.841,-131.898 858.69,-137.237 864.017,-141.778"/>
</g>
<!-- Node11 -->
<g id="node11" class="node"><title>Node11</title>
<g id="a_node11"><a xlink:href="force_8h.html" target="_top" xlink:title="AR/force.h">
<polygon fill="white" stroke="black" points="509.829,-112.5 509.829,-131.5 571.829,-131.5 571.829,-112.5 509.829,-112.5"/>
<text text-anchor="middle" x="540.829" y="-119.5" font-family="FreeSans" font-size="10.00">AR/force.h</text>
</a>
</g>
</g>
<!-- Node5&#45;&gt;Node11 -->
<g id="edge15" class="edge"><title>Node5&#45;&gt;Node11</title>
<path fill="none" stroke="midnightblue" d="M505.847,-229.781C514.909,-220.4 528.425,-204.581 534.829,-188 540.513,-173.282 541.79,-155.349 541.771,-142.05"/>
<polygon fill="midnightblue" stroke="midnightblue" points="545.262,-141.658 541.5,-131.753 538.265,-141.842 545.262,-141.658"/>
</g>
<!-- Node12 -->
<g id="node12" class="node"><title>Node12</title>
<g id="a_node12"><a xlink:href="slow__down_8h.html" target="_top" xlink:title="AR/slow_down.h">
<polygon fill="white" stroke="black" points="705.329,-168.5 705.329,-187.5 792.329,-187.5 792.329,-168.5 705.329,-168.5"/>
<text text-anchor="middle" x="748.829" y="-175.5" font-family="FreeSans" font-size="10.00">AR/slow_down.h</text>
</a>
</g>
</g>
<!-- Node5&#45;&gt;Node12 -->
<g id="edge17" class="edge"><title>Node5&#45;&gt;Node12</title>
<path fill="none" stroke="midnightblue" d="M532.935,-229.975C577.659,-219.415 653.912,-201.411 702.796,-189.869"/>
<polygon fill="midnightblue" stroke="midnightblue" points="703.863,-193.213 712.791,-187.509 702.254,-186.401 703.863,-193.213"/>
</g>
<!-- Node13 -->
<g id="node13" class="node"><title>Node13</title>
<g id="a_node13"><a xlink:href="AR_2profile_8h.html" target="_top" xlink:title="AR/profile.h">
<polygon fill="white" stroke="black" points="620.829,-168.5 620.829,-187.5 686.829,-187.5 686.829,-168.5 620.829,-168.5"/>
<text text-anchor="middle" x="653.829" y="-175.5" font-family="FreeSans" font-size="10.00">AR/profile.h</text>
</a>
</g>
</g>
<!-- Node5&#45;&gt;Node13 -->
<g id="edge19" class="edge"><title>Node5&#45;&gt;Node13</title>
<path fill="none" stroke="midnightblue" d="M519.323,-229.975C546.138,-219.813 591.144,-202.756 621.639,-191.2"/>
<polygon fill="midnightblue" stroke="midnightblue" points="623.266,-194.326 631.377,-187.509 620.785,-187.78 623.266,-194.326"/>
</g>
<!-- Node15 -->
<g id="node15" class="node"><title>Node15</title>
<g id="a_node15"><a xlink:href="information_8h.html" target="_top" xlink:title="AR/information.h">
<polygon fill="white" stroke="black" points="849.329,-168.5 849.329,-187.5 938.329,-187.5 938.329,-168.5 849.329,-168.5"/>
<text text-anchor="middle" x="893.829" y="-175.5" font-family="FreeSans" font-size="10.00">AR/information.h</text>
</a>
</g>
</g>
<!-- Node5&#45;&gt;Node15 -->
<g id="edge21" class="edge"><title>Node5&#45;&gt;Node15</title>
<path fill="none" stroke="midnightblue" d="M538.803,-229.963C549.548,-227.894 561.099,-225.77 571.829,-224 688.235,-204.795 718.066,-204.896 834.829,-188 836.127,-187.812 837.441,-187.621 838.766,-187.427"/>
<polygon fill="midnightblue" stroke="midnightblue" points="839.683,-190.83 849.062,-185.903 838.657,-183.905 839.683,-190.83"/>
</g>
<!-- Node7&#45;&gt;Node2 -->
<g id="edge10" class="edge"><title>Node7&#45;&gt;Node2</title>
<path fill="none" stroke="midnightblue" d="M305.602,-168.147C301.436,-155.209 295.635,-130.652 303.829,-112 309.219,-99.732 319.787,-89.3414 329.733,-81.6461"/>
<polygon fill="midnightblue" stroke="midnightblue" points="332.081,-84.2697 338.168,-75.598 328.002,-78.5811 332.081,-84.2697"/>
</g>
<!-- Node7&#45;&gt;Node4 -->
<g id="edge11" class="edge"><title>Node7&#45;&gt;Node4</title>
<path fill="none" stroke="midnightblue" d="M326.663,-168.324C344.545,-159.625 372.304,-146.12 392.875,-136.113"/>
<polygon fill="midnightblue" stroke="midnightblue" points="394.578,-139.177 402.039,-131.655 391.516,-132.882 394.578,-139.177"/>
</g>
<!-- Node8 -->
<g id="node8" class="node"><title>Node8</title>
<polygon fill="white" stroke="#bfbfbf" points="312.829,-112.5 312.829,-131.5 362.829,-131.5 362.829,-112.5 312.829,-112.5"/>
<text text-anchor="middle" x="337.829" y="-119.5" font-family="FreeSans" font-size="10.00">iomanip</text>
</g>
<!-- Node7&#45;&gt;Node8 -->
<g id="edge9" class="edge"><title>Node7&#45;&gt;Node8</title>
<path fill="none" stroke="midnightblue" d="M313.618,-168.083C317.588,-160.691 323.354,-149.953 328.264,-140.811"/>
<polygon fill="midnightblue" stroke="midnightblue" points="331.482,-142.217 333.13,-131.751 325.315,-138.905 331.482,-142.217"/>
</g>
<!-- Node9&#45;&gt;Node2 -->
<g id="edge14" class="edge"><title>Node9&#45;&gt;Node2</title>
<path fill="none" stroke="midnightblue" d="M819.486,-113.629C814.868,-113.061 810.27,-112.51 805.829,-112 662.055,-95.4863 492.191,-79.5732 407.12,-71.8504"/>
<polygon fill="midnightblue" stroke="midnightblue" points="407.2,-68.3435 396.925,-70.9274 406.569,-75.3149 407.2,-68.3435"/>
</g>
<!-- Node10 -->
<g id="node10" class="node"><title>Node10</title>
<polygon fill="white" stroke="#bfbfbf" points="855.829,-56.5 855.829,-75.5 911.829,-75.5 911.829,-56.5 855.829,-56.5"/>
<text text-anchor="middle" x="883.829" y="-63.5" font-family="FreeSans" font-size="10.00">algorithm</text>
</g>
<!-- Node9&#45;&gt;Node10 -->
<g id="edge13" class="edge"><title>Node9&#45;&gt;Node10</title>
<path fill="none" stroke="midnightblue" d="M876.315,-112.083C877.508,-104.927 879.223,-94.6353 880.714,-85.6911"/>
<polygon fill="midnightblue" stroke="midnightblue" points="884.179,-86.1904 882.371,-75.7511 877.274,-85.0396 884.179,-86.1904"/>
</g>
<!-- Node11&#45;&gt;Node2 -->
<g id="edge16" class="edge"><title>Node11&#45;&gt;Node2</title>
<path fill="none" stroke="midnightblue" d="M511.04,-112.444C479,-103.241 427.896,-88.5617 392.476,-78.3879"/>
<polygon fill="midnightblue" stroke="midnightblue" points="393.057,-74.9132 382.479,-75.5164 391.124,-81.6412 393.057,-74.9132"/>
</g>
<!-- Node12&#45;&gt;Node2 -->
<g id="edge18" class="edge"><title>Node12&#45;&gt;Node2</title>
<path fill="none" stroke="midnightblue" d="M744.166,-168.496C735.786,-154.129 716.707,-125.315 691.829,-112 643.716,-86.2488 489.893,-74.2765 406.99,-69.5729"/>
<polygon fill="midnightblue" stroke="midnightblue" points="407.178,-66.0779 397,-69.0218 406.792,-73.0673 407.178,-66.0779"/>
</g>
<!-- Node14 -->
<g id="node14" class="node"><title>Node14</title>
<polygon fill="white" stroke="#bfbfbf" points="624.329,-112.5 624.329,-131.5 683.329,-131.5 683.329,-112.5 624.329,-112.5"/>
<text text-anchor="middle" x="653.829" y="-119.5" font-family="FreeSans" font-size="10.00">sys/time.h</text>
</g>
<!-- Node13&#45;&gt;Node14 -->
<g id="edge20" class="edge"><title>Node13&#45;&gt;Node14</title>
<path fill="none" stroke="midnightblue" d="M653.829,-168.083C653.829,-161.006 653.829,-150.861 653.829,-141.986"/>
<polygon fill="midnightblue" stroke="midnightblue" points="657.329,-141.751 653.829,-131.751 650.329,-141.751 657.329,-141.751"/>
</g>
<!-- Node15&#45;&gt;Node2 -->
<g id="edge22" class="edge"><title>Node15&#45;&gt;Node2</title>
<path fill="none" stroke="midnightblue" d="M871.706,-168.453C828.163,-151.68 734.219,-115.75 718.829,-112 610.19,-85.5308 479.424,-74.2327 407.294,-69.7254"/>
<polygon fill="midnightblue" stroke="midnightblue" points="407.28,-66.2183 397.087,-69.1087 406.858,-73.2055 407.28,-66.2183"/>
</g>
<!-- Node16 -->
<g id="node16" class="node"><title>Node16</title>
<g id="a_node16"><a xlink:href="binary__tree_8h.html" target="_top" xlink:title="Common/binary_tree.h">
<polygon fill="white" stroke="black" points="948.329,-112.5 948.329,-131.5 1061.33,-131.5 1061.33,-112.5 948.329,-112.5"/>
<text text-anchor="middle" x="1004.83" y="-119.5" font-family="FreeSans" font-size="10.00">Common/binary_tree.h</text>
</a>
</g>
</g>
<!-- Node15&#45;&gt;Node16 -->
<g id="edge23" class="edge"><title>Node15&#45;&gt;Node16</title>
<path fill="none" stroke="midnightblue" d="M911.663,-168.324C929.545,-159.625 957.304,-146.12 977.875,-136.113"/>
<polygon fill="midnightblue" stroke="midnightblue" points="979.578,-139.177 987.039,-131.655 976.516,-132.882 979.578,-139.177"/>
</g>
<!-- Node16&#45;&gt;Node10 -->
<g id="edge25" class="edge"><title>Node16&#45;&gt;Node10</title>
<path fill="none" stroke="midnightblue" d="M985.656,-112.444C965.92,-103.636 934.944,-89.8116 912.336,-79.722"/>
<polygon fill="midnightblue" stroke="midnightblue" points="913.471,-76.3957 902.912,-75.5164 910.618,-82.788 913.471,-76.3957"/>
</g>
<!-- Node17 -->
<g id="node17" class="node"><title>Node17</title>
<polygon fill="white" stroke="#bfbfbf" points="1009.83,-0.5 1009.83,-19.5 1053.83,-19.5 1053.83,-0.5 1009.83,-0.5"/>
<text text-anchor="middle" x="1031.83" y="-7.5" font-family="FreeSans" font-size="10.00">cmath</text>
</g>
<!-- Node16&#45;&gt;Node17 -->
<g id="edge24" class="edge"><title>Node16&#45;&gt;Node17</title>
<path fill="none" stroke="midnightblue" d="M1017.89,-112.436C1028.74,-104.471 1043.4,-91.5154 1049.83,-76 1056.26,-60.4828 1049.83,-41.9482 1042.94,-28.649"/>
<polygon fill="midnightblue" stroke="midnightblue" points="1045.78,-26.5771 1037.78,-19.6362 1039.71,-30.0539 1045.78,-26.5771"/>
</g>
<!-- Node18 -->
<g id="node18" class="node"><title>Node18</title>
<g id="a_node18"><a xlink:href="matrix_8h.html" target="_top" xlink:title="Common/matrix.h">
<polygon fill="white" stroke="black" points="948.829,-56.5 948.829,-75.5 1040.83,-75.5 1040.83,-56.5 948.829,-56.5"/>
<text text-anchor="middle" x="994.829" y="-63.5" font-family="FreeSans" font-size="10.00">Common/matrix.h</text>
</a>
</g>
</g>
<!-- Node16&#45;&gt;Node18 -->
<g id="edge26" class="edge"><title>Node16&#45;&gt;Node18</title>
<path fill="none" stroke="midnightblue" d="M1003.18,-112.083C1001.85,-104.927 999.947,-94.6353 998.291,-85.6911"/>
<polygon fill="midnightblue" stroke="midnightblue" points="1001.71,-84.9466 996.45,-75.7511 994.829,-86.2212 1001.71,-84.9466"/>
</g>
<!-- Node18&#45;&gt;Node17 -->
<g id="edge27" class="edge"><title>Node18&#45;&gt;Node17</title>
<path fill="none" stroke="midnightblue" d="M1000.94,-56.083C1006.11,-48.5341 1013.68,-37.4948 1020.02,-28.2298"/>
<polygon fill="midnightblue" stroke="midnightblue" points="1023.07,-29.9787 1025.83,-19.7511 1017.29,-26.0221 1023.07,-29.9787"/>
</g>
<!-- Node19&#45;&gt;Node2 -->
<g id="edge29" class="edge"><title>Node19&#45;&gt;Node2</title>
<path fill="none" stroke="midnightblue" d="M681.369,-229.929C691.294,-227.883 701.935,-225.778 711.829,-224 817.931,-204.932 1013.66,-253.366 947.829,-168 909.383,-118.146 870.614,-151.728 810.829,-132 788.101,-124.5 784.048,-117.809 760.829,-112 636.777,-80.9606 486.17,-71.3255 407.187,-68.3385"/>
<polygon fill="midnightblue" stroke="midnightblue" points="407.109,-64.8336 396.99,-67.9751 406.859,-71.8292 407.109,-64.8336"/>
</g>
<!-- Node19&#45;&gt;Node4 -->
<g id="edge30" class="edge"><title>Node19&#45;&gt;Node4</title>
<path fill="none" stroke="midnightblue" d="M630.446,-229.837C611.408,-215.621 571.573,-187.026 534.829,-168 509.289,-154.775 478.938,-143.054 455.831,-134.892"/>
<polygon fill="midnightblue" stroke="midnightblue" points="456.682,-131.482 446.087,-131.508 454.386,-138.095 456.682,-131.482"/>
</g>
<!-- Node19&#45;&gt;Node15 -->
<g id="edge34" class="edge"><title>Node19&#45;&gt;Node15</title>
<path fill="none" stroke="midnightblue" d="M677.935,-229.975C722.659,-219.415 798.912,-201.411 847.796,-189.869"/>
<polygon fill="midnightblue" stroke="midnightblue" points="848.863,-193.213 857.791,-187.509 847.254,-186.401 848.863,-193.213"/>
</g>
<!-- Node19&#45;&gt;Node16 -->
<g id="edge31" class="edge"><title>Node19&#45;&gt;Node16</title>
<path fill="none" stroke="midnightblue" d="M680.613,-229.953C690.746,-227.861 701.674,-225.729 711.829,-224 771.284,-213.877 933.747,-225.691 980.829,-188 994.748,-176.857 1000.59,-156.828 1003.05,-141.938"/>
<polygon fill="midnightblue" stroke="midnightblue" points="1006.55,-142.148 1004.35,-131.786 999.608,-141.263 1006.55,-142.148"/>
</g>
<!-- Node19&#45;&gt;Node20 -->
<g id="edge32" class="edge"><title>Node19&#45;&gt;Node20</title>
<path fill="none" stroke="midnightblue" d="M604.55,-229.971C594.013,-227.781 582.508,-225.595 571.829,-224 427.293,-202.408 256.925,-189.485 161.131,-183.35"/>
<polygon fill="midnightblue" stroke="midnightblue" points="161.162,-179.845 150.961,-182.707 160.72,-186.831 161.162,-179.845"/>
</g>
<!-- Node20&#45;&gt;Node2 -->
<g id="edge33" class="edge"><title>Node20&#45;&gt;Node2</title>
<path fill="none" stroke="midnightblue" d="M93.6849,-168.379C106.951,-154.361 135.253,-126.717 164.829,-112 207.168,-90.9332 259.855,-79.4243 298.672,-73.334"/>
<polygon fill="midnightblue" stroke="midnightblue" points="299.358,-76.7705 308.729,-71.8281 298.321,-69.8476 299.358,-76.7705"/>
</g>
<!-- Node21&#45;&gt;Node2 -->
<g id="edge37" class="edge"><title>Node21&#45;&gt;Node2</title>
<path fill="none" stroke="midnightblue" d="M275.842,-224.305C251.731,-211.885 225.363,-192.086 235.829,-168 253.509,-127.315 297.144,-97.0585 325.84,-80.7273"/>
<polygon fill="midnightblue" stroke="midnightblue" points="327.861,-83.6105 334.94,-75.7278 324.49,-77.4754 327.861,-83.6105"/>
</g>
<!-- Node22&#45;&gt;Node2 -->
<g id="edge39" class="edge"><title>Node22&#45;&gt;Node2</title>
<path fill="none" stroke="midnightblue" d="M182.054,-229.957C190.828,-207.731 217.163,-147.377 256.829,-112 273.324,-97.2894 295.464,-86.4788 314.325,-79.1459"/>
<polygon fill="midnightblue" stroke="midnightblue" points="315.678,-82.3776 323.843,-75.626 313.249,-75.8122 315.678,-82.3776"/>
</g>
<!-- Node22&#45;&gt;Node3 -->
<g id="edge42" class="edge"><title>Node22&#45;&gt;Node3</title>
<path fill="none" stroke="midnightblue" d="M129.792,-238.4C90.8895,-235.4 38.7299,-224.238 11.8292,-188 -34.5935,-125.463 75.3674,-53.9574 127.863,-24.63"/>
<polygon fill="midnightblue" stroke="midnightblue" points="129.856,-27.5293 136.946,-19.6564 126.494,-21.3895 129.856,-27.5293"/>
</g>
<!-- Node22&#45;&gt;Node7 -->
<g id="edge40" class="edge"><title>Node22&#45;&gt;Node7</title>
<path fill="none" stroke="midnightblue" d="M197.455,-229.975C219.272,-219.99 255.633,-203.348 280.846,-191.807"/>
<polygon fill="midnightblue" stroke="midnightblue" points="282.602,-194.853 290.238,-187.509 279.688,-188.488 282.602,-194.853"/>
</g>
<!-- Node22&#45;&gt;Node20 -->
<g id="edge41" class="edge"><title>Node22&#45;&gt;Node20</title>
<path fill="none" stroke="midnightblue" d="M165.505,-229.975C150.45,-220.343 125.714,-204.517 107.792,-193.052"/>
<polygon fill="midnightblue" stroke="midnightblue" points="109.439,-189.95 99.1291,-187.509 105.666,-195.847 109.439,-189.95"/>
</g>
</g>
</svg>
        <g id="navigator" transform="translate(0 0)" fill="#404254">
                <rect fill="#f2f5e9" fill-opacity="0.5" stroke="#606060" stroke-width=".5" x="0" y="0" width="60" height="60"/>
                <use id="zoomplus" xlink:href="#zoomPlus" x="17" y="9" onmousedown="handleZoom(evt,'in')"/>
                <use id="zoomminus" xlink:href="#zoomMin" x="42" y="9" onmousedown="handleZoom(evt,'out')"/>
                <use id="reset" xlink:href="#resetDef" x="30" y="36" onmousedown="handleReset()"/>
                <g id="arrowUp" xlink:href="#dirArrow" transform="translate(30 24)" onmousedown="handlePan(0,-1)">
                  <use xlink:href="#rim" fill="#404040">
                        <set attributeName="fill" to="#808080" begin="arrowUp.mouseover" end="arrowUp.mouseout"/>
                  </use>
                  <path fill="none" stroke="white" stroke-width="1.5" d="M0,-3.0v7 M-2.5,-0.5L0,-3.0L2.5,-0.5"/>
                </g>
                <g id="arrowRight" xlink:href="#dirArrow" transform="rotate(90) translate(36 -43)" onmousedown="handlePan(1,0)">
                  <use xlink:href="#rim" fill="#404040">
                        <set attributeName="fill" to="#808080" begin="arrowRight.mouseover" end="arrowRight.mouseout"/>
                  </use>
                  <path fill="none" stroke="white" stroke-width="1.5" d="M0,-3.0v7 M-2.5,-0.5L0,-3.0L2.5,-0.5"/>
                </g>
                <g id="arrowDown" xlink:href="#dirArrow" transform="rotate(180) translate(-30 -48)" onmousedown="handlePan(0,1)">
                  <use xlink:href="#rim" fill="#404040">
                        <set attributeName="fill" to="#808080" begin="arrowDown.mouseover" end="arrowDown.mouseout"/>
                  </use>
                  <path fill="none" stroke="white" stroke-width="1.5" d="M0,-3.0v7 M-2.5,-0.5L0,-3.0L2.5,-0.5"/>
                </g>
                <g id="arrowLeft" xlink:href="#dirArrow" transform="rotate(270) translate(-36 17)" onmousedown="handlePan(-1,0)">
                  <use xlink:href="#rim" fill="#404040">
                        <set attributeName="fill" to="#808080" begin="arrowLeft.mouseover" end="arrowLeft.mouseout"/>
                  </use>
                  <path fill="none" stroke="white" stroke-width="1.5" d="M0,-3.0v7 M-2.5,-0.5L0,-3.0L2.5,-0.5"/>
                </g>
        </g>
        <svg viewBox="0 0 15 15" width="100%" height="30px" preserveAspectRatio="xMaxYMin meet">
         <g id="arrow_out" transform="scale(0.3 0.3)">
          <a xlink:href="hermite__integrator_8h__incl_org.svg" target="_base">
           <rect id="button" ry="5" rx="5" y="6" x="6" height="38" width="38"
                fill="#f2f5e9" fill-opacity="0.5" stroke="#606060" stroke-width="1.0"/>
           <path id="arrow"
             d="M 11.500037,31.436501 C 11.940474,20.09759 22.043105,11.32322 32.158766,21.979434 L 37.068811,17.246167 C 37.068811,17.246167 37.088388,32 37.088388,32 L 22.160133,31.978069 C 22.160133,31.978069 26.997745,27.140456 26.997745,27.140456 C 18.528582,18.264221 13.291696,25.230495 11.500037,31.436501 z"
             style="fill:#404040;"/>
          </a>
         </g>
        </svg>
</svg>
