<?xml version="1.0" encoding="UTF-8" standalone="no"?>
<!DOCTYPE svg PUBLIC "-//W3C//DTD SVG 1.1//EN"
 "http://www.w3.org/Graphics/SVG/1.1/DTD/svg11.dtd">
<!-- Generated by graphviz version 2.38.0 (20140413.2041)
 -->
<!-- Title: hermite_particle.h Pages: 1 -->
<svg width="212pt" height="140pt"
 viewBox="0.00 0.00 211.50 140.00" xmlns="http://www.w3.org/2000/svg" xmlns:xlink="http://www.w3.org/1999/xlink">
<g id="graph0" class="graph" transform="scale(1 1) rotate(0) translate(4 136)">
<title>hermite_particle.h</title>
<polygon fill="white" stroke="none" points="-4,4 -4,-136 207.5,-136 207.5,4 -4,4"/>
<!-- Node1 -->
<g id="node1" class="node"><title>Node1</title>
<polygon fill="#bfbfbf" stroke="black" points="67.5,-112.5 67.5,-131.5 160.5,-131.5 160.5,-112.5 67.5,-112.5"/>
<text text-anchor="middle" x="114" y="-119.5" font-family="FreeSans" font-size="10.00">hermite_particle.h</text>
</g>
<!-- Node2 -->
<g id="node2" class="node"><title>Node2</title>
<g id="a_node2"><a xlink:href="ar__information_8h.html" target="_top" xlink:title="ar_information.h">
<polygon fill="white" stroke="black" points="0,-56.5 0,-75.5 86,-75.5 86,-56.5 0,-56.5"/>
<text text-anchor="middle" x="43" y="-63.5" font-family="FreeSans" font-size="10.00">ar_information.h</text>
</a>
</g>
</g>
<!-- Node1&#45;&gt;Node2 -->
<g id="edge1" class="edge"><title>Node1&#45;&gt;Node2</title>
<path fill="none" stroke="midnightblue" d="M94.4103,-106.101C81.6324,-96.3824 65.3873,-84.0269 54.6149,-75.8339"/>
<polygon fill="midnightblue" stroke="midnightblue" points="92.5143,-109.056 102.593,-112.324 96.7519,-103.484 92.5143,-109.056"/>
</g>
<!-- Node3 -->
<g id="node3" class="node"><title>Node3</title>
<g id="a_node3"><a xlink:href="hermite__integrator_8h.html" target="_top" xlink:title="hermite_integrator.h">
<polygon fill="white" stroke="black" points="63,-0.5 63,-19.5 165,-19.5 165,-0.5 63,-0.5"/>
<text text-anchor="middle" x="114" y="-7.5" font-family="FreeSans" font-size="10.00">hermite_integrator.h</text>
</a>
</g>
</g>
<!-- Node1&#45;&gt;Node3 -->
<g id="edge3" class="edge"><title>Node1&#45;&gt;Node3</title>
<path fill="none" stroke="midnightblue" d="M114,-102.348C114,-78.2538 114,-37.3079 114,-19.5914"/>
<polygon fill="midnightblue" stroke="midnightblue" points="110.5,-102.368 114,-112.368 117.5,-102.369 110.5,-102.368"/>
</g>
<!-- Node4 -->
<g id="node4" class="node"><title>Node4</title>
<g id="a_node4"><a xlink:href="neighbor_8h.html" target="_top" xlink:title="neighbor.h">
<polygon fill="white" stroke="black" points="142.5,-56.5 142.5,-75.5 203.5,-75.5 203.5,-56.5 142.5,-56.5"/>
<text text-anchor="middle" x="173" y="-63.5" font-family="FreeSans" font-size="10.00">neighbor.h</text>
</a>
</g>
</g>
<!-- Node1&#45;&gt;Node4 -->
<g id="edge4" class="edge"><title>Node1&#45;&gt;Node4</title>
<path fill="none" stroke="midnightblue" d="M130.895,-105.537C141.415,-95.9087 154.569,-83.8694 163.348,-75.8339"/>
<polygon fill="midnightblue" stroke="midnightblue" points="128.493,-102.99 123.479,-112.324 133.219,-108.154 128.493,-102.99"/>
</g>
<!-- Node2&#45;&gt;Node3 -->
<g id="edge2" class="edge"><title>Node2&#45;&gt;Node3</title>
<path fill="none" stroke="midnightblue" d="M62.5897,-50.1008C75.3676,-40.3824 91.6127,-28.0269 102.385,-19.8339"/>
<polygon fill="midnightblue" stroke="midnightblue" points="60.2481,-47.4844 54.4074,-56.324 64.4857,-53.0561 60.2481,-47.4844"/>
</g>
<!-- Node4&#45;&gt;Node3 -->
<g id="edge5" class="edge"><title>Node4&#45;&gt;Node3</title>
<path fill="none" stroke="midnightblue" d="M156.105,-49.5372C145.585,-39.9087 132.431,-27.8694 123.652,-19.8339"/>
<polygon fill="midnightblue" stroke="midnightblue" points="153.781,-52.1542 163.521,-56.324 158.507,-46.9905 153.781,-52.1542"/>
</g>
</g>
</svg>
