<?xml version="1.0" encoding="UTF-8" standalone="no"?>
<!DOCTYPE svg PUBLIC "-//W3C//DTD SVG 1.1//EN"
 "http://www.w3.org/Graphics/SVG/1.1/DTD/svg11.dtd">
<!-- Generated by graphviz version 2.38.0 (20140413.2041)
 -->
<!-- Title: information.h Pages: 1 -->
<svg width="228pt" height="140pt"
 viewBox="0.00 0.00 228.00 140.00" xmlns="http://www.w3.org/2000/svg" xmlns:xlink="http://www.w3.org/1999/xlink">
<g id="graph0" class="graph" transform="scale(1 1) rotate(0) translate(4 136)">
<title>information.h</title>
<polygon fill="white" stroke="none" points="-4,4 -4,-136 224,-136 224,4 -4,4"/>
<!-- Node1 -->
<g id="node1" class="node"><title>Node1</title>
<polygon fill="#bfbfbf" stroke="black" points="81,-112.5 81,-131.5 153,-131.5 153,-112.5 81,-112.5"/>
<text text-anchor="middle" x="117" y="-119.5" font-family="FreeSans" font-size="10.00">information.h</text>
</g>
<!-- Node2 -->
<g id="node2" class="node"><title>Node2</title>
<g id="a_node2"><a xlink:href="symplectic__integrator_8h.html" target="_top" xlink:title="symplectic_integrator.h">
<polygon fill="white" stroke="black" points="0,-56.5 0,-75.5 116,-75.5 116,-56.5 0,-56.5"/>
<text text-anchor="middle" x="58" y="-63.5" font-family="FreeSans" font-size="10.00">symplectic_integrator.h</text>
</a>
</g>
</g>
<!-- Node1&#45;&gt;Node2 -->
<g id="edge1" class="edge"><title>Node1&#45;&gt;Node2</title>
<path fill="none" stroke="midnightblue" d="M100.105,-105.537C89.5855,-95.9087 76.4313,-83.8694 67.6519,-75.8339"/>
<polygon fill="midnightblue" stroke="midnightblue" points="97.7808,-108.154 107.521,-112.324 102.507,-102.99 97.7808,-108.154"/>
</g>
<!-- Node4 -->
<g id="node4" class="node"><title>Node4</title>
<g id="a_node4"><a xlink:href="ar__information_8h.html" target="_top" xlink:title="ar_information.h">
<polygon fill="white" stroke="black" points="134,-56.5 134,-75.5 220,-75.5 220,-56.5 134,-56.5"/>
<text text-anchor="middle" x="177" y="-63.5" font-family="FreeSans" font-size="10.00">ar_information.h</text>
</a>
</g>
</g>
<!-- Node1&#45;&gt;Node4 -->
<g id="edge3" class="edge"><title>Node1&#45;&gt;Node4</title>
<path fill="none" stroke="midnightblue" d="M134.181,-105.537C144.879,-95.9087 158.256,-83.8694 167.185,-75.8339"/>
<polygon fill="midnightblue" stroke="midnightblue" points="131.732,-103.033 126.64,-112.324 136.414,-108.236 131.732,-103.033"/>
</g>
<!-- Node3 -->
<g id="node3" class="node"><title>Node3</title>
<g id="a_node3"><a xlink:href="hermite__integrator_8h.html" target="_top" xlink:title="hermite_integrator.h">
<polygon fill="white" stroke="black" points="66,-0.5 66,-19.5 168,-19.5 168,-0.5 66,-0.5"/>
<text text-anchor="middle" x="117" y="-7.5" font-family="FreeSans" font-size="10.00">hermite_integrator.h</text>
</a>
</g>
</g>
<!-- Node2&#45;&gt;Node3 -->
<g id="edge2" class="edge"><title>Node2&#45;&gt;Node3</title>
<path fill="none" stroke="midnightblue" d="M74.8945,-49.5372C85.4145,-39.9087 98.5687,-27.8694 107.348,-19.8339"/>
<polygon fill="midnightblue" stroke="midnightblue" points="72.4931,-46.9905 67.4794,-56.324 77.2192,-52.1542 72.4931,-46.9905"/>
</g>
<!-- Node4&#45;&gt;Node3 -->
<g id="edge4" class="edge"><title>Node4&#45;&gt;Node3</title>
<path fill="none" stroke="midnightblue" d="M159.819,-49.5372C149.121,-39.9087 135.744,-27.8694 126.815,-19.8339"/>
<polygon fill="midnightblue" stroke="midnightblue" points="157.586,-52.2358 167.36,-56.324 162.268,-47.0327 157.586,-52.2358"/>
</g>
</g>
</svg>
