<?xml version="1.0" encoding="UTF-8" standalone="no"?>
<!DOCTYPE svg PUBLIC "-//W3C//DTD SVG 1.1//EN"
 "http://www.w3.org/Graphics/SVG/1.1/DTD/svg11.dtd">
<!-- Generated by graphviz version 2.38.0 (20140413.2041)
 -->
<!-- Title: information.h Pages: 1 -->
<svg width="309pt" height="196pt"
 viewBox="0.00 0.00 309.00 196.00" xmlns="http://www.w3.org/2000/svg" xmlns:xlink="http://www.w3.org/1999/xlink">
<g id="graph0" class="graph" transform="scale(1 1) rotate(0) translate(4 192)">
<title>information.h</title>
<polygon fill="white" stroke="none" points="-4,4 -4,-192 305,-192 305,4 -4,4"/>
<!-- Node1 -->
<g id="node1" class="node"><title>Node1</title>
<polygon fill="#bfbfbf" stroke="black" points="67,-168.5 67,-187.5 139,-187.5 139,-168.5 67,-168.5"/>
<text text-anchor="middle" x="103" y="-175.5" font-family="FreeSans" font-size="10.00">information.h</text>
</g>
<!-- Node2 -->
<g id="node2" class="node"><title>Node2</title>
<g id="a_node2"><a xlink:href="Float_8h.html" target="_top" xlink:title="Common/Float.h">
<polygon fill="white" stroke="black" points="0,-112.5 0,-131.5 88,-131.5 88,-112.5 0,-112.5"/>
<text text-anchor="middle" x="44" y="-119.5" font-family="FreeSans" font-size="10.00">Common/Float.h</text>
</a>
</g>
</g>
<!-- Node1&#45;&gt;Node2 -->
<g id="edge1" class="edge"><title>Node1&#45;&gt;Node2</title>
<path fill="none" stroke="midnightblue" d="M93.5206,-168.324C84.7989,-160.341 71.6565,-148.313 61.1022,-138.653"/>
<polygon fill="midnightblue" stroke="midnightblue" points="63.3917,-136.004 53.6519,-131.834 58.6655,-141.167 63.3917,-136.004"/>
</g>
<!-- Node4 -->
<g id="node4" class="node"><title>Node4</title>
<g id="a_node4"><a xlink:href="binary__tree_8h.html" target="_top" xlink:title="Common/binary_tree.h">
<polygon fill="white" stroke="black" points="106.5,-112.5 106.5,-131.5 219.5,-131.5 219.5,-112.5 106.5,-112.5"/>
<text text-anchor="middle" x="163" y="-119.5" font-family="FreeSans" font-size="10.00">Common/binary_tree.h</text>
</a>
</g>
</g>
<!-- Node1&#45;&gt;Node4 -->
<g id="edge3" class="edge"><title>Node1&#45;&gt;Node4</title>
<path fill="none" stroke="midnightblue" d="M112.64,-168.324C121.51,-160.341 134.875,-148.313 145.608,-138.653"/>
<polygon fill="midnightblue" stroke="midnightblue" points="148.093,-141.125 153.185,-131.834 143.41,-135.922 148.093,-141.125"/>
</g>
<!-- Node3 -->
<g id="node3" class="node"><title>Node3</title>
<polygon fill="white" stroke="#bfbfbf" points="24.5,-56.5 24.5,-75.5 63.5,-75.5 63.5,-56.5 24.5,-56.5"/>
<text text-anchor="middle" x="44" y="-63.5" font-family="FreeSans" font-size="10.00">limits</text>
</g>
<!-- Node2&#45;&gt;Node3 -->
<g id="edge2" class="edge"><title>Node2&#45;&gt;Node3</title>
<path fill="none" stroke="midnightblue" d="M44,-112.083C44,-105.006 44,-94.8611 44,-85.9865"/>
<polygon fill="midnightblue" stroke="midnightblue" points="47.5001,-85.751 44,-75.7511 40.5001,-85.7511 47.5001,-85.751"/>
</g>
<!-- Node5 -->
<g id="node5" class="node"><title>Node5</title>
<polygon fill="white" stroke="#bfbfbf" points="159,-0.5 159,-19.5 203,-19.5 203,-0.5 159,-0.5"/>
<text text-anchor="middle" x="181" y="-7.5" font-family="FreeSans" font-size="10.00">cmath</text>
</g>
<!-- Node4&#45;&gt;Node5 -->
<g id="edge4" class="edge"><title>Node4&#45;&gt;Node5</title>
<path fill="none" stroke="midnightblue" d="M152.032,-112.391C137.857,-100.153 116.102,-76.8866 126,-56 132.128,-43.0681 143.994,-32.6167 155.141,-25.0528"/>
<polygon fill="midnightblue" stroke="midnightblue" points="157.195,-27.8958 163.802,-19.6136 153.472,-21.9678 157.195,-27.8958"/>
</g>
<!-- Node6 -->
<g id="node6" class="node"><title>Node6</title>
<polygon fill="white" stroke="#bfbfbf" points="135,-56.5 135,-75.5 191,-75.5 191,-56.5 135,-56.5"/>
<text text-anchor="middle" x="163" y="-63.5" font-family="FreeSans" font-size="10.00">algorithm</text>
</g>
<!-- Node4&#45;&gt;Node6 -->
<g id="edge5" class="edge"><title>Node4&#45;&gt;Node6</title>
<path fill="none" stroke="midnightblue" d="M163,-112.083C163,-105.006 163,-94.8611 163,-85.9865"/>
<polygon fill="midnightblue" stroke="midnightblue" points="166.5,-85.751 163,-75.7511 159.5,-85.7511 166.5,-85.751"/>
</g>
<!-- Node7 -->
<g id="node7" class="node"><title>Node7</title>
<g id="a_node7"><a xlink:href="matrix_8h.html" target="_top" xlink:title="Common/matrix.h">
<polygon fill="white" stroke="black" points="209,-56.5 209,-75.5 301,-75.5 301,-56.5 209,-56.5"/>
<text text-anchor="middle" x="255" y="-63.5" font-family="FreeSans" font-size="10.00">Common/matrix.h</text>
</a>
</g>
</g>
<!-- Node4&#45;&gt;Node7 -->
<g id="edge6" class="edge"><title>Node4&#45;&gt;Node7</title>
<path fill="none" stroke="midnightblue" d="M177.781,-112.324C192.267,-103.822 214.573,-90.7288 231.493,-80.7975"/>
<polygon fill="midnightblue" stroke="midnightblue" points="233.403,-83.735 240.255,-75.6545 229.859,-77.6981 233.403,-83.735"/>
</g>
<!-- Node7&#45;&gt;Node5 -->
<g id="edge7" class="edge"><title>Node7&#45;&gt;Node5</title>
<path fill="none" stroke="midnightblue" d="M243.111,-56.324C231.85,-48.1066 214.713,-35.6017 201.291,-25.8069"/>
<polygon fill="midnightblue" stroke="midnightblue" points="203.247,-22.9014 193.106,-19.8339 199.12,-28.5559 203.247,-22.9014"/>
</g>
</g>
</svg>
