<?xml version="1.0" encoding="UTF-8" standalone="no"?>
<!DOCTYPE svg PUBLIC "-//W3C//DTD SVG 1.1//EN"
 "http://www.w3.org/Graphics/SVG/1.1/DTD/svg11.dtd">
<!-- Generated by graphviz version 2.38.0 (20140413.2041)
 -->
<!-- Title: Graphical Class Hierarchy Pages: 1 -->
<svg width="430pt" height="230pt"
 viewBox="0.00 0.00 430.00 230.00" xmlns="http://www.w3.org/2000/svg" xmlns:xlink="http://www.w3.org/1999/xlink">
<g id="graph0" class="graph" transform="scale(1 1) rotate(0) translate(4 226)">
<title>Graphical Class Hierarchy</title>
<polygon fill="white" stroke="none" points="-4,4 -4,-226 426,-226 426,4 -4,4"/>
<!-- Node1 -->
<g id="node1" class="node"><title>Node1</title>
<polygon fill="white" stroke="#bfbfbf" points="20.5,-202.5 20.5,-221.5 58.5,-221.5 58.5,-202.5 20.5,-202.5"/>
<text text-anchor="middle" x="39.5" y="-209.5" font-family="FreeSans" font-size="10.00">Tptcl</text>
</g>
<!-- Node2 -->
<g id="node2" class="node"><title>Node2</title>
<g id="a_node2"><a xlink:href="classCOMM_1_1BinaryTree.html" target="_top" xlink:title="Binary tree cell. ">
<polygon fill="white" stroke="black" points="122.5,-202.5 122.5,-221.5 259.5,-221.5 259.5,-202.5 122.5,-202.5"/>
<text text-anchor="middle" x="191" y="-209.5" font-family="FreeSans" font-size="10.00">COMM::BinaryTree&lt; Tptcl &gt;</text>
</a>
</g>
</g>
<!-- Node1&#45;&gt;Node2 -->
<g id="edge1" class="edge"><title>Node1&#45;&gt;Node2</title>
<path fill="none" stroke="midnightblue" d="M68.7997,-212C84.029,-212 103.52,-212 122.397,-212"/>
<polygon fill="midnightblue" stroke="midnightblue" points="68.5332,-208.5 58.5332,-212 68.5332,-215.5 68.5332,-208.5"/>
</g>
<!-- Node3 -->
<g id="node3" class="node"><title>Node3</title>
<g id="a_node3"><a xlink:href="classCOMM_1_1Binary.html" target="_top" xlink:title="Binary parameter class. ">
<polygon fill="white" stroke="black" points="0,-161.5 0,-180.5 79,-180.5 79,-161.5 0,-161.5"/>
<text text-anchor="middle" x="39.5" y="-168.5" font-family="FreeSans" font-size="10.00">COMM::Binary</text>
</a>
</g>
</g>
<!-- Node3&#45;&gt;Node2 -->
<g id="edge5" class="edge"><title>Node3&#45;&gt;Node2</title>
<path fill="none" stroke="midnightblue" d="M84.8393,-183.16C107.342,-189.331 134.278,-196.718 155.255,-202.471"/>
<polygon fill="midnightblue" stroke="midnightblue" points="85.7437,-179.779 75.1741,-180.509 83.8923,-186.53 85.7437,-179.779"/>
</g>
<!-- Node4 -->
<g id="node4" class="node"><title>Node4</title>
<g id="a_node4"><a xlink:href="classCOMM_1_1BinaryTree.html" target="_top" xlink:title="COMM::BinaryTree\&lt; H4\l::ParticleAR \&gt;">
<polygon fill="white" stroke="black" points="303,-96 303,-126 422,-126 422,-96 303,-96"/>
<text text-anchor="start" x="311" y="-114" font-family="FreeSans" font-size="10.00">COMM::BinaryTree&lt; H4</text>
<text text-anchor="middle" x="362.5" y="-103" font-family="FreeSans" font-size="10.00">::ParticleAR &gt;</text>
</a>
</g>
</g>
<!-- Node3&#45;&gt;Node4 -->
<g id="edge2" class="edge"><title>Node3&#45;&gt;Node4</title>
<path fill="none" stroke="midnightblue" d="M89.3236,-172.238C135.743,-172.273 207.162,-169.341 267,-154 291.095,-147.823 316.673,-135.81 335.134,-126.048"/>
<polygon fill="midnightblue" stroke="midnightblue" points="89.2551,-168.737 79.2362,-172.183 89.217,-175.737 89.2551,-168.737"/>
</g>
<!-- Node5 -->
<g id="node5" class="node"><title>Node5</title>
<g id="a_node5"><a xlink:href="classCOMM_1_1BinaryTree.html" target="_top" xlink:title="COMM::BinaryTree\&lt; Particle\lAR\&lt; Tparticle \&gt; \&gt;">
<polygon fill="white" stroke="black" points="121,-115 121,-145 261,-145 261,-115 121,-115"/>
<text text-anchor="start" x="129" y="-133" font-family="FreeSans" font-size="10.00">COMM::BinaryTree&lt; Particle</text>
<text text-anchor="middle" x="191" y="-122" font-family="FreeSans" font-size="10.00">AR&lt; Tparticle &gt; &gt;</text>
</a>
</g>
</g>
<!-- Node3&#45;&gt;Node5 -->
<g id="edge3" class="edge"><title>Node3&#45;&gt;Node5</title>
<path fill="none" stroke="midnightblue" d="M85.1315,-158.76C100.805,-154.462 118.599,-149.582 135.022,-145.078"/>
<polygon fill="midnightblue" stroke="midnightblue" points="83.8923,-155.47 75.1741,-161.491 85.7437,-162.221 83.8923,-155.47"/>
</g>
<!-- Node6 -->
<g id="node6" class="node"><title>Node6</title>
<g id="a_node6"><a xlink:href="classCOMM_1_1BinaryTree.html" target="_top" xlink:title="COMM::BinaryTree\&lt; Tparticle \&gt;">
<polygon fill="white" stroke="black" points="115,-76.5 115,-95.5 267,-95.5 267,-76.5 115,-76.5"/>
<text text-anchor="middle" x="191" y="-83.5" font-family="FreeSans" font-size="10.00">COMM::BinaryTree&lt; Tparticle &gt;</text>
</a>
</g>
</g>
<!-- Node3&#45;&gt;Node6 -->
<g id="edge4" class="edge"><title>Node3&#45;&gt;Node6</title>
<path fill="none" stroke="midnightblue" d="M69.4715,-156.011C72.8099,-153.834 76.0649,-151.483 79,-149 98.2909,-132.682 93.6813,-118.562 115,-105 121.12,-101.107 127.995,-98.0105 135.035,-95.5483"/>
<polygon fill="midnightblue" stroke="midnightblue" points="67.3747,-153.187 60.6022,-161.335 70.9774,-159.189 67.3747,-153.187"/>
</g>
<!-- Node7 -->
<g id="node7" class="node"><title>Node7</title>
<polygon fill="white" stroke="#bfbfbf" points="8,-120.5 8,-139.5 71,-139.5 71,-120.5 8,-120.5"/>
<text text-anchor="middle" x="39.5" y="-127.5" font-family="FreeSans" font-size="10.00">ParticleAR</text>
</g>
<!-- Node7&#45;&gt;Node5 -->
<g id="edge6" class="edge"><title>Node7&#45;&gt;Node5</title>
<path fill="none" stroke="midnightblue" d="M81.4094,-130C93.6227,-130 107.364,-130 120.86,-130"/>
<polygon fill="midnightblue" stroke="midnightblue" points="81.1143,-126.5 71.1143,-130 81.1143,-133.5 81.1143,-126.5"/>
</g>
<!-- Node8 -->
<g id="node8" class="node"><title>Node8</title>
<polygon fill="white" stroke="#bfbfbf" points="12.5,-38.5 12.5,-57.5 66.5,-57.5 66.5,-38.5 12.5,-38.5"/>
<text text-anchor="middle" x="39.5" y="-45.5" font-family="FreeSans" font-size="10.00">Tparticle</text>
</g>
<!-- Node8&#45;&gt;Node6 -->
<g id="edge7" class="edge"><title>Node8&#45;&gt;Node6</title>
<path fill="none" stroke="midnightblue" d="M76.5428,-57.2045C88.7518,-60.3191 102.468,-63.8145 115,-67 127.107,-70.0774 140.315,-73.4263 152.227,-76.4434"/>
<polygon fill="midnightblue" stroke="midnightblue" points="77.2557,-53.7743 66.7007,-54.6929 75.5248,-60.5569 77.2557,-53.7743"/>
</g>
<!-- Node9 -->
<g id="node9" class="node"><title>Node9</title>
<g id="a_node9"><a xlink:href="classH4_1_1ParticleAR.html" target="_top" xlink:title="particle type for AR integrator ">
<polygon fill="white" stroke="black" points="124,-38.5 124,-57.5 258,-57.5 258,-38.5 124,-38.5"/>
<text text-anchor="middle" x="191" y="-45.5" font-family="FreeSans" font-size="10.00">H4::ParticleAR&lt; Tparticle &gt;</text>
</a>
</g>
</g>
<!-- Node8&#45;&gt;Node9 -->
<g id="edge8" class="edge"><title>Node8&#45;&gt;Node9</title>
<path fill="none" stroke="midnightblue" d="M76.8204,-48C90.9726,-48 107.649,-48 123.788,-48"/>
<polygon fill="midnightblue" stroke="midnightblue" points="76.5409,-44.5001 66.5409,-48 76.5409,-51.5001 76.5409,-44.5001"/>
</g>
<!-- Node10 -->
<g id="node10" class="node"><title>Node10</title>
<g id="a_node10"><a xlink:href="classH4_1_1ParticleH4.html" target="_top" xlink:title="Particle type for hermite integrator. ">
<polygon fill="white" stroke="black" points="125,-0.5 125,-19.5 257,-19.5 257,-0.5 125,-0.5"/>
<text text-anchor="middle" x="191" y="-7.5" font-family="FreeSans" font-size="10.00">H4::ParticleH4&lt; Tparticle &gt;</text>
</a>
</g>
</g>
<!-- Node8&#45;&gt;Node10 -->
<g id="edge10" class="edge"><title>Node8&#45;&gt;Node10</title>
<path fill="none" stroke="midnightblue" d="M76.5428,-38.7955C88.7518,-35.6809 102.468,-32.1855 115,-29 127.107,-25.9226 140.315,-22.5737 152.227,-19.5566"/>
<polygon fill="midnightblue" stroke="midnightblue" points="75.5248,-35.4431 66.7007,-41.3071 77.2557,-42.2257 75.5248,-35.4431"/>
</g>
<!-- Node9&#45;&gt;Node4 -->
<g id="edge9" class="edge"><title>Node9&#45;&gt;Node4</title>
<path fill="none" stroke="midnightblue" d="M245.507,-60.2422C252.795,-62.2903 260.127,-64.5538 267,-67 289.676,-75.0708 314.297,-86.6317 332.722,-95.8779"/>
<polygon fill="midnightblue" stroke="midnightblue" points="246.21,-56.807 235.644,-57.5858 244.39,-63.5662 246.21,-56.807"/>
</g>
</g>
</svg>
