<?xml version="1.0" encoding="UTF-8" standalone="no"?>
<!DOCTYPE svg PUBLIC "-//W3C//DTD SVG 1.1//EN"
 "http://www.w3.org/Graphics/SVG/1.1/DTD/svg11.dtd">
<!-- Generated by graphviz version 2.43.0 (0)
 -->
<!-- Title: Graphical Class Hierarchy Pages: 1 -->
<svg width="250pt" height="104pt"
 viewBox="0.00 0.00 250.00 104.00" xmlns="http://www.w3.org/2000/svg" xmlns:xlink="http://www.w3.org/1999/xlink">
<g id="graph0" class="graph" transform="scale(1 1) rotate(0) translate(4 100)">
<title>Graphical Class Hierarchy</title>
<polygon fill="white" stroke="transparent" points="-4,4 -4,-100 246,-100 246,4 -4,4"/>
<!-- Node13 -->
<g id="node1" class="node">
<title>Node13</title>
<g id="a_node1"><a xlink:title=" ">
<polygon fill="white" stroke="#bfbfbf" points="3,-38.5 3,-57.5 51,-57.5 51,-38.5 3,-38.5"/>
<text text-anchor="middle" x="27" y="-45.5" font-family="FreeSans" font-size="10.00">Tbinary</text>
</a>
</g>
</g>
<!-- Node6 -->
<g id="node2" class="node">
<title>Node6</title>
<g id="a_node2"><a xlink:href="classCOMM_1_1BinaryTree.html" target="_top" xlink:title=" ">
<polygon fill="white" stroke="black" points="90,-68.5 90,-87.5 242,-87.5 242,-68.5 90,-68.5"/>
<text text-anchor="middle" x="166" y="-75.5" font-family="FreeSans" font-size="10.00">COMM::BinaryTree&lt; Tparticle &gt;</text>
</a>
</g>
</g>
<!-- Node13&#45;&gt;Node6 -->
<g id="edge1" class="edge">
<title>Node13&#45;&gt;Node6</title>
<path fill="none" stroke="midnightblue" d="M61.05,-55.24C79.17,-59.2 101.84,-64.17 121.39,-68.45"/>
<polygon fill="midnightblue" stroke="midnightblue" points="61.76,-51.81 51.24,-53.09 60.26,-58.65 61.76,-51.81"/>
</g>
<!-- Node0 -->
<g id="node3" class="node">
<title>Node0</title>
<g id="a_node3"><a xlink:href="classCOMM_1_1BinaryTree.html" target="_top" xlink:title="Binary tree cell.">
<polygon fill="white" stroke="black" points="100.5,-11 100.5,-41 231.5,-41 231.5,-11 100.5,-11"/>
<text text-anchor="start" x="108.5" y="-29" font-family="FreeSans" font-size="10.00">COMM::BinaryTree&lt; Tptcl,</text>
<text text-anchor="middle" x="166" y="-18" font-family="FreeSans" font-size="10.00"> Tbinary &gt;</text>
</a>
</g>
</g>
<!-- Node13&#45;&gt;Node0 -->
<g id="edge2" class="edge">
<title>Node13&#45;&gt;Node0</title>
<path fill="none" stroke="midnightblue" d="M61.44,-42.63C73.2,-40.74 86.83,-38.55 100.28,-36.39"/>
<polygon fill="midnightblue" stroke="midnightblue" points="60.56,-39.23 51.24,-44.27 61.67,-46.14 60.56,-39.23"/>
</g>
<!-- Node5 -->
<g id="node4" class="node">
<title>Node5</title>
<g id="a_node4"><a xlink:title=" ">
<polygon fill="white" stroke="#bfbfbf" points="0,-76.5 0,-95.5 54,-95.5 54,-76.5 0,-76.5"/>
<text text-anchor="middle" x="27" y="-83.5" font-family="FreeSans" font-size="10.00">Tparticle</text>
</a>
</g>
</g>
<!-- Node5&#45;&gt;Node6 -->
<g id="edge3" class="edge">
<title>Node5&#45;&gt;Node6</title>
<path fill="none" stroke="midnightblue" d="M64.15,-83.89C72.17,-83.42 80.97,-82.91 89.92,-82.38"/>
<polygon fill="midnightblue" stroke="midnightblue" points="63.87,-80.4 54.09,-84.48 64.28,-87.39 63.87,-80.4"/>
</g>
<!-- Node3 -->
<g id="node5" class="node">
<title>Node3</title>
<g id="a_node5"><a xlink:title=" ">
<polygon fill="white" stroke="#bfbfbf" points="8,-0.5 8,-19.5 46,-19.5 46,-0.5 8,-0.5"/>
<text text-anchor="middle" x="27" y="-7.5" font-family="FreeSans" font-size="10.00">Tptcl</text>
</a>
</g>
</g>
<!-- Node3&#45;&gt;Node0 -->
<g id="edge4" class="edge">
<title>Node3&#45;&gt;Node0</title>
<path fill="none" stroke="midnightblue" d="M56.24,-13.3C69.12,-14.8 84.93,-16.65 100.47,-18.46"/>
<polygon fill="midnightblue" stroke="midnightblue" points="56.53,-9.81 46.19,-12.12 55.72,-16.76 56.53,-9.81"/>
</g>
</g>
</svg>
