<?xml version="1.0" encoding="UTF-8" standalone="no"?>
<!DOCTYPE svg PUBLIC "-//W3C//DTD SVG 1.1//EN"
 "http://www.w3.org/Graphics/SVG/1.1/DTD/svg11.dtd">
<!-- Generated by graphviz version 2.38.0 (20140413.2041)
 -->
<!-- Title: Graphical Class Hierarchy Pages: 1 -->
<svg width="279pt" height="50pt"
 viewBox="0.00 0.00 279.00 50.00" xmlns="http://www.w3.org/2000/svg" xmlns:xlink="http://www.w3.org/1999/xlink">
<g id="graph0" class="graph" transform="scale(1 1) rotate(0) translate(4 46)">
<title>Graphical Class Hierarchy</title>
<polygon fill="white" stroke="none" points="-4,4 -4,-46 275,-46 275,4 -4,4"/>
<!-- Node1 -->
<g id="node1" class="node"><title>Node1</title>
<g id="a_node1"><a xlink:href="classAR_1_1Information.html" target="_top" xlink:title="AR::Information\&lt; Particle\lAR\&lt; Tparticle \&gt;, ParticleH4\l\&lt; Tparticle \&gt; \&gt;">
<polygon fill="white" stroke="black" points="0,-0.5 0,-41.5 134,-41.5 134,-0.5 0,-0.5"/>
<text text-anchor="start" x="8" y="-29.5" font-family="FreeSans" font-size="10.00">AR::Information&lt; Particle</text>
<text text-anchor="start" x="8" y="-18.5" font-family="FreeSans" font-size="10.00">AR&lt; Tparticle &gt;, ParticleH4</text>
<text text-anchor="middle" x="67" y="-7.5" font-family="FreeSans" font-size="10.00">&lt; Tparticle &gt; &gt;</text>
</a>
</g>
</g>
<!-- Node2 -->
<g id="node2" class="node"><title>Node2</title>
<g id="a_node2"><a xlink:href="classH4_1_1ARInformation.html" target="_top" xlink:title="contain group information ">
<polygon fill="white" stroke="black" points="170,-6 170,-36 271,-36 271,-6 170,-6"/>
<text text-anchor="start" x="178" y="-24" font-family="FreeSans" font-size="10.00">H4::ARInformation&lt;</text>
<text text-anchor="middle" x="220.5" y="-13" font-family="FreeSans" font-size="10.00"> Tparticle &gt;</text>
</a>
</g>
</g>
<!-- Node1&#45;&gt;Node2 -->
<g id="edge1" class="edge"><title>Node1&#45;&gt;Node2</title>
<path fill="none" stroke="midnightblue" d="M144.152,-21C152.813,-21 161.467,-21 169.66,-21"/>
<polygon fill="midnightblue" stroke="midnightblue" points="144.009,-17.5001 134.009,-21 144.009,-24.5001 144.009,-17.5001"/>
</g>
</g>
</svg>
