<?xml version="1.0" encoding="UTF-8" standalone="no"?>
<!DOCTYPE svg PUBLIC "-//W3C//DTD SVG 1.1//EN"
 "http://www.w3.org/Graphics/SVG/1.1/DTD/svg11.dtd">
<!-- Generated by graphviz version 2.43.0 (0)
 -->
<!-- Title: Graphical Class Hierarchy Pages: 1 -->
<svg width="278pt" height="39pt"
 viewBox="0.00 0.00 278.00 39.00" xmlns="http://www.w3.org/2000/svg" xmlns:xlink="http://www.w3.org/1999/xlink">
<g id="graph0" class="graph" transform="scale(1 1) rotate(0) translate(4 35)">
<title>Graphical Class Hierarchy</title>
<polygon fill="white" stroke="transparent" points="-4,4 -4,-35 274,-35 274,4 -4,4"/>
<!-- Node0 -->
<g id="node1" class="node">
<title>Node0</title>
<g id="a_node1"><a xlink:href="classAR_1_1Information.html" target="_top" xlink:title=" ">
<polygon fill="white" stroke="black" points="0,-0.5 0,-30.5 132,-30.5 132,-0.5 0,-0.5"/>
<text text-anchor="start" x="8" y="-18.5" font-family="FreeSans" font-size="10.00">AR::Information&lt; Tparticle,</text>
<text text-anchor="middle" x="66" y="-7.5" font-family="FreeSans" font-size="10.00"> ParticleH4&lt; Tparticle &gt; &gt;</text>
</a>
</g>
</g>
<!-- Node1 -->
<g id="node2" class="node">
<title>Node1</title>
<g id="a_node2"><a xlink:href="classH4_1_1ARInformation.html" target="_top" xlink:title="contain group information">
<polygon fill="white" stroke="black" points="168,-0.5 168,-30.5 270,-30.5 270,-0.5 168,-0.5"/>
<text text-anchor="start" x="176" y="-18.5" font-family="FreeSans" font-size="10.00">H4::ARInformation&lt;</text>
<text text-anchor="middle" x="219" y="-7.5" font-family="FreeSans" font-size="10.00"> Tparticle &gt;</text>
</a>
</g>
</g>
<!-- Node0&#45;&gt;Node1 -->
<g id="edge1" class="edge">
<title>Node0&#45;&gt;Node1</title>
<path fill="none" stroke="midnightblue" d="M142.36,-15.5C150.91,-15.5 159.46,-15.5 167.57,-15.5"/>
<polygon fill="midnightblue" stroke="midnightblue" points="142.35,-12 132.35,-15.5 142.35,-19 142.35,-12"/>
</g>
</g>
</svg>
