<?xml version="1.0" encoding="UTF-8" standalone="no"?>
<!DOCTYPE svg PUBLIC "-//W3C//DTD SVG 1.1//EN"
 "http://www.w3.org/Graphics/SVG/1.1/DTD/svg11.dtd">
<!-- Generated by graphviz version 2.43.0 (0)
 -->
<!-- Title: interrupt.h Pages: 1 -->
<svg width="326pt" height="252pt"
 viewBox="0.00 0.00 325.78 252.00" xmlns="http://www.w3.org/2000/svg" xmlns:xlink="http://www.w3.org/1999/xlink">
<g id="graph0" class="graph" transform="scale(1 1) rotate(0) translate(4 248)">
<title>interrupt.h</title>
<polygon fill="white" stroke="transparent" points="-4,4 -4,-248 321.78,-248 321.78,4 -4,4"/>
<!-- Node1 -->
<g id="node1" class="node">
<title>Node1</title>
<g id="a_node1"><a xlink:title=" ">
<polygon fill="#bfbfbf" stroke="black" points="27.28,-224.5 27.28,-243.5 86.28,-243.5 86.28,-224.5 27.28,-224.5"/>
<text text-anchor="middle" x="56.78" y="-231.5" font-family="FreeSans" font-size="10.00">interrupt.h</text>
</a>
</g>
</g>
<!-- Node2 -->
<g id="node2" class="node">
<title>Node2</title>
<g id="a_node2"><a xlink:href="information_8h.html" target="_top" xlink:title=" ">
<polygon fill="white" stroke="black" points="12.28,-168.5 12.28,-187.5 101.28,-187.5 101.28,-168.5 12.28,-168.5"/>
<text text-anchor="middle" x="56.78" y="-175.5" font-family="FreeSans" font-size="10.00">AR/information.h</text>
</a>
</g>
</g>
<!-- Node1&#45;&gt;Node2 -->
<g id="edge1" class="edge">
<title>Node1&#45;&gt;Node2</title>
<path fill="none" stroke="midnightblue" d="M56.78,-224.08C56.78,-217.01 56.78,-206.86 56.78,-197.99"/>
<polygon fill="midnightblue" stroke="midnightblue" points="60.28,-197.75 56.78,-187.75 53.28,-197.75 60.28,-197.75"/>
</g>
<!-- Node3 -->
<g id="node3" class="node">
<title>Node3</title>
<g id="a_node3"><a xlink:href="Float_8h.html" target="_top" xlink:title=" ">
<polygon fill="white" stroke="black" points="7.78,-56.5 7.78,-75.5 95.78,-75.5 95.78,-56.5 7.78,-56.5"/>
<text text-anchor="middle" x="51.78" y="-63.5" font-family="FreeSans" font-size="10.00">Common/Float.h</text>
</a>
</g>
</g>
<!-- Node2&#45;&gt;Node3 -->
<g id="edge2" class="edge">
<title>Node2&#45;&gt;Node3</title>
<path fill="none" stroke="midnightblue" d="M40.15,-168.46C27.29,-160.84 10.44,-148.36 2.78,-132 -6.15,-112.93 11.92,-94.03 28.58,-81.57"/>
<polygon fill="midnightblue" stroke="midnightblue" points="30.83,-84.28 37.02,-75.68 26.81,-78.54 30.83,-84.28"/>
</g>
<!-- Node5 -->
<g id="node5" class="node">
<title>Node5</title>
<g id="a_node5"><a xlink:href="binary__tree_8h.html" target="_top" xlink:title=" ">
<polygon fill="white" stroke="black" points="119.28,-112.5 119.28,-131.5 232.28,-131.5 232.28,-112.5 119.28,-112.5"/>
<text text-anchor="middle" x="175.78" y="-119.5" font-family="FreeSans" font-size="10.00">Common/binary_tree.h</text>
</a>
</g>
</g>
<!-- Node2&#45;&gt;Node5 -->
<g id="edge4" class="edge">
<title>Node2&#45;&gt;Node5</title>
<path fill="none" stroke="midnightblue" d="M75.63,-168.44C95.04,-159.64 125.51,-145.81 147.74,-135.72"/>
<polygon fill="midnightblue" stroke="midnightblue" points="149.35,-138.84 157.01,-131.52 146.46,-132.46 149.35,-138.84"/>
</g>
<!-- Node10 -->
<g id="node10" class="node">
<title>Node10</title>
<g id="a_node10"><a xlink:href="slow__down_8h.html" target="_top" xlink:title=" ">
<polygon fill="white" stroke="black" points="12.28,-112.5 12.28,-131.5 101.28,-131.5 101.28,-112.5 12.28,-112.5"/>
<text text-anchor="middle" x="56.78" y="-119.5" font-family="FreeSans" font-size="10.00">AR/slow_down.h</text>
</a>
</g>
</g>
<!-- Node2&#45;&gt;Node10 -->
<g id="edge11" class="edge">
<title>Node2&#45;&gt;Node10</title>
<path fill="none" stroke="midnightblue" d="M56.78,-168.08C56.78,-161.01 56.78,-150.86 56.78,-141.99"/>
<polygon fill="midnightblue" stroke="midnightblue" points="60.28,-141.75 56.78,-131.75 53.28,-141.75 60.28,-141.75"/>
</g>
<!-- Node4 -->
<g id="node4" class="node">
<title>Node4</title>
<g id="a_node4"><a xlink:title=" ">
<polygon fill="white" stroke="#bfbfbf" points="31.78,-0.5 31.78,-19.5 71.78,-19.5 71.78,-0.5 31.78,-0.5"/>
<text text-anchor="middle" x="51.78" y="-7.5" font-family="FreeSans" font-size="10.00">limits</text>
</a>
</g>
</g>
<!-- Node3&#45;&gt;Node4 -->
<g id="edge3" class="edge">
<title>Node3&#45;&gt;Node4</title>
<path fill="none" stroke="midnightblue" d="M51.78,-56.08C51.78,-49.01 51.78,-38.86 51.78,-29.99"/>
<polygon fill="midnightblue" stroke="midnightblue" points="55.28,-29.75 51.78,-19.75 48.28,-29.75 55.28,-29.75"/>
</g>
<!-- Node5&#45;&gt;Node3 -->
<g id="edge7" class="edge">
<title>Node5&#45;&gt;Node3</title>
<path fill="none" stroke="midnightblue" d="M156.13,-112.44C135.81,-103.6 103.88,-89.69 80.68,-79.59"/>
<polygon fill="midnightblue" stroke="midnightblue" points="81.9,-76.3 71.33,-75.52 79.11,-82.72 81.9,-76.3"/>
</g>
<!-- Node6 -->
<g id="node6" class="node">
<title>Node6</title>
<g id="a_node6"><a xlink:title=" ">
<polygon fill="white" stroke="#bfbfbf" points="142.78,-0.5 142.78,-19.5 186.78,-19.5 186.78,-0.5 142.78,-0.5"/>
<text text-anchor="middle" x="164.78" y="-7.5" font-family="FreeSans" font-size="10.00">cmath</text>
</a>
</g>
</g>
<!-- Node5&#45;&gt;Node6 -->
<g id="edge5" class="edge">
<title>Node5&#45;&gt;Node6</title>
<path fill="none" stroke="midnightblue" d="M166.76,-112.34C158.71,-103.93 147.48,-90.36 142.78,-76 137.47,-59.78 144.99,-41.36 152.64,-28.29"/>
<polygon fill="midnightblue" stroke="midnightblue" points="155.62,-30.12 158.06,-19.81 149.72,-26.35 155.62,-30.12"/>
</g>
<!-- Node7 -->
<g id="node7" class="node">
<title>Node7</title>
<g id="a_node7"><a xlink:title=" ">
<polygon fill="white" stroke="#bfbfbf" points="151.78,-56.5 151.78,-75.5 207.78,-75.5 207.78,-56.5 151.78,-56.5"/>
<text text-anchor="middle" x="179.78" y="-63.5" font-family="FreeSans" font-size="10.00">algorithm</text>
</a>
</g>
</g>
<!-- Node5&#45;&gt;Node7 -->
<g id="edge6" class="edge">
<title>Node5&#45;&gt;Node7</title>
<path fill="none" stroke="midnightblue" d="M176.44,-112.08C176.96,-105.01 177.71,-94.86 178.37,-85.99"/>
<polygon fill="midnightblue" stroke="midnightblue" points="181.88,-85.98 179.13,-75.75 174.9,-85.47 181.88,-85.98"/>
</g>
<!-- Node8 -->
<g id="node8" class="node">
<title>Node8</title>
<g id="a_node8"><a xlink:href="matrix_8h.html" target="_top" xlink:title=" ">
<polygon fill="white" stroke="black" points="225.78,-56.5 225.78,-75.5 317.78,-75.5 317.78,-56.5 225.78,-56.5"/>
<text text-anchor="middle" x="271.78" y="-63.5" font-family="FreeSans" font-size="10.00">Common/matrix.h</text>
</a>
</g>
</g>
<!-- Node5&#45;&gt;Node8 -->
<g id="edge8" class="edge">
<title>Node5&#45;&gt;Node8</title>
<path fill="none" stroke="midnightblue" d="M191.2,-112.32C206.32,-103.82 229.59,-90.73 247.25,-80.8"/>
<polygon fill="midnightblue" stroke="midnightblue" points="249.39,-83.61 256.39,-75.65 245.96,-77.51 249.39,-83.61"/>
</g>
<!-- Node8&#45;&gt;Node6 -->
<g id="edge9" class="edge">
<title>Node8&#45;&gt;Node6</title>
<path fill="none" stroke="midnightblue" d="M254.59,-56.32C237.43,-47.66 210.83,-34.24 191.03,-24.25"/>
<polygon fill="midnightblue" stroke="midnightblue" points="192.43,-21.04 181.93,-19.65 189.28,-27.28 192.43,-21.04"/>
</g>
<!-- Node9 -->
<g id="node9" class="node">
<title>Node9</title>
<g id="a_node9"><a xlink:title=" ">
<polygon fill="white" stroke="#bfbfbf" points="246.78,-0.5 246.78,-19.5 296.78,-19.5 296.78,-0.5 246.78,-0.5"/>
<text text-anchor="middle" x="271.78" y="-7.5" font-family="FreeSans" font-size="10.00">iomanip</text>
</a>
</g>
</g>
<!-- Node8&#45;&gt;Node9 -->
<g id="edge10" class="edge">
<title>Node8&#45;&gt;Node9</title>
<path fill="none" stroke="midnightblue" d="M271.78,-56.08C271.78,-49.01 271.78,-38.86 271.78,-29.99"/>
<polygon fill="midnightblue" stroke="midnightblue" points="275.28,-29.75 271.78,-19.75 268.28,-29.75 275.28,-29.75"/>
</g>
<!-- Node10&#45;&gt;Node3 -->
<g id="edge12" class="edge">
<title>Node10&#45;&gt;Node3</title>
<path fill="none" stroke="midnightblue" d="M55.95,-112.08C55.3,-105.01 54.36,-94.86 53.54,-85.99"/>
<polygon fill="midnightblue" stroke="midnightblue" points="57,-85.39 52.59,-75.75 50.03,-86.03 57,-85.39"/>
</g>
</g>
</svg>
