<?xml version="1.0" encoding="UTF-8" standalone="no"?>
<!DOCTYPE svg PUBLIC "-//W3C//DTD SVG 1.1//EN"
 "http://www.w3.org/Graphics/SVG/1.1/DTD/svg11.dtd">
<!-- Generated by graphviz version 2.43.0 (0)
 -->
<!-- Title: list.h Pages: 1 -->
<svg width="291pt" height="196pt"
 viewBox="0.00 0.00 291.45 196.00" xmlns="http://www.w3.org/2000/svg" xmlns:xlink="http://www.w3.org/1999/xlink">
<g id="graph0" class="graph" transform="scale(1 1) rotate(0) translate(4 192)">
<title>list.h</title>
<polygon fill="white" stroke="transparent" points="-4,4 -4,-192 287.45,-192 287.45,4 -4,4"/>
<!-- Node1 -->
<g id="node1" class="node">
<title>Node1</title>
<g id="a_node1"><a xlink:title=" ">
<polygon fill="#bfbfbf" stroke="black" points="81.95,-168.5 81.95,-187.5 118.95,-187.5 118.95,-168.5 81.95,-168.5"/>
<text text-anchor="middle" x="100.45" y="-175.5" font-family="FreeSans" font-size="10.00">list.h</text>
</a>
</g>
</g>
<!-- Node2 -->
<g id="node2" class="node">
<title>Node2</title>
<g id="a_node2"><a xlink:href="symplectic__integrator_8h.html" target="_top" xlink:title=" ">
<polygon fill="white" stroke="black" points="16.45,-56.5 16.45,-75.5 132.45,-75.5 132.45,-56.5 16.45,-56.5"/>
<text text-anchor="middle" x="74.45" y="-63.5" font-family="FreeSans" font-size="10.00">symplectic_integrator.h</text>
</a>
</g>
</g>
<!-- Node1&#45;&gt;Node2 -->
<g id="edge1" class="edge">
<title>Node1&#45;&gt;Node2</title>
<path fill="none" stroke="midnightblue" d="M93.05,-158.69C90.02,-150.61 86.7,-140.94 84.45,-132 79.42,-112.07 76.52,-88.03 75.24,-75.52"/>
<polygon fill="midnightblue" stroke="midnightblue" points="89.86,-160.14 96.75,-168.19 96.38,-157.6 89.86,-160.14"/>
</g>
<!-- Node3 -->
<g id="node3" class="node">
<title>Node3</title>
<g id="a_node3"><a xlink:href="hermite__integrator_8h.html" target="_top" xlink:title=" ">
<polygon fill="white" stroke="black" points="76.45,-0.5 76.45,-19.5 178.45,-19.5 178.45,-0.5 76.45,-0.5"/>
<text text-anchor="middle" x="127.45" y="-7.5" font-family="FreeSans" font-size="10.00">hermite_integrator.h</text>
</a>
</g>
</g>
<!-- Node1&#45;&gt;Node3 -->
<g id="edge5" class="edge">
<title>Node1&#45;&gt;Node3</title>
<path fill="none" stroke="midnightblue" d="M75.69,-163.03C39.61,-140.85 -20.26,-95.98 7.45,-56 22.97,-33.6 51.12,-22.33 76.25,-16.67"/>
<polygon fill="midnightblue" stroke="midnightblue" points="74.33,-166.3 84.71,-168.42 77.92,-160.29 74.33,-166.3"/>
</g>
<!-- Node4 -->
<g id="node4" class="node">
<title>Node4</title>
<g id="a_node4"><a xlink:href="ar__information_8h.html" target="_top" xlink:title=" ">
<polygon fill="white" stroke="black" points="197.45,-112.5 197.45,-131.5 283.45,-131.5 283.45,-112.5 197.45,-112.5"/>
<text text-anchor="middle" x="240.45" y="-119.5" font-family="FreeSans" font-size="10.00">ar_information.h</text>
</a>
</g>
</g>
<!-- Node1&#45;&gt;Node4 -->
<g id="edge3" class="edge">
<title>Node1&#45;&gt;Node4</title>
<path fill="none" stroke="midnightblue" d="M128.46,-166.19C154.81,-156.03 193.74,-141.01 218.07,-131.63"/>
<polygon fill="midnightblue" stroke="midnightblue" points="127.11,-162.96 119.04,-169.83 129.63,-169.5 127.11,-162.96"/>
</g>
<!-- Node5 -->
<g id="node5" class="node">
<title>Node5</title>
<g id="a_node5"><a xlink:href="particle__group_8h.html" target="_top" xlink:title=" ">
<polygon fill="white" stroke="black" points="93.95,-112.5 93.95,-131.5 178.95,-131.5 178.95,-112.5 93.95,-112.5"/>
<text text-anchor="middle" x="136.45" y="-119.5" font-family="FreeSans" font-size="10.00">particle_group.h</text>
</a>
</g>
</g>
<!-- Node1&#45;&gt;Node5 -->
<g id="edge6" class="edge">
<title>Node1&#45;&gt;Node5</title>
<path fill="none" stroke="midnightblue" d="M112.07,-159.57C118.26,-150.27 125.61,-139.25 130.61,-131.75"/>
<polygon fill="midnightblue" stroke="midnightblue" points="109.03,-157.82 106.39,-168.08 114.85,-161.7 109.03,-157.82"/>
</g>
<!-- Node2&#45;&gt;Node3 -->
<g id="edge2" class="edge">
<title>Node2&#45;&gt;Node3</title>
<path fill="none" stroke="midnightblue" d="M90.43,-48.72C99.77,-39.2 111.19,-27.56 118.86,-19.75"/>
<polygon fill="midnightblue" stroke="midnightblue" points="87.71,-46.49 83.2,-56.08 92.7,-51.4 87.71,-46.49"/>
</g>
<!-- Node4&#45;&gt;Node3 -->
<g id="edge4" class="edge">
<title>Node4&#45;&gt;Node3</title>
<path fill="none" stroke="midnightblue" d="M239.06,-102.32C237.13,-88.17 232.5,-69.01 221.45,-56 205.98,-37.8 181.47,-26.41 161.36,-19.64"/>
<polygon fill="midnightblue" stroke="midnightblue" points="235.59,-102.79 240.11,-112.38 242.55,-102.07 235.59,-102.79"/>
</g>
<!-- Node5&#45;&gt;Node2 -->
<g id="edge7" class="edge">
<title>Node5&#45;&gt;Node2</title>
<path fill="none" stroke="midnightblue" d="M118.69,-105.54C107.64,-95.91 93.82,-83.87 84.59,-75.83"/>
<polygon fill="midnightblue" stroke="midnightblue" points="116.65,-108.4 126.49,-112.32 121.24,-103.12 116.65,-108.4"/>
</g>
<!-- Node6 -->
<g id="node6" class="node">
<title>Node6</title>
<g id="a_node6"><a xlink:href="neighbor_8h.html" target="_top" xlink:title=" ">
<polygon fill="white" stroke="black" points="150.95,-56.5 150.95,-75.5 211.95,-75.5 211.95,-56.5 150.95,-56.5"/>
<text text-anchor="middle" x="181.45" y="-63.5" font-family="FreeSans" font-size="10.00">neighbor.h</text>
</a>
</g>
</g>
<!-- Node5&#45;&gt;Node6 -->
<g id="edge8" class="edge">
<title>Node5&#45;&gt;Node6</title>
<path fill="none" stroke="midnightblue" d="M150.49,-104.14C158.33,-94.74 167.78,-83.4 174.15,-75.75"/>
<polygon fill="midnightblue" stroke="midnightblue" points="147.59,-102.16 143.88,-112.08 152.97,-106.64 147.59,-102.16"/>
</g>
<!-- Node6&#45;&gt;Node3 -->
<g id="edge9" class="edge">
<title>Node6&#45;&gt;Node3</title>
<path fill="none" stroke="midnightblue" d="M165.45,-49C155.88,-39.43 144.09,-27.64 136.2,-19.75"/>
<polygon fill="midnightblue" stroke="midnightblue" points="162.98,-51.49 172.53,-56.08 167.93,-46.54 162.98,-51.49"/>
</g>
</g>
</svg>
