<?xml version="1.0" encoding="UTF-8" standalone="no"?>
<!DOCTYPE svg PUBLIC "-//W3C//DTD SVG 1.1//EN"
 "http://www.w3.org/Graphics/SVG/1.1/DTD/svg11.dtd">
<!-- Generated by graphviz version 2.38.0 (20140413.2041)
 -->
<!-- Title: list.h Pages: 1 -->
<svg width="291pt" height="196pt"
 viewBox="0.00 0.00 291.45 196.00" xmlns="http://www.w3.org/2000/svg" xmlns:xlink="http://www.w3.org/1999/xlink">
<g id="graph0" class="graph" transform="scale(1 1) rotate(0) translate(4 192)">
<title>list.h</title>
<polygon fill="white" stroke="none" points="-4,4 -4,-192 287.447,-192 287.447,4 -4,4"/>
<!-- Node1 -->
<g id="node1" class="node"><title>Node1</title>
<polygon fill="#bfbfbf" stroke="black" points="82.4468,-168.5 82.4468,-187.5 118.447,-187.5 118.447,-168.5 82.4468,-168.5"/>
<text text-anchor="middle" x="100.447" y="-175.5" font-family="FreeSans" font-size="10.00">list.h</text>
</g>
<!-- Node2 -->
<g id="node2" class="node"><title>Node2</title>
<g id="a_node2"><a xlink:href="symplectic__integrator_8h.html" target="_top" xlink:title="symplectic_integrator.h">
<polygon fill="white" stroke="black" points="16.4468,-56.5 16.4468,-75.5 132.447,-75.5 132.447,-56.5 16.4468,-56.5"/>
<text text-anchor="middle" x="74.4468" y="-63.5" font-family="FreeSans" font-size="10.00">symplectic_integrator.h</text>
</a>
</g>
</g>
<!-- Node1&#45;&gt;Node2 -->
<g id="edge1" class="edge"><title>Node1&#45;&gt;Node2</title>
<path fill="none" stroke="midnightblue" d="M93.0497,-158.687C90.0202,-150.613 86.7033,-140.944 84.4468,-132 79.4194,-112.073 76.5179,-88.0333 75.2383,-75.516"/>
<polygon fill="midnightblue" stroke="midnightblue" points="89.8604,-160.143 96.7534,-168.189 96.3824,-157.6 89.8604,-160.143"/>
</g>
<!-- Node3 -->
<g id="node3" class="node"><title>Node3</title>
<g id="a_node3"><a xlink:href="hermite__integrator_8h.html" target="_top" xlink:title="hermite_integrator.h">
<polygon fill="white" stroke="black" points="76.4468,-0.5 76.4468,-19.5 178.447,-19.5 178.447,-0.5 76.4468,-0.5"/>
<text text-anchor="middle" x="127.447" y="-7.5" font-family="FreeSans" font-size="10.00">hermite_integrator.h</text>
</a>
</g>
</g>
<!-- Node1&#45;&gt;Node3 -->
<g id="edge5" class="edge"><title>Node1&#45;&gt;Node3</title>
<path fill="none" stroke="midnightblue" d="M75.6868,-163.032C39.6058,-140.849 -20.26,-95.9809 7.44678,-56 22.9718,-33.5974 51.1162,-22.3308 76.2479,-16.6724"/>
<polygon fill="midnightblue" stroke="midnightblue" points="74.3293,-166.297 84.7103,-168.415 77.9159,-160.286 74.3293,-166.297"/>
</g>
<!-- Node4 -->
<g id="node4" class="node"><title>Node4</title>
<g id="a_node4"><a xlink:href="ar__information_8h.html" target="_top" xlink:title="ar_information.h">
<polygon fill="white" stroke="black" points="197.447,-112.5 197.447,-131.5 283.447,-131.5 283.447,-112.5 197.447,-112.5"/>
<text text-anchor="middle" x="240.447" y="-119.5" font-family="FreeSans" font-size="10.00">ar_information.h</text>
</a>
</g>
</g>
<!-- Node1&#45;&gt;Node4 -->
<g id="edge3" class="edge"><title>Node1&#45;&gt;Node4</title>
<path fill="none" stroke="midnightblue" d="M127.903,-166.41C154.356,-156.206 193.868,-140.966 218.351,-131.522"/>
<polygon fill="midnightblue" stroke="midnightblue" points="126.533,-163.187 118.463,-170.051 129.052,-169.718 126.533,-163.187"/>
</g>
<!-- Node5 -->
<g id="node5" class="node"><title>Node5</title>
<g id="a_node5"><a xlink:href="particle__group_8h.html" target="_top" xlink:title="particle_group.h">
<polygon fill="white" stroke="black" points="93.9468,-112.5 93.9468,-131.5 178.947,-131.5 178.947,-112.5 93.9468,-112.5"/>
<text text-anchor="middle" x="136.447" y="-119.5" font-family="FreeSans" font-size="10.00">particle_group.h</text>
</a>
</g>
</g>
<!-- Node1&#45;&gt;Node5 -->
<g id="edge6" class="edge"><title>Node1&#45;&gt;Node5</title>
<path fill="none" stroke="midnightblue" d="M112.07,-159.566C118.264,-150.275 125.615,-139.248 130.613,-131.751"/>
<polygon fill="midnightblue" stroke="midnightblue" points="109.026,-157.821 106.391,-168.083 114.851,-161.704 109.026,-157.821"/>
</g>
<!-- Node2&#45;&gt;Node3 -->
<g id="edge2" class="edge"><title>Node2&#45;&gt;Node3</title>
<path fill="none" stroke="midnightblue" d="M90.4277,-48.7175C99.7693,-39.1997 111.193,-27.5608 118.858,-19.7511"/>
<polygon fill="midnightblue" stroke="midnightblue" points="87.7054,-46.4945 83.1986,-56.083 92.7013,-51.3978 87.7054,-46.4945"/>
</g>
<!-- Node4&#45;&gt;Node3 -->
<g id="edge4" class="edge"><title>Node4&#45;&gt;Node3</title>
<path fill="none" stroke="midnightblue" d="M238.725,-102.318C236.545,-88.1679 231.612,-69.0075 220.447,-56 204.909,-37.8981 180.414,-26.4591 160.463,-19.6458"/>
<polygon fill="midnightblue" stroke="midnightblue" points="235.267,-102.875 239.948,-112.379 242.215,-102.03 235.267,-102.875"/>
</g>
<!-- Node5&#45;&gt;Node2 -->
<g id="edge7" class="edge"><title>Node5&#45;&gt;Node2</title>
<path fill="none" stroke="midnightblue" d="M118.693,-105.537C107.638,-95.9087 93.8153,-83.8694 84.5894,-75.8339"/>
<polygon fill="midnightblue" stroke="midnightblue" points="116.646,-108.395 126.485,-112.324 121.243,-103.117 116.646,-108.395"/>
</g>
<!-- Node6 -->
<g id="node6" class="node"><title>Node6</title>
<g id="a_node6"><a xlink:href="neighbor_8h.html" target="_top" xlink:title="neighbor.h">
<polygon fill="white" stroke="black" points="150.947,-56.5 150.947,-75.5 211.947,-75.5 211.947,-56.5 150.947,-56.5"/>
<text text-anchor="middle" x="181.447" y="-63.5" font-family="FreeSans" font-size="10.00">neighbor.h</text>
</a>
</g>
</g>
<!-- Node5&#45;&gt;Node6 -->
<g id="edge8" class="edge"><title>Node5&#45;&gt;Node6</title>
<path fill="none" stroke="midnightblue" d="M150.493,-104.144C158.334,-94.7357 167.776,-83.4046 174.154,-75.7511"/>
<polygon fill="midnightblue" stroke="midnightblue" points="147.591,-102.16 143.878,-112.083 152.968,-106.641 147.591,-102.16"/>
</g>
<!-- Node6&#45;&gt;Node3 -->
<g id="edge9" class="edge"><title>Node6&#45;&gt;Node3</title>
<path fill="none" stroke="midnightblue" d="M165.449,-49.0024C155.88,-39.4329 144.086,-27.6389 136.198,-19.7511"/>
<polygon fill="midnightblue" stroke="midnightblue" points="162.984,-51.4868 172.53,-56.083 167.934,-46.537 162.984,-51.4868"/>
</g>
</g>
</svg>
