<?xml version="1.0" encoding="UTF-8" standalone="no"?>
<!DOCTYPE svg PUBLIC "-//W3C//DTD SVG 1.1//EN"
 "http://www.w3.org/Graphics/SVG/1.1/DTD/svg11.dtd">
<!-- Generated by graphviz version 2.43.0 (0)
 -->
<!-- Title: matrix.h Pages: 1 -->
<svg width="210pt" height="308pt"
 viewBox="0.00 0.00 209.50 308.00" xmlns="http://www.w3.org/2000/svg" xmlns:xlink="http://www.w3.org/1999/xlink">
<g id="graph0" class="graph" transform="scale(1 1) rotate(0) translate(4 304)">
<title>matrix.h</title>
<polygon fill="white" stroke="transparent" points="-4,4 -4,-304 205.5,-304 205.5,4 -4,4"/>
<!-- Node1 -->
<g id="node1" class="node">
<title>Node1</title>
<g id="a_node1"><a xlink:title=" ">
<polygon fill="#bfbfbf" stroke="black" points="97.5,-280.5 97.5,-299.5 147.5,-299.5 147.5,-280.5 97.5,-280.5"/>
<text text-anchor="middle" x="122.5" y="-287.5" font-family="FreeSans" font-size="10.00">matrix.h</text>
</a>
</g>
</g>
<!-- Node2 -->
<g id="node2" class="node">
<title>Node2</title>
<g id="a_node2"><a xlink:href="binary__tree_8h.html" target="_top" xlink:title=" ">
<polygon fill="white" stroke="black" points="87,-224.5 87,-243.5 158,-243.5 158,-224.5 87,-224.5"/>
<text text-anchor="middle" x="122.5" y="-231.5" font-family="FreeSans" font-size="10.00">binary_tree.h</text>
</a>
</g>
</g>
<!-- Node1&#45;&gt;Node2 -->
<g id="edge1" class="edge">
<title>Node1&#45;&gt;Node2</title>
<path fill="none" stroke="midnightblue" d="M122.5,-269.8C122.5,-260.91 122.5,-250.78 122.5,-243.75"/>
<polygon fill="midnightblue" stroke="midnightblue" points="119,-270.08 122.5,-280.08 126,-270.08 119,-270.08"/>
</g>
<!-- Node3 -->
<g id="node3" class="node">
<title>Node3</title>
<g id="a_node3"><a xlink:href="information_8h.html" target="_top" xlink:title=" ">
<polygon fill="white" stroke="black" points="54.5,-168.5 54.5,-187.5 126.5,-187.5 126.5,-168.5 54.5,-168.5"/>
<text text-anchor="middle" x="90.5" y="-175.5" font-family="FreeSans" font-size="10.00">information.h</text>
</a>
</g>
</g>
<!-- Node2&#45;&gt;Node3 -->
<g id="edge2" class="edge">
<title>Node2&#45;&gt;Node3</title>
<path fill="none" stroke="midnightblue" d="M112,-215.27C106.53,-206.05 100.08,-195.17 95.69,-187.75"/>
<polygon fill="midnightblue" stroke="midnightblue" points="109.11,-217.26 117.22,-224.08 115.13,-213.7 109.11,-217.26"/>
</g>
<!-- Node7 -->
<g id="node7" class="node">
<title>Node7</title>
<g id="a_node7"><a xlink:href="ar__information_8h.html" target="_top" xlink:title=" ">
<polygon fill="white" stroke="black" points="115.5,-112.5 115.5,-131.5 201.5,-131.5 201.5,-112.5 115.5,-112.5"/>
<text text-anchor="middle" x="158.5" y="-119.5" font-family="FreeSans" font-size="10.00">ar_information.h</text>
</a>
</g>
</g>
<!-- Node2&#45;&gt;Node7 -->
<g id="edge9" class="edge">
<title>Node2&#45;&gt;Node7</title>
<path fill="none" stroke="midnightblue" d="M128.5,-214.67C136.37,-190.62 149.86,-149.39 155.69,-131.59"/>
<polygon fill="midnightblue" stroke="midnightblue" points="125.11,-213.78 125.32,-224.37 131.76,-215.95 125.11,-213.78"/>
</g>
<!-- Node4 -->
<g id="node4" class="node">
<title>Node4</title>
<g id="a_node4"><a xlink:href="interrupt_8h.html" target="_top" xlink:title=" ">
<polygon fill="white" stroke="black" points="0,-112.5 0,-131.5 59,-131.5 59,-112.5 0,-112.5"/>
<text text-anchor="middle" x="29.5" y="-119.5" font-family="FreeSans" font-size="10.00">interrupt.h</text>
</a>
</g>
</g>
<!-- Node3&#45;&gt;Node4 -->
<g id="edge3" class="edge">
<title>Node3&#45;&gt;Node4</title>
<path fill="none" stroke="midnightblue" d="M73.03,-161.54C62.16,-151.91 48.56,-139.87 39.48,-131.83"/>
<polygon fill="midnightblue" stroke="midnightblue" points="70.89,-164.32 80.7,-168.32 75.53,-159.07 70.89,-164.32"/>
</g>
<!-- Node5 -->
<g id="node5" class="node">
<title>Node5</title>
<g id="a_node5"><a xlink:href="symplectic__integrator_8h.html" target="_top" xlink:title=" ">
<polygon fill="white" stroke="black" points="14.5,-56.5 14.5,-75.5 130.5,-75.5 130.5,-56.5 14.5,-56.5"/>
<text text-anchor="middle" x="72.5" y="-63.5" font-family="FreeSans" font-size="10.00">symplectic_integrator.h</text>
</a>
</g>
</g>
<!-- Node3&#45;&gt;Node5 -->
<g id="edge6" class="edge">
<title>Node3&#45;&gt;Node5</title>
<path fill="none" stroke="midnightblue" d="M87.45,-158.35C83.51,-134.25 76.8,-93.31 73.91,-75.59"/>
<polygon fill="midnightblue" stroke="midnightblue" points="84.02,-159.06 89.09,-168.37 90.93,-157.93 84.02,-159.06"/>
</g>
<!-- Node3&#45;&gt;Node7 -->
<g id="edge7" class="edge">
<title>Node3&#45;&gt;Node7</title>
<path fill="none" stroke="midnightblue" d="M109.26,-162.1C121.5,-152.38 137.06,-140.03 147.38,-131.83"/>
<polygon fill="midnightblue" stroke="midnightblue" points="107.08,-159.36 101.43,-168.32 111.43,-164.85 107.08,-159.36"/>
</g>
<!-- Node4&#45;&gt;Node5 -->
<g id="edge4" class="edge">
<title>Node4&#45;&gt;Node5</title>
<path fill="none" stroke="midnightblue" d="M42.92,-104.14C50.41,-94.74 59.44,-83.4 65.53,-75.75"/>
<polygon fill="midnightblue" stroke="midnightblue" points="40.09,-102.08 36.6,-112.08 45.57,-106.44 40.09,-102.08"/>
</g>
<!-- Node6 -->
<g id="node6" class="node">
<title>Node6</title>
<g id="a_node6"><a xlink:href="hermite__integrator_8h.html" target="_top" xlink:title=" ">
<polygon fill="white" stroke="black" points="64.5,-0.5 64.5,-19.5 166.5,-19.5 166.5,-0.5 64.5,-0.5"/>
<text text-anchor="middle" x="115.5" y="-7.5" font-family="FreeSans" font-size="10.00">hermite_integrator.h</text>
</a>
</g>
</g>
<!-- Node5&#45;&gt;Node6 -->
<g id="edge5" class="edge">
<title>Node5&#45;&gt;Node6</title>
<path fill="none" stroke="midnightblue" d="M85.92,-48.14C93.41,-38.74 102.44,-27.4 108.53,-19.75"/>
<polygon fill="midnightblue" stroke="midnightblue" points="83.09,-46.08 79.6,-56.08 88.57,-50.44 83.09,-46.08"/>
</g>
<!-- Node7&#45;&gt;Node6 -->
<g id="edge8" class="edge">
<title>Node7&#45;&gt;Node6</title>
<path fill="none" stroke="midnightblue" d="M154.2,-102.62C150.86,-89.41 145.74,-71.31 139.5,-56 134.15,-42.88 126.11,-28.58 120.84,-19.7"/>
<polygon fill="midnightblue" stroke="midnightblue" points="150.82,-103.51 156.58,-112.4 157.62,-101.85 150.82,-103.51"/>
</g>
</g>
</svg>
