<?xml version="1.0" encoding="UTF-8" standalone="no"?>
<!DOCTYPE svg PUBLIC "-//W3C//DTD SVG 1.1//EN"
 "http://www.w3.org/Graphics/SVG/1.1/DTD/svg11.dtd">
<!-- Generated by graphviz version 2.43.0 (0)
 -->
<!-- Title: neighbor.h Pages: 1 -->
<svg width="322pt" height="252pt"
 viewBox="0.00 0.00 322.21 252.00" xmlns="http://www.w3.org/2000/svg" xmlns:xlink="http://www.w3.org/1999/xlink">
<g id="graph0" class="graph" transform="scale(1 1) rotate(0) translate(4 248)">
<title>neighbor.h</title>
<polygon fill="white" stroke="transparent" points="-4,4 -4,-248 318.21,-248 318.21,4 -4,4"/>
<!-- Node1 -->
<g id="node1" class="node">
<title>Node1</title>
<g id="a_node1"><a xlink:title=" ">
<polygon fill="#bfbfbf" stroke="black" points="131.01,-224.5 131.01,-243.5 192.01,-243.5 192.01,-224.5 131.01,-224.5"/>
<text text-anchor="middle" x="161.51" y="-231.5" font-family="FreeSans" font-size="10.00">neighbor.h</text>
</a>
</g>
</g>
<!-- Node2 -->
<g id="node2" class="node">
<title>Node2</title>
<g id="a_node2"><a xlink:href="Float_8h.html" target="_top" xlink:title=" ">
<polygon fill="white" stroke="black" points="119.51,-56.5 119.51,-75.5 207.51,-75.5 207.51,-56.5 119.51,-56.5"/>
<text text-anchor="middle" x="163.51" y="-63.5" font-family="FreeSans" font-size="10.00">Common/Float.h</text>
</a>
</g>
</g>
<!-- Node1&#45;&gt;Node2 -->
<g id="edge1" class="edge">
<title>Node1&#45;&gt;Node2</title>
<path fill="none" stroke="midnightblue" d="M192.23,-233.48C226.87,-232.16 281.85,-224.05 308.51,-188 328.33,-161.22 289.47,-124.73 274.51,-112 256.04,-96.28 231.36,-85.54 209.96,-78.51"/>
<polygon fill="midnightblue" stroke="midnightblue" points="210.99,-75.16 200.4,-75.54 208.91,-81.85 210.99,-75.16"/>
</g>
<!-- Node3 -->
<g id="node3" class="node">
<title>Node3</title>
<g id="a_node3"><a xlink:title=" ">
<polygon fill="white" stroke="#bfbfbf" points="44.51,-0.5 44.51,-19.5 84.51,-19.5 84.51,-0.5 44.51,-0.5"/>
<text text-anchor="middle" x="64.51" y="-7.5" font-family="FreeSans" font-size="10.00">limits</text>
</a>
</g>
</g>
<!-- Node1&#45;&gt;Node3 -->
<g id="edge10" class="edge">
<title>Node1&#45;&gt;Node3</title>
<path fill="none" stroke="midnightblue" d="M130.91,-233.56C96.05,-232.35 40.46,-224.36 13.51,-188 -23.72,-137.76 25.68,-61.01 51.09,-27.55"/>
<polygon fill="midnightblue" stroke="midnightblue" points="53.85,-29.71 57.25,-19.67 48.33,-25.4 53.85,-29.71"/>
</g>
<!-- Node4 -->
<g id="node4" class="node">
<title>Node4</title>
<g id="a_node4"><a xlink:href="particle__group_8h.html" target="_top" xlink:title=" ">
<polygon fill="white" stroke="black" points="172.01,-168.5 172.01,-187.5 299.01,-187.5 299.01,-168.5 172.01,-168.5"/>
<text text-anchor="middle" x="235.51" y="-175.5" font-family="FreeSans" font-size="10.00">Common/particle_group.h</text>
</a>
</g>
</g>
<!-- Node1&#45;&gt;Node4 -->
<g id="edge3" class="edge">
<title>Node1&#45;&gt;Node4</title>
<path fill="none" stroke="midnightblue" d="M173.4,-224.32C184.66,-216.11 201.8,-203.6 215.22,-193.81"/>
<polygon fill="midnightblue" stroke="midnightblue" points="217.39,-196.56 223.41,-187.83 213.27,-190.9 217.39,-196.56"/>
</g>
<!-- Node7 -->
<g id="node7" class="node">
<title>Node7</title>
<g id="a_node7"><a xlink:href="hermite__particle_8h.html" target="_top" xlink:title=" ">
<polygon fill="white" stroke="black" points="23.01,-168.5 23.01,-187.5 154.01,-187.5 154.01,-168.5 23.01,-168.5"/>
<text text-anchor="middle" x="88.51" y="-175.5" font-family="FreeSans" font-size="10.00">Hermite/hermite_particle.h</text>
</a>
</g>
</g>
<!-- Node1&#45;&gt;Node7 -->
<g id="edge8" class="edge">
<title>Node1&#45;&gt;Node7</title>
<path fill="none" stroke="midnightblue" d="M149.79,-224.32C138.68,-216.11 121.77,-203.6 108.53,-193.81"/>
<polygon fill="midnightblue" stroke="midnightblue" points="110.58,-190.97 100.46,-187.83 106.41,-196.59 110.58,-190.97"/>
</g>
<!-- Node2&#45;&gt;Node3 -->
<g id="edge2" class="edge">
<title>Node2&#45;&gt;Node3</title>
<path fill="none" stroke="midnightblue" d="M147.61,-56.32C131.88,-47.74 107.57,-34.49 89.31,-24.52"/>
<polygon fill="midnightblue" stroke="midnightblue" points="90.84,-21.37 80.38,-19.65 87.48,-27.52 90.84,-21.37"/>
</g>
<!-- Node4&#45;&gt;Node2 -->
<g id="edge5" class="edge">
<title>Node4&#45;&gt;Node2</title>
<path fill="none" stroke="midnightblue" d="M243.31,-168.48C254.17,-155.53 271.26,-130.48 259.51,-112 249.35,-96.01 231.84,-85.6 214.53,-78.87"/>
<polygon fill="midnightblue" stroke="midnightblue" points="215.58,-75.53 204.98,-75.5 213.25,-82.13 215.58,-75.53"/>
</g>
<!-- Node5 -->
<g id="node5" class="node">
<title>Node5</title>
<g id="a_node5"><a xlink:title=" ">
<polygon fill="white" stroke="#bfbfbf" points="200.51,-112.5 200.51,-131.5 250.51,-131.5 250.51,-112.5 200.51,-112.5"/>
<text text-anchor="middle" x="225.51" y="-119.5" font-family="FreeSans" font-size="10.00">iomanip</text>
</a>
</g>
</g>
<!-- Node4&#45;&gt;Node5 -->
<g id="edge4" class="edge">
<title>Node4&#45;&gt;Node5</title>
<path fill="none" stroke="midnightblue" d="M233.86,-168.08C232.54,-160.93 230.63,-150.64 228.98,-141.69"/>
<polygon fill="midnightblue" stroke="midnightblue" points="232.4,-140.95 227.13,-131.75 225.51,-142.22 232.4,-140.95"/>
</g>
<!-- Node6 -->
<g id="node6" class="node">
<title>Node6</title>
<g id="a_node6"><a xlink:href="list_8h.html" target="_top" xlink:title=" ">
<polygon fill="white" stroke="black" points="145.01,-112.5 145.01,-131.5 182.01,-131.5 182.01,-112.5 145.01,-112.5"/>
<text text-anchor="middle" x="163.51" y="-119.5" font-family="FreeSans" font-size="10.00">list.h</text>
</a>
</g>
</g>
<!-- Node4&#45;&gt;Node6 -->
<g id="edge6" class="edge">
<title>Node4&#45;&gt;Node6</title>
<path fill="none" stroke="midnightblue" d="M223.95,-168.32C213.09,-160.18 196.63,-147.84 183.63,-138.09"/>
<polygon fill="midnightblue" stroke="midnightblue" points="185.39,-135.03 175.29,-131.83 181.19,-140.63 185.39,-135.03"/>
</g>
<!-- Node6&#45;&gt;Node2 -->
<g id="edge7" class="edge">
<title>Node6&#45;&gt;Node2</title>
<path fill="none" stroke="midnightblue" d="M163.51,-112.08C163.51,-105.01 163.51,-94.86 163.51,-85.99"/>
<polygon fill="midnightblue" stroke="midnightblue" points="167.01,-85.75 163.51,-75.75 160.01,-85.75 167.01,-85.75"/>
</g>
<!-- Node7&#45;&gt;Node2 -->
<g id="edge9" class="edge">
<title>Node7&#45;&gt;Node2</title>
<path fill="none" stroke="midnightblue" d="M94.4,-168.37C106.78,-150.22 135.69,-107.8 151.93,-83.99"/>
<polygon fill="midnightblue" stroke="midnightblue" points="154.91,-85.83 157.66,-75.59 149.13,-81.88 154.91,-85.83"/>
</g>
</g>
</svg>
