<?xml version="1.0" encoding="UTF-8" standalone="no"?>
<!DOCTYPE svg PUBLIC "-//W3C//DTD SVG 1.1//EN"
 "http://www.w3.org/Graphics/SVG/1.1/DTD/svg11.dtd">
<!-- Generated by graphviz version 2.38.0 (20140413.2041)
 -->
<!-- Title: neighbor.h Pages: 1 -->
<svg width="324pt" height="252pt"
 viewBox="0.00 0.00 323.82 252.00" xmlns="http://www.w3.org/2000/svg" xmlns:xlink="http://www.w3.org/1999/xlink">
<g id="graph0" class="graph" transform="scale(1 1) rotate(0) translate(4 248)">
<title>neighbor.h</title>
<polygon fill="white" stroke="none" points="-4,4 -4,-248 319.816,-248 319.816,4 -4,4"/>
<!-- Node1 -->
<g id="node1" class="node"><title>Node1</title>
<polygon fill="#bfbfbf" stroke="black" points="129.434,-224.5 129.434,-243.5 190.434,-243.5 190.434,-224.5 129.434,-224.5"/>
<text text-anchor="middle" x="159.934" y="-231.5" font-family="FreeSans" font-size="10.00">neighbor.h</text>
</g>
<!-- Node2 -->
<g id="node2" class="node"><title>Node2</title>
<g id="a_node2"><a xlink:href="Float_8h.html" target="_top" xlink:title="Common/Float.h">
<polygon fill="white" stroke="black" points="108.934,-56.5 108.934,-75.5 196.934,-75.5 196.934,-56.5 108.934,-56.5"/>
<text text-anchor="middle" x="152.934" y="-63.5" font-family="FreeSans" font-size="10.00">Common/Float.h</text>
</a>
</g>
</g>
<!-- Node1&#45;&gt;Node2 -->
<g id="edge1" class="edge"><title>Node1&#45;&gt;Node2</title>
<path fill="none" stroke="midnightblue" d="M190.65,-233.483C225.295,-232.163 280.27,-224.049 306.934,-188 343.939,-137.972 249.331,-97.6338 192.375,-78.6989"/>
<polygon fill="midnightblue" stroke="midnightblue" points="193.152,-75.2715 182.56,-75.5222 190.996,-81.9314 193.152,-75.2715"/>
</g>
<!-- Node3 -->
<g id="node3" class="node"><title>Node3</title>
<polygon fill="white" stroke="#bfbfbf" points="53.4343,-0.5 53.4343,-19.5 92.4343,-19.5 92.4343,-0.5 53.4343,-0.5"/>
<text text-anchor="middle" x="72.9343" y="-7.5" font-family="FreeSans" font-size="10.00">limits</text>
</g>
<!-- Node1&#45;&gt;Node3 -->
<g id="edge10" class="edge"><title>Node1&#45;&gt;Node3</title>
<path fill="none" stroke="midnightblue" d="M129.218,-233.483C94.5739,-232.163 39.599,-224.049 12.9343,-188 -24.7934,-136.995 30.1116,-60.6486 58.1563,-27.4256"/>
<polygon fill="midnightblue" stroke="midnightblue" points="61.0355,-29.4477 64.9459,-19.6009 55.7485,-24.86 61.0355,-29.4477"/>
</g>
<!-- Node4 -->
<g id="node4" class="node"><title>Node4</title>
<g id="a_node4"><a xlink:href="particle__group_8h.html" target="_top" xlink:title="Common/particle_group.h">
<polygon fill="white" stroke="black" points="170.434,-168.5 170.434,-187.5 297.434,-187.5 297.434,-168.5 170.434,-168.5"/>
<text text-anchor="middle" x="233.934" y="-175.5" font-family="FreeSans" font-size="10.00">Common/particle_group.h</text>
</a>
</g>
</g>
<!-- Node1&#45;&gt;Node4 -->
<g id="edge3" class="edge"><title>Node1&#45;&gt;Node4</title>
<path fill="none" stroke="midnightblue" d="M171.824,-224.324C183.084,-216.107 200.221,-203.602 213.643,-193.807"/>
<polygon fill="midnightblue" stroke="midnightblue" points="215.814,-196.556 221.829,-187.834 211.687,-190.901 215.814,-196.556"/>
</g>
<!-- Node7 -->
<g id="node7" class="node"><title>Node7</title>
<g id="a_node7"><a xlink:href="hermite__particle_8h.html" target="_top" xlink:title="Hermite/hermite_particle.h">
<polygon fill="white" stroke="black" points="21.9343,-168.5 21.9343,-187.5 151.934,-187.5 151.934,-168.5 21.9343,-168.5"/>
<text text-anchor="middle" x="86.9343" y="-175.5" font-family="FreeSans" font-size="10.00">Hermite/hermite_particle.h</text>
</a>
</g>
</g>
<!-- Node1&#45;&gt;Node7 -->
<g id="edge8" class="edge"><title>Node1&#45;&gt;Node7</title>
<path fill="none" stroke="midnightblue" d="M148.206,-224.324C137.097,-216.107 120.192,-203.602 106.951,-193.807"/>
<polygon fill="midnightblue" stroke="midnightblue" points="108.997,-190.967 98.8764,-187.834 104.834,-196.595 108.997,-190.967"/>
</g>
<!-- Node2&#45;&gt;Node3 -->
<g id="edge2" class="edge"><title>Node2&#45;&gt;Node3</title>
<path fill="none" stroke="midnightblue" d="M140.081,-56.324C127.718,-47.979 108.804,-35.2122 94.1971,-25.3524"/>
<polygon fill="midnightblue" stroke="midnightblue" points="96.0024,-22.3483 85.7558,-19.6545 92.0861,-28.1503 96.0024,-22.3483"/>
</g>
<!-- Node4&#45;&gt;Node2 -->
<g id="edge5" class="edge"><title>Node4&#45;&gt;Node2</title>
<path fill="none" stroke="midnightblue" d="M239.584,-168.296C247.353,-155.117 259.169,-129.753 247.934,-112 237.889,-96.1257 220.562,-85.7417 203.433,-78.9994"/>
<polygon fill="midnightblue" stroke="midnightblue" points="204.58,-75.6924 193.985,-75.6165 202.22,-82.2827 204.58,-75.6924"/>
</g>
<!-- Node5 -->
<g id="node5" class="node"><title>Node5</title>
<polygon fill="white" stroke="#bfbfbf" points="188.934,-112.5 188.934,-131.5 238.934,-131.5 238.934,-112.5 188.934,-112.5"/>
<text text-anchor="middle" x="213.934" y="-119.5" font-family="FreeSans" font-size="10.00">iomanip</text>
</g>
<!-- Node4&#45;&gt;Node5 -->
<g id="edge4" class="edge"><title>Node4&#45;&gt;Node5</title>
<path fill="none" stroke="midnightblue" d="M230.632,-168.083C227.952,-160.849 224.086,-150.409 220.748,-141.397"/>
<polygon fill="midnightblue" stroke="midnightblue" points="223.931,-139.913 217.175,-131.751 217.366,-142.344 223.931,-139.913"/>
</g>
<!-- Node6 -->
<g id="node6" class="node"><title>Node6</title>
<g id="a_node6"><a xlink:href="list_8h.html" target="_top" xlink:title="list.h">
<polygon fill="white" stroke="black" points="134.934,-112.5 134.934,-131.5 170.934,-131.5 170.934,-112.5 134.934,-112.5"/>
<text text-anchor="middle" x="152.934" y="-119.5" font-family="FreeSans" font-size="10.00">list.h</text>
</a>
</g>
</g>
<!-- Node4&#45;&gt;Node6 -->
<g id="edge6" class="edge"><title>Node4&#45;&gt;Node6</title>
<path fill="none" stroke="midnightblue" d="M220.92,-168.324C208.403,-159.979 189.253,-147.212 174.463,-137.352"/>
<polygon fill="midnightblue" stroke="midnightblue" points="176.178,-134.289 165.916,-131.655 172.295,-140.114 176.178,-134.289"/>
</g>
<!-- Node6&#45;&gt;Node2 -->
<g id="edge7" class="edge"><title>Node6&#45;&gt;Node2</title>
<path fill="none" stroke="midnightblue" d="M152.934,-112.083C152.934,-105.006 152.934,-94.8611 152.934,-85.9865"/>
<polygon fill="midnightblue" stroke="midnightblue" points="156.434,-85.751 152.934,-75.7511 149.434,-85.7511 156.434,-85.751"/>
</g>
<!-- Node7&#45;&gt;Node2 -->
<g id="edge9" class="edge"><title>Node7&#45;&gt;Node2</title>
<path fill="none" stroke="midnightblue" d="M92.1132,-168.368C102.957,-150.296 128.228,-108.176 142.55,-84.3074"/>
<polygon fill="midnightblue" stroke="midnightblue" points="145.636,-85.9671 147.779,-75.5914 139.633,-82.3656 145.636,-85.9671"/>
</g>
</g>
</svg>
