<?xml version="1.0" encoding="UTF-8" standalone="no"?>
<!DOCTYPE svg PUBLIC "-//W3C//DTD SVG 1.1//EN"
 "http://www.w3.org/Graphics/SVG/1.1/DTD/svg11.dtd">
<!-- Generated by graphviz version 2.38.0 (20140413.2041)
 -->
<!-- Title: particle_group.h Pages: 1 -->
<svg width="204pt" height="140pt"
 viewBox="0.00 0.00 203.50 140.00" xmlns="http://www.w3.org/2000/svg" xmlns:xlink="http://www.w3.org/1999/xlink">
<g id="graph0" class="graph" transform="scale(1 1) rotate(0) translate(4 136)">
<title>particle_group.h</title>
<polygon fill="white" stroke="none" points="-4,4 -4,-136 199.5,-136 199.5,4 -4,4"/>
<!-- Node1 -->
<g id="node1" class="node"><title>Node1</title>
<polygon fill="#bfbfbf" stroke="black" points="68.5,-112.5 68.5,-131.5 153.5,-131.5 153.5,-112.5 68.5,-112.5"/>
<text text-anchor="middle" x="111" y="-119.5" font-family="FreeSans" font-size="10.00">particle_group.h</text>
</g>
<!-- Node2 -->
<g id="node2" class="node"><title>Node2</title>
<g id="a_node2"><a xlink:href="symplectic__integrator_8h.html" target="_top" xlink:title="symplectic_integrator.h">
<polygon fill="white" stroke="black" points="0,-56.5 0,-75.5 116,-75.5 116,-56.5 0,-56.5"/>
<text text-anchor="middle" x="58" y="-63.5" font-family="FreeSans" font-size="10.00">symplectic_integrator.h</text>
</a>
</g>
</g>
<!-- Node1&#45;&gt;Node2 -->
<g id="edge1" class="edge"><title>Node1&#45;&gt;Node2</title>
<path fill="none" stroke="midnightblue" d="M95.0191,-104.718C85.6775,-95.1997 74.2541,-83.5608 66.589,-75.7511"/>
<polygon fill="midnightblue" stroke="midnightblue" points="92.7455,-107.398 102.248,-112.083 97.7413,-102.494 92.7455,-107.398"/>
</g>
<!-- Node4 -->
<g id="node4" class="node"><title>Node4</title>
<g id="a_node4"><a xlink:href="neighbor_8h.html" target="_top" xlink:title="neighbor.h">
<polygon fill="white" stroke="black" points="134.5,-56.5 134.5,-75.5 195.5,-75.5 195.5,-56.5 134.5,-56.5"/>
<text text-anchor="middle" x="165" y="-63.5" font-family="FreeSans" font-size="10.00">neighbor.h</text>
</a>
</g>
</g>
<!-- Node1&#45;&gt;Node4 -->
<g id="edge3" class="edge"><title>Node1&#45;&gt;Node4</title>
<path fill="none" stroke="midnightblue" d="M126.998,-105.002C136.567,-95.4329 148.361,-83.6389 156.249,-75.7511"/>
<polygon fill="midnightblue" stroke="midnightblue" points="124.513,-102.537 119.917,-112.083 129.463,-107.487 124.513,-102.537"/>
</g>
<!-- Node3 -->
<g id="node3" class="node"><title>Node3</title>
<g id="a_node3"><a xlink:href="hermite__integrator_8h.html" target="_top" xlink:title="hermite_integrator.h">
<polygon fill="white" stroke="black" points="60,-0.5 60,-19.5 162,-19.5 162,-0.5 60,-0.5"/>
<text text-anchor="middle" x="111" y="-7.5" font-family="FreeSans" font-size="10.00">hermite_integrator.h</text>
</a>
</g>
</g>
<!-- Node2&#45;&gt;Node3 -->
<g id="edge2" class="edge"><title>Node2&#45;&gt;Node3</title>
<path fill="none" stroke="midnightblue" d="M73.9809,-48.7175C83.3225,-39.1997 94.7459,-27.5608 102.411,-19.7511"/>
<polygon fill="midnightblue" stroke="midnightblue" points="71.2587,-46.4945 66.7519,-56.083 76.2545,-51.3978 71.2587,-46.4945"/>
</g>
<!-- Node4&#45;&gt;Node3 -->
<g id="edge4" class="edge"><title>Node4&#45;&gt;Node3</title>
<path fill="none" stroke="midnightblue" d="M149.002,-49.0024C139.433,-39.4329 127.639,-27.6389 119.751,-19.7511"/>
<polygon fill="midnightblue" stroke="midnightblue" points="146.537,-51.4868 156.083,-56.083 151.487,-46.537 146.537,-51.4868"/>
</g>
</g>
</svg>
