<?xml version="1.0" encoding="UTF-8" standalone="no"?>
<!DOCTYPE svg PUBLIC "-//W3C//DTD SVG 1.1//EN"
 "http://www.w3.org/Graphics/SVG/1.1/DTD/svg11.dtd">
<!-- Generated by graphviz version 2.38.0 (20140413.2041)
 -->
<!-- Title: particle_group.h Pages: 1 -->
<svg width="150pt" height="196pt"
 viewBox="0.00 0.00 150.00 196.00" xmlns="http://www.w3.org/2000/svg" xmlns:xlink="http://www.w3.org/1999/xlink">
<g id="graph0" class="graph" transform="scale(1 1) rotate(0) translate(4 192)">
<title>particle_group.h</title>
<polygon fill="white" stroke="none" points="-4,4 -4,-192 146,-192 146,4 -4,4"/>
<!-- Node1 -->
<g id="node1" class="node"><title>Node1</title>
<polygon fill="#bfbfbf" stroke="black" points="35.5,-168.5 35.5,-187.5 120.5,-187.5 120.5,-168.5 35.5,-168.5"/>
<text text-anchor="middle" x="78" y="-175.5" font-family="FreeSans" font-size="10.00">particle_group.h</text>
</g>
<!-- Node2 -->
<g id="node2" class="node"><title>Node2</title>
<polygon fill="white" stroke="#bfbfbf" points="0,-112.5 0,-131.5 50,-131.5 50,-112.5 0,-112.5"/>
<text text-anchor="middle" x="25" y="-119.5" font-family="FreeSans" font-size="10.00">iomanip</text>
</g>
<!-- Node1&#45;&gt;Node2 -->
<g id="edge1" class="edge"><title>Node1&#45;&gt;Node2</title>
<path fill="none" stroke="midnightblue" d="M69.2481,-168.083C61.5303,-160.22 50.0953,-148.569 40.7835,-139.081"/>
<polygon fill="midnightblue" stroke="midnightblue" points="43.0916,-136.436 33.589,-131.751 38.0958,-141.34 43.0916,-136.436"/>
</g>
<!-- Node3 -->
<g id="node3" class="node"><title>Node3</title>
<g id="a_node3"><a xlink:href="Float_8h.html" target="_top" xlink:title="Float.h">
<polygon fill="white" stroke="black" points="78,-56.5 78,-75.5 124,-75.5 124,-56.5 78,-56.5"/>
<text text-anchor="middle" x="101" y="-63.5" font-family="FreeSans" font-size="10.00">Float.h</text>
</a>
</g>
</g>
<!-- Node1&#45;&gt;Node3 -->
<g id="edge2" class="edge"><title>Node1&#45;&gt;Node3</title>
<path fill="none" stroke="midnightblue" d="M79.8048,-168.368C83.5165,-150.617 92.0788,-109.666 97.1114,-85.5974"/>
<polygon fill="midnightblue" stroke="midnightblue" points="100.583,-86.0961 99.2036,-75.5914 93.731,-84.6634 100.583,-86.0961"/>
</g>
<!-- Node5 -->
<g id="node5" class="node"><title>Node5</title>
<g id="a_node5"><a xlink:href="list_8h.html" target="_top" xlink:title="list.h">
<polygon fill="white" stroke="black" points="106,-112.5 106,-131.5 142,-131.5 142,-112.5 106,-112.5"/>
<text text-anchor="middle" x="124" y="-119.5" font-family="FreeSans" font-size="10.00">list.h</text>
</a>
</g>
</g>
<!-- Node1&#45;&gt;Node5 -->
<g id="edge4" class="edge"><title>Node1&#45;&gt;Node5</title>
<path fill="none" stroke="midnightblue" d="M85.596,-168.083C92.2275,-160.298 102.021,-148.801 110.058,-139.367"/>
<polygon fill="midnightblue" stroke="midnightblue" points="112.725,-141.633 116.545,-131.751 107.396,-137.094 112.725,-141.633"/>
</g>
<!-- Node4 -->
<g id="node4" class="node"><title>Node4</title>
<polygon fill="white" stroke="#bfbfbf" points="81.5,-0.5 81.5,-19.5 120.5,-19.5 120.5,-0.5 81.5,-0.5"/>
<text text-anchor="middle" x="101" y="-7.5" font-family="FreeSans" font-size="10.00">limits</text>
</g>
<!-- Node3&#45;&gt;Node4 -->
<g id="edge3" class="edge"><title>Node3&#45;&gt;Node4</title>
<path fill="none" stroke="midnightblue" d="M101,-56.083C101,-49.0059 101,-38.8611 101,-29.9865"/>
<polygon fill="midnightblue" stroke="midnightblue" points="104.5,-29.751 101,-19.7511 97.5001,-29.7511 104.5,-29.751"/>
</g>
<!-- Node5&#45;&gt;Node3 -->
<g id="edge5" class="edge"><title>Node5&#45;&gt;Node3</title>
<path fill="none" stroke="midnightblue" d="M120.202,-112.083C117.087,-104.77 112.577,-94.1814 108.711,-85.1034"/>
<polygon fill="midnightblue" stroke="midnightblue" points="111.866,-83.5798 104.727,-75.7511 105.426,-86.3229 111.866,-83.5798"/>
</g>
</g>
</svg>
