<?xml version="1.0" encoding="UTF-8" standalone="no"?>
<!DOCTYPE svg PUBLIC "-//W3C//DTD SVG 1.1//EN"
 "http://www.w3.org/Graphics/SVG/1.1/DTD/svg11.dtd">
<!-- Generated by graphviz version 2.43.0 (0)
 -->
<!-- Title: particle_group.h Pages: 1 -->
<svg width="152pt" height="196pt"
 viewBox="0.00 0.00 151.50 196.00" xmlns="http://www.w3.org/2000/svg" xmlns:xlink="http://www.w3.org/1999/xlink">
<g id="graph0" class="graph" transform="scale(1 1) rotate(0) translate(4 192)">
<title>particle_group.h</title>
<polygon fill="white" stroke="transparent" points="-4,4 -4,-192 147.5,-192 147.5,4 -4,4"/>
<!-- Node1 -->
<g id="node1" class="node">
<title>Node1</title>
<g id="a_node1"><a xlink:title=" ">
<polygon fill="#bfbfbf" stroke="black" points="35.5,-168.5 35.5,-187.5 120.5,-187.5 120.5,-168.5 35.5,-168.5"/>
<text text-anchor="middle" x="78" y="-175.5" font-family="FreeSans" font-size="10.00">particle_group.h</text>
</a>
</g>
</g>
<!-- Node2 -->
<g id="node2" class="node">
<title>Node2</title>
<g id="a_node2"><a xlink:title=" ">
<polygon fill="white" stroke="#bfbfbf" points="0,-112.5 0,-131.5 50,-131.5 50,-112.5 0,-112.5"/>
<text text-anchor="middle" x="25" y="-119.5" font-family="FreeSans" font-size="10.00">iomanip</text>
</a>
</g>
</g>
<!-- Node1&#45;&gt;Node2 -->
<g id="edge1" class="edge">
<title>Node1&#45;&gt;Node2</title>
<path fill="none" stroke="midnightblue" d="M69.25,-168.08C61.53,-160.22 50.1,-148.57 40.78,-139.08"/>
<polygon fill="midnightblue" stroke="midnightblue" points="43.09,-136.44 33.59,-131.75 38.1,-141.34 43.09,-136.44"/>
</g>
<!-- Node3 -->
<g id="node3" class="node">
<title>Node3</title>
<g id="a_node3"><a xlink:href="Float_8h.html" target="_top" xlink:title=" ">
<polygon fill="white" stroke="black" points="78,-56.5 78,-75.5 124,-75.5 124,-56.5 78,-56.5"/>
<text text-anchor="middle" x="101" y="-63.5" font-family="FreeSans" font-size="10.00">Float.h</text>
</a>
</g>
</g>
<!-- Node1&#45;&gt;Node3 -->
<g id="edge2" class="edge">
<title>Node1&#45;&gt;Node3</title>
<path fill="none" stroke="midnightblue" d="M79.8,-168.37C83.52,-150.62 92.08,-109.67 97.11,-85.6"/>
<polygon fill="midnightblue" stroke="midnightblue" points="100.58,-86.1 99.2,-75.59 93.73,-84.66 100.58,-86.1"/>
</g>
<!-- Node5 -->
<g id="node5" class="node">
<title>Node5</title>
<g id="a_node5"><a xlink:href="list_8h.html" target="_top" xlink:title=" ">
<polygon fill="white" stroke="black" points="106.5,-112.5 106.5,-131.5 143.5,-131.5 143.5,-112.5 106.5,-112.5"/>
<text text-anchor="middle" x="125" y="-119.5" font-family="FreeSans" font-size="10.00">list.h</text>
</a>
</g>
</g>
<!-- Node1&#45;&gt;Node5 -->
<g id="edge4" class="edge">
<title>Node1&#45;&gt;Node5</title>
<path fill="none" stroke="midnightblue" d="M85.76,-168.08C92.54,-160.3 102.54,-148.8 110.76,-139.37"/>
<polygon fill="midnightblue" stroke="midnightblue" points="113.46,-141.59 117.38,-131.75 108.18,-137 113.46,-141.59"/>
</g>
<!-- Node4 -->
<g id="node4" class="node">
<title>Node4</title>
<g id="a_node4"><a xlink:title=" ">
<polygon fill="white" stroke="#bfbfbf" points="81,-0.5 81,-19.5 121,-19.5 121,-0.5 81,-0.5"/>
<text text-anchor="middle" x="101" y="-7.5" font-family="FreeSans" font-size="10.00">limits</text>
</a>
</g>
</g>
<!-- Node3&#45;&gt;Node4 -->
<g id="edge3" class="edge">
<title>Node3&#45;&gt;Node4</title>
<path fill="none" stroke="midnightblue" d="M101,-56.08C101,-49.01 101,-38.86 101,-29.99"/>
<polygon fill="midnightblue" stroke="midnightblue" points="104.5,-29.75 101,-19.75 97.5,-29.75 104.5,-29.75"/>
</g>
<!-- Node5&#45;&gt;Node3 -->
<g id="edge5" class="edge">
<title>Node5&#45;&gt;Node3</title>
<path fill="none" stroke="midnightblue" d="M121.04,-112.08C117.79,-104.77 113.08,-94.18 109.05,-85.1"/>
<polygon fill="midnightblue" stroke="midnightblue" points="112.15,-83.47 104.89,-75.75 105.75,-86.31 112.15,-83.47"/>
</g>
</g>
</svg>
