<?xml version="1.0" encoding="UTF-8" standalone="no"?>
<!DOCTYPE svg PUBLIC "-//W3C//DTD SVG 1.1//EN"
 "http://www.w3.org/Graphics/SVG/1.1/DTD/svg11.dtd">
<!-- Generated by graphviz version 2.43.0 (0)
 -->
<!-- Title: particle_group.h Pages: 1 -->
<svg width="204pt" height="140pt"
 viewBox="0.00 0.00 203.50 140.00" xmlns="http://www.w3.org/2000/svg" xmlns:xlink="http://www.w3.org/1999/xlink">
<g id="graph0" class="graph" transform="scale(1 1) rotate(0) translate(4 136)">
<title>particle_group.h</title>
<polygon fill="white" stroke="transparent" points="-4,4 -4,-136 199.5,-136 199.5,4 -4,4"/>
<!-- Node1 -->
<g id="node1" class="node">
<title>Node1</title>
<g id="a_node1"><a xlink:title=" ">
<polygon fill="#bfbfbf" stroke="black" points="68.5,-112.5 68.5,-131.5 153.5,-131.5 153.5,-112.5 68.5,-112.5"/>
<text text-anchor="middle" x="111" y="-119.5" font-family="FreeSans" font-size="10.00">particle_group.h</text>
</a>
</g>
</g>
<!-- Node2 -->
<g id="node2" class="node">
<title>Node2</title>
<g id="a_node2"><a xlink:href="symplectic__integrator_8h.html" target="_top" xlink:title=" ">
<polygon fill="white" stroke="black" points="0,-56.5 0,-75.5 116,-75.5 116,-56.5 0,-56.5"/>
<text text-anchor="middle" x="58" y="-63.5" font-family="FreeSans" font-size="10.00">symplectic_integrator.h</text>
</a>
</g>
</g>
<!-- Node1&#45;&gt;Node2 -->
<g id="edge1" class="edge">
<title>Node1&#45;&gt;Node2</title>
<path fill="none" stroke="midnightblue" d="M95.02,-104.72C85.68,-95.2 74.25,-83.56 66.59,-75.75"/>
<polygon fill="midnightblue" stroke="midnightblue" points="92.75,-107.4 102.25,-112.08 97.74,-102.49 92.75,-107.4"/>
</g>
<!-- Node4 -->
<g id="node4" class="node">
<title>Node4</title>
<g id="a_node4"><a xlink:href="neighbor_8h.html" target="_top" xlink:title=" ">
<polygon fill="white" stroke="black" points="134.5,-56.5 134.5,-75.5 195.5,-75.5 195.5,-56.5 134.5,-56.5"/>
<text text-anchor="middle" x="165" y="-63.5" font-family="FreeSans" font-size="10.00">neighbor.h</text>
</a>
</g>
</g>
<!-- Node1&#45;&gt;Node4 -->
<g id="edge3" class="edge">
<title>Node1&#45;&gt;Node4</title>
<path fill="none" stroke="midnightblue" d="M127,-105C136.57,-95.43 148.36,-83.64 156.25,-75.75"/>
<polygon fill="midnightblue" stroke="midnightblue" points="124.51,-102.54 119.92,-112.08 129.46,-107.49 124.51,-102.54"/>
</g>
<!-- Node3 -->
<g id="node3" class="node">
<title>Node3</title>
<g id="a_node3"><a xlink:href="hermite__integrator_8h.html" target="_top" xlink:title=" ">
<polygon fill="white" stroke="black" points="60,-0.5 60,-19.5 162,-19.5 162,-0.5 60,-0.5"/>
<text text-anchor="middle" x="111" y="-7.5" font-family="FreeSans" font-size="10.00">hermite_integrator.h</text>
</a>
</g>
</g>
<!-- Node2&#45;&gt;Node3 -->
<g id="edge2" class="edge">
<title>Node2&#45;&gt;Node3</title>
<path fill="none" stroke="midnightblue" d="M73.98,-48.72C83.32,-39.2 94.75,-27.56 102.41,-19.75"/>
<polygon fill="midnightblue" stroke="midnightblue" points="71.26,-46.49 66.75,-56.08 76.25,-51.4 71.26,-46.49"/>
</g>
<!-- Node4&#45;&gt;Node3 -->
<g id="edge4" class="edge">
<title>Node4&#45;&gt;Node3</title>
<path fill="none" stroke="midnightblue" d="M149,-49C139.43,-39.43 127.64,-27.64 119.75,-19.75"/>
<polygon fill="midnightblue" stroke="midnightblue" points="146.54,-51.49 156.08,-56.08 151.49,-46.54 146.54,-51.49"/>
</g>
</g>
</svg>
