<?xml version="1.0" encoding="UTF-8" standalone="no"?>
<!DOCTYPE svg PUBLIC "-//W3C//DTD SVG 1.1//EN"
 "http://www.w3.org/Graphics/SVG/1.1/DTD/svg11.dtd">
<!-- Generated by graphviz version 2.43.0 (0)
 -->
<!-- Title: slow_down.h Pages: 1 -->
<svg width="228pt" height="252pt"
 viewBox="0.00 0.00 228.00 252.00" xmlns="http://www.w3.org/2000/svg" xmlns:xlink="http://www.w3.org/1999/xlink">
<g id="graph0" class="graph" transform="scale(1 1) rotate(0) translate(4 248)">
<title>slow_down.h</title>
<polygon fill="white" stroke="transparent" points="-4,4 -4,-248 224,-248 224,4 -4,4"/>
<!-- Node1 -->
<g id="node1" class="node">
<title>Node1</title>
<g id="a_node1"><a xlink:title=" ">
<polygon fill="#bfbfbf" stroke="black" points="119.5,-224.5 119.5,-243.5 192.5,-243.5 192.5,-224.5 119.5,-224.5"/>
<text text-anchor="middle" x="156" y="-231.5" font-family="FreeSans" font-size="10.00">slow_down.h</text>
</a>
</g>
</g>
<!-- Node2 -->
<g id="node2" class="node">
<title>Node2</title>
<g id="a_node2"><a xlink:href="information_8h.html" target="_top" xlink:title=" ">
<polygon fill="white" stroke="black" points="88,-168.5 88,-187.5 160,-187.5 160,-168.5 88,-168.5"/>
<text text-anchor="middle" x="124" y="-175.5" font-family="FreeSans" font-size="10.00">information.h</text>
</a>
</g>
</g>
<!-- Node1&#45;&gt;Node2 -->
<g id="edge1" class="edge">
<title>Node1&#45;&gt;Node2</title>
<path fill="none" stroke="midnightblue" d="M145.5,-215.27C140.03,-206.05 133.58,-195.17 129.19,-187.75"/>
<polygon fill="midnightblue" stroke="midnightblue" points="142.61,-217.26 150.72,-224.08 148.63,-213.7 142.61,-217.26"/>
</g>
<!-- Node4 -->
<g id="node4" class="node">
<title>Node4</title>
<g id="a_node4"><a xlink:href="symplectic__integrator_8h.html" target="_top" xlink:title=" ">
<polygon fill="white" stroke="black" points="104,-56.5 104,-75.5 220,-75.5 220,-56.5 104,-56.5"/>
<text text-anchor="middle" x="162" y="-63.5" font-family="FreeSans" font-size="10.00">symplectic_integrator.h</text>
</a>
</g>
</g>
<!-- Node1&#45;&gt;Node4 -->
<g id="edge8" class="edge">
<title>Node1&#45;&gt;Node4</title>
<path fill="none" stroke="midnightblue" d="M165.09,-215.42C174.72,-195.72 189.31,-162.53 195,-132 196.63,-123.26 197.77,-120.45 195,-112 190.3,-97.64 179.07,-84.07 171.02,-75.66"/>
<polygon fill="midnightblue" stroke="midnightblue" points="161.94,-213.9 160.58,-224.41 168.19,-217.04 161.94,-213.9"/>
</g>
<!-- Node3 -->
<g id="node3" class="node">
<title>Node3</title>
<g id="a_node3"><a xlink:href="interrupt_8h.html" target="_top" xlink:title=" ">
<polygon fill="white" stroke="black" points="126.5,-112.5 126.5,-131.5 185.5,-131.5 185.5,-112.5 126.5,-112.5"/>
<text text-anchor="middle" x="156" y="-119.5" font-family="FreeSans" font-size="10.00">interrupt.h</text>
</a>
</g>
</g>
<!-- Node2&#45;&gt;Node3 -->
<g id="edge2" class="edge">
<title>Node2&#45;&gt;Node3</title>
<path fill="none" stroke="midnightblue" d="M134.5,-159.27C139.97,-150.05 146.42,-139.17 150.81,-131.75"/>
<polygon fill="midnightblue" stroke="midnightblue" points="131.37,-157.7 129.28,-168.08 137.39,-161.26 131.37,-157.7"/>
</g>
<!-- Node2&#45;&gt;Node4 -->
<g id="edge5" class="edge">
<title>Node2&#45;&gt;Node4</title>
<path fill="none" stroke="midnightblue" d="M117.41,-158.68C113.66,-145.27 110.83,-126.89 117,-112 123.43,-96.48 138.09,-83.53 148.94,-75.56"/>
<polygon fill="midnightblue" stroke="midnightblue" points="114.07,-159.74 120.45,-168.21 120.74,-157.61 114.07,-159.74"/>
</g>
<!-- Node6 -->
<g id="node6" class="node">
<title>Node6</title>
<g id="a_node6"><a xlink:href="ar__information_8h.html" target="_top" xlink:title=" ">
<polygon fill="white" stroke="black" points="0,-56.5 0,-75.5 86,-75.5 86,-56.5 0,-56.5"/>
<text text-anchor="middle" x="43" y="-63.5" font-family="FreeSans" font-size="10.00">ar_information.h</text>
</a>
</g>
</g>
<!-- Node2&#45;&gt;Node6 -->
<g id="edge6" class="edge">
<title>Node2&#45;&gt;Node6</title>
<path fill="none" stroke="midnightblue" d="M111.68,-160.27C94.17,-136.49 62.73,-93.79 49.33,-75.59"/>
<polygon fill="midnightblue" stroke="midnightblue" points="108.9,-162.39 117.64,-168.37 114.53,-158.24 108.9,-162.39"/>
</g>
<!-- Node3&#45;&gt;Node4 -->
<g id="edge3" class="edge">
<title>Node3&#45;&gt;Node4</title>
<path fill="none" stroke="midnightblue" d="M158.1,-102.1C159.1,-93.14 160.24,-82.86 161.03,-75.75"/>
<polygon fill="midnightblue" stroke="midnightblue" points="154.62,-101.76 156.99,-112.08 161.57,-102.53 154.62,-101.76"/>
</g>
<!-- Node5 -->
<g id="node5" class="node">
<title>Node5</title>
<g id="a_node5"><a xlink:href="hermite__integrator_8h.html" target="_top" xlink:title=" ">
<polygon fill="white" stroke="black" points="51,-0.5 51,-19.5 153,-19.5 153,-0.5 51,-0.5"/>
<text text-anchor="middle" x="102" y="-7.5" font-family="FreeSans" font-size="10.00">hermite_integrator.h</text>
</a>
</g>
</g>
<!-- Node4&#45;&gt;Node5 -->
<g id="edge4" class="edge">
<title>Node4&#45;&gt;Node5</title>
<path fill="none" stroke="midnightblue" d="M144.82,-49.54C134.12,-39.91 120.74,-27.87 111.82,-19.83"/>
<polygon fill="midnightblue" stroke="midnightblue" points="142.59,-52.24 152.36,-56.32 147.27,-47.03 142.59,-52.24"/>
</g>
<!-- Node6&#45;&gt;Node5 -->
<g id="edge7" class="edge">
<title>Node6&#45;&gt;Node5</title>
<path fill="none" stroke="midnightblue" d="M59.89,-49.54C70.41,-39.91 83.57,-27.87 92.35,-19.83"/>
<polygon fill="midnightblue" stroke="midnightblue" points="57.49,-46.99 52.48,-56.32 62.22,-52.15 57.49,-46.99"/>
</g>
</g>
</svg>
