<?xml version="1.0" encoding="UTF-8" standalone="no"?>
<!DOCTYPE svg PUBLIC "-//W3C//DTD SVG 1.1//EN"
 "http://www.w3.org/Graphics/SVG/1.1/DTD/svg11.dtd">
<!-- Generated by graphviz version 2.38.0 (20140413.2041)
 -->
<!-- Title: slow_down.h Pages: 1 -->
<svg width="124pt" height="140pt"
 viewBox="0.00 0.00 124.00 140.00" xmlns="http://www.w3.org/2000/svg" xmlns:xlink="http://www.w3.org/1999/xlink">
<g id="graph0" class="graph" transform="scale(1 1) rotate(0) translate(4 136)">
<title>slow_down.h</title>
<polygon fill="white" stroke="none" points="-4,4 -4,-136 120,-136 120,4 -4,4"/>
<!-- Node1 -->
<g id="node1" class="node"><title>Node1</title>
<polygon fill="#bfbfbf" stroke="black" points="22.5,-112.5 22.5,-131.5 93.5,-131.5 93.5,-112.5 22.5,-112.5"/>
<text text-anchor="middle" x="58" y="-119.5" font-family="FreeSans" font-size="10.00">slow_down.h</text>
</g>
<!-- Node2 -->
<g id="node2" class="node"><title>Node2</title>
<g id="a_node2"><a xlink:href="symplectic__integrator_8h.html" target="_top" xlink:title="symplectic_integrator.h">
<polygon fill="white" stroke="black" points="-7.10543e-15,-56.5 -7.10543e-15,-75.5 116,-75.5 116,-56.5 -7.10543e-15,-56.5"/>
<text text-anchor="middle" x="58" y="-63.5" font-family="FreeSans" font-size="10.00">symplectic_integrator.h</text>
</a>
</g>
</g>
<!-- Node1&#45;&gt;Node2 -->
<g id="edge1" class="edge"><title>Node1&#45;&gt;Node2</title>
<path fill="none" stroke="midnightblue" d="M58,-101.805C58,-92.9102 58,-82.7798 58,-75.7511"/>
<polygon fill="midnightblue" stroke="midnightblue" points="54.5001,-102.083 58,-112.083 61.5001,-102.083 54.5001,-102.083"/>
</g>
<!-- Node3 -->
<g id="node3" class="node"><title>Node3</title>
<g id="a_node3"><a xlink:href="hermite__integrator_8h.html" target="_top" xlink:title="hermite_integrator.h">
<polygon fill="white" stroke="black" points="7,-0.5 7,-19.5 109,-19.5 109,-0.5 7,-0.5"/>
<text text-anchor="middle" x="58" y="-7.5" font-family="FreeSans" font-size="10.00">hermite_integrator.h</text>
</a>
</g>
</g>
<!-- Node2&#45;&gt;Node3 -->
<g id="edge2" class="edge"><title>Node2&#45;&gt;Node3</title>
<path fill="none" stroke="midnightblue" d="M58,-45.8045C58,-36.9102 58,-26.7798 58,-19.7511"/>
<polygon fill="midnightblue" stroke="midnightblue" points="54.5001,-46.083 58,-56.083 61.5001,-46.083 54.5001,-46.083"/>
</g>
</g>
</svg>
