<?xml version="1.0" encoding="UTF-8" standalone="no"?>
<!DOCTYPE svg PUBLIC "-//W3C//DTD SVG 1.1//EN"
 "http://www.w3.org/Graphics/SVG/1.1/DTD/svg11.dtd">
<!-- Generated by graphviz version 2.38.0 (20140413.2041)
 -->
<!-- Title: H4::HermiteEnergy::clear Pages: 1 -->
<svg width="253pt" height="39pt"
 viewBox="0.00 0.00 253.00 39.00" xmlns="http://www.w3.org/2000/svg" xmlns:xlink="http://www.w3.org/1999/xlink">
<g id="graph0" class="graph" transform="scale(1 1) rotate(0) translate(4 35)">
<title>H4::HermiteEnergy::clear</title>
<polygon fill="white" stroke="none" points="-4,4 -4,-35 249,-35 249,4 -4,4"/>
<!-- Node1 -->
<g id="node1" class="node"><title>Node1</title>
<polygon fill="#bfbfbf" stroke="black" points="0,-0.5 0,-30.5 101,-30.5 101,-0.5 0,-0.5"/>
<text text-anchor="start" x="8" y="-18.5" font-family="FreeSans" font-size="10.00">H4::HermiteEnergy::</text>
<text text-anchor="middle" x="50.5" y="-7.5" font-family="FreeSans" font-size="10.00">clear</text>
</g>
<!-- Node2 -->
<g id="node2" class="node"><title>Node2</title>
<g id="a_node2"><a xlink:href="classH4_1_1HermiteIntegrator.html#a7729add39ba30b96c19aa6337dd38293" target="_top" xlink:title="clear function ">
<polygon fill="white" stroke="black" points="137,-0.5 137,-30.5 245,-30.5 245,-0.5 137,-0.5"/>
<text text-anchor="start" x="145" y="-18.5" font-family="FreeSans" font-size="10.00">H4::HermiteIntegrator</text>
<text text-anchor="middle" x="191" y="-7.5" font-family="FreeSans" font-size="10.00">::clear</text>
</a>
</g>
</g>
<!-- Node1&#45;&gt;Node2 -->
<g id="edge1" class="edge"><title>Node1&#45;&gt;Node2</title>
<path fill="none" stroke="midnightblue" d="M111.374,-15.5C119.896,-15.5 128.61,-15.5 136.989,-15.5"/>
<polygon fill="midnightblue" stroke="midnightblue" points="111.111,-12.0001 101.11,-15.5 111.11,-19.0001 111.111,-12.0001"/>
</g>
</g>
</svg>
