<?xml version="1.0" encoding="UTF-8" standalone="no"?>
<!DOCTYPE svg PUBLIC "-//W3C//DTD SVG 1.1//EN"
 "http://www.w3.org/Graphics/SVG/1.1/DTD/svg11.dtd">
<!-- Generated by graphviz version 2.43.0 (0)
 -->
<!-- Title: H4::HermiteEnergy::printColumn Pages: 1 -->
<svg width="256pt" height="39pt"
 viewBox="0.00 0.00 256.00 39.00" xmlns="http://www.w3.org/2000/svg" xmlns:xlink="http://www.w3.org/1999/xlink">
<g id="graph0" class="graph" transform="scale(1 1) rotate(0) translate(4 35)">
<title>H4::HermiteEnergy::printColumn</title>
<polygon fill="white" stroke="transparent" points="-4,4 -4,-35 252,-35 252,4 -4,4"/>
<!-- Node1 -->
<g id="node1" class="node">
<title>Node1</title>
<g id="a_node1"><a xlink:title="print data of class members using column style">
<polygon fill="#bfbfbf" stroke="black" points="146,-0.5 146,-30.5 248,-30.5 248,-0.5 146,-0.5"/>
<text text-anchor="start" x="154" y="-18.5" font-family="FreeSans" font-size="10.00">H4::HermiteEnergy::</text>
<text text-anchor="middle" x="197" y="-7.5" font-family="FreeSans" font-size="10.00">printColumn</text>
</a>
</g>
</g>
<!-- Node2 -->
<g id="node2" class="node">
<title>Node2</title>
<g id="a_node2"><a xlink:href="classH4_1_1HermiteIntegrator.html#ade66bdfa99fd6fb866ca64bf8abbc41b" target="_top" xlink:title="print data of class members using column style">
<polygon fill="white" stroke="black" points="0,-0.5 0,-30.5 110,-30.5 110,-0.5 0,-0.5"/>
<text text-anchor="start" x="8" y="-18.5" font-family="FreeSans" font-size="10.00">H4::HermiteIntegrator</text>
<text text-anchor="middle" x="55" y="-7.5" font-family="FreeSans" font-size="10.00">::printColumn</text>
</a>
</g>
</g>
<!-- Node1&#45;&gt;Node2 -->
<g id="edge1" class="edge">
<title>Node1&#45;&gt;Node2</title>
<path fill="none" stroke="midnightblue" d="M135.62,-15.5C127.12,-15.5 118.43,-15.5 110.06,-15.5"/>
<polygon fill="midnightblue" stroke="midnightblue" points="135.85,-19 145.85,-15.5 135.85,-12 135.85,-19"/>
</g>
</g>
</svg>
