<?xml version="1.0" encoding="UTF-8" standalone="no"?>
<!DOCTYPE svg PUBLIC "-//W3C//DTD SVG 1.1//EN"
 "http://www.w3.org/Graphics/SVG/1.1/DTD/svg11.dtd">
<!-- Generated by graphviz version 2.38.0 (20140413.2041)
 -->
<!-- Title: H4::HermiteEnergy::getEnergyError Pages: 1 -->
<svg width="274pt" height="88pt"
 viewBox="0.00 0.00 274.00 88.00" xmlns="http://www.w3.org/2000/svg" xmlns:xlink="http://www.w3.org/1999/xlink">
<g id="graph0" class="graph" transform="scale(1 1) rotate(0) translate(4 84)">
<title>H4::HermiteEnergy::getEnergyError</title>
<polygon fill="white" stroke="none" points="-4,4 -4,-84 270,-84 270,4 -4,4"/>
<!-- Node1 -->
<g id="node1" class="node"><title>Node1</title>
<polygon fill="#bfbfbf" stroke="black" points="0,-24.5 0,-54.5 101,-54.5 101,-24.5 0,-24.5"/>
<text text-anchor="start" x="8" y="-42.5" font-family="FreeSans" font-size="10.00">H4::HermiteEnergy::</text>
<text text-anchor="middle" x="50.5" y="-31.5" font-family="FreeSans" font-size="10.00">getEnergyError</text>
</g>
<!-- Node2 -->
<g id="node2" class="node"><title>Node2</title>
<g id="a_node2"><a xlink:href="classH4_1_1HermiteIntegrator.html#aa7a3950ef51c14f7ef825e1cbd7a675e" target="_top" xlink:title="get slowdown energy error ">
<polygon fill="white" stroke="black" points="137,-49.5 137,-79.5 266,-79.5 266,-49.5 137,-49.5"/>
<text text-anchor="start" x="145" y="-67.5" font-family="FreeSans" font-size="10.00">H4::HermiteIntegrator</text>
<text text-anchor="middle" x="201.5" y="-56.5" font-family="FreeSans" font-size="10.00">::getEnergyErrorSlowDown</text>
</a>
</g>
</g>
<!-- Node1&#45;&gt;Node2 -->
<g id="edge1" class="edge"><title>Node1&#45;&gt;Node2</title>
<path fill="none" stroke="midnightblue" d="M111.216,-49.5195C119.629,-50.9311 128.305,-52.3867 136.789,-53.8102"/>
<polygon fill="midnightblue" stroke="midnightblue" points="111.556,-46.0277 101.115,-47.8246 110.398,-52.9312 111.556,-46.0277"/>
</g>
<!-- Node3 -->
<g id="node3" class="node"><title>Node3</title>
<g id="a_node3"><a xlink:href="classH4_1_1HermiteIntegrator.html#a57cbb2bb519cc7c64cf0991dfad818dc" target="_top" xlink:title="get energy error ">
<polygon fill="white" stroke="black" points="147.5,-0.5 147.5,-30.5 255.5,-30.5 255.5,-0.5 147.5,-0.5"/>
<text text-anchor="start" x="155.5" y="-18.5" font-family="FreeSans" font-size="10.00">H4::HermiteIntegrator</text>
<text text-anchor="middle" x="201.5" y="-7.5" font-family="FreeSans" font-size="10.00">::getEnergyError</text>
</a>
</g>
</g>
<!-- Node1&#45;&gt;Node3 -->
<g id="edge2" class="edge"><title>Node1&#45;&gt;Node3</title>
<path fill="none" stroke="midnightblue" d="M111.021,-29.9127C123,-27.9832 135.517,-25.967 147.265,-24.0748"/>
<polygon fill="midnightblue" stroke="midnightblue" points="110.431,-26.4626 101.115,-31.5083 111.544,-33.3735 110.431,-26.4626"/>
</g>
</g>
</svg>
