<?xml version="1.0" encoding="UTF-8" standalone="no"?>
<!DOCTYPE svg PUBLIC "-//W3C//DTD SVG 1.1//EN"
 "http://www.w3.org/Graphics/SVG/1.1/DTD/svg11.dtd">
<!-- Generated by graphviz version 2.43.0 (0)
 -->
<!-- Title: H4::HermiteEnergy::printColumn Pages: 1 -->
<svg width="248pt" height="39pt"
 viewBox="0.00 0.00 248.00 39.00" xmlns="http://www.w3.org/2000/svg" xmlns:xlink="http://www.w3.org/1999/xlink">
<g id="graph0" class="graph" transform="scale(1 1) rotate(0) translate(4 35)">
<title>H4::HermiteEnergy::printColumn</title>
<polygon fill="white" stroke="transparent" points="-4,4 -4,-35 244,-35 244,4 -4,4"/>
<!-- Node1 -->
<g id="node1" class="node">
<title>Node1</title>
<g id="a_node1"><a xlink:title="print data of class members using column style">
<polygon fill="#bfbfbf" stroke="black" points="0,-0.5 0,-30.5 102,-30.5 102,-0.5 0,-0.5"/>
<text text-anchor="start" x="8" y="-18.5" font-family="FreeSans" font-size="10.00">H4::HermiteEnergy::</text>
<text text-anchor="middle" x="51" y="-7.5" font-family="FreeSans" font-size="10.00">printColumn</text>
</a>
</g>
</g>
<!-- Node2 -->
<g id="node2" class="node">
<title>Node2</title>
<g id="a_node2"><a xlink:href="structH4_1_1HermiteEnergy.html#a19211bc7c7d783e741cace2b14c48f05" target="_top" xlink:title="calc energy error">
<polygon fill="white" stroke="black" points="138,-0.5 138,-30.5 240,-30.5 240,-0.5 138,-0.5"/>
<text text-anchor="start" x="146" y="-18.5" font-family="FreeSans" font-size="10.00">H4::HermiteEnergy::</text>
<text text-anchor="middle" x="189" y="-7.5" font-family="FreeSans" font-size="10.00">getEnergyError</text>
</a>
</g>
</g>
<!-- Node1&#45;&gt;Node2 -->
<g id="edge1" class="edge">
<title>Node1&#45;&gt;Node2</title>
<path fill="none" stroke="midnightblue" d="M102.25,-15.5C110.54,-15.5 119.2,-15.5 127.7,-15.5"/>
<polygon fill="midnightblue" stroke="midnightblue" points="127.95,-19 137.95,-15.5 127.95,-12 127.95,-19"/>
</g>
</g>
</svg>
