<?xml version="1.0" encoding="UTF-8" standalone="no"?>
<!DOCTYPE svg PUBLIC "-//W3C//DTD SVG 1.1//EN"
 "http://www.w3.org/Graphics/SVG/1.1/DTD/svg11.dtd">
<!-- Generated by graphviz version 2.38.0 (20140413.2041)
 -->
<!-- Title: H4::HermiteEnergy::getEtot Pages: 1 -->
<svg width="258pt" height="137pt"
 viewBox="0.00 0.00 258.00 137.00" xmlns="http://www.w3.org/2000/svg" xmlns:xlink="http://www.w3.org/1999/xlink">
<g id="graph0" class="graph" transform="scale(1 1) rotate(0) translate(4 133)">
<title>H4::HermiteEnergy::getEtot</title>
<polygon fill="white" stroke="none" points="-4,4 -4,-133 254,-133 254,4 -4,4"/>
<!-- Node1 -->
<g id="node1" class="node"><title>Node1</title>
<polygon fill="#bfbfbf" stroke="black" points="0,-49.5 0,-79.5 101,-79.5 101,-49.5 0,-49.5"/>
<text text-anchor="start" x="8" y="-67.5" font-family="FreeSans" font-size="10.00">H4::HermiteEnergy::</text>
<text text-anchor="middle" x="50.5" y="-56.5" font-family="FreeSans" font-size="10.00">getEtot</text>
</g>
<!-- Node2 -->
<g id="node2" class="node"><title>Node2</title>
<g id="a_node2"><a xlink:href="classH4_1_1HermiteIntegrator.html#aafda8d20755ddd59875994844de3f0c3" target="_top" xlink:title="calculate slowdown energy ">
<polygon fill="white" stroke="black" points="137,-98.5 137,-128.5 250,-128.5 250,-98.5 137,-98.5"/>
<text text-anchor="start" x="145" y="-116.5" font-family="FreeSans" font-size="10.00">H4::HermiteIntegrator</text>
<text text-anchor="middle" x="193.5" y="-105.5" font-family="FreeSans" font-size="10.00">::calcEnergySlowDown</text>
</a>
</g>
</g>
<!-- Node1&#45;&gt;Node2 -->
<g id="edge1" class="edge"><title>Node1&#45;&gt;Node2</title>
<path fill="none" stroke="midnightblue" d="M104.417,-82.8896C119.098,-87.9916 134.866,-93.4711 148.946,-98.3641"/>
<polygon fill="midnightblue" stroke="midnightblue" points="105.55,-79.5781 94.9552,-79.6014 103.252,-86.1902 105.55,-79.5781"/>
</g>
<!-- Node3 -->
<g id="node3" class="node"><title>Node3</title>
<g id="a_node3"><a xlink:href="classH4_1_1HermiteIntegrator.html#a1b0757a9332d82ee38645d66c35b110b" target="_top" xlink:title="Get current total energy from ekin and epot. ">
<polygon fill="white" stroke="black" points="139.5,-49.5 139.5,-79.5 247.5,-79.5 247.5,-49.5 139.5,-49.5"/>
<text text-anchor="start" x="147.5" y="-67.5" font-family="FreeSans" font-size="10.00">H4::HermiteIntegrator</text>
<text text-anchor="middle" x="193.5" y="-56.5" font-family="FreeSans" font-size="10.00">::getEtot</text>
</a>
</g>
</g>
<!-- Node1&#45;&gt;Node3 -->
<g id="edge2" class="edge"><title>Node1&#45;&gt;Node3</title>
<path fill="none" stroke="midnightblue" d="M111.234,-64.5C120.594,-64.5 130.213,-64.5 139.411,-64.5"/>
<polygon fill="midnightblue" stroke="midnightblue" points="111.211,-61.0001 101.211,-64.5 111.211,-68.0001 111.211,-61.0001"/>
</g>
<!-- Node4 -->
<g id="node4" class="node"><title>Node4</title>
<g id="a_node4"><a xlink:href="classH4_1_1HermiteIntegrator.html#a50ad05d56f2b59581cbad8ded5e28d37" target="_top" xlink:title="Get current total energy with slowdown from ekin_sd and epot_sd. ">
<polygon fill="white" stroke="black" points="139.5,-0.5 139.5,-30.5 247.5,-30.5 247.5,-0.5 139.5,-0.5"/>
<text text-anchor="start" x="147.5" y="-18.5" font-family="FreeSans" font-size="10.00">H4::HermiteIntegrator</text>
<text text-anchor="middle" x="193.5" y="-7.5" font-family="FreeSans" font-size="10.00">::getEtotSlowDown</text>
</a>
</g>
</g>
<!-- Node1&#45;&gt;Node4 -->
<g id="edge3" class="edge"><title>Node1&#45;&gt;Node4</title>
<path fill="none" stroke="midnightblue" d="M104.417,-46.1104C119.098,-41.0084 134.866,-35.5289 148.946,-30.6359"/>
<polygon fill="midnightblue" stroke="midnightblue" points="103.252,-42.8098 94.9552,-49.3986 105.55,-49.4219 103.252,-42.8098"/>
</g>
</g>
</svg>
