<?xml version="1.0" encoding="UTF-8" standalone="no"?>
<!DOCTYPE svg PUBLIC "-//W3C//DTD SVG 1.1//EN"
 "http://www.w3.org/Graphics/SVG/1.1/DTD/svg11.dtd">
<!-- Generated by graphviz version 2.43.0 (0)
 -->
<!-- Title: H4::HermiteEnergy::getEtot Pages: 1 -->
<svg width="261pt" height="137pt"
 viewBox="0.00 0.00 261.00 137.00" xmlns="http://www.w3.org/2000/svg" xmlns:xlink="http://www.w3.org/1999/xlink">
<g id="graph0" class="graph" transform="scale(1 1) rotate(0) translate(4 133)">
<title>H4::HermiteEnergy::getEtot</title>
<polygon fill="white" stroke="transparent" points="-4,4 -4,-133 257,-133 257,4 -4,4"/>
<!-- Node1 -->
<g id="node1" class="node">
<title>Node1</title>
<g id="a_node1"><a xlink:title="calc total energy">
<polygon fill="#bfbfbf" stroke="black" points="151,-49.5 151,-79.5 253,-79.5 253,-49.5 151,-49.5"/>
<text text-anchor="start" x="159" y="-67.5" font-family="FreeSans" font-size="10.00">H4::HermiteEnergy::</text>
<text text-anchor="middle" x="202" y="-56.5" font-family="FreeSans" font-size="10.00">getEtot</text>
</a>
</g>
</g>
<!-- Node2 -->
<g id="node2" class="node">
<title>Node2</title>
<g id="a_node2"><a xlink:href="classH4_1_1HermiteIntegrator.html#aafda8d20755ddd59875994844de3f0c3" target="_top" xlink:title="calculate slowdown energy">
<polygon fill="white" stroke="black" points="0,-98.5 0,-128.5 115,-128.5 115,-98.5 0,-98.5"/>
<text text-anchor="start" x="8" y="-116.5" font-family="FreeSans" font-size="10.00">H4::HermiteIntegrator</text>
<text text-anchor="middle" x="57.5" y="-105.5" font-family="FreeSans" font-size="10.00">::calcEnergySlowDown</text>
</a>
</g>
</g>
<!-- Node1&#45;&gt;Node2 -->
<g id="edge1" class="edge">
<title>Node1&#45;&gt;Node2</title>
<path fill="none" stroke="midnightblue" d="M147.52,-82.89C132.68,-87.99 116.75,-93.47 102.52,-98.36"/>
<polygon fill="midnightblue" stroke="midnightblue" points="148.76,-86.16 157.08,-79.6 146.49,-79.54 148.76,-86.16"/>
</g>
<!-- Node3 -->
<g id="node3" class="node">
<title>Node3</title>
<g id="a_node3"><a xlink:href="classH4_1_1HermiteIntegrator.html#ae4064f900ba5fbf854f0809b144ac915" target="_top" xlink:title="Get current total energy from ekin and epot.">
<polygon fill="white" stroke="black" points="2.5,-49.5 2.5,-79.5 112.5,-79.5 112.5,-49.5 2.5,-49.5"/>
<text text-anchor="start" x="10.5" y="-67.5" font-family="FreeSans" font-size="10.00">H4::HermiteIntegrator</text>
<text text-anchor="middle" x="57.5" y="-56.5" font-family="FreeSans" font-size="10.00">::getEtot</text>
</a>
</g>
</g>
<!-- Node1&#45;&gt;Node3 -->
<g id="edge2" class="edge">
<title>Node1&#45;&gt;Node3</title>
<path fill="none" stroke="midnightblue" d="M140.46,-64.5C131.22,-64.5 121.73,-64.5 112.64,-64.5"/>
<polygon fill="midnightblue" stroke="midnightblue" points="140.76,-68 150.76,-64.5 140.76,-61 140.76,-68"/>
</g>
<!-- Node4 -->
<g id="node4" class="node">
<title>Node4</title>
<g id="a_node4"><a xlink:href="classH4_1_1HermiteIntegrator.html#a63c8dd3ea597174d97a6f672ef706328" target="_top" xlink:title="Get current total energy with slowdown from ekin_sd and epot_sd.">
<polygon fill="white" stroke="black" points="2.5,-0.5 2.5,-30.5 112.5,-30.5 112.5,-0.5 2.5,-0.5"/>
<text text-anchor="start" x="10.5" y="-18.5" font-family="FreeSans" font-size="10.00">H4::HermiteIntegrator</text>
<text text-anchor="middle" x="57.5" y="-7.5" font-family="FreeSans" font-size="10.00">::getEtotSlowDown</text>
</a>
</g>
</g>
<!-- Node1&#45;&gt;Node4 -->
<g id="edge3" class="edge">
<title>Node1&#45;&gt;Node4</title>
<path fill="none" stroke="midnightblue" d="M147.52,-46.11C132.68,-41.01 116.75,-35.53 102.52,-30.64"/>
<polygon fill="midnightblue" stroke="midnightblue" points="146.49,-49.46 157.08,-49.4 148.76,-42.84 146.49,-49.46"/>
</g>
</g>
</svg>
