<?xml version="1.0" encoding="UTF-8" standalone="no"?>
<!DOCTYPE svg PUBLIC "-//W3C//DTD SVG 1.1//EN"
 "http://www.w3.org/Graphics/SVG/1.1/DTD/svg11.dtd">
<!-- Generated by graphviz version 2.43.0 (0)
 -->
<!-- Title: H4::HermiteEnergy::getEnergyError Pages: 1 -->
<svg width="423pt" height="137pt"
 viewBox="0.00 0.00 423.00 137.00" xmlns="http://www.w3.org/2000/svg" xmlns:xlink="http://www.w3.org/1999/xlink">
<g id="graph0" class="graph" transform="scale(1 1) rotate(0) translate(4 133)">
<title>H4::HermiteEnergy::getEnergyError</title>
<polygon fill="white" stroke="transparent" points="-4,4 -4,-133 419,-133 419,4 -4,4"/>
<!-- Node1 -->
<g id="node1" class="node">
<title>Node1</title>
<g id="a_node1"><a xlink:title="calc energy error">
<polygon fill="#bfbfbf" stroke="black" points="313,-49.5 313,-79.5 415,-79.5 415,-49.5 313,-49.5"/>
<text text-anchor="start" x="321" y="-67.5" font-family="FreeSans" font-size="10.00">H4::HermiteEnergy::</text>
<text text-anchor="middle" x="364" y="-56.5" font-family="FreeSans" font-size="10.00">getEnergyError</text>
</a>
</g>
</g>
<!-- Node2 -->
<g id="node2" class="node">
<title>Node2</title>
<g id="a_node2"><a xlink:href="classH4_1_1HermiteIntegrator.html#aa647267ce6ec87ae8bea4f36aa7f83a4" target="_top" xlink:title="get energy error">
<polygon fill="white" stroke="black" points="156.5,-98.5 156.5,-128.5 266.5,-128.5 266.5,-98.5 156.5,-98.5"/>
<text text-anchor="start" x="164.5" y="-116.5" font-family="FreeSans" font-size="10.00">H4::HermiteIntegrator</text>
<text text-anchor="middle" x="211.5" y="-105.5" font-family="FreeSans" font-size="10.00">::getEnergyError</text>
</a>
</g>
</g>
<!-- Node1&#45;&gt;Node2 -->
<g id="edge1" class="edge">
<title>Node1&#45;&gt;Node2</title>
<path fill="none" stroke="midnightblue" d="M306.92,-82.76C291.04,-87.93 273.95,-93.49 258.73,-98.45"/>
<polygon fill="midnightblue" stroke="midnightblue" points="308.19,-86.03 316.62,-79.6 306.02,-79.37 308.19,-86.03"/>
</g>
<!-- Node3 -->
<g id="node3" class="node">
<title>Node3</title>
<g id="a_node3"><a xlink:href="classH4_1_1HermiteIntegrator.html#a54e0079387cbd810ec86e92bbec1a2ea" target="_top" xlink:title="get slowdown energy error">
<polygon fill="white" stroke="black" points="146,-49.5 146,-79.5 277,-79.5 277,-49.5 146,-49.5"/>
<text text-anchor="start" x="154" y="-67.5" font-family="FreeSans" font-size="10.00">H4::HermiteIntegrator</text>
<text text-anchor="middle" x="211.5" y="-56.5" font-family="FreeSans" font-size="10.00">::getEnergyErrorSlowDown</text>
</a>
</g>
</g>
<!-- Node1&#45;&gt;Node3 -->
<g id="edge2" class="edge">
<title>Node1&#45;&gt;Node3</title>
<path fill="none" stroke="midnightblue" d="M302.76,-64.5C294.33,-64.5 285.63,-64.5 277.12,-64.5"/>
<polygon fill="midnightblue" stroke="midnightblue" points="302.89,-68 312.89,-64.5 302.89,-61 302.89,-68"/>
</g>
<!-- Node4 -->
<g id="node4" class="node">
<title>Node4</title>
<g id="a_node4"><a xlink:href="structH4_1_1HermiteEnergy.html#a23fb5809bab0975984e73254f46090b2" target="_top" xlink:title="print data of class members using column style">
<polygon fill="white" stroke="black" points="160.5,-0.5 160.5,-30.5 262.5,-30.5 262.5,-0.5 160.5,-0.5"/>
<text text-anchor="start" x="168.5" y="-18.5" font-family="FreeSans" font-size="10.00">H4::HermiteEnergy::</text>
<text text-anchor="middle" x="211.5" y="-7.5" font-family="FreeSans" font-size="10.00">printColumn</text>
</a>
</g>
</g>
<!-- Node1&#45;&gt;Node4 -->
<g id="edge3" class="edge">
<title>Node1&#45;&gt;Node4</title>
<path fill="none" stroke="midnightblue" d="M306.92,-46.24C291.04,-41.07 273.95,-35.51 258.73,-30.55"/>
<polygon fill="midnightblue" stroke="midnightblue" points="306.02,-49.63 316.62,-49.4 308.19,-42.97 306.02,-49.63"/>
</g>
<!-- Node5 -->
<g id="node5" class="node">
<title>Node5</title>
<g id="a_node5"><a xlink:href="classH4_1_1HermiteIntegrator.html#ade66bdfa99fd6fb866ca64bf8abbc41b" target="_top" xlink:title="print data of class members using column style">
<polygon fill="white" stroke="black" points="0,-0.5 0,-30.5 110,-30.5 110,-0.5 0,-0.5"/>
<text text-anchor="start" x="8" y="-18.5" font-family="FreeSans" font-size="10.00">H4::HermiteIntegrator</text>
<text text-anchor="middle" x="55" y="-7.5" font-family="FreeSans" font-size="10.00">::printColumn</text>
</a>
</g>
</g>
<!-- Node4&#45;&gt;Node5 -->
<g id="edge4" class="edge">
<title>Node4&#45;&gt;Node5</title>
<path fill="none" stroke="midnightblue" d="M149.98,-15.5C136.85,-15.5 123.04,-15.5 110.17,-15.5"/>
<polygon fill="midnightblue" stroke="midnightblue" points="150.34,-19 160.34,-15.5 150.34,-12 150.34,-19"/>
</g>
</g>
</svg>
