<?xml version="1.0" encoding="UTF-8" standalone="no"?>
<!DOCTYPE svg PUBLIC "-//W3C//DTD SVG 1.1//EN"
 "http://www.w3.org/Graphics/SVG/1.1/DTD/svg11.dtd">
<!-- Generated by graphviz version 2.43.0 (0)
 -->
<!-- Title: AR::TimeMeasure::get_wtime Pages: 1 -->
<svg width="274pt" height="66pt"
 viewBox="0.00 0.00 274.00 66.00" xmlns="http://www.w3.org/2000/svg" xmlns:xlink="http://www.w3.org/1999/xlink">
<g id="graph0" class="graph" transform="scale(1 1) rotate(0) translate(4 62)">
<title>AR::TimeMeasure::get_wtime</title>
<polygon fill="white" stroke="transparent" points="-4,4 -4,-62 270,-62 270,4 -4,4"/>
<!-- Node1 -->
<g id="node1" class="node">
<title>Node1</title>
<g id="a_node1"><a xlink:title=" ">
<polygon fill="#bfbfbf" stroke="black" points="154,-14 154,-44 266,-44 266,-14 154,-14"/>
<text text-anchor="start" x="162" y="-32" font-family="FreeSans" font-size="10.00">AR::TimeMeasure::get</text>
<text text-anchor="middle" x="210" y="-21" font-family="FreeSans" font-size="10.00">_wtime</text>
</a>
</g>
</g>
<!-- Node2 -->
<g id="node2" class="node">
<title>Node2</title>
<g id="a_node2"><a xlink:href="structAR_1_1TimeMeasure.html#aba82f59cd1a2ffc67d974209dd385970" target="_top" xlink:title=" ">
<polygon fill="white" stroke="black" points="2,-38.5 2,-57.5 116,-57.5 116,-38.5 2,-38.5"/>
<text text-anchor="middle" x="59" y="-45.5" font-family="FreeSans" font-size="10.00">AR::TimeMeasure::end</text>
</a>
</g>
</g>
<!-- Node1&#45;&gt;Node2 -->
<g id="edge1" class="edge">
<title>Node1&#45;&gt;Node2</title>
<path fill="none" stroke="midnightblue" d="M143.74,-37.32C134.6,-38.49 125.28,-39.68 116.33,-40.82"/>
<polygon fill="midnightblue" stroke="midnightblue" points="144.46,-40.76 153.94,-36.02 143.58,-33.81 144.46,-40.76"/>
</g>
<!-- Node3 -->
<g id="node3" class="node">
<title>Node3</title>
<g id="a_node3"><a xlink:href="structAR_1_1TimeMeasure.html#ad66e3a8995f060a23f4e8683ed233b68" target="_top" xlink:title=" ">
<polygon fill="white" stroke="black" points="0,-0.5 0,-19.5 118,-19.5 118,-0.5 0,-0.5"/>
<text text-anchor="middle" x="59" y="-7.5" font-family="FreeSans" font-size="10.00">AR::TimeMeasure::start</text>
</a>
</g>
</g>
<!-- Node1&#45;&gt;Node3 -->
<g id="edge2" class="edge">
<title>Node1&#45;&gt;Node3</title>
<path fill="none" stroke="midnightblue" d="M143.94,-20.7C135.34,-19.61 126.56,-18.49 118.08,-17.41"/>
<polygon fill="midnightblue" stroke="midnightblue" points="143.58,-24.19 153.94,-21.98 144.46,-17.24 143.58,-24.19"/>
</g>
</g>
</svg>
