<?xml version="1.0" encoding="UTF-8" standalone="no"?>
<!DOCTYPE svg PUBLIC "-//W3C//DTD SVG 1.1//EN"
 "http://www.w3.org/Graphics/SVG/1.1/DTD/svg11.dtd">
<!-- Generated by graphviz version 2.38.0 (20140413.2041)
 -->
<!-- Title: AR::TimeMeasure::get_wtime Pages: 1 -->
<svg width="271pt" height="66pt"
 viewBox="0.00 0.00 271.00 66.00" xmlns="http://www.w3.org/2000/svg" xmlns:xlink="http://www.w3.org/1999/xlink">
<g id="graph0" class="graph" transform="scale(1 1) rotate(0) translate(4 62)">
<title>AR::TimeMeasure::get_wtime</title>
<polygon fill="white" stroke="none" points="-4,4 -4,-62 267,-62 267,4 -4,4"/>
<!-- Node1 -->
<g id="node1" class="node"><title>Node1</title>
<polygon fill="#bfbfbf" stroke="black" points="0,-14 0,-44 111,-44 111,-14 0,-14"/>
<text text-anchor="start" x="8" y="-32" font-family="FreeSans" font-size="10.00">AR::TimeMeasure::get</text>
<text text-anchor="middle" x="55.5" y="-21" font-family="FreeSans" font-size="10.00">_wtime</text>
</g>
<!-- Node2 -->
<g id="node2" class="node"><title>Node2</title>
<g id="a_node2"><a xlink:href="structAR_1_1TimeMeasure.html#ad66e3a8995f060a23f4e8683ed233b68" target="_top" xlink:title="AR::TimeMeasure::start">
<polygon fill="white" stroke="black" points="147,-38.5 147,-57.5 263,-57.5 263,-38.5 147,-38.5"/>
<text text-anchor="middle" x="205" y="-45.5" font-family="FreeSans" font-size="10.00">AR::TimeMeasure::start</text>
</a>
</g>
</g>
<!-- Node1&#45;&gt;Node2 -->
<g id="edge1" class="edge"><title>Node1&#45;&gt;Node2</title>
<path fill="none" stroke="midnightblue" d="M120.972,-37.3049C129.554,-38.4103 138.306,-39.5377 146.753,-40.6258"/>
<polygon fill="midnightblue" stroke="midnightblue" points="121.37,-33.8273 111.004,-36.0209 120.475,-40.7699 121.37,-33.8273"/>
</g>
<!-- Node3 -->
<g id="node3" class="node"><title>Node3</title>
<g id="a_node3"><a xlink:href="structAR_1_1TimeMeasure.html#aba82f59cd1a2ffc67d974209dd385970" target="_top" xlink:title="AR::TimeMeasure::end">
<polygon fill="white" stroke="black" points="148.5,-0.5 148.5,-19.5 261.5,-19.5 261.5,-0.5 148.5,-0.5"/>
<text text-anchor="middle" x="205" y="-7.5" font-family="FreeSans" font-size="10.00">AR::TimeMeasure::end</text>
</a>
</g>
</g>
<!-- Node1&#45;&gt;Node3 -->
<g id="edge2" class="edge"><title>Node1&#45;&gt;Node3</title>
<path fill="none" stroke="midnightblue" d="M121.106,-20.6779C130.149,-19.513 139.379,-18.324 148.24,-17.1827"/>
<polygon fill="midnightblue" stroke="midnightblue" points="120.475,-17.2301 111.004,-21.9791 121.37,-24.1727 120.475,-17.2301"/>
</g>
</g>
</svg>
