<?xml version="1.0" encoding="UTF-8" standalone="no"?>
<!DOCTYPE svg PUBLIC "-//W3C//DTD SVG 1.1//EN"
 "http://www.w3.org/Graphics/SVG/1.1/DTD/svg11.dtd">
<!-- Generated by graphviz version 2.43.0 (0)
 -->
<!-- Title: AR::InterruptBinary&lt; Tparticle &gt; Pages: 1 -->
<svg width="160pt" height="163pt"
 viewBox="0.00 0.00 160.00 163.00" xmlns="http://www.w3.org/2000/svg" xmlns:xlink="http://www.w3.org/1999/xlink">
<g id="graph0" class="graph" transform="scale(1 1) rotate(0) translate(4 159)">
<title>AR::InterruptBinary&lt; Tparticle &gt;</title>
<polygon fill="white" stroke="transparent" points="-4,4 -4,-159 156,-159 156,4 -4,4"/>
<!-- Node1 -->
<g id="node1" class="node">
<title>Node1</title>
<g id="a_node1"><a xlink:title="Binary interrupt recoreder.">
<polygon fill="#bfbfbf" stroke="black" points="27,-0.5 27,-30.5 125,-30.5 125,-0.5 27,-0.5"/>
<text text-anchor="start" x="35" y="-18.5" font-family="FreeSans" font-size="10.00">AR::InterruptBinary</text>
<text text-anchor="middle" x="76" y="-7.5" font-family="FreeSans" font-size="10.00">&lt; Tparticle &gt;</text>
</a>
</g>
</g>
<!-- Node2 -->
<g id="node2" class="node">
<title>Node2</title>
<g id="a_node2"><a xlink:href="classCOMM_1_1BinaryTree.html" target="_top" xlink:title=" ">
<polygon fill="white" stroke="black" points="0,-78.5 0,-97.5 152,-97.5 152,-78.5 0,-78.5"/>
<text text-anchor="middle" x="76" y="-85.5" font-family="FreeSans" font-size="10.00">COMM::BinaryTree&lt; Tparticle &gt;</text>
</a>
</g>
</g>
<!-- Node2&#45;&gt;Node1 -->
<g id="edge1" class="edge">
<title>Node2&#45;&gt;Node1</title>
<path fill="none" stroke="#9a32cd" stroke-dasharray="5,2" d="M76,-68.24C76,-56.41 76,-41.38 76,-30.58"/>
<polygon fill="#9a32cd" stroke="#9a32cd" points="72.5,-68.36 76,-78.36 79.5,-68.36 72.5,-68.36"/>
<text text-anchor="middle" x="84" y="-52" font-family="FreeSans" font-size="10.00"> adr</text>
</g>
<!-- Node3 -->
<g id="node3" class="node">
<title>Node3</title>
<g id="a_node3"><a xlink:title=" ">
<polygon fill="white" stroke="#bfbfbf" points="15,-135.5 15,-154.5 69,-154.5 69,-135.5 15,-135.5"/>
<text text-anchor="middle" x="42" y="-142.5" font-family="FreeSans" font-size="10.00">Tparticle</text>
</a>
</g>
</g>
<!-- Node3&#45;&gt;Node2 -->
<g id="edge2" class="edge">
<title>Node3&#45;&gt;Node2</title>
<path fill="none" stroke="midnightblue" d="M52.73,-126.64C58.68,-117.01 65.83,-105.46 70.61,-97.71"/>
<polygon fill="midnightblue" stroke="midnightblue" points="49.59,-125.06 47.31,-135.41 55.55,-128.74 49.59,-125.06"/>
</g>
<!-- Node4 -->
<g id="node4" class="node">
<title>Node4</title>
<g id="a_node4"><a xlink:title=" ">
<polygon fill="white" stroke="#bfbfbf" points="87,-135.5 87,-154.5 135,-154.5 135,-135.5 87,-135.5"/>
<text text-anchor="middle" x="111" y="-142.5" font-family="FreeSans" font-size="10.00">Tbinary</text>
</a>
</g>
</g>
<!-- Node4&#45;&gt;Node2 -->
<g id="edge3" class="edge">
<title>Node4&#45;&gt;Node2</title>
<path fill="none" stroke="midnightblue" d="M100.14,-126.94C93.98,-117.25 86.53,-105.54 81.55,-97.71"/>
<polygon fill="midnightblue" stroke="midnightblue" points="97.21,-128.85 105.53,-135.41 103.12,-125.09 97.21,-128.85"/>
</g>
</g>
</svg>
