<?xml version="1.0" encoding="UTF-8" standalone="no"?>
<!DOCTYPE svg PUBLIC "-//W3C//DTD SVG 1.1//EN"
 "http://www.w3.org/Graphics/SVG/1.1/DTD/svg11.dtd">
<!-- Generated by graphviz version 2.38.0 (20140413.2041)
 -->
<!-- Title: symplectic_integrator.h Pages: 1 -->
<svg width="794pt" height="252pt"
 viewBox="0.00 0.00 794.00 252.00" xmlns="http://www.w3.org/2000/svg" xmlns:xlink="http://www.w3.org/1999/xlink">
<g id="graph0" class="graph" transform="scale(1 1) rotate(0) translate(4 248)">
<title>symplectic_integrator.h</title>
<polygon fill="white" stroke="none" points="-4,4 -4,-248 790,-248 790,4 -4,4"/>
<!-- Node1 -->
<g id="node1" class="node"><title>Node1</title>
<polygon fill="#bfbfbf" stroke="black" points="298.5,-224.5 298.5,-243.5 414.5,-243.5 414.5,-224.5 298.5,-224.5"/>
<text text-anchor="middle" x="356.5" y="-231.5" font-family="FreeSans" font-size="10.00">symplectic_integrator.h</text>
</g>
<!-- Node2 -->
<g id="node2" class="node"><title>Node2</title>
<polygon fill="white" stroke="#bfbfbf" points="0,-168.5 0,-187.5 59,-187.5 59,-168.5 0,-168.5"/>
<text text-anchor="middle" x="29.5" y="-175.5" font-family="FreeSans" font-size="10.00">functional</text>
</g>
<!-- Node1&#45;&gt;Node2 -->
<g id="edge1" class="edge"><title>Node1&#45;&gt;Node2</title>
<path fill="none" stroke="midnightblue" d="M298.42,-225.315C242.126,-217.56 154.123,-204.632 69.3722,-188.257"/>
<polygon fill="midnightblue" stroke="midnightblue" points="69.8082,-184.776 59.3229,-186.296 68.4674,-191.646 69.8082,-184.776"/>
</g>
<!-- Node3 -->
<g id="node3" class="node"><title>Node3</title>
<g id="a_node3"><a xlink:href="list_8h.html" target="_top" xlink:title="Common/list.h">
<polygon fill="white" stroke="black" points="253.5,-112.5 253.5,-131.5 331.5,-131.5 331.5,-112.5 253.5,-112.5"/>
<text text-anchor="middle" x="292.5" y="-119.5" font-family="FreeSans" font-size="10.00">Common/list.h</text>
</a>
</g>
</g>
<!-- Node1&#45;&gt;Node3 -->
<g id="edge2" class="edge"><title>Node1&#45;&gt;Node3</title>
<path fill="none" stroke="midnightblue" d="M351.478,-224.368C340.963,-206.296 316.457,-164.176 302.57,-140.307"/>
<polygon fill="midnightblue" stroke="midnightblue" points="305.553,-138.475 297.499,-131.591 299.502,-141.995 305.553,-138.475"/>
</g>
<!-- Node6 -->
<g id="node6" class="node"><title>Node6</title>
<g id="a_node6"><a xlink:href="particle__group_8h.html" target="_top" xlink:title="Common/particle_group.h">
<polygon fill="white" stroke="black" points="182,-168.5 182,-187.5 309,-187.5 309,-168.5 182,-168.5"/>
<text text-anchor="middle" x="245.5" y="-175.5" font-family="FreeSans" font-size="10.00">Common/particle_group.h</text>
</a>
</g>
</g>
<!-- Node1&#45;&gt;Node6 -->
<g id="edge5" class="edge"><title>Node1&#45;&gt;Node6</title>
<path fill="none" stroke="midnightblue" d="M338.666,-224.324C320.784,-215.625 293.025,-202.12 272.454,-192.113"/>
<polygon fill="midnightblue" stroke="midnightblue" points="273.813,-188.882 263.29,-187.655 270.751,-195.177 273.813,-188.882"/>
</g>
<!-- Node8 -->
<g id="node8" class="node"><title>Node8</title>
<g id="a_node8"><a xlink:href="symplectic__step_8h.html" target="_top" xlink:title="AR/symplectic_step.h">
<polygon fill="white" stroke="black" points="467.5,-112.5 467.5,-131.5 577.5,-131.5 577.5,-112.5 467.5,-112.5"/>
<text text-anchor="middle" x="522.5" y="-119.5" font-family="FreeSans" font-size="10.00">AR/symplectic_step.h</text>
</a>
</g>
</g>
<!-- Node1&#45;&gt;Node8 -->
<g id="edge9" class="edge"><title>Node1&#45;&gt;Node8</title>
<path fill="none" stroke="midnightblue" d="M414.738,-227.933C444.55,-222.456 479.343,-211.168 502.5,-188 514.618,-175.876 519.424,-156.597 521.314,-142.178"/>
<polygon fill="midnightblue" stroke="midnightblue" points="524.83,-142.172 522.288,-131.886 517.861,-141.512 524.83,-142.172"/>
</g>
<!-- Node10 -->
<g id="node10" class="node"><title>Node10</title>
<g id="a_node10"><a xlink:href="force_8h.html" target="_top" xlink:title="AR/force.h">
<polygon fill="white" stroke="black" points="349.5,-112.5 349.5,-131.5 411.5,-131.5 411.5,-112.5 349.5,-112.5"/>
<text text-anchor="middle" x="380.5" y="-119.5" font-family="FreeSans" font-size="10.00">AR/force.h</text>
</a>
</g>
</g>
<!-- Node1&#45;&gt;Node10 -->
<g id="edge12" class="edge"><title>Node1&#45;&gt;Node10</title>
<path fill="none" stroke="midnightblue" d="M358.383,-224.368C362.256,-206.617 371.191,-165.666 376.442,-141.597"/>
<polygon fill="midnightblue" stroke="midnightblue" points="379.913,-142.108 378.626,-131.591 373.074,-140.615 379.913,-142.108"/>
</g>
<!-- Node11 -->
<g id="node11" class="node"><title>Node11</title>
<g id="a_node11"><a xlink:href="slow__down_8h.html" target="_top" xlink:title="AR/slow_down.h">
<polygon fill="white" stroke="black" points="77,-168.5 77,-187.5 164,-187.5 164,-168.5 77,-168.5"/>
<text text-anchor="middle" x="120.5" y="-175.5" font-family="FreeSans" font-size="10.00">AR/slow_down.h</text>
</a>
</g>
</g>
<!-- Node1&#45;&gt;Node11 -->
<g id="edge14" class="edge"><title>Node1&#45;&gt;Node11</title>
<path fill="none" stroke="midnightblue" d="M319.105,-224.444C278.108,-215.063 212.246,-199.993 167.716,-189.804"/>
<polygon fill="midnightblue" stroke="midnightblue" points="168.249,-186.335 157.72,-187.516 166.687,-193.159 168.249,-186.335"/>
</g>
<!-- Node12 -->
<g id="node12" class="node"><title>Node12</title>
<g id="a_node12"><a xlink:href="AR_2profile_8h.html" target="_top" xlink:title="AR/profile.h">
<polygon fill="white" stroke="black" points="636.5,-168.5 636.5,-187.5 702.5,-187.5 702.5,-168.5 636.5,-168.5"/>
<text text-anchor="middle" x="669.5" y="-175.5" font-family="FreeSans" font-size="10.00">AR/profile.h</text>
</a>
</g>
</g>
<!-- Node1&#45;&gt;Node12 -->
<g id="edge16" class="edge"><title>Node1&#45;&gt;Node12</title>
<path fill="none" stroke="midnightblue" d="M406.096,-224.444C466.914,-213.951 568.991,-196.34 626.585,-186.404"/>
<polygon fill="midnightblue" stroke="midnightblue" points="627.2,-189.85 636.459,-184.7 626.01,-182.951 627.2,-189.85"/>
</g>
<!-- Node14 -->
<g id="node14" class="node"><title>Node14</title>
<g id="a_node14"><a xlink:href="information_8h.html" target="_top" xlink:title="AR/information.h">
<polygon fill="white" stroke="black" points="404,-168.5 404,-187.5 493,-187.5 493,-168.5 404,-168.5"/>
<text text-anchor="middle" x="448.5" y="-175.5" font-family="FreeSans" font-size="10.00">AR/information.h</text>
</a>
</g>
</g>
<!-- Node1&#45;&gt;Node14 -->
<g id="edge18" class="edge"><title>Node1&#45;&gt;Node14</title>
<path fill="none" stroke="midnightblue" d="M371.281,-224.324C385.767,-215.822 408.073,-202.729 424.993,-192.797"/>
<polygon fill="midnightblue" stroke="midnightblue" points="426.903,-195.735 433.755,-187.655 423.359,-189.698 426.903,-195.735"/>
</g>
<!-- Node4 -->
<g id="node4" class="node"><title>Node4</title>
<g id="a_node4"><a xlink:href="Float_8h.html" target="_top" xlink:title="Common/Float.h">
<polygon fill="white" stroke="black" points="292.5,-56.5 292.5,-75.5 380.5,-75.5 380.5,-56.5 292.5,-56.5"/>
<text text-anchor="middle" x="336.5" y="-63.5" font-family="FreeSans" font-size="10.00">Common/Float.h</text>
</a>
</g>
</g>
<!-- Node3&#45;&gt;Node4 -->
<g id="edge3" class="edge"><title>Node3&#45;&gt;Node4</title>
<path fill="none" stroke="midnightblue" d="M299.766,-112.083C306.045,-104.377 315.288,-93.0333 322.931,-83.6531"/>
<polygon fill="midnightblue" stroke="midnightblue" points="325.766,-85.7143 329.369,-75.7511 320.339,-81.2926 325.766,-85.7143"/>
</g>
<!-- Node5 -->
<g id="node5" class="node"><title>Node5</title>
<polygon fill="white" stroke="#bfbfbf" points="317,-0.5 317,-19.5 356,-19.5 356,-0.5 317,-0.5"/>
<text text-anchor="middle" x="336.5" y="-7.5" font-family="FreeSans" font-size="10.00">limits</text>
</g>
<!-- Node4&#45;&gt;Node5 -->
<g id="edge4" class="edge"><title>Node4&#45;&gt;Node5</title>
<path fill="none" stroke="midnightblue" d="M336.5,-56.083C336.5,-49.0059 336.5,-38.8611 336.5,-29.9865"/>
<polygon fill="midnightblue" stroke="midnightblue" points="340,-29.751 336.5,-19.7511 333,-29.7511 340,-29.751"/>
</g>
<!-- Node6&#45;&gt;Node3 -->
<g id="edge8" class="edge"><title>Node6&#45;&gt;Node3</title>
<path fill="none" stroke="midnightblue" d="M253.261,-168.083C260.037,-160.298 270.043,-148.801 278.255,-139.367"/>
<polygon fill="midnightblue" stroke="midnightblue" points="280.958,-141.592 284.883,-131.751 275.678,-136.996 280.958,-141.592"/>
</g>
<!-- Node6&#45;&gt;Node4 -->
<g id="edge7" class="edge"><title>Node6&#45;&gt;Node4</title>
<path fill="none" stroke="midnightblue" d="M242.572,-168.214C238.718,-154.927 233.625,-129.426 244.5,-112 254.258,-96.3644 271.197,-86.013 287.902,-79.2301"/>
<polygon fill="midnightblue" stroke="midnightblue" points="289.482,-82.378 297.655,-75.6357 287.062,-75.8098 289.482,-82.378"/>
</g>
<!-- Node7 -->
<g id="node7" class="node"><title>Node7</title>
<polygon fill="white" stroke="#bfbfbf" points="147.5,-112.5 147.5,-131.5 197.5,-131.5 197.5,-112.5 147.5,-112.5"/>
<text text-anchor="middle" x="172.5" y="-119.5" font-family="FreeSans" font-size="10.00">iomanip</text>
</g>
<!-- Node6&#45;&gt;Node7 -->
<g id="edge6" class="edge"><title>Node6&#45;&gt;Node7</title>
<path fill="none" stroke="midnightblue" d="M233.771,-168.324C222.663,-160.107 205.758,-147.602 192.517,-137.807"/>
<polygon fill="midnightblue" stroke="midnightblue" points="194.563,-134.967 184.442,-131.834 190.4,-140.595 194.563,-134.967"/>
</g>
<!-- Node8&#45;&gt;Node4 -->
<g id="edge11" class="edge"><title>Node8&#45;&gt;Node4</title>
<path fill="none" stroke="midnightblue" d="M493.028,-112.444C461.329,-103.241 410.768,-88.5617 375.725,-78.3879"/>
<polygon fill="midnightblue" stroke="midnightblue" points="376.414,-74.9434 365.834,-75.5164 374.462,-81.6658 376.414,-74.9434"/>
</g>
<!-- Node9 -->
<g id="node9" class="node"><title>Node9</title>
<polygon fill="white" stroke="#bfbfbf" points="512.5,-56.5 512.5,-75.5 568.5,-75.5 568.5,-56.5 512.5,-56.5"/>
<text text-anchor="middle" x="540.5" y="-63.5" font-family="FreeSans" font-size="10.00">algorithm</text>
</g>
<!-- Node8&#45;&gt;Node9 -->
<g id="edge10" class="edge"><title>Node8&#45;&gt;Node9</title>
<path fill="none" stroke="midnightblue" d="M525.472,-112.083C527.884,-104.849 531.364,-94.4087 534.368,-85.3968"/>
<polygon fill="midnightblue" stroke="midnightblue" points="537.741,-86.3447 537.583,-75.7511 531.1,-84.1311 537.741,-86.3447"/>
</g>
<!-- Node10&#45;&gt;Node4 -->
<g id="edge13" class="edge"><title>Node10&#45;&gt;Node4</title>
<path fill="none" stroke="midnightblue" d="M373.234,-112.083C366.955,-104.377 357.712,-93.0333 350.069,-83.6531"/>
<polygon fill="midnightblue" stroke="midnightblue" points="352.661,-81.2926 343.631,-75.7511 347.234,-85.7143 352.661,-81.2926"/>
</g>
<!-- Node11&#45;&gt;Node4 -->
<g id="edge15" class="edge"><title>Node11&#45;&gt;Node4</title>
<path fill="none" stroke="midnightblue" d="M120.267,-168.451C120.382,-154.536 122.744,-127.037 138.5,-112 158.881,-92.5485 231.004,-79.8438 282.308,-73.0441"/>
<polygon fill="midnightblue" stroke="midnightblue" points="282.798,-76.51 292.27,-71.7626 281.905,-69.5672 282.798,-76.51"/>
</g>
<!-- Node13 -->
<g id="node13" class="node"><title>Node13</title>
<polygon fill="white" stroke="#bfbfbf" points="727,-112.5 727,-131.5 786,-131.5 786,-112.5 727,-112.5"/>
<text text-anchor="middle" x="756.5" y="-119.5" font-family="FreeSans" font-size="10.00">sys/time.h</text>
</g>
<!-- Node12&#45;&gt;Node13 -->
<g id="edge17" class="edge"><title>Node12&#45;&gt;Node13</title>
<path fill="none" stroke="midnightblue" d="M683.478,-168.324C697.05,-159.9 717.88,-146.971 733.825,-137.074"/>
<polygon fill="midnightblue" stroke="midnightblue" points="735.906,-139.902 742.557,-131.655 732.214,-133.954 735.906,-139.902"/>
</g>
<!-- Node14&#45;&gt;Node4 -->
<g id="edge19" class="edge"><title>Node14&#45;&gt;Node4</title>
<path fill="none" stroke="midnightblue" d="M446.73,-168.419C443.567,-154.946 435.792,-128.652 420.5,-112 407.217,-97.5357 388.191,-86.81 371.605,-79.4657"/>
<polygon fill="midnightblue" stroke="midnightblue" points="372.76,-76.1549 362.183,-75.5295 370.061,-82.6139 372.76,-76.1549"/>
</g>
<!-- Node15 -->
<g id="node15" class="node"><title>Node15</title>
<g id="a_node15"><a xlink:href="binary__tree_8h.html" target="_top" xlink:title="Common/binary_tree.h">
<polygon fill="white" stroke="black" points="596,-112.5 596,-131.5 709,-131.5 709,-112.5 596,-112.5"/>
<text text-anchor="middle" x="652.5" y="-119.5" font-family="FreeSans" font-size="10.00">Common/binary_tree.h</text>
</a>
</g>
</g>
<!-- Node14&#45;&gt;Node15 -->
<g id="edge20" class="edge"><title>Node14&#45;&gt;Node15</title>
<path fill="none" stroke="midnightblue" d="M480.824,-168.444C515.889,-159.162 571.998,-144.309 610.465,-134.127"/>
<polygon fill="midnightblue" stroke="midnightblue" points="611.555,-137.459 620.327,-131.516 609.764,-130.692 611.555,-137.459"/>
</g>
<!-- Node15&#45;&gt;Node9 -->
<g id="edge22" class="edge"><title>Node15&#45;&gt;Node9</title>
<path fill="none" stroke="midnightblue" d="M634.505,-112.324C616.462,-103.625 588.453,-90.1202 567.697,-80.113"/>
<polygon fill="midnightblue" stroke="midnightblue" points="568.978,-76.8449 558.45,-75.6545 565.938,-83.1502 568.978,-76.8449"/>
</g>
<!-- Node16 -->
<g id="node16" class="node"><title>Node16</title>
<polygon fill="white" stroke="#bfbfbf" points="648.5,-0.5 648.5,-19.5 692.5,-19.5 692.5,-0.5 648.5,-0.5"/>
<text text-anchor="middle" x="670.5" y="-7.5" font-family="FreeSans" font-size="10.00">cmath</text>
</g>
<!-- Node15&#45;&gt;Node16 -->
<g id="edge21" class="edge"><title>Node15&#45;&gt;Node16</title>
<path fill="none" stroke="midnightblue" d="M651.484,-112.489C650.219,-99.9779 648.659,-75.946 652.5,-56 654.29,-46.7047 657.983,-36.8887 661.561,-28.8048"/>
<polygon fill="midnightblue" stroke="midnightblue" points="664.773,-30.1981 665.879,-19.6611 658.444,-27.2089 664.773,-30.1981"/>
</g>
<!-- Node17 -->
<g id="node17" class="node"><title>Node17</title>
<g id="a_node17"><a xlink:href="matrix_8h.html" target="_top" xlink:title="Common/matrix.h">
<polygon fill="white" stroke="black" points="661.5,-56.5 661.5,-75.5 753.5,-75.5 753.5,-56.5 661.5,-56.5"/>
<text text-anchor="middle" x="707.5" y="-63.5" font-family="FreeSans" font-size="10.00">Common/matrix.h</text>
</a>
</g>
</g>
<!-- Node15&#45;&gt;Node17 -->
<g id="edge23" class="edge"><title>Node15&#45;&gt;Node17</title>
<path fill="none" stroke="midnightblue" d="M661.582,-112.083C669.671,-104.141 681.695,-92.3354 691.41,-82.7973"/>
<polygon fill="midnightblue" stroke="midnightblue" points="693.903,-85.2545 698.587,-75.7511 688.999,-80.2595 693.903,-85.2545"/>
</g>
<!-- Node17&#45;&gt;Node16 -->
<g id="edge24" class="edge"><title>Node17&#45;&gt;Node16</title>
<path fill="none" stroke="midnightblue" d="M701.39,-56.083C696.218,-48.5341 688.654,-37.4948 682.306,-28.2298"/>
<polygon fill="midnightblue" stroke="midnightblue" points="685.036,-26.0221 676.496,-19.7511 679.261,-29.9787 685.036,-26.0221"/>
</g>
</g>
</svg>
