<?xml version="1.0" encoding="UTF-8" standalone="no"?>
<!DOCTYPE svg PUBLIC "-//W3C//DTD SVG 1.1//EN"
 "http://www.w3.org/Graphics/SVG/1.1/DTD/svg11.dtd">
<!-- Generated by graphviz version 2.43.0 (0)
 -->
<!-- Title: symplectic_integrator.h Pages: 1 -->
<!--zoomable 308 -->
<svg id="main" version="1.1" xmlns="http://www.w3.org/2000/svg" xmlns:xlink="http://www.w3.org/1999/xlink" xml:space="preserve" onload="init(evt)">
<style type="text/css"><![CDATA[
.edge:hover path { stroke: red; }
.edge:hover polygon { stroke: red; fill: red; }
]]></style>
<script type="text/javascript"><![CDATA[
var edges = document.getElementsByTagName('g');
if (edges && edges.length) {
  for (var i=0;i<edges.length;i++) {
    if (edges[i].id.substr(0,4)=='edge') {
      edges[i].setAttribute('class','edge');
    }
  }
}
]]></script>
        <defs>
                <circle id="rim" cx="0" cy="0" r="7"/>
                <circle id="rim2" cx="0" cy="0" r="3.5"/>
                <g id="zoomPlus">
                        <use xlink:href="#rim" fill="#404040">
                                <set attributeName="fill" to="#808080" begin="zoomplus.mouseover" end="zoomplus.mouseout"/>
                        </use>
                        <path d="M-4,0h8M0,-4v8" fill="none" stroke="white" stroke-width="1.5" pointer-events="none"/>
                </g>
                <g id="zoomMin">
                        <use xlink:href="#rim" fill="#404040">
                                <set attributeName="fill" to="#808080" begin="zoomminus.mouseover" end="zoomminus.mouseout"/>
                        </use>
                        <path d="M-4,0h8" fill="none" stroke="white" stroke-width="1.5" pointer-events="none"/>
                </g>
                <g id="dirArrow">
                        <path fill="none" stroke="white" stroke-width="1.5" d="M0,-3.0v7 M-2.5,-0.5L0,-3.0L2.5,-0.5"/>
                </g>
               <g id="resetDef">
                       <use xlink:href="#rim2" fill="#404040">
                               <set attributeName="fill" to="#808080" begin="reset.mouseover" end="reset.mouseout"/>
                       </use>
               </g>
        </defs>

<script type="text/javascript">
var viewWidth = 691;
var viewHeight = 308;
var sectionId = 'dynsection-0';
</script>
<script xlink:href="svgpan.js"/>
<svg id="graph" class="graph">
<g id="viewport">
<title>symplectic_integrator.h</title>
<polygon fill="white" stroke="transparent" points="-4,4 -4,-304 687,-304 687,4 -4,4"/>
<!-- Node1 -->
<g id="node1" class="node">
<title>Node1</title>
<g id="a_node1"><a xlink:title=" ">
<polygon fill="#bfbfbf" stroke="black" points="293.5,-280.5 293.5,-299.5 409.5,-299.5 409.5,-280.5 293.5,-280.5"/>
<text text-anchor="middle" x="351.5" y="-287.5" font-family="FreeSans" font-size="10.00">symplectic_integrator.h</text>
</a>
</g>
</g>
<!-- Node2 -->
<g id="node2" class="node">
<title>Node2</title>
<g id="a_node2"><a xlink:title=" ">
<polygon fill="white" stroke="#bfbfbf" points="0,-224.5 0,-243.5 59,-243.5 59,-224.5 0,-224.5"/>
<text text-anchor="middle" x="29.5" y="-231.5" font-family="FreeSans" font-size="10.00">functional</text>
</a>
</g>
</g>
<!-- Node1&#45;&gt;Node2 -->
<g id="edge1" class="edge">
<title>Node1&#45;&gt;Node2</title>
<path fill="none" stroke="midnightblue" d="M294.41,-280.46C238.13,-271.88 149.73,-257.96 73.5,-244 72.06,-243.74 70.6,-243.46 69.12,-243.18"/>
<polygon fill="midnightblue" stroke="midnightblue" points="69.77,-239.75 59.29,-241.27 68.43,-246.62 69.77,-239.75"/>
</g>
<!-- Node3 -->
<g id="node3" class="node">
<title>Node3</title>
<g id="a_node3"><a xlink:href="list_8h.html" target="_top" xlink:title=" ">
<polygon fill="white" stroke="black" points="83,-112.5 83,-131.5 162,-131.5 162,-112.5 83,-112.5"/>
<text text-anchor="middle" x="122.5" y="-119.5" font-family="FreeSans" font-size="10.00">Common/list.h</text>
</a>
</g>
</g>
<!-- Node1&#45;&gt;Node3 -->
<g id="edge2" class="edge">
<title>Node1&#45;&gt;Node3</title>
<path fill="none" stroke="midnightblue" d="M293.43,-283.2C235.06,-273.93 147.96,-249.94 106.5,-188 97.03,-173.86 103.63,-154.62 111.02,-140.75"/>
<polygon fill="midnightblue" stroke="midnightblue" points="114.26,-142.14 116.31,-131.75 108.23,-138.59 114.26,-142.14"/>
</g>
<!-- Node6 -->
<g id="node6" class="node">
<title>Node6</title>
<g id="a_node6"><a xlink:href="particle__group_8h.html" target="_top" xlink:title=" ">
<polygon fill="white" stroke="black" points="116,-168.5 116,-187.5 243,-187.5 243,-168.5 116,-168.5"/>
<text text-anchor="middle" x="179.5" y="-175.5" font-family="FreeSans" font-size="10.00">Common/particle_group.h</text>
</a>
</g>
</g>
<!-- Node1&#45;&gt;Node6 -->
<g id="edge5" class="edge">
<title>Node1&#45;&gt;Node6</title>
<path fill="none" stroke="midnightblue" d="M338,-280.37C308.49,-261.49 237.96,-216.38 201.76,-193.24"/>
<polygon fill="midnightblue" stroke="midnightblue" points="203.24,-190.03 192.93,-187.59 199.47,-195.93 203.24,-190.03"/>
</g>
<!-- Node8 -->
<g id="node8" class="node">
<title>Node8</title>
<g id="a_node8"><a xlink:href="symplectic__step_8h.html" target="_top" xlink:title=" ">
<polygon fill="white" stroke="black" points="572,-112.5 572,-131.5 683,-131.5 683,-112.5 572,-112.5"/>
<text text-anchor="middle" x="627.5" y="-119.5" font-family="FreeSans" font-size="10.00">AR/symplectic_step.h</text>
</a>
</g>
</g>
<!-- Node1&#45;&gt;Node8 -->
<g id="edge9" class="edge">
<title>Node1&#45;&gt;Node8</title>
<path fill="none" stroke="midnightblue" d="M409.55,-282.52C439.94,-276.63 476.19,-265.4 502.5,-244 532.27,-219.78 516.32,-195.1 543.5,-168 557.6,-153.94 577.02,-143.15 593.63,-135.67"/>
<polygon fill="midnightblue" stroke="midnightblue" points="595.21,-138.8 603.02,-131.64 592.45,-132.36 595.21,-138.8"/>
</g>
<!-- Node11 -->
<g id="node11" class="node">
<title>Node11</title>
<g id="a_node11"><a xlink:href="force_8h.html" target="_top" xlink:title=" ">
<polygon fill="white" stroke="black" points="261.5,-168.5 261.5,-187.5 323.5,-187.5 323.5,-168.5 261.5,-168.5"/>
<text text-anchor="middle" x="292.5" y="-175.5" font-family="FreeSans" font-size="10.00">AR/force.h</text>
</a>
</g>
</g>
<!-- Node1&#45;&gt;Node11 -->
<g id="edge13" class="edge">
<title>Node1&#45;&gt;Node11</title>
<path fill="none" stroke="midnightblue" d="M346.87,-280.37C337.22,-262.38 314.79,-220.55 301.95,-196.63"/>
<polygon fill="midnightblue" stroke="midnightblue" points="304.92,-194.75 297.11,-187.59 298.75,-198.06 304.92,-194.75"/>
</g>
<!-- Node12 -->
<g id="node12" class="node">
<title>Node12</title>
<g id="a_node12"><a xlink:href="slow__down_8h.html" target="_top" xlink:title=" ">
<polygon fill="white" stroke="black" points="295,-112.5 295,-131.5 384,-131.5 384,-112.5 295,-112.5"/>
<text text-anchor="middle" x="339.5" y="-119.5" font-family="FreeSans" font-size="10.00">AR/slow_down.h</text>
</a>
</g>
</g>
<!-- Node1&#45;&gt;Node12 -->
<g id="edge15" class="edge">
<title>Node1&#45;&gt;Node12</title>
<path fill="none" stroke="midnightblue" d="M350.85,-280.08C348.97,-253.95 343.42,-177.21 340.84,-141.58"/>
<polygon fill="midnightblue" stroke="midnightblue" points="344.33,-141.29 340.12,-131.57 337.35,-141.79 344.33,-141.29"/>
</g>
<!-- Node13 -->
<g id="node13" class="node">
<title>Node13</title>
<g id="a_node13"><a xlink:href="AR_2profile_8h.html" target="_top" xlink:title=" ">
<polygon fill="white" stroke="black" points="549.5,-224.5 549.5,-243.5 615.5,-243.5 615.5,-224.5 549.5,-224.5"/>
<text text-anchor="middle" x="582.5" y="-231.5" font-family="FreeSans" font-size="10.00">AR/profile.h</text>
</a>
</g>
</g>
<!-- Node1&#45;&gt;Node13 -->
<g id="edge17" class="edge">
<title>Node1&#45;&gt;Node13</title>
<path fill="none" stroke="midnightblue" d="M388.1,-280.44C429.21,-270.83 495.85,-255.26 539.43,-245.07"/>
<polygon fill="midnightblue" stroke="midnightblue" points="540.5,-248.41 549.44,-242.73 538.9,-241.6 540.5,-248.41"/>
</g>
<!-- Node15 -->
<g id="node15" class="node">
<title>Node15</title>
<g id="a_node15"><a xlink:href="information_8h.html" target="_top" xlink:title=" ">
<polygon fill="white" stroke="black" points="380,-168.5 380,-187.5 469,-187.5 469,-168.5 380,-168.5"/>
<text text-anchor="middle" x="424.5" y="-175.5" font-family="FreeSans" font-size="10.00">AR/information.h</text>
</a>
</g>
</g>
<!-- Node1&#45;&gt;Node15 -->
<g id="edge19" class="edge">
<title>Node1&#45;&gt;Node15</title>
<path fill="none" stroke="midnightblue" d="M357.23,-280.37C369.28,-262.22 397.42,-219.8 413.22,-195.99"/>
<polygon fill="midnightblue" stroke="midnightblue" points="416.19,-197.86 418.8,-187.59 410.35,-193.99 416.19,-197.86"/>
</g>
<!-- Node19 -->
<g id="node19" class="node">
<title>Node19</title>
<g id="a_node19"><a xlink:href="interrupt_8h.html" target="_top" xlink:title=" ">
<polygon fill="white" stroke="black" points="417.5,-224.5 417.5,-243.5 493.5,-243.5 493.5,-224.5 417.5,-224.5"/>
<text text-anchor="middle" x="455.5" y="-231.5" font-family="FreeSans" font-size="10.00">AR/interrupt.h</text>
</a>
</g>
</g>
<!-- Node1&#45;&gt;Node19 -->
<g id="edge29" class="edge">
<title>Node1&#45;&gt;Node19</title>
<path fill="none" stroke="midnightblue" d="M368.21,-280.32C384.81,-271.7 410.5,-258.36 429.72,-248.39"/>
<polygon fill="midnightblue" stroke="midnightblue" points="431.57,-251.37 438.83,-243.65 428.34,-245.16 431.57,-251.37"/>
</g>
<!-- Node4 -->
<g id="node4" class="node">
<title>Node4</title>
<g id="a_node4"><a xlink:href="Float_8h.html" target="_top" xlink:title=" ">
<polygon fill="white" stroke="black" points="273.5,-56.5 273.5,-75.5 361.5,-75.5 361.5,-56.5 273.5,-56.5"/>
<text text-anchor="middle" x="317.5" y="-63.5" font-family="FreeSans" font-size="10.00">Common/Float.h</text>
</a>
</g>
</g>
<!-- Node3&#45;&gt;Node4 -->
<g id="edge3" class="edge">
<title>Node3&#45;&gt;Node4</title>
<path fill="none" stroke="midnightblue" d="M153.4,-112.44C186.77,-103.2 240.09,-88.44 276.85,-78.26"/>
<polygon fill="midnightblue" stroke="midnightblue" points="278.04,-81.56 286.75,-75.52 276.17,-74.81 278.04,-81.56"/>
</g>
<!-- Node5 -->
<g id="node5" class="node">
<title>Node5</title>
<g id="a_node5"><a xlink:title=" ">
<polygon fill="white" stroke="#bfbfbf" points="297.5,-0.5 297.5,-19.5 337.5,-19.5 337.5,-0.5 297.5,-0.5"/>
<text text-anchor="middle" x="317.5" y="-7.5" font-family="FreeSans" font-size="10.00">limits</text>
</a>
</g>
</g>
<!-- Node4&#45;&gt;Node5 -->
<g id="edge4" class="edge">
<title>Node4&#45;&gt;Node5</title>
<path fill="none" stroke="midnightblue" d="M317.5,-56.08C317.5,-49.01 317.5,-38.86 317.5,-29.99"/>
<polygon fill="midnightblue" stroke="midnightblue" points="321,-29.75 317.5,-19.75 314,-29.75 321,-29.75"/>
</g>
<!-- Node6&#45;&gt;Node3 -->
<g id="edge8" class="edge">
<title>Node6&#45;&gt;Node3</title>
<path fill="none" stroke="midnightblue" d="M170.34,-168.32C162,-160.42 149.47,-148.55 139.32,-138.94"/>
<polygon fill="midnightblue" stroke="midnightblue" points="141.49,-136.17 131.82,-131.83 136.68,-141.25 141.49,-136.17"/>
</g>
<!-- Node6&#45;&gt;Node4 -->
<g id="edge7" class="edge">
<title>Node6&#45;&gt;Node4</title>
<path fill="none" stroke="midnightblue" d="M190.33,-168.37C213.81,-149.65 269.64,-105.15 298.89,-81.83"/>
<polygon fill="midnightblue" stroke="midnightblue" points="301.08,-84.56 306.72,-75.59 296.72,-79.09 301.08,-84.56"/>
</g>
<!-- Node7 -->
<g id="node7" class="node">
<title>Node7</title>
<g id="a_node7"><a xlink:title=" ">
<polygon fill="white" stroke="#bfbfbf" points="198.5,-0.5 198.5,-19.5 248.5,-19.5 248.5,-0.5 198.5,-0.5"/>
<text text-anchor="middle" x="223.5" y="-7.5" font-family="FreeSans" font-size="10.00">iomanip</text>
</a>
</g>
</g>
<!-- Node6&#45;&gt;Node7 -->
<g id="edge6" class="edge">
<title>Node6&#45;&gt;Node7</title>
<path fill="none" stroke="midnightblue" d="M181.87,-168.08C188.79,-141.95 209.13,-65.21 218.58,-29.58"/>
<polygon fill="midnightblue" stroke="midnightblue" points="222.05,-30.13 221.23,-19.57 215.28,-28.34 222.05,-30.13"/>
</g>
<!-- Node8&#45;&gt;Node4 -->
<g id="edge12" class="edge">
<title>Node8&#45;&gt;Node4</title>
<path fill="none" stroke="midnightblue" d="M578.38,-112.44C522.17,-102.65 430.38,-86.66 372.01,-76.49"/>
<polygon fill="midnightblue" stroke="midnightblue" points="372.32,-73 361.87,-74.73 371.12,-79.89 372.32,-73"/>
</g>
<!-- Node9 -->
<g id="node9" class="node">
<title>Node9</title>
<g id="a_node9"><a xlink:title=" ">
<polygon fill="white" stroke="#bfbfbf" points="530.5,-56.5 530.5,-75.5 586.5,-75.5 586.5,-56.5 530.5,-56.5"/>
<text text-anchor="middle" x="558.5" y="-63.5" font-family="FreeSans" font-size="10.00">algorithm</text>
</a>
</g>
</g>
<!-- Node8&#45;&gt;Node9 -->
<g id="edge10" class="edge">
<title>Node8&#45;&gt;Node9</title>
<path fill="none" stroke="midnightblue" d="M616.41,-112.32C606.01,-104.18 590.24,-91.84 577.78,-82.09"/>
<polygon fill="midnightblue" stroke="midnightblue" points="579.82,-79.24 569.79,-75.83 575.51,-84.75 579.82,-79.24"/>
</g>
<!-- Node10 -->
<g id="node10" class="node">
<title>Node10</title>
<g id="a_node10"><a xlink:title=" ">
<polygon fill="white" stroke="#bfbfbf" points="608.5,-56.5 608.5,-75.5 646.5,-75.5 646.5,-56.5 608.5,-56.5"/>
<text text-anchor="middle" x="627.5" y="-63.5" font-family="FreeSans" font-size="10.00">array</text>
</a>
</g>
</g>
<!-- Node8&#45;&gt;Node10 -->
<g id="edge11" class="edge">
<title>Node8&#45;&gt;Node10</title>
<path fill="none" stroke="midnightblue" d="M627.5,-112.08C627.5,-105.01 627.5,-94.86 627.5,-85.99"/>
<polygon fill="midnightblue" stroke="midnightblue" points="631,-85.75 627.5,-75.75 624,-85.75 631,-85.75"/>
</g>
<!-- Node11&#45;&gt;Node4 -->
<g id="edge14" class="edge">
<title>Node11&#45;&gt;Node4</title>
<path fill="none" stroke="midnightblue" d="M289.63,-168.37C285.87,-155.7 280.44,-131.48 286.5,-112 289.73,-101.62 296.28,-91.52 302.52,-83.53"/>
<polygon fill="midnightblue" stroke="midnightblue" points="305.29,-85.68 309.02,-75.77 299.92,-81.19 305.29,-85.68"/>
</g>
<!-- Node12&#45;&gt;Node4 -->
<g id="edge16" class="edge">
<title>Node12&#45;&gt;Node4</title>
<path fill="none" stroke="midnightblue" d="M335.87,-112.08C332.89,-104.77 328.57,-94.18 324.88,-85.1"/>
<polygon fill="midnightblue" stroke="midnightblue" points="328.08,-83.69 321.07,-75.75 321.6,-86.33 328.08,-83.69"/>
</g>
<!-- Node14 -->
<g id="node14" class="node">
<title>Node14</title>
<g id="a_node14"><a xlink:title=" ">
<polygon fill="white" stroke="#bfbfbf" points="552,-168.5 552,-187.5 613,-187.5 613,-168.5 552,-168.5"/>
<text text-anchor="middle" x="582.5" y="-175.5" font-family="FreeSans" font-size="10.00">sys/time.h</text>
</a>
</g>
</g>
<!-- Node13&#45;&gt;Node14 -->
<g id="edge18" class="edge">
<title>Node13&#45;&gt;Node14</title>
<path fill="none" stroke="midnightblue" d="M582.5,-224.08C582.5,-217.01 582.5,-206.86 582.5,-197.99"/>
<polygon fill="midnightblue" stroke="midnightblue" points="586,-197.75 582.5,-187.75 579,-197.75 586,-197.75"/>
</g>
<!-- Node15&#45;&gt;Node4 -->
<g id="edge20" class="edge">
<title>Node15&#45;&gt;Node4</title>
<path fill="none" stroke="midnightblue" d="M422.21,-168.5C418.25,-155.13 409.02,-128.98 393.5,-112 380.99,-98.32 363.34,-87.52 348.2,-79.94"/>
<polygon fill="midnightblue" stroke="midnightblue" points="349.7,-76.77 339.17,-75.63 346.69,-83.09 349.7,-76.77"/>
</g>
<!-- Node15&#45;&gt;Node12 -->
<g id="edge28" class="edge">
<title>Node15&#45;&gt;Node12</title>
<path fill="none" stroke="midnightblue" d="M410.84,-168.32C397.58,-159.9 377.23,-146.97 361.65,-137.07"/>
<polygon fill="midnightblue" stroke="midnightblue" points="363.44,-134.06 353.12,-131.65 359.69,-139.97 363.44,-134.06"/>
</g>
<!-- Node16 -->
<g id="node16" class="node">
<title>Node16</title>
<g id="a_node16"><a xlink:href="binary__tree_8h.html" target="_top" xlink:title=" ">
<polygon fill="white" stroke="black" points="441,-112.5 441,-131.5 554,-131.5 554,-112.5 441,-112.5"/>
<text text-anchor="middle" x="497.5" y="-119.5" font-family="FreeSans" font-size="10.00">Common/binary_tree.h</text>
</a>
</g>
</g>
<!-- Node15&#45;&gt;Node16 -->
<g id="edge21" class="edge">
<title>Node15&#45;&gt;Node16</title>
<path fill="none" stroke="midnightblue" d="M436.23,-168.32C447.34,-160.11 464.24,-147.6 477.48,-137.81"/>
<polygon fill="midnightblue" stroke="midnightblue" points="479.6,-140.59 485.56,-131.83 475.44,-134.97 479.6,-140.59"/>
</g>
<!-- Node16&#45;&gt;Node4 -->
<g id="edge24" class="edge">
<title>Node16&#45;&gt;Node4</title>
<path fill="none" stroke="midnightblue" d="M468.98,-112.44C438.43,-103.28 389.79,-88.69 355.9,-78.52"/>
<polygon fill="midnightblue" stroke="midnightblue" points="356.47,-75.04 345.89,-75.52 354.46,-81.74 356.47,-75.04"/>
</g>
<!-- Node16&#45;&gt;Node9 -->
<g id="edge23" class="edge">
<title>Node16&#45;&gt;Node9</title>
<path fill="none" stroke="midnightblue" d="M507.3,-112.32C516.32,-104.34 529.91,-92.31 540.82,-82.65"/>
<polygon fill="midnightblue" stroke="midnightblue" points="543.35,-85.08 548.52,-75.83 538.71,-79.84 543.35,-85.08"/>
</g>
<!-- Node17 -->
<g id="node17" class="node">
<title>Node17</title>
<g id="a_node17"><a xlink:title=" ">
<polygon fill="white" stroke="#bfbfbf" points="440.5,-0.5 440.5,-19.5 484.5,-19.5 484.5,-0.5 440.5,-0.5"/>
<text text-anchor="middle" x="462.5" y="-7.5" font-family="FreeSans" font-size="10.00">cmath</text>
</a>
</g>
</g>
<!-- Node16&#45;&gt;Node17 -->
<g id="edge22" class="edge">
<title>Node16&#45;&gt;Node17</title>
<path fill="none" stroke="midnightblue" d="M495.63,-112.49C492.8,-99.98 487.07,-75.94 480.5,-56 477.5,-46.9 473.61,-36.99 470.21,-28.79"/>
<polygon fill="midnightblue" stroke="midnightblue" points="473.4,-27.35 466.27,-19.51 466.96,-30.08 473.4,-27.35"/>
</g>
<!-- Node18 -->
<g id="node18" class="node">
<title>Node18</title>
<g id="a_node18"><a xlink:href="matrix_8h.html" target="_top" xlink:title=" ">
<polygon fill="white" stroke="black" points="379.5,-56.5 379.5,-75.5 471.5,-75.5 471.5,-56.5 379.5,-56.5"/>
<text text-anchor="middle" x="425.5" y="-63.5" font-family="FreeSans" font-size="10.00">Common/matrix.h</text>
</a>
</g>
</g>
<!-- Node16&#45;&gt;Node18 -->
<g id="edge25" class="edge">
<title>Node16&#45;&gt;Node18</title>
<path fill="none" stroke="midnightblue" d="M485.93,-112.32C475.08,-104.18 458.62,-91.84 445.62,-82.09"/>
<polygon fill="midnightblue" stroke="midnightblue" points="447.38,-79.03 437.28,-75.83 443.18,-84.63 447.38,-79.03"/>
</g>
<!-- Node18&#45;&gt;Node7 -->
<g id="edge27" class="edge">
<title>Node18&#45;&gt;Node7</title>
<path fill="none" stroke="midnightblue" d="M393.49,-56.44C356.78,-46.63 296.78,-30.59 258.76,-20.43"/>
<polygon fill="midnightblue" stroke="midnightblue" points="259.22,-16.93 248.66,-17.73 257.41,-23.69 259.22,-16.93"/>
</g>
<!-- Node18&#45;&gt;Node17 -->
<g id="edge26" class="edge">
<title>Node18&#45;&gt;Node17</title>
<path fill="none" stroke="midnightblue" d="M431.61,-56.08C436.78,-48.53 444.35,-37.49 450.69,-28.23"/>
<polygon fill="midnightblue" stroke="midnightblue" points="453.74,-29.98 456.5,-19.75 447.96,-26.02 453.74,-29.98"/>
</g>
<!-- Node19&#45;&gt;Node15 -->
<g id="edge30" class="edge">
<title>Node19&#45;&gt;Node15</title>
<path fill="none" stroke="midnightblue" d="M450.38,-224.08C446.09,-216.61 439.84,-205.72 434.56,-196.52"/>
<polygon fill="midnightblue" stroke="midnightblue" points="437.54,-194.68 429.52,-187.75 431.47,-198.17 437.54,-194.68"/>
</g>
</g>
</svg>
        <g id="navigator" transform="translate(0 0)" fill="#404254">
                <rect fill="#f2f5e9" fill-opacity="0.5" stroke="#606060" stroke-width=".5" x="0" y="0" width="60" height="60"/>
                <use id="zoomplus" xlink:href="#zoomPlus" x="17" y="9" onmousedown="handleZoom(evt,'in')"/>
                <use id="zoomminus" xlink:href="#zoomMin" x="42" y="9" onmousedown="handleZoom(evt,'out')"/>
                <use id="reset" xlink:href="#resetDef" x="30" y="36" onmousedown="handleReset()"/>
                <g id="arrowUp" xlink:href="#dirArrow" transform="translate(30 24)" onmousedown="handlePan(0,-1)">
                  <use xlink:href="#rim" fill="#404040">
                        <set attributeName="fill" to="#808080" begin="arrowUp.mouseover" end="arrowUp.mouseout"/>
                  </use>
                  <path fill="none" stroke="white" stroke-width="1.5" d="M0,-3.0v7 M-2.5,-0.5L0,-3.0L2.5,-0.5"/>
                </g>
                <g id="arrowRight" xlink:href="#dirArrow" transform="rotate(90) translate(36 -43)" onmousedown="handlePan(1,0)">
                  <use xlink:href="#rim" fill="#404040">
                        <set attributeName="fill" to="#808080" begin="arrowRight.mouseover" end="arrowRight.mouseout"/>
                  </use>
                  <path fill="none" stroke="white" stroke-width="1.5" d="M0,-3.0v7 M-2.5,-0.5L0,-3.0L2.5,-0.5"/>
                </g>
                <g id="arrowDown" xlink:href="#dirArrow" transform="rotate(180) translate(-30 -48)" onmousedown="handlePan(0,1)">
                  <use xlink:href="#rim" fill="#404040">
                        <set attributeName="fill" to="#808080" begin="arrowDown.mouseover" end="arrowDown.mouseout"/>
                  </use>
                  <path fill="none" stroke="white" stroke-width="1.5" d="M0,-3.0v7 M-2.5,-0.5L0,-3.0L2.5,-0.5"/>
                </g>
                <g id="arrowLeft" xlink:href="#dirArrow" transform="rotate(270) translate(-36 17)" onmousedown="handlePan(-1,0)">
                  <use xlink:href="#rim" fill="#404040">
                        <set attributeName="fill" to="#808080" begin="arrowLeft.mouseover" end="arrowLeft.mouseout"/>
                  </use>
                  <path fill="none" stroke="white" stroke-width="1.5" d="M0,-3.0v7 M-2.5,-0.5L0,-3.0L2.5,-0.5"/>
                </g>
        </g>
        <svg viewBox="0 0 15 15" width="100%" height="30px" preserveAspectRatio="xMaxYMin meet">
         <g id="arrow_out" transform="scale(0.3 0.3)">
          <a xlink:href="symplectic__integrator_8h__incl_org.svg" target="_base">
           <rect id="button" ry="5" rx="5" y="6" x="6" height="38" width="38"
                fill="#f2f5e9" fill-opacity="0.5" stroke="#606060" stroke-width="1.0"/>
           <path id="arrow"
             d="M 11.500037,31.436501 C 11.940474,20.09759 22.043105,11.32322 32.158766,21.979434 L 37.068811,17.246167 C 37.068811,17.246167 37.088388,32 37.088388,32 L 22.160133,31.978069 C 22.160133,31.978069 26.997745,27.140456 26.997745,27.140456 C 18.528582,18.264221 13.291696,25.230495 11.500037,31.436501 z"
             style="fill:#404040;"/>
          </a>
         </g>
        </svg>
</svg>
