<?xml version="1.0" encoding="UTF-8" standalone="no"?>
<!DOCTYPE svg PUBLIC "-//W3C//DTD SVG 1.1//EN"
 "http://www.w3.org/Graphics/SVG/1.1/DTD/svg11.dtd">
<!-- Generated by graphviz version 2.38.0 (20140413.2041)
 -->
<!-- Title: symplectic_step.h Pages: 1 -->
<svg width="170pt" height="140pt"
 viewBox="0.00 0.00 170.00 140.00" xmlns="http://www.w3.org/2000/svg" xmlns:xlink="http://www.w3.org/1999/xlink">
<g id="graph0" class="graph" transform="scale(1 1) rotate(0) translate(4 136)">
<title>symplectic_step.h</title>
<polygon fill="white" stroke="none" points="-4,4 -4,-136 166,-136 166,4 -4,4"/>
<!-- Node1 -->
<g id="node1" class="node"><title>Node1</title>
<polygon fill="#bfbfbf" stroke="black" points="26.5,-112.5 26.5,-131.5 119.5,-131.5 119.5,-112.5 26.5,-112.5"/>
<text text-anchor="middle" x="73" y="-119.5" font-family="FreeSans" font-size="10.00">symplectic_step.h</text>
</g>
<!-- Node2 -->
<g id="node2" class="node"><title>Node2</title>
<polygon fill="white" stroke="#bfbfbf" points="-3.55271e-15,-56.5 -3.55271e-15,-75.5 56,-75.5 56,-56.5 -3.55271e-15,-56.5"/>
<text text-anchor="middle" x="28" y="-63.5" font-family="FreeSans" font-size="10.00">algorithm</text>
</g>
<!-- Node1&#45;&gt;Node2 -->
<g id="edge1" class="edge"><title>Node1&#45;&gt;Node2</title>
<path fill="none" stroke="midnightblue" d="M65.5692,-112.083C59.1473,-104.377 49.6944,-93.0333 41.8775,-83.6531"/>
<polygon fill="midnightblue" stroke="midnightblue" points="44.3832,-81.1927 35.2926,-75.7511 39.0057,-85.674 44.3832,-81.1927"/>
</g>
<!-- Node3 -->
<g id="node3" class="node"><title>Node3</title>
<g id="a_node3"><a xlink:href="Float_8h.html" target="_top" xlink:title="Common/Float.h">
<polygon fill="white" stroke="black" points="74,-56.5 74,-75.5 162,-75.5 162,-56.5 74,-56.5"/>
<text text-anchor="middle" x="118" y="-63.5" font-family="FreeSans" font-size="10.00">Common/Float.h</text>
</a>
</g>
</g>
<!-- Node1&#45;&gt;Node3 -->
<g id="edge2" class="edge"><title>Node1&#45;&gt;Node3</title>
<path fill="none" stroke="midnightblue" d="M80.4308,-112.083C86.8527,-104.377 96.3056,-93.0333 104.122,-83.6531"/>
<polygon fill="midnightblue" stroke="midnightblue" points="106.994,-85.674 110.707,-75.7511 101.617,-81.1927 106.994,-85.674"/>
</g>
<!-- Node4 -->
<g id="node4" class="node"><title>Node4</title>
<polygon fill="white" stroke="#bfbfbf" points="98.5,-0.5 98.5,-19.5 137.5,-19.5 137.5,-0.5 98.5,-0.5"/>
<text text-anchor="middle" x="118" y="-7.5" font-family="FreeSans" font-size="10.00">limits</text>
</g>
<!-- Node3&#45;&gt;Node4 -->
<g id="edge3" class="edge"><title>Node3&#45;&gt;Node4</title>
<path fill="none" stroke="midnightblue" d="M118,-56.083C118,-49.0059 118,-38.8611 118,-29.9865"/>
<polygon fill="midnightblue" stroke="midnightblue" points="121.5,-29.751 118,-19.7511 114.5,-29.7511 121.5,-29.751"/>
</g>
</g>
</svg>
